<svg width="114" height="128" viewBox="0 0 114 128" fill="none" xmlns="http://www.w3.org/2000/svg">
<path d="M32.4663 82.6726C32.4663 81.0818 32.8276 79.6654 33.6765 78.5429L33.6797 78.5387L33.6814 78.5365L62.4162 40.8767H40.4429C38.5729 40.8767 36.9417 40.4118 35.7875 39.2671C34.6346 38.1238 34.1675 36.5103 34.1675 34.6605C34.1675 32.8107 34.6346 31.1972 35.7875 30.0539C36.9417 28.9092 38.5729 28.4443 40.4429 28.4443H74.1165C75.9865 28.4443 77.6176 28.9092 78.7719 30.0539C79.9247 31.1972 80.3919 32.8107 80.3919 34.6605C80.3919 36.2513 80.0305 37.6677 79.1816 38.7902L79.1787 38.794L50.5435 76.4565H75.1852C77.0552 76.4565 78.6864 76.9213 79.8406 78.066C80.9935 79.2093 81.4606 80.8228 81.4606 82.6726C81.4606 84.5224 80.9935 86.1359 79.8406 87.2792C78.6864 88.4239 77.0552 88.8888 75.1852 88.8888H38.7417C36.8717 88.8888 35.2405 88.4239 34.0863 87.2792C32.9334 86.1359 32.4663 84.5224 32.4663 82.6726Z" fill="white"/>
<path fill-rule="evenodd" clip-rule="evenodd" d="M30.3184 0L30.3169 1.97799e-06C22.2826 0.0103854 14.5796 3.21172 8.8965 8.90306C3.21334 14.5945 0.0138322 22.3117 0 30.3633V85.4935C0.0103748 93.5474 3.20838 101.268 8.89191 106.962C14.5754 112.656 22.2803 115.86 30.3169 115.87H63.914C65.6142 115.871 67.2925 116.251 68.8278 116.981L83.8267 126.648C85.0986 127.504 86.59 127.973 88.1216 128L88.1318 128H88.1419C89.8237 128 91.5238 127.374 92.8109 126.109C94.1104 124.833 94.9223 122.972 94.9366 120.631L94.9366 120.624V113.567L95.6993 113.137C100.951 110.705 105.401 106.821 108.526 101.942C111.659 97.0483 113.328 91.3581 113.336 85.5438V30.3639C113.326 22.3201 110.135 14.6086 104.462 8.91786C98.7892 3.22717 91.0975 0.0207777 83.071 0H30.3184ZM63.8875 108.756H63.8896C66.8968 108.755 69.8577 109.499 72.5092 110.921L72.5506 110.944L87.6955 120.693L87.728 120.717C87.7654 120.745 87.8047 120.77 87.8455 120.792C87.8506 120.724 87.8531 120.651 87.8531 120.574V113.175C87.752 112.162 87.9304 111.141 88.3693 110.223C88.8183 109.284 89.5219 108.49 90.3994 107.933L90.4265 107.915L92.5821 106.706L92.6266 106.685C96.6864 104.831 100.129 101.848 102.544 98.0901C104.96 94.3326 106.247 89.9593 106.253 85.4903V30.3672C106.243 24.2004 103.794 18.2885 99.4408 13.9272C95.0879 9.56609 89.1863 7.1113 83.0294 7.10156H30.2823C24.1297 7.11779 18.2345 9.57535 13.8869 13.9357C9.5392 18.296 7.09321 24.204 7.08351 30.3662V85.5416C7.09 91.7123 9.5395 97.6288 13.8953 101.993C18.2509 106.357 24.1568 108.812 30.3175 108.819H30.3196L63.8875 108.756Z" fill="white"/>
</svg>
