<svg width="48" height="48" viewBox="0 0 48 48" fill="none" xmlns="http://www.w3.org/2000/svg">
<path fill-rule="evenodd" clip-rule="evenodd" d="M24 4.5C24.8284 4.5 25.5 5.17157 25.5 6V12C25.5 12.8284 24.8284 13.5 24 13.5C23.1716 13.5 22.5 12.8284 22.5 12V6C22.5 5.17157 23.1716 4.5 24 4.5Z" fill="#6732D1"/>
<path fill-rule="evenodd" clip-rule="evenodd" d="M37.8607 10.1393C38.4464 10.7251 38.4464 11.6749 37.8607 12.2607L33.5607 16.5607C32.9749 17.1464 32.0251 17.1464 31.4393 16.5607C30.8536 15.9749 30.8536 15.0251 31.4393 14.4393L35.7393 10.1393C36.3251 9.55355 37.2749 9.55355 37.8607 10.1393Z" fill="#6732D1"/>
<path fill-rule="evenodd" clip-rule="evenodd" d="M34.5 24C34.5 23.1716 35.1716 22.5 36 22.5H42C42.8284 22.5 43.5 23.1716 43.5 24C43.5 24.8284 42.8284 25.5 42 25.5H36C35.1716 25.5 34.5 24.8284 34.5 24Z" fill="#6732D1"/>
<path fill-rule="evenodd" clip-rule="evenodd" d="M31.4393 31.4393C32.0251 30.8536 32.9749 30.8536 33.5607 31.4393L37.8607 35.7393C38.4464 36.3251 38.4464 37.2749 37.8607 37.8607C37.2749 38.4464 36.3251 38.4464 35.7393 37.8607L31.4393 33.5607C30.8536 32.9749 30.8536 32.0251 31.4393 31.4393Z" fill="#6732D1"/>
<path fill-rule="evenodd" clip-rule="evenodd" d="M24 34.5C24.8284 34.5 25.5 35.1716 25.5 36V42C25.5 42.8284 24.8284 43.5 24 43.5C23.1716 43.5 22.5 42.8284 22.5 42V36C22.5 35.1716 23.1716 34.5 24 34.5Z" fill="#E1D6F6"/>
<path fill-rule="evenodd" clip-rule="evenodd" d="M16.5607 31.4393C17.1465 32.0251 17.1465 32.9749 16.5607 33.5607L12.2607 37.8607C11.6749 38.4464 10.7251 38.4464 10.1394 37.8607C9.55357 37.2749 9.55357 36.3251 10.1394 35.7393L14.4394 31.4393C15.0251 30.8536 15.9749 30.8536 16.5607 31.4393Z" fill="#E1D6F6"/>
<path fill-rule="evenodd" clip-rule="evenodd" d="M4.5 24C4.5 23.1716 5.17157 22.5 6 22.5H12C12.8284 22.5 13.5 23.1716 13.5 24C13.5 24.8284 12.8284 25.5 12 25.5H6C5.17157 25.5 4.5 24.8284 4.5 24Z" fill="#E1D6F6"/>
<path fill-rule="evenodd" clip-rule="evenodd" d="M10.1394 10.1393C10.7251 9.55355 11.6749 9.55355 12.2607 10.1393L16.5607 14.4393C17.1465 15.0251 17.1465 15.9749 16.5607 16.5607C15.9749 17.1464 15.0251 17.1464 14.4394 16.5607L10.1394 12.2607C9.55357 11.6749 9.55357 10.7251 10.1394 10.1393Z" fill="#E1D6F6"/>
</svg>
