<svg width="24" height="24" fill="none" xmlns="http://www.w3.org/2000/svg"><path d="M13.66 3.278c-.523.063-.94.241-1.387.591-.357.28-.747.826-.871 1.22l-.047.149-3.808.011c-3.725.011-3.81.013-3.943.091-.273.161-.396.478-.327.845a.646.646 0 0 0 .327.475c.133.078.218.08 3.943.091l3.808.011.047.149c.124.394.514.94.871 1.22.545.427 1.042.6 1.727.6s1.182-.173 1.727-.6c.356-.279.747-.826.871-1.219l.047-.148 1.807-.012c1.724-.011 1.814-.016 1.944-.092.273-.161.396-.478.327-.845a.646.646 0 0 0-.327-.475c-.13-.076-.22-.081-1.944-.092l-1.807-.012-.047-.148a2.565 2.565 0 0 0-.168-.368c-.563-1.02-1.634-1.578-2.77-1.442m.794 1.563c.29.109.596.415.705.705A1.246 1.246 0 0 1 14 7.24c-.508 0-.986-.327-1.163-.795-.109-.288-.094-.741.033-.987.149-.289.479-.572.77-.661.198-.06.592-.039.814.044M7.66 9.278c-.884.107-1.642.629-2.09 1.442a2.523 2.523 0 0 0-.167.366l-.047.146-.808.014c-.882.015-.979.039-1.158.279-.168.226-.168.724 0 .95.179.24.276.264 1.158.279l.808.014.047.146c.123.391.515.938.87 1.217.545.427 1.042.6 1.727.6s1.182-.173 1.727-.6c.357-.28.747-.826.871-1.22l.048-.149 4.807-.011c4.725-.011 4.809-.012 4.943-.091a.646.646 0 0 0 .327-.475c.069-.367-.054-.684-.327-.845-.134-.079-.218-.08-4.943-.091l-4.807-.011-.048-.149a2.464 2.464 0 0 0-.168-.369C9.867 9.7 8.796 9.142 7.66 9.278m.794 1.563c.458.172.786.655.786 1.159s-.328.987-.786 1.159c-.644.241-1.379-.083-1.617-.714-.109-.288-.094-.741.033-.987.149-.289.479-.572.77-.661.198-.06.592-.039.814.044m8.206 4.437c-.523.063-.94.241-1.387.591-.357.28-.747.826-.872 1.22l-.047.149-5.307.011c-5.225.011-5.309.012-5.443.091-.273.161-.396.478-.327.845a.646.646 0 0 0 .327.475c.134.079.218.08 5.443.091l5.307.011.047.149c.125.394.515.94.872 1.22.545.427 1.042.6 1.727.6s1.182-.173 1.727-.6c.355-.278.747-.826.87-1.215l.045-.144.324-.025c.348-.027.513-.097.644-.272.168-.226.168-.724 0-.95-.131-.175-.296-.245-.644-.272l-.324-.025-.045-.144a2.563 2.563 0 0 0-.167-.364c-.563-1.02-1.634-1.578-2.77-1.442m.794 1.563c.29.109.596.415.705.705.176.471.068.975-.285 1.328a1.216 1.216 0 0 1-1.748 0c-.279-.278-.38-.549-.357-.954.021-.353.107-.547.355-.795.273-.272.473-.356.864-.362.16-.002.327.026.466.078" fill-rule="evenodd" fill="#000"/></svg>