<svg width="24" height="24" fill="none" xmlns="http://www.w3.org/2000/svg"><path d="M4.66 3.279c-.883.105-1.633.621-2.092 1.441-.4.714-.4 1.846 0 2.56.342.611.951 1.138 1.521 1.318l.148.047.013 4.908.012 4.907.092.3a2.818 2.818 0 0 0 1.906 1.888l.32.092h10.84l.32-.092a2.818 2.818 0 0 0 1.906-1.888l.092-.3.012-4.907.013-4.908.148-.047c.57-.18 1.179-.707 1.521-1.318.4-.714.4-1.846 0-2.56a2.864 2.864 0 0 0-1.672-1.367l-.3-.092-7.28-.005c-4.004-.004-7.388.007-7.52.023m14.794 1.562c.458.172.786.655.786 1.159s-.328.987-.786 1.159c-.215.08-.28.081-7.454.081-7.174 0-7.239-.001-7.454-.081a1.34 1.34 0 0 1-.709-.714c-.109-.288-.094-.741.033-.987.149-.289.479-.572.77-.661.055-.016 3.362-.032 7.348-.034 7.19-.003 7.251-.002 7.466.078m-1.214 8.657c0 4.664-.001 4.742-.081 4.956-.109.29-.415.596-.705.705-.214.08-.29.081-5.454.081s-5.24-.001-5.454-.081a1.342 1.342 0 0 1-.705-.705c-.08-.214-.081-.292-.081-4.956V8.76h12.48v4.738m-8.453-2.22c-.342.068-.519.314-.519.722 0 .462.207.692.663.74.137.014 1.167.02 2.289.013 1.956-.012 2.046-.016 2.176-.093a.646.646 0 0 0 .327-.475c.069-.367-.054-.684-.327-.845-.131-.077-.214-.08-2.296-.086-1.188-.004-2.229.007-2.313.024" fill-rule="evenodd" fill="#000"/></svg>