<svg width="24" height="24" viewBox="0 0 24 24" fill="none" xmlns="http://www.w3.org/2000/svg">
<path fill-rule="evenodd" clip-rule="evenodd" d="M12 4.25C12.4142 4.25 12.75 4.58579 12.75 5V19C12.75 19.4142 12.4142 19.75 12 19.75C11.5858 19.75 11.25 19.4142 11.25 19V5C11.25 4.58579 11.5858 4.25 12 4.25Z" fill="#212529"/>
<path fill-rule="evenodd" clip-rule="evenodd" d="M18.5303 12.4697C18.8232 12.7626 18.8232 13.2374 18.5303 13.5303L12.5303 19.5303C12.2374 19.8232 11.7626 19.8232 11.4697 19.5303C11.1768 19.2374 11.1768 18.7626 11.4697 18.4697L17.4697 12.4697C17.7626 12.1768 18.2374 12.1768 18.5303 12.4697Z" fill="#212529"/>
<path fill-rule="evenodd" clip-rule="evenodd" d="M5.46967 12.4697C5.76256 12.1768 6.23744 12.1768 6.53033 12.4697L12.5303 18.4697C12.8232 18.7626 12.8232 19.2374 12.5303 19.5303C12.2374 19.8232 11.7626 19.8232 11.4697 19.5303L5.46967 13.5303C5.17678 13.2374 5.17678 12.7626 5.46967 12.4697Z" fill="#212529"/>
</svg>
