<svg width="24" height="24" viewBox="0 0 24 24" fill="none" xmlns="http://www.w3.org/2000/svg">
<path fill-rule="evenodd" clip-rule="evenodd" d="M12 3.75C9.10051 3.75 6.75 6.10051 6.75 9C6.75 11.8995 9.10051 14.25 12 14.25C14.8995 14.25 17.25 11.8995 17.25 9C17.25 6.10051 14.8995 3.75 12 3.75ZM5.25 9C5.25 5.27208 8.27208 2.25 12 2.25C15.7279 2.25 18.75 5.27208 18.75 9C18.75 12.7279 15.7279 15.75 12 15.75C8.27208 15.75 5.25 12.7279 5.25 9Z" fill="#212529"/>
<path fill-rule="evenodd" clip-rule="evenodd" d="M11.6271 14.3538C11.9858 14.1467 12.4445 14.2696 12.6516 14.6283L15.3509 19.3037L16.3278 17.3278C16.462 17.0564 16.7463 16.8923 17.0484 16.9118L19.248 17.0537L16.5487 12.3783C16.3416 12.0196 16.4645 11.5609 16.8232 11.3538C17.1819 11.1467 17.6406 11.2696 17.8477 11.6283L21.2477 17.5173C21.386 17.7569 21.3813 18.0531 21.2353 18.288C21.0894 18.523 20.826 18.6586 20.5499 18.6408L17.4508 18.4409L16.0744 21.2247C15.9518 21.4727 15.7027 21.633 15.4262 21.6419C15.1498 21.6508 14.8908 21.5069 14.7525 21.2673L11.3525 15.3783C11.1454 15.0196 11.2683 14.5609 11.6271 14.3538Z" fill="#212529"/>
<path fill-rule="evenodd" clip-rule="evenodd" d="M7.17686 11.3538C7.53558 11.5609 7.65849 12.0196 7.45138 12.3783L4.75208 17.0537L6.95167 16.9118C7.25382 16.8923 7.53805 17.0564 7.67225 17.3278L8.64919 19.3037L11.3485 14.6283C11.5556 14.2696 12.0143 14.1467 12.373 14.3538C12.7317 14.5609 12.8546 15.0196 12.6475 15.3783L9.24753 21.2673C9.10924 21.5069 8.85032 21.6508 8.57387 21.6419C8.29741 21.633 8.0483 21.4727 7.92571 21.2247L6.54925 18.4409L3.45013 18.6408C3.17411 18.6586 2.91069 18.523 2.76475 18.288C2.61882 18.0531 2.61405 17.7569 2.75234 17.5173L6.15234 11.6283C6.35945 11.2696 6.81814 11.1467 7.17686 11.3538Z" fill="#212529"/>
</svg>
