<svg width="24" height="24" viewBox="0 0 24 24" fill="none" xmlns="http://www.w3.org/2000/svg">
<path fill-rule="evenodd" clip-rule="evenodd" d="M15.5544 6.25196C15.9317 6.27812 16.6365 6.43195 17.383 6.77177C18.1386 7.11573 19.0051 7.68113 19.6186 8.57587C19.7384 8.75067 19.7787 8.96802 19.7295 9.17416C19.6803 9.38031 19.5461 9.55601 19.3602 9.65781C19.2951 9.69349 19.217 9.72514 19.1254 9.76225C18.8946 9.85577 18.5781 9.98399 18.1677 10.2987C17.6561 10.691 17.2435 11.2306 17.25 11.9928C17.2697 13.7752 18.7075 14.1497 19.1488 14.2646C19.1953 14.2768 19.2307 14.286 19.2523 14.2937C19.5507 14.4003 19.75 14.683 19.75 15C19.75 16.2544 18.9991 17.6712 18.1446 18.7229C17.7046 19.2645 17.2022 19.7535 16.6886 20.1139C16.1937 20.4612 15.6018 20.75 15 20.75C14.1433 20.75 13.6397 20.6019 13.205 20.4656C13.1928 20.4618 13.1807 20.458 13.1687 20.4542C12.8011 20.3387 12.5186 20.25 12 20.25C11.436 20.25 11.0315 20.3443 10.6052 20.4576C10.5648 20.4683 10.5237 20.4794 10.4818 20.4907C10.0813 20.5986 9.61296 20.7247 9.03168 20.7493C9.02113 20.7498 9.01056 20.75 9 20.75C8.21454 20.75 7.53423 20.3136 7.00092 19.7803C6.45683 19.2362 5.97644 18.5049 5.57918 17.7104C4.78761 16.1273 4.25 14.1378 4.25 12.5C4.25 11.1694 4.51311 9.64847 5.22855 8.43222C5.96641 7.17786 7.19371 6.24999 9 6.24999C9.74186 6.24999 10.4667 6.5796 10.9787 6.82225C11.0512 6.85659 11.1193 6.88926 11.184 6.92028C11.3735 7.01116 11.5334 7.08783 11.6852 7.15045C11.7822 7.19049 11.8583 7.21713 11.9177 7.23329C11.9651 7.24615 11.9902 7.24911 11.9977 7.24979C12.0037 7.24898 12.0284 7.24554 12.0771 7.23156C12.1436 7.21248 12.2295 7.18134 12.3413 7.13509C12.4784 7.07836 12.5997 7.02331 12.7371 6.96091C12.8598 6.90517 12.9955 6.84356 13.167 6.76963C13.7923 6.50007 14.6438 6.18242 15.5544 6.25196ZM12.9147 8.52117C12.6711 8.62197 12.3329 8.74999 12 8.74999C11.6733 8.74999 11.3537 8.63635 11.113 8.53703C10.9188 8.45689 10.7052 8.35442 10.506 8.25884C10.4479 8.23098 10.3911 8.2037 10.3363 8.17773C9.7933 7.92038 9.35814 7.74999 9 7.74999C7.80629 7.74999 7.03359 8.32212 6.52145 9.19275C5.98689 10.1015 5.75 11.3306 5.75 12.5C5.75 13.8621 6.21239 15.6227 6.92082 17.0396C7.27356 17.7451 7.66817 18.3262 8.06158 18.7197C8.45754 19.1156 8.7724 19.2447 8.98675 19.2498C9.38623 19.2308 9.69842 19.1473 10.1037 19.0389C10.1416 19.0288 10.1804 19.0184 10.2201 19.0079C10.6915 18.8826 11.243 18.75 12 18.75C12.7495 18.75 13.2101 18.8948 13.6111 19.0209C13.6254 19.0254 13.6397 19.0299 13.654 19.0344C14.0163 19.148 14.3567 19.25 15 19.25C15.1482 19.25 15.4313 19.1637 15.827 18.8861C16.204 18.6215 16.6079 18.2355 16.9804 17.777C17.5796 17.0396 18.0147 16.2205 18.1785 15.5421C17.3129 15.2012 15.7743 14.2613 15.75 12.0081L15.75 12.0066C15.7377 10.5991 16.533 9.66192 17.255 9.10831C17.4208 8.98116 17.5999 8.86454 17.7727 8.76244C17.4598 8.50132 17.1094 8.29533 16.7615 8.13696C16.1536 7.86022 15.6222 7.75993 15.4496 7.74829L15.4421 7.74779L15.4421 7.74775C14.9209 7.70738 14.3589 7.88926 13.7608 8.1471C13.6546 8.19288 13.5277 8.25003 13.3988 8.30807C13.226 8.3859 13.0496 8.46535 12.9147 8.52117Z" fill="#212529"/>
<path fill-rule="evenodd" clip-rule="evenodd" d="M11.25 4C11.25 2.48122 12.4812 1.25 14 1.25C14.4142 1.25 14.75 1.58579 14.75 2C14.75 3.51878 13.5188 4.75 12 4.75C11.5858 4.75 11.25 4.41421 11.25 4Z" fill="#212529"/>
</svg>
