<svg width="24" height="24" viewBox="0 0 24 24" fill="none" xmlns="http://www.w3.org/2000/svg">
<path fill-rule="evenodd" clip-rule="evenodd" d="M10 3.75C9.86193 3.75 9.75 3.86193 9.75 4V9.68934L13.5303 13.4697C13.671 13.6103 13.75 13.8011 13.75 14V20.25H20.25V4C20.25 3.86193 20.1381 3.75 20 3.75H10ZM21 21.75C21.4142 21.75 21.75 21.4142 21.75 21V4C21.75 3.0335 20.9665 2.25 20 2.25H10C9.0335 2.25 8.25 3.0335 8.25 4V8.29271C7.98617 8.19966 7.68069 8.25865 7.46967 8.46967L2.46967 13.4697C2.32902 13.6103 2.25 13.8011 2.25 14V21C2.25 21.4142 2.58579 21.75 3 21.75H21ZM12.25 20.25V14.3107L8.46987 10.5305C8.46974 10.5304 8.47 10.5307 8.46987 10.5305L8 10.0607L3.75 14.3107V20.25H7.25V17C7.25 16.5858 7.58579 16.25 8 16.25C8.41421 16.25 8.75 16.5858 8.75 17V20.25H12.25Z" fill="#212529"/>
<path fill-rule="evenodd" clip-rule="evenodd" d="M13 6.25C13.4142 6.25 13.75 6.58579 13.75 7V7.01C13.75 7.42421 13.4142 7.76 13 7.76C12.5858 7.76 12.25 7.42421 12.25 7.01V7C12.25 6.58579 12.5858 6.25 13 6.25Z" fill="#212529"/>
<path fill-rule="evenodd" clip-rule="evenodd" d="M17 6.25C17.4142 6.25 17.75 6.58579 17.75 7V7.01C17.75 7.42421 17.4142 7.76 17 7.76C16.5858 7.76 16.25 7.42421 16.25 7.01V7C16.25 6.58579 16.5858 6.25 17 6.25Z" fill="#212529"/>
<path fill-rule="evenodd" clip-rule="evenodd" d="M17 10.25C17.4142 10.25 17.75 10.5858 17.75 11V11.01C17.75 11.4242 17.4142 11.76 17 11.76C16.5858 11.76 16.25 11.4242 16.25 11.01V11C16.25 10.5858 16.5858 10.25 17 10.25Z" fill="#212529"/>
<path fill-rule="evenodd" clip-rule="evenodd" d="M17 14.25C17.4142 14.25 17.75 14.5858 17.75 15V15.01C17.75 15.4242 17.4142 15.76 17 15.76C16.5858 15.76 16.25 15.4242 16.25 15.01V15C16.25 14.5858 16.5858 14.25 17 14.25Z" fill="#212529"/>
</svg>
