<svg width="24" height="24" viewBox="0 0 24 24" fill="none" xmlns="http://www.w3.org/2000/svg">
<path fill-rule="evenodd" clip-rule="evenodd" d="M5.24996 8.99679C5.25172 8.58383 5.58699 8.25 5.99995 8.25H11.9999C12.4129 8.25 12.7482 8.58383 12.7499 8.99679C12.7665 12.871 13.5823 16.8027 14.7212 20.7942C14.8348 21.1925 14.604 21.6076 14.2057 21.7212C13.8074 21.8349 13.3924 21.6041 13.2787 21.2058C12.1942 17.4047 11.3732 13.5739 11.2624 9.75H6.73747C6.62673 13.5739 5.8057 17.4047 4.72117 21.2058C4.60752 21.6041 4.19249 21.8349 3.79417 21.7212C3.39585 21.6076 3.16508 21.1925 3.27873 20.7942C4.41759 16.8027 5.23338 12.871 5.24996 8.99679Z" fill="#212529"/>
<path fill-rule="evenodd" clip-rule="evenodd" d="M11.75 13C11.75 12.5858 12.0858 12.25 12.5 12.25H17C17.4114 12.25 17.746 12.5814 17.75 12.9928C17.7735 15.456 18.5956 18.0303 19.6942 20.7161C19.851 21.0994 19.6673 21.5374 19.2839 21.6942C18.9006 21.851 18.4626 21.6673 18.3058 21.2839C17.2921 18.8056 16.4422 16.268 16.2781 13.75H12.5C12.0858 13.75 11.75 13.4142 11.75 13Z" fill="#212529"/>
<path fill-rule="evenodd" clip-rule="evenodd" d="M10.9843 4.74988C10.4407 4.73849 9.92641 4.99565 9.60935 5.43738C9.36782 5.77388 8.89922 5.85087 8.56272 5.60933C8.22622 5.3678 8.14923 4.89921 8.39076 4.5627C8.993 3.72367 9.96805 3.23343 11.0001 3.24991C12.0321 3.23343 13.0071 3.72367 13.6093 4.5627C13.9264 5.00443 14.4407 5.26159 14.9843 5.2502C14.9948 5.24999 15.0053 5.24999 15.0158 5.2502C15.5594 5.26159 16.0737 5.00443 16.3908 4.5627C16.993 3.72367 17.9681 3.23343 19.0001 3.24991C20.0321 3.23343 21.0071 3.72367 21.6094 4.5627C21.8509 4.89921 21.7739 5.3678 21.4374 5.60933C21.1009 5.85087 20.6323 5.77388 20.3908 5.43738C20.0737 4.99565 19.5594 4.73849 19.0158 4.74988C19.0053 4.7501 18.9948 4.7501 18.9844 4.74988C18.4407 4.73849 17.9264 4.99565 17.6094 5.43738C17.0071 6.27641 16.0321 6.76665 15.0001 6.75017C13.9681 6.76665 12.993 6.27641 12.3908 5.43738C12.0737 4.99565 11.5594 4.73849 11.0158 4.74988C11.0053 4.7501 10.9948 4.7501 10.9843 4.74988Z" fill="#212529"/>
<path fill-rule="evenodd" clip-rule="evenodd" d="M2.25 21C2.25 20.5858 2.58579 20.25 3 20.25H22C22.4142 20.25 22.75 20.5858 22.75 21C22.75 21.4142 22.4142 21.75 22 21.75H3C2.58579 21.75 2.25 21.4142 2.25 21Z" fill="#212529"/>
</svg>
