<svg width="24" height="24" viewBox="0 0 24 24" fill="none" xmlns="http://www.w3.org/2000/svg">
<path fill-rule="evenodd" clip-rule="evenodd" d="M9 4.75C8.86193 4.75 8.75 4.86193 8.75 5C8.75 6.51878 7.51878 7.75 6 7.75H5C4.30964 7.75 3.75 8.30964 3.75 9V18C3.75 18.6904 4.30964 19.25 5 19.25H19C19.6904 19.25 20.25 18.6904 20.25 18V9C20.25 8.30964 19.6904 7.75 19 7.75H18C16.4812 7.75 15.25 6.51878 15.25 5C15.25 4.86193 15.1381 4.75 15 4.75H9ZM5 6.25C3.48122 6.25 2.25 7.48122 2.25 9V18C2.25 19.5188 3.48122 20.75 5 20.75H19C20.5188 20.75 21.75 19.5188 21.75 18V9C21.75 7.48122 20.5188 6.25 19 6.25H18C17.3096 6.25 16.75 5.69036 16.75 5C16.75 4.0335 15.9665 3.25 15 3.25H9C8.0335 3.25 7.25 4.0335 7.25 5C7.25 5.69036 6.69036 6.25 6 6.25H5Z" fill="#212529"/>
<path fill-rule="evenodd" clip-rule="evenodd" d="M12 10.75C10.7574 10.75 9.75 11.7574 9.75 13C9.75 14.2426 10.7574 15.25 12 15.25C13.2426 15.25 14.25 14.2426 14.25 13C14.25 11.7574 13.2426 10.75 12 10.75ZM8.25 13C8.25 10.9289 9.92893 9.25 12 9.25C14.0711 9.25 15.75 10.9289 15.75 13C15.75 15.0711 14.0711 16.75 12 16.75C9.92893 16.75 8.25 15.0711 8.25 13Z" fill="#212529"/>
</svg>
