<svg width="24" height="24" viewBox="0 0 24 24" fill="none" xmlns="http://www.w3.org/2000/svg">
<path fill-rule="evenodd" clip-rule="evenodd" d="M15 12.75C13.7574 12.75 12.75 13.7574 12.75 15C12.75 16.2426 13.7574 17.25 15 17.25C16.2426 17.25 17.25 16.2426 17.25 15C17.25 13.7574 16.2426 12.75 15 12.75ZM11.25 15C11.25 12.9289 12.9289 11.25 15 11.25C17.0711 11.25 18.75 12.9289 18.75 15C18.75 17.0711 17.0711 18.75 15 18.75C12.9289 18.75 11.25 17.0711 11.25 15Z" fill="#212529"/>
<path fill-rule="evenodd" clip-rule="evenodd" d="M13 16.75C13.4142 16.75 13.75 17.0858 13.75 17.5V20.5L14.55 19.9C14.8167 19.7 15.1833 19.7 15.45 19.9L16.25 20.5V17.5C16.25 17.0858 16.5858 16.75 17 16.75C17.4142 16.75 17.75 17.0858 17.75 17.5V22C17.75 22.2841 17.5895 22.5438 17.3354 22.6708C17.0813 22.7979 16.7773 22.7704 16.55 22.6L15 21.4375L13.45 22.6C13.2227 22.7704 12.9187 22.7979 12.6646 22.6708C12.4105 22.5438 12.25 22.2841 12.25 22V17.5C12.25 17.0858 12.5858 16.75 13 16.75Z" fill="#212529"/>
<path fill-rule="evenodd" clip-rule="evenodd" d="M5 5.75C4.31421 5.75 3.75 6.31421 3.75 7V17C3.75 17.6904 4.30964 18.25 5 18.25H10C10.4142 18.25 10.75 18.5858 10.75 19C10.75 19.4142 10.4142 19.75 10 19.75H5C3.48122 19.75 2.25 18.5188 2.25 17V7C2.25 5.48579 3.48579 4.25 5 4.25H19C20.5188 4.25 21.75 5.48122 21.75 7V17C21.749 17.9815 21.225 18.8888 20.375 19.3795C20.0163 19.5866 19.5576 19.4637 19.3505 19.105C19.1434 18.7463 19.2663 18.2876 19.625 18.0805C20.0114 17.8574 20.2495 17.4454 20.25 16.9992V7C20.25 6.30964 19.6904 5.75 19 5.75H5Z" fill="#212529"/>
<path fill-rule="evenodd" clip-rule="evenodd" d="M5.25 9C5.25 8.58579 5.58579 8.25 6 8.25H18C18.4142 8.25 18.75 8.58579 18.75 9C18.75 9.41421 18.4142 9.75 18 9.75H6C5.58579 9.75 5.25 9.41421 5.25 9Z" fill="#212529"/>
<path fill-rule="evenodd" clip-rule="evenodd" d="M5.25 12C5.25 11.5858 5.58579 11.25 6 11.25H9C9.41421 11.25 9.75 11.5858 9.75 12C9.75 12.4142 9.41421 12.75 9 12.75H6C5.58579 12.75 5.25 12.4142 5.25 12Z" fill="#212529"/>
<path fill-rule="evenodd" clip-rule="evenodd" d="M5.25 15C5.25 14.5858 5.58579 14.25 6 14.25H8C8.41421 14.25 8.75 14.5858 8.75 15C8.75 15.4142 8.41421 15.75 8 15.75H6C5.58579 15.75 5.25 15.4142 5.25 15Z" fill="#212529"/>
</svg>
