<svg width="24" height="24" fill="none" xmlns="http://www.w3.org/2000/svg"><path d="M15.84 3.266a1.783 1.783 0 0 0-1.339.848c-.219.355-.231.443-.25 1.846l-.018 1.3h-2.247c-2.466 0-2.458-.001-2.866.243-.251.15-.462.359-.619.611-.219.355-.231.443-.25 1.846l-.018 1.3H5.966c-2.002 0-2.29.008-2.471.066-.41.133-.768.42-.992.794-.25.419-.243.302-.243 3.9 0 2.947.007 3.301.066 3.485.133.41.42.768.794.992.435.26-.18.243 8.88.243s8.445.017 8.88-.243c.374-.224.661-.582.794-.992.06-.188.066-.812.066-7.485 0-6.11-.009-7.312-.056-7.48a1.874 1.874 0 0 0-.798-1.039c-.384-.237-.352-.234-2.726-.243a92.372 92.372 0 0 0-2.32.008m4.327 1.56c.07.064.073.339.073 7.167 0 6.551-.005 7.106-.066 7.174-.063.069-.183.073-2.167.073-1.899 0-2.108-.006-2.174-.066-.07-.064-.073-.339-.073-7.167 0-6.551.005-7.106.066-7.174.063-.069.183-.073 2.167-.073 1.899 0 2.108.006 2.174.066m-6 4c.07.064.073.276.073 5.167 0 4.69-.005 5.107-.066 5.174-.063.069-.183.073-2.167.073-1.899 0-2.108-.006-2.174-.066-.07-.064-.073-.276-.073-5.167 0-4.69.005-5.107.066-5.174.063-.069.183-.073 2.167-.073 1.899 0 2.108.006 2.174.066m-6 4c.07.063.073.214.073 3.167 0 2.829-.006 3.107-.066 3.174-.063.069-.183.073-2.167.073-1.899 0-2.108-.006-2.174-.066-.07-.063-.073-.214-.073-3.167 0-2.829.006-3.107.066-3.174.063-.069.183-.073 2.167-.073 1.899 0 2.108.006 2.174.066" fill-rule="evenodd" fill="#000"/></svg>