<svg width="24" height="24" viewBox="0 0 24 24" fill="none" xmlns="http://www.w3.org/2000/svg">
<path fill-rule="evenodd" clip-rule="evenodd" d="M4.25 7C4.25 5.48122 5.48122 4.25 7 4.25H9C9.41421 4.25 9.75 4.58579 9.75 5C9.75 5.41421 9.41421 5.75 9 5.75H7C6.30964 5.75 5.75 6.30964 5.75 7V19C5.75 19.6904 6.30964 20.25 7 20.25H17C17.6904 20.25 18.25 19.6904 18.25 19V7C18.25 6.30964 17.6904 5.75 17 5.75H15C14.5858 5.75 14.25 5.41421 14.25 5C14.25 4.58579 14.5858 4.25 15 4.25H17C18.5188 4.25 19.75 5.48122 19.75 7V19C19.75 20.5188 18.5188 21.75 17 21.75H7C5.48122 21.75 4.25 20.5188 4.25 19V7Z" fill="#212529"/>
<path fill-rule="evenodd" clip-rule="evenodd" d="M8.25 5C8.25 3.48122 9.48122 2.25 11 2.25H13C14.5188 2.25 15.75 3.48122 15.75 5C15.75 6.51878 14.5188 7.75 13 7.75H11C9.48122 7.75 8.25 6.51878 8.25 5ZM11 3.75C10.3096 3.75 9.75 4.30964 9.75 5C9.75 5.69036 10.3096 6.25 11 6.25H13C13.6904 6.25 14.25 5.69036 14.25 5C14.25 4.30964 13.6904 3.75 13 3.75H11Z" fill="#212529"/>
<path fill-rule="evenodd" clip-rule="evenodd" d="M9.46967 11.4697C9.76256 11.1768 10.2374 11.1768 10.5303 11.4697L12 12.9393L13.4697 11.4697C13.7626 11.1768 14.2374 11.1768 14.5303 11.4697C14.8232 11.7626 14.8232 12.2374 14.5303 12.5303L13.0607 14L14.5303 15.4697C14.8232 15.7626 14.8232 16.2374 14.5303 16.5303C14.2374 16.8232 13.7626 16.8232 13.4697 16.5303L12 15.0607L10.5303 16.5303C10.2374 16.8232 9.76256 16.8232 9.46967 16.5303C9.17678 16.2374 9.17678 15.7626 9.46967 15.4697L10.9393 14L9.46967 12.5303C9.17678 12.2374 9.17678 11.7626 9.46967 11.4697Z" fill="#212529"/>
</svg>
