<svg width="24" height="24" viewBox="0 0 24 24" fill="none" xmlns="http://www.w3.org/2000/svg">
<path fill-rule="evenodd" clip-rule="evenodd" d="M15.7458 6.80053C14.443 5.76601 12.6037 5.42454 10.9294 5.93104C9.25791 6.43668 8.06292 7.68889 7.73175 9.16426C7.65489 9.50666 7.35088 9.75 6.99996 9.75C4.78415 9.75 3.04541 11.46 3.04541 13.5C3.04541 15.54 4.78415 17.25 6.99996 17.25H19C20.5187 17.25 21.75 16.0188 21.75 14.5C21.75 12.9812 20.5187 11.75 19 11.75H18C17.7722 11.75 17.5568 11.6465 17.4144 11.4687C17.2721 11.2908 17.2183 11.058 17.2682 10.8357C17.5975 9.3684 17.0406 7.82865 15.7458 6.80053ZM6.99996 18.75C4.01926 18.75 1.54541 16.4306 1.54541 13.5C1.54541 10.7602 3.70764 8.55459 6.42479 8.27902C7.03541 6.48227 8.56163 5.08018 10.495 4.4953C12.6211 3.85214 14.975 4.27307 16.6786 5.62582C18.1382 6.78484 18.9393 8.48968 18.8555 10.25H19C21.3472 10.25 23.25 12.1528 23.25 14.5C23.25 16.8472 21.3472 18.75 19 18.75H6.99996Z" fill="#212529"/>
</svg>
