<svg width="24" height="24" fill="none" xmlns="http://www.w3.org/2000/svg"><path d="M5.66 3.278A2.76 2.76 0 0 0 3.352 5.26l-.092.32v8.84l.092.32a2.798 2.798 0 0 0 1.888 1.901c.247.07.448.089 1.145.108l.844.022.022.844c.019.697.038.898.108 1.145.256.896.99 1.625 1.901 1.888l.32.092h8.84l.32-.092a2.797 2.797 0 0 0 1.908-1.908l.092-.32V9.58l-.092-.32a2.798 2.798 0 0 0-1.888-1.901c-.247-.07-.448-.089-1.145-.108l-.844-.022-.022-.844c-.019-.697-.038-.898-.108-1.145-.253-.885-.977-1.612-1.881-1.886l-.3-.091-4.28-.007c-2.354-.004-4.388.006-4.52.022m8.794 1.563c.29.109.596.415.705.705.071.189.081.311.081.953v.736l-2.85.015c-2.822.014-2.853.015-3.15.105A2.83 2.83 0 0 0 7.355 9.24c-.09.297-.091.328-.105 3.15l-.015 2.85h-.736c-.642 0-.764-.01-.953-.081a1.341 1.341 0 0 1-.706-.707c-.08-.216-.081-.27-.071-4.525L4.78 5.62l.087-.162c.157-.293.484-.573.773-.661.055-.016 2.012-.032 4.348-.034 4.176-.003 4.253-.002 4.466.078m4 4c.29.109.596.415.705.705.08.213.081.294.081 4.454s-.001 4.241-.081 4.454c-.109.29-.415.596-.705.705-.213.08-.294.081-4.454.081s-4.241-.001-4.454-.081a1.341 1.341 0 0 1-.706-.707c-.08-.216-.081-.27-.071-4.525L8.78 9.62l.087-.162c.157-.293.484-.573.773-.661.055-.016 2.012-.032 4.348-.034 4.176-.003 4.253-.002 4.466.078" fill-rule="evenodd" fill="#000"/></svg>