<svg width="24" height="24" viewBox="0 0 24 24" fill="none" xmlns="http://www.w3.org/2000/svg">
<path fill-rule="evenodd" clip-rule="evenodd" d="M5.12623 5.39346C4.81363 5.67061 4.75 5.8773 4.75 6C4.75 6.1227 4.81363 6.32939 5.12623 6.60654C5.43796 6.88292 5.93183 7.16608 6.60649 7.41907C7.95026 7.92299 9.85699 8.25 12 8.25C14.143 8.25 16.0497 7.92299 17.3935 7.41907C18.0682 7.16608 18.562 6.88292 18.8738 6.60654C19.1864 6.32939 19.25 6.1227 19.25 6C19.25 5.8773 19.1864 5.67061 18.8738 5.39346C18.562 5.11708 18.0682 4.83392 17.3935 4.58093C16.0497 4.07701 14.143 3.75 12 3.75C9.85699 3.75 7.95026 4.07701 6.60649 4.58093C5.93183 4.83392 5.43796 5.11708 5.12623 5.39346ZM6.0798 3.17643C7.63146 2.59456 9.72474 2.25 12 2.25C14.2753 2.25 16.3685 2.59456 17.9202 3.17643C18.6933 3.46633 19.371 3.82962 19.8689 4.27107C20.3659 4.71175 20.75 5.29428 20.75 6C20.75 6.70572 20.3659 7.28825 19.8689 7.72893C19.371 8.17038 18.6933 8.53367 17.9202 8.82357C16.3685 9.40544 14.2753 9.75 12 9.75C9.72474 9.75 7.63146 9.40544 6.0798 8.82357C5.30674 8.53367 4.62904 8.17038 4.13112 7.72893C3.63408 7.28825 3.25 6.70572 3.25 6C3.25 5.29428 3.63408 4.71175 4.13112 4.27107C4.62904 3.82962 5.30674 3.46633 6.0798 3.17643Z" fill="#212529"/>
<path fill-rule="evenodd" clip-rule="evenodd" d="M4 5.25C4.41421 5.25 4.75 5.58579 4.75 6V12C4.75 12.1227 4.81363 12.3294 5.12623 12.6065C5.43796 12.8829 5.93183 13.1661 6.60649 13.4191C7.95026 13.923 9.85699 14.25 12 14.25C14.143 14.25 16.0497 13.923 17.3935 13.4191C18.0682 13.1661 18.562 12.8829 18.8738 12.6065C19.1864 12.3294 19.25 12.1227 19.25 12V6C19.25 5.58579 19.5858 5.25 20 5.25C20.4142 5.25 20.75 5.58579 20.75 6V12C20.75 12.7057 20.3659 13.2883 19.8689 13.7289C19.371 14.1704 18.6933 14.5337 17.9202 14.8236C16.3685 15.4054 14.2753 15.75 12 15.75C9.72474 15.75 7.63146 15.4054 6.0798 14.8236C5.30674 14.5337 4.62904 14.1704 4.13112 13.7289C3.63408 13.2883 3.25 12.7057 3.25 12V6C3.25 5.58579 3.58579 5.25 4 5.25Z" fill="#212529"/>
<path fill-rule="evenodd" clip-rule="evenodd" d="M4 11.25C4.41421 11.25 4.75 11.5858 4.75 12V18C4.75 18.1227 4.81363 18.3294 5.12623 18.6065C5.43796 18.8829 5.93183 19.1661 6.60649 19.4191C7.95026 19.923 9.85699 20.25 12 20.25C14.143 20.25 16.0497 19.923 17.3935 19.4191C18.0682 19.1661 18.562 18.8829 18.8738 18.6065C19.1864 18.3294 19.25 18.1227 19.25 18V12C19.25 11.5858 19.5858 11.25 20 11.25C20.4142 11.25 20.75 11.5858 20.75 12V18C20.75 18.7057 20.3659 19.2883 19.8689 19.7289C19.371 20.1704 18.6933 20.5337 17.9202 20.8236C16.3685 21.4054 14.2753 21.75 12 21.75C9.72474 21.75 7.63146 21.4054 6.0798 20.8236C5.30674 20.5337 4.62904 20.1704 4.13112 19.7289C3.63408 19.2883 3.25 18.7057 3.25 18V12C3.25 11.5858 3.58579 11.25 4 11.25Z" fill="#212529"/>
</svg>
