<svg width="24" height="24" viewBox="0 0 24 24" fill="none" xmlns="http://www.w3.org/2000/svg">
<path fill-rule="evenodd" clip-rule="evenodd" d="M11 3.75C10.3096 3.75 9.75 4.30964 9.75 5C9.75 5.69036 10.3096 6.25 11 6.25C11.6904 6.25 12.25 5.69036 12.25 5C12.25 4.30964 11.6904 3.75 11 3.75ZM8.25 5C8.25 3.48122 9.48122 2.25 11 2.25C12.5188 2.25 13.75 3.48122 13.75 5C13.75 6.51878 12.5188 7.75 11 7.75C9.48122 7.75 8.25 6.51878 8.25 5Z" fill="#212529"/>
<path fill-rule="evenodd" clip-rule="evenodd" d="M11 6.25C11.4142 6.25 11.75 6.58579 11.75 7V14.25H15C15.2278 14.25 15.4433 14.3536 15.5857 14.5315L19.5857 19.5315C19.8444 19.8549 19.792 20.3269 19.4685 20.5857C19.1451 20.8444 18.6731 20.792 18.4143 20.4685L14.6395 15.75H11C10.5858 15.75 10.25 15.4142 10.25 15V7C10.25 6.58579 10.5858 6.25 11 6.25Z" fill="#212529"/>
<path fill-rule="evenodd" clip-rule="evenodd" d="M10.25 11C10.25 10.5858 10.5858 10.25 11 10.25H16C16.4142 10.25 16.75 10.5858 16.75 11C16.75 11.4142 16.4142 11.75 16 11.75H11C10.5858 11.75 10.25 11.4142 10.25 11Z" fill="#212529"/>
<path fill-rule="evenodd" clip-rule="evenodd" d="M7.693 11.213C7.85149 11.5957 7.66973 12.0344 7.28703 12.1929C5.61678 12.8846 4.5669 14.5572 4.67007 16.3621C4.77325 18.167 6.0069 19.709 7.7451 20.2059C9.48329 20.7027 11.3456 20.0456 12.387 18.5679C12.6257 18.2294 13.0936 18.1483 13.4321 18.387C13.7707 18.6256 13.8517 19.0935 13.6131 19.4321C12.2041 21.4313 9.68452 22.3203 7.33285 21.6481C4.98117 20.9759 3.31211 18.8896 3.17252 16.4477C3.03293 14.0058 4.45336 11.7429 6.71311 10.8071C7.0958 10.6486 7.53452 10.8303 7.693 11.213Z" fill="#212529"/>
</svg>
