<svg width="24" height="24" fill="none" xmlns="http://www.w3.org/2000/svg"><path d="M9.18 2.281c-.841.112-1.537.705-1.83 1.559l-.089.26-.012 3.534-.012 3.534-.189-.176c-.699-.652-1.592-.896-2.464-.673-1.105.282-1.807 1.158-1.797 2.241.006.643-.078.47 1.884 3.92 1.541 2.711 1.949 3.368 2.464 3.968.896 1.045 2.301 1.868 3.668 2.148.571.118 1.202.164 2.217.163 1.95-.002 2.791-.152 3.92-.699a6.75 6.75 0 0 0 3.657-4.68c.154-.742.167-1.368.154-6.94-.011-5.051-.016-5.352-.085-5.56-.255-.765-.828-1.329-1.565-1.542-.316-.091-.886-.091-1.202 0a2.325 2.325 0 0 0-1.562 1.542c-.063.192-.074.426-.087 1.854l-.016 1.633-.107-.028a2.346 2.346 0 0 0-1.886.307L14 8.807l-.241-.161a2.342 2.342 0 0 0-1.886-.307l-.107.028-.015-2.133c-.014-1.915-.023-2.157-.087-2.354-.244-.751-.836-1.339-1.544-1.533a2.513 2.513 0 0 0-.94-.066m.66 1.553c.076.041.192.142.259.224l.121.149.02 4.027c.02 3.935.022 4.029.1 4.162.161.273.478.396.845.327a.646.646 0 0 0 .475-.327c.073-.124.082-.229.1-1.162l.02-1.027.121-.149a.725.725 0 0 1 .599-.298c.244 0 .434.094.599.298l.121.149.02 1.027c.018.933.027 1.038.1 1.162.161.273.478.396.845.327a.646.646 0 0 0 .475-.327c.073-.124.082-.229.1-1.162l.02-1.027.121-.149a.725.725 0 0 1 .599-.298c.244 0 .434.094.599.298l.121.149.02 1.047c.019.987.025 1.054.107 1.186.14.224.304.3.653.3.349 0 .513-.076.653-.3l.087-.14.02-3.546.02-3.547.121-.149c.187-.231.354-.305.648-.289.203.012.274.036.395.134.081.065.181.182.222.258.073.134.075.336.063 5.879-.011 5.354-.017 5.76-.083 6.04-.39 1.63-1.389 2.914-2.816 3.617a5.845 5.845 0 0 1-1.25.447c-.249.057-.558.072-1.82.085-1.694.018-1.995-.009-2.68-.238a5.246 5.246 0 0 1-2.102-1.309c-.578-.58-.874-1.053-2.89-4.61-1.401-2.471-1.321-2.311-1.3-2.593.014-.19.041-.268.139-.388a.953.953 0 0 1 .772-.349c.464.003.57.076 1.518 1.04.461.47.898.885.971.923.255.133.683.05.877-.171.208-.236.197.02.206-4.831l.009-4.496.121-.149c.067-.082.183-.183.259-.224a.83.83 0 0 1 .68 0" fill-rule="evenodd" fill="#000"/></svg>