<svg width="24" height="24" viewBox="0 0 24 24" fill="none" xmlns="http://www.w3.org/2000/svg">
<path fill-rule="evenodd" clip-rule="evenodd" d="M11.4697 2.46967C11.7626 2.17678 12.2375 2.17678 12.5304 2.46967L21.5304 11.4697C21.7449 11.6842 21.809 12.0068 21.6929 12.287C21.5768 12.5673 21.3034 12.75 21 12.75H19C18.5858 12.75 18.25 12.4142 18.25 12C18.25 11.5858 18.5858 11.25 19 11.25H19.1894L12 4.06066L4.81068 11.25H5.00002C5.41424 11.25 5.75002 11.5858 5.75002 12C5.75002 12.4142 5.41424 12.75 5.00002 12.75H3.00002C2.69668 12.75 2.4232 12.5673 2.30711 12.287C2.19103 12.0068 2.25519 11.6842 2.46969 11.4697L11.4697 2.46967Z" fill="#212529"/>
<path fill-rule="evenodd" clip-rule="evenodd" d="M5 11.25C5.41421 11.25 5.75 11.5858 5.75 12V19C5.75 19.6904 6.30964 20.25 7 20.25H17C17.6904 20.25 18.25 19.6904 18.25 19V12C18.25 11.5858 18.5858 11.25 19 11.25C19.4142 11.25 19.75 11.5858 19.75 12V19C19.75 20.5188 18.5188 21.75 17 21.75H7C5.48122 21.75 4.25 20.5188 4.25 19V12C4.25 11.5858 4.58579 11.25 5 11.25Z" fill="#212529"/>
<path fill-rule="evenodd" clip-rule="evenodd" d="M11 13.75C10.3096 13.75 9.75 14.3096 9.75 15V21C9.75 21.4142 9.41421 21.75 9 21.75C8.58579 21.75 8.25 21.4142 8.25 21V15C8.25 13.4812 9.48122 12.25 11 12.25H13C14.5188 12.25 15.75 13.4812 15.75 15V21C15.75 21.4142 15.4142 21.75 15 21.75C14.5858 21.75 14.25 21.4142 14.25 21V15C14.25 14.3096 13.6904 13.75 13 13.75H11Z" fill="#212529"/>
</svg>
