<svg width="24" height="24" fill="none" xmlns="http://www.w3.org/2000/svg"><path d="M7.555 2.281a4.095 4.095 0 0 0-1.713.649c-.307.207-.847.791-1.057 1.142a4.286 4.286 0 0 0-.503 1.421c-.028.207-.042 2.08-.042 5.526v5.213l-.737.014-.736.014-.172.121c-.304.214-.333.303-.348 1.072-.017.814.035 1.242.21 1.757.192.567.452.977.904 1.429.609.609 1.341.976 2.159 1.081.234.03 1.832.039 5.14.03 4.487-.012 4.816-.017 5.04-.085a2.862 2.862 0 0 0 1.966-1.965c.068-.226.073-.583.084-6.086l.012-5.846.849-.019c.635-.014.909-.036 1.089-.087a2.826 2.826 0 0 0 1.965-1.982c.047-.173.071-.401.071-.68s-.024-.507-.071-.68a2.784 2.784 0 0 0-1.463-1.782c-.596-.294-.125-.274-6.582-.282-3.19-.004-5.919.008-6.065.025m8.965 1.5c0 .012-.027.086-.06.165-.21.504-.196-.016-.219 7.994l-.021 7.4-.098.199a1.25 1.25 0 0 1-2.244 0c-.096-.196-.098-.221-.118-1.479-.023-1.45-.022-1.445-.355-1.679l-.172-.121-3.737-.011-3.738-.011.011-5.369L5.78 5.5l.106-.265c.306-.762.91-1.285 1.654-1.434.175-.035 8.98-.054 8.98-.02m3.017.097c.25.122.463.334.586.585.14.284.139.791-.001 1.076a1.306 1.306 0 0 1-.665.619c-.193.072-.311.082-.959.082h-.738v-.735c0-.795.023-.92.224-1.224.121-.182.371-.373.607-.462.232-.089.705-.059.946.059m-10.75 2.4c-.342.068-.519.314-.519.722 0 .462.207.692.663.74.137.014 1.167.02 2.289.013 1.956-.012 2.046-.016 2.176-.093.273-.161.396-.478.327-.845a.646.646 0 0 0-.327-.475c-.131-.077-.214-.08-2.296-.086-1.188-.004-2.229.007-2.313.024m0 4c-.342.068-.519.314-.519.722 0 .462.207.692.663.74.137.014 1.167.02 2.289.013 1.956-.012 2.046-.016 2.176-.093a.646.646 0 0 0 .327-.475c.069-.367-.054-.684-.327-.845-.131-.077-.214-.08-2.296-.086-1.188-.004-2.229.007-2.313.024m3.453 8.204c0 .757.051 1.14.203 1.525.042.108.077.204.077.214 0 .011-1.535.019-3.412.019-3.747 0-3.632.007-4.135-.245-.701-.351-1.154-1.054-1.203-1.865l-.022-.37h8.492v.722" fill="#212529" fill-rule="evenodd"/></svg>