<svg width="24" height="24" viewBox="0 0 24 24" fill="none" xmlns="http://www.w3.org/2000/svg">
<path fill-rule="evenodd" clip-rule="evenodd" d="M13.4697 4.46968C15.1433 2.79608 17.8567 2.79608 19.5303 4.46968C21.2039 6.14329 21.2039 8.85674 19.5303 10.5303L15.5329 14.5277C14.7338 15.3418 13.6409 15.8005 12.5 15.8005C11.3578 15.8005 10.2637 15.3408 9.46429 14.5249C9.1744 14.229 9.17924 13.7542 9.47511 13.4643C9.77098 13.1744 10.2458 13.1793 10.5357 13.4751C11.053 14.003 11.7609 14.3005 12.5 14.3005C13.2391 14.3005 13.947 14.003 14.4643 13.4751L14.4696 13.4697L14.4697 13.4697L18.4697 9.46968C19.5575 8.38186 19.5575 6.61816 18.4697 5.53034C17.3819 4.44252 15.6181 4.44252 14.5303 5.53034L14.0303 6.03034C13.7374 6.32323 13.2626 6.32323 12.9697 6.03034C12.6768 5.73745 12.6768 5.26257 12.9697 4.96968L13.4697 4.46968Z" fill="#212529"/>
<path fill-rule="evenodd" clip-rule="evenodd" d="M8.467 9.47221C9.26613 8.65814 10.359 8.19946 11.4999 8.19946C12.6421 8.19946 13.7362 8.65922 14.5356 9.47508C14.8255 9.77095 14.8206 10.2458 14.5248 10.5357C14.2289 10.8256 13.7541 10.8207 13.4642 10.5249C12.9469 9.99695 12.239 9.69946 11.4999 9.69946C10.7608 9.69946 10.0528 9.99695 9.5356 10.5249L9.53025 10.5303L9.53022 10.5303L5.53022 14.5303C4.4424 15.6181 4.4424 17.3818 5.53022 18.4696C6.61804 19.5575 8.38174 19.5575 9.46956 18.4696L9.96956 17.9696C10.2625 17.6768 10.7373 17.6768 11.0302 17.9696C11.3231 18.2625 11.3231 18.7374 11.0302 19.0303L10.5302 19.5303C8.85661 21.2039 6.14316 21.2039 4.46956 19.5303C2.79595 17.8567 2.79595 15.1432 4.46956 13.4696L8.467 9.47221Z" fill="#212529"/>
</svg>
