<svg width="24" height="24" fill="none" xmlns="http://www.w3.org/2000/svg"><path d="M20.56 2.339c-.099.052-4.131 1.519-8.96 3.261-4.829 1.742-8.86 3.204-8.957 3.25a1.315 1.315 0 0 0-.592.619 1.368 1.368 0 0 0 0 1.062c.202.441.125.396 3.908 2.288L9.44 14.56l1.741 3.481c1.892 3.783 1.847 3.706 2.288 3.908.313.143.749.143 1.062 0 .265-.121.505-.351.619-.592.046-.097 1.508-4.128 3.25-8.957 1.742-4.829 3.21-8.865 3.263-8.969.113-.22.133-.607.041-.783a1.066 1.066 0 0 0-.371-.363c-.157-.081-.573-.051-.773.054m-.957 2.331-2.843 7.87-2.739 7.58-.05.14-1.65-3.3c-.907-1.815-1.694-3.359-1.748-3.431-.081-.107-.704-.434-3.466-1.816-1.852-.927-3.349-1.691-3.327-1.699a30795.254 30795.254 0 0 1 15.969-5.772 6.48 6.48 0 0 1-.146.428" fill-rule="evenodd" fill="#000"/></svg>