<svg width="24" height="24" viewBox="0 0 24 24" fill="none" xmlns="http://www.w3.org/2000/svg">
<path fill-rule="evenodd" clip-rule="evenodd" d="M12 3.75C7.44365 3.75 3.75 7.44365 3.75 12C3.75 16.5563 7.44365 20.25 12 20.25C16.5563 20.25 20.25 16.5563 20.25 12C20.25 7.44365 16.5563 3.75 12 3.75ZM2.25 12C2.25 6.61522 6.61522 2.25 12 2.25C17.3848 2.25 21.75 6.61522 21.75 12C21.75 17.3848 17.3848 21.75 12 21.75C6.61522 21.75 2.25 17.3848 2.25 12Z" fill="#212529"/>
<path fill-rule="evenodd" clip-rule="evenodd" d="M8.25 10C8.25 9.58579 8.58579 9.25 9 9.25H9.01C9.42421 9.25 9.76 9.58579 9.76 10C9.76 10.4142 9.42421 10.75 9.01 10.75H9C8.58579 10.75 8.25 10.4142 8.25 10Z" fill="#212529"/>
<path fill-rule="evenodd" clip-rule="evenodd" d="M14.25 10C14.25 9.58579 14.5858 9.25 15 9.25H15.01C15.4242 9.25 15.76 9.58579 15.76 10C15.76 10.4142 15.4242 10.75 15.01 10.75H15C14.5858 10.75 14.25 10.4142 14.25 10Z" fill="#212529"/>
<path fill-rule="evenodd" clip-rule="evenodd" d="M12 14.9495C11.2609 14.9495 10.553 15.247 10.0357 15.7749C9.74583 16.0708 9.27098 16.0756 8.97511 15.7857C8.67924 15.4958 8.6744 15.021 8.96429 14.7251C9.76366 13.9093 10.8578 13.4495 12 13.4495C13.1422 13.4495 14.2363 13.9093 15.0357 14.7251C15.3256 15.021 15.3208 15.4958 15.0249 15.7857C14.729 16.0756 14.2542 16.0708 13.9643 15.7749C13.447 15.247 12.7391 14.9495 12 14.9495Z" fill="#212529"/>
</svg>
