<svg width="24" height="24" viewBox="0 0 24 24" fill="none" xmlns="http://www.w3.org/2000/svg">
<path fill-rule="evenodd" clip-rule="evenodd" d="M12 3.75C7.44365 3.75 3.75 7.44365 3.75 12C3.75 16.5563 7.44365 20.25 12 20.25C16.5563 20.25 20.25 16.5563 20.25 12C20.25 7.44365 16.5563 3.75 12 3.75ZM2.25 12C2.25 6.61522 6.61522 2.25 12 2.25C17.3848 2.25 21.75 6.61522 21.75 12C21.75 17.3848 17.3848 21.75 12 21.75C6.61522 21.75 2.25 17.3848 2.25 12Z" fill="#212529"/>
<path fill-rule="evenodd" clip-rule="evenodd" d="M8.25 10C8.25 9.58579 8.58579 9.25 9 9.25H9.01C9.42421 9.25 9.76 9.58579 9.76 10C9.76 10.4142 9.42421 10.75 9.01 10.75H9C8.58579 10.75 8.25 10.4142 8.25 10Z" fill="#212529"/>
<path fill-rule="evenodd" clip-rule="evenodd" d="M14.25 10C14.25 9.58579 14.5858 9.25 15 9.25H15.01C15.4242 9.25 15.76 9.58579 15.76 10C15.76 10.4142 15.4242 10.75 15.01 10.75H15C14.5858 10.75 14.25 10.4142 14.25 10Z" fill="#212529"/>
<path fill-rule="evenodd" clip-rule="evenodd" d="M7.75 14C7.75 13.5858 8.08579 13.25 8.5 13.25H15.5C15.9142 13.25 16.25 13.5858 16.25 14C16.25 14.4142 15.9142 14.75 15.5 14.75H14.75V16C14.75 17.5188 13.5188 18.75 12 18.75C10.4812 18.75 9.25 17.5188 9.25 16V14.75H8.5C8.08579 14.75 7.75 14.4142 7.75 14ZM10.75 14.75V16C10.75 16.6904 11.3096 17.25 12 17.25C12.6904 17.25 13.25 16.6904 13.25 16V14.75H10.75Z" fill="#212529"/>
</svg>
