<svg width="24" height="24" viewBox="0 0 24 24" fill="none" xmlns="http://www.w3.org/2000/svg">
<path fill-rule="evenodd" clip-rule="evenodd" d="M10.68 3.84781C7.13816 4.42008 4.30555 7.2549 3.82305 10.9132C3.28189 15.0163 5.86447 18.8854 9.8613 19.9594C13.3055 20.8848 16.8812 19.488 18.8205 16.6385C15.624 17.1587 12.3383 15.7524 10.538 12.9234C8.73797 10.0947 8.85544 6.52307 10.68 3.84781ZM12.1096 2.25H12.393C12.7014 2.25 12.9783 2.43874 13.0911 2.72574C13.2039 3.01275 13.1295 3.33952 12.9036 3.54942C10.5178 5.76627 10.0551 9.37048 11.8035 12.1181C13.552 14.8657 17.0129 15.9731 20.0316 14.7508C20.3119 14.6373 20.6329 14.7033 20.8458 14.9181C21.0587 15.1329 21.1217 15.4546 21.0056 15.7338C19.1285 20.2504 14.1956 22.6772 9.47205 21.408C4.74852 20.1387 1.69637 15.5662 2.33592 10.7171C2.97547 5.86801 7.10877 2.24318 11.9999 2.242C12.0367 2.24199 12.0736 2.24469 12.1096 2.25Z" fill="#212529"/>
</svg>
