<svg width="24" height="24" viewBox="0 0 24 24" fill="none" xmlns="http://www.w3.org/2000/svg">
<path fill-rule="evenodd" clip-rule="evenodd" d="M14 14.75C12.7574 14.75 11.75 15.7574 11.75 17C11.75 18.2426 12.7574 19.25 14 19.25C15.2426 19.25 16.25 18.2426 16.25 17C16.25 15.7574 15.2426 14.75 14 14.75ZM10.25 17C10.25 14.9289 11.9289 13.25 14 13.25C16.0711 13.25 17.75 14.9289 17.75 17C17.75 19.0711 16.0711 20.75 14 20.75C11.9289 20.75 10.25 19.0711 10.25 17Z" fill="#212529"/>
<path fill-rule="evenodd" clip-rule="evenodd" d="M16.25 4C16.25 3.58579 16.5858 3.25 17 3.25H21C21.4142 3.25 21.75 3.58579 21.75 4C21.75 4.41421 21.4142 4.75 21 4.75H17.75V17C17.75 17.4142 17.4142 17.75 17 17.75C16.5858 17.75 16.25 17.4142 16.25 17V4Z" fill="#212529"/>
<path fill-rule="evenodd" clip-rule="evenodd" d="M2.25 5C2.25 4.58579 2.58579 4.25 3 4.25H13C13.4142 4.25 13.75 4.58579 13.75 5C13.75 5.41421 13.4142 5.75 13 5.75H3C2.58579 5.75 2.25 5.41421 2.25 5Z" fill="#212529"/>
<path fill-rule="evenodd" clip-rule="evenodd" d="M2.25 9C2.25 8.58579 2.58579 8.25 3 8.25H13C13.4142 8.25 13.75 8.58579 13.75 9C13.75 9.41421 13.4142 9.75 13 9.75H3C2.58579 9.75 2.25 9.41421 2.25 9Z" fill="#212529"/>
<path fill-rule="evenodd" clip-rule="evenodd" d="M2.25 13C2.25 12.5858 2.58579 12.25 3 12.25H9C9.41421 12.25 9.75 12.5858 9.75 13C9.75 13.4142 9.41421 13.75 9 13.75H3C2.58579 13.75 2.25 13.4142 2.25 13Z" fill="#212529"/>
</svg>
