<svg width="24" height="24" fill="none" xmlns="http://www.w3.org/2000/svg"><path d="M2.806 2.245c-.193.057-.51.389-.565.59-.093.347-.054.404 1.023 1.487l.976.981v7.879c0 5.624.013 7.924.045 8.037.058.212.293.441.511.5.33.089.405.052 1.804-.879l1.309-.872.815.819c.449.45.862.843.917.872a.792.792 0 0 0 .563.061c.152-.041.287-.158.986-.852l.81-.805.81.805c.699.694.834.811.986.852.188.05.397.027.563-.061.055-.029.468-.422.917-.872l.815-.819 1.309.872c.955.635 1.353.879 1.47.898.466.079.889-.299.89-.794 0-.11.027-.09.454.326.509.498.649.57.951.489.221-.06.534-.373.594-.594.102-.38.259-.2-3.14-3.605C10.323 9.25 3.437 2.382 3.334 2.318a.68.68 0 0 0-.528-.073m4.005.033c-.52.126-.732.789-.385 1.202.236.281-.222.258 5.634.28l5.28.02.197.097c.251.123.463.335.586.586l.097.197.02 5.28c.019 4.888.025 5.289.089 5.405.325.595 1.217.503 1.391-.144.028-.106.038-1.836.03-5.408-.012-4.928-.017-5.268-.084-5.493-.24-.795-.749-1.408-1.464-1.762-.593-.293-.191-.274-6.022-.283-2.882-.004-5.298.006-5.369.023m3.976 4c-.342.068-.519.314-.519.722 0 .462.207.692.663.74.137.014 1.167.02 2.289.013 1.956-.012 2.046-.016 2.176-.093.273-.161.396-.478.327-.845a.646.646 0 0 0-.327-.475c-.131-.077-.214-.08-2.296-.086-1.188-.004-2.229.007-2.313.024m-1.889 3.986c-.451.075-.63.283-.63.736 0 .418.175.653.538.723.096.018.561.034 1.034.035l.86.002 1.235 1.235 1.235 1.236-.245.028c-.453.053-.657.283-.657.741 0 .418.175.653.538.723.096.018.561.034 1.034.035l.86.002 1.77 1.77c1.705 1.705 1.77 1.775 1.77 1.92v.15l-1-.667-1.001-.666h-.23a.945.945 0 0 0-.329.051c-.055.029-.455.405-.89.836l-.79.783-.79-.783c-.435-.431-.835-.807-.89-.836-.129-.066-.511-.066-.64 0-.055.029-.455.405-.89.836l-.79.783-.79-.783c-.435-.431-.835-.807-.89-.836a.945.945 0 0 0-.329-.051h-.23l-1.001.666-1 .667V6.82l1.7 1.7 1.701 1.7-.263.044m5.889.014c-.34.067-.519.314-.519.717 0 .527.215.745.732.745.515 0 .732-.219.732-.74 0-.34-.102-.543-.332-.659-.136-.069-.428-.099-.613-.063" fill="#212529" fill-rule="evenodd"/></svg>