<svg width="24" height="24" viewBox="0 0 24 24" fill="none" xmlns="http://www.w3.org/2000/svg">
<path d="M4.25 21C4.25 21.4142 4.58579 21.75 5 21.75C5.41421 21.75 5.75 21.4142 5.75 21H4.25ZM19 21L18.584 21.624C18.8141 21.7775 19.11 21.7918 19.3539 21.6613C19.5978 21.5307 19.75 21.2766 19.75 21H19ZM16 19L16.416 18.376C16.1186 18.1777 15.7225 18.2169 15.4697 18.4697L16 19ZM14 21L13.4697 21.5303C13.7626 21.8232 14.2374 21.8232 14.5303 21.5303L14 21ZM12 19L12.5303 18.4697C12.2374 18.1768 11.7626 18.1768 11.4697 18.4697L12 19ZM10 21L9.46967 21.5303C9.76256 21.8232 10.2374 21.8232 10.5303 21.5303L10 21ZM8 19L8.53033 18.4697C8.27753 18.2169 7.88144 18.1777 7.58397 18.376L8 19ZM4.58397 20.376C4.23933 20.6057 4.1462 21.0714 4.37596 21.416C4.60573 21.7607 5.07138 21.8538 5.41603 21.624L4.58397 20.376ZM9 6.25C8.58579 6.25 8.25 6.58579 8.25 7C8.25 7.41421 8.58579 7.75 9 7.75V6.25ZM15 7.75C15.4142 7.75 15.75 7.41421 15.75 7C15.75 6.58579 15.4142 6.25 15 6.25V7.75ZM9 10.25C8.58579 10.25 8.25 10.5858 8.25 11C8.25 11.4142 8.58579 11.75 9 11.75V10.25ZM15 11.75C15.4142 11.75 15.75 11.4142 15.75 11C15.75 10.5858 15.4142 10.25 15 10.25V11.75ZM13 14.25C12.5858 14.25 12.25 14.5858 12.25 15C12.25 15.4142 12.5858 15.75 13 15.75V14.25ZM15 15.75C15.4142 15.75 15.75 15.4142 15.75 15C15.75 14.5858 15.4142 14.25 15 14.25V15.75ZM5.75 21V5H4.25V21H5.75ZM5.75 5C5.75 4.30964 6.30964 3.75 7 3.75V2.25C5.48122 2.25 4.25 3.48122 4.25 5H5.75ZM7 3.75H17V2.25H7V3.75ZM17 3.75C17.6904 3.75 18.25 4.30964 18.25 5H19.75C19.75 3.48122 18.5188 2.25 17 2.25V3.75ZM18.25 5V21H19.75V5H18.25ZM19.416 20.376L16.416 18.376L15.584 19.624L18.584 21.624L19.416 20.376ZM15.4697 18.4697L13.4697 20.4697L14.5303 21.5303L16.5303 19.5303L15.4697 18.4697ZM14.5303 20.4697L12.5303 18.4697L11.4697 19.5303L13.4697 21.5303L14.5303 20.4697ZM11.4697 18.4697L9.46967 20.4697L10.5303 21.5303L12.5303 19.5303L11.4697 18.4697ZM10.5303 20.4697L8.53033 18.4697L7.46967 19.5303L9.46967 21.5303L10.5303 20.4697ZM7.58397 18.376L4.58397 20.376L5.41603 21.624L8.41603 19.624L7.58397 18.376ZM9 7.75H15V6.25H9V7.75ZM9 11.75H15V10.25H9V11.75ZM13 15.75H15V14.25H13V15.75Z" fill="#212529"/>
</svg>
