<svg width="24" height="24" viewBox="0 0 24 24" fill="none" xmlns="http://www.w3.org/2000/svg">
<path fill-rule="evenodd" clip-rule="evenodd" d="M4.25 7C4.25 5.48122 5.48122 4.25 7 4.25H9C9.41421 4.25 9.75 4.58579 9.75 5C9.75 5.41421 9.41421 5.75 9 5.75H7C6.30964 5.75 5.75 6.30964 5.75 7V19C5.75 19.6904 6.30964 20.25 7 20.25H17C17.6904 20.25 18.25 19.6904 18.25 19V7C18.25 6.30964 17.6904 5.75 17 5.75H15C14.5858 5.75 14.25 5.41421 14.25 5C14.25 4.58579 14.5858 4.25 15 4.25H17C18.5188 4.25 19.75 5.48122 19.75 7V19C19.75 20.5188 18.5188 21.75 17 21.75H7C5.48122 21.75 4.25 20.5188 4.25 19V7Z" fill="#212529"/>
<path fill-rule="evenodd" clip-rule="evenodd" d="M8.25 5C8.25 3.48122 9.48122 2.25 11 2.25H13C14.5188 2.25 15.75 3.48122 15.75 5C15.75 6.51878 14.5188 7.75 13 7.75H11C9.48122 7.75 8.25 6.51878 8.25 5ZM11 3.75C10.3096 3.75 9.75 4.30964 9.75 5C9.75 5.69036 10.3096 6.25 11 6.25H13C13.6904 6.25 14.25 5.69036 14.25 5C14.25 4.30964 13.6904 3.75 13 3.75H11Z" fill="#212529"/>
<path fill-rule="evenodd" clip-rule="evenodd" d="M9.25 12.5C9.25 11.2574 10.2574 10.25 11.5 10.25H14C14.4142 10.25 14.75 10.5858 14.75 11C14.75 11.4142 14.4142 11.75 14 11.75H11.5C11.0858 11.75 10.75 12.0858 10.75 12.5C10.75 12.9142 11.0858 13.25 11.5 13.25H12.5C13.7426 13.25 14.75 14.2574 14.75 15.5C14.75 16.7426 13.7426 17.75 12.5 17.75H10C9.58579 17.75 9.25 17.4142 9.25 17C9.25 16.5858 9.58579 16.25 10 16.25H12.5C12.9142 16.25 13.25 15.9142 13.25 15.5C13.25 15.0858 12.9142 14.75 12.5 14.75H11.5C10.2574 14.75 9.25 13.7426 9.25 12.5Z" fill="#212529"/>
<path fill-rule="evenodd" clip-rule="evenodd" d="M12 9.25C12.4142 9.25 12.75 9.58579 12.75 10V11C12.75 11.4142 12.4142 11.75 12 11.75C11.5858 11.75 11.25 11.4142 11.25 11V10C11.25 9.58579 11.5858 9.25 12 9.25ZM12 16.25C12.4142 16.25 12.75 16.5858 12.75 17V18C12.75 18.4142 12.4142 18.75 12 18.75C11.5858 18.75 11.25 18.4142 11.25 18V17C11.25 16.5858 11.5858 16.25 12 16.25Z" fill="#212529"/>
</svg>
