<svg width="24" height="24" viewBox="0 0 24 24" fill="none" xmlns="http://www.w3.org/2000/svg">
<path fill-rule="evenodd" clip-rule="evenodd" d="M12.1634 1.27161C12.5028 1.35072 12.7429 1.65319 12.7431 2.00169L12.7501 17.7497C12.7502 18.0284 12.5958 18.2842 12.3491 18.4139L6.17712 21.6589C5.92443 21.7917 5.61823 21.7696 5.38726 21.6018C5.1563 21.434 5.04063 21.1496 5.0889 20.8682L6.20118 14.3842L1.48397 9.79246C1.2793 9.59323 1.20555 9.29504 1.29377 9.02338C1.38199 8.75172 1.61686 8.55375 1.89953 8.51278L8.40913 7.56936L11.3205 1.67011C11.4748 1.35759 11.824 1.19249 12.1634 1.27161ZM11.2445 5.2135L9.57966 8.58695C9.47037 8.8084 9.25907 8.96185 9.01467 8.99727L3.62066 9.77901L7.53024 13.5846C7.70726 13.7569 7.78807 14.0053 7.7463 14.2488L6.82425 19.6239L11.2499 17.2971L11.2445 5.2135Z" fill="#212529"/>
</svg>
