<svg width="24" height="24" fill="none" xmlns="http://www.w3.org/2000/svg"><path d="M11.807 2.289a.654.654 0 0 0-.326.19c-.192.192-.241.401-.241 1.021 0 .619.049.829.24 1.02.409.409 1.115.205 1.236-.358.055-.258.056-1.082.001-1.321-.097-.421-.47-.647-.91-.552m-6.4 2.599c-.374.082-.607.481-.52.888.039.179.091.249.488.658.466.478.656.604.916.605a.9.9 0 0 0 .523-.191c.211-.187.28-.586.151-.868-.11-.239-.95-1.042-1.127-1.078l-.198-.04a.841.841 0 0 0-.233.026m12.796.002c-.15.032-.246.105-.635.484-.485.471-.606.657-.606.926 0 .18.108.446.224.548a.9.9 0 0 0 .523.191c.26-.001.45-.127.916-.605.389-.4.45-.481.485-.647.124-.579-.324-1.022-.907-.897m-6.624 2.39c-2.077.182-3.769 1.686-4.224 3.756-.078.353-.086.54-.104 2.29l-.019 1.907-.286.027a3.03 3.03 0 0 0-.471.08c-.375.107-.749.408-.972.78-.23.385-.243.488-.243 1.9 0 1.083.01 1.312.066 1.485.133.41.42.768.794.992.429.256.112.243 5.88.243s5.451.013 5.88-.243c.374-.224.661-.582.794-.992.056-.173.066-.402.066-1.485 0-1.412-.013-1.515-.243-1.9-.223-.372-.597-.673-.972-.78a3.03 3.03 0 0 0-.471-.08l-.286-.027-.019-1.907c-.018-1.75-.026-1.937-.104-2.29-.522-2.375-2.669-3.967-5.066-3.756m1.401 1.614c.528.174.874.392 1.304.822.427.427.642.767.826 1.304l.109.32.012 1.95.013 1.95H8.756l.013-1.95.012-1.95.109-.32c.184-.537.399-.877.826-1.304.717-.717 1.35-.966 2.384-.941.472.012.61.031.88.119M2.807 11.287c-.531.119-.722.838-.327 1.233.191.191.401.24 1.02.24s.829-.049 1.02-.24c.409-.409.205-1.115-.358-1.236-.247-.053-1.113-.051-1.355.003m17 0c-.531.119-.722.838-.327 1.233.191.191.401.24 1.02.24s.829-.049 1.02-.24c.409-.409.205-1.115-.358-1.236-.247-.053-1.113-.051-1.355.003m-2.64 5.539c.067.061.073.152.073 1.167 0 .968-.008 1.11-.066 1.174-.064.07-.276.073-5.167.073-4.69 0-5.107-.005-5.174-.066-.067-.061-.073-.152-.073-1.167 0-.968.008-1.11.066-1.174.064-.07.276-.073 5.167-.073 4.69 0 5.107.005 5.174.066" fill-rule="evenodd" fill="#000"/></svg>