<svg width="24" height="24" viewBox="0 0 24 24" fill="none" xmlns="http://www.w3.org/2000/svg">
<path fill-rule="evenodd" clip-rule="evenodd" d="M11.2499 18C11.2499 17.5858 11.5857 17.25 11.9999 17.25H12.0099C12.4241 17.25 12.7599 17.5858 12.7599 18C12.7599 18.4142 12.4241 18.75 12.0099 18.75H11.9999C11.5857 18.75 11.2499 18.4142 11.2499 18Z" fill="#212529"/>
<path fill-rule="evenodd" clip-rule="evenodd" d="M14.2979 15.7024C13.0287 14.4337 10.9715 14.4337 9.70237 15.7024C9.40943 15.9953 8.93456 15.9952 8.64171 15.7023C8.34886 15.4093 8.34893 14.9344 8.64187 14.6416C10.4967 12.7873 13.5035 12.7873 15.3584 14.6416C15.6513 14.9344 15.6514 15.4093 15.3585 15.7023C15.0657 15.9952 14.5908 15.9953 14.2979 15.7024Z" fill="#212529"/>
<path fill-rule="evenodd" clip-rule="evenodd" d="M12 10.7498C10.0771 10.7498 8.23301 11.5136 6.87336 12.8734C6.58048 13.1663 6.1056 13.1663 5.8127 12.8734C5.5198 12.5805 5.51979 12.1056 5.81267 11.8127C7.45363 10.1717 9.6793 9.24976 12 9.24976C14.3207 9.24976 16.5464 10.1717 18.1874 11.8127C18.4802 12.1056 18.4802 12.5805 18.1873 12.8734C17.8944 13.1663 17.4196 13.1663 17.1267 12.8734C15.767 11.5136 13.9229 10.7498 12 10.7498Z" fill="#212529"/>
<path fill-rule="evenodd" clip-rule="evenodd" d="M19.9862 10.047C15.5618 5.64975 8.43744 5.65218 4.04528 10.0453C3.75242 10.3382 3.27754 10.3383 2.98462 10.0454C2.69169 9.75253 2.69164 9.27766 2.98451 8.98473C7.96434 4.00383 16.036 4.00626 21.0436 8.98304C21.3374 9.27503 21.3388 9.7499 21.0469 10.0437C20.7549 10.3375 20.28 10.339 19.9862 10.047Z" fill="#212529"/>
</svg>
