<svg width="24" height="24" viewBox="0 0 24 24" fill="none" xmlns="http://www.w3.org/2000/svg">
<path fill-rule="evenodd" clip-rule="evenodd" d="M12 3.75C7.44365 3.75 3.75 7.44365 3.75 12C3.75 16.5563 7.44365 20.25 12 20.25C16.5563 20.25 20.25 16.5563 20.25 12C20.25 7.44365 16.5563 3.75 12 3.75ZM2.25 12C2.25 6.61522 6.61522 2.25 12 2.25C17.3848 2.25 21.75 6.61522 21.75 12C21.75 17.3848 17.3848 21.75 12 21.75C6.61522 21.75 2.25 17.3848 2.25 12Z" fill="#212529"/>
<path fill-rule="evenodd" clip-rule="evenodd" d="M6.75 7.5C6.75 4.6005 9.1005 2.25 12 2.25C12.4142 2.25 12.75 2.58579 12.75 3C12.75 3.41421 12.4142 3.75 12 3.75C9.92893 3.75 8.25 5.42893 8.25 7.5C8.25 9.57107 9.92893 11.25 12 11.25C14.8995 11.25 17.25 13.6005 17.25 16.5C17.25 19.3995 14.8995 21.75 12 21.75C11.5858 21.75 11.25 21.4142 11.25 21C11.25 20.5858 11.5858 20.25 12 20.25C14.0711 20.25 15.75 18.5711 15.75 16.5C15.75 14.4289 14.0711 12.75 12 12.75C9.1005 12.75 6.75 10.3995 6.75 7.5Z" fill="#212529"/>
<path d="M12.5 7.5C12.5 7.77614 12.2761 8 12 8C11.7239 8 11.5 7.77614 11.5 7.5C11.5 7.22386 11.7239 7 12 7C12.2761 7 12.5 7.22386 12.5 7.5Z" fill="#212529"/>
<path fill-rule="evenodd" clip-rule="evenodd" d="M12 7.75C12.1381 7.75 12.25 7.63807 12.25 7.5C12.25 7.36193 12.1381 7.25 12 7.25C11.8619 7.25 11.75 7.36193 11.75 7.5C11.75 7.63807 11.8619 7.75 12 7.75ZM10.75 7.5C10.75 6.80964 11.3096 6.25 12 6.25C12.6904 6.25 13.25 6.80964 13.25 7.5C13.25 8.19036 12.6904 8.75 12 8.75C11.3096 8.75 10.75 8.19036 10.75 7.5Z" fill="#212529"/>
<path d="M12.5 16.5C12.5 16.7761 12.2761 17 12 17C11.7239 17 11.5 16.7761 11.5 16.5C11.5 16.2239 11.7239 16 12 16C12.2761 16 12.5 16.2239 12.5 16.5Z" fill="#212529"/>
<path fill-rule="evenodd" clip-rule="evenodd" d="M12 16.75C12.1381 16.75 12.25 16.6381 12.25 16.5C12.25 16.3619 12.1381 16.25 12 16.25C11.8619 16.25 11.75 16.3619 11.75 16.5C11.75 16.6381 11.8619 16.75 12 16.75ZM10.75 16.5C10.75 15.8096 11.3096 15.25 12 15.25C12.6904 15.25 13.25 15.8096 13.25 16.5C13.25 17.1904 12.6904 17.75 12 17.75C11.3096 17.75 10.75 17.1904 10.75 16.5Z" fill="#212529"/>
</svg>
