<svg width="207" height="37" viewBox="0 0 207 37" fill="none" xmlns="http://www.w3.org/2000/svg">
<path d="M72.0078 25.3771L72.0182 25.3882L72.0293 25.3985C72.3735 25.7193 72.7997 25.8752 73.2784 25.8752C73.7678 25.8752 74.2031 25.7228 74.5384 25.388L74.5438 25.3826L74.549 25.3771C74.8702 25.0334 75.0264 24.6079 75.0264 24.1299V16.9176C75.0264 16.3713 75.1725 15.9083 75.4564 15.5115L75.4585 15.5085L75.4606 15.5055C75.7565 15.0771 76.1583 14.7324 76.6777 14.4731C77.1908 14.2169 77.771 14.0849 78.4269 14.0849C79.495 14.0849 80.3509 14.3956 81.028 14.9965L81.0318 14.9999L81.0358 15.0033C81.6868 15.5544 82.058 16.4634 82.058 17.8383V24.1299C82.058 24.6079 82.2142 25.0334 82.5354 25.3771L82.5458 25.3882L82.5569 25.3985C82.9011 25.7193 83.3273 25.8752 83.806 25.8752C84.2845 25.8752 84.7089 25.7189 85.0404 25.388C85.3827 25.0462 85.554 24.6171 85.554 24.1299V17.8383C85.554 16.3687 85.2705 15.0972 84.6792 14.0445C84.111 13.0024 83.3169 12.2068 82.3001 11.6704C81.306 11.12 80.1818 10.85 78.9392 10.85C78.0152 10.85 77.1468 11.013 76.3386 11.3432C75.826 11.5526 75.3585 11.8118 74.9378 12.1216C74.8596 11.8763 74.7283 11.6547 74.5384 11.4651C74.2031 11.1303 73.7678 10.9779 73.2784 10.9779C72.7997 10.9779 72.3735 11.1338 72.0293 11.4545L72.0238 11.4597L72.0184 11.4651C71.6831 11.7999 71.5304 12.2345 71.5304 12.7232V24.1299C71.5304 24.6079 71.6866 25.0334 72.0078 25.3771Z" fill="white"/>
<path fill-rule="evenodd" clip-rule="evenodd" d="M58.4065 24.9267L58.41 24.9286L58.4136 24.9306C59.5967 25.5639 60.9351 25.8752 62.4177 25.8752C63.2585 25.8752 64.1267 25.7208 65.02 25.4189C65.9275 25.1181 66.7011 24.7234 67.3302 24.2274C67.71 23.9374 67.9366 23.5447 67.9098 23.0664C67.8846 22.6146 67.6546 22.2316 67.2995 21.9201L67.296 21.9171L67.2925 21.9142C66.9817 21.6527 66.6083 21.5355 66.1999 21.5553C65.8111 21.558 65.4516 21.6865 65.1304 21.9207L65.1284 21.9221L65.1265 21.9236C64.8311 22.1439 64.4221 22.3547 63.8856 22.549C63.3819 22.7207 62.8932 22.8042 62.4177 22.8042C61.2096 22.8042 60.2099 22.4673 59.3924 21.8093C58.7202 21.2427 58.2706 20.5458 58.0411 19.7069H67.2377C67.6751 19.7069 68.069 19.5732 68.3836 19.2845L68.3901 19.2785L68.3964 19.2723C68.7045 18.966 68.8592 18.581 68.8592 18.1459C68.8592 16.749 68.5924 15.4999 68.0453 14.4103C67.5142 13.3016 66.7314 12.4302 65.7006 11.8074C64.6618 11.1626 63.4329 10.85 62.0331 10.85C60.6141 10.85 59.3392 11.172 58.2214 11.8272C57.1083 12.4627 56.2319 13.3537 55.596 14.4915L55.5948 14.4936C54.9726 15.6216 54.6687 16.92 54.6687 18.3753C54.6687 19.8191 54.9921 21.1194 55.6499 22.2638L55.652 22.2674L55.6541 22.2709C56.3267 23.3915 57.2466 24.278 58.4065 24.9267ZM64.482 14.8551L64.4838 14.857L64.4857 14.8589C64.9907 15.3735 65.3401 16.0122 65.5261 16.7889H58.0791C58.3086 16.0092 58.7101 15.3674 59.2798 14.8514C59.9509 14.2436 60.8535 13.9209 62.0331 13.9209C63.0971 13.9209 63.8962 14.2436 64.482 14.8551Z" fill="white"/>
<path d="M41.0575 22.9832L41.0563 22.9847C40.8275 23.2873 40.7356 23.6623 40.7356 24.0667C40.7356 24.535 40.8539 24.9671 41.1684 25.279C41.483 25.5909 41.9187 25.7083 42.3908 25.7083H51.1768C51.6489 25.7083 52.0846 25.5909 52.3991 25.279C52.7137 24.9671 52.832 24.535 52.832 24.0667C52.832 23.5985 52.7137 23.1664 52.3991 22.8545C52.0846 22.5426 51.6489 22.4252 51.1768 22.4252H45.5237L52.2529 13.5744L52.2536 13.5735C52.4824 13.271 52.5743 12.896 52.5743 12.4915C52.5743 12.0233 52.456 11.5912 52.1415 11.2793C51.827 10.9673 51.3913 10.85 50.9191 10.85H42.8009C42.3288 10.85 41.8931 10.9673 41.5786 11.2793C41.264 11.5912 41.1457 12.0233 41.1457 12.4915C41.1457 12.9597 41.264 13.3918 41.5786 13.7037C41.8931 14.0157 42.3288 14.133 42.8009 14.133H47.8101L41.0575 22.9832Z" fill="white"/>
<path d="M109.639 25.7082C109.335 25.7082 109.085 25.6188 108.888 25.4398C108.691 25.243 108.593 24.9925 108.593 24.6884V16.959C108.593 15.6887 108.262 14.6867 107.6 13.9531C106.938 13.2017 106.088 12.8259 105.05 12.8259C103.941 12.8259 103.028 13.2017 102.313 13.9531C101.615 14.6867 101.275 15.6708 101.293 16.9053H99.4408C99.4587 15.7065 99.7182 14.6509 100.219 13.7384C100.72 12.8259 101.409 12.1192 102.286 11.6182C103.162 11.1172 104.155 10.8667 105.265 10.8667C106.32 10.8667 107.251 11.1172 108.056 11.6182C108.879 12.1192 109.514 12.8259 109.961 13.7384C110.427 14.6509 110.659 15.7244 110.659 16.959V24.6884C110.659 24.9925 110.561 25.243 110.364 25.4398C110.185 25.6188 109.943 25.7082 109.639 25.7082ZM90.8526 25.7082C90.5306 25.7082 90.2711 25.6188 90.0743 25.4398C89.8954 25.243 89.8059 24.9925 89.8059 24.6884V12.0745C89.8059 11.7703 89.8954 11.5198 90.0743 11.323C90.2711 11.1262 90.5306 11.0278 90.8526 11.0278C91.1568 11.0278 91.3983 11.1262 91.5773 11.323C91.7741 11.5198 91.8725 11.7703 91.8725 12.0745V24.6884C91.8725 24.9925 91.7741 25.243 91.5773 25.4398C91.3983 25.6188 91.1568 25.7082 90.8526 25.7082ZM100.273 25.7082C99.9686 25.7082 99.7182 25.6188 99.5213 25.4398C99.3245 25.243 99.2261 24.9925 99.2261 24.6884V16.959C99.2261 15.6887 98.8951 14.6867 98.2331 13.9531C97.5711 13.2017 96.7212 12.8259 95.6835 12.8259C94.5742 12.8259 93.6617 13.1927 92.946 13.9263C92.2303 14.642 91.8725 15.5813 91.8725 16.7443H90.3964C90.4322 15.5992 90.6827 14.5883 91.1478 13.7116C91.6309 12.817 92.284 12.1192 93.107 11.6182C93.9301 11.1172 94.8605 10.8667 95.8982 10.8667C96.9538 10.8667 97.8842 11.1172 98.6894 11.6182C99.5124 12.1192 100.148 12.8259 100.595 13.7384C101.06 14.6509 101.293 15.7244 101.293 16.959V24.6884C101.293 24.9925 101.194 25.243 100.997 25.4398C100.819 25.6188 100.577 25.7082 100.273 25.7082Z" fill="white"/>
<path d="M120.623 25.8424C119.246 25.8424 118.011 25.5204 116.92 24.8762C115.828 24.2142 114.96 23.3196 114.316 22.1924C113.69 21.0652 113.377 19.7949 113.377 18.3814C113.377 16.95 113.699 15.6708 114.343 14.5436C115.005 13.4164 115.9 12.5307 117.027 11.8866C118.154 11.2246 119.424 10.8936 120.838 10.8936C122.251 10.8936 123.513 11.2246 124.622 11.8866C125.749 12.5307 126.635 13.4164 127.279 14.5436C127.941 15.6708 128.281 16.95 128.299 18.3814L127.467 19.0255C127.467 20.3138 127.163 21.4767 126.554 22.5145C125.964 23.5343 125.15 24.3484 124.112 24.9568C123.092 25.5472 121.929 25.8424 120.623 25.8424ZM120.838 23.9637C121.876 23.9637 122.797 23.7222 123.602 23.2391C124.425 22.756 125.069 22.094 125.535 21.2531C126.018 20.3943 126.259 19.437 126.259 18.3814C126.259 17.3079 126.018 16.3507 125.535 15.5097C125.069 14.6688 124.425 14.0068 123.602 13.5237C122.797 13.0227 121.876 12.7722 120.838 12.7722C119.818 12.7722 118.897 13.0227 118.074 13.5237C117.251 14.0068 116.598 14.6688 116.114 15.5097C115.631 16.3507 115.39 17.3079 115.39 18.3814C115.39 19.437 115.631 20.3943 116.114 21.2531C116.598 22.094 117.251 22.756 118.074 23.2391C118.897 23.7222 119.818 23.9637 120.838 23.9637ZM127.252 25.7082C126.948 25.7082 126.698 25.6188 126.501 25.4398C126.304 25.243 126.206 24.9925 126.206 24.6884V20.0991L126.715 17.9788L128.299 18.3814V24.6884C128.299 24.9925 128.201 25.243 128.004 25.4398C127.807 25.6188 127.556 25.7082 127.252 25.7082Z" fill="white"/>
<path d="M143.832 25.7082C143.528 25.7082 143.277 25.6098 143.08 25.413C142.883 25.2162 142.785 24.9746 142.785 24.6884V17.7105C142.785 16.6012 142.57 15.6887 142.141 14.973C141.729 14.2573 141.157 13.7205 140.423 13.3627C139.708 13.0048 138.894 12.8259 137.981 12.8259C137.104 12.8259 136.308 12.9959 135.592 13.3358C134.895 13.6758 134.34 14.141 133.928 14.7314C133.517 15.3219 133.311 15.9928 133.311 16.7443H131.835C131.871 15.6171 132.175 14.6151 132.748 13.7384C133.32 12.8438 134.081 12.146 135.029 11.645C135.977 11.1262 137.033 10.8667 138.196 10.8667C139.466 10.8667 140.602 11.1351 141.604 11.6719C142.606 12.1908 143.393 12.9601 143.966 13.98C144.556 14.9998 144.852 16.2433 144.852 17.7105V24.6884C144.852 24.9746 144.753 25.2162 144.556 25.413C144.36 25.6098 144.118 25.7082 143.832 25.7082ZM132.291 25.7082C131.969 25.7082 131.71 25.6188 131.513 25.4398C131.334 25.243 131.245 24.9925 131.245 24.6884V12.0745C131.245 11.7524 131.334 11.5019 131.513 11.323C131.71 11.1262 131.969 11.0278 132.291 11.0278C132.595 11.0278 132.837 11.1262 133.016 11.323C133.213 11.5019 133.311 11.7524 133.311 12.0745V24.6884C133.311 24.9925 133.213 25.243 133.016 25.4398C132.837 25.6188 132.595 25.7082 132.291 25.7082Z" fill="white"/>
<path d="M154.802 25.8424C153.424 25.8424 152.19 25.5204 151.098 24.8762C150.007 24.2142 149.139 23.3196 148.495 22.1924C147.869 21.0652 147.556 19.7949 147.556 18.3814C147.556 16.95 147.878 15.6708 148.522 14.5436C149.184 13.4164 150.079 12.5307 151.206 11.8866C152.333 11.2246 153.603 10.8936 155.017 10.8936C156.43 10.8936 157.692 11.2246 158.801 11.8866C159.928 12.5307 160.814 13.4164 161.458 14.5436C162.12 15.6708 162.46 16.95 162.478 18.3814L161.646 19.0255C161.646 20.3138 161.342 21.4767 160.733 22.5145C160.143 23.5343 159.329 24.3484 158.291 24.9568C157.271 25.5472 156.108 25.8424 154.802 25.8424ZM155.017 23.9637C156.054 23.9637 156.976 23.7222 157.781 23.2391C158.604 22.756 159.248 22.094 159.713 21.2531C160.196 20.3943 160.438 19.437 160.438 18.3814C160.438 17.3079 160.196 16.3507 159.713 15.5097C159.248 14.6688 158.604 14.0068 157.781 13.5237C156.976 13.0227 156.054 12.7722 155.017 12.7722C153.997 12.7722 153.075 13.0227 152.252 13.5237C151.429 14.0068 150.776 14.6688 150.293 15.5097C149.81 16.3507 149.569 17.3079 149.569 18.3814C149.569 19.437 149.81 20.3943 150.293 21.2531C150.776 22.094 151.429 22.756 152.252 23.2391C153.075 23.7222 153.997 23.9637 155.017 23.9637ZM161.431 25.7082C161.127 25.7082 160.876 25.6188 160.68 25.4398C160.483 25.243 160.384 24.9925 160.384 24.6884V20.0991L160.894 17.9788L162.478 18.3814V24.6884C162.478 24.9925 162.379 25.243 162.183 25.4398C161.986 25.6188 161.735 25.7082 161.431 25.7082Z" fill="white"/>
<path d="M171.891 25.8424C170.478 25.8424 169.225 25.5293 168.134 24.9031C167.043 24.259 166.184 23.3733 165.558 22.2461C164.949 21.1189 164.645 19.8307 164.645 18.3814C164.645 16.9143 164.967 15.6171 165.611 14.4899C166.255 13.3627 167.141 12.486 168.268 11.8597C169.395 11.2156 170.675 10.8936 172.106 10.8936C173.555 10.8936 174.835 11.2156 175.944 11.8597C177.071 12.486 177.948 13.3627 178.574 14.4899C179.218 15.6171 179.549 16.9143 179.567 18.3814L178.359 19.0255C178.359 20.3495 178.082 21.5304 177.527 22.5682C176.973 23.588 176.203 24.3932 175.219 24.9836C174.253 25.5561 173.144 25.8424 171.891 25.8424ZM172.16 31.5053C170.746 31.5053 169.503 31.2369 168.429 30.7001C167.356 30.1812 166.47 29.4656 165.772 28.5531C165.575 28.3384 165.486 28.1058 165.504 27.8553C165.54 27.6048 165.674 27.399 165.906 27.238C166.139 27.077 166.399 27.0233 166.685 27.077C166.971 27.1306 167.195 27.2648 167.356 27.4795C167.875 28.1237 168.537 28.6425 169.342 29.0362C170.165 29.4298 171.113 29.6266 172.187 29.6266C173.189 29.6266 174.092 29.385 174.897 28.902C175.702 28.4189 176.338 27.739 176.803 26.8623C177.286 25.9855 177.527 24.9568 177.527 23.7759V19.6965L178.306 18.1399L179.567 18.3814V23.8564C179.567 25.3057 179.245 26.6028 178.601 27.7479C177.957 28.9109 177.08 29.8234 175.971 30.4854C174.861 31.1653 173.591 31.5053 172.16 31.5053ZM172.106 23.9637C173.162 23.9637 174.092 23.7311 174.897 23.266C175.72 22.7829 176.364 22.1209 176.83 21.2799C177.295 20.439 177.527 19.4728 177.527 18.3814C177.527 17.29 177.295 16.3238 176.83 15.4829C176.364 14.6241 175.72 13.9621 174.897 13.4969C174.092 13.0138 173.162 12.7722 172.106 12.7722C171.05 12.7722 170.111 13.0138 169.288 13.4969C168.465 13.9621 167.821 14.6241 167.356 15.4829C166.891 16.3238 166.658 17.29 166.658 18.3814C166.658 19.4728 166.891 20.439 167.356 21.2799C167.821 22.1209 168.465 22.7829 169.288 23.266C170.111 23.7311 171.05 23.9637 172.106 23.9637Z" fill="white"/>
<path d="M189.169 25.8424C187.719 25.8424 186.431 25.5293 185.304 24.9031C184.195 24.259 183.318 23.3733 182.674 22.2461C182.048 21.1189 181.734 19.8307 181.734 18.3814C181.734 16.9143 182.03 15.626 182.62 14.5167C183.228 13.3895 184.06 12.5039 185.116 11.8597C186.172 11.2156 187.388 10.8936 188.766 10.8936C190.126 10.8936 191.307 11.2067 192.309 11.8329C193.329 12.4412 194.116 13.2911 194.67 14.3825C195.225 15.4739 195.502 16.7175 195.502 18.113C195.502 18.3993 195.413 18.6319 195.234 18.8108C195.055 18.9719 194.823 19.0524 194.536 19.0524H183.13V17.3347H194.751L193.597 18.1667C193.615 17.129 193.427 16.1986 193.033 15.3755C192.64 14.5525 192.076 13.9084 191.343 13.4432C190.627 12.978 189.768 12.7454 188.766 12.7454C187.746 12.7454 186.852 12.987 186.082 13.47C185.313 13.9531 184.714 14.6241 184.284 15.4829C183.873 16.3238 183.667 17.29 183.667 18.3814C183.667 19.4728 183.899 20.439 184.365 21.2799C184.848 22.1209 185.501 22.7829 186.324 23.266C187.147 23.749 188.095 23.9906 189.169 23.9906C189.813 23.9906 190.457 23.8832 191.101 23.6685C191.763 23.4359 192.291 23.1497 192.684 22.8097C192.881 22.6487 193.105 22.5682 193.355 22.5682C193.606 22.5503 193.821 22.6129 194 22.756C194.232 22.9707 194.348 23.2033 194.348 23.4538C194.366 23.7043 194.268 23.919 194.053 24.0979C193.463 24.5989 192.711 25.0194 191.799 25.3593C190.886 25.6814 190.01 25.8424 189.169 25.8424Z" fill="white"/>
<path d="M198.784 16.6638C198.837 15.5545 199.124 14.5615 199.642 13.6847C200.179 12.808 200.868 12.1192 201.709 11.6182C202.568 11.1172 203.516 10.8667 204.554 10.8667C205.377 10.8667 206.012 10.983 206.459 11.2156C206.907 11.4482 207.077 11.7882 206.969 12.2355C206.898 12.5039 206.772 12.6828 206.594 12.7722C206.432 12.8617 206.227 12.8975 205.976 12.8796C205.744 12.8617 205.475 12.8438 205.171 12.8259C204.169 12.7365 203.275 12.8438 202.487 13.148C201.718 13.4343 201.101 13.8816 200.635 14.4899C200.188 15.0982 199.965 15.8228 199.965 16.6638H198.784ZM198.945 25.7082C198.623 25.7082 198.372 25.6188 198.193 25.4398C198.014 25.2609 197.925 25.0104 197.925 24.6884V12.0476C197.925 11.7256 198.014 11.4751 198.193 11.2961C198.372 11.1172 198.623 11.0278 198.945 11.0278C199.267 11.0278 199.517 11.1172 199.696 11.2961C199.875 11.4751 199.965 11.7256 199.965 12.0476V24.6884C199.965 25.0104 199.875 25.2609 199.696 25.4398C199.517 25.6188 199.267 25.7082 198.945 25.7082Z" fill="white"/>
<path d="M25.0055 36.3927C24.6354 36.3864 24.2752 36.2731 23.9683 36.0666L19.7058 33.3299C19.2216 33.097 18.6911 32.9758 18.1536 32.9754H8.65179C6.46707 32.9726 4.37263 32.1052 2.82779 30.5635C1.28296 29.0217 0.41383 26.9315 0.411011 24.7511V9.22073C0.41477 7.041 1.28431 4.95166 2.82904 3.41069C4.37378 1.86971 6.46768 1.00281 8.65179 1H23.5704C25.7524 1.00562 27.8432 1.87388 29.385 3.41465C30.9269 4.95543 31.7942 7.04316 31.797 9.22073V24.7653C31.7949 26.3394 31.3412 27.88 30.4896 29.2049C29.6379 30.5298 28.4239 31.5835 26.9911 32.2416L26.5932 32.4649V34.6486C26.5861 35.8078 25.794 36.3927 25.0055 36.3927ZM18.1464 31.639C18.9421 31.6389 19.7254 31.8349 20.4269 32.2097L24.6893 34.9429C24.7814 35.0112 24.8911 35.0518 25.0055 35.0598C25.215 35.0598 25.2577 34.8294 25.2577 34.6344V32.5323C25.2317 32.303 25.2709 32.071 25.3708 31.8629C25.4707 31.6548 25.6272 31.4789 25.8225 31.3554L26.4121 31.0257C27.6184 30.4769 28.6414 29.5938 29.3593 28.4814C30.0772 27.369 30.4597 26.0743 30.4614 24.7511V9.22073C30.4586 7.39483 29.7306 5.64452 28.4369 4.35341C27.1432 3.0623 25.3894 2.33572 23.5598 2.3329H8.64114C6.8128 2.33759 5.0608 3.065 3.76863 4.35591C2.47647 5.64681 1.7494 7.39605 1.74659 9.22073V24.7653C1.74847 26.5925 2.47658 28.3442 3.77115 29.6362C5.06572 30.9282 6.821 31.6548 8.65179 31.6567L18.1464 31.639Z" fill="white"/>
<path fill-rule="evenodd" clip-rule="evenodd" d="M24.9997 36.7266C24.5666 36.7191 24.1448 36.5869 23.7851 36.3458L19.5431 33.6222C19.1088 33.4166 18.6342 33.3097 18.1533 33.3093H8.6518C6.37888 33.3064 4.19933 32.404 2.59193 30.7998C0.984514 29.1956 0.0800524 27.0205 0.0771182 24.7516L0.0771179 9.22073C0.0810302 6.9524 0.985917 4.77771 2.59323 3.1743C4.20052 1.57092 6.37909 0.669033 8.65137 0.666107L23.5704 0.666107C25.8405 0.67196 28.0167 1.57527 29.6211 3.17847C31.2254 4.78169 32.128 6.95418 32.1309 9.2203V24.7653C32.1287 26.4033 31.6566 28.0068 30.7704 29.3854C29.8867 30.7602 28.6281 31.8543 27.1429 32.5393L26.9271 32.6604V34.6507C26.9231 35.31 26.6935 35.8343 26.3259 36.194C25.9619 36.5502 25.4811 36.7266 25.0055 36.7266L24.9997 36.7266ZM26.5932 32.4649L26.9911 32.2416C28.4239 31.5835 29.6379 30.5298 30.4896 29.2049C31.3412 27.88 31.7949 26.3394 31.797 24.7653V9.22073C31.7942 7.04316 30.9269 4.95543 29.385 3.41465C27.8432 1.87388 25.7524 1.00563 23.5704 1H8.6518C6.46768 1.00281 4.37378 1.86971 2.82904 3.41069C1.28431 4.95166 0.414771 7.041 0.411012 9.22073V24.7511C0.413831 26.9315 1.28296 29.0217 2.8278 30.5635C4.37263 32.1052 6.46707 32.9726 8.6518 32.9754H18.1536C18.6911 32.9758 19.2216 33.097 19.7058 33.3299L23.9683 36.0666C24.2752 36.2731 24.6354 36.3864 25.0055 36.3927C25.794 36.3927 26.5861 35.8078 26.5932 34.6486V32.4649ZM18.1464 31.3051C18.9969 31.305 19.8343 31.5146 20.5842 31.9152L20.5959 31.9215L24.8792 34.668L24.8884 34.6748C24.899 34.6826 24.9101 34.6897 24.9216 34.6959C24.9231 34.6768 24.9238 34.6562 24.9238 34.6344V32.55C24.8952 32.2648 24.9456 31.9771 25.0698 31.7185C25.1968 31.4538 25.3958 31.2302 25.6439 31.0732L25.6516 31.0684L26.2612 30.7275L26.2738 30.7218C27.422 30.1994 28.3956 29.3589 29.0787 28.3003C29.7619 27.2418 30.1259 26.0097 30.1275 24.7507V9.22125C30.1249 7.48394 29.4322 5.81841 28.201 4.58974C26.9699 3.36112 25.3009 2.66956 23.5596 2.6668H8.64154C6.90147 2.67138 5.23421 3.36373 4.00462 4.59212C2.775 5.82054 2.08322 7.48495 2.08048 9.22102V24.7652C2.08233 26.5036 2.7751 28.1704 4.00701 29.3998C5.239 30.6294 6.90956 31.321 8.65214 31.3228L18.1464 31.3051ZM8.6518 31.6567C6.821 31.6548 5.06572 30.9282 3.77115 29.6362C2.47658 28.3442 1.74847 26.5924 1.74659 24.7653V9.22073C1.7494 7.39605 2.47647 5.64681 3.76863 4.35591C5.0608 3.065 6.8128 2.33759 8.64114 2.3329H23.5598C25.3894 2.33572 27.1432 3.0623 28.4369 4.35341C29.7306 5.64452 30.4586 7.39483 30.4614 9.22073V24.7511C30.4597 26.0743 30.0772 27.369 29.3593 28.4814C28.6414 29.5938 27.6184 30.4769 26.4121 31.0257L25.8225 31.3554C25.6272 31.4789 25.4707 31.6548 25.3708 31.8629C25.2709 32.071 25.2317 32.303 25.2577 32.5323V34.6344C25.2577 34.8294 25.215 35.0598 25.0055 35.0598C24.8911 35.0518 24.7814 35.0112 24.6893 34.9429L20.4269 32.2097C19.7254 31.8349 18.9421 31.6389 18.1464 31.639L8.6518 31.6567Z" fill="white"/>
<path fill-rule="evenodd" clip-rule="evenodd" d="M10.261 17.3232C11.2275 17.3232 12.011 18.1067 12.011 19.0732V23.2872C12.011 24.2537 11.2275 25.0372 10.261 25.0372C9.2945 25.0372 8.511 24.2537 8.511 23.2872V19.0732C8.511 18.1067 9.2945 17.3232 10.261 17.3232Z" fill="white"/>
<path fill-rule="evenodd" clip-rule="evenodd" d="M16.2711 15.0542C17.2376 15.0542 18.0211 15.8377 18.0211 16.8042V23.2872C18.0211 24.2537 17.2376 25.0372 16.2711 25.0372C15.3046 25.0372 14.5211 24.2537 14.5211 23.2872V16.8042C14.5211 15.8377 15.3046 15.0542 16.2711 15.0542Z" fill="white"/>
<path fill-rule="evenodd" clip-rule="evenodd" d="M22.2812 8.76571C23.2477 8.76571 24.0312 9.54921 24.0312 10.5157V23.2871C24.0312 24.2536 23.2477 25.0371 22.2812 25.0371C21.3147 25.0371 20.5312 24.2536 20.5312 23.2871V10.5157C20.5312 9.54921 21.3147 8.76571 22.2812 8.76571Z" fill="white"/>
</svg>
