<svg width="500" height="128" viewBox="0 0 500 128" fill="none" xmlns="http://www.w3.org/2000/svg">
<path d="M253.153 87.713L253.19 87.7525L253.229 87.7893C254.446 88.9278 255.953 89.4812 257.646 89.4812C259.376 89.4812 260.915 88.9403 262.101 87.7518L262.12 87.7327L262.138 87.713C263.274 86.4932 263.826 84.9827 263.826 83.2861V57.6853C263.826 55.7463 264.343 54.103 265.347 52.6942L265.354 52.6837L265.361 52.6731C266.408 51.1523 267.829 49.9288 269.665 49.0084C271.479 48.0992 273.531 47.6304 275.85 47.6304C279.626 47.6304 282.653 48.7333 285.047 50.8663L285.06 50.8785L285.074 50.8903C287.376 52.8465 288.689 56.0732 288.689 60.9535V83.2861C288.689 84.9827 289.241 86.4932 290.377 87.713L290.413 87.7525L290.453 87.7893C291.67 88.9278 293.177 89.4812 294.869 89.4812C296.561 89.4812 298.062 88.9266 299.234 87.7518C300.444 86.5385 301.05 85.0155 301.05 83.2861V60.9535C301.05 55.7371 300.047 51.2239 297.957 47.4869C295.948 43.7881 293.14 40.964 289.545 39.0601C286.03 37.1062 282.055 36.1479 277.661 36.1479C274.394 36.1479 271.324 36.7267 268.466 37.8985C266.653 38.6418 265 39.562 263.513 40.6617C263.237 39.7909 262.772 39.0043 262.101 38.3312C260.915 37.1428 259.376 36.6018 257.646 36.6018C255.953 36.6018 254.446 37.1553 253.229 38.2937L253.209 38.3121L253.19 38.3312C252.005 39.5197 251.465 41.0624 251.465 42.797V83.2861C251.465 84.9827 252.017 86.4932 253.153 87.713Z" fill="white"/>
<path fill-rule="evenodd" clip-rule="evenodd" d="M205.061 86.1143L205.074 86.1213L205.087 86.1282C209.27 88.3762 214.002 89.4812 219.244 89.4812C222.217 89.4812 225.287 88.933 228.446 87.8616C231.654 86.7937 234.39 85.3927 236.614 83.6323C237.957 82.6028 238.758 81.2091 238.664 79.5111C238.574 77.9074 237.761 76.5481 236.505 75.4423L236.493 75.4316L236.481 75.4212C235.382 74.4931 234.062 74.0769 232.617 74.1475C231.243 74.1569 229.972 74.6131 228.836 75.4445L228.829 75.4495L228.822 75.4545C227.778 76.2365 226.331 76.985 224.434 77.6745C222.654 78.284 220.926 78.5806 219.244 78.5806C214.973 78.5806 211.438 77.3845 208.547 75.0489C206.171 73.0377 204.581 70.5642 203.769 67.5863H236.287C237.833 67.5863 239.226 67.1119 240.339 66.087L240.362 66.0658L240.384 66.0437C241.473 64.9563 242.02 63.5898 242.02 62.0455C242.02 57.0871 241.077 52.6533 239.142 48.7857C237.265 44.8503 234.497 41.7572 230.852 39.5463C227.179 37.2577 222.834 36.1479 217.885 36.1479C212.867 36.1479 208.359 37.2909 204.407 39.6166C200.471 41.8723 197.372 45.035 195.124 49.0739L195.12 49.0814C192.92 53.0852 191.845 57.6938 191.845 62.8598C191.845 67.9846 192.989 72.5999 195.315 76.6621L195.322 76.6749L195.33 76.6876C197.708 80.665 200.96 83.8119 205.061 86.1143ZM226.543 50.3644L226.55 50.3712L226.556 50.3779C228.342 52.2047 229.577 54.4718 230.235 57.2285H203.904C204.715 54.4609 206.135 52.183 208.149 50.3512C210.522 48.1938 213.713 47.0485 217.885 47.0485C221.646 47.0485 224.472 48.1937 226.543 50.3644Z" fill="white"/>
<path d="M143.72 79.2159L143.716 79.2212C142.907 80.2952 142.582 81.6262 142.582 83.0619C142.582 84.7239 143 86.2577 144.112 87.3649C145.224 88.4721 146.765 88.8886 148.434 88.8886H179.5C181.169 88.8886 182.71 88.4721 183.822 87.3649C184.934 86.2577 185.352 84.7239 185.352 83.0619C185.352 81.3999 184.934 79.8661 183.822 78.7589C182.71 77.6518 181.169 77.2352 179.5 77.2352H159.512L183.305 45.8185L183.307 45.8153C184.116 44.7414 184.441 43.4103 184.441 41.9746C184.441 40.3126 184.023 38.7789 182.911 37.6717C181.799 36.5645 180.258 36.1479 178.589 36.1479H149.884C148.215 36.1479 146.675 36.5645 145.562 37.6717C144.45 38.7789 144.032 40.3126 144.032 41.9746C144.032 43.6367 144.45 45.1704 145.562 46.2776C146.675 47.3848 148.215 47.8013 149.884 47.8013H167.596L143.72 79.2159Z" fill="white"/>
<path d="M412.182 89.4813C407.608 89.4813 403.517 88.5579 399.909 86.711C396.301 84.8005 393.435 82.0302 391.309 78.4002C389.247 74.7702 388.216 70.3442 388.216 65.1221V40.2961C388.216 39.2772 388.571 38.4174 389.279 37.7169C389.988 37.0164 390.858 36.6661 391.888 36.6661C392.984 36.6661 393.885 37.0164 394.594 37.7169C395.303 38.4174 395.657 39.2772 395.657 40.2961V65.1221C395.657 70.981 397.3 75.3434 400.586 78.2092C403.871 81.075 407.994 82.5079 412.955 82.5079C416.112 82.5079 418.946 81.9029 421.459 80.6929C424.036 79.4829 426.065 77.8271 427.547 75.7255C429.029 73.6239 429.77 71.2358 429.77 68.561V39.778C429.77 38.6953 430.092 37.8356 430.736 37.1988C431.445 36.4982 432.346 36.148 433.442 36.148C434.537 36.148 435.439 36.4982 436.147 37.1988C436.856 37.8356 437.21 38.6953 437.21 39.778V85.4725C437.21 86.6188 436.856 87.5422 436.147 88.2427C435.439 88.8796 434.537 89.198 433.442 89.198C432.346 89.198 431.445 88.8796 430.736 88.2427C430.092 87.5422 429.77 86.6188 429.77 85.4725V81.9347C427.644 84.291 425.067 86.1379 422.039 87.4752C419.011 88.8126 415.725 89.4813 412.182 89.4813Z" fill="white"/>
<path d="M378.079 89.4821C374.345 89.4821 371.264 87.9524 368.836 84.8931C366.409 81.77 365.195 77.7865 365.195 72.9426V18.4484C365.195 17.3648 365.507 16.5044 366.129 15.867C366.814 15.166 367.685 14.8154 368.743 14.8154C369.801 14.8154 370.641 15.166 371.264 15.867C371.949 16.5044 372.291 17.3648 372.291 18.4484V72.9426C372.291 75.6832 372.82 77.914 373.878 79.6349C374.998 81.3557 376.399 82.2162 378.079 82.2162H380.413C381.347 82.2162 382.094 82.5667 382.654 83.2678C383.214 83.9052 383.494 84.7656 383.494 85.8491C383.494 86.9326 383.09 87.8249 382.281 88.526C381.534 89.1634 380.538 89.4821 379.293 89.4821H378.079Z" fill="white"/>
<path d="M319.217 89.0685C318.141 89.0685 317.256 88.7491 316.559 88.1102C315.927 87.4074 315.61 86.5129 315.61 85.4268V17.8638C315.61 16.7776 315.927 15.9151 316.559 15.2762C317.256 14.5735 318.141 14.2221 319.217 14.2221C320.293 14.2221 321.147 14.5735 321.78 15.2762C322.476 15.9151 322.824 16.7776 322.824 17.8638V61.4683L349.592 37.0306C351.237 35.5611 352.788 35.625 354.243 37.2223C354.939 37.9889 355.256 38.8195 355.192 39.7139C355.192 40.5445 354.813 41.2792 354.053 41.9181L335.069 59.2641L354.813 83.7976C356.205 85.5227 356.047 87.1199 354.338 88.5893C353.515 89.2921 352.661 89.5796 351.775 89.4518C350.889 89.388 350.13 88.9407 349.497 88.1102L329.943 63.8641L322.824 70.4767V85.4268C322.824 86.5129 322.476 87.4074 321.78 88.1102C321.147 88.7491 320.293 89.0685 319.217 89.0685Z" fill="white"/>
<path fill-rule="evenodd" clip-rule="evenodd" d="M459.869 86.0343C463.882 88.3323 468.373 89.4813 473.341 89.4813C478.438 89.4813 482.992 88.3323 487.005 86.0343C491.018 83.6725 494.172 80.4809 496.465 76.4594C498.822 72.4379 500 67.8738 500 62.7672C500 57.7243 498.854 53.1922 496.56 49.1707C494.331 45.1492 491.273 41.9895 487.387 39.6915C483.502 37.3297 479.106 36.1487 474.201 36.1487C469.933 36.1487 466.048 37.0743 462.544 38.9255C459.104 40.7128 456.333 43.1066 454.231 46.1067V17.9563C454.231 16.8073 453.881 15.9136 453.18 15.2753C452.543 14.5731 451.683 14.2221 450.6 14.2221C449.454 14.2221 448.53 14.5731 447.829 15.2753C447.192 15.9136 446.874 16.8073 446.874 17.9563V85.4672C446.874 86.6162 447.224 87.5099 447.925 88.1482C448.562 88.8503 449.422 89.2014 450.505 89.2014C451.651 89.2014 452.575 88.8504 453.276 88.1482C453.913 87.5099 454.231 86.6162 454.231 85.4672V81.6516C455.884 83.3484 457.763 84.8093 459.869 86.0343ZM483.279 80.1936C480.349 81.9171 477.036 82.7789 473.341 82.7789C469.711 82.7789 466.43 81.9171 463.5 80.1936C460.569 78.4063 458.276 76.0125 456.62 73.0124C454.964 70.0122 454.136 66.5971 454.136 62.7672C454.136 59.001 454.964 55.6179 456.62 52.6177C458.276 49.5537 460.569 47.16 463.5 45.4365C466.43 43.713 469.711 42.8512 473.341 42.8512C477.036 42.8512 480.349 43.713 483.279 45.4365C486.209 47.16 488.502 49.5537 490.158 52.6177C491.878 55.6179 492.738 59.001 492.738 62.7672C492.738 66.5971 491.878 70.0122 490.158 73.0124C488.502 76.0125 486.209 78.4063 483.279 80.1936Z" fill="white"/>
<path d="M32.4663 82.6726C32.4663 81.0818 32.8276 79.6654 33.6765 78.5429L33.6797 78.5387L33.6814 78.5365L62.4162 40.8767H40.4429C38.5729 40.8767 36.9417 40.4118 35.7875 39.2671C34.6346 38.1238 34.1675 36.5103 34.1675 34.6605C34.1675 32.8107 34.6346 31.1972 35.7875 30.0539C36.9417 28.9092 38.5729 28.4443 40.4429 28.4443H74.1165C75.9865 28.4443 77.6176 28.9092 78.7719 30.0539C79.9247 31.1972 80.3919 32.8107 80.3919 34.6605C80.3919 36.2513 80.0305 37.6677 79.1816 38.7902L79.1787 38.794L50.5435 76.4565H75.1852C77.0552 76.4565 78.6864 76.9213 79.8406 78.066C80.9935 79.2093 81.4606 80.8228 81.4606 82.6726C81.4606 84.5224 80.9935 86.1359 79.8406 87.2792C78.6864 88.4239 77.0552 88.8888 75.1852 88.8888H38.7417C36.8717 88.8888 35.2405 88.4239 34.0863 87.2792C32.9334 86.1359 32.4663 84.5224 32.4663 82.6726Z" fill="white"/>
<path fill-rule="evenodd" clip-rule="evenodd" d="M30.3184 0L30.3169 1.97799e-06C22.2826 0.0103854 14.5796 3.21172 8.8965 8.90306C3.21334 14.5945 0.0138322 22.3117 0 30.3633V85.4935C0.0103748 93.5474 3.20838 101.268 8.89191 106.962C14.5754 112.656 22.2803 115.86 30.3169 115.87H63.914C65.6142 115.871 67.2925 116.251 68.8278 116.981L83.8267 126.648C85.0986 127.504 86.59 127.973 88.1216 128L88.1318 128H88.1419C89.8237 128 91.5238 127.374 92.8109 126.109C94.1104 124.833 94.9223 122.972 94.9366 120.631L94.9366 120.624V113.567L95.6993 113.137C100.951 110.705 105.401 106.821 108.526 101.942C111.659 97.0483 113.328 91.3581 113.336 85.5438V30.3639C113.326 22.3201 110.135 14.6086 104.462 8.91786C98.7892 3.22717 91.0975 0.0207777 83.071 0H30.3184ZM63.8875 108.756H63.8896C66.8968 108.755 69.8577 109.499 72.5092 110.921L72.5506 110.944L87.6955 120.693L87.728 120.717C87.7654 120.745 87.8047 120.77 87.8455 120.792C87.8506 120.724 87.8531 120.651 87.8531 120.574V113.175C87.752 112.162 87.9304 111.141 88.3693 110.223C88.8183 109.284 89.5219 108.49 90.3994 107.933L90.4265 107.915L92.5821 106.706L92.6266 106.685C96.6864 104.831 100.129 101.848 102.544 98.0901C104.96 94.3326 106.247 89.9593 106.253 85.4903V30.3672C106.243 24.2004 103.794 18.2885 99.4408 13.9272C95.0879 9.56609 89.1863 7.1113 83.0294 7.10156H30.2823C24.1297 7.11779 18.2345 9.57535 13.8869 13.9357C9.5392 18.296 7.09321 24.204 7.08351 30.3662V85.5416C7.09 91.7123 9.5395 97.6288 13.8953 101.993C18.2509 106.357 24.1568 108.812 30.3175 108.819H30.3196L63.8875 108.756Z" fill="white"/>
</svg>
