<svg width="159" height="37" viewBox="0 0 159 37" fill="none" xmlns="http://www.w3.org/2000/svg">
<path d="M25.7873 36.3927C25.4173 36.3864 25.057 36.2731 24.7501 36.0666L20.4877 33.3299C20.0035 33.097 19.4729 32.9758 18.9354 32.9754H9.43365C7.24893 32.9726 5.15449 32.1052 3.60966 30.5635C2.06482 29.0217 1.19569 26.9315 1.19287 24.7511V9.22073C1.19663 7.041 2.06617 4.95166 3.6109 3.41069C5.15564 1.86971 7.24954 1.00281 9.43365 1H24.3523C26.5342 1.00562 28.625 1.87388 30.1669 3.41465C31.7088 4.95543 32.5761 7.04316 32.5789 9.22073V24.7653C32.5768 26.3394 32.1231 27.88 31.2714 29.2049C30.4198 30.5298 29.2057 31.5835 27.7729 32.2416L27.3751 32.4649V34.6486C27.368 35.8078 26.5759 36.3927 25.7873 36.3927ZM18.9283 31.639C19.7239 31.6389 20.5073 31.8349 21.2087 32.2097L25.4712 34.9429C25.5632 35.0112 25.6729 35.0518 25.7873 35.0598C25.9969 35.0598 26.0395 34.8294 26.0395 34.6344V32.5323C26.0136 32.303 26.0528 32.071 26.1527 31.8629C26.2525 31.6548 26.409 31.4789 26.6043 31.3554L27.194 31.0257C28.4003 30.4769 29.4233 29.5938 30.1412 28.4814C30.859 27.369 31.2416 26.0743 31.2433 24.7511V9.22073C31.2405 7.39483 30.5124 5.64452 29.2187 4.35341C27.925 3.0623 26.1712 2.33572 24.3417 2.3329H9.423C7.59466 2.33759 5.84266 3.065 4.55049 4.35591C3.25833 5.64681 2.53126 7.39605 2.52845 9.22073V24.7653C2.53033 26.5925 3.25844 28.3442 4.55301 29.6362C5.84758 30.9282 7.60286 31.6548 9.43365 31.6567L18.9283 31.639Z" fill="#6732D1"/>
<path fill-rule="evenodd" clip-rule="evenodd" d="M25.7816 36.7266C25.3484 36.7191 24.9266 36.5869 24.5669 36.3458L20.3249 33.6222C19.8907 33.4166 19.416 33.3097 18.9352 33.3093H9.43366C7.16074 33.3064 4.98119 32.404 3.37379 30.7998C1.76637 29.1956 0.861913 27.0205 0.858979 24.7516L0.858978 9.22073C0.862891 6.9524 1.76778 4.77771 3.37509 3.1743C4.98238 1.57092 7.16095 0.669033 9.43323 0.666107L24.3523 0.666107C26.6224 0.67196 28.7986 1.57527 30.4029 3.17847C32.0073 4.78169 32.9098 6.95418 32.9128 9.2203V24.7653C32.9106 26.4033 32.4385 28.0068 31.5523 29.3854C30.6686 30.7602 29.41 31.8543 27.9247 32.5393L27.709 32.6604V34.6507C27.7049 35.31 27.4753 35.8343 27.1078 36.194C26.7438 36.5502 26.263 36.7266 25.7873 36.7266L25.7816 36.7266ZM27.3751 32.4649L27.7729 32.2416C29.2057 31.5835 30.4198 30.5298 31.2714 29.2049C32.1231 27.88 32.5768 26.3394 32.5789 24.7653V9.22073C32.5761 7.04316 31.7088 4.95543 30.1669 3.41465C28.625 1.87388 26.5342 1.00563 24.3523 1H9.43366C7.24955 1.00281 5.15564 1.86971 3.6109 3.41069C2.06617 4.95166 1.19663 7.041 1.19287 9.22073V24.7511C1.19569 26.9315 2.06482 29.0217 3.60966 30.5635C5.15449 32.1052 7.24893 32.9726 9.43366 32.9754H18.9354C19.4729 32.9758 20.0035 33.097 20.4877 33.3299L24.7501 36.0666C25.057 36.2731 25.4173 36.3864 25.7873 36.3927C26.5759 36.3927 27.368 35.8078 27.3751 34.6486V32.4649ZM18.9283 31.3051C19.7788 31.305 20.6162 31.5146 21.3661 31.9152L21.3778 31.9215L25.6611 34.668L25.6703 34.6748C25.6808 34.6826 25.692 34.6897 25.7035 34.6959C25.7049 34.6768 25.7056 34.6562 25.7056 34.6344V32.55C25.6771 32.2648 25.7275 31.9771 25.8516 31.7185C25.9786 31.4538 26.1776 31.2302 26.4258 31.0732L26.4334 31.0684L27.0431 30.7275L27.0557 30.7218C28.2039 30.1994 29.1775 29.3589 29.8606 28.3003C30.5438 27.2418 30.9078 26.0097 30.9094 24.7507V9.22125C30.9067 7.48394 30.214 5.81841 28.9829 4.58974C27.7518 3.36112 26.0827 2.66956 24.3414 2.6668H9.4234C7.68333 2.67138 6.01607 3.36373 4.78648 4.59212C3.55686 5.82054 2.86508 7.48495 2.86234 9.22102V24.7652C2.86419 26.5036 3.55696 28.1704 4.78887 29.3998C6.02086 30.6294 7.69142 31.321 9.434 31.3228L18.9283 31.3051ZM9.43366 31.6567C7.60286 31.6548 5.84758 30.9282 4.55301 29.6362C3.25844 28.3442 2.53033 26.5924 2.52845 24.7653V9.22073C2.53126 7.39605 3.25833 5.64681 4.55049 4.35591C5.84266 3.065 7.59467 2.33759 9.423 2.3329H24.3417C26.1712 2.33572 27.925 3.0623 29.2187 4.35341C30.5124 5.64452 31.2405 7.39483 31.2433 9.22073V24.7511C31.2416 26.0743 30.859 27.369 30.1412 28.4814C29.4233 29.5938 28.4003 30.4769 27.194 31.0257L26.6043 31.3554C26.409 31.4789 26.2525 31.6548 26.1527 31.8629C26.0528 32.071 26.0136 32.303 26.0395 32.5323V34.6344C26.0395 34.8294 25.9969 35.0598 25.7873 35.0598C25.6729 35.0518 25.5632 35.0112 25.4712 34.9429L21.2087 32.2097C20.5073 31.8349 19.7239 31.6389 18.9283 31.639L9.43366 31.6567Z" fill="#6732D1"/>
<path d="M51.9392 21.7281H46.1973L53.0284 12.7661C53.2535 12.4463 53.367 12.0625 53.3518 11.673C53.3518 10.6192 52.7416 10.0153 51.6768 10.0153H42.7681C41.7033 10.0153 41.0931 10.6192 41.0931 11.673C41.0931 12.7269 41.7033 13.3278 42.7681 13.3278H48.5465L41.6789 22.2928C41.4526 22.6109 41.3388 22.9941 41.3555 23.3828C41.3555 24.4366 41.9657 25.0405 43.0305 25.0405H51.9392C53.0039 25.0405 53.6141 24.4366 53.6141 23.3828C53.6141 22.329 53.0039 21.7281 51.9392 21.7281Z" fill="#6732D1"/>
<path d="M66.582 10.7898C65.4656 10.1448 64.1912 9.81972 62.9001 9.85049C61.5558 9.83142 60.2307 10.1681 59.0606 10.8259C57.9356 11.4634 57.0137 12.4023 56.3999 13.5353C55.7566 14.7395 55.4303 16.0858 55.4514 17.4489C55.4285 18.8194 55.7759 20.1709 56.4575 21.3626C57.1202 22.508 58.0922 23.4465 59.2636 24.072C60.2801 24.6073 61.3967 24.9287 62.5437 25.0162C63.6908 25.1038 64.8437 24.9555 65.9305 24.5808C66.7668 24.3137 67.5508 23.9065 68.2488 23.3766C68.431 23.2499 68.5799 23.0814 68.6828 22.8854C68.7857 22.6894 68.8395 22.4717 68.8397 22.2507C68.8193 21.8218 68.6317 21.4177 68.3167 21.1239C68.0016 20.83 67.5838 20.6695 67.1518 20.6762C66.745 20.6688 66.348 20.8006 66.0275 21.0495C65.6422 21.3239 65.2157 21.5362 64.7638 21.6787C64.2883 21.8448 63.7889 21.9332 63.285 21.9406C62.1775 21.9786 61.0933 21.6196 60.2303 20.9291C59.5507 20.3868 59.0668 19.6398 58.8515 18.8007H68.17C68.3839 18.8064 68.5969 18.77 68.7967 18.6935C68.9964 18.617 69.1789 18.502 69.3336 18.3551C69.4864 18.2094 69.6072 18.0339 69.6885 17.8396C69.7699 17.6454 69.81 17.4365 69.8064 17.2262C69.8302 15.9126 69.5481 14.6113 68.9821 13.4239C68.4563 12.3331 67.6224 11.4178 66.582 10.7898V10.7898ZM62.9001 12.9483C63.3514 12.9248 63.8028 12.9928 64.2269 13.1481C64.6509 13.3033 65.0388 13.5426 65.3669 13.8514C65.9177 14.3982 66.2931 15.0948 66.4457 15.8534H58.8879C59.1065 14.9778 59.6283 14.2065 60.3619 13.6748C61.0955 13.1431 61.994 12.8848 62.9001 12.9453V12.9483Z" fill="#6732D1"/>
<path d="M86.0114 13.1183C85.4757 12.0842 84.653 11.2348 83.6465 10.6771C82.6173 10.117 81.4662 9.83223 80.3003 9.8492C79.4314 9.84302 78.5695 10.0071 77.761 10.3326C77.2553 10.535 76.7782 10.8053 76.3421 11.1363C76.2658 10.8838 76.1298 10.6545 75.946 10.4686C75.7826 10.3047 75.5882 10.1766 75.3748 10.0919C75.1614 10.0072 74.9333 9.96784 74.7045 9.9761C74.4792 9.97069 74.2551 10.0109 74.045 10.0944C73.835 10.1778 73.6432 10.303 73.4807 10.4625C73.3153 10.6279 73.1854 10.8267 73.0994 11.0462C73.0134 11.2658 72.9731 11.5012 72.9811 11.7376V23.2792C72.9861 23.6287 73.0914 23.969 73.2839 24.2579C73.4764 24.5468 73.7476 24.7717 74.0639 24.9045C74.3802 25.0374 74.7277 25.0724 75.0633 25.0053C75.399 24.9382 75.7079 24.7719 75.9519 24.527C76.1086 24.362 76.2315 24.1665 76.3132 23.9522C76.3949 23.7379 76.4339 23.5091 76.4279 23.2792V15.9826C76.4215 15.4717 76.5679 14.9709 76.8476 14.5474C77.1508 14.0986 77.5649 13.74 78.0478 13.5081C78.5918 13.2412 79.1885 13.1058 79.7918 13.1123C80.9033 13.1123 81.7606 13.4144 82.4198 14.067C83.079 14.7197 83.3864 15.6502 83.3864 16.9162V23.2792C83.3864 23.7464 83.568 24.1944 83.8912 24.5247C84.2144 24.8551 84.6527 25.0407 85.1098 25.0407C85.5668 25.0407 86.0052 24.8551 86.3284 24.5247C86.6516 24.1944 86.8331 23.7464 86.8331 23.2792V16.9162C86.8721 15.6001 86.5897 14.2949 86.0114 13.1183V13.1183Z" fill="#6732D1"/>
<path d="M100.957 11.3158C100.164 10.845 99.2822 10.5378 98.3645 10.4128C97.4467 10.2879 96.5127 10.3478 95.6193 10.5889C94.7259 10.8301 93.892 11.2474 93.1685 11.8154C92.4451 12.3833 91.8472 13.0901 91.4114 13.8924C90.8185 15.0206 90.5092 16.2716 90.5092 17.5409C90.5092 18.8103 90.8185 20.0613 91.4114 21.1895C91.99 22.2657 92.8609 23.1638 93.9275 23.7845C94.9941 24.4051 96.2149 24.7241 97.4549 24.706C98.693 24.7185 99.9105 24.3942 100.972 23.7691C102.025 23.1469 102.886 22.2552 103.462 21.1895C104.056 20.0615 104.366 18.8105 104.366 17.5409C104.366 16.2714 104.056 15.0204 103.462 13.8924C102.882 12.8256 102.016 11.9347 100.957 11.3158V11.3158ZM102.613 17.5424C102.63 18.5236 102.398 19.4935 101.939 20.3652C101.512 21.1701 100.871 21.8464 100.084 22.3221C99.2835 22.7862 98.3709 23.031 97.4413 23.031C96.5117 23.031 95.5991 22.7862 94.7988 22.3221C94.0088 21.8458 93.3638 21.1699 92.9313 20.3652C92.4804 19.4985 92.2453 18.5393 92.2453 17.5662C92.2453 16.593 92.4804 15.6338 92.9313 14.7671C93.3648 13.9591 94.0093 13.2787 94.7988 12.7954C95.5958 12.322 96.5097 12.0718 97.4413 12.0718C98.3729 12.0718 99.2868 12.322 100.084 12.7954C100.87 13.2771 101.511 13.957 101.939 14.7642C102.393 15.6261 102.624 16.5842 102.613 17.5543V17.5424Z" fill="#6732D1"/>
<path d="M122.566 6.0133C122.783 6.01752 122.994 5.93495 123.153 5.78282C123.234 5.70575 123.298 5.61168 123.34 5.50701C123.382 5.40235 123.401 5.28955 123.397 5.1763C123.401 5.06316 123.381 4.9506 123.339 4.84605C123.296 4.74151 123.233 4.64735 123.153 4.56979C122.993 4.41873 122.783 4.33633 122.566 4.33931C120.954 4.33931 119.726 4.90337 118.914 6.01633C118.103 7.12928 117.706 8.61525 117.706 10.4712V10.8715H116.004C115.899 10.8682 115.795 10.8876 115.699 10.9283C115.602 10.969 115.515 11.0303 115.442 11.108C115.298 11.2748 115.218 11.4908 115.218 11.7145C115.218 11.9383 115.298 12.1543 115.442 12.3211C115.515 12.3988 115.602 12.46 115.699 12.5008C115.795 12.5415 115.899 12.5609 116.004 12.5576H117.706V23.7933C117.7 24.0343 117.785 24.2683 117.944 24.4453C118.022 24.5303 118.117 24.5974 118.221 24.6423C118.326 24.6872 118.439 24.709 118.553 24.7061C118.669 24.7108 118.786 24.69 118.894 24.6451C119.003 24.6001 119.101 24.532 119.182 24.4453C119.261 24.3581 119.323 24.2556 119.364 24.1437C119.405 24.0319 119.424 23.9128 119.42 23.7933V12.5364H122.398C122.502 12.5402 122.607 12.5211 122.703 12.4804C122.8 12.4396 122.887 12.378 122.959 12.2998C123.104 12.133 123.184 11.9171 123.184 11.6933C123.184 11.4695 123.104 11.2536 122.959 11.0868C122.887 11.0086 122.8 10.947 122.703 10.9063C122.607 10.8655 122.502 10.8464 122.398 10.8503H119.414V10.4742C119.414 9.10349 119.67 7.99963 120.172 7.196C120.669 6.40147 121.451 6.0133 122.566 6.0133Z" fill="#6732D1"/>
<path d="M111.09 7.19626C111.597 6.40173 112.39 6.01357 113.52 6.01357C113.746 6.02177 113.967 5.93893 114.134 5.78309C114.216 5.70602 114.281 5.61195 114.323 5.50729C114.366 5.40263 114.386 5.28983 114.382 5.17658C114.386 5.06344 114.365 4.95088 114.322 4.84634C114.28 4.74179 114.215 4.64763 114.134 4.57007C113.966 4.41564 113.746 4.33302 113.52 4.3396C111.878 4.3396 110.626 4.90365 109.802 6.0166C108.978 7.12955 108.571 8.61549 108.571 10.4714V10.8717H106.837C106.73 10.8678 106.624 10.8869 106.525 10.9277C106.427 10.9685 106.338 11.03 106.264 11.1082C106.117 11.275 106.036 11.491 106.036 11.7148C106.036 11.9385 106.117 12.1545 106.264 12.3213C106.338 12.3995 106.427 12.461 106.525 12.5018C106.624 12.5426 106.73 12.5617 106.837 12.5578H108.571V23.7934C108.567 23.9129 108.587 24.032 108.628 24.1438C108.67 24.2557 108.733 24.3582 108.814 24.4454C108.893 24.5305 108.989 24.5977 109.096 24.6427C109.203 24.6876 109.318 24.7092 109.434 24.7062C109.553 24.7105 109.671 24.6896 109.782 24.6446C109.892 24.5997 109.992 24.5318 110.075 24.4454C110.156 24.3582 110.219 24.2557 110.26 24.1438C110.302 24.032 110.321 23.9129 110.317 23.7934V12.5366H113.352C113.458 12.5399 113.564 12.5205 113.663 12.4798C113.761 12.439 113.85 12.3778 113.924 12.3C114.072 12.1332 114.153 11.9173 114.153 11.6935C114.153 11.4697 114.072 11.2538 113.924 11.087C113.85 11.0093 113.761 10.948 113.663 10.9073C113.564 10.8665 113.458 10.8472 113.352 10.8505H110.323V10.4744C110.323 9.10373 110.578 8.00292 111.09 7.19626Z" fill="#6732D1"/>
<path d="M126.679 5.00717C126.348 5.00049 126.027 5.12311 125.782 5.34969C125.654 5.47591 125.554 5.6286 125.488 5.79748C125.423 5.96637 125.394 6.14752 125.403 6.32874C125.394 6.68123 125.518 7.02399 125.75 7.28658C125.862 7.41393 126 7.51488 126.155 7.58241C126.31 7.64994 126.477 7.68242 126.646 7.67759C126.814 7.68043 126.98 7.64735 127.135 7.5805C127.289 7.51365 127.428 7.41453 127.542 7.28961C127.783 7.03033 127.913 6.6849 127.903 6.32874C127.914 6.14896 127.886 5.96905 127.823 5.80083C127.759 5.63261 127.662 5.47989 127.536 5.35272C127.305 5.12938 126.998 5.00553 126.679 5.00717V5.00717Z" fill="#6732D1"/>
<path d="M126.738 10.5169C126.628 10.5141 126.518 10.5344 126.415 10.5766C126.313 10.6189 126.219 10.6823 126.141 10.7629C126.061 10.8503 125.999 10.9535 125.958 11.0663C125.917 11.1792 125.898 11.2993 125.903 11.4197V23.8031C125.899 23.9213 125.918 24.039 125.959 24.1497C125.999 24.2603 126.06 24.3616 126.138 24.4479C126.215 24.5321 126.308 24.5985 126.412 24.643C126.515 24.6874 126.626 24.7088 126.738 24.7058C126.853 24.7112 126.967 24.6906 127.072 24.6455C127.178 24.6004 127.273 24.532 127.35 24.4449C127.498 24.2667 127.577 24.0379 127.571 23.8031V11.4197C127.582 11.1799 127.502 10.9451 127.348 10.7659C127.269 10.6825 127.174 10.6172 127.069 10.5743C126.964 10.5314 126.851 10.5119 126.738 10.5169V10.5169Z" fill="#6732D1"/>
<path d="M140.637 10.9955C139.739 10.5603 138.751 10.3392 137.752 10.3497C136.595 10.3374 135.46 10.6657 134.492 11.2931C133.515 11.9335 132.731 12.8241 132.223 13.8704C131.672 15.0114 131.394 16.2632 131.412 17.528C131.397 18.7968 131.697 20.0499 132.287 21.1767C132.838 22.2381 133.669 23.1326 134.69 23.7659C135.72 24.3943 136.909 24.7204 138.119 24.7063C138.961 24.7097 139.797 24.5573 140.583 24.2569C141.334 23.9668 142.02 23.5329 142.602 22.9802C142.68 22.9099 142.742 22.8238 142.783 22.7278C142.825 22.6318 142.845 22.5281 142.842 22.4237C142.844 22.3017 142.821 22.1806 142.773 22.0683C142.724 21.956 142.653 21.855 142.563 21.7719C142.494 21.6999 142.41 21.6431 142.317 21.6051C142.225 21.5672 142.125 21.549 142.025 21.5517C141.911 21.5524 141.799 21.5766 141.696 21.6227C141.592 21.6688 141.5 21.7359 141.424 21.8195C140.604 22.6141 139.492 23.01 138.119 23.01C137.208 23.0256 136.313 22.7795 135.541 22.3016C134.784 21.8185 134.175 21.1391 133.78 20.3374C133.353 19.4621 133.138 18.5001 133.152 17.528C133.135 16.5543 133.329 15.5882 133.72 14.6948C134.065 13.9071 134.629 13.2324 135.345 12.7484C136.058 12.2827 136.895 12.04 137.749 12.052C138.487 12.0414 139.217 12.2032 139.88 12.5243C140.543 12.8454 141.12 13.3168 141.565 13.9002C141.637 14.0111 141.737 14.1022 141.854 14.1652C141.971 14.2281 142.102 14.2608 142.235 14.2603C142.404 14.2629 142.568 14.2011 142.692 14.0876C142.816 14.0235 142.919 13.9267 142.99 13.808C143.062 13.6893 143.099 13.5533 143.098 13.4151C143.084 13.2288 143.015 13.0508 142.899 12.9032C142.306 12.1008 141.531 11.4474 140.637 10.9955Z" fill="#6732D1"/>
<path d="M157.488 13.7126C156.992 12.703 156.221 11.8486 155.261 11.2444C154.286 10.6449 153.157 10.3344 152.008 10.3502C150.829 10.3309 149.671 10.65 148.674 11.2683C147.692 11.8972 146.908 12.7829 146.409 13.8258C145.856 14.9874 145.581 16.2577 145.603 17.54C145.583 18.8211 145.88 20.0877 146.47 21.2303C147.015 22.2839 147.846 23.169 148.871 23.7879C149.925 24.4068 151.135 24.7247 152.363 24.706C153.203 24.6932 154.034 24.5264 154.812 24.2141C155.583 23.9366 156.292 23.5133 156.897 22.9681C157.055 22.8162 157.146 22.6099 157.152 22.3928C157.152 22.2715 157.125 22.1517 157.073 22.0419C157.021 21.9321 156.944 21.8351 156.849 21.7579C156.684 21.6266 156.476 21.5597 156.265 21.5702C156.053 21.5806 155.853 21.6677 155.703 21.8145C155.285 22.2062 154.784 22.5015 154.236 22.679C153.639 22.8955 153.008 23.0084 152.372 23.0128C151.508 23.0231 150.658 22.8036 149.911 22.3775C149.164 21.9514 148.548 21.3346 148.128 20.5924C147.699 19.8375 147.45 18.9966 147.401 18.1332H157.446C157.557 18.1363 157.668 18.1176 157.773 18.0782C157.877 18.0388 157.972 17.9795 158.052 17.9037C158.132 17.8218 158.194 17.7249 158.235 17.6189C158.275 17.5128 158.294 17.3998 158.289 17.2866C158.308 16.0503 158.034 14.8265 157.488 13.7126V13.7126ZM156.579 16.5414H147.425C147.546 15.3344 148.069 14.2005 148.913 13.3161C149.312 12.9043 149.793 12.5785 150.326 12.3594C150.859 12.1403 151.433 12.0326 152.011 12.0433C152.599 12.0268 153.183 12.1316 153.727 12.3508C154.271 12.57 154.763 12.8989 155.17 13.3161C156.002 14.2 156.5 15.339 156.579 16.5414Z" fill="#6732D1"/>
<path fill-rule="evenodd" clip-rule="evenodd" d="M16.8022 10.0076C13.0638 10.0076 10.0333 13.0381 10.0333 16.7765C10.0333 20.5148 13.0638 23.5454 16.8022 23.5454C20.5405 23.5454 23.5711 20.5148 23.5711 16.7765C23.5711 13.0381 20.5405 10.0076 16.8022 10.0076ZM7.04331 16.7765C7.04331 11.3868 11.4125 7.01762 16.8022 7.01762C22.1919 7.01762 26.5611 11.3868 26.5611 16.7765C26.5611 22.1662 22.1919 26.5354 16.8022 26.5354C11.4125 26.5354 7.04331 22.1662 7.04331 16.7765Z" fill="#6732D1"/>
</svg>
