<svg width="144" height="37" viewBox="0 0 144 37" fill="none" xmlns="http://www.w3.org/2000/svg">
<path d="M25.5945 36.3927C25.2244 36.3864 24.8641 36.2731 24.5573 36.0666L20.2948 33.3299C19.8106 33.097 19.2801 32.9758 18.7425 32.9754H9.24078C7.05606 32.9726 4.96162 32.1052 3.41678 30.5635C1.87195 29.0217 1.00282 26.9315 1 24.7511V9.22073C1.00376 7.041 1.8733 4.95166 3.41803 3.41069C4.96276 1.86971 7.05667 1.00281 9.24078 1H24.1594C26.3414 1.00562 28.4322 1.87388 29.974 3.41465C31.5159 4.95543 32.3832 7.04316 32.386 9.22073V24.7653C32.3839 26.3394 31.9302 27.88 31.0785 29.2049C30.2269 30.5298 29.0129 31.5835 27.5801 32.2416L27.1822 32.4649V34.6486C27.1751 35.8078 26.383 36.3927 25.5945 36.3927ZM18.7354 31.639C19.5311 31.6389 20.3144 31.8349 21.0159 32.2097L25.2783 34.9429C25.3703 35.0112 25.48 35.0518 25.5945 35.0598C25.804 35.0598 25.8467 34.8294 25.8467 34.6344V32.5323C25.8207 32.303 25.8599 32.071 25.9598 31.8629C26.0596 31.6548 26.2162 31.4789 26.4114 31.3554L27.0011 31.0257C28.2074 30.4769 29.2304 29.5938 29.9483 28.4814C30.6662 27.369 31.0487 26.0743 31.0504 24.7511V9.22073C31.0476 7.39483 30.3196 5.64452 29.0259 4.35341C27.7322 3.0623 25.9783 2.33572 24.1488 2.3329H9.23013C7.40179 2.33759 5.64979 3.065 4.35762 4.35591C3.06546 5.64681 2.33839 7.39605 2.33558 9.22073V24.7653C2.33746 26.5925 3.06557 28.3442 4.36014 29.6362C5.65471 30.9282 7.40999 31.6548 9.24078 31.6567L18.7354 31.639Z" fill="white"/>
<path fill-rule="evenodd" clip-rule="evenodd" d="M25.5887 36.7266C25.1555 36.7191 24.7338 36.5869 24.3741 36.3458L20.132 33.6222C19.6978 33.4166 19.2232 33.3097 18.7423 33.3093H9.24078C6.96787 33.3064 4.78832 32.404 3.18092 30.7998C1.5735 29.1956 0.669042 27.0205 0.666107 24.7516L0.666107 9.22073C0.670019 6.9524 1.57491 4.77771 3.18222 3.1743C4.78951 1.57092 6.96808 0.669033 9.24035 0.666107L24.1594 0.666107C26.4295 0.67196 28.6057 1.57527 30.2101 3.17847C31.8144 4.78169 32.717 6.95418 32.7199 9.2203V24.7653C32.7177 26.4033 32.2456 28.0068 31.3594 29.3854C30.4757 30.7602 29.2171 31.8543 27.7318 32.5393L27.5161 32.6604V34.6507C27.5121 35.31 27.2825 35.8343 26.9149 36.194C26.5509 36.5502 26.0701 36.7266 25.5945 36.7266L25.5887 36.7266ZM27.1822 32.4649L27.5801 32.2416C29.0129 31.5835 30.2269 30.5298 31.0785 29.2049C31.9302 27.88 32.3839 26.3394 32.386 24.7653V9.22073C32.3832 7.04316 31.5159 4.95543 29.974 3.41465C28.4322 1.87388 26.3414 1.00563 24.1594 1H9.24078C7.05667 1.00281 4.96277 1.86971 3.41803 3.41069C1.8733 4.95166 1.00376 7.041 1 9.22073V24.7511C1.00282 26.9315 1.87195 29.0217 3.41679 30.5635C4.96162 32.1052 7.05606 32.9726 9.24078 32.9754H18.7425C19.2801 32.9758 19.8106 33.097 20.2948 33.3299L24.5573 36.0666C24.8641 36.2731 25.2244 36.3864 25.5945 36.3927C26.383 36.3927 27.1751 35.8078 27.1822 34.6486V32.4649ZM18.7354 31.3051C19.5859 31.305 20.4233 31.5146 21.1732 31.9152L21.1849 31.9215L25.4682 34.668L25.4774 34.6748C25.488 34.6826 25.4991 34.6897 25.5106 34.6959C25.5121 34.6768 25.5128 34.6562 25.5128 34.6344V32.55C25.4842 32.2648 25.5346 31.9771 25.6588 31.7185C25.7858 31.4538 25.9848 31.2302 26.2329 31.0732L26.2406 31.0684L26.8502 30.7275L26.8628 30.7218C28.011 30.1994 28.9846 29.3589 29.6677 28.3003C30.3509 27.2418 30.7149 26.0097 30.7165 24.7507V9.22125C30.7139 7.48394 30.0211 5.81841 28.79 4.58974C27.5589 3.36112 25.8899 2.66956 24.1486 2.6668H9.23053C7.49046 2.67138 5.8232 3.36373 4.59361 4.59212C3.36399 5.82054 2.67221 7.48495 2.66947 9.22102V24.7652C2.67132 26.5036 3.36409 28.1704 4.596 29.3998C5.82799 30.6294 7.49855 31.321 9.24113 31.3228L18.7354 31.3051ZM9.24078 31.6567C7.40999 31.6548 5.65471 30.9282 4.36014 29.6362C3.06557 28.3442 2.33746 26.5924 2.33558 24.7653V9.22073C2.33839 7.39605 3.06546 5.64681 4.35762 4.35591C5.64979 3.065 7.40179 2.33759 9.23013 2.3329H24.1488C25.9783 2.33572 27.7322 3.0623 29.0259 4.35341C30.3196 5.64452 31.0476 7.39483 31.0504 9.22073V24.7511C31.0487 26.0743 30.6662 27.369 29.9483 28.4814C29.2304 29.5938 28.2074 30.4769 27.0011 31.0257L26.4114 31.3554C26.2162 31.4789 26.0597 31.6548 25.9598 31.8629C25.8599 32.071 25.8207 32.303 25.8467 32.5323V34.6344C25.8467 34.8294 25.804 35.0598 25.5945 35.0598C25.48 35.0518 25.3703 35.0112 25.2783 34.9429L21.0159 32.2097C20.3144 31.8349 19.5311 31.6389 18.7354 31.639L9.24078 31.6567Z" fill="white"/>
<path d="M72.2631 25.3771L72.2735 25.3882L72.2847 25.3985C72.6288 25.7193 73.055 25.8752 73.5337 25.8752C74.0231 25.8752 74.4584 25.7228 74.7937 25.388L74.7991 25.3826L74.8043 25.3771C75.1255 25.0334 75.2817 24.6079 75.2817 24.1299V16.9176C75.2817 16.3713 75.4278 15.9083 75.7117 15.5115L75.7138 15.5085L75.7159 15.5055C76.0118 15.0771 76.4137 14.7324 76.933 14.4731C77.4461 14.2169 78.0263 14.0849 78.6823 14.0849C79.7503 14.0849 80.6062 14.3956 81.2833 14.9965L81.2872 14.9999L81.2911 15.0033C81.9421 15.5544 82.3133 16.4634 82.3133 17.8383V24.1299C82.3133 24.6079 82.4695 25.0334 82.7907 25.3771L82.8011 25.3882L82.8122 25.3985C83.1564 25.7193 83.5826 25.8752 84.0613 25.8752C84.5399 25.8752 84.9643 25.7189 85.2957 25.388C85.6381 25.0462 85.8093 24.6171 85.8093 24.1299V17.8383C85.8093 16.3687 85.5258 15.0972 84.9346 14.0445C84.3664 13.0024 83.5722 12.2068 82.5554 11.6704C81.5613 11.12 80.4372 10.85 79.1945 10.85C78.2705 10.85 77.4022 11.013 76.5939 11.3432C76.0813 11.5526 75.6138 11.8118 75.1931 12.1216C75.115 11.8763 74.9836 11.6547 74.7937 11.4651C74.4584 11.1303 74.0231 10.9779 73.5337 10.9779C73.055 10.9779 72.6288 11.1338 72.2847 11.4545L72.2791 11.4597L72.2737 11.4651C71.9384 11.7999 71.7858 12.2345 71.7858 12.7232V24.1299C71.7858 24.6079 71.9419 25.0334 72.2631 25.3771Z" fill="white"/>
<path fill-rule="evenodd" clip-rule="evenodd" d="M58.6618 24.9267L58.6653 24.9286L58.6689 24.9306C59.852 25.5639 61.1904 25.8752 62.673 25.8752C63.5138 25.8752 64.382 25.7208 65.2753 25.4189C66.1828 25.1181 66.9564 24.7234 67.5855 24.2274C67.9653 23.9374 68.1919 23.5447 68.1652 23.0664C68.1399 22.6146 67.9099 22.2316 67.5548 21.9201L67.5513 21.9171L67.5478 21.9142C67.237 21.6527 66.8636 21.5355 66.4552 21.5553C66.0664 21.558 65.707 21.6865 65.3857 21.9207L65.3838 21.9221L65.3819 21.9236C65.0864 22.1439 64.6774 22.3547 64.1409 22.549C63.6372 22.7207 63.1485 22.8042 62.673 22.8042C61.4649 22.8042 60.4652 22.4673 59.6477 21.8093C58.9755 21.2427 58.5259 20.5458 58.2964 19.7069H67.4931C67.9304 19.7069 68.3243 19.5732 68.639 19.2845L68.6454 19.2785L68.6517 19.2723C68.9598 18.966 69.1145 18.581 69.1145 18.1459C69.1145 16.749 68.8477 15.4999 68.3006 14.4103C67.7695 13.3016 66.9867 12.4302 65.9559 11.8074C64.9171 11.1626 63.6882 10.85 62.2884 10.85C60.8694 10.85 59.5945 11.172 58.4767 11.8272C57.3636 12.4627 56.4872 13.3537 55.8513 14.4915L55.8501 14.4936C55.2279 15.6216 54.924 16.92 54.924 18.3753C54.924 19.8191 55.2474 21.1194 55.9052 22.2638L55.9073 22.2674L55.9094 22.2709C56.5821 23.3915 57.5019 24.278 58.6618 24.9267ZM64.7373 14.8551L64.7391 14.857L64.741 14.8589C65.246 15.3735 65.5954 16.0122 65.7814 16.7889H58.3344C58.5639 16.0092 58.9654 15.3674 59.5352 14.8514C60.2062 14.2436 61.1088 13.9209 62.2884 13.9209C63.3524 13.9209 64.1515 14.2436 64.7373 14.8551Z" fill="white"/>
<path d="M41.3128 22.9832L41.3116 22.9847C41.0828 23.2873 40.9909 23.6623 40.9909 24.0667C40.9909 24.535 41.1092 24.9671 41.4238 25.279C41.7383 25.5909 42.174 25.7083 42.6461 25.7083H51.4321C51.9042 25.7083 52.3399 25.5909 52.6545 25.279C52.969 24.9671 53.0873 24.535 53.0873 24.0667C53.0873 23.5985 52.969 23.1664 52.6545 22.8545C52.3399 22.5426 51.9042 22.4252 51.4321 22.4252H45.779L52.5082 13.5744L52.5089 13.5735C52.7377 13.271 52.8297 12.896 52.8297 12.4915C52.8297 12.0233 52.7113 11.5912 52.3968 11.2793C52.0823 10.9673 51.6466 10.85 51.1745 10.85H43.0562C42.5841 10.85 42.1484 10.9673 41.8339 11.2793C41.5194 11.5912 41.401 12.0233 41.401 12.4915C41.401 12.9597 41.5194 13.3918 41.8339 13.7037C42.1484 14.0157 42.5841 14.133 43.0562 14.133H48.0654L41.3128 22.9832Z" fill="white"/>
<path d="M117.462 25.8752C116.168 25.8752 115.011 25.6151 113.991 25.0948C112.97 24.5565 112.16 23.7761 111.558 22.7534C110.975 21.7308 110.684 20.4838 110.684 19.0127V12.0186C110.684 11.7315 110.784 11.4893 110.984 11.292C111.185 11.0946 111.431 10.996 111.722 10.996C112.032 10.996 112.287 11.0946 112.488 11.292C112.688 11.4893 112.788 11.7315 112.788 12.0186V19.0127C112.788 20.6633 113.253 21.8922 114.182 22.6996C115.111 23.5069 116.277 23.9106 117.68 23.9106C118.573 23.9106 119.375 23.7402 120.086 23.3993C120.814 23.0584 121.388 22.5919 121.807 21.9999C122.226 21.4078 122.436 20.735 122.436 19.9815V11.8726C122.436 11.5676 122.527 11.3254 122.709 11.146C122.91 10.9487 123.165 10.85 123.475 10.85C123.784 10.85 124.039 10.9487 124.24 11.146C124.44 11.3254 124.54 11.5676 124.54 11.8726V24.7458C124.54 25.0688 124.44 25.3289 124.24 25.5263C124.039 25.7057 123.784 25.7954 123.475 25.7954C123.165 25.7954 122.91 25.7057 122.709 25.5263C122.527 25.3289 122.436 25.0688 122.436 24.7458V23.7492C121.835 24.413 121.106 24.9333 120.25 25.31C119.393 25.6868 118.464 25.8752 117.462 25.8752Z" fill="white"/>
<path d="M107.817 25.8752C106.761 25.8752 105.89 25.4443 105.203 24.5824C104.517 23.7025 104.173 22.5803 104.173 21.2156V5.86337C104.173 5.55812 104.261 5.31572 104.437 5.13616C104.631 4.93865 104.877 4.83989 105.177 4.83989C105.476 4.83989 105.714 4.93865 105.89 5.13616C106.083 5.31572 106.18 5.55812 106.18 5.86337V21.2156C106.18 21.9877 106.33 22.6162 106.629 23.101C106.946 23.5858 107.342 23.8282 107.817 23.8282H108.477C108.741 23.8282 108.953 23.927 109.111 24.1245C109.269 24.3041 109.349 24.5465 109.349 24.8517C109.349 25.157 109.234 25.4083 109.005 25.6059C108.794 25.7854 108.512 25.8752 108.16 25.8752H107.817Z" fill="white"/>
<path d="M91.1698 25.7587C90.8656 25.7587 90.615 25.6687 90.4181 25.4887C90.2392 25.2907 90.1497 25.0387 90.1497 24.7327V5.69867C90.1497 5.39269 90.2392 5.1497 90.4181 4.96971C90.615 4.77172 90.8656 4.67272 91.1698 4.67272C91.4741 4.67272 91.7157 4.77172 91.8946 4.96971C92.0915 5.1497 92.19 5.39269 92.19 5.69867V17.9831L99.7604 11.0984C100.226 10.6844 100.664 10.7024 101.076 11.1524C101.273 11.3684 101.362 11.6024 101.344 11.8544C101.344 12.0884 101.237 12.2953 101.022 12.4753L95.653 17.3621L101.237 24.2737C101.631 24.7597 101.586 25.2097 101.103 25.6237C100.87 25.8217 100.628 25.9027 100.378 25.8667C100.127 25.8487 99.9125 25.7227 99.7336 25.4887L94.2034 18.658L92.19 20.5209V24.7327C92.19 25.0387 92.0915 25.2907 91.8946 25.4887C91.7157 25.6687 91.4741 25.7587 91.1698 25.7587Z" fill="white"/>
<path fill-rule="evenodd" clip-rule="evenodd" d="M131.722 24.9039C132.857 25.5513 134.127 25.875 135.532 25.875C136.974 25.875 138.262 25.5513 139.397 24.9039C140.532 24.2385 141.424 23.3393 142.072 22.2064C142.739 21.0734 143.072 19.7876 143.072 18.349C143.072 16.9283 142.748 15.6515 142.099 14.5186C141.469 13.3856 140.604 12.4954 139.505 11.848C138.406 11.1827 137.163 10.85 135.776 10.85C134.569 10.85 133.47 11.1107 132.479 11.6322C131.506 12.1358 130.722 12.8101 130.128 13.6554V5.72474C130.128 5.40104 130.029 5.14928 129.83 4.96945C129.65 4.77163 129.407 4.67272 129.101 4.67272C128.776 4.67272 128.515 4.77163 128.317 4.96945C128.137 5.14928 128.047 5.40104 128.047 5.72474V24.7441C128.047 25.0678 128.146 25.3196 128.344 25.4994C128.524 25.6972 128.767 25.7961 129.074 25.7961C129.398 25.7961 129.659 25.6972 129.857 25.4994C130.038 25.3196 130.128 25.0678 130.128 24.7441L130.128 23.6692C130.595 24.1472 131.127 24.5587 131.722 24.9039ZM138.343 23.2584C137.514 23.744 136.577 23.9867 135.532 23.9867C134.505 23.9867 133.578 23.744 132.749 23.2584C131.92 22.7549 131.272 22.0805 130.803 21.2353C130.335 20.3901 130.101 19.428 130.101 18.349C130.101 17.288 130.335 16.3349 130.803 15.4896C131.272 14.6264 131.92 13.9521 132.749 13.4665C133.578 12.981 134.505 12.7382 135.532 12.7382C136.577 12.7382 137.514 12.981 138.343 13.4665C139.172 13.9521 139.82 14.6264 140.289 15.4896C140.775 16.3349 141.018 17.288 141.018 18.349C141.018 19.428 140.775 20.3901 140.289 21.2353C139.82 22.0805 139.172 22.7549 138.343 23.2584Z" fill="white"/>
<path d="M10.059 22.6908L10.0577 22.6925C9.7893 23.0461 9.68146 23.4843 9.68146 23.9569C9.68146 24.5041 9.82028 25.009 10.1892 25.3735C10.5582 25.738 11.0693 25.8751 11.6232 25.8751H21.9302C22.4841 25.8751 22.9952 25.738 23.3642 25.3735C23.7331 25.009 23.8719 24.5041 23.8719 23.9569C23.8719 23.4098 23.7331 22.9048 23.3642 22.5404C22.9952 22.1759 22.4841 22.0387 21.9302 22.0387H15.2985L23.1926 11.6962L23.1934 11.6952C23.4618 11.3416 23.5697 10.9034 23.5697 10.4308C23.5697 9.88366 23.4309 9.37874 23.0619 9.01425C22.6929 8.64975 22.1818 8.51262 21.6279 8.51262H12.1043C11.5505 8.51262 11.0394 8.64975 10.6704 9.01425C10.3014 9.37874 10.1626 9.88366 10.1626 10.4308C10.1626 10.9779 10.3014 11.4829 10.6704 11.8474C11.0394 12.2118 11.5505 12.349 12.1043 12.349H17.9807L10.059 22.6908Z" fill="white"/>
</svg>
