<svg width="24" height="24" viewBox="0 0 24 24" fill="none" xmlns="http://www.w3.org/2000/svg">
<path fill-rule="evenodd" clip-rule="evenodd" d="M4.25 12C4.25 11.5858 4.58579 11.25 5 11.25H19C19.4142 11.25 19.75 11.5858 19.75 12C19.75 12.4142 19.4142 12.75 19 12.75H5C4.58579 12.75 4.25 12.4142 4.25 12Z" fill="#212529"/>
<path fill-rule="evenodd" clip-rule="evenodd" d="M19.5303 11.4697C19.8232 11.7626 19.8232 12.2374 19.5303 12.5303L13.5303 18.5303C13.2374 18.8232 12.7626 18.8232 12.4697 18.5303C12.1768 18.2374 12.1768 17.7626 12.4697 17.4697L18.4697 11.4697C18.7626 11.1768 19.2374 11.1768 19.5303 11.4697Z" fill="#212529"/>
<path fill-rule="evenodd" clip-rule="evenodd" d="M12.4697 5.46967C12.7626 5.17678 13.2374 5.17678 13.5303 5.46967L19.5303 11.4697C19.8232 11.7626 19.8232 12.2374 19.5303 12.5303C19.2374 12.8232 18.7626 12.8232 18.4697 12.5303L12.4697 6.53033C12.1768 6.23744 12.1768 5.76256 12.4697 5.46967Z" fill="#212529"/>
</svg>
