<svg width="24" height="24" viewBox="0 0 24 24" fill="none" xmlns="http://www.w3.org/2000/svg">
<path fill-rule="evenodd" clip-rule="evenodd" d="M12 8.75C10.2051 8.75 8.75 10.2051 8.75 12C8.75 13.7949 10.2051 15.25 12 15.25C13.7949 15.25 15.25 13.7949 15.25 12C15.25 10.2051 13.7949 8.75 12 8.75ZM7.25 12C7.25 9.37665 9.37665 7.25 12 7.25C14.6234 7.25 16.75 9.37665 16.75 12C16.75 14.6234 14.6234 16.75 12 16.75C9.37665 16.75 7.25 14.6234 7.25 12Z" fill="#212529"/>
<path fill-rule="evenodd" clip-rule="evenodd" d="M3.8785 6.5937C6.25874 3.01036 10.7061 1.41043 14.8236 2.65624C18.9411 3.90204 21.7556 7.69913 21.75 12.001V13.5C21.75 15.2949 20.295 16.75 18.5 16.75C16.7051 16.75 15.25 15.2949 15.25 13.5V12C15.25 11.5858 15.5858 11.25 16 11.25C16.4142 11.25 16.75 11.5858 16.75 12V13.5C16.75 14.4665 17.5335 15.25 18.5 15.25C19.4665 15.25 20.25 14.4665 20.25 13.5V12C20.2547 8.35999 17.8733 5.1461 14.3892 4.09196C10.9052 3.03782 7.14202 4.3916 5.12797 7.42366C3.11392 10.4557 3.32502 14.4494 5.64749 17.2522C7.96995 20.0551 11.8549 21.0046 15.2084 19.589C15.59 19.428 16.0299 19.6067 16.191 19.9883C16.3521 20.3699 16.1733 20.8099 15.7917 20.971C11.8285 22.6439 7.23721 21.5217 4.49248 18.2093C1.74775 14.8969 1.49827 10.177 3.8785 6.5937Z" fill="#212529"/>
</svg>
