<svg width="24" height="24" viewBox="0 0 24 24" fill="none" xmlns="http://www.w3.org/2000/svg">
<path fill-rule="evenodd" clip-rule="evenodd" d="M12 3.75C7.44365 3.75 3.75 7.44365 3.75 12C3.75 16.5563 7.44365 20.25 12 20.25C16.5563 20.25 20.25 16.5563 20.25 12C20.25 7.44365 16.5563 3.75 12 3.75ZM2.25 12C2.25 6.61522 6.61522 2.25 12 2.25C17.3848 2.25 21.75 6.61522 21.75 12C21.75 17.3848 17.3848 21.75 12 21.75C6.61522 21.75 2.25 17.3848 2.25 12Z" fill="#212529"/>
<path fill-rule="evenodd" clip-rule="evenodd" d="M5.16962 5.16967C5.46251 4.87677 5.93739 4.87677 6.23028 5.16967L18.8303 17.7697C19.1232 18.0626 19.1232 18.5374 18.8303 18.8303C18.5374 19.1232 18.0625 19.1232 17.7696 18.8303L5.16962 6.23033C4.87673 5.93743 4.87673 5.46256 5.16962 5.16967Z" fill="#212529"/>
</svg>
