<svg width="24" height="24" viewBox="0 0 24 24" fill="none" xmlns="http://www.w3.org/2000/svg">
<path fill-rule="evenodd" clip-rule="evenodd" d="M6 4.75C5.30964 4.75 4.75 5.30964 4.75 6V7C4.75 7.41421 4.41421 7.75 4 7.75C3.58579 7.75 3.25 7.41421 3.25 7V6C3.25 4.48122 4.48122 3.25 6 3.25H8C8.41421 3.25 8.75 3.58579 8.75 4C8.75 4.41421 8.41421 4.75 8 4.75H6Z" fill="#212529"/>
<path fill-rule="evenodd" clip-rule="evenodd" d="M4 16.25C4.41421 16.25 4.75 16.5858 4.75 17V18C4.75 18.6904 5.30964 19.25 6 19.25H8C8.41421 19.25 8.75 19.5858 8.75 20C8.75 20.4142 8.41421 20.75 8 20.75H6C4.48122 20.75 3.25 19.5188 3.25 18V17C3.25 16.5858 3.58579 16.25 4 16.25Z" fill="#212529"/>
<path fill-rule="evenodd" clip-rule="evenodd" d="M15.25 4C15.25 3.58579 15.5858 3.25 16 3.25H18C19.5188 3.25 20.75 4.48122 20.75 6V7C20.75 7.41421 20.4142 7.75 20 7.75C19.5858 7.75 19.25 7.41421 19.25 7V6C19.25 5.30964 18.6904 4.75 18 4.75H16C15.5858 4.75 15.25 4.41421 15.25 4Z" fill="#212529"/>
<path fill-rule="evenodd" clip-rule="evenodd" d="M20 16.25C20.4142 16.25 20.75 16.5858 20.75 17V18C20.75 19.5188 19.5188 20.75 18 20.75H16C15.5858 20.75 15.25 20.4142 15.25 20C15.25 19.5858 15.5858 19.25 16 19.25H18C18.6904 19.25 19.25 18.6904 19.25 18V17C19.25 16.5858 19.5858 16.25 20 16.25Z" fill="#212529"/>
<path fill-rule="evenodd" clip-rule="evenodd" d="M4.25 11C4.25 10.5858 4.58579 10.25 5 10.25H6C6.41421 10.25 6.75 10.5858 6.75 11V13C6.75 13.4142 6.41421 13.75 6 13.75H5C4.58579 13.75 4.25 13.4142 4.25 13V11Z" fill="#212529"/>
<path fill-rule="evenodd" clip-rule="evenodd" d="M10 10.25C10.4142 10.25 10.75 10.5858 10.75 11V13C10.75 13.4142 10.4142 13.75 10 13.75C9.58579 13.75 9.25 13.4142 9.25 13V11C9.25 10.5858 9.58579 10.25 10 10.25Z" fill="#212529"/>
<path fill-rule="evenodd" clip-rule="evenodd" d="M13.25 11C13.25 10.5858 13.5858 10.25 14 10.25H15C15.4142 10.25 15.75 10.5858 15.75 11V13C15.75 13.4142 15.4142 13.75 15 13.75H14C13.5858 13.75 13.25 13.4142 13.25 13V11Z" fill="#212529"/>
<path fill-rule="evenodd" clip-rule="evenodd" d="M19 10.25C19.4142 10.25 19.75 10.5858 19.75 11V13C19.75 13.4142 19.4142 13.75 19 13.75C18.5858 13.75 18.25 13.4142 18.25 13V11C18.25 10.5858 18.5858 10.25 19 10.25Z" fill="#212529"/>
</svg>
