<svg width="24" height="24" viewBox="0 0 24 24" fill="none" xmlns="http://www.w3.org/2000/svg">
<path fill-rule="evenodd" clip-rule="evenodd" d="M6.41672 16.2196C9.63847 12.9983 14.8616 12.9983 18.0833 16.2196C18.3762 16.5125 18.3763 16.9874 18.0834 17.2803C17.7905 17.5732 17.3156 17.5732 17.0227 17.2804C14.3867 14.6447 10.1133 14.6447 7.47732 17.2804C7.18441 17.5732 6.70954 17.5732 6.41666 17.2803C6.12378 16.9874 6.12381 16.5125 6.41672 16.2196Z" fill="#212529"/>
<path fill-rule="evenodd" clip-rule="evenodd" d="M9.15445 5.62498C11.0185 2.39667 15.1466 1.2906 18.375 3.15448L17.9998 3.80422L18.375 3.15449C21.6033 5.01851 22.7094 9.1466 20.8455 12.375C20.746 12.5473 20.5822 12.673 20.3901 12.7244C20.1979 12.7759 19.9932 12.749 19.8209 12.6495L9.42895 6.64951C9.25668 6.55006 9.13099 6.38624 9.07951 6.1941C9.02803 6.00196 9.05499 5.79724 9.15445 5.62498ZM10.8745 5.75209L19.8754 10.9489C20.8323 8.56364 19.9153 5.77596 17.6249 4.45351C15.3345 3.13115 12.4618 3.73082 10.8745 5.75209Z" fill="#212529"/>
<path fill-rule="evenodd" clip-rule="evenodd" d="M16.8119 3.12658C17.272 2.94294 17.8513 2.85242 18.3747 3.15433C18.8983 3.45635 19.1098 4.00334 19.1809 4.4937C19.2536 4.99465 19.2053 5.5773 19.0814 6.18307C18.8319 7.40271 18.2395 8.88973 17.3814 10.3752C17.1742 10.7338 16.7154 10.8566 16.3568 10.6494C15.9981 10.4422 15.8753 9.9835 16.0825 9.62484C16.8824 8.24028 17.4025 6.9053 17.6118 5.88244C17.7172 5.36696 17.7348 4.97323 17.6965 4.70913C17.6741 4.55466 17.6401 4.48491 17.6226 4.45807C17.5906 4.45636 17.5131 4.46177 17.3678 4.51974C17.1199 4.61869 16.7877 4.83085 16.394 5.17992C15.6129 5.87258 14.7169 6.99037 13.9175 8.37501C13.7104 8.73373 13.2517 8.85663 12.8929 8.64952C12.5342 8.44242 12.4113 7.98372 12.6184 7.625C13.476 6.13964 14.4675 4.88343 15.3989 4.05759C15.8614 3.64741 16.3418 3.31419 16.8119 3.12658ZM17.6406 4.46062C17.6405 4.46067 17.6397 4.46048 17.6381 4.4599C17.6398 4.46028 17.6406 4.46057 17.6406 4.46062ZM17.6133 4.44559C17.612 4.44447 17.6114 4.44382 17.6114 4.44377C17.6114 4.44372 17.6121 4.44428 17.6133 4.44559Z" fill="#212529"/>
<path fill-rule="evenodd" clip-rule="evenodd" d="M15.3749 8.35049C15.7336 8.5576 15.8565 9.01629 15.6494 9.37501L12.6494 14.571C12.4423 14.9297 11.9836 15.0526 11.6249 14.8455C11.2662 14.6384 11.1433 14.1797 11.3504 13.821L14.3504 8.62499C14.5575 8.26628 15.0162 8.14338 15.3749 8.35049Z" fill="#212529"/>
<path fill-rule="evenodd" clip-rule="evenodd" d="M4.01848 19.7498C3.78056 19.757 3.54699 19.8156 3.33383 19.9216C2.96293 20.106 2.51276 19.9548 2.32835 19.5839C2.14394 19.213 2.29512 18.7628 2.66601 18.5784C3.07458 18.3753 3.52241 18.2633 3.97851 18.2503L3.98421 18.2501L3.98421 18.2502C5.02202 18.2284 6.00392 18.7194 6.60921 19.5627C6.92627 20.0044 7.4406 20.2615 7.98421 20.2502C7.99468 20.2499 8.00516 20.2499 8.01563 20.2502C8.55924 20.2615 9.07357 20.0044 9.39063 19.5627C9.99287 18.7236 10.9679 18.2334 11.9999 18.2499C13.0319 18.2334 14.007 18.7236 14.6092 19.5627C14.9263 20.0044 15.4406 20.2615 15.9842 20.2502C15.9947 20.2499 16.0052 20.2499 16.0156 20.2502C16.5592 20.2615 17.0736 20.0044 17.3906 19.5627C17.9959 18.7194 18.9778 18.2284 20.0156 18.2502L20.0213 18.2503V18.2503C20.4774 18.2633 20.9253 18.3753 21.3338 18.5784C21.7047 18.7628 21.8559 19.213 21.6715 19.5839C21.4871 19.9548 21.0369 20.106 20.666 19.9216C20.4529 19.8156 20.2193 19.757 19.9814 19.7498C19.4388 19.7393 18.9257 19.9964 18.6092 20.4373C18.007 21.2764 17.0319 21.7666 15.9999 21.7501C14.9679 21.7666 13.9929 21.2764 13.3906 20.4373C13.0736 19.9956 12.5592 19.7384 12.0156 19.7498C12.0052 19.75 11.9947 19.75 11.9842 19.7498C11.4406 19.7384 10.9263 19.9956 10.6092 20.4373C10.007 21.2764 9.03192 21.7666 7.99992 21.7501C6.96792 21.7666 5.99287 21.2764 5.39063 20.4373C5.07412 19.9964 4.56104 19.7393 4.01848 19.7498Z" fill="#212529"/>
</svg>
