<svg width="24" height="24" viewBox="0 0 24 24" fill="none" xmlns="http://www.w3.org/2000/svg">
<path fill-rule="evenodd" clip-rule="evenodd" d="M10.4092 5.62862C10.5016 5.5686 10.5773 5.4905 10.6336 5.40133C10.7115 5.27812 10.7525 5.13377 10.75 4.98679C10.7571 4.30252 11.314 3.75 11.9999 3.75C12.6903 3.75 13.2499 4.30964 13.2499 5C13.2499 5.29002 13.4172 5.55405 13.6793 5.67802C15.7636 6.66358 17.1356 8.7163 17.2499 11.0181V14C17.2499 14.0301 17.2518 14.0602 17.2554 14.0901C17.3508 14.8782 17.6402 15.6178 18.0843 16.25H5.91557C6.35971 15.6178 6.64912 14.8782 6.74451 14.0901C6.74813 14.0602 6.74995 14.0301 6.74995 14V11.0181C6.86401 8.72155 8.23001 6.67295 10.3063 5.68479C10.3422 5.66871 10.3765 5.6499 10.4092 5.62862ZM9.29194 4.51858C6.91965 5.80713 5.37833 8.24728 5.25077 10.9648C5.25022 10.9765 5.24995 10.9883 5.24995 11V13.9524C5.1146 14.9593 4.51583 15.846 3.63038 16.3474C3.33399 16.5152 3.18791 16.8617 3.2747 17.1911C3.36148 17.5205 3.65933 17.75 3.99995 17.75H19.9999C20.3406 17.75 20.6384 17.5205 20.7252 17.1911C20.812 16.8617 20.6659 16.5152 20.3695 16.3474C19.4841 15.846 18.8853 14.9593 18.7499 13.9524V11C18.7499 10.9883 18.7497 10.9765 18.7491 10.9648C18.6216 8.24728 17.0802 5.80713 14.7079 4.51858C14.4803 3.22934 13.3545 2.25 11.9999 2.25C10.6454 2.25 9.51959 3.22934 9.29194 4.51858Z" fill="#212529"/>
<path fill-rule="evenodd" clip-rule="evenodd" d="M9 16.25C9.41421 16.25 9.75 16.5858 9.75 17V18C9.75 19.2426 10.7574 20.25 12 20.25C13.2426 20.25 14.25 19.2426 14.25 18V17C14.25 16.5858 14.5858 16.25 15 16.25C15.4142 16.25 15.75 16.5858 15.75 17V18C15.75 20.0711 14.0711 21.75 12 21.75C9.92893 21.75 8.25 20.0711 8.25 18V17C8.25 16.5858 8.58579 16.25 9 16.25Z" fill="#212529"/>
</svg>
