<svg width="24" height="24" viewBox="0 0 24 24" fill="none" xmlns="http://www.w3.org/2000/svg">
<path fill-rule="evenodd" clip-rule="evenodd" d="M9 4.75C8.30964 4.75 7.75 5.30964 7.75 6V18.6754L11.6141 16.3569C11.8516 16.2144 12.1484 16.2144 12.3859 16.3569L16.25 18.6754V6C16.25 5.30964 15.6904 4.75 15 4.75H9ZM9 3.25C7.48122 3.25 6.25 4.48122 6.25 6V20C6.25 20.2702 6.39534 20.5195 6.63048 20.6527C6.86561 20.7858 7.15417 20.7821 7.38587 20.6431L12 17.8746L16.6141 20.6431C16.8458 20.7821 17.1344 20.7858 17.3695 20.6527C17.6047 20.5195 17.75 20.2702 17.75 20V6C17.75 4.48122 16.5188 3.25 15 3.25H9Z" fill="#212529"/>
</svg>
