<svg width="24" height="24" viewBox="0 0 24 24" fill="none" xmlns="http://www.w3.org/2000/svg">
<path fill-rule="evenodd" clip-rule="evenodd" d="M9 4.25C9.26345 4.25 9.50758 4.38822 9.64312 4.61413L12.6431 9.61413C12.7856 9.85164 12.7856 10.1484 12.6431 10.3859L6.64312 20.3859C6.50758 20.6118 6.26345 20.75 6 20.75C5.73655 20.75 5.49242 20.6118 5.35688 20.3859L2.35688 15.3859C2.21437 15.1484 2.21437 14.8516 2.35688 14.6141L8.35688 4.61413C8.49242 4.38822 8.73655 4.25 9 4.25ZM3.87464 15L6 18.5423L11.1254 10L9 6.45774L3.87464 15Z" fill="#212529"/>
<path fill-rule="evenodd" clip-rule="evenodd" d="M8.25 15C8.25 14.5858 8.58579 14.25 9 14.25H21C21.2702 14.25 21.5195 14.3953 21.6526 14.6305C21.7858 14.8656 21.7821 15.1542 21.6431 15.3859L18.6431 20.3859C18.5076 20.6118 18.2634 20.75 18 20.75H6C5.58579 20.75 5.25 20.4142 5.25 20C5.25 19.5858 5.58579 19.25 6 19.25H17.5754L19.6754 15.75H9C8.58579 15.75 8.25 15.4142 8.25 15Z" fill="#212529"/>
<path fill-rule="evenodd" clip-rule="evenodd" d="M8.34735 4.63048C8.48048 4.39534 8.7298 4.25 9 4.25H15C15.2634 4.25 15.5076 4.38822 15.6431 4.61413L21.6431 14.6141C21.7821 14.8458 21.7858 15.1344 21.6526 15.3695C21.5195 15.6047 21.2702 15.75 21 15.75H15C14.7366 15.75 14.4924 15.6118 14.3569 15.3859L8.35688 5.38587C8.21786 5.15417 8.21422 4.86561 8.34735 4.63048ZM10.3246 5.75L15.4246 14.25H19.6754L14.5754 5.75H10.3246Z" fill="#212529"/>
</svg>
