<svg width="24" height="24" viewBox="0 0 24 24" fill="none" xmlns="http://www.w3.org/2000/svg">
<path fill-rule="evenodd" clip-rule="evenodd" d="M11.6954 3.31464C11.8893 3.22845 12.1107 3.22845 12.3046 3.31464L21.3046 7.31464C21.5754 7.43502 21.75 7.70361 21.75 8V21C21.75 21.4142 21.4142 21.75 21 21.75C20.5858 21.75 20.25 21.4142 20.25 21V8.4874L12 4.82074L3.75 8.4874V21C3.75 21.4142 3.41421 21.75 3 21.75C2.58579 21.75 2.25 21.4142 2.25 21V8C2.25 7.70361 2.42455 7.43502 2.6954 7.31464L11.6954 3.31464Z" fill="#212529"/>
<path fill-rule="evenodd" clip-rule="evenodd" d="M12.25 13C12.25 12.5858 12.5858 12.25 13 12.25H17C17.4142 12.25 17.75 12.5858 17.75 13V21C17.75 21.4142 17.4142 21.75 17 21.75H7C6.58579 21.75 6.25 21.4142 6.25 21V15C6.25 14.5858 6.58579 14.25 7 14.25H13C13.4142 14.25 13.75 14.5858 13.75 15C13.75 15.4142 13.4142 15.75 13 15.75H7.75V20.25H16.25V13.75H13C12.5858 13.75 12.25 13.4142 12.25 13Z" fill="#212529"/>
<path fill-rule="evenodd" clip-rule="evenodd" d="M8.25 12C8.25 11.0335 9.0335 10.25 10 10.25H12C12.9665 10.25 13.75 11.0335 13.75 12V21C13.75 21.4142 13.4142 21.75 13 21.75C12.5858 21.75 12.25 21.4142 12.25 21V12C12.25 11.8619 12.1381 11.75 12 11.75H10C9.86193 11.75 9.75 11.8619 9.75 12V15C9.75 15.4142 9.41421 15.75 9 15.75C8.58579 15.75 8.25 15.4142 8.25 15V12Z" fill="#212529"/>
</svg>
