<svg width="24" height="24" viewBox="0 0 24 24" fill="none" xmlns="http://www.w3.org/2000/svg">
<path fill-rule="evenodd" clip-rule="evenodd" d="M12 2.25C12.4142 2.25 12.75 2.58579 12.75 3V4C12.75 4.41421 12.4142 4.75 12 4.75C11.5858 4.75 11.25 4.41421 11.25 4V3C11.25 2.58579 11.5858 2.25 12 2.25ZM5.06967 5.06967C5.36256 4.77678 5.83744 4.77678 6.13033 5.06967L6.83033 5.76967C7.12322 6.06256 7.12322 6.53744 6.83033 6.83033C6.53744 7.12322 6.06256 7.12322 5.76967 6.83033L5.06967 6.13033C4.77678 5.83744 4.77678 5.36256 5.06967 5.06967ZM18.9303 5.06967C19.2232 5.36256 19.2232 5.83744 18.9303 6.13033L18.2303 6.83033C17.9374 7.12322 17.4626 7.12322 17.1697 6.83033C16.8768 6.53744 16.8768 6.06256 17.1697 5.76967L17.8697 5.06967C18.1626 4.77678 18.6374 4.77678 18.9303 5.06967ZM2.25 12C2.25 11.5858 2.58579 11.25 3 11.25H4C4.41421 11.25 4.75 11.5858 4.75 12C4.75 12.4142 4.41421 12.75 4 12.75H3C2.58579 12.75 2.25 12.4142 2.25 12ZM19.25 12C19.25 11.5858 19.5858 11.25 20 11.25H21C21.4142 11.25 21.75 11.5858 21.75 12C21.75 12.4142 21.4142 12.75 21 12.75H20C19.5858 12.75 19.25 12.4142 19.25 12Z" fill="#212529"/>
<path fill-rule="evenodd" clip-rule="evenodd" d="M11.9999 7.75C10.1706 7.75 8.54646 8.92058 7.96798 10.656C7.39071 12.3878 7.98391 14.2944 9.44066 15.3931C9.45745 15.4053 9.47386 15.4183 9.48982 15.4321C9.50647 15.4464 9.52234 15.4614 9.53744 15.4768C10.477 16.413 10.9249 17.7334 10.7507 19.0462C10.775 19.7152 11.325 20.25 11.9999 20.25C12.6748 20.25 13.2247 19.7152 13.249 19.0462C13.0742 17.7287 13.526 16.4037 14.4723 15.467C14.4966 15.4429 14.5225 15.4205 14.5499 15.4C16.0133 14.3024 16.6103 12.3915 16.0318 10.656C15.4533 8.92058 13.8292 7.75 11.9999 7.75ZM8.50505 16.566C6.55775 15.0758 5.76823 12.5119 6.54495 10.1817C7.32761 7.83372 9.52491 6.25 11.9999 6.25C14.4749 6.25 16.6722 7.83372 17.4548 10.1817C18.2315 12.5119 17.442 15.0758 15.4947 16.566C14.8951 17.1799 14.6159 18.0395 14.7418 18.8902C14.7472 18.9265 14.7499 18.9632 14.7499 19C14.7499 20.5188 13.5187 21.75 11.9999 21.75C10.4811 21.75 9.24988 20.5188 9.24988 19C9.24988 18.9632 9.25258 18.9265 9.25797 18.8902C9.3839 18.0395 9.10463 17.1799 8.50505 16.566Z" fill="#212529"/>
<path fill-rule="evenodd" clip-rule="evenodd" d="M8.94995 17C8.94995 16.5858 9.28574 16.25 9.69995 16.25H14.3C14.7142 16.25 15.05 16.5858 15.05 17C15.05 17.4142 14.7142 17.75 14.3 17.75H9.69995C9.28574 17.75 8.94995 17.4142 8.94995 17Z" fill="#212529"/>
</svg>
