<svg width="24" height="24" viewBox="0 0 24 24" fill="none" xmlns="http://www.w3.org/2000/svg">
<path fill-rule="evenodd" clip-rule="evenodd" d="M12.8503 4.5218C12.0657 4.99259 11.75 5.53852 11.75 6C11.75 6.46148 12.0657 7.00741 12.8503 7.4782C13.6201 7.94004 14.7318 8.25 16 8.25C17.2682 8.25 18.3799 7.94004 19.1497 7.4782C19.9343 7.00741 20.25 6.46148 20.25 6C20.25 5.53852 19.9343 4.99259 19.1497 4.5218C18.3799 4.05996 17.2682 3.75 16 3.75C14.7318 3.75 13.6201 4.05996 12.8503 4.5218ZM12.0786 3.23556C13.1185 2.61161 14.5067 2.25 16 2.25C17.4933 2.25 18.8815 2.61161 19.9214 3.23556C20.9464 3.85055 21.75 4.80463 21.75 6C21.75 7.19537 20.9464 8.14945 19.9214 8.76444C18.8815 9.38839 17.4933 9.75 16 9.75C14.5067 9.75 13.1185 9.38839 12.0786 8.76444C11.0536 8.14945 10.25 7.19537 10.25 6C10.25 4.80463 11.0536 3.85055 12.0786 3.23556Z" fill="#212529"/>
<path fill-rule="evenodd" clip-rule="evenodd" d="M11 5.25C11.4142 5.25 11.75 5.58579 11.75 6V10C11.75 10.4615 12.0657 11.0074 12.8505 11.4782C13.6203 11.9401 14.7321 12.25 16 12.25C17.2679 12.25 18.3797 11.9401 19.1495 11.4782C19.9343 11.0074 20.25 10.4615 20.25 10V6C20.25 5.58579 20.5858 5.25 21 5.25C21.4142 5.25 21.75 5.58579 21.75 6V10C21.75 11.1955 20.9462 12.1496 19.9212 12.7645C18.8813 13.3884 17.4931 13.75 16 13.75C14.5069 13.75 13.1187 13.3884 12.0788 12.7645C11.0538 12.1496 10.25 11.1955 10.25 10V6C10.25 5.58579 10.5858 5.25 11 5.25Z" fill="#212529"/>
<path fill-rule="evenodd" clip-rule="evenodd" d="M11 9.25C11.4142 9.25 11.75 9.58579 11.75 10V14C11.75 14.4615 12.0657 15.0074 12.8505 15.4782C13.6203 15.9401 14.7321 16.25 16 16.25C17.2679 16.25 18.3797 15.9401 19.1495 15.4782C19.9343 15.0074 20.25 14.4615 20.25 14V10C20.25 9.58579 20.5858 9.25 21 9.25C21.4142 9.25 21.75 9.58579 21.75 10V14C21.75 15.1955 20.9462 16.1496 19.9212 16.7645C18.8813 17.3884 17.4931 17.75 16 17.75C14.5069 17.75 13.1187 17.3884 12.0788 16.7645C11.0538 16.1496 10.25 15.1955 10.25 14V10C10.25 9.58579 10.5858 9.25 11 9.25Z" fill="#212529"/>
<path fill-rule="evenodd" clip-rule="evenodd" d="M11 13.25C11.4142 13.25 11.75 13.5858 11.75 14V18C11.75 18.4615 12.0657 19.0074 12.8505 19.4782C13.6203 19.9401 14.7321 20.25 16 20.25C17.2679 20.25 18.3797 19.9401 19.1495 19.4782C19.9343 19.0074 20.25 18.4615 20.25 18V14C20.25 13.5858 20.5858 13.25 21 13.25C21.4142 13.25 21.75 13.5858 21.75 14V18C21.75 19.1955 20.9462 20.1496 19.9212 20.7645C18.8813 21.3884 17.4931 21.75 16 21.75C14.5069 21.75 13.1187 21.3884 12.0788 20.7645C11.0538 20.1496 10.25 19.1955 10.25 18V14C10.25 13.5858 10.5858 13.25 11 13.25Z" fill="#212529"/>
<path fill-rule="evenodd" clip-rule="evenodd" d="M2.25 10.5C2.25 9.25736 3.25736 8.25 4.5 8.25H7C7.41421 8.25 7.75 8.58579 7.75 9C7.75 9.41421 7.41421 9.75 7 9.75H4.5C4.08579 9.75 3.75 10.0858 3.75 10.5C3.75 10.9142 4.08579 11.25 4.5 11.25H5.5C6.74264 11.25 7.75 12.2574 7.75 13.5C7.75 14.7426 6.74264 15.75 5.5 15.75H3C2.58579 15.75 2.25 15.4142 2.25 15C2.25 14.5858 2.58579 14.25 3 14.25H5.5C5.91421 14.25 6.25 13.9142 6.25 13.5C6.25 13.0858 5.91421 12.75 5.5 12.75H4.5C3.25736 12.75 2.25 11.7426 2.25 10.5Z" fill="#212529"/>
<path fill-rule="evenodd" clip-rule="evenodd" d="M5 7.25C5.41421 7.25 5.75 7.58579 5.75 8V9C5.75 9.41421 5.41421 9.75 5 9.75C4.58579 9.75 4.25 9.41421 4.25 9V8C4.25 7.58579 4.58579 7.25 5 7.25ZM5 14.25C5.41421 14.25 5.75 14.5858 5.75 15V16C5.75 16.4142 5.41421 16.75 5 16.75C4.58579 16.75 4.25 16.4142 4.25 16V15C4.25 14.5858 4.58579 14.25 5 14.25Z" fill="#212529"/>
</svg>
