<svg width="24" height="24" viewBox="0 0 24 24" fill="none" xmlns="http://www.w3.org/2000/svg">
<path fill-rule="evenodd" clip-rule="evenodd" d="M9 4.75C8.93339 4.75005 8.86955 4.77669 8.82265 4.824C8.53104 5.11817 8.05617 5.12026 7.762 4.82865C7.46783 4.53704 7.46574 4.06217 7.75735 3.768C8.08588 3.43657 8.53318 3.25009 8.99985 3.25H15C15.9665 3.25 16.75 4.0335 16.75 5C16.75 5.69036 17.3096 6.25 18 6.25H19C20.5188 6.25 21.75 7.48122 21.75 9V17C21.75 17.4142 21.4142 17.75 21 17.75C20.5858 17.75 20.25 17.4142 20.25 17V9C20.25 8.30964 19.6904 7.75 19 7.75H18C16.4812 7.75 15.25 6.51878 15.25 5C15.25 4.86193 15.1381 4.75 15 4.75H9C8.99995 4.75 9.00005 4.75 9 4.75ZM7.50143 6.51609C7.67203 6.89354 7.50436 7.33782 7.12691 7.50843C6.78085 7.66485 6.39963 7.75 6 7.75H5C4.30964 7.75 3.75 8.30964 3.75 9V18C3.75 18.6904 4.30964 19.25 5 19.25H19C19.1846 19.25 19.3574 19.2105 19.5121 19.1406C19.8895 18.97 20.3338 19.1376 20.5044 19.5151C20.675 19.8925 20.5074 20.3368 20.1299 20.5074C19.7846 20.6635 19.4014 20.75 19 20.75H5C3.48122 20.75 2.25 19.5188 2.25 18V9C2.25 7.48122 3.48122 6.25 5 6.25H6C6.18437 6.25 6.35515 6.21115 6.50909 6.14157C6.88654 5.97097 7.33082 6.13864 7.50143 6.51609Z" fill="#212529"/>
<path fill-rule="evenodd" clip-rule="evenodd" d="M11.0758 10.0488C11.2919 10.4022 11.1806 10.8638 10.8272 11.0799C10.0318 11.5663 9.61881 12.4928 9.78871 13.4095C9.95862 14.3262 10.6763 15.0431 11.5931 15.2122C12.51 15.3812 13.4361 14.9672 13.9217 14.1714C14.1375 13.8178 14.599 13.7061 14.9526 13.9218C15.3062 14.1376 15.4179 14.5991 15.2022 14.9527C14.3928 16.2791 12.8493 16.969 11.3212 16.6873C9.79309 16.4056 8.59701 15.2107 8.31383 13.6829C8.03065 12.155 8.71904 10.6108 10.0447 9.8002C10.398 9.58411 10.8597 9.6954 11.0758 10.0488Z" fill="#212529"/>
<path fill-rule="evenodd" clip-rule="evenodd" d="M2.46967 2.46967C2.76256 2.17678 3.23744 2.17678 3.53033 2.46967L21.5303 20.4697C21.8232 20.7626 21.8232 21.2374 21.5303 21.5303C21.2374 21.8232 20.7626 21.8232 20.4697 21.5303L2.46967 3.53033C2.17678 3.23744 2.17678 2.76256 2.46967 2.46967Z" fill="#212529"/>
</svg>
