<svg width="24" height="24" viewBox="0 0 24 24" fill="none" xmlns="http://www.w3.org/2000/svg">
<path fill-rule="evenodd" clip-rule="evenodd" d="M4.25 7C4.25 5.48122 5.48122 4.25 7 4.25H9C9.41421 4.25 9.75 4.58579 9.75 5C9.75 5.41421 9.41421 5.75 9 5.75H7C6.30964 5.75 5.75 6.30964 5.75 7V19C5.75 19.6904 6.30964 20.25 7 20.25H17C17.6904 20.25 18.25 19.6904 18.25 19V7C18.25 6.30964 17.6904 5.75 17 5.75H15C14.5858 5.75 14.25 5.41421 14.25 5C14.25 4.58579 14.5858 4.25 15 4.25H17C18.5188 4.25 19.75 5.48122 19.75 7V19C19.75 20.5188 18.5188 21.75 17 21.75H7C5.48122 21.75 4.25 20.5188 4.25 19V7Z" fill="#212529"/>
<path fill-rule="evenodd" clip-rule="evenodd" d="M8.25 5C8.25 3.48122 9.48122 2.25 11 2.25H13C14.5188 2.25 15.75 3.48122 15.75 5C15.75 6.51878 14.5188 7.75 13 7.75H11C9.48122 7.75 8.25 6.51878 8.25 5ZM11 3.75C10.3096 3.75 9.75 4.30964 9.75 5C9.75 5.69036 10.3096 6.25 11 6.25H13C13.6904 6.25 14.25 5.69036 14.25 5C14.25 4.30964 13.6904 3.75 13 3.75H11Z" fill="#212529"/>
<path fill-rule="evenodd" clip-rule="evenodd" d="M8.25 12C8.25 11.5858 8.58579 11.25 9 11.25H9.01C9.42421 11.25 9.76 11.5858 9.76 12C9.76 12.4142 9.42421 12.75 9.01 12.75H9C8.58579 12.75 8.25 12.4142 8.25 12Z" fill="#212529"/>
<path fill-rule="evenodd" clip-rule="evenodd" d="M12.25 12C12.25 11.5858 12.5858 11.25 13 11.25H15C15.4142 11.25 15.75 11.5858 15.75 12C15.75 12.4142 15.4142 12.75 15 12.75H13C12.5858 12.75 12.25 12.4142 12.25 12Z" fill="#212529"/>
<path fill-rule="evenodd" clip-rule="evenodd" d="M8.25 16C8.25 15.5858 8.58579 15.25 9 15.25H9.01C9.42421 15.25 9.76 15.5858 9.76 16C9.76 16.4142 9.42421 16.75 9.01 16.75H9C8.58579 16.75 8.25 16.4142 8.25 16Z" fill="#212529"/>
<path fill-rule="evenodd" clip-rule="evenodd" d="M12.25 16C12.25 15.5858 12.5858 15.25 13 15.25H15C15.4142 15.25 15.75 15.5858 15.75 16C15.75 16.4142 15.4142 16.75 15 16.75H13C12.5858 16.75 12.25 16.4142 12.25 16Z" fill="#212529"/>
</svg>
