<svg width="24" height="24" viewBox="0 0 24 24" fill="none" xmlns="http://www.w3.org/2000/svg">
<path fill-rule="evenodd" clip-rule="evenodd" d="M15.7458 6.80053C14.443 5.76601 12.6037 5.42454 10.9294 5.93104C9.25791 6.43668 8.06292 7.68889 7.73175 9.16426C7.65489 9.50666 7.35088 9.75 6.99996 9.75C4.78415 9.75 3.04541 11.46 3.04541 13.5C3.04541 15.54 4.78415 17.25 6.99996 17.25C7.41417 17.25 7.74996 17.5858 7.74996 18C7.74996 18.4142 7.41417 18.75 6.99996 18.75C4.01926 18.75 1.54541 16.4306 1.54541 13.5C1.54541 10.7602 3.70764 8.55459 6.42479 8.27902C7.03541 6.48227 8.56163 5.08018 10.495 4.4953C12.6211 3.85214 14.975 4.27307 16.6786 5.62582C18.1382 6.78484 18.9393 8.48968 18.8555 10.25H19C21.3472 10.25 23.25 12.1528 23.25 14.5C23.25 16.8472 21.3472 18.75 19 18.75C18.5857 18.75 18.25 18.4142 18.25 18C18.25 17.5858 18.5857 17.25 19 17.25C20.5187 17.25 21.75 16.0188 21.75 14.5C21.75 12.9812 20.5187 11.75 19 11.75H18C17.7722 11.75 17.5568 11.6465 17.4144 11.4687C17.2721 11.2908 17.2183 11.058 17.2682 10.8357C17.5975 9.3684 17.0406 7.82865 15.7458 6.80053Z" fill="#212529"/>
<path fill-rule="evenodd" clip-rule="evenodd" d="M11 12.25C11.4142 12.25 11.75 12.5858 11.75 13V15C11.75 15.4142 11.4142 15.75 11 15.75C10.5858 15.75 10.25 15.4142 10.25 15V13C10.25 12.5858 10.5858 12.25 11 12.25ZM15 14.25C15.4142 14.25 15.75 14.5858 15.75 15V17C15.75 17.4142 15.4142 17.75 15 17.75C14.5858 17.75 14.25 17.4142 14.25 17V15C14.25 14.5858 14.5858 14.25 15 14.25ZM11 17.25C11.4142 17.25 11.75 17.5858 11.75 18V20C11.75 20.4142 11.4142 20.75 11 20.75C10.5858 20.75 10.25 20.4142 10.25 20V18C10.25 17.5858 10.5858 17.25 11 17.25ZM15 19.25C15.4142 19.25 15.75 19.5858 15.75 20V22C15.75 22.4142 15.4142 22.75 15 22.75C14.5858 22.75 14.25 22.4142 14.25 22V20C14.25 19.5858 14.5858 19.25 15 19.25Z" fill="#212529"/>
</svg>
