<svg width="24" height="24" viewBox="0 0 24 24" fill="none" xmlns="http://www.w3.org/2000/svg">
<path fill-rule="evenodd" clip-rule="evenodd" d="M6.25 9C6.25 6.92893 7.92893 5.25 10 5.25H14C14.0108 5.25 14.0216 5.25023 14.0324 5.2507C15.5623 5.31676 16.8983 6.30643 17.4074 7.7507C17.545 8.14136 17.34 8.56967 16.9493 8.70735C16.5586 8.84504 16.1303 8.63996 15.9926 8.2493C15.6889 7.38747 14.8943 6.79542 13.9827 6.75H10C8.75736 6.75 7.75 7.75736 7.75 9C7.75 10.2426 8.75736 11.25 10 11.25H14C16.0711 11.25 17.75 12.9289 17.75 15C17.75 17.0711 16.0711 18.75 14 18.75H10C9.98921 18.75 9.97842 18.7498 9.96765 18.7493C8.43772 18.6832 7.10167 17.6936 6.59265 16.2493C6.45496 15.8586 6.66004 15.4303 7.0507 15.2926C7.44136 15.155 7.86967 15.36 8.00735 15.7507C8.3111 16.6125 9.10567 17.2046 10.0173 17.25H14C15.2426 17.25 16.25 16.2426 16.25 15C16.25 13.7574 15.2426 12.75 14 12.75H10C7.92893 12.75 6.25 11.0711 6.25 9Z" fill="#212529"/>
<path fill-rule="evenodd" clip-rule="evenodd" d="M12 2.25C12.4142 2.25 12.75 2.58579 12.75 3V6C12.75 6.41421 12.4142 6.75 12 6.75C11.5858 6.75 11.25 6.41421 11.25 6V3C11.25 2.58579 11.5858 2.25 12 2.25ZM12 17.25C12.4142 17.25 12.75 17.5858 12.75 18V21C12.75 21.4142 12.4142 21.75 12 21.75C11.5858 21.75 11.25 21.4142 11.25 21V18C11.25 17.5858 11.5858 17.25 12 17.25Z" fill="#212529"/>
</svg>
