<svg width="24" height="24" viewBox="0 0 24 24" fill="none" xmlns="http://www.w3.org/2000/svg">
<path fill-rule="evenodd" clip-rule="evenodd" d="M15.5303 8.46967C15.8232 8.76256 15.8232 9.23744 15.5303 9.53033L9.53033 15.5303C9.23744 15.8232 8.76256 15.8232 8.46967 15.5303C8.17678 15.2374 8.17678 14.7626 8.46967 14.4697L14.4697 8.46967C14.7626 8.17678 15.2374 8.17678 15.5303 8.46967Z" fill="#212529"/>
<path d="M10 9.5C10 9.77614 9.77614 10 9.5 10C9.22386 10 9 9.77614 9 9.5C9 9.22386 9.22386 9 9.5 9C9.77614 9 10 9.22386 10 9.5Z" fill="#212529"/>
<path fill-rule="evenodd" clip-rule="evenodd" d="M9.5 9.75C9.63807 9.75 9.75 9.63807 9.75 9.5C9.75 9.36193 9.63807 9.25 9.5 9.25C9.36193 9.25 9.25 9.36193 9.25 9.5C9.25 9.63807 9.36193 9.75 9.5 9.75ZM8.25 9.5C8.25 8.80964 8.80964 8.25 9.5 8.25C10.1904 8.25 10.75 8.80964 10.75 9.5C10.75 10.1904 10.1904 10.75 9.5 10.75C8.80964 10.75 8.25 10.1904 8.25 9.5Z" fill="#212529"/>
<path d="M15 14.5C15 14.7761 14.7761 15 14.5 15C14.2239 15 14 14.7761 14 14.5C14 14.2239 14.2239 14 14.5 14C14.7761 14 15 14.2239 15 14.5Z" fill="#212529"/>
<path fill-rule="evenodd" clip-rule="evenodd" d="M14.5 14.75C14.6381 14.75 14.75 14.6381 14.75 14.5C14.75 14.3619 14.6381 14.25 14.5 14.25C14.3619 14.25 14.25 14.3619 14.25 14.5C14.25 14.6381 14.3619 14.75 14.5 14.75ZM13.25 14.5C13.25 13.8096 13.8096 13.25 14.5 13.25C15.1904 13.25 15.75 13.8096 15.75 14.5C15.75 15.1904 15.1904 15.75 14.5 15.75C13.8096 15.75 13.25 15.1904 13.25 14.5Z" fill="#212529"/>
<path fill-rule="evenodd" clip-rule="evenodd" d="M12.01 3.76123C11.624 3.76123 11.254 3.91512 10.9818 4.18881L10.9803 4.1903L10.2803 4.8903L10.2788 4.89179C9.72648 5.44103 8.97933 5.74953 8.2004 5.74997H7.19997C6.39916 5.74997 5.74997 6.39916 5.74997 7.19997V8.19997C5.74953 8.97891 5.44103 9.72648 4.89179 10.2788L4.8903 10.2803L4.1903 10.9803L4.18881 10.9818C3.91512 11.254 3.76123 11.624 3.76123 12.01C3.76123 12.3959 3.91512 12.766 4.18881 13.0382L4.1903 13.0396L4.89179 13.7411C5.44103 14.2935 5.74953 15.0406 5.74997 15.8195V16.82C5.74997 17.6208 6.39916 18.27 7.19997 18.27H8.19997C8.97891 18.2704 9.72648 18.5789 10.2788 19.1282L10.2803 19.1296L10.9818 19.8311C11.2539 20.1048 11.624 20.2587 12.01 20.2587C12.396 20.2587 12.766 20.1048 13.0382 19.8311L13.0396 19.8296L13.7396 19.1296L13.7411 19.1282C14.2935 18.5789 15.0406 18.2704 15.8195 18.27H16.82C17.6208 18.27 18.27 17.6208 18.27 16.82V15.82C18.2704 15.041 18.5789 14.2935 19.1282 13.7411L19.1296 13.7396L19.8296 13.0396L19.8311 13.0382C20.1048 12.766 20.2587 12.396 20.2587 12.01C20.2587 11.624 20.1048 11.2539 19.8311 10.9818L19.8296 10.9803L19.1296 10.2803L19.1282 10.2788C18.5789 9.72648 18.2704 8.97933 18.27 8.2004V7.19997C18.27 6.39916 17.6208 5.74997 16.82 5.74997H15.82C15.041 5.74953 14.2935 5.44103 13.7411 4.89179L13.7396 4.8903L13.0396 4.1903L13.0382 4.18881C12.766 3.91512 12.3959 3.76123 12.01 3.76123ZM4.24997 7.19997C4.24997 5.57073 5.57073 4.24997 7.19997 4.24997L8.19954 4.24997C8.19961 4.24997 8.19948 4.24997 8.19954 4.24997C8.582 4.24971 8.94904 4.09835 9.22041 3.82888C9.22065 3.82864 9.22089 3.8284 9.22114 3.82815L9.91815 3.13114C9.91842 3.13087 9.91868 3.1306 9.91895 3.13034C10.4726 2.57402 11.2251 2.26123 12.01 2.26123C12.7949 2.26123 13.5475 2.57407 14.1011 3.13047C14.1014 3.13069 14.1009 3.13025 14.1011 3.13047L14.7988 3.82815C14.799 3.82834 14.7986 3.82797 14.7988 3.82815C15.0702 4.09773 15.4377 4.2497 15.8202 4.24997C15.8203 4.24997 15.8202 4.24997 15.8202 4.24997H16.82C18.4492 4.24997 19.77 5.57073 19.77 7.19997V8.19954C19.7702 8.58206 19.9215 8.94897 20.191 9.22038C20.1913 9.22063 20.1915 9.22088 20.1918 9.22114L20.8888 9.91815C20.8892 9.91849 20.8895 9.91883 20.8898 9.91917C21.446 10.4728 21.7587 11.2252 21.7587 12.01C21.7587 12.7947 21.4461 13.5471 20.8899 14.1007C20.8896 14.101 20.8892 14.1014 20.8888 14.1018L20.1918 14.7988C20.1915 14.7991 20.1913 14.7993 20.191 14.7996C19.9215 15.071 19.7702 15.4379 19.77 15.8204V16.82C19.77 18.4492 18.4492 19.77 16.82 19.77H15.8204C15.4379 19.7702 15.071 19.9215 14.7996 20.191C14.7993 20.1913 14.7991 20.1915 14.7988 20.1918L14.1018 20.8888C14.1014 20.8892 14.101 20.8896 14.1007 20.8899C13.5471 21.4461 12.7947 21.7587 12.01 21.7587C11.2252 21.7587 10.4728 21.446 9.91917 20.8898C9.91883 20.8895 9.91849 20.8892 9.91815 20.8888L9.22114 20.1918C9.22088 20.1915 9.22063 20.1913 9.22038 20.191C8.94897 19.9215 8.58206 19.7702 8.19954 19.77H7.19997C5.57073 19.77 4.24997 18.4492 4.24997 16.82L4.24997 15.8204C4.24997 15.8203 4.24997 15.8205 4.24997 15.8204C4.2497 15.4379 4.09828 15.0708 3.82871 14.7994C3.82853 14.7992 3.8289 14.7996 3.82871 14.7994L3.13114 14.1018C3.13091 14.1016 3.13136 14.102 3.13114 14.1018C2.57473 13.5482 2.26123 12.7949 2.26123 12.01C2.26123 11.2251 2.57402 10.4726 3.13034 9.91895C3.1306 9.91868 3.13087 9.91842 3.13114 9.91815L3.82815 9.22114C3.8284 9.22089 3.82864 9.22065 3.82888 9.22041C4.09835 8.94904 4.2497 8.58219 4.24997 8.19973C4.24997 8.19967 4.24997 8.19979 4.24997 8.19973V7.19997Z" fill="#212529"/>
</svg>
