<svg width="24" height="24" viewBox="0 0 24 24" fill="none" xmlns="http://www.w3.org/2000/svg">
<path fill-rule="evenodd" clip-rule="evenodd" d="M12 10.75C11.3096 10.75 10.75 11.3096 10.75 12C10.75 12.6904 11.3096 13.25 12 13.25C12.6904 13.25 13.25 12.6904 13.25 12C13.25 11.3096 12.6904 10.75 12 10.75ZM9.25 12C9.25 10.4812 10.4812 9.25 12 9.25C13.5188 9.25 14.75 10.4812 14.75 12C14.75 13.5188 13.5188 14.75 12 14.75C10.4812 14.75 9.25 13.5188 9.25 12Z" fill="#212529"/>
<path fill-rule="evenodd" clip-rule="evenodd" d="M2.86829 12C5.41108 16.2677 8.46131 18.25 12 18.25C15.5387 18.25 18.5889 16.2677 21.1317 12C18.5889 7.73232 15.5387 5.75 12 5.75C8.46131 5.75 5.41108 7.73232 2.86829 12ZM22.6441 11.6155C19.8968 6.81417 16.3563 4.25 12 4.25C7.63999 4.25 4.09715 6.81857 1.34883 11.6279C1.21706 11.8585 1.21706 12.1415 1.34883 12.3721C4.09715 17.1814 7.63999 19.75 12 19.75C16.3563 19.75 19.8968 17.1858 22.6441 12.3845C22.7133 12.2683 22.75 12.1352 22.7501 12C22.75 11.8648 22.7133 11.7317 22.6441 11.6155Z" fill="#212529"/>
</svg>
