<svg width="24" height="24" viewBox="0 0 24 24" fill="none" xmlns="http://www.w3.org/2000/svg">
<path fill-rule="evenodd" clip-rule="evenodd" d="M5.23024 4.29998C4.72988 4.48287 4.3396 4.88401 4.17087 5.39021C3.99971 5.90369 4.07578 6.46747 4.37691 6.91722C4.39748 6.94795 4.42029 6.97711 4.44516 7.00446L9.25012 12.2899V16C9.25012 16.236 9.36126 16.4583 9.55012 16.6L13.5501 19.6C13.7774 19.7704 14.0814 19.7978 14.3355 19.6708C14.5896 19.5437 14.7501 19.284 14.7501 19V12.2899L19.5551 7.00446C19.5799 6.97711 19.6028 6.94795 19.6233 6.91722C19.9245 6.46747 20.0005 5.90369 19.8294 5.39021C19.6582 4.87673 19.2591 4.47135 18.7483 4.29222C18.6686 4.26425 18.5846 4.24996 18.5001 4.24996H5.51757C5.47013 4.24885 5.42214 4.25226 5.37421 4.26048C5.32438 4.26891 5.27622 4.28224 5.23024 4.29998ZM5.67295 5.74996C5.63672 5.77954 5.60905 5.81908 5.59389 5.86455C5.57339 5.92606 5.57772 5.99262 5.60501 6.05039L10.5551 11.4955C10.6806 11.6335 10.7501 11.8134 10.7501 12V15.625L13.2501 17.5V12C13.2501 11.8134 13.3197 11.6335 13.4452 11.4955L18.3952 6.05039C18.4225 5.99262 18.4268 5.92606 18.4063 5.86455C18.3912 5.81908 18.3635 5.77954 18.3273 5.74996H5.67295Z" fill="#212529"/>
</svg>
