<svg width="24" height="24" viewBox="0 0 24 24" fill="none" xmlns="http://www.w3.org/2000/svg">
<path fill-rule="evenodd" clip-rule="evenodd" d="M18.513 6.35764C18.8678 6.14388 19.3287 6.25821 19.5424 6.613C20.5245 8.24296 20.9482 10.1483 20.75 12.0401V13.0001C20.749 13.9213 20.9904 14.8275 21.45 15.6259C21.6567 15.9849 21.5332 16.4434 21.1742 16.6501C20.8152 16.8567 20.3567 16.7332 20.15 16.3742C19.5592 15.3478 19.2488 14.184 19.25 12.9997C19.25 12.9995 19.25 12.9998 19.25 12.9997V12.0001C19.25 11.9728 19.2515 11.9455 19.2545 11.9184C19.4275 10.3395 19.0773 8.74755 18.2576 7.3871C18.0438 7.03231 18.1582 6.5714 18.513 6.35764Z" fill="#212529"/>
<path fill-rule="evenodd" clip-rule="evenodd" d="M12 7.75C10.2051 7.75 8.75 9.20507 8.75 11C8.75 11.4142 8.41421 11.75 8 11.75C7.58579 11.75 7.25 11.4142 7.25 11C7.25 8.37665 9.37665 6.25 12 6.25C14.6234 6.25 16.75 8.37665 16.75 11V12C16.75 14.0014 17.3991 15.9489 18.6 17.55C18.8485 17.8814 18.7814 18.3515 18.45 18.6C18.1186 18.8485 17.6485 18.7814 17.4 18.45C16.0044 16.5892 15.25 14.326 15.25 12V11C15.25 9.20507 13.7949 7.75 12 7.75Z" fill="#212529"/>
<path fill-rule="evenodd" clip-rule="evenodd" d="M12 10.25C12.4142 10.25 12.75 10.5858 12.75 11V13C12.747 15.7062 13.5727 18.3493 15.1161 20.5723C15.3523 20.9125 15.268 21.3798 14.9277 21.6161C14.5875 21.8523 14.1202 21.768 13.8839 21.4277C12.1659 18.9532 11.2467 16.012 11.25 12.9996C11.25 12.9995 11.25 12.9997 11.25 12.9996V11C11.25 10.5858 11.5858 10.25 12 10.25Z" fill="#212529"/>
<path fill-rule="evenodd" clip-rule="evenodd" d="M7.9126 14.2551C8.32401 14.2069 8.69657 14.5014 8.74474 14.9128C8.97925 16.9155 9.56308 18.8617 10.4697 20.6628C10.656 21.0328 10.507 21.4837 10.1371 21.6699C9.76707 21.8562 9.31616 21.7072 9.12992 21.3372C8.14442 19.3795 7.50982 17.2641 7.25492 15.0872C7.20674 14.6758 7.5012 14.3033 7.9126 14.2551Z" fill="#212529"/>
<path fill-rule="evenodd" clip-rule="evenodd" d="M15.6249 4.69954C13.3787 3.40268 10.6108 3.40455 8.36636 4.70447C6.12191 6.00438 4.74286 8.40428 4.74993 10.998L4.74994 11L4.74994 12C4.74994 12.0083 4.7498 12.0166 4.74952 12.0249C4.67354 14.3108 4.96709 16.594 5.61884 18.7863C5.73688 19.1833 5.5107 19.6009 5.11366 19.7189C4.71662 19.837 4.29907 19.6108 4.18103 19.2137C3.48447 16.8707 3.17008 14.4307 3.24994 11.9877V11.001C3.24178 7.87109 4.90608 4.97514 7.6146 3.40645C10.3234 1.83759 13.664 1.83532 16.3749 3.40051C16.7337 3.60762 16.8566 4.06631 16.6495 4.42503C16.4423 4.78375 15.9837 4.90665 15.6249 4.69954Z" fill="#212529"/>
</svg>
