<svg width="24" height="24" viewBox="0 0 24 24" fill="none" xmlns="http://www.w3.org/2000/svg">
<path fill-rule="evenodd" clip-rule="evenodd" d="M2.25 9C2.25 8.0335 3.0335 7.25 4 7.25H20C20.9665 7.25 21.75 8.0335 21.75 9V11C21.75 11.9665 20.9665 12.75 20 12.75H4C3.0335 12.75 2.25 11.9665 2.25 11V9ZM4 8.75C3.86193 8.75 3.75 8.86193 3.75 9V11C3.75 11.1381 3.86193 11.25 4 11.25H20C20.1381 11.25 20.25 11.1381 20.25 11V9C20.25 8.86193 20.1381 8.75 20 8.75H4Z" fill="#212529"/>
<path fill-rule="evenodd" clip-rule="evenodd" d="M12 7.25C12.4142 7.25 12.75 7.58579 12.75 8V21C12.75 21.4142 12.4142 21.75 12 21.75C11.5858 21.75 11.25 21.4142 11.25 21V8C11.25 7.58579 11.5858 7.25 12 7.25Z" fill="#212529"/>
<path fill-rule="evenodd" clip-rule="evenodd" d="M5 11.25C5.41421 11.25 5.75 11.5858 5.75 12V19C5.75 19.6904 6.30964 20.25 7 20.25H17C17.6904 20.25 18.25 19.6904 18.25 19V12C18.25 11.5858 18.5858 11.25 19 11.25C19.4142 11.25 19.75 11.5858 19.75 12V19C19.75 20.5188 18.5188 21.75 17 21.75H7C5.48122 21.75 4.25 20.5188 4.25 19V12C4.25 11.5858 4.58579 11.25 5 11.25Z" fill="#212529"/>
<path fill-rule="evenodd" clip-rule="evenodd" d="M9.65527 4.84489C8.97259 4.08636 8.22697 3.73745 7.51307 3.74989L7.5 3.75012V3.75C6.5335 3.75 5.75 4.53351 5.75 5.5C5.75 6.4665 6.5335 7.25 7.5 7.25C7.91421 7.25 8.25 7.58579 8.25 8C8.25 8.41422 7.91421 8.75 7.5 8.75C5.70507 8.75 4.25 7.29493 4.25 5.5C4.25 3.70727 5.70152 2.25356 7.49342 2.25001C8.75115 2.23031 9.88303 2.85569 10.7702 3.84144C11.2433 4.36705 11.6572 5.00465 12 5.73038C12.3428 5.00465 12.7567 4.36705 13.2298 3.84144C14.117 2.85569 15.2489 2.23031 16.5066 2.25001C18.2985 2.25356 19.75 3.70727 19.75 5.5C19.75 7.29493 18.2949 8.75 16.5 8.75C16.0858 8.75 15.75 8.41422 15.75 8C15.75 7.58579 16.0858 7.25 16.5 7.25C17.4665 7.25 18.25 6.4665 18.25 5.5C18.25 4.53351 17.4665 3.75 16.5 3.75H16.4869L16.4869 3.74989C15.773 3.73745 15.0274 4.08636 14.3447 4.84489C13.6606 5.60508 13.0769 6.74263 12.7288 8.17687C12.6472 8.5132 12.3461 8.75 12 8.75C11.6539 8.75 11.3528 8.5132 11.2712 8.17687C10.9231 6.74263 10.3394 5.60508 9.65527 4.84489Z" fill="#212529"/>
</svg>
