<svg width="24" height="24" viewBox="0 0 24 24" fill="none" xmlns="http://www.w3.org/2000/svg">
<path fill-rule="evenodd" clip-rule="evenodd" d="M12 3.75C7.44365 3.75 3.75 7.44365 3.75 12C3.75 16.5563 7.44365 20.25 12 20.25C16.5563 20.25 20.25 16.5563 20.25 12C20.25 7.44365 16.5563 3.75 12 3.75ZM2.25 12C2.25 6.61522 6.61522 2.25 12 2.25C17.3848 2.25 21.75 6.61522 21.75 12C21.75 17.3848 17.3848 21.75 12 21.75C6.61522 21.75 2.25 17.3848 2.25 12Z" fill="#212529"/>
<path fill-rule="evenodd" clip-rule="evenodd" d="M12 16.25C12.4142 16.25 12.75 16.5858 12.75 17V17.01C12.75 17.4242 12.4142 17.76 12 17.76C11.5858 17.76 11.25 17.4242 11.25 17.01V17C11.25 16.5858 11.5858 16.25 12 16.25Z" fill="#212529"/>
<path fill-rule="evenodd" clip-rule="evenodd" d="M9.40255 7.54668C10.2619 6.41398 11.7427 5.94715 13.0963 6.38217C14.4499 6.81719 15.3815 8.05928 15.4201 9.48056C15.4587 10.9018 14.5959 12.1927 13.2679 12.7005L13.2488 12.7075C12.9338 12.8183 12.7299 13.1241 12.7488 13.4575C12.7723 13.8711 12.4561 14.2253 12.0425 14.2488C11.629 14.2723 11.2747 13.956 11.2512 13.5425C11.1947 12.5462 11.8012 11.6322 12.7399 11.2965C13.4689 11.014 13.9419 10.3034 13.9207 9.52129C13.8994 8.7364 13.3849 8.05047 12.6374 7.81023C11.8899 7.57 11.0721 7.8278 10.5975 8.45332C10.3472 8.78331 9.87671 8.84786 9.54672 8.5975C9.21673 8.34713 9.15218 7.87667 9.40255 7.54668Z" fill="#212529"/>
</svg>
