<svg width="24" height="24" viewBox="0 0 24 24" fill="none" xmlns="http://www.w3.org/2000/svg">
<path fill-rule="evenodd" clip-rule="evenodd" d="M2.25 7C2.25 5.48122 3.48122 4.25 5 4.25H19C20.5188 4.25 21.75 5.48122 21.75 7V17C21.75 18.5188 20.5188 19.75 19 19.75H5C3.48122 19.75 2.25 18.5188 2.25 17V7ZM5 5.75C4.30964 5.75 3.75 6.30964 3.75 7V17C3.75 17.6904 4.30964 18.25 5 18.25H19C19.6904 18.25 20.25 17.6904 20.25 17V7C20.25 6.30964 19.6904 5.75 19 5.75H5Z" fill="#212529"/>
<path fill-rule="evenodd" clip-rule="evenodd" d="M2.37604 6.58393C2.60581 6.23929 3.07146 6.14616 3.4161 6.37592L12.0001 12.0986L20.5841 6.37592C20.9287 6.14616 21.3944 6.23929 21.6241 6.58393C21.8539 6.92858 21.7608 7.39423 21.4161 7.624L12.4161 13.624C12.1642 13.7919 11.836 13.7919 11.5841 13.624L2.58405 7.624C2.23941 7.39423 2.14628 6.92858 2.37604 6.58393Z" fill="#212529"/>
</svg>
