<svg width="24" height="24" viewBox="0 0 24 24" fill="none" xmlns="http://www.w3.org/2000/svg">
<path fill-rule="evenodd" clip-rule="evenodd" d="M12 8.75C10.7574 8.75 9.75 9.75736 9.75 11C9.75 12.2426 10.7574 13.25 12 13.25C13.2426 13.25 14.25 12.2426 14.25 11C14.25 9.75736 13.2426 8.75 12 8.75ZM8.25 11C8.25 8.92893 9.92893 7.25 12 7.25C14.0711 7.25 15.75 8.92893 15.75 11C15.75 13.0711 14.0711 14.75 12 14.75C9.92893 14.75 8.25 13.0711 8.25 11Z" fill="#212529"/>
<path fill-rule="evenodd" clip-rule="evenodd" d="M17.1265 5.87368C14.2952 3.04243 9.70481 3.04243 6.87352 5.87368C4.04225 8.70489 4.04215 13.2952 6.87327 16.1266C6.87329 16.1266 6.87324 16.1265 6.87327 16.1266L11.1171 20.3694C11.6051 20.8569 12.3959 20.8569 12.8839 20.3694L17.1267 16.1266C19.9578 13.2953 19.9578 8.70492 17.1265 5.87368ZM18.1873 17.1873C21.6043 13.7701 21.6042 8.23002 18.1871 4.81301C14.7701 1.39599 9.22994 1.39599 5.81287 4.81301C2.39579 8.23002 2.3957 13.7701 5.81266 17.1873L10.0567 21.4303C11.1304 22.503 12.8703 22.5032 13.9441 21.4305L18.1873 17.1873Z" fill="#212529"/>
</svg>
