<svg width="24" height="24" viewBox="0 0 24 24" fill="none" xmlns="http://www.w3.org/2000/svg">
<path fill-rule="evenodd" clip-rule="evenodd" d="M8.25 5C8.25 2.92893 9.92893 1.25 12 1.25C14.0711 1.25 15.75 2.92893 15.75 5V10C15.75 12.0711 14.0711 13.75 12 13.75C9.92893 13.75 8.25 12.0711 8.25 10V5ZM12 2.75C10.7574 2.75 9.75 3.75736 9.75 5V10C9.75 11.2426 10.7574 12.25 12 12.25C13.2426 12.25 14.25 11.2426 14.25 10V5C14.25 3.75736 13.2426 2.75 12 2.75Z" fill="#212529"/>
<path fill-rule="evenodd" clip-rule="evenodd" d="M5 9.25C5.41421 9.25 5.75 9.58579 5.75 10C5.75 13.4518 8.54822 16.25 12 16.25C15.4518 16.25 18.25 13.4518 18.25 10C18.25 9.58579 18.5858 9.25 19 9.25C19.4142 9.25 19.75 9.58579 19.75 10C19.75 14.2802 16.2802 17.75 12 17.75C7.71979 17.75 4.25 14.2802 4.25 10C4.25 9.58579 4.58579 9.25 5 9.25Z" fill="#212529"/>
<path fill-rule="evenodd" clip-rule="evenodd" d="M7.25 21C7.25 20.5858 7.58579 20.25 8 20.25H16C16.4142 20.25 16.75 20.5858 16.75 21C16.75 21.4142 16.4142 21.75 16 21.75H8C7.58579 21.75 7.25 21.4142 7.25 21Z" fill="#212529"/>
<path fill-rule="evenodd" clip-rule="evenodd" d="M12 16.25C12.4142 16.25 12.75 16.5858 12.75 17V21C12.75 21.4142 12.4142 21.75 12 21.75C11.5858 21.75 11.25 21.4142 11.25 21V17C11.25 16.5858 11.5858 16.25 12 16.25Z" fill="#212529"/>
</svg>
