<svg width="24" height="24" viewBox="0 0 24 24" fill="none" xmlns="http://www.w3.org/2000/svg">
<path fill-rule="evenodd" clip-rule="evenodd" d="M12 3.75C7.44365 3.75 3.75 7.44365 3.75 12C3.75 16.5563 7.44365 20.25 12 20.25C16.5563 20.25 20.25 16.5563 20.25 12C20.25 7.44365 16.5563 3.75 12 3.75ZM2.25 12C2.25 6.61522 6.61522 2.25 12 2.25C17.3848 2.25 21.75 6.61522 21.75 12C21.75 17.3848 17.3848 21.75 12 21.75C6.61522 21.75 2.25 17.3848 2.25 12Z" fill="#212529"/>
<path fill-rule="evenodd" clip-rule="evenodd" d="M6.46967 7.96967C6.76256 7.67678 7.23744 7.67678 7.53033 7.96967L10.5303 10.9697C10.8232 11.2626 10.8232 11.7374 10.5303 12.0303C10.2374 12.3232 9.76256 12.3232 9.46967 12.0303L6.46967 9.03033C6.17678 8.73744 6.17678 8.26256 6.46967 7.96967Z" fill="#212529"/>
<path fill-rule="evenodd" clip-rule="evenodd" d="M10.5303 7.96967C10.8232 8.26256 10.8232 8.73744 10.5303 9.03033L7.53033 12.0303C7.23744 12.3232 6.76256 12.3232 6.46967 12.0303C6.17678 11.7374 6.17678 11.2626 6.46967 10.9697L9.46967 7.96967C9.76256 7.67678 10.2374 7.67678 10.5303 7.96967Z" fill="#212529"/>
<path fill-rule="evenodd" clip-rule="evenodd" d="M13.4697 7.96967C13.7626 7.67678 14.2374 7.67678 14.5303 7.96967L17.5303 10.9697C17.8232 11.2626 17.8232 11.7374 17.5303 12.0303C17.2374 12.3232 16.7626 12.3232 16.4697 12.0303L13.4697 9.03033C13.1768 8.73744 13.1768 8.26256 13.4697 7.96967Z" fill="#212529"/>
<path fill-rule="evenodd" clip-rule="evenodd" d="M17.5303 7.96967C17.8232 8.26256 17.8232 8.73744 17.5303 9.03033L14.5303 12.0303C14.2374 12.3232 13.7626 12.3232 13.4697 12.0303C13.1768 11.7374 13.1768 11.2626 13.4697 10.9697L16.4697 7.96967C16.7626 7.67678 17.2374 7.67678 17.5303 7.96967Z" fill="#212529"/>
<path fill-rule="evenodd" clip-rule="evenodd" d="M8.97511 14.4643C9.27098 14.1744 9.74583 14.1792 10.0357 14.4751C10.553 15.003 11.2609 15.3005 12 15.3005C12.7391 15.3005 13.447 15.003 13.9643 14.4751C14.2542 14.1792 14.729 14.1744 15.0249 14.4643C15.3208 14.7542 15.3256 15.229 15.0357 15.5249C14.2363 16.3408 13.1422 16.8005 12 16.8005C10.8578 16.8005 9.76366 16.3408 8.96429 15.5249C8.6744 15.229 8.67924 14.7542 8.97511 14.4643Z" fill="#212529"/>
</svg>
