<svg width="24" height="24" viewBox="0 0 24 24" fill="none" xmlns="http://www.w3.org/2000/svg">
<path fill-rule="evenodd" clip-rule="evenodd" d="M5 13.75C3.75736 13.75 2.75 14.7574 2.75 16C2.75 17.2426 3.75736 18.25 5 18.25C6.24264 18.25 7.25 17.2426 7.25 16C7.25 14.7574 6.24264 13.75 5 13.75ZM1.25 16C1.25 13.9289 2.92893 12.25 5 12.25C7.07107 12.25 8.75 13.9289 8.75 16C8.75 18.0711 7.07107 19.75 5 19.75C2.92893 19.75 1.25 18.0711 1.25 16Z" fill="#212529"/>
<path fill-rule="evenodd" clip-rule="evenodd" d="M19 13.75C17.7574 13.75 16.75 14.7574 16.75 16C16.75 17.2426 17.7574 18.25 19 18.25C20.2426 18.25 21.25 17.2426 21.25 16C21.25 14.7574 20.2426 13.75 19 13.75ZM15.25 16C15.25 13.9289 16.9289 12.25 19 12.25C21.0711 12.25 22.75 13.9289 22.75 16C22.75 18.0711 21.0711 19.75 19 19.75C16.9289 19.75 15.25 18.0711 15.25 16Z" fill="#212529"/>
<path fill-rule="evenodd" clip-rule="evenodd" d="M5.25 10C5.25 9.58579 5.58579 9.25 6 9.25H16.5C16.8033 9.25 17.0768 9.43273 17.1929 9.71299C17.309 9.99324 17.2448 10.3158 17.0303 10.5303L13.0303 14.5303C12.8897 14.671 12.6989 14.75 12.5 14.75H7.5C7.39831 14.75 7.30134 14.7298 7.21291 14.6931C7.12445 14.6565 7.04158 14.6022 6.96967 14.5303C6.89776 14.4584 6.84351 14.3755 6.80691 14.2871C6.77024 14.1987 6.75 14.1017 6.75 14C6.75 13.8983 6.77024 13.8013 6.80691 13.7129C6.84351 13.6245 6.89776 13.5416 6.96967 13.4697L9.68934 10.75H6C5.58579 10.75 5.25 10.4142 5.25 10ZM11.8107 10.75L9.31066 13.25H12.1893L14.6893 10.75H11.8107Z" fill="#212529"/>
<path fill-rule="evenodd" clip-rule="evenodd" d="M12.25 6C12.25 5.58579 12.5858 5.25 13 5.25H15C15.2841 5.25 15.5438 5.4105 15.6708 5.66459L19.1708 12.6646C19.3561 13.0351 19.2059 13.4856 18.8354 13.6708C18.4649 13.8561 18.0144 13.7059 17.8292 13.3354L14.5365 6.75H13C12.5858 6.75 12.25 6.41421 12.25 6Z" fill="#212529"/>
</svg>
