<svg width="24" height="24" viewBox="0 0 24 24" fill="none" xmlns="http://www.w3.org/2000/svg">
<path fill-rule="evenodd" clip-rule="evenodd" d="M13.9697 4.96973C15.3671 3.57227 17.6329 3.57227 19.0303 4.96973C20.4278 6.36719 20.4278 8.63293 19.0303 10.0304L8.53033 20.5304C8.38968 20.671 8.19891 20.7501 8 20.7501H4C3.58579 20.7501 3.25 20.4143 3.25 20.0001V16.0001C3.25 15.8011 3.32902 15.6104 3.46967 15.4697L13.9697 4.96973ZM4.75 19.2501H7.68934L17.9697 8.96973C18.7813 8.15805 18.7813 6.84206 17.9697 6.03039C17.158 5.21871 15.842 5.21871 15.0303 6.03039L4.75 16.3107V19.2501Z" fill="#212529"/>
<path fill-rule="evenodd" clip-rule="evenodd" d="M12.9697 5.96967C13.2626 5.67678 13.7374 5.67678 14.0303 5.96967L18.0303 9.96967C18.3232 10.2626 18.3232 10.7374 18.0303 11.0303C17.7374 11.3232 17.2626 11.3232 16.9697 11.0303L12.9697 7.03033C12.6768 6.73744 12.6768 6.26256 12.9697 5.96967Z" fill="#212529"/>
</svg>
