<svg width="24" height="24" viewBox="0 0 24 24" fill="none" xmlns="http://www.w3.org/2000/svg">
<path fill-rule="evenodd" clip-rule="evenodd" d="M7.57297 5.51615C7.8402 5.83262 7.80028 6.30582 7.4838 6.57305C5.23842 8.46906 4.41639 11.5657 5.42581 14.3257C6.43522 17.0857 9.06112 18.9214 11.9999 18.9214C14.9387 18.9214 17.5646 17.0857 18.5741 14.3257C19.5835 11.5657 18.7614 8.46906 16.5161 6.57305C16.1996 6.30582 16.1597 5.83262 16.4269 5.51615C16.6941 5.19967 17.1673 5.15975 17.4838 5.42698C20.2103 7.72927 21.2085 11.4895 19.9828 14.8409C18.7571 18.1924 15.5685 20.4214 11.9999 20.4214C8.43138 20.4214 5.24278 18.1924 4.01707 14.8409C2.79135 11.4895 3.78952 7.72927 6.51606 5.42698C6.83254 5.15975 7.30573 5.19967 7.57297 5.51615Z" fill="#212529"/>
<path fill-rule="evenodd" clip-rule="evenodd" d="M12 3.25C12.4142 3.25 12.75 3.58579 12.75 4V12C12.75 12.4142 12.4142 12.75 12 12.75C11.5858 12.75 11.25 12.4142 11.25 12V4C11.25 3.58579 11.5858 3.25 12 3.25Z" fill="#212529"/>
</svg>
