<svg width="24" height="24" viewBox="0 0 24 24" fill="none" xmlns="http://www.w3.org/2000/svg">
<path fill-rule="evenodd" clip-rule="evenodd" d="M4.75 7.0057C6.61089 4.37216 9.80888 2.91181 13.1096 3.33771C17.0672 3.84837 20.1936 6.94434 20.7429 10.8968C20.7999 11.307 20.5135 11.6858 20.1032 11.7429C19.693 11.7999 19.3142 11.5135 19.2571 11.1032C18.801 7.82072 16.2045 5.24948 12.9177 4.82538C10.0221 4.45176 7.22182 5.82593 5.7248 8.24999H8C8.41421 8.24999 8.75 8.58578 8.75 8.99999C8.75 9.41421 8.41421 9.74999 8 9.74999H4.51676C4.50541 9.75025 4.49403 9.75025 4.48263 9.74999H4C3.58579 9.74999 3.25 9.41421 3.25 8.99999V4.99999C3.25 4.58578 3.58579 4.24999 4 4.24999C4.41421 4.24999 4.75 4.58578 4.75 4.99999V7.0057Z" fill="#212529"/>
<path fill-rule="evenodd" clip-rule="evenodd" d="M3.89686 12.2571C4.30713 12.2001 4.68594 12.4865 4.74295 12.8967C5.19913 16.1792 7.79559 18.7505 11.0824 19.1746C13.978 19.5482 16.7783 18.174 18.2753 15.75H16.0001C15.5859 15.75 15.2501 15.4142 15.2501 15C15.2501 14.5858 15.5859 14.25 16.0001 14.25H19.4833C19.4947 14.2497 19.5061 14.2497 19.5175 14.25H20.0001C20.4143 14.25 20.7501 14.5858 20.7501 15V19C20.7501 19.4142 20.4143 19.75 20.0001 19.75C19.5859 19.75 19.2501 19.4142 19.2501 19V16.9943C17.3892 19.6278 14.1912 21.0882 10.8904 20.6623C6.93286 20.1516 3.8065 17.0556 3.25723 13.1032C3.20022 12.6929 3.48658 12.3141 3.89686 12.2571Z" fill="#212529"/>
</svg>
