<svg width="24" height="24" viewBox="0 0 24 24" fill="none" xmlns="http://www.w3.org/2000/svg">
<path fill-rule="evenodd" clip-rule="evenodd" d="M12.0037 4.78971C8.35564 4.7788 5.26766 7.48027 4.79353 11.0974C4.73969 11.5081 4.36311 11.7974 3.95241 11.7436C3.54171 11.6897 3.25242 11.3132 3.30625 10.9025C3.87847 6.53695 7.60536 3.27655 12.0082 3.28971C16.411 3.30288 20.1184 6.58551 20.6645 10.9544C21.2106 15.3232 18.4254 19.4174 14.1612 20.514C10.5577 21.4406 6.8465 19.9825 4.79989 17.0398V19.9999C4.79989 20.4142 4.4641 20.7499 4.04989 20.7499C3.63568 20.7499 3.29989 20.4142 3.29989 19.9999V14.9999C3.29989 14.5857 3.63568 14.2499 4.04989 14.2499H4.53241C4.54394 14.2497 4.55544 14.2497 4.56692 14.2499H9.04989C9.4641 14.2499 9.79989 14.5857 9.79989 14.9999C9.79989 15.4142 9.4641 15.7499 9.04989 15.7499H5.75252C7.37292 18.4754 10.6301 19.8732 13.7877 19.0612C17.3208 18.1527 19.6285 14.7603 19.1761 11.1404C18.7236 7.52051 15.6518 4.80061 12.0037 4.78971Z" fill="#212529"/>
</svg>
