<svg width="24" height="24" viewBox="0 0 24 24" fill="none" xmlns="http://www.w3.org/2000/svg">
<path fill-rule="evenodd" clip-rule="evenodd" d="M15.5303 9.46967C15.8232 9.76256 15.8232 10.2374 15.5303 10.5303L11.5303 14.5303C11.2374 14.8232 10.7626 14.8232 10.4697 14.5303L8.46967 12.5303C8.17678 12.2374 8.17678 11.7626 8.46967 11.4697C8.76256 11.1768 9.23744 11.1768 9.53033 11.4697L11 12.9393L14.4697 9.46967C14.7626 9.17678 15.2374 9.17678 15.5303 9.46967Z" fill="#212529"/>
<path fill-rule="evenodd" clip-rule="evenodd" d="M12.5042 2.44459C12.4488 2.39417 12.3874 2.35343 12.3223 2.3225C12.2203 2.27395 12.1101 2.24996 12.0001 2.25C11.8902 2.24996 11.7799 2.27395 11.678 2.32251C11.6128 2.35343 11.5514 2.39417 11.496 2.44459C9.3071 4.37789 6.45203 5.3843 3.53439 5.25079C3.18926 5.235 2.87799 5.45702 2.78055 5.78848C1.80683 9.10086 2.21804 12.6665 3.92019 15.6703C5.62233 18.6741 8.46986 20.8592 11.8118 21.726C11.9353 21.758 12.0649 21.758 12.1884 21.726C15.5304 20.8592 18.3779 18.6741 20.08 15.6703C21.7822 12.6665 22.1934 9.10086 21.2197 5.78848C21.1222 5.45702 20.811 5.235 20.4658 5.25079C17.5482 5.3843 14.6931 4.37789 12.5042 2.44459ZM12.0001 3.97936C9.74864 5.77569 6.95381 6.7572 4.07273 6.76254C3.41035 9.52595 3.81729 12.4462 5.22522 14.9308C6.69504 17.5246 9.13279 19.4265 12.0001 20.2234C14.8674 19.4265 17.3052 17.5246 18.775 14.9308C20.1829 12.4462 20.5899 9.52595 19.9275 6.76254C17.0464 6.7572 14.2516 5.77569 12.0001 3.97936Z" fill="#212529"/>
</svg>
