<svg width="24" height="24" viewBox="0 0 24 24" fill="none" xmlns="http://www.w3.org/2000/svg">
<path fill-rule="evenodd" clip-rule="evenodd" d="M12 3.75C7.44365 3.75 3.75 7.44365 3.75 12C3.75 16.5563 7.44365 20.25 12 20.25C16.5563 20.25 20.25 16.5563 20.25 12C20.25 7.44365 16.5563 3.75 12 3.75ZM2.25 12C2.25 6.61522 6.61522 2.25 12 2.25C17.3848 2.25 21.75 6.61522 21.75 12C21.75 17.3848 17.3848 21.75 12 21.75C6.61522 21.75 2.25 17.3848 2.25 12Z" fill="#212529"/>
<path fill-rule="evenodd" clip-rule="evenodd" d="M8.28845 10.2628C8.41943 9.86989 8.84417 9.65752 9.23713 9.78851L12 10.7095L14.7628 9.78851C15.1557 9.65752 15.5805 9.86989 15.7115 10.2628C15.8425 10.6558 15.6301 11.0805 15.2371 11.2115L12.75 12.0406V13.2729L14.624 16.084C14.8538 16.4286 14.7606 16.8943 14.416 17.1241C14.0713 17.3538 13.6057 17.2607 13.3759 16.916L12 14.8521L10.624 16.916C10.3942 17.2607 9.92858 17.3538 9.58393 17.1241C9.23929 16.8943 9.14616 16.4286 9.37592 16.084L11.25 13.2729V12.0406L8.76279 11.2115C8.36983 11.0805 8.15746 10.6558 8.28845 10.2628Z" fill="#212529"/>
<path d="M12.5 7.5C12.5 7.77614 12.2761 8 12 8C11.7239 8 11.5 7.77614 11.5 7.5C11.5 7.22386 11.7239 7 12 7C12.2761 7 12.5 7.22386 12.5 7.5Z" fill="#212529"/>
<path fill-rule="evenodd" clip-rule="evenodd" d="M12 7.75C12.1381 7.75 12.25 7.63807 12.25 7.5C12.25 7.36193 12.1381 7.25 12 7.25C11.8619 7.25 11.75 7.36193 11.75 7.5C11.75 7.63807 11.8619 7.75 12 7.75ZM10.75 7.5C10.75 6.80964 11.3096 6.25 12 6.25C12.6904 6.25 13.25 6.80964 13.25 7.5C13.25 8.19036 12.6904 8.75 12 8.75C11.3096 8.75 10.75 8.19036 10.75 7.5Z" fill="#212529"/>
</svg>
