<svg width="24" height="24" viewBox="0 0 24 24" fill="none" xmlns="http://www.w3.org/2000/svg">
<path fill-rule="evenodd" clip-rule="evenodd" d="M14 4.75C13.3096 4.75 12.75 5.30964 12.75 6C12.75 6.69036 13.3096 7.25 14 7.25C14.6904 7.25 15.25 6.69036 15.25 6C15.25 5.30964 14.6904 4.75 14 4.75ZM11.25 6C11.25 4.48122 12.4812 3.25 14 3.25C15.5188 3.25 16.75 4.48122 16.75 6C16.75 7.51878 15.5188 8.75 14 8.75C12.4812 8.75 11.25 7.51878 11.25 6Z" fill="#212529"/>
<path fill-rule="evenodd" clip-rule="evenodd" d="M3.25 6C3.25 5.58579 3.58579 5.25 4 5.25H12C12.4142 5.25 12.75 5.58579 12.75 6C12.75 6.41421 12.4142 6.75 12 6.75H4C3.58579 6.75 3.25 6.41421 3.25 6Z" fill="#212529"/>
<path fill-rule="evenodd" clip-rule="evenodd" d="M15.25 6C15.25 5.58579 15.5858 5.25 16 5.25H20C20.4142 5.25 20.75 5.58579 20.75 6C20.75 6.41421 20.4142 6.75 20 6.75H16C15.5858 6.75 15.25 6.41421 15.25 6Z" fill="#212529"/>
<path fill-rule="evenodd" clip-rule="evenodd" d="M8 10.75C7.30964 10.75 6.75 11.3096 6.75 12C6.75 12.6904 7.30964 13.25 8 13.25C8.69036 13.25 9.25 12.6904 9.25 12C9.25 11.3096 8.69036 10.75 8 10.75ZM5.25 12C5.25 10.4812 6.48122 9.25 8 9.25C9.51878 9.25 10.75 10.4812 10.75 12C10.75 13.5188 9.51878 14.75 8 14.75C6.48122 14.75 5.25 13.5188 5.25 12Z" fill="#212529"/>
<path fill-rule="evenodd" clip-rule="evenodd" d="M3.25 12C3.25 11.5858 3.58579 11.25 4 11.25H6C6.41421 11.25 6.75 11.5858 6.75 12C6.75 12.4142 6.41421 12.75 6 12.75H4C3.58579 12.75 3.25 12.4142 3.25 12Z" fill="#212529"/>
<path fill-rule="evenodd" clip-rule="evenodd" d="M9.25 12C9.25 11.5858 9.58579 11.25 10 11.25H20C20.4142 11.25 20.75 11.5858 20.75 12C20.75 12.4142 20.4142 12.75 20 12.75H10C9.58579 12.75 9.25 12.4142 9.25 12Z" fill="#212529"/>
<path fill-rule="evenodd" clip-rule="evenodd" d="M17 16.75C16.3096 16.75 15.75 17.3096 15.75 18C15.75 18.6904 16.3096 19.25 17 19.25C17.6904 19.25 18.25 18.6904 18.25 18C18.25 17.3096 17.6904 16.75 17 16.75ZM14.25 18C14.25 16.4812 15.4812 15.25 17 15.25C18.5188 15.25 19.75 16.4812 19.75 18C19.75 19.5188 18.5188 20.75 17 20.75C15.4812 20.75 14.25 19.5188 14.25 18Z" fill="#212529"/>
<path fill-rule="evenodd" clip-rule="evenodd" d="M3.25 18C3.25 17.5858 3.58579 17.25 4 17.25H15C15.4142 17.25 15.75 17.5858 15.75 18C15.75 18.4142 15.4142 18.75 15 18.75H4C3.58579 18.75 3.25 18.4142 3.25 18Z" fill="#212529"/>
<path fill-rule="evenodd" clip-rule="evenodd" d="M18.25 18C18.25 17.5858 18.5858 17.25 19 17.25H20C20.4142 17.25 20.75 17.5858 20.75 18C20.75 18.4142 20.4142 18.75 20 18.75H19C18.5858 18.75 18.25 18.4142 18.25 18Z" fill="#212529"/>
</svg>
