<svg width="24" height="24" viewBox="0 0 24 24" fill="none" xmlns="http://www.w3.org/2000/svg">
<path fill-rule="evenodd" clip-rule="evenodd" d="M6 8.75C5.30964 8.75 4.75 9.30964 4.75 10C4.75 10.6904 5.30964 11.25 6 11.25C6.69036 11.25 7.25 10.6904 7.25 10C7.25 9.30964 6.69036 8.75 6 8.75ZM3.25 10C3.25 8.48122 4.48122 7.25 6 7.25C7.51878 7.25 8.75 8.48122 8.75 10C8.75 11.5188 7.51878 12.75 6 12.75C4.48122 12.75 3.25 11.5188 3.25 10Z" fill="#212529"/>
<path fill-rule="evenodd" clip-rule="evenodd" d="M6 3.25C6.41421 3.25 6.75 3.58579 6.75 4V8C6.75 8.41421 6.41421 8.75 6 8.75C5.58579 8.75 5.25 8.41421 5.25 8V4C5.25 3.58579 5.58579 3.25 6 3.25Z" fill="#212529"/>
<path fill-rule="evenodd" clip-rule="evenodd" d="M6 11.25C6.41421 11.25 6.75 11.5858 6.75 12V20C6.75 20.4142 6.41421 20.75 6 20.75C5.58579 20.75 5.25 20.4142 5.25 20V12C5.25 11.5858 5.58579 11.25 6 11.25Z" fill="#212529"/>
<path fill-rule="evenodd" clip-rule="evenodd" d="M12 14.75C11.3096 14.75 10.75 15.3096 10.75 16C10.75 16.6904 11.3096 17.25 12 17.25C12.6904 17.25 13.25 16.6904 13.25 16C13.25 15.3096 12.6904 14.75 12 14.75ZM9.25 16C9.25 14.4812 10.4812 13.25 12 13.25C13.5188 13.25 14.75 14.4812 14.75 16C14.75 17.5188 13.5188 18.75 12 18.75C10.4812 18.75 9.25 17.5188 9.25 16Z" fill="#212529"/>
<path fill-rule="evenodd" clip-rule="evenodd" d="M12 3.25C12.4142 3.25 12.75 3.58579 12.75 4V14C12.75 14.4142 12.4142 14.75 12 14.75C11.5858 14.75 11.25 14.4142 11.25 14V4C11.25 3.58579 11.5858 3.25 12 3.25Z" fill="#212529"/>
<path fill-rule="evenodd" clip-rule="evenodd" d="M12 17.25C12.4142 17.25 12.75 17.5858 12.75 18V20C12.75 20.4142 12.4142 20.75 12 20.75C11.5858 20.75 11.25 20.4142 11.25 20V18C11.25 17.5858 11.5858 17.25 12 17.25Z" fill="#212529"/>
<path fill-rule="evenodd" clip-rule="evenodd" d="M18 5.75C17.3096 5.75 16.75 6.30964 16.75 7C16.75 7.69036 17.3096 8.25 18 8.25C18.6904 8.25 19.25 7.69036 19.25 7C19.25 6.30964 18.6904 5.75 18 5.75ZM15.25 7C15.25 5.48122 16.4812 4.25 18 4.25C19.5188 4.25 20.75 5.48122 20.75 7C20.75 8.51878 19.5188 9.75 18 9.75C16.4812 9.75 15.25 8.51878 15.25 7Z" fill="#212529"/>
<path fill-rule="evenodd" clip-rule="evenodd" d="M18 3.25C18.4142 3.25 18.75 3.58579 18.75 4V5C18.75 5.41421 18.4142 5.75 18 5.75C17.5858 5.75 17.25 5.41421 17.25 5V4C17.25 3.58579 17.5858 3.25 18 3.25Z" fill="#212529"/>
<path fill-rule="evenodd" clip-rule="evenodd" d="M18 8.25C18.4142 8.25 18.75 8.58579 18.75 9V20C18.75 20.4142 18.4142 20.75 18 20.75C17.5858 20.75 17.25 20.4142 17.25 20V9C17.25 8.58579 17.5858 8.25 18 8.25Z" fill="#212529"/>
</svg>
