<svg width="24" height="24" viewBox="0 0 24 24" fill="none" xmlns="http://www.w3.org/2000/svg">
<path fill-rule="evenodd" clip-rule="evenodd" d="M2.25 6C2.25 4.48122 3.48122 3.25 5 3.25H19C20.5188 3.25 21.75 4.48122 21.75 6C21.75 7.51878 20.5188 8.75 19 8.75H5C3.48122 8.75 2.25 7.51878 2.25 6ZM5 4.75C4.30964 4.75 3.75 5.30964 3.75 6C3.75 6.69036 4.30964 7.25 5 7.25H19C19.6904 7.25 20.25 6.69036 20.25 6C20.25 5.30964 19.6904 4.75 19 4.75H5Z" fill="#212529"/>
<path fill-rule="evenodd" clip-rule="evenodd" d="M5 7.25C5.41421 7.25 5.75 7.58579 5.75 8V18C5.75 18.6904 6.30964 19.25 7 19.25H17C17.6904 19.25 18.25 18.6904 18.25 18V8C18.25 7.58579 18.5858 7.25 19 7.25C19.4142 7.25 19.75 7.58579 19.75 8V18C19.75 19.5188 18.5188 20.75 17 20.75H7C5.48122 20.75 4.25 19.5188 4.25 18V8C4.25 7.58579 4.58579 7.25 5 7.25Z" fill="#212529"/>
<path fill-rule="evenodd" clip-rule="evenodd" d="M9.25 12C9.25 11.5858 9.58579 11.25 10 11.25H14C14.4142 11.25 14.75 11.5858 14.75 12C14.75 12.4142 14.4142 12.75 14 12.75H10C9.58579 12.75 9.25 12.4142 9.25 12Z" fill="#212529"/>
</svg>
