<svg width="24" height="24" viewBox="0 0 24 24" fill="none" xmlns="http://www.w3.org/2000/svg">
<path fill-rule="evenodd" clip-rule="evenodd" d="M2.25 7C2.25 6.58579 2.58579 6.25 3 6.25H21C21.4142 6.25 21.75 6.58579 21.75 7C21.75 7.41421 21.4142 7.75 21 7.75H3C2.58579 7.75 2.25 7.41421 2.25 7Z" fill="black"/>
<path fill-rule="evenodd" clip-rule="evenodd" d="M17.4697 3.46967C17.7626 3.17678 18.2374 3.17678 18.5303 3.46967L21.5303 6.46967C21.8232 6.76256 21.8232 7.23744 21.5303 7.53033L18.5303 10.5303C18.2374 10.8232 17.7626 10.8232 17.4697 10.5303C17.1768 10.2374 17.1768 9.76256 17.4697 9.46967L19.9393 7L17.4697 4.53033C17.1768 4.23744 17.1768 3.76256 17.4697 3.46967Z" fill="black"/>
<path fill-rule="evenodd" clip-rule="evenodd" d="M6.53033 13.4697C6.82322 13.7626 6.82322 14.2374 6.53033 14.5303L4.06066 17L6.53033 19.4697C6.82322 19.7626 6.82322 20.2374 6.53033 20.5303C6.23744 20.8232 5.76256 20.8232 5.46967 20.5303L2.46967 17.5303C2.17678 17.2374 2.17678 16.7626 2.46967 16.4697L5.46967 13.4697C5.76256 13.1768 6.23744 13.1768 6.53033 13.4697Z" fill="black"/>
<path fill-rule="evenodd" clip-rule="evenodd" d="M2.25 17C2.25 16.5858 2.58579 16.25 3 16.25H21C21.4142 16.25 21.75 16.5858 21.75 17C21.75 17.4142 21.4142 17.75 21 17.75H3C2.58579 17.75 2.25 17.4142 2.25 17Z" fill="black"/>
</svg>
