<svg width="24" height="24" viewBox="0 0 24 24" fill="none" xmlns="http://www.w3.org/2000/svg">
<path fill-rule="evenodd" clip-rule="evenodd" d="M17.5303 6.46967C17.8232 6.76256 17.8232 7.23744 17.5303 7.53033L7.53033 17.5303C7.23744 17.8232 6.76256 17.8232 6.46967 17.5303C6.17678 17.2374 6.17678 16.7626 6.46967 16.4697L16.4697 6.46967C16.7626 6.17678 17.2374 6.17678 17.5303 6.46967Z" fill="#212529"/>
<path fill-rule="evenodd" clip-rule="evenodd" d="M7 7.25C7.41421 7.25 7.75 7.58579 7.75 8V16.25H16C16.4142 16.25 16.75 16.5858 16.75 17C16.75 17.4142 16.4142 17.75 16 17.75H7C6.58579 17.75 6.25 17.4142 6.25 17V8C6.25 7.58579 6.58579 7.25 7 7.25Z" fill="#212529"/>
</svg>
