<svg width="24" height="24" viewBox="0 0 24 24" fill="none" xmlns="http://www.w3.org/2000/svg">
<path fill-rule="evenodd" clip-rule="evenodd" d="M6.46967 6.46967C6.76256 6.17678 7.23744 6.17678 7.53033 6.46967L17.5303 16.4697C17.8232 16.7626 17.8232 17.2374 17.5303 17.5303C17.2374 17.8232 16.7626 17.8232 16.4697 17.5303L6.46967 7.53033C6.17678 7.23744 6.17678 6.76256 6.46967 6.46967Z" fill="#212529"/>
<path fill-rule="evenodd" clip-rule="evenodd" d="M17 7.25C17.4142 7.25 17.75 7.58579 17.75 8V17C17.75 17.4142 17.4142 17.75 17 17.75H8C7.58579 17.75 7.25 17.4142 7.25 17C7.25 16.5858 7.58579 16.25 8 16.25H16.25V8C16.25 7.58579 16.5858 7.25 17 7.25Z" fill="#212529"/>
</svg>
