<svg width="24" height="24" viewBox="0 0 24 24" fill="none" xmlns="http://www.w3.org/2000/svg">
<path fill-rule="evenodd" clip-rule="evenodd" d="M12 3.75C9.10051 3.75 6.75 6.10051 6.75 9C6.75 11.8995 9.10051 14.25 12 14.25C14.8995 14.25 17.25 11.8995 17.25 9C17.25 6.10051 14.8995 3.75 12 3.75ZM5.25 9C5.25 5.27208 8.27208 2.25 12 2.25C15.7279 2.25 18.75 5.27208 18.75 9C18.75 12.7279 15.7279 15.75 12 15.75C8.27208 15.75 5.25 12.7279 5.25 9Z" fill="#212529"/>
<path fill-rule="evenodd" clip-rule="evenodd" d="M11.6269 14.3538C11.9857 14.1467 12.4443 14.2696 12.6515 14.6283L15.3508 19.3037L16.3277 17.3278C16.4619 17.0564 16.7461 16.8923 17.0483 16.9118L19.2479 17.0537L16.5486 12.3783C16.3415 12.0196 16.4644 11.5609 16.8231 11.3538C17.1818 11.1467 17.6405 11.2696 17.8476 11.6283L21.2476 17.5173C21.3859 17.7569 21.3811 18.0531 21.2352 18.288C21.0893 18.523 20.8258 18.6586 20.5498 18.6408L17.4507 18.4409L16.0742 21.2247C15.9516 21.4727 15.7025 21.633 15.4261 21.6419C15.1496 21.6508 14.8907 21.5069 14.7524 21.2673L11.3524 15.3783C11.1453 15.0196 11.2682 14.5609 11.6269 14.3538Z" fill="#212529"/>
<path fill-rule="evenodd" clip-rule="evenodd" d="M7.17698 11.3538C7.5357 11.5609 7.65861 12.0196 7.4515 12.3783L4.7522 17.0537L6.95179 16.9118C7.25394 16.8923 7.53817 17.0564 7.67237 17.3278L8.64931 19.3037L11.3486 14.6283C11.5557 14.2696 12.0144 14.1467 12.3731 14.3538C12.7319 14.5609 12.8548 15.0196 12.6477 15.3783L9.24766 21.2673C9.10936 21.5069 8.85044 21.6508 8.57399 21.6419C8.29754 21.633 8.04842 21.4727 7.92583 21.2247L6.54937 18.4409L3.45025 18.6408C3.17423 18.6586 2.91082 18.523 2.76488 18.288C2.61894 18.0531 2.61417 17.7569 2.75247 17.5173L6.15247 11.6283C6.35957 11.2696 6.81827 11.1467 7.17698 11.3538Z" fill="#212529"/>
</svg>
