<svg width="24" height="24" viewBox="0 0 24 24" fill="none" xmlns="http://www.w3.org/2000/svg">
<path fill-rule="evenodd" clip-rule="evenodd" d="M11.25 6C11.25 5.58579 11.5858 5.25 12 5.25C13.5188 5.25 14.75 6.48122 14.75 8C14.75 8.41421 14.4142 8.75 14 8.75C13.5858 8.75 13.25 8.41421 13.25 8C13.25 7.30964 12.6904 6.75 12 6.75C11.5858 6.75 11.25 6.41421 11.25 6Z" fill="#212529"/>
<path fill-rule="evenodd" clip-rule="evenodd" d="M12 2.75C9.10051 2.75 6.75 5.10051 6.75 8C6.75 10.3576 7.38843 12.4583 8.3813 13.9477C9.37767 15.4424 10.6718 16.25 12 16.25C13.3282 16.25 14.6223 15.4424 15.6187 13.9477C16.6116 12.4583 17.25 10.3576 17.25 8C17.25 5.10051 14.8995 2.75 12 2.75ZM5.25 8C5.25 4.27208 8.27208 1.25 12 1.25C15.7279 1.25 18.75 4.27208 18.75 8C18.75 10.6124 18.0454 13.0117 16.8668 14.7798C15.6917 16.5426 13.9858 17.75 12 17.75C10.0142 17.75 8.30833 16.5426 7.1332 14.7798C5.95457 13.0117 5.25 10.6124 5.25 8Z" fill="#212529"/>
<path fill-rule="evenodd" clip-rule="evenodd" d="M12 16.25C12.4142 16.25 12.75 16.5858 12.75 17V18C12.75 19.5188 11.5188 20.75 10 20.75H7C6.30964 20.75 5.75 21.3096 5.75 22C5.75 22.4142 5.41421 22.75 5 22.75C4.58579 22.75 4.25 22.4142 4.25 22C4.25 20.4812 5.48122 19.25 7 19.25H10C10.6904 19.25 11.25 18.6904 11.25 18V17C11.25 16.5858 11.5858 16.25 12 16.25Z" fill="#212529"/>
</svg>
