<svg width="24" height="24" viewBox="0 0 24 24" fill="none" xmlns="http://www.w3.org/2000/svg">
<path fill-rule="evenodd" clip-rule="evenodd" d="M14 11.25C14.4142 11.25 14.75 11.5858 14.75 12V12.01C14.75 12.4242 14.4142 12.76 14 12.76C13.5858 12.76 13.25 12.4242 13.25 12.01V12C13.25 11.5858 13.5858 11.25 14 11.25Z" fill="#212529"/>
<path fill-rule="evenodd" clip-rule="evenodd" d="M10 11.25C10.4142 11.25 10.75 11.5858 10.75 12V12.01C10.75 12.4242 10.4142 12.76 10 12.76C9.58579 12.76 9.25 12.4242 9.25 12.01V12C9.25 11.5858 9.58579 11.25 10 11.25Z" fill="#212529"/>
<path fill-rule="evenodd" clip-rule="evenodd" d="M12 9.25C12.4142 9.25 12.75 9.58579 12.75 10V10.01C12.75 10.4242 12.4142 10.76 12 10.76C11.5858 10.76 11.25 10.4242 11.25 10.01V10C11.25 9.58579 11.5858 9.25 12 9.25Z" fill="#212529"/>
<path fill-rule="evenodd" clip-rule="evenodd" d="M12 13.25C12.4142 13.25 12.75 13.5858 12.75 14V14.01C12.75 14.4242 12.4142 14.76 12 14.76C11.5858 14.76 11.25 14.4242 11.25 14.01V14C11.25 13.5858 11.5858 13.25 12 13.25Z" fill="#212529"/>
<path fill-rule="evenodd" clip-rule="evenodd" d="M18.9697 5.03037C17.3296 3.39027 14.6705 3.39027 13.0304 5.03037L5.03037 13.0304C3.39027 14.6705 3.39027 17.3296 5.03037 18.9697C6.67047 20.6098 9.32961 20.6098 10.9697 18.9697L18.9697 10.9697C20.6098 9.32961 20.6098 6.67047 18.9697 5.03037ZM3.96971 11.9697C1.74382 14.1956 1.74382 17.8045 3.96971 20.0304C6.1956 22.2563 9.80448 22.2563 12.0304 20.0304L20.0304 12.0304C22.2563 9.80448 22.2563 6.1956 20.0304 3.96971C17.8045 1.74382 14.1956 1.74382 11.9697 3.96971L3.96971 11.9697Z" fill="#212529"/>
</svg>
