<svg width="24" height="24" viewBox="0 0 24 24" fill="none" xmlns="http://www.w3.org/2000/svg">
<path fill-rule="evenodd" clip-rule="evenodd" d="M6.41672 16.2196C9.63847 12.9982 14.8616 12.9982 18.0833 16.2196C18.3762 16.5125 18.3763 16.9874 18.0834 17.2803C17.7905 17.5732 17.3156 17.5732 17.0227 17.2803C14.3867 14.6447 10.1133 14.6447 7.47732 17.2803C7.18441 17.5732 6.70954 17.5732 6.41666 17.2803C6.12378 16.9874 6.12381 16.5125 6.41672 16.2196Z" fill="#212529"/>
<path fill-rule="evenodd" clip-rule="evenodd" d="M9.15457 5.62495C11.0186 2.39664 15.1467 1.29057 18.3751 3.15445L18 3.80419L18.3751 3.15446C21.6034 5.01848 22.7095 9.14657 20.8456 12.375C20.7461 12.5472 20.5823 12.6729 20.3902 12.7244C20.1981 12.7759 19.9933 12.7489 19.8211 12.6495L9.42907 6.64948C9.25681 6.55002 9.13111 6.38621 9.07963 6.19407C9.02815 6.00193 9.05511 5.79721 9.15457 5.62495ZM10.8747 5.75206L19.8755 10.9489C20.8324 8.56361 19.9154 5.77593 17.6251 4.45348C15.3346 3.13112 12.462 3.73079 10.8747 5.75206Z" fill="#212529"/>
<path fill-rule="evenodd" clip-rule="evenodd" d="M16.812 3.1266C17.2721 2.94296 17.8514 2.85244 18.3748 3.15435C18.8984 3.45637 19.1099 4.00335 19.1811 4.49371C19.2538 4.99467 19.2054 5.57731 19.0815 6.18309C18.832 7.40273 18.2396 8.88975 17.3815 10.3752C17.1743 10.7339 16.7156 10.8566 16.3569 10.6494C15.9982 10.4422 15.8754 9.98352 16.0826 9.62485C16.8825 8.24029 17.4027 6.90531 17.6119 5.88246C17.7174 5.36698 17.7349 4.97325 17.6966 4.70914C17.6742 4.55467 17.6402 4.48492 17.6227 4.45809C17.5907 4.45638 17.5132 4.46179 17.368 4.51976C17.12 4.61871 16.7878 4.83087 16.3942 5.17993C15.613 5.87259 14.717 6.99039 13.9176 8.37502C13.7105 8.73374 13.2518 8.85665 12.8931 8.64954C12.5343 8.44243 12.4114 7.98374 12.6186 7.62502C13.4761 6.13965 14.4676 4.88345 15.399 4.05761C15.8616 3.64743 16.3419 3.31421 16.812 3.1266ZM17.6407 4.46063C17.6407 4.46068 17.6398 4.4605 17.6382 4.45991C17.6399 4.46029 17.6407 4.46058 17.6407 4.46063ZM17.6134 4.44561C17.6121 4.44449 17.6115 4.44384 17.6115 4.44379C17.6116 4.44374 17.6122 4.4443 17.6134 4.44561Z" fill="#212529"/>
<path fill-rule="evenodd" clip-rule="evenodd" d="M15.375 8.35049C15.7337 8.5576 15.8566 9.01629 15.6495 9.37501L12.6495 14.571C12.4424 14.9297 11.9837 15.0526 11.625 14.8455C11.2663 14.6384 11.1434 14.1797 11.3505 13.821L14.3505 8.62499C14.5576 8.26628 15.0163 8.14338 15.375 8.35049Z" fill="#212529"/>
<path fill-rule="evenodd" clip-rule="evenodd" d="M4.0186 19.7497C3.78068 19.7569 3.54711 19.8155 3.33395 19.9215C2.96305 20.1059 2.51289 19.9547 2.32847 19.5838C2.14406 19.2129 2.29524 18.7628 2.66614 18.5783C3.07471 18.3752 3.52253 18.2632 3.97864 18.2502L3.98434 18.2501L3.98434 18.2501C5.02215 18.2283 6.00404 18.7193 6.60934 19.5626C6.92639 20.0043 7.44072 20.2615 7.98434 20.2501C7.99481 20.2499 8.00528 20.2499 8.01575 20.2501C8.55937 20.2615 9.07369 20.0043 9.39075 19.5626C9.99299 18.7235 10.968 18.2333 12 18.2498C13.032 18.2333 14.0071 18.7235 14.6093 19.5626C14.9264 20.0043 15.4407 20.2615 15.9843 20.2501C15.9948 20.2499 16.0053 20.2499 16.0158 20.2501C16.5594 20.2615 17.0737 20.0043 17.3908 19.5626C17.996 18.7193 18.9779 18.2283 20.0158 18.2501L20.0215 18.2502V18.2502C20.4776 18.2632 20.9254 18.3752 21.334 18.5783C21.7048 18.7628 21.856 19.2129 21.6716 19.5838C21.4872 19.9547 21.037 20.1059 20.6661 19.9215C20.453 19.8155 20.2194 19.7569 19.9815 19.7497C19.4389 19.7393 18.9258 19.9963 18.6093 20.4373C18.0071 21.2763 17.032 21.7665 16 21.75C14.968 21.7665 13.993 21.2763 13.3908 20.4373C13.0737 19.9955 12.5594 19.7384 12.0158 19.7498C12.0053 19.75 11.9948 19.75 11.9843 19.7498C11.4407 19.7384 10.9264 19.9955 10.6093 20.4373C10.0071 21.2763 9.03205 21.7665 8.00004 21.75C6.96804 21.7665 5.99299 21.2763 5.39075 20.4373C5.07425 19.9963 4.56116 19.7393 4.0186 19.7497Z" fill="#212529"/>
</svg>
