<svg width="24" height="24" viewBox="0 0 24 24" fill="none" xmlns="http://www.w3.org/2000/svg">
<path fill-rule="evenodd" clip-rule="evenodd" d="M10.4093 5.62862C10.5018 5.5686 10.5774 5.4905 10.6338 5.40133C10.7116 5.27812 10.7526 5.13377 10.7501 4.98679C10.7572 4.30252 11.3141 3.75 12.0001 3.75C12.6904 3.75 13.2501 4.30964 13.2501 5C13.2501 5.29002 13.4173 5.55405 13.6795 5.67802C15.7637 6.66358 17.1357 8.7163 17.2501 11.0181V14C17.2501 14.0301 17.2519 14.0602 17.2555 14.0901C17.3509 14.8782 17.6403 15.6178 18.0844 16.25H5.91569C6.35983 15.6178 6.64924 14.8782 6.74463 14.0901C6.74825 14.0602 6.75007 14.0301 6.75007 14V11.0181C6.86413 8.72155 8.23013 6.67295 10.3064 5.68479C10.3423 5.66871 10.3767 5.6499 10.4093 5.62862ZM9.29207 4.51858C6.91977 5.80713 5.37845 8.24728 5.25089 10.9648C5.25034 10.9765 5.25007 10.9883 5.25007 11V13.9524C5.11472 14.9593 4.51596 15.846 3.6305 16.3474C3.33411 16.5152 3.18804 16.8617 3.27482 17.1911C3.36161 17.5205 3.65945 17.75 4.00007 17.75H20.0001C20.3407 17.75 20.6385 17.5205 20.7253 17.1911C20.8121 16.8617 20.666 16.5152 20.3696 16.3474C19.4842 15.846 18.8854 14.9593 18.7501 13.9524V11C18.7501 10.9883 18.7498 10.9765 18.7492 10.9648C18.6217 8.24728 17.0804 5.80713 14.7081 4.51858C14.4804 3.22934 13.3546 2.25 12.0001 2.25C10.6455 2.25 9.51971 3.22934 9.29207 4.51858Z" fill="black"/>
<path fill-rule="evenodd" clip-rule="evenodd" d="M9 16.25C9.41421 16.25 9.75 16.5858 9.75 17V18C9.75 19.2426 10.7574 20.25 12 20.25C13.2426 20.25 14.25 19.2426 14.25 18V17C14.25 16.5858 14.5858 16.25 15 16.25C15.4142 16.25 15.75 16.5858 15.75 17V18C15.75 20.0711 14.0711 21.75 12 21.75C9.92893 21.75 8.25 20.0711 8.25 18V17C8.25 16.5858 8.58579 16.25 9 16.25Z" fill="black"/>
<path fill-rule="evenodd" clip-rule="evenodd" d="M17.6398 2.50821C17.9114 2.19548 18.3851 2.16215 18.6979 2.43376C19.9639 3.53335 20.981 4.89014 21.6815 6.41373C21.8545 6.79007 21.6897 7.23542 21.3133 7.40845C20.937 7.58147 20.4917 7.41664 20.3186 7.04029C19.7072 5.71039 18.8194 4.52606 17.7143 3.56626C17.4015 3.29465 17.3682 2.82094 17.6398 2.50821Z" fill="black"/>
<path fill-rule="evenodd" clip-rule="evenodd" d="M6.35811 2.50799C6.62985 2.82061 6.5967 3.29433 6.28408 3.56606C5.17965 4.52606 4.29245 5.71036 3.68158 7.0401C3.50867 7.41649 3.06337 7.58145 2.68697 7.40854C2.31058 7.23562 2.14562 6.79032 2.31853 6.41392C3.01836 4.89054 4.03477 3.53376 5.30004 2.43396C5.61266 2.16222 6.08637 2.19537 6.35811 2.50799Z" fill="black"/>
</svg>
