<svg width="24" height="24" viewBox="0 0 24 24" fill="none" xmlns="http://www.w3.org/2000/svg">
<path fill-rule="evenodd" clip-rule="evenodd" d="M15.5544 6.25202C15.9317 6.27818 16.6365 6.43201 17.383 6.77183C18.1386 7.11579 19.0051 7.68119 19.6186 8.57593C19.7384 8.75073 19.7787 8.96808 19.7295 9.17423C19.6803 9.38037 19.5461 9.55607 19.3602 9.65787C19.2951 9.69355 19.217 9.7252 19.1254 9.76231C18.8946 9.85583 18.5781 9.98405 18.1677 10.2987C17.6561 10.691 17.2435 11.2307 17.25 11.9929C17.2697 13.7753 18.7075 14.1498 19.1488 14.2647C19.1953 14.2768 19.2307 14.2861 19.2523 14.2937C19.5507 14.4003 19.75 14.6831 19.75 15.0001C19.75 16.2545 18.9991 17.6713 18.1446 18.723C17.7046 19.2645 17.2022 19.7536 16.6886 20.114C16.1937 20.4613 15.6018 20.7501 15 20.7501C14.1433 20.7501 13.6397 20.602 13.205 20.4657C13.1928 20.4618 13.1807 20.458 13.1687 20.4543C12.8011 20.3388 12.5186 20.2501 12 20.2501C11.436 20.2501 11.0315 20.3444 10.6052 20.4577C10.5648 20.4684 10.5237 20.4795 10.4818 20.4907C10.0813 20.5986 9.61296 20.7248 9.03168 20.7494C9.02113 20.7498 9.01056 20.7501 9 20.7501C8.21454 20.7501 7.53423 20.3137 7.00092 19.7804C6.45683 19.2363 5.97644 18.505 5.57918 17.7105C4.78761 16.1273 4.25 14.1379 4.25 12.5001C4.25 11.1695 4.51311 9.64853 5.22855 8.43229C5.96641 7.17792 7.19371 6.25005 9 6.25005C9.74186 6.25005 10.4667 6.57966 10.9787 6.82231C11.0512 6.85665 11.1193 6.88933 11.184 6.92035C11.3735 7.01122 11.5334 7.08789 11.6852 7.15051C11.7822 7.19055 11.8583 7.21719 11.9177 7.23335C11.9651 7.24621 11.9902 7.24917 11.9977 7.24985C12.0037 7.24904 12.0284 7.2456 12.0771 7.23162C12.1436 7.21254 12.2295 7.1814 12.3413 7.13515C12.4784 7.07842 12.5997 7.02338 12.7371 6.96097C12.8598 6.90523 12.9955 6.84362 13.167 6.76969C13.7923 6.50013 14.6438 6.18248 15.5544 6.25202ZM12.9147 8.52123C12.6711 8.62203 12.3329 8.75005 12 8.75005C11.6733 8.75005 11.3537 8.63641 11.113 8.53709C10.9188 8.45695 10.7052 8.35449 10.506 8.2589C10.4479 8.23104 10.3911 8.20376 10.3363 8.17779C9.7933 7.92044 9.35814 7.75005 9 7.75005C7.80629 7.75005 7.03359 8.32218 6.52145 9.19282C5.98689 10.1016 5.75 11.3306 5.75 12.5001C5.75 13.8622 6.21239 15.6228 6.92082 17.0396C7.27356 17.7451 7.66817 18.3263 8.06158 18.7197C8.45754 19.1157 8.7724 19.2448 8.98675 19.2499C9.38623 19.2309 9.69842 19.1474 10.1037 19.039C10.1416 19.0288 10.1804 19.0185 10.2201 19.0079C10.6915 18.8827 11.243 18.7501 12 18.7501C12.7495 18.7501 13.2101 18.8949 13.6111 19.021C13.6254 19.0255 13.6397 19.03 13.654 19.0344C14.0163 19.1481 14.3567 19.2501 15 19.2501C15.1482 19.2501 15.4313 19.1638 15.827 18.8861C16.204 18.6215 16.6079 18.2356 16.9804 17.7771C17.5796 17.0396 18.0147 16.2206 18.1785 15.5421C17.3129 15.2013 15.7743 14.2613 15.75 12.0081L15.75 12.0066C15.7377 10.5992 16.533 9.66198 17.255 9.10837C17.4208 8.98122 17.5999 8.8646 17.7727 8.7625C17.4598 8.50138 17.1094 8.29539 16.7615 8.13702C16.1536 7.86028 15.6222 7.75999 15.4496 7.74835L15.4421 7.74785L15.4421 7.74781C14.9209 7.70744 14.3589 7.88932 13.7608 8.14716C13.6546 8.19294 13.5277 8.25009 13.3988 8.30813C13.226 8.38596 13.0496 8.46541 12.9147 8.52123Z" fill="#212529"/>
<path fill-rule="evenodd" clip-rule="evenodd" d="M11.25 4C11.25 2.48122 12.4812 1.25 14 1.25C14.4142 1.25 14.75 1.58579 14.75 2C14.75 3.51878 13.5188 4.75 12 4.75C11.5858 4.75 11.25 4.41421 11.25 4Z" fill="#212529"/>
</svg>
