<svg width="24" height="24" viewBox="0 0 24 24" fill="none" xmlns="http://www.w3.org/2000/svg">
<path fill-rule="evenodd" clip-rule="evenodd" d="M7.66459 2.3291C8.03507 2.14386 8.48558 2.29403 8.67082 2.66451L9.29964 3.92216C10.1048 3.49309 11.024 3.24992 12 3.24992C12.976 3.24992 13.8952 3.49309 14.7004 3.92216L15.3292 2.66451C15.5144 2.29403 15.9649 2.14386 16.3354 2.3291C16.7059 2.51434 16.8561 2.96485 16.6708 3.33533L15.9349 4.80716C17.0521 5.8561 17.75 7.34651 17.75 8.99992V16.9999C17.75 17.9664 16.9665 18.7499 16 18.7499H15.75V20.9999C15.75 21.4141 15.4142 21.7499 15 21.7499C14.5858 21.7499 14.25 21.4141 14.25 20.9999V18.7499H9.75V20.9999C9.75 21.4141 9.41421 21.7499 9 21.7499C8.58579 21.7499 8.25 21.4141 8.25 20.9999V18.7499H8C7.0335 18.7499 6.25 17.9664 6.25 16.9999V8.99992C6.25 7.34651 6.94786 5.8561 8.06509 4.80716L7.32918 3.33533C7.14394 2.96485 7.29411 2.51434 7.66459 2.3291ZM9.43329 5.61223C8.59978 6.24472 8.00687 7.17776 7.81597 8.24992H16.184C15.9931 7.17776 15.4002 6.24472 14.5667 5.61222C14.5547 5.60374 14.543 5.59494 14.5316 5.58585C13.8244 5.06064 12.9485 4.74992 12 4.74992C11.0515 4.74992 10.1756 5.06064 9.46842 5.58585C9.45703 5.59494 9.44531 5.60374 9.43329 5.61223ZM16.25 9.74992H7.75V16.9999C7.75 17.138 7.86193 17.2499 8 17.2499H16C16.1381 17.2499 16.25 17.138 16.25 16.9999V9.74992ZM4 9.24992C4.41421 9.24992 4.75 9.58571 4.75 9.99992V15.9999C4.75 16.4141 4.41421 16.7499 4 16.7499C3.58579 16.7499 3.25 16.4141 3.25 15.9999V9.99992C3.25 9.58571 3.58579 9.24992 4 9.24992ZM20 9.24992C20.4142 9.24992 20.75 9.58571 20.75 9.99992V15.9999C20.75 16.4141 20.4142 16.7499 20 16.7499C19.5858 16.7499 19.25 16.4141 19.25 15.9999V9.99992C19.25 9.58571 19.5858 9.24992 20 9.24992Z" fill="#212529"/>
</svg>
