<svg width="24" height="24" viewBox="0 0 24 24" fill="none" xmlns="http://www.w3.org/2000/svg">
<path fill-rule="evenodd" clip-rule="evenodd" d="M8.84644 3.26596C9.19395 3.19327 9.54482 3.3742 9.68712 3.69946L15.25 16.4146V4.00007C15.25 3.58586 15.5858 3.25007 16 3.25007C16.4142 3.25007 16.75 3.58586 16.75 4.00007V20.0001C16.75 20.3551 16.5011 20.6615 16.1536 20.7342C15.8061 20.8069 15.4552 20.6259 15.3129 20.3007L9.75 7.58553V20.0001C9.75 20.4143 9.41421 20.7501 9 20.7501C8.58579 20.7501 8.25 20.4143 8.25 20.0001V4.00007C8.25 3.64505 8.49893 3.33865 8.84644 3.26596Z" fill="black"/>
</svg>
