<svg width="24" height="24" viewBox="0 0 24 24" fill="none" xmlns="http://www.w3.org/2000/svg">
<path fill-rule="evenodd" clip-rule="evenodd" d="M8.84644 3.2659C9.19395 3.19321 9.54482 3.37414 9.68712 3.6994L15.25 16.4146V4.00001C15.25 3.5858 15.5858 3.25001 16 3.25001C16.4142 3.25001 16.75 3.5858 16.75 4.00001V20C16.75 20.355 16.5011 20.6614 16.1536 20.7341C15.8061 20.8068 15.4552 20.6259 15.3129 20.3006L9.75 7.58547V20C9.75 20.4142 9.41421 20.75 9 20.75C8.58579 20.75 8.25 20.4142 8.25 20V4.00001C8.25 3.64498 8.49893 3.33859 8.84644 3.2659Z" fill="#212529"/>
</svg>
