<svg width="24" height="24" viewBox="0 0 24 24" fill="none" xmlns="http://www.w3.org/2000/svg">
<path fill-rule="evenodd" clip-rule="evenodd" d="M9.03624 3.5939C10.9859 3.13922 13.0141 3.13922 14.9638 3.5939C16.0881 2.88089 16.9575 2.55471 17.5907 2.41707C17.9333 2.34258 18.2049 2.32376 18.4073 2.32826C18.5083 2.33051 18.5913 2.33854 18.6565 2.34806C18.689 2.35282 18.717 2.35793 18.7405 2.36284C18.7523 2.3653 18.7629 2.3677 18.7724 2.36998L18.7857 2.3733L18.7917 2.37487L18.7946 2.37563L18.796 2.37601C18.7967 2.37619 18.7974 2.37638 18.6 3.09995L18.7974 2.37638C19.0137 2.43537 19.1922 2.58806 19.2841 2.79258C19.7561 3.84294 19.8451 5.02019 19.545 6.12204C20.3202 7.07192 20.7488 8.26379 20.75 9.49919V9.49995C20.75 11.955 20.0225 13.6131 18.7909 14.6794C17.8927 15.4572 16.7912 15.8614 15.6856 16.0805C15.6968 16.1283 15.7065 16.177 15.7148 16.2267C15.7636 16.5194 15.7583 16.8666 15.7531 17.2008C15.7516 17.3024 15.75 17.4027 15.75 17.5V21C15.75 21.4142 15.4142 21.75 15 21.75C14.5858 21.75 14.25 21.4142 14.25 21V17.5C14.25 17.3156 14.2522 17.1669 14.254 17.043C14.2579 16.7752 14.2601 16.6225 14.2352 16.4732C14.2149 16.3514 14.1777 16.2383 13.9697 16.0303C13.7654 15.826 13.6966 15.5227 13.7928 15.2503C13.8889 14.9779 14.1329 14.785 14.4201 14.7542C15.7702 14.6096 16.9585 14.2819 17.8091 13.5455C18.6274 12.8369 19.2499 11.6452 19.25 9.50071C19.249 8.50052 18.8588 7.53998 18.162 6.82245C17.9597 6.61412 17.8958 6.30771 17.998 6.03589C18.2629 5.3318 18.2889 4.5648 18.0797 3.851C18.0286 3.85888 17.9718 3.86925 17.9093 3.88283C17.444 3.98398 16.6551 4.26463 15.516 5.02399C15.3381 5.14262 15.118 5.17964 14.911 5.12574C13.0022 4.62861 10.9979 4.62861 9.08904 5.12574C8.88207 5.17964 8.66194 5.14262 8.48399 5.02399C7.34495 4.26463 6.55598 3.98398 6.09069 3.88283C6.02822 3.86925 5.97146 3.85888 5.92032 3.851C5.71112 4.5648 5.73714 5.3318 6.00199 6.03589C6.10424 6.30771 6.04037 6.61412 5.83806 6.82245C5.14133 7.5399 4.75112 8.5003 4.75001 9.50037C4.75009 11.6451 5.3726 12.8369 6.19095 13.5455C7.04152 14.2819 8.22981 14.6096 9.57991 14.7542C9.8671 14.785 10.1111 14.9779 10.2072 15.2503C10.3034 15.5227 10.2346 15.826 10.0303 16.0303C9.83033 16.2303 9.75662 16.397 9.72402 16.5666C9.68558 16.7665 9.69518 17.0146 9.74422 17.4069C9.74808 17.4378 9.75001 17.4689 9.75001 17.5V18.9827C9.75028 18.9943 9.75028 19.0059 9.75001 19.0175V21C9.75001 21.4142 9.41423 21.75 9.00001 21.75C8.5858 21.75 8.25001 21.4142 8.25001 21V19.9647C7.50721 20.0984 6.85921 20.0749 6.28549 19.9144C5.46717 19.6855 4.89335 19.204 4.45906 18.7046C4.18842 18.3933 3.92527 18.0105 3.709 17.6959C3.61078 17.553 3.52222 17.4242 3.44702 17.3225C3.15315 16.9252 2.96003 16.77 2.78839 16.7195C2.39101 16.6026 2.16361 16.1857 2.28049 15.7883C2.39737 15.3909 2.81426 15.1635 3.21164 15.2804C3.89 15.4799 4.33437 15.9997 4.653 16.4305C4.79456 16.6219 4.91264 16.7951 5.02428 16.9589C5.20578 17.2252 5.37026 17.4665 5.59097 17.7203C5.90668 18.0834 6.24535 18.3456 6.68954 18.4699C7.05427 18.5719 7.55139 18.5978 8.25001 18.4331V17.546C8.20194 17.1507 8.16776 16.7162 8.25101 16.2833C8.26438 16.2138 8.28057 16.1452 8.29968 16.0776C7.19908 15.8578 6.10338 15.4538 5.20908 14.6794C3.97748 13.6131 3.25001 11.955 3.25001 9.49995L3.25001 9.49919C3.25127 8.26379 3.67982 7.07192 4.45505 6.12204C4.15491 5.02019 4.24397 3.84294 4.71589 2.79258C4.80778 2.58806 4.98636 2.43537 5.20267 2.37638L5.40001 3.09995C5.20267 2.37638 5.20335 2.37619 5.20404 2.37601L5.20542 2.37563L5.20828 2.37487L5.21431 2.3733L5.22766 2.36998C5.23714 2.3677 5.24774 2.3653 5.25949 2.36284C5.28299 2.35793 5.31101 2.35282 5.34357 2.34806C5.40875 2.33854 5.49173 2.33051 5.59273 2.32826C5.79512 2.32376 6.06669 2.34258 6.40934 2.41707C7.04248 2.55471 7.91189 2.88089 9.03624 3.5939Z" fill="#212529"/>
</svg>
