<svg width="24" height="24" viewBox="0 0 24 24" fill="none" xmlns="http://www.w3.org/2000/svg">
<path fill-rule="evenodd" clip-rule="evenodd" d="M17.3615 5.73997C14.1985 3.04214 9.52233 3.1192 6.44996 5.91977C3.37759 8.72035 2.86898 13.3694 5.26315 16.768C5.41379 16.9819 5.44213 17.2588 5.33795 17.4987L4.24477 20.0163L7.91842 19.3616C8.07519 19.3337 8.23679 19.3564 8.37981 19.4264C12.1135 21.2545 16.6242 20.0189 18.9051 16.5433C21.186 13.0676 20.5245 8.4378 17.3615 5.73997ZM2.9127 21.7451C2.98993 21.7542 3.06716 21.751 3.1418 21.7365L7.94556 20.8804C12.3129 22.8838 17.5093 21.4041 20.1591 17.3662C22.8547 13.2586 22.073 7.78706 18.3349 4.59872C14.5968 1.41038 9.07045 1.50144 5.43947 4.81121C1.91413 8.02469 1.24494 13.2975 3.79862 17.2777L2.31618 20.6918C2.28488 20.7611 2.26393 20.8354 2.25491 20.9127C2.24401 21.0054 2.2508 21.0981 2.27351 21.1864C2.30014 21.2907 2.34791 21.3848 2.41132 21.4649C2.53348 21.6193 2.7137 21.7218 2.9127 21.7451Z" fill="#212529"/>
<path fill-rule="evenodd" clip-rule="evenodd" d="M8.25 9C8.25 8.30964 8.80964 7.75 9.5 7.75C10.1904 7.75 10.75 8.30964 10.75 9V10C10.75 10.5446 10.4017 11.0079 9.91572 11.1792C10.319 12.5783 11.4217 13.681 12.8208 14.0843C12.9921 13.5983 13.4554 13.25 14 13.25H15C15.6904 13.25 16.25 13.8096 16.25 14.5C16.25 15.1904 15.6904 15.75 15 15.75H14C10.8244 15.75 8.25 13.1756 8.25 10V9Z" fill="#212529"/>
</svg>
