<svg width="24" height="24" viewBox="0 0 24 24" fill="none" xmlns="http://www.w3.org/2000/svg">
<path fill-rule="evenodd" clip-rule="evenodd" d="M8.84644 3.26584C9.19395 3.19315 9.54482 3.37408 9.68712 3.69934L15.25 16.4145V3.99995C15.25 3.58574 15.5858 3.24995 16 3.24995C16.4142 3.24995 16.75 3.58574 16.75 3.99995V20C16.75 20.355 16.5011 20.6614 16.1536 20.7341C15.8061 20.8068 15.4552 20.6258 15.3129 20.3006L9.75 7.58541V20C9.75 20.4142 9.41421 20.75 9 20.75C8.58579 20.75 8.25 20.4142 8.25 20V3.99995C8.25 3.64492 8.49893 3.33853 8.84644 3.26584Z" fill="#212529"/>
</svg>
