<svg width="24" height="24" viewBox="0 0 24 24" fill="none" xmlns="http://www.w3.org/2000/svg">
<path fill-rule="evenodd" clip-rule="evenodd" d="M5.425 2.45449C5.42516 2.45459 5.42484 2.4544 5.425 2.45449L20.0462 10.8731C20.4489 11.1052 20.6973 11.5348 20.6973 11.9995C20.6973 12.4643 20.4492 12.8937 20.0466 13.1258L5.425 21.5455C4.97657 21.8041 4.42355 21.8044 3.9752 21.5456C3.52659 21.2867 3.25016 20.8082 3.25 20.2902L3.25 3.71001C3.25 3.2958 3.58579 2.96001 4 2.96001C4.1079 2.96001 4.21048 2.9828 4.30319 3.02382C4.54338 3.13011 4.71731 3.3588 4.74587 3.63079C4.74591 3.6312 4.74595 3.6316 4.74599 3.63201C4.74864 3.65765 4.75 3.68367 4.75 3.71001V3.79672L4.74545 3.7941M18.9965 11.9995L4.75 3.79672V20.2033L4.67573 20.2461C4.69107 20.2376 4.70977 20.2377 4.72499 20.2465C4.74046 20.2554 4.74999 20.2719 4.75 20.2898L4.70091 20.2898L4 20.29L4.75 20.2898V20.2033L18.9965 11.9995ZM19.2974 11.8262C19.2355 11.8619 19.1973 11.928 19.1973 11.9995C19.1973 12.071 19.2355 12.137 19.2974 12.1727L18.9965 11.9995L19.2974 11.8262Z" fill="#212529"/>
<path fill-rule="evenodd" clip-rule="evenodd" d="M15.5057 8.44614C15.8116 8.72543 15.8332 9.19982 15.5539 9.50571L5.05387 21.0057C4.77458 21.3116 4.30019 21.3332 3.9943 21.0539C3.68841 20.7746 3.66685 20.3002 3.94614 19.9943L14.4461 8.4943C14.7254 8.18841 15.1998 8.16685 15.5057 8.44614Z" fill="#212529"/>
<path fill-rule="evenodd" clip-rule="evenodd" d="M3.9943 2.94614C4.30019 2.66685 4.77458 2.68841 5.05387 2.9943L15.5539 14.4943C15.8332 14.8002 15.8116 15.2746 15.5057 15.5539C15.1998 15.8332 14.7254 15.8116 14.4461 15.5057L3.94614 4.00571C3.66685 3.69982 3.68841 3.22543 3.9943 2.94614Z" fill="#212529"/>
</svg>
