<svg width="24" height="24" viewBox="0 0 24 24" fill="none" xmlns="http://www.w3.org/2000/svg">
<path fill-rule="evenodd" clip-rule="evenodd" d="M19.2187 4.15736C17.8339 2.91567 15.9715 2.95611 14.3571 3.56064C12.4824 4.26261 11.2248 5.99584 11.2501 8.00493V8.24027C8.55867 8.09657 6.19119 6.77213 4.6099 4.56342C4.46066 4.35496 4.21528 4.23717 3.95928 4.25112C3.70328 4.26507 3.47215 4.40881 3.34643 4.63225L4.00008 5.00001C3.34643 4.63225 3.34623 4.63261 3.34601 4.633L3.34549 4.63393L3.34417 4.63629L3.34041 4.64307L3.32859 4.66473C3.31886 4.68272 3.30551 4.70779 3.28906 4.73957C3.25616 4.80312 3.21078 4.89369 3.15706 5.00848C3.04976 5.23778 2.90844 5.56536 2.76683 5.9687C2.48508 6.77122 2.1943 7.89595 2.18186 9.15498C2.16938 10.4198 2.43833 11.8326 3.28957 13.1775C3.96566 14.2457 4.98689 15.236 6.45728 16.0693C5.04437 16.8587 3.63918 17.3132 2.02925 17.2506C1.68118 17.237 1.36961 17.4649 1.27704 17.8007C1.18448 18.1365 1.3353 18.4918 1.64115 18.6585C5.07559 20.5305 8.88593 21.2119 12.2432 20.2373L12.2433 20.2372C16.0583 19.129 19.2042 16.2599 20.4071 11.9778L20.4081 11.9742C20.7529 10.7229 20.9291 9.43142 20.9322 8.13385C20.9328 8.13262 20.9333 8.13138 20.9339 8.13012C20.9673 8.05386 21.02 7.94462 21.0921 7.80135C21.1711 7.64416 21.2612 7.46987 21.3611 7.27652C21.4479 7.10849 21.5422 6.92608 21.6431 6.72798C22.0448 5.93954 22.5387 4.93143 22.7222 4.21271C22.7405 4.14767 22.7501 4.07958 22.7501 4.01001V4.00901C22.7501 3.62999 22.4673 3.31054 22.0911 3.26455C21.9295 3.2448 21.7726 3.27814 21.6388 3.35174C20.9612 3.67958 20.3145 3.85666 19.5832 4.05693C19.4641 4.08954 19.3428 4.12277 19.2187 4.15736ZM20.6729 5.30924C20.4055 5.38875 20.1424 5.46058 19.8866 5.53044C19.6552 5.59362 19.4298 5.65518 19.2124 5.71934C18.9333 5.8017 18.6317 5.7152 18.4388 5.49743C17.6055 4.55714 16.3253 4.42534 14.8831 4.96538C13.5654 5.45878 12.7316 6.64709 12.75 7.98972L12.7501 8.00001H12.7501V9.00001C12.7501 9.40675 12.4259 9.73936 12.0193 9.74976C8.95855 9.82805 6.18458 8.61365 4.19433 6.43108C4.19027 6.44251 4.1862 6.45402 4.18214 6.4656C3.93545 7.16824 3.69211 8.12469 3.68179 9.16979C3.67153 10.2091 3.8912 11.3233 4.55703 12.3753C5.22178 13.4256 6.36649 14.4697 8.2998 15.3125C8.55138 15.4222 8.72297 15.6605 8.74716 15.9339C8.77135 16.2073 8.64429 16.472 8.41587 16.6242C7.25688 17.3962 6.06474 18.0412 4.76008 18.4131C7.1984 19.267 9.657 19.4261 11.8249 18.7968C15.1693 17.8252 17.9072 15.3289 18.9626 11.5737C19.2807 10.4183 19.4387 9.2246 19.4321 8.02616C19.4313 7.87639 19.4748 7.74885 19.4877 7.71109L19.4887 7.70805C19.5096 7.64669 19.5354 7.58425 19.5601 7.52785C19.6102 7.41362 19.6777 7.27521 19.7519 7.12754C19.831 6.9703 19.9296 6.77928 20.0353 6.57464C20.1233 6.40434 20.2161 6.2246 20.3066 6.04704C20.4324 5.80004 20.5568 5.551 20.6729 5.30924Z" fill="#212529"/>
</svg>
