<svg width="24" height="24" viewBox="0 0 24 24" fill="none" xmlns="http://www.w3.org/2000/svg">
<path fill-rule="evenodd" clip-rule="evenodd" d="M12 16.75C11.3096 16.75 10.75 17.3096 10.75 18V21C10.75 21.4142 10.4142 21.75 10 21.75H3C2.58579 21.75 2.25 21.4142 2.25 21C2.25 20.5858 2.58579 20.25 3 20.25H9.25V18C9.25 16.4812 10.4812 15.25 12 15.25C13.5188 15.25 14.75 16.4812 14.75 18V20.25H21C21.4142 20.25 21.75 20.5858 21.75 21C21.75 21.4142 21.4142 21.75 21 21.75H14C13.5858 21.75 13.25 21.4142 13.25 21V18C13.25 17.3096 12.6904 16.75 12 16.75Z" fill="#212529"/>
<path fill-rule="evenodd" clip-rule="evenodd" d="M6 11.25C6.41421 11.25 6.75 11.5858 6.75 12V21C6.75 21.4142 6.41421 21.75 6 21.75C5.58579 21.75 5.25 21.4142 5.25 21V12C5.25 11.5858 5.58579 11.25 6 11.25Z" fill="#212529"/>
<path fill-rule="evenodd" clip-rule="evenodd" d="M18 11.25C18.4142 11.25 18.75 11.5858 18.75 12V21C18.75 21.4142 18.4142 21.75 18 21.75C17.5858 21.75 17.25 21.4142 17.25 21V12C17.25 11.5858 17.5858 11.25 18 11.25Z" fill="#212529"/>
<path fill-rule="evenodd" clip-rule="evenodd" d="M12 2.25C12.3338 2.25 12.6274 2.4706 12.7204 2.7912C13.6617 6.03876 17.0556 8.36064 20.9789 8.2503C21.1814 8.2446 21.3776 8.32106 21.5228 8.46227C21.6681 8.60348 21.75 8.79743 21.75 9C21.75 11.0711 20.0711 12.75 18 12.75H6C3.92893 12.75 2.25 11.0711 2.25 9C2.25 8.79743 2.33194 8.60348 2.47718 8.46227C2.62242 8.32106 2.8186 8.2446 3.02109 8.2503C6.94436 8.36064 10.3383 6.03876 11.2796 2.7912C11.3726 2.4706 11.6662 2.25 12 2.25ZM6 11.25H18C18.9841 11.25 19.8206 10.6182 20.1261 9.73812C16.6633 9.55062 13.5547 7.71762 12 4.93171C10.4453 7.71762 7.33672 9.55062 3.87387 9.73812C4.17937 10.6182 5.0159 11.25 6 11.25Z" fill="#212529"/>
</svg>
