<svg width="24" height="24" viewBox="0 0 24 24" fill="none" xmlns="http://www.w3.org/2000/svg">
<path fill-rule="evenodd" clip-rule="evenodd" d="M2.25 21C2.25 20.5858 2.58579 20.25 3 20.25H21C21.4142 20.25 21.75 20.5858 21.75 21C21.75 21.4142 21.4142 21.75 21 21.75H3C2.58579 21.75 2.25 21.4142 2.25 21Z" fill="#212529"/>
<path fill-rule="evenodd" clip-rule="evenodd" d="M13.3943 2.36201C13.6154 2.49867 13.75 2.74007 13.75 3V21C13.75 21.4142 13.4142 21.75 13 21.75C12.5858 21.75 12.25 21.4142 12.25 21V4.21353L5.75 7.46353V21C5.75 21.4142 5.41421 21.75 5 21.75C4.58579 21.75 4.25 21.4142 4.25 21V7C4.25 6.71592 4.4105 6.45622 4.66459 6.32918L12.6646 2.32918C12.8971 2.21293 13.1732 2.22536 13.3943 2.36201Z" fill="#212529"/>
<path fill-rule="evenodd" clip-rule="evenodd" d="M12.376 6.58393C12.6058 6.23929 13.0715 6.14616 13.4161 6.37592L19.4161 10.3759C19.6248 10.515 19.7501 10.7492 19.7501 11V21C19.7501 21.4142 19.4143 21.75 19.0001 21.75C18.5859 21.75 18.2501 21.4142 18.2501 21V11.4013L12.5841 7.624C12.2394 7.39423 12.1463 6.92858 12.376 6.58393Z" fill="#212529"/>
<path fill-rule="evenodd" clip-rule="evenodd" d="M9 8.25C9.41421 8.25 9.75 8.58579 9.75 9V9.01C9.75 9.42421 9.41421 9.76 9 9.76C8.58579 9.76 8.25 9.42421 8.25 9.01V9C8.25 8.58579 8.58579 8.25 9 8.25Z" fill="#212529"/>
<path fill-rule="evenodd" clip-rule="evenodd" d="M9 11.25C9.41421 11.25 9.75 11.5858 9.75 12V12.01C9.75 12.4242 9.41421 12.76 9 12.76C8.58579 12.76 8.25 12.4242 8.25 12.01V12C8.25 11.5858 8.58579 11.25 9 11.25Z" fill="#212529"/>
<path fill-rule="evenodd" clip-rule="evenodd" d="M9 14.25C9.41421 14.25 9.75 14.5858 9.75 15V15.01C9.75 15.4242 9.41421 15.76 9 15.76C8.58579 15.76 8.25 15.4242 8.25 15.01V15C8.25 14.5858 8.58579 14.25 9 14.25Z" fill="#212529"/>
<path fill-rule="evenodd" clip-rule="evenodd" d="M9 17.25C9.41421 17.25 9.75 17.5858 9.75 18V18.01C9.75 18.4242 9.41421 18.76 9 18.76C8.58579 18.76 8.25 18.4242 8.25 18.01V18C8.25 17.5858 8.58579 17.25 9 17.25Z" fill="#212529"/>
</svg>
