<svg width="24" height="24" viewBox="0 0 24 24" fill="none" xmlns="http://www.w3.org/2000/svg">
<path fill-rule="evenodd" clip-rule="evenodd" d="M2.25 21C2.25 20.5858 2.58579 20.25 3 20.25H21C21.4142 20.25 21.75 20.5858 21.75 21C21.75 21.4142 21.4142 21.75 21 21.75H3C2.58579 21.75 2.25 21.4142 2.25 21Z" fill="#212529"/>
<path fill-rule="evenodd" clip-rule="evenodd" d="M12 15.75C11.3096 15.75 10.75 16.3096 10.75 17V21C10.75 21.4142 10.4142 21.75 10 21.75C9.58579 21.75 9.25 21.4142 9.25 21V17C9.25 15.4812 10.4812 14.25 12 14.25C13.5188 14.25 14.75 15.4812 14.75 17V21C14.75 21.4142 14.4142 21.75 14 21.75C13.5858 21.75 13.25 21.4142 13.25 21V17C13.25 16.3096 12.6904 15.75 12 15.75Z" fill="#212529"/>
<path fill-rule="evenodd" clip-rule="evenodd" d="M9.25 5C9.25 4.58579 9.58579 4.25 10 4.25H14C14.4142 4.25 14.75 4.58579 14.75 5C14.75 5.41421 14.4142 5.75 14 5.75H10C9.58579 5.75 9.25 5.41421 9.25 5Z" fill="#212529"/>
<path fill-rule="evenodd" clip-rule="evenodd" d="M12 2.25C12.4142 2.25 12.75 2.58579 12.75 3V8C12.75 8.41421 12.4142 8.75 12 8.75C11.5858 8.75 11.25 8.41421 11.25 8V3C11.25 2.58579 11.5858 2.25 12 2.25Z" fill="#212529"/>
<path fill-rule="evenodd" clip-rule="evenodd" d="M11.4697 7.46967C11.7626 7.17678 12.2374 7.17678 12.5303 7.46967L20.5303 15.4697C20.8232 15.7626 20.8232 16.2374 20.5303 16.5303C20.2374 16.8232 19.7626 16.8232 19.4697 16.5303L18.75 15.8107V21C18.75 21.4142 18.4142 21.75 18 21.75C17.5858 21.75 17.25 21.4142 17.25 21V14.3107L12 9.06066L6.75 14.3107V21C6.75 21.4142 6.41421 21.75 6 21.75C5.58579 21.75 5.25 21.4142 5.25 21V15.8107L4.53033 16.5303C4.23744 16.8232 3.76256 16.8232 3.46967 16.5303C3.17678 16.2374 3.17678 15.7626 3.46967 15.4697L11.4697 7.46967Z" fill="#212529"/>
</svg>
