<svg width="24" height="24" viewBox="0 0 24 24" fill="none" xmlns="http://www.w3.org/2000/svg">
<path fill-rule="evenodd" clip-rule="evenodd" d="M6.58397 2.37596C6.8359 2.20801 7.1641 2.20801 7.41603 2.37596L10.416 4.37596C10.6247 4.51506 10.75 4.74924 10.75 5V10.25H13.25V5C13.25 4.74924 13.3753 4.51506 13.584 4.37596L16.584 2.37596C16.8359 2.20801 17.1641 2.20801 17.416 2.37596L20.416 4.37596C20.6247 4.51506 20.75 4.74924 20.75 5V20C20.75 20.9665 19.9665 21.75 19 21.75H16C15.0335 21.75 14.25 20.9665 14.25 20V19C14.25 17.7574 13.2426 16.75 12 16.75C10.7574 16.75 9.75 17.7574 9.75 19V20C9.75 20.9665 8.9665 21.75 8 21.75H5C4.0335 21.75 3.25 20.9665 3.25 20V5C3.25 4.74924 3.37533 4.51506 3.58397 4.37596L6.58397 2.37596ZM8 20.25C8.13807 20.25 8.25 20.1381 8.25 20V19C8.25 16.9289 9.92893 15.25 12 15.25C14.0711 15.25 15.75 16.9289 15.75 19V20C15.75 20.1381 15.8619 20.25 16 20.25H19C19.1381 20.25 19.25 20.1381 19.25 20V5.40139L17 3.90139L14.75 5.40139V11C14.75 11.4142 14.4142 11.75 14 11.75H10C9.58579 11.75 9.25 11.4142 9.25 11V5.40139L7 3.90139L4.75 5.40139V20C4.75 20.1381 4.86193 20.25 5 20.25H8Z" fill="#212529"/>
<path fill-rule="evenodd" clip-rule="evenodd" d="M6.25 7.01V7H7.75V7.01C7.75 7.42421 7.41421 7.76 7 7.76C6.58579 7.76 6.25 7.42421 6.25 7.01Z" fill="#212529"/>
<path fill-rule="evenodd" clip-rule="evenodd" d="M6.25 10.01V10H7.75V10.01C7.75 10.4242 7.41421 10.76 7 10.76C6.58579 10.76 6.25 10.4242 6.25 10.01Z" fill="#212529"/>
<path fill-rule="evenodd" clip-rule="evenodd" d="M6.25 13.01V13H7.75V13.01C7.75 13.4242 7.41421 13.76 7 13.76C6.58579 13.76 6.25 13.4242 6.25 13.01Z" fill="#212529"/>
<path fill-rule="evenodd" clip-rule="evenodd" d="M16.25 7.01V7H17.75V7.01C17.75 7.42421 17.4142 7.76 17 7.76C16.5858 7.76 16.25 7.42421 16.25 7.01Z" fill="#212529"/>
<path fill-rule="evenodd" clip-rule="evenodd" d="M16.25 10.01V10H17.75V10.01C17.75 10.4242 17.4142 10.76 17 10.76C16.5858 10.76 16.25 10.4242 16.25 10.01Z" fill="#212529"/>
<path fill-rule="evenodd" clip-rule="evenodd" d="M16.25 13.01V13H17.75V13.01C17.75 13.4242 17.4142 13.76 17 13.76C16.5858 13.76 16.25 13.4242 16.25 13.01Z" fill="#212529"/>
</svg>
