<svg width="24" height="24" viewBox="0 0 24 24" fill="none" xmlns="http://www.w3.org/2000/svg">
<path fill-rule="evenodd" clip-rule="evenodd" d="M2.25 21C2.25 20.5858 2.58579 20.25 3 20.25H21C21.4142 20.25 21.75 20.5858 21.75 21C21.75 21.4142 21.4142 21.75 21 21.75H3C2.58579 21.75 2.25 21.4142 2.25 21Z" fill="#212529"/>
<path fill-rule="evenodd" clip-rule="evenodd" d="M11.6896 2.31723C11.8868 2.22759 12.1132 2.22759 12.3104 2.31723L17.8104 4.81722C17.9566 4.88369 18.0776 4.99535 18.1556 5.13577L20.6556 9.63577C20.7175 9.74719 20.75 9.87254 20.75 10V21C20.75 21.4142 20.4142 21.75 20 21.75C19.5858 21.75 19.25 21.4142 19.25 21V10.1943L16.9645 6.08043L12 3.82384L7.03551 6.08043L4.75 10.1943V21C4.75 21.4142 4.41421 21.75 4 21.75C3.58579 21.75 3.25 21.4142 3.25 21V10C3.25 9.87254 3.28248 9.74719 3.34438 9.63577L5.84438 5.13577C5.92239 4.99535 6.04342 4.88369 6.18965 4.81722L11.6896 2.31723Z" fill="#212529"/>
<path fill-rule="evenodd" clip-rule="evenodd" d="M12 7.75C11.3096 7.75 10.75 8.30964 10.75 9C10.75 9.69036 11.3096 10.25 12 10.25C12.6904 10.25 13.25 9.69036 13.25 9C13.25 8.30964 12.6904 7.75 12 7.75ZM9.25 9C9.25 7.48122 10.4812 6.25 12 6.25C13.5188 6.25 14.75 7.48122 14.75 9C14.75 10.5188 13.5188 11.75 12 11.75C10.4812 11.75 9.25 10.5188 9.25 9Z" fill="#212529"/>
<path fill-rule="evenodd" clip-rule="evenodd" d="M10 15.75C9.86193 15.75 9.75 15.8619 9.75 16V21C9.75 21.4142 9.41421 21.75 9 21.75C8.58579 21.75 8.25 21.4142 8.25 21V16C8.25 15.0335 9.0335 14.25 10 14.25H14C14.9665 14.25 15.75 15.0335 15.75 16V21C15.75 21.4142 15.4142 21.75 15 21.75C14.5858 21.75 14.25 21.4142 14.25 21V16C14.25 15.8619 14.1381 15.75 14 15.75H10Z" fill="#212529"/>
</svg>
