<svg width="24" height="24" viewBox="0 0 24 24" fill="none" xmlns="http://www.w3.org/2000/svg">
<path fill-rule="evenodd" clip-rule="evenodd" d="M2.25 21C2.25 20.5858 2.58579 20.25 3 20.25H21C21.4142 20.25 21.75 20.5858 21.75 21C21.75 21.4142 21.4142 21.75 21 21.75H3C2.58579 21.75 2.25 21.4142 2.25 21Z" fill="#212529"/>
<path fill-rule="evenodd" clip-rule="evenodd" d="M2.25 10C2.25 9.58579 2.58579 9.25 3 9.25H21C21.4142 9.25 21.75 9.58579 21.75 10C21.75 10.4142 21.4142 10.75 21 10.75H3C2.58579 10.75 2.25 10.4142 2.25 10Z" fill="#212529"/>
<path fill-rule="evenodd" clip-rule="evenodd" d="M11.7045 2.31064C11.8932 2.22979 12.1067 2.22979 12.2954 2.31064L19.2954 5.31064C19.6761 5.47381 19.8525 5.91472 19.6893 6.29544C19.5261 6.67616 19.0852 6.85253 18.7045 6.68936L11.9999 3.81598L5.29539 6.68936C4.91467 6.85253 4.47376 6.67616 4.31059 6.29544C4.14742 5.91472 4.32379 5.47381 4.70451 5.31064L11.7045 2.31064Z" fill="#212529"/>
<path fill-rule="evenodd" clip-rule="evenodd" d="M4 9.25C4.41421 9.25 4.75 9.58579 4.75 10V21C4.75 21.4142 4.41421 21.75 4 21.75C3.58579 21.75 3.25 21.4142 3.25 21V10C3.25 9.58579 3.58579 9.25 4 9.25Z" fill="#212529"/>
<path fill-rule="evenodd" clip-rule="evenodd" d="M20 9.25C20.4142 9.25 20.75 9.58579 20.75 10V21C20.75 21.4142 20.4142 21.75 20 21.75C19.5858 21.75 19.25 21.4142 19.25 21V10C19.25 9.58579 19.5858 9.25 20 9.25Z" fill="#212529"/>
<path fill-rule="evenodd" clip-rule="evenodd" d="M8 13.25C8.41421 13.25 8.75 13.5858 8.75 14V17C8.75 17.4142 8.41421 17.75 8 17.75C7.58579 17.75 7.25 17.4142 7.25 17V14C7.25 13.5858 7.58579 13.25 8 13.25Z" fill="#212529"/>
<path fill-rule="evenodd" clip-rule="evenodd" d="M12 13.25C12.4142 13.25 12.75 13.5858 12.75 14V17C12.75 17.4142 12.4142 17.75 12 17.75C11.5858 17.75 11.25 17.4142 11.25 17V14C11.25 13.5858 11.5858 13.25 12 13.25Z" fill="#212529"/>
<path fill-rule="evenodd" clip-rule="evenodd" d="M16 13.25C16.4142 13.25 16.75 13.5858 16.75 14V17C16.75 17.4142 16.4142 17.75 16 17.75C15.5858 17.75 15.25 17.4142 15.25 17V14C15.25 13.5858 15.5858 13.25 16 13.25Z" fill="#212529"/>
</svg>
