<svg width="24" height="24" viewBox="0 0 24 24" fill="none" xmlns="http://www.w3.org/2000/svg">
<path fill-rule="evenodd" clip-rule="evenodd" d="M12 2.25C12.4142 2.25 12.75 2.58579 12.75 3V4C12.75 4.41421 12.4142 4.75 12 4.75C11.5858 4.75 11.25 4.41421 11.25 4V3C11.25 2.58579 11.5858 2.25 12 2.25ZM5.06967 5.06967C5.36256 4.77678 5.83744 4.77678 6.13033 5.06967L6.83033 5.76967C7.12322 6.06256 7.12322 6.53744 6.83033 6.83033C6.53744 7.12322 6.06256 7.12322 5.76967 6.83033L5.06967 6.13033C4.77678 5.83744 4.77678 5.36256 5.06967 5.06967ZM18.9303 5.06967C19.2232 5.36256 19.2232 5.83744 18.9303 6.13033L18.2303 6.83033C17.9374 7.12322 17.4626 7.12322 17.1697 6.83033C16.8768 6.53744 16.8768 6.06256 17.1697 5.76967L17.8697 5.06967C18.1626 4.77678 18.6374 4.77678 18.9303 5.06967ZM2.25 12C2.25 11.5858 2.58579 11.25 3 11.25H4C4.41421 11.25 4.75 11.5858 4.75 12C4.75 12.4142 4.41421 12.75 4 12.75H3C2.58579 12.75 2.25 12.4142 2.25 12ZM19.25 12C19.25 11.5858 19.5858 11.25 20 11.25H21C21.4142 11.25 21.75 11.5858 21.75 12C21.75 12.4142 21.4142 12.75 21 12.75H20C19.5858 12.75 19.25 12.4142 19.25 12Z" fill="#212529"/>
<path fill-rule="evenodd" clip-rule="evenodd" d="M12.0004 7.75C10.171 7.75 8.54695 8.92058 7.96847 10.656C7.3912 12.3878 7.9844 14.2944 9.44115 15.3931C9.45794 15.4053 9.47434 15.4183 9.4903 15.4321C9.50695 15.4464 9.52283 15.4614 9.53793 15.4768C10.4774 16.413 10.9254 17.7334 10.7512 19.0462C10.7755 19.7152 11.3255 20.25 12.0004 20.25C12.6752 20.25 13.2252 19.7152 13.2495 19.0462C13.0747 17.7287 13.5265 16.4037 14.4727 15.467C14.4971 15.4429 14.523 15.4205 14.5504 15.4C16.0138 14.3024 16.6108 12.3915 16.0323 10.656C15.4538 8.92058 13.8297 7.75 12.0004 7.75ZM8.50554 16.566C6.55824 15.0758 5.76872 12.5119 6.54544 10.1817C7.3281 7.83372 9.5254 6.25 12.0004 6.25C14.4753 6.25 16.6726 7.83372 17.4553 10.1817C18.232 12.5119 17.4425 15.0758 15.4952 16.566C14.8956 17.1799 14.6164 18.0395 14.7423 18.8902C14.7477 18.9265 14.7504 18.9632 14.7504 19C14.7504 20.5188 13.5192 21.75 12.0004 21.75C10.4816 21.75 9.25037 20.5188 9.25037 19C9.25037 18.9632 9.25307 18.9265 9.25846 18.8902C9.38439 18.0395 9.10512 17.1799 8.50554 16.566Z" fill="#212529"/>
<path fill-rule="evenodd" clip-rule="evenodd" d="M8.95001 17C8.95001 16.5858 9.2858 16.25 9.70001 16.25H14.3C14.7142 16.25 15.05 16.5858 15.05 17C15.05 17.4142 14.7142 17.75 14.3 17.75H9.70001C9.2858 17.75 8.95001 17.4142 8.95001 17Z" fill="#212529"/>
</svg>
