<svg width="24" height="24" viewBox="0 0 24 24" fill="none" xmlns="http://www.w3.org/2000/svg">
<path fill-rule="evenodd" clip-rule="evenodd" d="M3.25 5C3.25 3.48122 4.48122 2.25 6 2.25H18C19.5188 2.25 20.75 3.48122 20.75 5V19C20.75 20.5188 19.5188 21.75 18 21.75H6C4.48122 21.75 3.25 20.5188 3.25 19V5ZM6 3.75C5.30964 3.75 4.75 4.30964 4.75 5V19C4.75 19.6904 5.30964 20.25 6 20.25H18C18.6904 20.25 19.25 19.6904 19.25 19V5C19.25 4.30964 18.6904 3.75 18 3.75H6Z" fill="#212529"/>
<path fill-rule="evenodd" clip-rule="evenodd" d="M7.25 8C7.25 7.0335 8.0335 6.25 9 6.25H15C15.9665 6.25 16.75 7.0335 16.75 8V9C16.75 9.9665 15.9665 10.75 15 10.75H9C8.0335 10.75 7.25 9.9665 7.25 9V8ZM9 7.75C8.86193 7.75 8.75 7.86193 8.75 8V9C8.75 9.13807 8.86193 9.25 9 9.25H15C15.1381 9.25 15.25 9.13807 15.25 9V8C15.25 7.86193 15.1381 7.75 15 7.75H9Z" fill="#212529"/>
<path fill-rule="evenodd" clip-rule="evenodd" d="M8 13.25C8.41421 13.25 8.75 13.5858 8.75 14V14.01C8.75 14.4242 8.41421 14.76 8 14.76C7.58579 14.76 7.25 14.4242 7.25 14.01V14C7.25 13.5858 7.58579 13.25 8 13.25Z" fill="#212529"/>
<path fill-rule="evenodd" clip-rule="evenodd" d="M12 13.25C12.4142 13.25 12.75 13.5858 12.75 14V14.01C12.75 14.4242 12.4142 14.76 12 14.76C11.5858 14.76 11.25 14.4242 11.25 14.01V14C11.25 13.5858 11.5858 13.25 12 13.25Z" fill="#212529"/>
<path fill-rule="evenodd" clip-rule="evenodd" d="M16 13.25C16.4142 13.25 16.75 13.5858 16.75 14V14.01C16.75 14.4242 16.4142 14.76 16 14.76C15.5858 14.76 15.25 14.4242 15.25 14.01V14C15.25 13.5858 15.5858 13.25 16 13.25Z" fill="#212529"/>
<path fill-rule="evenodd" clip-rule="evenodd" d="M8 16.25C8.41421 16.25 8.75 16.5858 8.75 17V17.01C8.75 17.4242 8.41421 17.76 8 17.76C7.58579 17.76 7.25 17.4242 7.25 17.01V17C7.25 16.5858 7.58579 16.25 8 16.25Z" fill="#212529"/>
<path fill-rule="evenodd" clip-rule="evenodd" d="M12 16.25C12.4142 16.25 12.75 16.5858 12.75 17V17.01C12.75 17.4242 12.4142 17.76 12 17.76C11.5858 17.76 11.25 17.4242 11.25 17.01V17C11.25 16.5858 11.5858 16.25 12 16.25Z" fill="#212529"/>
<path fill-rule="evenodd" clip-rule="evenodd" d="M16 16.25C16.4142 16.25 16.75 16.5858 16.75 17V17.01C16.75 17.4242 16.4142 17.76 16 17.76C15.5858 17.76 15.25 17.4242 15.25 17.01V17C15.25 16.5858 15.5858 16.25 16 16.25Z" fill="#212529"/>
</svg>
