<svg width="24" height="24" viewBox="0 0 24 24" fill="none" xmlns="http://www.w3.org/2000/svg">
<path fill-rule="evenodd" clip-rule="evenodd" d="M5 5.75C4.30964 5.75 3.75 6.30964 3.75 7V19C3.75 19.6904 4.30964 20.25 5 20.25H11.795C12.2092 20.25 12.545 20.5858 12.545 21C12.545 21.4142 12.2092 21.75 11.795 21.75H5C3.48122 21.75 2.25 20.5188 2.25 19V7C2.25 5.48122 3.48122 4.25 5 4.25H17C18.5188 4.25 19.75 5.48122 19.75 7V11C19.75 11.4142 19.4142 11.75 19 11.75C18.5858 11.75 18.25 11.4142 18.25 11V7C18.25 6.30964 17.6904 5.75 17 5.75H5Z" fill="black"/>
<path fill-rule="evenodd" clip-rule="evenodd" d="M18 14.75C16.2051 14.75 14.75 16.2051 14.75 18C14.75 19.7949 16.2051 21.25 18 21.25C19.7949 21.25 21.25 19.7949 21.25 18C21.25 16.2051 19.7949 14.75 18 14.75ZM13.25 18C13.25 15.3766 15.3766 13.25 18 13.25C20.6234 13.25 22.75 15.3766 22.75 18C22.75 20.6234 20.6234 22.75 18 22.75C15.3766 22.75 13.25 20.6234 13.25 18Z" fill="black"/>
<path fill-rule="evenodd" clip-rule="evenodd" d="M15 2.25C15.4142 2.25 15.75 2.58579 15.75 3V7C15.75 7.41421 15.4142 7.75 15 7.75C14.5858 7.75 14.25 7.41421 14.25 7V3C14.25 2.58579 14.5858 2.25 15 2.25Z" fill="black"/>
<path fill-rule="evenodd" clip-rule="evenodd" d="M7 2.25C7.41421 2.25 7.75 2.58579 7.75 3V7C7.75 7.41421 7.41421 7.75 7 7.75C6.58579 7.75 6.25 7.41421 6.25 7V3C6.25 2.58579 6.58579 2.25 7 2.25Z" fill="black"/>
<path fill-rule="evenodd" clip-rule="evenodd" d="M2.25 11C2.25 10.5858 2.58579 10.25 3 10.25H19C19.4142 10.25 19.75 10.5858 19.75 11C19.75 11.4142 19.4142 11.75 19 11.75H3C2.58579 11.75 2.25 11.4142 2.25 11Z" fill="black"/>
<path fill-rule="evenodd" clip-rule="evenodd" d="M18 15.7461C18.4142 15.7461 18.75 16.0819 18.75 16.4961V17.6894L19.5303 18.4698C19.8232 18.7627 19.8232 19.2375 19.5303 19.5304C19.2374 19.8233 18.7626 19.8233 18.4697 19.5304L17.4697 18.5304C17.329 18.3898 17.25 18.199 17.25 18.0001V16.4961C17.25 16.0819 17.5858 15.7461 18 15.7461Z" fill="black"/>
</svg>
