<svg width="24" height="24" viewBox="0 0 24 24" fill="none" xmlns="http://www.w3.org/2000/svg">
<path fill-rule="evenodd" clip-rule="evenodd" d="M3.25 7C3.25 5.48122 4.48122 4.25 6 4.25H18C19.5188 4.25 20.75 5.48122 20.75 7V19C20.75 20.5188 19.5188 21.75 18 21.75H6C4.48122 21.75 3.25 20.5188 3.25 19V7ZM6 5.75C5.30964 5.75 4.75 6.30964 4.75 7V19C4.75 19.6904 5.30964 20.25 6 20.25H18C18.6904 20.25 19.25 19.6904 19.25 19V7C19.25 6.30964 18.6904 5.75 18 5.75H6Z" fill="#212529"/>
<path fill-rule="evenodd" clip-rule="evenodd" d="M16 2.25C16.4142 2.25 16.75 2.58579 16.75 3V7C16.75 7.41421 16.4142 7.75 16 7.75C15.5858 7.75 15.25 7.41421 15.25 7V3C15.25 2.58579 15.5858 2.25 16 2.25Z" fill="#212529"/>
<path fill-rule="evenodd" clip-rule="evenodd" d="M8 2.25C8.41421 2.25 8.75 2.58579 8.75 3V7C8.75 7.41421 8.41421 7.75 8 7.75C7.58579 7.75 7.25 7.41421 7.25 7V3C7.25 2.58579 7.58579 2.25 8 2.25Z" fill="#212529"/>
<path fill-rule="evenodd" clip-rule="evenodd" d="M3.25 11C3.25 10.5858 3.58579 10.25 4 10.25H20C20.4142 10.25 20.75 10.5858 20.75 11C20.75 11.4142 20.4142 11.75 20 11.75H4C3.58579 11.75 3.25 11.4142 3.25 11Z" fill="#212529"/>
</svg>
