<svg width="24" height="24" viewBox="0 0 24 24" fill="none" xmlns="http://www.w3.org/2000/svg">
<path fill-rule="evenodd" clip-rule="evenodd" d="M2.25 13C2.25 12.0335 3.0335 11.25 4 11.25H8C8.9665 11.25 9.75 12.0335 9.75 13V19C9.75 19.9665 8.9665 20.75 8 20.75H4C3.0335 20.75 2.25 19.9665 2.25 19V13ZM4 12.75C3.86193 12.75 3.75 12.8619 3.75 13V19C3.75 19.1381 3.86193 19.25 4 19.25H8C8.13807 19.25 8.25 19.1381 8.25 19V13C8.25 12.8619 8.13807 12.75 8 12.75H4Z" fill="black"/>
<path fill-rule="evenodd" clip-rule="evenodd" d="M8.25 9C8.25 8.0335 9.0335 7.25 10 7.25H14C14.9665 7.25 15.75 8.0335 15.75 9V19C15.75 19.9665 14.9665 20.75 14 20.75H10C9.0335 20.75 8.25 19.9665 8.25 19V9ZM10 8.75C9.86193 8.75 9.75 8.86193 9.75 9V19C9.75 19.1381 9.86193 19.25 10 19.25H14C14.1381 19.25 14.25 19.1381 14.25 19V9C14.25 8.86193 14.1381 8.75 14 8.75H10Z" fill="black"/>
<path fill-rule="evenodd" clip-rule="evenodd" d="M14.25 5C14.25 4.0335 15.0335 3.25 16 3.25H20C20.9665 3.25 21.75 4.0335 21.75 5V19C21.75 19.9665 20.9665 20.75 20 20.75H16C15.0335 20.75 14.25 19.9665 14.25 19V5ZM16 4.75C15.8619 4.75 15.75 4.86193 15.75 5V19C15.75 19.1381 15.8619 19.25 16 19.25H20C20.1381 19.25 20.25 19.1381 20.25 19V5C20.25 4.86193 20.1381 4.75 20 4.75H16Z" fill="black"/>
<path fill-rule="evenodd" clip-rule="evenodd" d="M3.25 20C3.25 19.5858 3.58579 19.25 4 19.25H18C18.4142 19.25 18.75 19.5858 18.75 20C18.75 20.4142 18.4142 20.75 18 20.75H4C3.58579 20.75 3.25 20.4142 3.25 20Z" fill="black"/>
</svg>
