<svg width="24" height="24" viewBox="0 0 24 24" fill="none" xmlns="http://www.w3.org/2000/svg">
<path fill-rule="evenodd" clip-rule="evenodd" d="M15.7458 6.80053C14.443 5.76601 12.6037 5.42454 10.9294 5.93104C9.25791 6.43668 8.06292 7.68889 7.73175 9.16426C7.65489 9.50666 7.35088 9.75 6.99996 9.75C4.78415 9.75 3.04541 11.46 3.04541 13.5C3.04541 15.54 4.78415 17.25 6.99996 17.25C7.41417 17.25 7.74996 17.5858 7.74996 18C7.74996 18.4142 7.41417 18.75 6.99996 18.75C4.01926 18.75 1.54541 16.4306 1.54541 13.5C1.54541 10.7602 3.70764 8.55459 6.42479 8.27902C7.03541 6.48227 8.56163 5.08018 10.495 4.4953C12.6211 3.85214 14.975 4.27307 16.6786 5.62582C18.1382 6.78484 18.9393 8.48968 18.8555 10.25H19C21.3472 10.25 23.25 12.1528 23.25 14.5C23.25 16.8472 21.3472 18.75 19 18.75H18C17.5857 18.75 17.25 18.4142 17.25 18C17.25 17.5858 17.5857 17.25 18 17.25H19C20.5187 17.25 21.75 16.0188 21.75 14.5C21.75 12.9812 20.5187 11.75 19 11.75H18C17.7722 11.75 17.5568 11.6465 17.4144 11.4687C17.2721 11.2908 17.2183 11.058 17.2682 10.8357C17.5975 9.3684 17.0406 7.82865 15.7458 6.80053Z" fill="#212529"/>
<path fill-rule="evenodd" clip-rule="evenodd" d="M13.3354 13.3292C13.7059 13.5144 13.8561 13.9649 13.6708 14.3354L12.2135 17.25H14C14.2599 17.25 14.5013 17.3846 14.638 17.6057C14.7746 17.8268 14.7871 18.1029 14.6708 18.3354L12.6708 22.3354C12.4856 22.7059 12.0351 22.8561 11.6646 22.6708C11.2941 22.4856 11.1439 22.0351 11.3292 21.6646L12.7865 18.75H11C10.7401 18.75 10.4987 18.6154 10.362 18.3943C10.2254 18.1732 10.2129 17.8971 10.3292 17.6646L12.3292 13.6646C12.5144 13.2941 12.9649 13.1439 13.3354 13.3292Z" fill="#212529"/>
</svg>
