<svg width="24" height="24" viewBox="0 0 24 24" fill="none" xmlns="http://www.w3.org/2000/svg">
<path d="M9.53001 6.47001C9.38939 6.32956 9.19876 6.25067 9.00001 6.25067C8.80126 6.25067 8.61064 6.32956 8.47001 6.47001L3.47001 11.47C3.32956 11.6106 3.25067 11.8013 3.25067 12C3.25067 12.1988 3.32956 12.3894 3.47001 12.53L8.47001 17.53C8.61064 17.6705 8.80126 17.7494 9.00001 17.7494C9.19876 17.7494 9.38939 17.6705 9.53001 17.53C9.67046 17.3894 9.74935 17.1988 9.74935 17C9.74935 16.8013 9.67046 16.6106 9.53001 16.47L5.06001 12L9.53001 7.53001C9.67046 7.38939 9.74935 7.19876 9.74935 7.00001C9.74935 6.80126 9.67046 6.61064 9.53001 6.47001V6.47001Z" fill="black"/>
<path d="M20.53 11.47L15.53 6.47003C15.3878 6.33755 15.1998 6.26543 15.0055 6.26885C14.8112 6.27228 14.6258 6.35099 14.4884 6.48841C14.351 6.62582 14.2723 6.81121 14.2688 7.00551C14.2654 7.19981 14.3375 7.38785 14.47 7.53003L18.94 12L14.47 16.47C14.3296 16.6107 14.2507 16.8013 14.2507 17C14.2507 17.1988 14.3296 17.3894 14.47 17.53C14.6106 17.6705 14.8013 17.7494 15 17.7494C15.1988 17.7494 15.3894 17.6705 15.53 17.53L20.53 12.53C20.6705 12.3894 20.7494 12.1988 20.7494 12C20.7494 11.8013 20.6705 11.6107 20.53 11.47Z" fill="black"/>
</svg>
