<svg width="24" height="24" viewBox="0 0 24 24" fill="none" xmlns="http://www.w3.org/2000/svg">
<path fill-rule="evenodd" clip-rule="evenodd" d="M13.4911 13.75C12.191 13.7345 11.1226 14.08 10.4589 14.5933C9.46451 15.3625 8.04246 15.7669 6.50004 15.7501C4.95761 15.7669 3.53556 15.3625 2.54117 14.5933C2.21353 14.3399 2.15337 13.8688 2.40679 13.5412C2.66022 13.2136 3.13127 13.1534 3.45891 13.4068C4.12259 13.9202 5.19095 14.2656 6.49108 14.2501H6.509C7.80912 14.2656 8.87748 13.9202 9.54117 13.4068C10.5356 12.6377 11.9576 12.2332 13.5 12.25C15.0425 12.2332 16.4645 12.6377 17.4589 13.4068C17.7865 13.6602 17.8467 14.1313 17.5933 14.4589C17.3399 14.7866 16.8688 14.8467 16.5412 14.5933C15.8775 14.08 14.8091 13.7345 13.509 13.75H13.4911Z" fill="#212529"/>
<path fill-rule="evenodd" clip-rule="evenodd" d="M8.60933 2.56272C8.85087 2.89922 8.77388 3.36782 8.43738 3.60935C7.99565 3.92641 7.73849 4.44074 7.74988 4.98435C7.7501 4.99482 7.7501 5.00529 7.74988 5.01576C7.73849 5.55938 7.99565 6.07371 8.43738 6.39076C8.77388 6.6323 8.85087 7.10089 8.60933 7.43739C8.3678 7.7739 7.89921 7.85088 7.5627 7.60935C6.72367 7.00711 6.23343 6.03206 6.24991 5.00006C6.23343 3.96805 6.72367 2.993 7.5627 2.39076C7.89921 2.14923 8.3678 2.22622 8.60933 2.56272Z" fill="#212529"/>
<path fill-rule="evenodd" clip-rule="evenodd" d="M12.6093 2.56272C12.8509 2.89922 12.7739 3.36782 12.4374 3.60935C11.9957 3.92641 11.7385 4.44074 11.7499 4.98435C11.7501 4.99482 11.7501 5.00529 11.7499 5.01576C11.7385 5.55938 11.9957 6.07371 12.4374 6.39076C12.7739 6.6323 12.8509 7.10089 12.6093 7.43739C12.3678 7.7739 11.8992 7.85088 11.5627 7.60935C10.7237 7.00711 10.2334 6.03206 10.2499 5.00006C10.2334 3.96805 10.7237 2.993 11.5627 2.39076C11.8992 2.14923 12.3678 2.22622 12.6093 2.56272Z" fill="#212529"/>
<path fill-rule="evenodd" clip-rule="evenodd" d="M2.25 10C2.25 9.58579 2.58579 9.25 3 9.25H17C17.4142 9.25 17.75 9.58579 17.75 10V15C17.75 18.7279 14.7279 21.75 11 21.75H9C5.27208 21.75 2.25 18.7279 2.25 15V10ZM3.75 10.75V15C3.75 17.8995 6.10051 20.25 9 20.25H11C13.8995 20.25 16.25 17.8995 16.25 15V10.75H3.75Z" fill="#212529"/>
<path fill-rule="evenodd" clip-rule="evenodd" d="M16.7481 10.4639C18.3417 9.90071 20.1151 10.4732 21.0786 11.8618C22.0421 13.2504 21.9577 15.1119 20.8724 16.4076C19.7871 17.7032 17.9692 18.1128 16.4331 17.4076C16.0567 17.2348 15.8916 16.7896 16.0644 16.4131C16.2372 16.0367 16.6825 15.8716 17.0589 16.0444C17.9806 16.4675 19.0713 16.2218 19.7225 15.4444C20.3737 14.667 20.4243 13.55 19.8462 12.7169C19.2681 11.8837 18.2041 11.5403 17.2479 11.8782C16.8574 12.0162 16.4289 11.8115 16.2909 11.4209C16.1529 11.0304 16.3576 10.6019 16.7481 10.4639Z" fill="#212529"/>
</svg>
