<svg width="24" height="24" viewBox="0 0 24 24" fill="none" xmlns="http://www.w3.org/2000/svg">
<path fill-rule="evenodd" clip-rule="evenodd" d="M12 3.75C7.44365 3.75 3.75 7.44365 3.75 12C3.75 16.5563 7.44365 20.25 12 20.25C16.5563 20.25 20.25 16.5563 20.25 12C20.25 7.44365 16.5563 3.75 12 3.75ZM2.25 12C2.25 6.61522 6.61522 2.25 12 2.25C17.3848 2.25 21.75 6.61522 21.75 12C21.75 17.3848 17.3848 21.75 12 21.75C6.61522 21.75 2.25 17.3848 2.25 12Z" fill="#212529"/>
<path fill-rule="evenodd" clip-rule="evenodd" d="M12.9884 7.24998C13.999 7.22094 14.9445 7.74889 15.4498 8.6254C15.6566 8.98426 15.5334 9.44287 15.1746 9.64974C14.8157 9.85662 14.3571 9.73341 14.1502 9.37455C13.9195 8.97435 13.4869 8.73401 13.0252 8.74955C13.0168 8.74984 13.0084 8.74998 13 8.74998H11C10.3096 8.74998 9.75 9.30962 9.75 9.99998C9.75 10.6903 10.3096 11.25 11 11.25H13C14.5188 11.25 15.75 12.4812 15.75 14C15.75 15.5188 14.5188 16.75 13 16.75H11.0116C10.0011 16.779 9.05553 16.2511 8.55024 15.3746C8.34336 15.0157 8.46657 14.5571 8.82542 14.3502C9.18428 14.1433 9.64289 14.2665 9.84976 14.6254C10.0805 15.0256 10.5131 15.2659 10.9748 15.2504C10.9832 15.2501 10.9916 15.25 11 15.25H13C13.6904 15.25 14.25 14.6903 14.25 14C14.25 13.3096 13.6904 12.75 13 12.75H11C9.48122 12.75 8.25 11.5188 8.25 9.99998C8.25 8.4812 9.48122 7.24998 11 7.24998H12.9884Z" fill="#212529"/>
<path fill-rule="evenodd" clip-rule="evenodd" d="M12 5.25C12.4142 5.25 12.75 5.58579 12.75 6V8C12.75 8.41421 12.4142 8.75 12 8.75C11.5858 8.75 11.25 8.41421 11.25 8V6C11.25 5.58579 11.5858 5.25 12 5.25ZM12 15.25C12.4142 15.25 12.75 15.5858 12.75 16V18C12.75 18.4142 12.4142 18.75 12 18.75C11.5858 18.75 11.25 18.4142 11.25 18V16C11.25 15.5858 11.5858 15.25 12 15.25Z" fill="#212529"/>
</svg>
