<svg width="24" height="24" viewBox="0 0 24 24" fill="none" xmlns="http://www.w3.org/2000/svg">
<path fill-rule="evenodd" clip-rule="evenodd" d="M2.25 5C2.25 4.0335 3.0335 3.25 4 3.25H20C20.9665 3.25 21.75 4.0335 21.75 5V15C21.75 15.9665 20.9665 16.75 20 16.75H4C3.0335 16.75 2.25 15.9665 2.25 15V5ZM4 4.75C3.86193 4.75 3.75 4.86193 3.75 5V15C3.75 15.1381 3.86193 15.25 4 15.25H20C20.1381 15.25 20.25 15.1381 20.25 15V5C20.25 4.86193 20.1381 4.75 20 4.75H4Z" fill="black"/>
<path fill-rule="evenodd" clip-rule="evenodd" d="M6.25 20C6.25 19.5858 6.58579 19.25 7 19.25H17C17.4142 19.25 17.75 19.5858 17.75 20C17.75 20.4142 17.4142 20.75 17 20.75H7C6.58579 20.75 6.25 20.4142 6.25 20Z" fill="black"/>
<path fill-rule="evenodd" clip-rule="evenodd" d="M9 15.25C9.41421 15.25 9.75 15.5858 9.75 16V20C9.75 20.4142 9.41421 20.75 9 20.75C8.58579 20.75 8.25 20.4142 8.25 20V16C8.25 15.5858 8.58579 15.25 9 15.25Z" fill="black"/>
<path fill-rule="evenodd" clip-rule="evenodd" d="M15 15.25C15.4142 15.25 15.75 15.5858 15.75 16V20C15.75 20.4142 15.4142 20.75 15 20.75C14.5858 20.75 14.25 20.4142 14.25 20V16C14.25 15.5858 14.5858 15.25 15 15.25Z" fill="black"/>
</svg>
