<svg width="24" height="24" viewBox="0 0 24 24" fill="none" xmlns="http://www.w3.org/2000/svg">
<path fill-rule="evenodd" clip-rule="evenodd" d="M2.25 5C2.25 4.58579 2.58579 4.25 3 4.25H9C9.41421 4.25 9.75 4.58579 9.75 5V19C9.75 19.4142 9.41421 19.75 9 19.75H3C2.58579 19.75 2.25 19.4142 2.25 19V5ZM3.75 5.75V18.25H8.25V5.75H3.75Z" fill="#212529"/>
<path fill-rule="evenodd" clip-rule="evenodd" d="M11.25 9C11.25 8.58579 11.5858 8.25 12 8.25H22C22.4142 8.25 22.75 8.58579 22.75 9V16C22.75 16.4142 22.4142 16.75 22 16.75H12C11.5858 16.75 11.25 16.4142 11.25 16V9ZM12.75 9.75V15.25H21.25V9.75H12.75Z" fill="#212529"/>
<path fill-rule="evenodd" clip-rule="evenodd" d="M13.25 19C13.25 18.5858 13.5858 18.25 14 18.25H20C20.4142 18.25 20.75 18.5858 20.75 19C20.75 19.4142 20.4142 19.75 20 19.75H14C13.5858 19.75 13.25 19.4142 13.25 19Z" fill="#212529"/>
<path fill-rule="evenodd" clip-rule="evenodd" d="M17 15.25C17.4142 15.25 17.75 15.5858 17.75 16V19C17.75 19.4142 17.4142 19.75 17 19.75C16.5858 19.75 16.25 19.4142 16.25 19V16C16.25 15.5858 16.5858 15.25 17 15.25Z" fill="#212529"/>
<path fill-rule="evenodd" clip-rule="evenodd" d="M6 12.25C6.41421 12.25 6.75 12.5858 6.75 13V13.01C6.75 13.4242 6.41421 13.76 6 13.76C5.58579 13.76 5.25 13.4242 5.25 13.01V13C5.25 12.5858 5.58579 12.25 6 12.25Z" fill="#212529"/>
<path fill-rule="evenodd" clip-rule="evenodd" d="M6 15.25C6.41421 15.25 6.75 15.5858 6.75 16V16.01C6.75 16.4242 6.41421 16.76 6 16.76C5.58579 16.76 5.25 16.4242 5.25 16.01V16C5.25 15.5858 5.58579 15.25 6 15.25Z" fill="#212529"/>
</svg>
