<svg width="24" height="24" viewBox="0 0 24 24" fill="none" xmlns="http://www.w3.org/2000/svg">
<path fill-rule="evenodd" clip-rule="evenodd" d="M5.25 9C5.25 6.92893 6.92893 5.25 9 5.25H15C17.0711 5.25 18.75 6.92893 18.75 9V15C18.75 17.0711 17.0711 18.75 15 18.75H9C6.92893 18.75 5.25 17.0711 5.25 15V9ZM9 6.75C7.75736 6.75 6.75 7.75736 6.75 9V15C6.75 16.2426 7.75736 17.25 9 17.25H15C16.2426 17.25 17.25 16.2426 17.25 15V9C17.25 7.75736 16.2426 6.75 15 6.75H9Z" fill="#212529"/>
<path fill-rule="evenodd" clip-rule="evenodd" d="M9 17.25C9.41421 17.25 9.75 17.5858 9.75 18V20.25H14.25V18C14.25 17.5858 14.5858 17.25 15 17.25C15.4142 17.25 15.75 17.5858 15.75 18V21C15.75 21.4142 15.4142 21.75 15 21.75H9C8.58579 21.75 8.25 21.4142 8.25 21V18C8.25 17.5858 8.58579 17.25 9 17.25Z" fill="#212529"/>
<path fill-rule="evenodd" clip-rule="evenodd" d="M8.25 3C8.25 2.58579 8.58579 2.25 9 2.25H15C15.4142 2.25 15.75 2.58579 15.75 3V6C15.75 6.41421 15.4142 6.75 15 6.75C14.5858 6.75 14.25 6.41421 14.25 6V3.75H9.75V6C9.75 6.41421 9.41421 6.75 9 6.75C8.58579 6.75 8.25 6.41421 8.25 6V3Z" fill="#212529"/>
</svg>
