<svg width="24" height="24" viewBox="0 0 24 24" fill="none" xmlns="http://www.w3.org/2000/svg">
<path fill-rule="evenodd" clip-rule="evenodd" d="M2.25 9C2.25 7.48122 3.48122 6.25 5 6.25H19C20.5188 6.25 21.75 7.48122 21.75 9V18C21.75 19.5188 20.5188 20.75 19 20.75H5C3.48122 20.75 2.25 19.5188 2.25 18V9ZM5 7.75C4.30964 7.75 3.75 8.30964 3.75 9V18C3.75 18.6904 4.30964 19.25 5 19.25H19C19.6904 19.25 20.25 18.6904 20.25 18V9C20.25 8.30964 19.6904 7.75 19 7.75H5Z" fill="#212529"/>
<path fill-rule="evenodd" clip-rule="evenodd" d="M7.46967 2.46967C7.76256 2.17678 8.23744 2.17678 8.53033 2.46967L12 5.93934L15.4697 2.46967C15.7626 2.17678 16.2374 2.17678 16.5303 2.46967C16.8232 2.76256 16.8232 3.23744 16.5303 3.53033L12.5303 7.53033C12.2374 7.82322 11.7626 7.82322 11.4697 7.53033L7.46967 3.53033C7.17678 3.23744 7.17678 2.76256 7.46967 2.46967Z" fill="#212529"/>
</svg>
