<svg width="24" height="24" viewBox="0 0 24 24" fill="none" xmlns="http://www.w3.org/2000/svg">
<path fill-rule="evenodd" clip-rule="evenodd" d="M6.25 5C6.25 4.0335 7.0335 3.25 8 3.25H16C16.9665 3.25 17.75 4.0335 17.75 5V19C17.75 19.9665 16.9665 20.75 16 20.75H8C7.0335 20.75 6.25 19.9665 6.25 19V5ZM8 4.75C7.86193 4.75 7.75 4.86193 7.75 5V19C7.75 19.1381 7.86193 19.25 8 19.25H16C16.1381 19.25 16.25 19.1381 16.25 19V5C16.25 4.86193 16.1381 4.75 16 4.75H8Z" fill="#212529"/>
<path fill-rule="evenodd" clip-rule="evenodd" d="M10.25 5C10.25 4.58579 10.5858 4.25 11 4.25H13C13.4142 4.25 13.75 4.58579 13.75 5C13.75 5.41421 13.4142 5.75 13 5.75H11C10.5858 5.75 10.25 5.41421 10.25 5Z" fill="#212529"/>
<path fill-rule="evenodd" clip-rule="evenodd" d="M12 16.25C12.4142 16.25 12.75 16.5858 12.75 17V17.01C12.75 17.4242 12.4142 17.76 12 17.76C11.5858 17.76 11.25 17.4242 11.25 17.01V17C11.25 16.5858 11.5858 16.25 12 16.25Z" fill="#212529"/>
</svg>
