<svg width="24" height="24" viewBox="0 0 24 24" fill="none" xmlns="http://www.w3.org/2000/svg">
<path fill-rule="evenodd" clip-rule="evenodd" d="M4 5.75C3.86193 5.75 3.75 5.86193 3.75 6V14C3.75 14.1381 3.86193 14.25 4 14.25H10C10.4142 14.25 10.75 14.5858 10.75 15C10.75 15.4142 10.4142 15.75 10 15.75H4C3.0335 15.75 2.25 14.9665 2.25 14V6C2.25 5.0335 3.0335 4.25 4 4.25H10C10.4142 4.25 10.75 4.58579 10.75 5C10.75 5.41421 10.4142 5.75 10 5.75H4Z" fill="#212529"/>
<path fill-rule="evenodd" clip-rule="evenodd" d="M12.25 5C12.25 4.0335 13.0335 3.25 14 3.25H20C20.9665 3.25 21.75 4.0335 21.75 5V19C21.75 19.9665 20.9665 20.75 20 20.75H14C13.0335 20.75 12.25 19.9665 12.25 19V5ZM14 4.75C13.8619 4.75 13.75 4.86193 13.75 5V19C13.75 19.1381 13.8619 19.25 14 19.25H20C20.1381 19.25 20.25 19.1381 20.25 19V5C20.25 4.86193 20.1381 4.75 20 4.75H14Z" fill="#212529"/>
<path fill-rule="evenodd" clip-rule="evenodd" d="M6.25 19C6.25 18.5858 6.58579 18.25 7 18.25H10C10.4142 18.25 10.75 18.5858 10.75 19C10.75 19.4142 10.4142 19.75 10 19.75H7C6.58579 19.75 6.25 19.4142 6.25 19Z" fill="#212529"/>
<path fill-rule="evenodd" clip-rule="evenodd" d="M17 7.25C17.4142 7.25 17.75 7.58579 17.75 8V8.01C17.75 8.42421 17.4142 8.76 17 8.76C16.5858 8.76 16.25 8.42421 16.25 8.01V8C16.25 7.58579 16.5858 7.25 17 7.25Z" fill="#212529"/>
<path fill-rule="evenodd" clip-rule="evenodd" d="M17 15.75C16.8619 15.75 16.75 15.8619 16.75 16C16.75 16.1381 16.8619 16.25 17 16.25C17.1381 16.25 17.25 16.1381 17.25 16C17.25 15.8619 17.1381 15.75 17 15.75ZM15.25 16C15.25 15.0335 16.0335 14.25 17 14.25C17.9665 14.25 18.75 15.0335 18.75 16C18.75 16.9665 17.9665 17.75 17 17.75C16.0335 17.75 15.25 16.9665 15.25 16Z" fill="#212529"/>
<path fill-rule="evenodd" clip-rule="evenodd" d="M9 14.25C9.41421 14.25 9.75 14.5858 9.75 15V19C9.75 19.4142 9.41421 19.75 9 19.75C8.58579 19.75 8.25 19.4142 8.25 19V15C8.25 14.5858 8.58579 14.25 9 14.25Z" fill="#212529"/>
</svg>
