<svg width="24" height="24" viewBox="0 0 24 24" fill="none" xmlns="http://www.w3.org/2000/svg">
<path fill-rule="evenodd" clip-rule="evenodd" d="M4.25 4C4.25 3.0335 5.0335 2.25 6 2.25H18C18.9665 2.25 19.75 3.0335 19.75 4V20C19.75 20.9665 18.9665 21.75 18 21.75H6C5.0335 21.75 4.25 20.9665 4.25 20V4ZM6 3.75C5.86193 3.75 5.75 3.86193 5.75 4V20C5.75 20.1381 5.86193 20.25 6 20.25H18C18.1381 20.25 18.25 20.1381 18.25 20V4C18.25 3.86193 18.1381 3.75 18 3.75H6Z" fill="#212529"/>
<path fill-rule="evenodd" clip-rule="evenodd" d="M12 16.75C11.8619 16.75 11.75 16.8619 11.75 17C11.75 17.1381 11.8619 17.25 12 17.25C12.1381 17.25 12.25 17.1381 12.25 17C12.25 16.8619 12.1381 16.75 12 16.75ZM10.25 17C10.25 16.0335 11.0335 15.25 12 15.25C12.9665 15.25 13.75 16.0335 13.75 17C13.75 17.9665 12.9665 18.75 12 18.75C11.0335 18.75 10.25 17.9665 10.25 17Z" fill="#212529"/>
</svg>
