<svg width="24" height="24" viewBox="0 0 24 24" fill="none" xmlns="http://www.w3.org/2000/svg">
<path fill-rule="evenodd" clip-rule="evenodd" d="M11 3.75C10.3096 3.75 9.75 4.30964 9.75 5C9.75 5.69036 10.3096 6.25 11 6.25C11.6904 6.25 12.25 5.69036 12.25 5C12.25 4.30964 11.6904 3.75 11 3.75ZM8.25 5C8.25 3.48122 9.48122 2.25 11 2.25C12.5188 2.25 13.75 3.48122 13.75 5C13.75 6.51878 12.5188 7.75 11 7.75C9.48122 7.75 8.25 6.51878 8.25 5Z" fill="#212529"/>
<path fill-rule="evenodd" clip-rule="evenodd" d="M11 6.25C11.4142 6.25 11.75 6.58579 11.75 7V14.25H15C15.2278 14.25 15.4433 14.3536 15.5857 14.5315L19.5857 19.5315C19.8444 19.8549 19.792 20.3269 19.4685 20.5857C19.1451 20.8444 18.6731 20.792 18.4143 20.4685L14.6395 15.75H11C10.5858 15.75 10.25 15.4142 10.25 15V7C10.25 6.58579 10.5858 6.25 11 6.25Z" fill="#212529"/>
<path fill-rule="evenodd" clip-rule="evenodd" d="M10.25 11C10.25 10.5858 10.5858 10.25 11 10.25H16C16.4142 10.25 16.75 10.5858 16.75 11C16.75 11.4142 16.4142 11.75 16 11.75H11C10.5858 11.75 10.25 11.4142 10.25 11Z" fill="#212529"/>
<path fill-rule="evenodd" clip-rule="evenodd" d="M7.69288 11.213C7.85136 11.5957 7.66961 12.0344 7.28691 12.1929C5.61666 12.8846 4.56678 14.5572 4.66995 16.3621C4.77313 18.1669 6.00678 19.709 7.74498 20.2058C9.48317 20.7027 11.3454 20.0456 12.3869 18.5679C12.6255 18.2293 13.0934 18.1483 13.432 18.3869C13.7706 18.6255 13.8516 19.0934 13.613 19.432C12.2039 21.4312 9.6844 22.3203 7.33272 21.6481C4.98105 20.9759 3.31199 18.8895 3.1724 16.4477C3.03281 14.0058 4.45324 11.7428 6.71299 10.807C7.09568 10.6485 7.53439 10.8303 7.69288 11.213Z" fill="#212529"/>
</svg>
