<svg width="24" height="24" viewBox="0 0 24 24" fill="none" xmlns="http://www.w3.org/2000/svg">
<path fill-rule="evenodd" clip-rule="evenodd" d="M3.25 9C3.25 7.48122 4.48122 6.25 6 6.25H9C9.41421 6.25 9.75 6.58579 9.75 7C9.75 7.41421 9.41421 7.75 9 7.75H6C5.30964 7.75 4.75 8.30964 4.75 9V18C4.75 18.6904 5.30964 19.25 6 19.25H15C15.6904 19.25 16.25 18.6904 16.25 18V15C16.25 14.5858 16.5858 14.25 17 14.25C17.4142 14.25 17.75 14.5858 17.75 15V18C17.75 19.5188 16.5188 20.75 15 20.75H6C4.48122 20.75 3.25 19.5188 3.25 18V9Z" fill="#212529"/>
<path fill-rule="evenodd" clip-rule="evenodd" d="M16.9697 2.96965C18.091 1.84833 19.909 1.84833 21.0303 2.96965C22.1517 4.09097 22.1517 5.90899 21.0303 7.03031L12.5303 15.5303C12.3897 15.671 12.1989 15.75 12 15.75H9C8.58579 15.75 8.25 15.4142 8.25 15V12C8.25 11.8011 8.32902 11.6103 8.46967 11.4697L16.9697 2.96965ZM9.75 14.25H11.6893L19.9697 5.96965C20.5052 5.43412 20.5052 4.56585 19.9697 4.03031C19.4341 3.49478 18.5659 3.49478 18.0303 4.03031L9.75 12.3106V14.25Z" fill="#212529"/>
<path fill-rule="evenodd" clip-rule="evenodd" d="M15.4697 4.46967C15.7626 4.17678 16.2374 4.17678 16.5303 4.46967L19.5303 7.46967C19.8232 7.76256 19.8232 8.23744 19.5303 8.53033C19.2374 8.82322 18.7626 8.82322 18.4697 8.53033L15.4697 5.53033C15.1768 5.23744 15.1768 4.76256 15.4697 4.46967Z" fill="#212529"/>
</svg>
