<svg width="24" height="24" viewBox="0 0 24 24" fill="none" xmlns="http://www.w3.org/2000/svg">
<path fill-rule="evenodd" clip-rule="evenodd" d="M2.46967 2.46967C2.76256 2.17678 3.23744 2.17678 3.53033 2.46967L21.5303 20.4697C21.8232 20.7626 21.8232 21.2374 21.5303 21.5303C21.2374 21.8232 20.7626 21.8232 20.4697 21.5303L2.46967 3.53033C2.17678 3.23744 2.17678 2.76256 2.46967 2.46967Z" fill="#212529"/>
<path fill-rule="evenodd" clip-rule="evenodd" d="M11.1145 10.0569C11.4073 10.3499 11.4071 10.8248 11.1141 11.1176C10.6256 11.6057 10.6253 12.3974 11.1135 12.8859C11.6016 13.3744 12.3933 13.3747 12.8818 12.8865C13.1748 12.5937 13.6497 12.5939 13.9425 12.8869C14.2353 13.1799 14.2351 13.6548 13.9421 13.9476C12.8676 15.0213 11.1262 15.0207 10.0524 13.9462C8.97873 12.8717 8.97934 11.1302 10.0538 10.0565C10.3468 9.76373 10.8217 9.7639 11.1145 10.0569Z" fill="#212529"/>
<path fill-rule="evenodd" clip-rule="evenodd" d="M11.9973 5.74993C11.1762 5.74702 10.3588 5.86017 9.56927 6.08601C9.17104 6.19994 8.75585 5.96945 8.64192 5.57121C8.528 5.17297 8.75849 4.75778 9.15672 4.64386C10.0817 4.37927 11.0393 4.24665 12.0013 4.24994C16.3607 4.25046 19.9031 6.819 22.6512 11.6278C22.783 11.8584 22.7829 12.1415 22.6511 12.3721C21.8503 13.773 20.984 14.984 20.0478 15.997C19.7666 16.3012 19.2921 16.3199 18.9879 16.0387C18.6838 15.7576 18.6651 15.2831 18.9462 14.9789C19.7114 14.151 20.4404 13.1596 21.1317 11.9999C18.5889 7.73223 15.5387 5.74994 12 5.74994L11.9973 5.74993ZM7.25268 6.23793C7.4852 6.58072 7.39581 7.0471 7.05301 7.27962C5.54091 8.30528 4.14097 9.8651 2.86833 12C5.41111 16.2676 8.46133 18.2499 12 18.2499C13.79 18.2499 15.4284 17.745 16.9376 16.7271C17.281 16.4955 17.7472 16.5862 17.9788 16.9296C18.2104 17.273 18.1198 17.7391 17.7764 17.9707C16.0236 19.1529 14.094 19.7499 12 19.7499C7.63999 19.7499 4.09715 17.1814 1.34883 12.3721C1.21704 12.1414 1.21706 11.8583 1.34887 11.6277C2.75686 9.16453 4.37161 7.28591 6.21099 6.03825C6.55378 5.80573 7.02017 5.89513 7.25268 6.23793Z" fill="#212529"/>
</svg>
