<svg width="24" height="24" viewBox="0 0 24 24" fill="none" xmlns="http://www.w3.org/2000/svg">
<path fill-rule="evenodd" clip-rule="evenodd" d="M6 4.75C5.30964 4.75 4.75 5.30964 4.75 6V8C4.75 8.41421 4.41421 8.75 4 8.75C3.58579 8.75 3.25 8.41421 3.25 8V6C3.25 4.48122 4.48122 3.25 6 3.25H8C8.41421 3.25 8.75 3.58579 8.75 4C8.75 4.41421 8.41421 4.75 8 4.75H6Z" fill="#212529"/>
<path fill-rule="evenodd" clip-rule="evenodd" d="M4 15.25C4.41421 15.25 4.75 15.5858 4.75 16V18C4.75 18.6904 5.30964 19.25 6 19.25H8C8.41421 19.25 8.75 19.5858 8.75 20C8.75 20.4142 8.41421 20.75 8 20.75H6C4.48122 20.75 3.25 19.5188 3.25 18V16C3.25 15.5858 3.58579 15.25 4 15.25Z" fill="#212529"/>
<path fill-rule="evenodd" clip-rule="evenodd" d="M15.25 4C15.25 3.58579 15.5858 3.25 16 3.25H18C19.5188 3.25 20.75 4.48122 20.75 6V8C20.75 8.41421 20.4142 8.75 20 8.75C19.5858 8.75 19.25 8.41421 19.25 8V6C19.25 5.30964 18.6904 4.75 18 4.75H16C15.5858 4.75 15.25 4.41421 15.25 4Z" fill="#212529"/>
<path fill-rule="evenodd" clip-rule="evenodd" d="M20 15.25C20.4142 15.25 20.75 15.5858 20.75 16V18C20.75 19.5188 19.5188 20.75 18 20.75H16C15.5858 20.75 15.25 20.4142 15.25 20C15.25 19.5858 15.5858 19.25 16 19.25H18C18.6904 19.25 19.25 18.6904 19.25 18V16C19.25 15.5858 19.5858 15.25 20 15.25Z" fill="#212529"/>
<path fill-rule="evenodd" clip-rule="evenodd" d="M8.25 10C8.25 9.58579 8.58579 9.25 9 9.25H9.01C9.42421 9.25 9.76 9.58579 9.76 10C9.76 10.4142 9.42421 10.75 9.01 10.75H9C8.58579 10.75 8.25 10.4142 8.25 10Z" fill="#212529"/>
<path fill-rule="evenodd" clip-rule="evenodd" d="M14.25 10C14.25 9.58579 14.5858 9.25 15 9.25H15.01C15.4242 9.25 15.76 9.58579 15.76 10C15.76 10.4142 15.4242 10.75 15.01 10.75H15C14.5858 10.75 14.25 10.4142 14.25 10Z" fill="#212529"/>
<path fill-rule="evenodd" clip-rule="evenodd" d="M8.97511 14.4643C9.27098 14.1744 9.74583 14.1792 10.0357 14.4751C10.553 15.003 11.2609 15.3005 12 15.3005C12.7391 15.3005 13.447 15.003 13.9643 14.4751C14.2542 14.1792 14.729 14.1744 15.0249 14.4643C15.3208 14.7542 15.3256 15.229 15.0357 15.5249C14.2363 16.3408 13.1422 16.8005 12 16.8005C10.8578 16.8005 9.76366 16.3408 8.96429 15.5249C8.6744 15.229 8.67924 14.7542 8.97511 14.4643Z" fill="#212529"/>
</svg>
