<svg width="24" height="24" viewBox="0 0 24 24" fill="none" xmlns="http://www.w3.org/2000/svg">
<path fill-rule="evenodd" clip-rule="evenodd" d="M14 2.25C14.4142 2.25 14.75 2.58579 14.75 3V7C14.75 7.13807 14.8619 7.25 15 7.25H19C19.4142 7.25 19.75 7.58579 19.75 8C19.75 8.41421 19.4142 8.75 19 8.75H15C14.0335 8.75 13.25 7.9665 13.25 7V3C13.25 2.58579 13.5858 2.25 14 2.25Z" fill="#212529"/>
<path fill-rule="evenodd" clip-rule="evenodd" d="M7 3.75C6.30964 3.75 5.75 4.30964 5.75 5V8C5.75 8.41421 5.41421 8.75 5 8.75C4.58579 8.75 4.25 8.41421 4.25 8V5C4.25 3.48122 5.48122 2.25 7 2.25H14C14.1989 2.25 14.3897 2.32902 14.5303 2.46967L19.5303 7.46967C19.671 7.61032 19.75 7.80109 19.75 8V19C19.75 20.5188 18.5188 21.75 17 21.75H12C11.5858 21.75 11.25 21.4142 11.25 21C11.25 20.5858 11.5858 20.25 12 20.25H17C17.6904 20.25 18.25 19.6904 18.25 19V8.31066L13.6893 3.75H7Z" fill="#212529"/>
<path fill-rule="evenodd" clip-rule="evenodd" d="M6 11.75C4.75736 11.75 3.75 12.7574 3.75 14C3.75 15.2426 4.75736 16.25 6 16.25C7.24264 16.25 8.25 15.2426 8.25 14C8.25 12.7574 7.24264 11.75 6 11.75ZM2.25 14C2.25 11.9289 3.92893 10.25 6 10.25C8.07107 10.25 9.75 11.9289 9.75 14C9.75 16.0711 8.07107 17.75 6 17.75C3.92893 17.75 2.25 16.0711 2.25 14Z" fill="#212529"/>
<path fill-rule="evenodd" clip-rule="evenodd" d="M4.71554 16.2816C5.11229 16.4006 5.33742 16.8187 5.2184 17.2155L4.21719 20.5529L5.66462 19.8291C5.87577 19.7236 6.1243 19.7236 6.33544 19.8291L7.78288 20.5529L6.78166 17.2155C6.66264 16.8187 6.88778 16.4006 7.28452 16.2816C7.68127 16.1626 8.09938 16.3877 8.2184 16.7844L9.7184 21.7844C9.80438 22.071 9.71178 22.3813 9.4828 22.5739C9.25381 22.7665 8.93225 22.8046 8.66462 22.6708L6.00003 21.3385L3.33544 22.6708C3.06782 22.8046 2.74626 22.7665 2.51727 22.5739C2.28828 22.3813 2.19568 22.071 2.28166 21.7844L3.78166 16.7844C3.90069 16.3877 4.3188 16.1626 4.71554 16.2816Z" fill="#212529"/>
</svg>
