<svg width="24" height="24" viewBox="0 0 24 24" fill="none" xmlns="http://www.w3.org/2000/svg">
<path fill-rule="evenodd" clip-rule="evenodd" d="M2.46967 2.46967C2.76256 2.17678 3.23744 2.17678 3.53033 2.46967L21.5303 20.4697C21.8232 20.7626 21.8232 21.2374 21.5303 21.5303C21.2374 21.8232 20.7626 21.8232 20.4697 21.5303L2.46967 3.53033C2.17678 3.23744 2.17678 2.76256 2.46967 2.46967Z" fill="#212529"/>
<path fill-rule="evenodd" clip-rule="evenodd" d="M8.24991 5C8.24991 4.58579 8.5857 4.25 8.99991 4.25H18.4999C18.5844 4.25 18.6684 4.26429 18.7481 4.29226C19.2589 4.47139 19.658 4.87677 19.8292 5.39025C20.0003 5.90373 19.9242 6.46751 19.6231 6.91726C19.6026 6.94798 19.5797 6.97714 19.5549 7.0045L15.5059 11.4585C15.2272 11.765 14.7529 11.7876 14.4464 11.509C14.1399 11.2303 14.1173 10.756 14.396 10.4495L18.395 6.05044C18.4223 5.99266 18.4266 5.9261 18.4061 5.86459C18.391 5.81912 18.3633 5.77958 18.3271 5.75H8.99991C8.5857 5.75 8.24991 5.41421 8.24991 5ZM5.7494 4.69596C6.01894 5.01048 5.98247 5.48395 5.66795 5.75349C5.5813 5.82775 5.55702 5.94982 5.60462 6.05023L10.5549 11.4955C10.6804 11.6335 10.7499 11.8134 10.7499 12V15.625L13.2499 17.5V14C13.2499 13.5858 13.5857 13.25 13.9999 13.25C14.4141 13.25 14.7499 13.5858 14.7499 14V19C14.7499 19.2841 14.5894 19.5438 14.3353 19.6708C14.0812 19.7979 13.7772 19.7704 13.5499 19.6L9.54991 16.6C9.36106 16.4584 9.24991 16.2361 9.24991 16V12.29L4.44496 7.0045C4.42015 6.97722 4.3974 6.94814 4.37687 6.91751C3.88325 6.1809 4.01858 5.19152 4.69187 4.61451C5.00639 4.34498 5.47986 4.38144 5.7494 4.69596Z" fill="#212529"/>
</svg>
