<svg width="24" height="24" viewBox="0 0 24 24" fill="none" xmlns="http://www.w3.org/2000/svg">
<path fill-rule="evenodd" clip-rule="evenodd" d="M18.513 6.35758C18.8678 6.14382 19.3287 6.25815 19.5424 6.61294C20.5245 8.2429 20.9482 10.1482 20.75 12.04V13C20.749 13.9213 20.9904 14.8274 21.45 15.6258C21.6567 15.9848 21.5332 16.4433 21.1742 16.65C20.8152 16.8566 20.3567 16.7331 20.15 16.3742C19.5592 15.3477 19.2488 14.1839 19.25 12.9996C19.25 12.9995 19.25 12.9997 19.25 12.9996V12C19.25 11.9727 19.2515 11.9454 19.2545 11.9183C19.4275 10.3395 19.0773 8.74749 18.2576 7.38704C18.0438 7.03225 18.1582 6.57134 18.513 6.35758Z" fill="#212529"/>
<path fill-rule="evenodd" clip-rule="evenodd" d="M12 7.75C10.2051 7.75 8.75 9.20507 8.75 11C8.75 11.4142 8.41421 11.75 8 11.75C7.58579 11.75 7.25 11.4142 7.25 11C7.25 8.37665 9.37665 6.25 12 6.25C14.6234 6.25 16.75 8.37665 16.75 11V12C16.75 14.0014 17.3991 15.9489 18.6 17.55C18.8485 17.8814 18.7814 18.3515 18.45 18.6C18.1186 18.8485 17.6485 18.7814 17.4 18.45C16.0044 16.5892 15.25 14.326 15.25 12V11C15.25 9.20507 13.7949 7.75 12 7.75Z" fill="#212529"/>
<path fill-rule="evenodd" clip-rule="evenodd" d="M12 10.25C12.4142 10.25 12.75 10.5858 12.75 11V13C12.747 15.7062 13.5727 18.3493 15.1161 20.5723C15.3523 20.9125 15.268 21.3798 14.9277 21.6161C14.5875 21.8523 14.1202 21.768 13.8839 21.4277C12.1659 18.9532 11.2467 16.012 11.25 12.9996C11.25 12.9995 11.25 12.9997 11.25 12.9996V11C11.25 10.5858 11.5858 10.25 12 10.25Z" fill="#212529"/>
<path fill-rule="evenodd" clip-rule="evenodd" d="M7.91285 14.255C8.32425 14.2069 8.69681 14.5013 8.74498 14.9127C8.97949 16.9155 9.56333 18.8616 10.47 20.6627C10.6562 21.0327 10.5073 21.4836 10.1373 21.6699C9.76731 21.8561 9.3164 21.7072 9.13016 21.3372C8.14467 19.3794 7.51006 17.2641 7.25516 15.0872C7.20699 14.6758 7.50145 14.3032 7.91285 14.255Z" fill="#212529"/>
<path fill-rule="evenodd" clip-rule="evenodd" d="M15.6249 4.69948C13.3787 3.40261 10.6108 3.40449 8.36636 4.70441C6.12191 6.00432 4.74286 8.40422 4.74993 10.9979L4.74994 11L4.74994 12C4.74994 12.0083 4.7498 12.0166 4.74952 12.0249C4.67354 14.3108 4.96709 16.5939 5.61884 18.7862C5.73688 19.1833 5.5107 19.6008 5.11366 19.7189C4.71662 19.8369 4.29907 19.6107 4.18103 19.2137C3.48447 16.8706 3.17008 14.4307 3.24994 11.9876V11.001C3.24178 7.87103 4.90608 4.97507 7.6146 3.40639C10.3234 1.83753 13.664 1.83526 16.3749 3.40045C16.7337 3.60755 16.8566 4.06625 16.6495 4.42497C16.4423 4.78368 15.9837 4.90659 15.6249 4.69948Z" fill="#212529"/>
</svg>
