<svg width="24" height="24" viewBox="0 0 24 24" fill="none" xmlns="http://www.w3.org/2000/svg">
<path fill-rule="evenodd" clip-rule="evenodd" d="M5 4.25C5.41421 4.25 5.75 4.58579 5.75 5V21C5.75 21.4142 5.41421 21.75 5 21.75C4.58579 21.75 4.25 21.4142 4.25 21V5C4.25 4.58579 4.58579 4.25 5 4.25Z" fill="#212529"/>
<path fill-rule="evenodd" clip-rule="evenodd" d="M19 4.25C19.4142 4.25 19.75 4.58579 19.75 5V14C19.75 14.4142 19.4142 14.75 19 14.75C18.5858 14.75 18.25 14.4142 18.25 14V5C18.25 4.58579 18.5858 4.25 19 4.25Z" fill="#212529"/>
<path fill-rule="evenodd" clip-rule="evenodd" d="M11.475 5.53557C9.82241 3.91571 7.17759 3.91571 5.525 5.53557C5.22919 5.82552 4.75434 5.82077 4.46439 5.52496C4.17444 5.22916 4.17919 4.75431 4.475 4.46436C6.71085 2.27279 10.2892 2.27279 12.525 4.46436C14.1776 6.08421 16.8224 6.08421 18.475 4.46436C18.7708 4.17441 19.2457 4.17916 19.5356 4.47496C19.8256 4.77077 19.8208 5.24562 19.525 5.53557C17.2892 7.72714 13.7108 7.72714 11.475 5.53557Z" fill="#212529"/>
<path fill-rule="evenodd" clip-rule="evenodd" d="M11.475 14.5356C9.82241 12.9157 7.17759 12.9157 5.525 14.5356C5.22919 14.8255 4.75434 14.8208 4.46439 14.525C4.17444 14.2292 4.17919 13.7543 4.475 13.4644C6.71085 11.2728 10.2892 11.2728 12.525 13.4644C14.1776 15.0842 16.8224 15.0842 18.475 13.4644C18.7708 13.1744 19.2457 13.1792 19.5356 13.475C19.8256 13.7708 19.8208 14.2456 19.525 14.5356C17.2892 16.7271 13.7108 16.7271 11.475 14.5356Z" fill="#212529"/>
</svg>
