<svg width="24" height="24" viewBox="0 0 24 24" fill="none" xmlns="http://www.w3.org/2000/svg">
<path fill-rule="evenodd" clip-rule="evenodd" d="M5 4.75C4.30964 4.75 3.75 5.30964 3.75 6V17C3.75 17.6904 4.30964 18.25 5 18.25H19C19.6904 18.25 20.25 17.6904 20.25 17V9C20.25 8.30964 19.6904 7.75 19 7.75H12C11.8011 7.75 11.6103 7.67098 11.4697 7.53033L8.68934 4.75H5ZM5 3.25C3.48122 3.25 2.25 4.48122 2.25 6V17C2.25 18.5188 3.48122 19.75 5 19.75H19C20.5188 19.75 21.75 18.5188 21.75 17V9C21.75 7.48122 20.5188 6.25 19 6.25H12.3107L9.53033 3.46967C9.38968 3.32902 9.19891 3.25 9 3.25H5Z" fill="#212529"/>
</svg>
