<svg width="24" height="24" viewBox="0 0 24 24" fill="none" xmlns="http://www.w3.org/2000/svg">
<path fill-rule="evenodd" clip-rule="evenodd" d="M9 4.75C8.30964 4.75 7.75 5.30964 7.75 6V15C7.75 15.6904 8.30964 16.25 9 16.25H19C19.6904 16.25 20.25 15.6904 20.25 15V8C20.25 7.30964 19.6904 6.75 19 6.75H14C13.8011 6.75 13.6103 6.67098 13.4697 6.53033L11.6893 4.75H9ZM9 3.25C7.48122 3.25 6.25 4.48122 6.25 6V15C6.25 16.5188 7.48122 17.75 9 17.75H19C20.5188 17.75 21.75 16.5188 21.75 15V8C21.75 6.48122 20.5188 5.25 19 5.25H14.3107L12.5303 3.46967C12.3897 3.32902 12.1989 3.25 12 3.25H9Z" fill="black"/>
<path fill-rule="evenodd" clip-rule="evenodd" d="M5 8.75C4.30964 8.75 3.75 9.30964 3.75 10V19C3.75 19.6904 4.30964 20.25 5 20.25H15C15.6904 20.25 16.25 19.6904 16.25 19V17C16.25 16.5858 16.5858 16.25 17 16.25C17.4142 16.25 17.75 16.5858 17.75 17V19C17.75 20.5188 16.5188 21.75 15 21.75H5C3.48122 21.75 2.25 20.5188 2.25 19V10C2.25 8.48122 3.48122 7.25 5 7.25H7C7.41421 7.25 7.75 7.58579 7.75 8C7.75 8.41421 7.41421 8.75 7 8.75H5Z" fill="black"/>
</svg>
