<svg width="24" height="24" viewBox="0 0 24 24" fill="none" xmlns="http://www.w3.org/2000/svg">
<path fill-rule="evenodd" clip-rule="evenodd" d="M12 4.75C8.54822 4.75 5.75 7.54822 5.75 11V18C5.75 18.0312 5.74805 18.0623 5.74418 18.0932C5.68801 18.5415 5.93052 18.9741 6.34225 19.16C6.74867 19.3435 7.22632 19.2445 7.52631 18.9164C7.98143 18.3477 8.67066 18.0161 9.4 18.0161C10.1386 18.0161 10.8361 18.3562 11.2909 18.9381C11.4615 19.1563 11.723 19.2839 12 19.2839C12.277 19.2839 12.5385 19.1563 12.7091 18.9381C13.1639 18.3562 13.8614 18.0161 14.6 18.0161C15.3293 18.0161 16.0186 18.3477 16.4737 18.9164C16.7737 19.2445 17.2513 19.3435 17.6577 19.16C18.0695 18.9741 18.312 18.5415 18.2558 18.0932C18.2519 18.0623 18.25 18.0312 18.25 18V11C18.25 7.54822 15.4518 4.75 12 4.75ZM4.25 11C4.25 6.71979 7.71979 3.25 12 3.25C16.2802 3.25 19.75 6.71979 19.75 11V17.9573C19.8638 19.0402 19.271 20.0773 18.2751 20.5271C17.2638 20.9838 16.0728 20.7282 15.338 19.8966C15.328 19.8853 15.3184 19.8738 15.3091 19.8619C15.1385 19.6437 14.877 19.5161 14.6 19.5161C14.323 19.5161 14.0615 19.6437 13.8909 19.8619C13.4361 20.4438 12.7386 20.7839 12 20.7839C11.2614 20.7839 10.5639 20.4438 10.1091 19.8619C9.93852 19.6437 9.67697 19.5161 9.4 19.5161C9.12302 19.5161 8.86147 19.6437 8.6909 19.8619C8.68162 19.8738 8.67198 19.8853 8.66199 19.8966C7.92716 20.7282 6.73622 20.9838 5.72487 20.5271C4.729 20.0773 4.13618 19.0402 4.25 17.9573V11Z" fill="#212529"/>
<path fill-rule="evenodd" clip-rule="evenodd" d="M9.25 10C9.25 9.58579 9.58579 9.25 10 9.25H10.01C10.4242 9.25 10.76 9.58579 10.76 10C10.76 10.4142 10.4242 10.75 10.01 10.75H10C9.58579 10.75 9.25 10.4142 9.25 10Z" fill="#212529"/>
<path fill-rule="evenodd" clip-rule="evenodd" d="M13.25 10C13.25 9.58579 13.5858 9.25 14 9.25H14.01C14.4242 9.25 14.76 9.58579 14.76 10C14.76 10.4142 14.4242 10.75 14.01 10.75H14C13.5858 10.75 13.25 10.4142 13.25 10Z" fill="#212529"/>
<path fill-rule="evenodd" clip-rule="evenodd" d="M9.38458 13.5714C9.62127 13.2315 10.0887 13.1478 10.4286 13.3845C11.3731 14.0421 12.6271 14.0421 13.5715 13.3845C13.9114 13.1478 14.3789 13.2315 14.6156 13.5714C14.8522 13.9114 14.7686 14.3788 14.4286 14.6155C12.9691 15.6318 11.0311 15.6318 9.57149 14.6155C9.23157 14.3788 9.14788 13.9114 9.38458 13.5714Z" fill="#212529"/>
</svg>
