<svg width="24" height="24" viewBox="0 0 24 24" fill="none" xmlns="http://www.w3.org/2000/svg">
<path fill-rule="evenodd" clip-rule="evenodd" d="M5 4.75C4.86193 4.75 4.75 4.86193 4.75 5C4.75 5.13807 4.86193 5.25 5 5.25C5.13807 5.25 5.25 5.13807 5.25 5C5.25 4.86193 5.13807 4.75 5 4.75ZM3.25 5C3.25 4.0335 4.0335 3.25 5 3.25C5.9665 3.25 6.75 4.0335 6.75 5C6.75 5.9665 5.9665 6.75 5 6.75C4.0335 6.75 3.25 5.9665 3.25 5Z" fill="#212529"/>
<path fill-rule="evenodd" clip-rule="evenodd" d="M12 4.75C11.8619 4.75 11.75 4.86193 11.75 5C11.75 5.13807 11.8619 5.25 12 5.25C12.1381 5.25 12.25 5.13807 12.25 5C12.25 4.86193 12.1381 4.75 12 4.75ZM10.25 5C10.25 4.0335 11.0335 3.25 12 3.25C12.9665 3.25 13.75 4.0335 13.75 5C13.75 5.9665 12.9665 6.75 12 6.75C11.0335 6.75 10.25 5.9665 10.25 5Z" fill="#212529"/>
<path fill-rule="evenodd" clip-rule="evenodd" d="M19 4.75C18.8619 4.75 18.75 4.86193 18.75 5C18.75 5.13807 18.8619 5.25 19 5.25C19.1381 5.25 19.25 5.13807 19.25 5C19.25 4.86193 19.1381 4.75 19 4.75ZM17.25 5C17.25 4.0335 18.0335 3.25 19 3.25C19.9665 3.25 20.75 4.0335 20.75 5C20.75 5.9665 19.9665 6.75 19 6.75C18.0335 6.75 17.25 5.9665 17.25 5Z" fill="#212529"/>
<path fill-rule="evenodd" clip-rule="evenodd" d="M5 11.75C4.86193 11.75 4.75 11.8619 4.75 12C4.75 12.1381 4.86193 12.25 5 12.25C5.13807 12.25 5.25 12.1381 5.25 12C5.25 11.8619 5.13807 11.75 5 11.75ZM3.25 12C3.25 11.0335 4.0335 10.25 5 10.25C5.9665 10.25 6.75 11.0335 6.75 12C6.75 12.9665 5.9665 13.75 5 13.75C4.0335 13.75 3.25 12.9665 3.25 12Z" fill="#212529"/>
<path fill-rule="evenodd" clip-rule="evenodd" d="M12 11.75C11.8619 11.75 11.75 11.8619 11.75 12C11.75 12.1381 11.8619 12.25 12 12.25C12.1381 12.25 12.25 12.1381 12.25 12C12.25 11.8619 12.1381 11.75 12 11.75ZM10.25 12C10.25 11.0335 11.0335 10.25 12 10.25C12.9665 10.25 13.75 11.0335 13.75 12C13.75 12.9665 12.9665 13.75 12 13.75C11.0335 13.75 10.25 12.9665 10.25 12Z" fill="#212529"/>
<path fill-rule="evenodd" clip-rule="evenodd" d="M19 11.75C18.8619 11.75 18.75 11.8619 18.75 12C18.75 12.1381 18.8619 12.25 19 12.25C19.1381 12.25 19.25 12.1381 19.25 12C19.25 11.8619 19.1381 11.75 19 11.75ZM17.25 12C17.25 11.0335 18.0335 10.25 19 10.25C19.9665 10.25 20.75 11.0335 20.75 12C20.75 12.9665 19.9665 13.75 19 13.75C18.0335 13.75 17.25 12.9665 17.25 12Z" fill="#212529"/>
<path fill-rule="evenodd" clip-rule="evenodd" d="M5 18.75C4.86193 18.75 4.75 18.8619 4.75 19C4.75 19.1381 4.86193 19.25 5 19.25C5.13807 19.25 5.25 19.1381 5.25 19C5.25 18.8619 5.13807 18.75 5 18.75ZM3.25 19C3.25 18.0335 4.0335 17.25 5 17.25C5.9665 17.25 6.75 18.0335 6.75 19C6.75 19.9665 5.9665 20.75 5 20.75C4.0335 20.75 3.25 19.9665 3.25 19Z" fill="#212529"/>
<path fill-rule="evenodd" clip-rule="evenodd" d="M12 18.75C11.8619 18.75 11.75 18.8619 11.75 19C11.75 19.1381 11.8619 19.25 12 19.25C12.1381 19.25 12.25 19.1381 12.25 19C12.25 18.8619 12.1381 18.75 12 18.75ZM10.25 19C10.25 18.0335 11.0335 17.25 12 17.25C12.9665 17.25 13.75 18.0335 13.75 19C13.75 19.9665 12.9665 20.75 12 20.75C11.0335 20.75 10.25 19.9665 10.25 19Z" fill="#212529"/>
<path fill-rule="evenodd" clip-rule="evenodd" d="M19 18.75C18.8619 18.75 18.75 18.8619 18.75 19C18.75 19.1381 18.8619 19.25 19 19.25C19.1381 19.25 19.25 19.1381 19.25 19C19.25 18.8619 19.1381 18.75 19 18.75ZM17.25 19C17.25 18.0335 18.0335 17.25 19 17.25C19.9665 17.25 20.75 18.0335 20.75 19C20.75 19.9665 19.9665 20.75 19 20.75C18.0335 20.75 17.25 19.9665 17.25 19Z" fill="#212529"/>
</svg>
