<svg width="24" height="24" viewBox="0 0 24 24" fill="none" xmlns="http://www.w3.org/2000/svg">
<path d="M11 11.5V10.5C11 9.67157 11.6716 9 12.5 9C13.3284 9 14 9.67157 14 10.5V12" stroke="#212529" stroke-width="1.5" stroke-linecap="round" stroke-linejoin="round"/>
<path d="M16.9999 12V5.5C16.9999 4.67157 17.6715 4 18.4999 4C19.3283 4 19.9999 4.67157 19.9999 5.5V16C19.9999 19.3137 17.3136 22 13.9999 22H11.9999H12.2079C10.1895 22.0003 8.30608 20.9858 7.19592 19.3C7.13033 19.2002 7.065 19.1002 6.99992 19C6.68792 18.521 5.59292 16.612 3.71392 13.272C3.31562 12.5641 3.55323 11.6677 4.24992 11.25C4.9842 10.8094 5.92406 10.9248 6.52992 11.53L7.99992 13" stroke="#212529" stroke-width="1.5" stroke-linecap="round" stroke-linejoin="round"/>
<path d="M14 10.5C14 9.67157 14.6716 9 15.5 9C16.3284 9 17 9.67157 17 10.5V12" stroke="#212529" stroke-width="1.5" stroke-linecap="round" stroke-linejoin="round"/>
<path d="M8 13V4.5C8 3.67157 8.67157 3 9.5 3C10.3284 3 11 3.67157 11 4.5V12" stroke="#212529" stroke-width="1.5" stroke-linecap="round" stroke-linejoin="round"/>
</svg>
