<svg width="24" height="24" viewBox="0 0 24 24" fill="none" xmlns="http://www.w3.org/2000/svg">
<path d="M10.7289 10.5C10.7289 10.9142 11.0647 11.25 11.4789 11.25C11.8931 11.25 12.2289 10.9142 12.2289 10.5H10.7289ZM11.4789 9.5H10.7289H11.4789ZM14.4789 9.5H15.2289H14.4789ZM13.7289 11C13.7289 11.4142 14.0647 11.75 14.4789 11.75C14.8931 11.75 15.2289 11.4142 15.2289 11H13.7289ZM16.7289 11C16.7289 11.4142 17.0647 11.75 17.4789 11.75C17.8931 11.75 18.2289 11.4142 18.2289 11H16.7289ZM12.4789 20.25C12.0647 20.25 11.7289 20.5858 11.7289 21C11.7289 21.4142 12.0647 21.75 12.4789 21.75V20.25ZM12.6869 21L12.687 21.75C13.1012 21.7499 13.437 21.4141 13.4369 20.9999C13.4369 20.5857 13.1011 20.25 12.6869 20.25V21ZM7.67492 18.3L7.0481 18.7118L7.04855 18.7125L7.67492 18.3ZM7.47892 18L8.10785 17.5914L8.10737 17.5907L7.47892 18ZM4.19292 12.272L4.84658 11.9043L4.84658 11.9043L4.19292 12.272ZM4.72892 10.25L5.11458 10.8933L5.1148 10.8931L4.72892 10.25ZM7.00892 10.53L7.53925 9.99967L7.53895 9.99937L7.00892 10.53ZM8.47892 12L7.94859 12.5303C8.16309 12.7448 8.48568 12.809 8.76594 12.6929C9.04619 12.5768 9.22892 12.3033 9.22892 12H8.47892ZM8.47892 3.5H7.72892H8.47892ZM10.7289 11C10.7289 11.4142 11.0647 11.75 11.4789 11.75C11.8931 11.75 12.2289 11.4142 12.2289 11H10.7289ZM12.2289 10.5V9.5H10.7289V10.5H12.2289ZM12.2289 9.5C12.2289 9.08579 12.5647 8.75 12.9789 8.75V7.25C11.7363 7.25 10.7289 8.25736 10.7289 9.5H12.2289ZM12.9789 8.75C13.3931 8.75 13.7289 9.08579 13.7289 9.5H15.2289C15.2289 8.25736 14.2216 7.25 12.9789 7.25V8.75ZM13.7289 9.5V11H15.2289V9.5H13.7289ZM18.2289 11V4.5H16.7289V11H18.2289ZM18.2289 4.5C18.2289 4.08579 18.5647 3.75 18.9789 3.75V2.25C17.7363 2.25 16.7289 3.25736 16.7289 4.5H18.2289ZM18.9789 3.75C19.3931 3.75 19.7289 4.08579 19.7289 4.5H21.2289C21.2289 3.25736 20.2216 2.25 18.9789 2.25V3.75ZM19.7289 4.5V15H21.2289V4.5H19.7289ZM19.7289 15C19.7289 17.8995 17.3784 20.25 14.4789 20.25V21.75C18.2068 21.75 21.2289 18.7279 21.2289 15H19.7289ZM14.4789 20.25H12.4789V21.75H14.4789V20.25ZM12.4789 21.75H12.6869V20.25H12.4789V21.75ZM12.6868 20.25C10.9206 20.2503 9.27268 19.3625 8.3013 17.8875L7.04855 18.7125C8.29748 20.609 10.4163 21.7504 12.687 21.75L12.6868 20.25ZM8.30174 17.8882C8.23686 17.7894 8.17223 17.6905 8.10785 17.5914L6.85 18.4086C6.91577 18.5098 6.98181 18.6109 7.0481 18.7118L8.30174 17.8882ZM8.10737 17.5907C7.81249 17.1379 6.73381 15.2589 4.84658 11.9043L3.53926 12.6397C5.41004 15.9651 6.52136 17.9041 6.85048 18.4093L8.10737 17.5907ZM4.84658 11.9043C4.64743 11.5503 4.76623 11.1021 5.11458 10.8933L4.34327 9.60675C3.29824 10.2333 2.94183 11.5778 3.53927 12.6397L4.84658 11.9043ZM5.1148 10.8931C5.55411 10.6295 6.11642 10.6986 6.4789 11.0606L7.53895 9.99937C6.68971 9.1511 5.37229 8.98931 4.34304 9.60689L5.1148 10.8931ZM6.47859 11.0603L7.94859 12.5303L9.00925 11.4697L7.53925 9.99967L6.47859 11.0603ZM15.2289 9.5C15.2289 9.08579 15.5647 8.75 15.9789 8.75V7.25C14.7363 7.25 13.7289 8.25736 13.7289 9.5H15.2289ZM15.9789 8.75C16.3931 8.75 16.7289 9.08579 16.7289 9.5H18.2289C18.2289 8.25736 17.2216 7.25 15.9789 7.25V8.75ZM16.7289 9.5V11H18.2289V9.5H16.7289ZM9.22892 12L9.22892 3.5H7.72892L7.72892 12H9.22892ZM9.22892 3.5C9.22892 3.08579 9.56471 2.75 9.97892 2.75V1.25C8.73628 1.25 7.72892 2.25736 7.72892 3.5H9.22892ZM9.97892 2.75C10.3931 2.75 10.7289 3.08579 10.7289 3.5H12.2289C12.2289 2.25736 11.2216 1.25 9.97892 1.25V2.75ZM10.7289 3.5V11H12.2289V3.5H10.7289Z" fill="#212529"/>
</svg>
