<svg width="24" height="24" viewBox="0 0 24 24" fill="none" xmlns="http://www.w3.org/2000/svg">
<path fill-rule="evenodd" clip-rule="evenodd" d="M3.25 15C3.25 13.4812 4.48122 12.25 6 12.25H7C8.51878 12.25 9.75 13.4812 9.75 15V18C9.75 19.5188 8.51878 20.75 7 20.75H6C4.48122 20.75 3.25 19.5188 3.25 18V15ZM6 13.75C5.30964 13.75 4.75 14.3096 4.75 15V18C4.75 18.6904 5.30964 19.25 6 19.25H7C7.69036 19.25 8.25 18.6904 8.25 18V15C8.25 14.3096 7.69036 13.75 7 13.75H6Z" fill="#212529"/>
<path fill-rule="evenodd" clip-rule="evenodd" d="M14.25 15C14.25 13.4812 15.4812 12.25 17 12.25H18C19.5188 12.25 20.75 13.4812 20.75 15V18C20.75 19.5188 19.5188 20.75 18 20.75H17C15.4812 20.75 14.25 19.5188 14.25 18V15ZM17 13.75C16.3096 13.75 15.75 14.3096 15.75 15V18C15.75 18.6904 16.3096 19.25 17 19.25H18C18.6904 19.25 19.25 18.6904 19.25 18V15C19.25 14.3096 18.6904 13.75 18 13.75H17Z" fill="#212529"/>
<path fill-rule="evenodd" clip-rule="evenodd" d="M12 4.75C7.99594 4.75 4.75 7.99594 4.75 12V15C4.75 15.4142 4.41421 15.75 4 15.75C3.58579 15.75 3.25 15.4142 3.25 15V12C3.25 7.16751 7.16751 3.25 12 3.25C16.8325 3.25 20.75 7.16751 20.75 12V15C20.75 15.4142 20.4142 15.75 20 15.75C19.5858 15.75 19.25 15.4142 19.25 15V12C19.25 7.99594 16.0041 4.75 12 4.75Z" fill="#212529"/>
</svg>
