<svg width="24" height="24" viewBox="0 0 24 24" fill="none" xmlns="http://www.w3.org/2000/svg">
<path fill-rule="evenodd" clip-rule="evenodd" d="M12 3.75C7.44365 3.75 3.75 7.44365 3.75 12C3.75 16.5563 7.44365 20.25 12 20.25C16.5563 20.25 20.25 16.5563 20.25 12C20.25 7.44365 16.5563 3.75 12 3.75ZM2.25 12C2.25 6.61522 6.61522 2.25 12 2.25C17.3848 2.25 21.75 6.61522 21.75 12C21.75 17.3848 17.3848 21.75 12 21.75C6.61522 21.75 2.25 17.3848 2.25 12Z" fill="black"/>
<path fill-rule="evenodd" clip-rule="evenodd" d="M12 16.25C12.4142 16.25 12.75 16.5858 12.75 17V17.01C12.75 17.4242 12.4142 17.76 12 17.76C11.5858 17.76 11.25 17.4242 11.25 17.01V17C11.25 16.5858 11.5858 16.25 12 16.25Z" fill="black"/>
<path fill-rule="evenodd" clip-rule="evenodd" d="M9.40249 7.54656C10.2619 6.41386 11.7426 5.94703 13.0963 6.38205C14.4499 6.81706 15.3815 8.05916 15.4201 9.48044C15.4587 10.9017 14.5959 12.1926 13.2679 12.7004L13.2488 12.7074C12.9337 12.8182 12.7299 13.124 12.7488 13.4574C12.7722 13.871 12.456 14.2252 12.0424 14.2487C11.6289 14.2721 11.2746 13.9559 11.2512 13.5423C11.1947 12.546 11.8011 11.6321 12.7398 11.2964C13.4688 11.0139 13.9419 10.3033 13.9206 9.52117C13.8993 8.73628 13.3848 8.05035 12.6373 7.81011C11.8898 7.56988 11.0721 7.82768 10.5975 8.4532C10.3471 8.78319 9.87665 8.84774 9.54666 8.59737C9.21667 8.34701 9.15212 7.87655 9.40249 7.54656Z" fill="black"/>
</svg>
