<svg width="24" height="24" viewBox="0 0 24 24" fill="none" xmlns="http://www.w3.org/2000/svg">
<path fill-rule="evenodd" clip-rule="evenodd" d="M9.31042 9.71492C9.31623 9.72046 9.3221 9.72589 9.32805 9.73121C10.0508 10.3874 10.6644 11.1533 11.1469 12C10.6636 12.8483 10.0485 13.6155 9.32405 14.2725C9.31498 14.2807 9.30612 14.2891 9.29747 14.2978C8.36805 15.2275 6.97009 15.5057 5.75553 15.0027C4.54097 14.4997 3.74902 13.3146 3.74902 12C3.74902 10.6854 4.54097 9.5003 5.75553 8.99731C6.96856 8.49497 8.36453 8.77187 9.29396 9.69876C9.29934 9.70421 9.30483 9.7096 9.31042 9.71492ZM10.345 8.6285C10.9707 9.19785 11.5259 9.83804 11.9999 10.5352C12.4739 9.83804 13.0291 9.19784 13.6548 8.62848C15.0132 7.28034 17.0488 6.87873 18.8181 7.61145C20.5933 8.34658 21.7507 10.0787 21.7507 12C21.7507 13.9213 20.5933 15.6535 18.8181 16.3886C17.0488 17.1213 15.0132 16.7197 13.6548 15.3716C13.0291 14.8022 12.4739 14.162 11.9999 13.4649C11.5259 14.162 10.9707 14.8022 10.345 15.3715C8.98658 16.7197 6.95094 17.1213 5.18161 16.3886C3.40648 15.6535 2.24902 13.9213 2.24902 12C2.24902 10.0787 3.40648 8.34658 5.18161 7.61145C6.95095 6.87873 8.98658 7.28034 10.345 8.6285ZM12.8528 12C13.3362 12.8483 13.9513 13.6155 14.6757 14.2725C14.6848 14.2807 14.6936 14.2891 14.7023 14.2978C15.6317 15.2275 17.0297 15.5057 18.2442 15.0027C19.4588 14.4997 20.2507 13.3146 20.2507 12C20.2507 10.6854 19.4588 9.5003 18.2442 8.99731C17.0297 8.49433 15.6317 8.77257 14.7023 9.70227C14.6936 9.71092 14.6848 9.71936 14.6757 9.72758C13.9513 10.3846 13.3362 11.1517 12.8528 12Z" fill="#212529"/>
</svg>
