<svg width="24" height="24" viewBox="0 0 24 24" fill="none" xmlns="http://www.w3.org/2000/svg">
<path fill-rule="evenodd" clip-rule="evenodd" d="M3.25 5C3.25 4.0335 4.0335 3.25 5 3.25H9C9.9665 3.25 10.75 4.0335 10.75 5V9C10.75 9.9665 9.9665 10.75 9 10.75H5C4.0335 10.75 3.25 9.9665 3.25 9V5ZM5 4.75C4.86193 4.75 4.75 4.86193 4.75 5V9C4.75 9.13807 4.86193 9.25 5 9.25H9C9.13807 9.25 9.25 9.13807 9.25 9V5C9.25 4.86193 9.13807 4.75 9 4.75H5Z" fill="#212529"/>
<path fill-rule="evenodd" clip-rule="evenodd" d="M13.25 5C13.25 4.0335 14.0335 3.25 15 3.25H19C19.9665 3.25 20.75 4.0335 20.75 5V9C20.75 9.9665 19.9665 10.75 19 10.75H15C14.0335 10.75 13.25 9.9665 13.25 9V5ZM15 4.75C14.8619 4.75 14.75 4.86193 14.75 5V9C14.75 9.13807 14.8619 9.25 15 9.25H19C19.1381 9.25 19.25 9.13807 19.25 9V5C19.25 4.86193 19.1381 4.75 19 4.75H15Z" fill="#212529"/>
<path fill-rule="evenodd" clip-rule="evenodd" d="M3.25 15C3.25 14.0335 4.0335 13.25 5 13.25H9C9.9665 13.25 10.75 14.0335 10.75 15V19C10.75 19.9665 9.9665 20.75 9 20.75H5C4.0335 20.75 3.25 19.9665 3.25 19V15ZM5 14.75C4.86193 14.75 4.75 14.8619 4.75 15V19C4.75 19.1381 4.86193 19.25 5 19.25H9C9.13807 19.25 9.25 19.1381 9.25 19V15C9.25 14.8619 9.13807 14.75 9 14.75H5Z" fill="#212529"/>
<path fill-rule="evenodd" clip-rule="evenodd" d="M17 13.25C17.4142 13.25 17.75 13.5858 17.75 14V16.25H20C20.4142 16.25 20.75 16.5858 20.75 17C20.75 17.4142 20.4142 17.75 20 17.75H17.75V20C17.75 20.4142 17.4142 20.75 17 20.75C16.5858 20.75 16.25 20.4142 16.25 20V17.75H14C13.5858 17.75 13.25 17.4142 13.25 17C13.25 16.5858 13.5858 16.25 14 16.25H16.25V14C16.25 13.5858 16.5858 13.25 17 13.25Z" fill="#212529"/>
</svg>
