<svg width="24" height="24" viewBox="0 0 24 24" fill="none" xmlns="http://www.w3.org/2000/svg">
<path fill-rule="evenodd" clip-rule="evenodd" d="M4.25 6C4.25 3.92893 5.92893 2.25 8 2.25H19C20.5188 2.25 21.75 3.48122 21.75 5C21.75 6.51878 20.5188 7.75 19 7.75H17.75V19C17.75 20.5188 16.5188 21.75 15 21.75H6C3.92893 21.75 2.25 20.0711 2.25 18V17C2.25 16.5858 2.58579 16.25 3 16.25H4.25V6ZM3.75 17.75V18C3.75 19.2426 4.75736 20.25 6 20.25H12.5499C12.3581 19.875 12.25 19.4501 12.25 19V17.75H3.75ZM15 20.25C15.6904 20.25 16.25 19.6904 16.25 19V5C16.25 4.54989 16.3581 4.12503 16.5499 3.75H8C6.75736 3.75 5.75 4.75736 5.75 6V16.25H13C13.4142 16.25 13.75 16.5858 13.75 17V19C13.75 19.6904 14.3096 20.25 15 20.25ZM19 3.75C18.3096 3.75 17.75 4.30964 17.75 5V6.25H19C19.6904 6.25 20.25 5.69036 20.25 5C20.25 4.30964 19.6904 3.75 19 3.75Z" fill="#212529"/>
<path fill-rule="evenodd" clip-rule="evenodd" d="M8.25 7C8.25 6.58579 8.58579 6.25 9 6.25H13C13.4142 6.25 13.75 6.58579 13.75 7C13.75 7.41421 13.4142 7.75 13 7.75H9C8.58579 7.75 8.25 7.41421 8.25 7Z" fill="#212529"/>
<path fill-rule="evenodd" clip-rule="evenodd" d="M8.25 11C8.25 10.5858 8.58579 10.25 9 10.25H13C13.4142 10.25 13.75 10.5858 13.75 11C13.75 11.4142 13.4142 11.75 13 11.75H9C8.58579 11.75 8.25 11.4142 8.25 11Z" fill="#212529"/>
</svg>
