<svg width="24" height="24" viewBox="0 0 24 24" fill="none" xmlns="http://www.w3.org/2000/svg">
<path fill-rule="evenodd" clip-rule="evenodd" d="M6 4.75C5.30964 4.75 4.75 5.30964 4.75 6V8C4.75 8.41421 4.41421 8.75 4 8.75C3.58579 8.75 3.25 8.41421 3.25 8V6C3.25 4.48122 4.48122 3.25 6 3.25H8C8.41421 3.25 8.75 3.58579 8.75 4C8.75 4.41421 8.41421 4.75 8 4.75H6Z" fill="#212529"/>
<path fill-rule="evenodd" clip-rule="evenodd" d="M4 15.25C4.41421 15.25 4.75 15.5858 4.75 16V18C4.75 18.6904 5.30964 19.25 6 19.25H8C8.41421 19.25 8.75 19.5858 8.75 20C8.75 20.4142 8.41421 20.75 8 20.75H6C4.48122 20.75 3.25 19.5188 3.25 18V16C3.25 15.5858 3.58579 15.25 4 15.25Z" fill="#212529"/>
<path fill-rule="evenodd" clip-rule="evenodd" d="M15.25 4C15.25 3.58579 15.5858 3.25 16 3.25H18C19.5188 3.25 20.75 4.48122 20.75 6V8C20.75 8.41421 20.4142 8.75 20 8.75C19.5858 8.75 19.25 8.41421 19.25 8V6C19.25 5.30964 18.6904 4.75 18 4.75H16C15.5858 4.75 15.25 4.41421 15.25 4Z" fill="#212529"/>
<path fill-rule="evenodd" clip-rule="evenodd" d="M20 15.25C20.4142 15.25 20.75 15.5858 20.75 16V18C20.75 19.5188 19.5188 20.75 18 20.75H16C15.5858 20.75 15.25 20.4142 15.25 20C15.25 19.5858 15.5858 19.25 16 19.25H18C18.6904 19.25 19.25 18.6904 19.25 18V16C19.25 15.5858 19.5858 15.25 20 15.25Z" fill="#212529"/>
<path fill-rule="evenodd" clip-rule="evenodd" d="M12 10.25C12.4142 10.25 12.75 10.5858 12.75 11V11.01C12.75 11.4242 12.4142 11.76 12 11.76C11.5858 11.76 11.25 11.4242 11.25 11.01V11C11.25 10.5858 11.5858 10.25 12 10.25Z" fill="#212529"/>
<path fill-rule="evenodd" clip-rule="evenodd" d="M14.0739 8.56121C12.871 7.56427 11.129 7.56427 9.92611 8.56121C8.73288 9.55015 8.40514 11.2425 9.13827 12.604L12 16.6922L14.8617 12.604C15.5949 11.2425 15.2671 9.55015 14.0739 8.56121ZM12.6244 18.4159L16.1144 13.4301C16.1295 13.4085 16.1435 13.3861 16.1563 13.3631C17.2617 11.3651 16.7891 8.86336 15.0311 7.4063C13.273 5.94924 10.727 5.94924 8.96894 7.4063C7.21089 8.86336 6.73832 11.3651 7.84375 13.3631C7.85651 13.3861 7.87047 13.4085 7.88558 13.4301L11.3756 18.4159C11.4027 18.4566 11.4341 18.495 11.4696 18.5304C11.5326 18.5935 11.605 18.6436 11.6831 18.6799C11.7843 18.7272 11.8925 18.7502 12 18.7501C12.1074 18.7502 12.2157 18.7272 12.3169 18.6799C12.395 18.6436 12.4675 18.5935 12.5304 18.5304C12.5659 18.495 12.5973 18.4566 12.6244 18.4159Z" fill="#212529"/>
</svg>
