<svg width="24" height="24" viewBox="0 0 24 24" fill="none" xmlns="http://www.w3.org/2000/svg">
<path fill-rule="evenodd" clip-rule="evenodd" d="M12 2.25C12.4142 2.25 12.75 2.58579 12.75 3V6C12.75 6.41421 12.4142 6.75 12 6.75C11.5858 6.75 11.25 6.41421 11.25 6V3C11.25 2.58579 11.5858 2.25 12 2.25Z" fill="#212529"/>
<path fill-rule="evenodd" clip-rule="evenodd" d="M18.9303 5.06965C19.2232 5.36254 19.2232 5.83741 18.9303 6.13031L16.7803 8.28031C16.4874 8.5732 16.0126 8.5732 15.7197 8.28031C15.4268 7.98741 15.4268 7.51254 15.7197 7.21965L17.8697 5.06965C18.1626 4.77675 18.6374 4.77675 18.9303 5.06965Z" fill="#212529"/>
<path fill-rule="evenodd" clip-rule="evenodd" d="M17.25 12C17.25 11.5858 17.5858 11.25 18 11.25H21C21.4142 11.25 21.75 11.5858 21.75 12C21.75 12.4142 21.4142 12.75 21 12.75H18C17.5858 12.75 17.25 12.4142 17.25 12Z" fill="#212529"/>
<path fill-rule="evenodd" clip-rule="evenodd" d="M15.7197 15.7197C16.0126 15.4268 16.4874 15.4268 16.7803 15.7197L18.9303 17.8697C19.2232 18.1626 19.2232 18.6374 18.9303 18.9303C18.6374 19.2232 18.1626 19.2232 17.8697 18.9303L15.7197 16.7803C15.4268 16.4874 15.4268 16.0126 15.7197 15.7197Z" fill="#212529"/>
<path fill-rule="evenodd" clip-rule="evenodd" d="M12 17.25C12.4142 17.25 12.75 17.5858 12.75 18V21C12.75 21.4142 12.4142 21.75 12 21.75C11.5858 21.75 11.25 21.4142 11.25 21V18C11.25 17.5858 11.5858 17.25 12 17.25Z" fill="#212529"/>
<path fill-rule="evenodd" clip-rule="evenodd" d="M8.28031 15.7197C8.5732 16.0126 8.5732 16.4874 8.28031 16.7803L6.13031 18.9303C5.83741 19.2232 5.36254 19.2232 5.06965 18.9303C4.77675 18.6374 4.77675 18.1626 5.06965 17.8697L7.21965 15.7197C7.51254 15.4268 7.98741 15.4268 8.28031 15.7197Z" fill="#212529"/>
<path fill-rule="evenodd" clip-rule="evenodd" d="M2.25 12C2.25 11.5858 2.58579 11.25 3 11.25H6C6.41421 11.25 6.75 11.5858 6.75 12C6.75 12.4142 6.41421 12.75 6 12.75H3C2.58579 12.75 2.25 12.4142 2.25 12Z" fill="#212529"/>
<path fill-rule="evenodd" clip-rule="evenodd" d="M5.06965 5.06965C5.36254 4.77675 5.83741 4.77675 6.13031 5.06965L8.28031 7.21965C8.5732 7.51254 8.5732 7.98741 8.28031 8.28031C7.98741 8.5732 7.51254 8.5732 7.21965 8.28031L5.06965 6.13031C4.77675 5.83741 4.77675 5.36254 5.06965 5.06965Z" fill="#212529"/>
</svg>
