<svg width="24" height="24" viewBox="0 0 24 24" fill="none" xmlns="http://www.w3.org/2000/svg">
<path fill-rule="evenodd" clip-rule="evenodd" d="M20.7405 2.29623L2.74521 8.79454C2.72566 8.80161 2.7064 8.80948 2.6875 8.81814C2.22537 9.02992 1.92908 9.49162 1.92908 9.99996C1.92908 10.5032 2.21941 10.9607 2.67353 11.1753L9.44093 14.559L12.8246 21.3264C13.0393 21.7805 13.4968 22.0708 13.9999 22.0708C14.5083 22.0708 14.97 21.7745 15.1818 21.3124C15.1904 21.2935 15.1983 21.2743 15.2054 21.2547L21.7037 3.25933C21.7148 3.22936 21.7239 3.19866 21.7311 3.16742C21.7527 3.07359 21.7555 2.97887 21.7416 2.88771C21.7329 2.83017 21.7175 2.77405 21.6959 2.72046C21.6571 2.62367 21.6002 2.53919 21.5304 2.46953C21.4608 2.39976 21.3763 2.34278 21.2794 2.30397C21.242 2.28893 21.2034 2.27689 21.1639 2.26801C21.0712 2.24713 20.9777 2.24456 20.8877 2.25826C20.8373 2.26594 20.788 2.27871 20.7405 2.29623ZM19.7518 4.24807L3.73844 10.0307L10.3354 13.3291C10.4805 13.4017 10.5982 13.5194 10.6708 13.6645L13.9692 20.2615L19.7518 4.24807Z" fill="#212529"/>
</svg>
