<svg width="24" height="24" viewBox="0 0 24 24" fill="none" xmlns="http://www.w3.org/2000/svg">
<path fill-rule="evenodd" clip-rule="evenodd" d="M2.46967 2.46967C2.76256 2.17678 3.23744 2.17678 3.53033 2.46967L21.5303 20.4697C21.8232 20.7626 21.8232 21.2374 21.5303 21.5303C21.2374 21.8232 20.7626 21.8232 20.4697 21.5303L2.46967 3.53033C2.17678 3.23744 2.17678 2.76256 2.46967 2.46967Z" fill="#212529"/>
<path fill-rule="evenodd" clip-rule="evenodd" d="M7 11.75C6.30964 11.75 5.75 12.3096 5.75 13V19C5.75 19.6904 6.30964 20.25 7 20.25H17C17.6904 20.25 18.25 19.6904 18.25 19C18.25 18.5858 18.5858 18.25 19 18.25C19.4142 18.25 19.75 18.5858 19.75 19C19.75 20.5188 18.5188 21.75 17 21.75H7C5.48122 21.75 4.25 20.5188 4.25 19V13C4.25 11.4812 5.48122 10.25 7 10.25H11C11.4142 10.25 11.75 10.5858 11.75 11C11.75 11.4142 11.4142 11.75 11 11.75H7ZM14.25 11C14.25 10.5858 14.5858 10.25 15 10.25H17C18.5188 10.25 19.75 11.4812 19.75 13V15C19.75 15.4142 19.4142 15.75 19 15.75C18.5858 15.75 18.25 15.4142 18.25 15V13C18.25 12.3096 17.6904 11.75 17 11.75H15C14.5858 11.75 14.25 11.4142 14.25 11Z" fill="#212529"/>
<path fill-rule="evenodd" clip-rule="evenodd" d="M12 15.75C11.8619 15.75 11.75 15.8619 11.75 16C11.75 16.1381 11.8619 16.25 12 16.25C12.1381 16.25 12.25 16.1381 12.25 16C12.25 15.8619 12.1381 15.75 12 15.75ZM10.25 16C10.25 15.0335 11.0335 14.25 12 14.25C12.9665 14.25 13.75 15.0335 13.75 16C13.75 16.9665 12.9665 17.75 12 17.75C11.0335 17.75 10.25 16.9665 10.25 16Z" fill="#212529"/>
<path fill-rule="evenodd" clip-rule="evenodd" d="M12.9696 3.89798C11.6129 3.47392 10.138 3.98072 9.3285 5.14915C9.09261 5.48963 8.62537 5.57442 8.28488 5.33853C7.9444 5.10264 7.85961 4.6354 8.0955 4.29492C9.2786 2.58722 11.4342 1.8465 13.4171 2.46629C15.4 3.08608 16.75 4.92255 16.75 7.00004V11C16.75 11.4142 16.4142 11.75 16 11.75C15.5858 11.75 15.25 11.4142 15.25 11V7.00002C15.25 5.57858 14.3263 4.32205 12.9696 3.89798ZM8 7.25003C8.41421 7.25003 8.75 7.58582 8.75 8.00003V11C8.75 11.4142 8.41421 11.75 8 11.75C7.58579 11.75 7.25 11.4142 7.25 11V8.00003C7.25 7.58582 7.58579 7.25003 8 7.25003Z" fill="#212529"/>
</svg>
