<svg width="24" height="24" viewBox="0 0 24 24" fill="none" xmlns="http://www.w3.org/2000/svg">
<path fill-rule="evenodd" clip-rule="evenodd" d="M3.25 6C3.25 4.48122 4.48122 3.25 6 3.25H13C14.5188 3.25 15.75 4.48122 15.75 6V8C15.75 8.41421 15.4142 8.75 15 8.75C14.5858 8.75 14.25 8.41421 14.25 8V6C14.25 5.30964 13.6904 4.75 13 4.75H6C5.30964 4.75 4.75 5.30964 4.75 6V18C4.75 18.6904 5.30964 19.25 6 19.25H13C13.6904 19.25 14.25 18.6904 14.25 18V16C14.25 15.5858 14.5858 15.25 15 15.25C15.4142 15.25 15.75 15.5858 15.75 16V18C15.75 19.5188 14.5188 20.75 13 20.75H6C4.48122 20.75 3.25 19.5188 3.25 18V6Z" fill="black"/>
<path fill-rule="evenodd" clip-rule="evenodd" d="M11.5304 8.46967C11.8232 8.76256 11.8232 9.23744 11.5304 9.53033L9.81068 11.25H21C21.4142 11.25 21.75 11.5858 21.75 12C21.75 12.4142 21.4142 12.75 21 12.75H9.81068L11.5304 14.4697C11.8232 14.7626 11.8232 15.2374 11.5304 15.5303C11.2375 15.8232 10.7626 15.8232 10.4697 15.5303L7.47362 12.5343C7.4592 12.5201 7.44533 12.5052 7.43205 12.4899C7.33307 12.3753 7.27446 12.238 7.25621 12.0964C7.24986 12.0474 7.24841 11.9982 7.25172 11.9494C7.26348 11.7746 7.33613 11.6032 7.46969 11.4697L10.4697 8.46967C10.7626 8.17678 11.2375 8.17678 11.5304 8.46967Z" fill="black"/>
</svg>
