<svg width="24" height="24" viewBox="0 0 24 24" fill="none" xmlns="http://www.w3.org/2000/svg">
<path fill-rule="evenodd" clip-rule="evenodd" d="M2.25 7C2.25 5.48122 3.48122 4.25 5 4.25H19C20.5188 4.25 21.75 5.48122 21.75 7V17C21.75 18.5188 20.5188 19.75 19 19.75H5C3.48122 19.75 2.25 18.5188 2.25 17V7ZM5 5.75C4.30964 5.75 3.75 6.30964 3.75 7V17C3.75 17.6904 4.30964 18.25 5 18.25H19C19.6904 18.25 20.25 17.6904 20.25 17V7C20.25 6.30964 19.6904 5.75 19 5.75H5Z" fill="black"/>
<path fill-rule="evenodd" clip-rule="evenodd" d="M2.37592 6.58405C2.60568 6.23941 3.07134 6.14628 3.41598 6.37604L12 12.0987L20.5839 6.37604C20.9286 6.14628 21.3942 6.23941 21.624 6.58405C21.8538 6.9287 21.7606 7.39435 21.416 7.62412L12.416 13.6241C12.1641 13.7921 11.8359 13.7921 11.5839 13.6241L2.58393 7.62412C2.23929 7.39435 2.14616 6.9287 2.37592 6.58405Z" fill="black"/>
</svg>
