<svg width="24" height="24" viewBox="0 0 24 24" fill="none" xmlns="http://www.w3.org/2000/svg">
<path fill-rule="evenodd" clip-rule="evenodd" d="M11.5839 2.37596C11.8359 2.20801 12.1641 2.20801 12.416 2.37596L21.416 8.37596C21.6246 8.51506 21.75 8.74924 21.75 9C21.75 9.25076 21.6246 9.48494 21.416 9.62404L12.416 15.624C12.1641 15.792 11.8359 15.792 11.5839 15.624L2.59789 9.63334C2.55199 9.60424 2.50888 9.56987 2.46953 9.53043C2.32637 9.38758 2.25006 9.19528 2.24988 9C2.24978 8.89336 2.27239 8.78582 2.31921 8.68497C2.3556 8.60613 2.40598 8.53298 2.46953 8.46957C2.50888 8.43013 2.55199 8.39576 2.59789 8.36666L11.5839 2.37596ZM4.35204 9L12 14.0986L19.6479 9L12 3.90139L4.35204 9Z" fill="black"/>
<path fill-rule="evenodd" clip-rule="evenodd" d="M3 8.25C3.41421 8.25 3.75 8.58579 3.75 9V19C3.75 19.6904 4.30964 20.25 5 20.25H19C19.6904 20.25 20.25 19.6904 20.25 19V9C20.25 8.58579 20.5858 8.25 21 8.25C21.4142 8.25 21.75 8.58579 21.75 9V19C21.75 20.5188 20.5188 21.75 19 21.75H5C3.48122 21.75 2.25 20.5188 2.25 19V9C2.25 8.58579 2.58579 8.25 3 8.25Z" fill="black"/>
<path fill-rule="evenodd" clip-rule="evenodd" d="M9.53033 12.4697C9.82322 12.7626 9.82322 13.2374 9.53033 13.5303L3.53033 19.5303C3.23744 19.8232 2.76256 19.8232 2.46967 19.5303C2.17678 19.2374 2.17678 18.7626 2.46967 18.4697L8.46967 12.4697C8.76256 12.1768 9.23744 12.1768 9.53033 12.4697Z" fill="black"/>
<path fill-rule="evenodd" clip-rule="evenodd" d="M14.4697 12.4697C14.7626 12.1768 15.2374 12.1768 15.5303 12.4697L21.5303 18.4697C21.8232 18.7626 21.8232 19.2374 21.5303 19.5303C21.2374 19.8232 20.7626 19.8232 20.4697 19.5303L14.4697 13.5303C14.1768 13.2374 14.1768 12.7626 14.4697 12.4697Z" fill="black"/>
</svg>
