<svg width="24" height="24" viewBox="0 0 24 24" fill="none" xmlns="http://www.w3.org/2000/svg">
<path fill-rule="evenodd" clip-rule="evenodd" d="M11.5839 2.37596C11.8359 2.20801 12.1641 2.20801 12.416 2.37596L21.416 8.37596C21.6246 8.51506 21.75 8.74924 21.75 9C21.75 9.25076 21.6246 9.48494 21.416 9.62404L12.416 15.624C12.1641 15.792 11.8359 15.792 11.5839 15.624L2.59789 9.63334C2.55199 9.60424 2.50888 9.56987 2.46953 9.53043C2.32637 9.38758 2.25006 9.19528 2.24988 9C2.24978 8.89336 2.27239 8.78582 2.31921 8.68497C2.3556 8.60613 2.40598 8.53298 2.46953 8.46957C2.50888 8.43013 2.55199 8.39576 2.59789 8.36666L11.5839 2.37596ZM4.35204 9L12 14.0986L19.6479 9L12 3.90139L4.35204 9Z" fill="#212529"/>
<path fill-rule="evenodd" clip-rule="evenodd" d="M2.99988 8.25C3.41409 8.25 3.74988 8.58579 3.74988 9V19C3.74988 19.6904 4.30952 20.25 4.99988 20.25H18.9999C19.6902 20.25 20.2499 19.6904 20.2499 19V9C20.2499 8.58579 20.5857 8.25 20.9999 8.25C21.4141 8.25 21.7499 8.58579 21.7499 9V19C21.7499 20.5188 20.5187 21.75 18.9999 21.75H4.99988C3.48109 21.75 2.24988 20.5188 2.24988 19V9C2.24988 8.58579 2.58566 8.25 2.99988 8.25Z" fill="#212529"/>
<path fill-rule="evenodd" clip-rule="evenodd" d="M9.53021 12.4697C9.8231 12.7626 9.8231 13.2374 9.53021 13.5303L3.53021 19.5303C3.23731 19.8232 2.76244 19.8232 2.46955 19.5303C2.17665 19.2374 2.17665 18.7626 2.46955 18.4697L8.46955 12.4697C8.76244 12.1768 9.23731 12.1768 9.53021 12.4697Z" fill="#212529"/>
<path fill-rule="evenodd" clip-rule="evenodd" d="M14.4697 12.4697C14.7626 12.1768 15.2374 12.1768 15.5303 12.4697L21.5303 18.4697C21.8232 18.7626 21.8232 19.2374 21.5303 19.5303C21.2374 19.8232 20.7626 19.8232 20.4697 19.5303L14.4697 13.5303C14.1768 13.2374 14.1768 12.7626 14.4697 12.4697Z" fill="#212529"/>
</svg>
