<svg width="24" height="24" viewBox="0 0 24 24" fill="none" xmlns="http://www.w3.org/2000/svg">
<path fill-rule="evenodd" clip-rule="evenodd" d="M2.46967 2.46967C2.76256 2.17678 3.23744 2.17678 3.53033 2.46967L21.5303 20.4697C21.8232 20.7626 21.8232 21.2374 21.5303 21.5303C21.2374 21.8232 20.7626 21.8232 20.4697 21.5303L2.46967 3.53033C2.17678 3.23744 2.17678 2.76256 2.46967 2.46967Z" fill="#212529"/>
<path fill-rule="evenodd" clip-rule="evenodd" d="M11.25 8C11.25 7.58579 11.5858 7.25 12 7.25C14.0711 7.25 15.75 8.92893 15.75 11C15.75 11.4142 15.4142 11.75 15 11.75C14.5858 11.75 14.25 11.4142 14.25 11C14.25 9.75736 13.2427 8.75 12 8.75C11.5858 8.75 11.25 8.41421 11.25 8ZM9.83135 8.79526C10.1847 9.01145 10.2958 9.47313 10.0796 9.82645C9.53685 10.7135 9.67271 11.857 10.4083 12.5922C11.1438 13.3274 12.2873 13.4627 13.1741 12.9195C13.5274 12.7031 13.9891 12.814 14.2055 13.1672C14.4218 13.5205 14.3109 13.9822 13.9577 14.1985C12.4797 15.1039 10.5737 14.8784 9.34785 13.6531C8.12195 12.4278 7.89551 10.522 8.80016 9.04355C9.01635 8.69023 9.47803 8.57907 9.83135 8.79526Z" fill="#212529"/>
<path fill-rule="evenodd" clip-rule="evenodd" d="M17.1321 5.86652C14.8231 3.55836 11.2561 3.07827 8.41899 4.6938C8.05905 4.89876 7.60109 4.77312 7.39613 4.41317C7.19117 4.05322 7.31681 3.59527 7.67675 3.39031C11.1009 1.44053 15.4058 2.01995 18.1925 4.80566C20.9793 7.59138 21.5603 11.8961 19.6118 15.3209C19.4069 15.681 18.949 15.8068 18.589 15.6019C18.229 15.3971 18.1032 14.9392 18.308 14.5792C19.9225 11.7415 19.4411 8.17468 17.1321 5.86652ZM6.34506 5.29176C6.66279 5.55752 6.70492 6.03052 6.43916 6.34824C4.02999 9.22853 4.21875 13.4717 6.87414 16.1267C6.87415 16.1267 6.87414 16.1267 6.87414 16.1267L11.1179 20.3695C11.606 20.857 12.3968 20.857 12.8848 20.3695L16.6296 16.6257C16.9225 16.3328 17.3974 16.3329 17.6903 16.6258C17.9831 16.9187 17.9831 17.3936 17.6901 17.6865L13.9451 21.4305C12.8714 22.5031 11.1315 22.5033 10.0578 21.4306L5.81361 17.1874C2.60879 13.9831 2.38096 8.86208 5.28859 5.38586C5.55434 5.06814 6.02734 5.02601 6.34506 5.29176Z" fill="#212529"/>
</svg>
