<svg width="24" height="24" viewBox="0 0 24 24" fill="none" xmlns="http://www.w3.org/2000/svg">
<path fill-rule="evenodd" clip-rule="evenodd" d="M13.9975 14.0793C14.3481 13.9164 14.7644 14.0685 14.9273 14.4191L15.6224 15.9153C15.708 15.9382 15.8069 15.9657 15.9162 15.9981C16.2895 16.1089 16.7947 16.2795 17.3062 16.5173C17.8113 16.7521 18.3603 17.0697 18.7924 17.4889C19.2284 17.9118 19.5931 18.4881 19.5931 19.2155C19.5931 19.7109 19.435 20.1229 19.1715 20.442C18.9179 20.749 18.5974 20.9338 18.3186 21.0463C18.0385 21.1593 17.7683 21.2126 17.5749 21.2386C17.4764 21.2519 17.3931 21.2587 17.3323 21.2622C17.3018 21.2639 17.2767 21.2649 17.2578 21.2654L17.2341 21.2659L17.2259 21.2659L17.2227 21.266L17.2213 21.266C17.2213 21.266 17.2202 21.266 17.2202 20.566V21.266H12.7589C12.64 21.266 12.523 21.2356 12.419 21.1779L10.2232 19.958C9.88527 19.7702 9.76351 19.3441 9.95125 19.0061C10.139 18.6682 10.5652 18.5464 10.9031 18.7342L12.9403 19.866H17.2167L17.2201 19.8659C17.2257 19.8657 17.2365 19.8654 17.2517 19.8645C17.2825 19.8627 17.3299 19.859 17.3882 19.8511C17.5085 19.8349 17.6565 19.8038 17.7947 19.748C17.9341 19.6917 18.0319 19.6233 18.092 19.5505C18.1421 19.4898 18.1931 19.3954 18.1931 19.2155C18.1931 18.9922 18.0874 18.7555 17.8176 18.4938C17.5439 18.2283 17.1518 17.9894 16.7159 17.7868C16.2864 17.587 15.8505 17.4389 15.5181 17.3403C15.3531 17.2914 15.2162 17.2555 15.1219 17.232C15.0749 17.2203 15.0386 17.2118 15.0149 17.2064L14.989 17.2005L14.9837 17.1994C14.9837 17.1994 14.9836 17.1993 15.129 16.5146M13.9975 14.0793C13.6469 14.2421 13.4947 14.6584 13.6576 15.009L13.9975 14.0793ZM13.6576 15.009L14.0759 15.9093L14.4942 16.8096M14.4942 16.8096C14.5869 17.0091 14.7685 17.1536 14.9837 17.1994L14.4942 16.8096Z" fill="#212529"/>
<path d="M15.1222 16.4999L13.9975 14.0793L13.6576 15.009L14.0759 15.9093L14.4942 16.8096L14.9837 17.1994C14.9966 17.0398 14.9999 16.6666 14.9999 16.4999H15.1222Z" fill="#212529"/>
<path d="M14.9837 17.1994C14.9837 17.1994 14.9836 17.1993 15.129 16.5146L15.1222 16.4999H14.9999C14.9999 16.6666 14.9966 17.0398 14.9837 17.1994Z" fill="#212529"/>
<path fill-rule="evenodd" clip-rule="evenodd" d="M9.56824 14.0792C9.91885 14.2421 10.071 14.6584 9.90815 15.009L9.07167 16.8095C8.97899 17.009 8.79793 17.1534 8.58281 17.1992L8.57679 17.2005L8.55096 17.2064C8.52726 17.2118 8.49096 17.2203 8.44389 17.232C8.34961 17.2555 8.21277 17.2914 8.04771 17.3403C7.71528 17.4389 7.27942 17.587 6.84987 17.7868C6.41397 17.9894 6.02188 18.2283 5.74821 18.4938C5.4784 18.7555 5.37266 18.9922 5.37266 19.2155C5.37266 19.3954 5.42367 19.4898 5.47378 19.5505C5.53389 19.6233 5.63167 19.6917 5.77113 19.748C5.90927 19.8038 6.05727 19.8349 6.17755 19.8511C6.23588 19.859 6.28332 19.8627 6.31403 19.8645C6.32928 19.8654 6.34007 19.8657 6.34566 19.8659L6.34912 19.866H8.18574L10.2047 18.7443L12.8708 17.0477C13.197 16.8401 13.6297 16.9363 13.8372 17.2625C14.0448 17.5886 13.9486 18.0213 13.6225 18.2288L10.9387 19.9367C10.927 19.9441 10.915 19.9512 10.9029 19.958L8.70707 21.1779C8.60308 21.2356 8.48608 21.266 8.36712 21.266H6.34562V20.566C6.34562 21.266 6.34591 21.266 6.34562 21.266L6.34309 21.266L6.33992 21.2659L6.33171 21.2659L6.308 21.2654C6.28908 21.2649 6.26394 21.2639 6.23344 21.2622C6.17265 21.2587 6.0894 21.2519 5.99088 21.2386C5.79749 21.2126 5.52725 21.1593 5.24715 21.0463C4.96837 20.9338 4.6479 20.749 4.39433 20.442C4.13077 20.1229 3.97266 19.7109 3.97266 19.2155C3.97266 18.4881 4.33744 17.9118 4.7734 17.4889C5.20552 17.0697 5.75448 16.7521 6.25962 16.5173C6.77111 16.2795 7.27629 16.1089 7.64965 15.9981C7.7589 15.9657 7.8578 15.9382 7.94339 15.9153L8.63848 14.4192C8.80136 14.0685 9.21763 13.9164 9.56824 14.0792Z" fill="#212529"/>
<path fill-rule="evenodd" clip-rule="evenodd" d="M9.73252 10.0287C8.79825 10.5771 7.63188 11.84 7.03241 14.8509C6.98443 15.0919 6.81358 15.2901 6.58228 15.3731C5.91973 15.6108 5.05448 15.8428 4.37112 16.0125C4.02605 16.0982 3.72101 16.1696 3.50209 16.2195C3.39257 16.2445 3.30442 16.2642 3.24339 16.2777L3.17287 16.2932L3.15417 16.2973L3.14784 16.2986C2.76989 16.38 2.39696 16.1397 2.31562 15.7617C2.23428 15.3838 2.47471 15.0115 2.85263 14.9301L2.8578 14.929L2.87462 14.9253L2.94112 14.9107C2.99936 14.8979 3.08439 14.8789 3.19052 14.8546C3.40292 14.8062 3.6991 14.7369 4.03367 14.6538C4.57873 14.5184 5.20948 14.3503 5.74381 14.1789C6.42534 11.1508 7.71397 9.59024 9.02375 8.82132C9.69528 8.42709 10.3381 8.26218 10.8429 8.19632C11.0951 8.16343 11.3124 8.15527 11.4808 8.15527C11.5648 8.15527 11.6362 8.15731 11.691 8.15921L11.7579 8.16161L11.7775 8.1622C11.7806 8.16227 11.7823 8.1623 11.783 8.1623C11.7833 8.16231 11.7833 8.1623 11.783 8.1623C11.7835 8.1623 11.7854 8.16228 11.7886 8.1622L11.8081 8.16161L11.8751 8.15921C11.9299 8.15731 12.0013 8.15527 12.0853 8.15527C12.2537 8.15527 12.471 8.16343 12.7232 8.19632C13.228 8.26218 13.8708 8.42709 14.5423 8.82132C15.8521 9.59024 17.1407 11.1508 17.8222 14.1789C18.3566 14.3503 18.9873 14.5184 19.5324 14.6538C19.867 14.7369 20.1631 14.8062 20.3755 14.8546C20.4817 14.8789 20.5667 14.8979 20.6249 14.9107L20.6915 14.9253L20.7083 14.929L20.7123 14.9299L20.7134 14.9301M20.7134 14.9301C21.0914 15.0115 21.3318 15.3838 21.2505 15.7617C21.1691 16.1397 20.7968 16.3801 20.4188 16.2988L20.4119 16.2973L20.3932 16.2932L20.3227 16.2777C20.2617 16.2642 20.1735 16.2445 20.064 16.2195C19.8451 16.1696 19.54 16.0982 19.1949 16.0125C18.5116 15.8428 17.6463 15.6108 16.9838 15.373C16.7525 15.2901 16.5816 15.0919 16.5336 14.8509C15.9342 11.84 14.7678 10.5771 13.8335 10.0286C12.9751 9.52471 12.208 9.54944 11.8793 9.56004C11.8411 9.56127 11.8088 9.56231 11.783 9.56231C11.7572 9.56231 11.725 9.56127 11.6868 9.56004C11.358 9.54944 10.5909 9.52471 9.73252 10.0287" fill="#212529"/>
<path fill-rule="evenodd" clip-rule="evenodd" d="M9.13086 4.95185C9.13086 3.4873 10.3181 2.30005 11.7827 2.30005C13.2472 2.30005 14.4345 3.4873 14.4345 4.95185C14.4345 6.41639 13.2472 7.60364 11.7827 7.60364C10.3181 7.60364 9.13086 6.41639 9.13086 4.95185ZM11.7827 3.70005C11.0913 3.70005 10.5309 4.26049 10.5309 4.95185C10.5309 5.6432 11.0913 6.20364 11.7827 6.20364C12.474 6.20364 13.0345 5.6432 13.0345 4.95185C13.0345 4.26049 12.474 3.70005 11.7827 3.70005Z" fill="#212529"/>
</svg>
