<svg width="24" height="24" viewBox="0 0 24 24" fill="none" xmlns="http://www.w3.org/2000/svg">
<path fill-rule="evenodd" clip-rule="evenodd" d="M2.46967 2.46967C2.76256 2.17678 3.23744 2.17678 3.53033 2.46967L21.5303 20.4697C21.8232 20.7626 21.8232 21.2374 21.5303 21.5303C21.2374 21.8232 20.7626 21.8232 20.4697 21.5303L2.46967 3.53033C2.17678 3.23744 2.17678 2.76256 2.46967 2.46967Z" fill="black"/>
<path fill-rule="evenodd" clip-rule="evenodd" d="M17.7582 6.77746C15.3503 4.72325 11.8318 4.19062 8.8429 5.28515C8.45395 5.42758 8.02317 5.22774 7.88073 4.83879C7.7383 4.44983 7.93814 4.01906 8.3271 3.87662C11.7881 2.60918 15.8834 3.20649 18.7316 5.63613C21.9863 8.41077 22.688 12.8025 20.5143 16.2675C20.2942 16.6183 19.8313 16.7243 19.4804 16.5042C19.1295 16.2841 19.0235 15.8212 19.2437 15.4703C21.006 12.6612 20.4697 9.089 17.7584 6.77763L17.7582 6.77746ZM6.60129 5.54942C6.85891 5.87378 6.80481 6.34556 6.48046 6.60318C3.56517 8.91866 2.91731 12.7164 4.92128 15.6797C5.0519 15.8729 5.08525 16.1158 5.01151 16.3371L4.12602 18.9935L7.54392 18.2663C7.70722 18.2316 7.87746 18.2523 8.02764 18.3252C11.1538 19.8435 14.9502 19.3975 17.5075 17.3872C17.8331 17.1313 18.3047 17.1877 18.5606 17.5134C18.8166 17.839 18.7601 18.3105 18.4345 18.5665C15.485 20.885 11.1984 21.4176 7.60939 19.7859L3.15608 20.7335C2.89298 20.7894 2.62004 20.7002 2.44079 20.4997C2.26154 20.2991 2.20342 20.0179 2.28849 19.7627L3.47475 16.2039C1.2594 12.6018 2.15675 8.12174 5.54754 5.42859C5.87189 5.17097 6.34367 5.22507 6.60129 5.54942Z" fill="black"/>
</svg>
