<svg width="24" height="24" viewBox="0 0 24 24" fill="none" xmlns="http://www.w3.org/2000/svg">
<path fill-rule="evenodd" clip-rule="evenodd" d="M2.46967 2.46967C2.76256 2.17678 3.23744 2.17678 3.53033 2.46967L21.5303 20.4697C21.8232 20.7626 21.8232 21.2374 21.5303 21.5303C21.2374 21.8232 20.7626 21.8232 20.4697 21.5303L2.46967 3.53033C2.17678 3.23744 2.17678 2.76256 2.46967 2.46967Z" fill="#212529"/>
<path fill-rule="evenodd" clip-rule="evenodd" d="M17.7582 6.77758C15.3504 4.72337 11.8318 4.19074 8.84292 5.28527C8.45396 5.4277 8.02319 5.22786 7.88075 4.83891C7.73832 4.44995 7.93816 4.01918 8.32711 3.87674C11.7882 2.6093 15.8835 3.20661 18.7316 5.63625C21.9863 8.41089 22.6881 12.8027 20.5143 16.2676C20.2942 16.6185 19.8313 16.7245 19.4804 16.5043C19.1296 16.2842 19.0236 15.8213 19.2437 15.4704C21.006 12.6613 20.4697 9.08912 17.7584 6.77776L17.7582 6.77758ZM6.60131 5.54954C6.85893 5.8739 6.80483 6.34568 6.48047 6.6033C3.56518 8.91879 2.91733 12.7165 4.92129 15.6799C5.05192 15.873 5.08526 16.116 5.01153 16.3372L4.12604 18.9936L7.54393 18.2664C7.70724 18.2317 7.87747 18.2524 8.02766 18.3254C11.1538 19.8436 14.9502 19.3976 17.5075 17.3874C17.8332 17.1314 18.3047 17.1879 18.5606 17.5135C18.8166 17.8392 18.7602 18.3107 18.4345 18.5666C15.4851 20.8851 11.1984 21.4177 7.60941 19.7861L3.15609 20.7336C2.89299 20.7896 2.62006 20.7004 2.4408 20.4998C2.26155 20.2992 2.20344 20.018 2.2885 19.7628L3.47476 16.2041C1.25942 12.6019 2.15677 8.12186 5.54755 5.42871C5.87191 5.17109 6.34369 5.22519 6.60131 5.54954Z" fill="#212529"/>
</svg>
