<svg width="24" height="24" viewBox="0 0 24 24" fill="none" xmlns="http://www.w3.org/2000/svg">
<path fill-rule="evenodd" clip-rule="evenodd" d="M17.7585 6.77715C14.7687 4.22697 10.0837 4.03223 6.83369 6.33793C3.61711 8.61993 2.84129 12.6036 4.92127 15.6799C5.05187 15.873 5.0852 16.1159 5.01147 16.3371L4.12599 18.9936L7.54388 18.2664C7.70715 18.2316 7.87734 18.2524 8.02751 18.3253C11.6974 20.1069 16.2644 19.1789 18.6951 16.2301C21.0921 13.322 20.7129 9.29709 17.7585 6.77715ZM2.95793 20.749C3.02947 20.753 3.10029 20.7467 3.16845 20.7309L7.60942 19.786C11.8174 21.6981 17.0045 20.6394 19.8526 17.1841C22.788 13.6228 22.2877 8.6687 18.732 5.6359C15.2117 2.63333 9.76755 2.41737 5.96576 5.11454C2.23615 7.7605 1.16914 12.4549 3.47472 16.204L2.29246 19.7508C2.26915 19.8167 2.25492 19.8864 2.25095 19.9579C2.24573 20.05 2.25773 20.1408 2.2849 20.2264C2.31763 20.3302 2.37151 20.4226 2.44065 20.4998C2.50965 20.5772 2.59547 20.6411 2.69497 20.6852C2.77693 20.7218 2.86588 20.7439 2.95793 20.749Z" fill="#212529"/>
<path fill-rule="evenodd" clip-rule="evenodd" d="M12 11.25C12.4142 11.25 12.75 11.5858 12.75 12V12.01C12.75 12.4242 12.4142 12.76 12 12.76C11.5858 12.76 11.25 12.4242 11.25 12.01V12C11.25 11.5858 11.5858 11.25 12 11.25Z" fill="#212529"/>
<path fill-rule="evenodd" clip-rule="evenodd" d="M8 11.25C8.41421 11.25 8.75 11.5858 8.75 12V12.01C8.75 12.4242 8.41421 12.76 8 12.76C7.58579 12.76 7.25 12.4242 7.25 12.01V12C7.25 11.5858 7.58579 11.25 8 11.25Z" fill="#212529"/>
<path fill-rule="evenodd" clip-rule="evenodd" d="M16 11.25C16.4142 11.25 16.75 11.5858 16.75 12V12.01C16.75 12.4242 16.4142 12.76 16 12.76C15.5858 12.76 15.25 12.4242 15.25 12.01V12C15.25 11.5858 15.5858 11.25 16 11.25Z" fill="#212529"/>
</svg>
