<svg width="24" height="24" viewBox="0 0 24 24" fill="none" xmlns="http://www.w3.org/2000/svg">
<path fill-rule="evenodd" clip-rule="evenodd" d="M2.46967 2.46967C2.76256 2.17678 3.23744 2.17678 3.53033 2.46967L21.5303 20.4697C21.8232 20.7626 21.8232 21.2374 21.5303 21.5303C21.2374 21.8232 20.7626 21.8232 20.4697 21.5303L2.46967 3.53033C2.17678 3.23744 2.17678 2.76256 2.46967 2.46967Z" fill="black"/>
<path fill-rule="evenodd" clip-rule="evenodd" d="M12 2.75C10.7574 2.75 9.75 3.75736 9.75 5C9.75 5.41421 9.41421 5.75 9 5.75C8.58579 5.75 8.25 5.41421 8.25 5C8.25 2.92893 9.92893 1.25 12 1.25C14.0711 1.25 15.75 2.92893 15.75 5V9.99989C15.75 9.99993 15.75 9.99985 15.75 9.99989C15.75 10.37 15.6953 10.7383 15.5875 11.0924C15.4669 11.4887 15.0479 11.7121 14.6516 11.5915C14.2553 11.4709 14.0319 11.0519 14.1525 10.6556C14.2172 10.4431 14.25 10.2222 14.25 10.0001V5C14.25 3.75736 13.2426 2.75 12 2.75ZM9 8.252C9.41421 8.252 9.75 8.58779 9.75 9.002V10.002C9.74978 10.7145 10.087 11.3851 10.6591 11.8097C11.2313 12.2343 11.9707 12.3628 12.6525 12.1562C13.0489 12.0361 13.4676 12.2601 13.5878 12.6565C13.7079 13.0529 13.4839 13.4716 13.0875 13.5918C11.9511 13.9361 10.7188 13.7219 9.76522 13.0143C8.81174 12.3067 8.24971 11.1893 8.25 10.002C8.25 10.0019 8.25 10.0021 8.25 10.002V9.002C8.25 8.58779 8.58579 8.252 9 8.252Z" fill="black"/>
<path fill-rule="evenodd" clip-rule="evenodd" d="M5.00013 9.25C5.41434 9.25007 5.75007 9.58592 5.75 10.0001C5.7496 12.2982 7.01038 14.4111 9.03301 15.5021C11.0556 16.593 13.5138 16.486 15.4339 15.2233C15.78 14.9958 16.2451 15.0918 16.4727 15.4379C16.7002 15.784 16.6042 16.2491 16.2581 16.4767C13.8771 18.0423 10.829 18.175 8.32093 16.8223C5.81287 15.4695 4.24951 12.8495 4.25 9.99987C4.25007 9.58566 4.58592 9.24993 5.00013 9.25ZM18.9986 9.25C19.4128 9.24925 19.7492 9.58442 19.75 9.99863C19.7528 11.5146 19.309 12.9978 18.474 14.2631C18.2458 14.6088 17.7806 14.7041 17.4349 14.476C17.0892 14.2478 16.9939 13.7826 17.222 13.4369C17.8947 12.4176 18.2522 11.2227 18.25 10.0014C18.2492 9.58715 18.5844 9.25076 18.9986 9.25Z" fill="black"/>
<path fill-rule="evenodd" clip-rule="evenodd" d="M7.25 21C7.25 20.5858 7.58579 20.25 8 20.25H16C16.4142 20.25 16.75 20.5858 16.75 21C16.75 21.4142 16.4142 21.75 16 21.75H8C7.58579 21.75 7.25 21.4142 7.25 21Z" fill="black"/>
<path fill-rule="evenodd" clip-rule="evenodd" d="M12 16.25C12.4142 16.25 12.75 16.5858 12.75 17V21C12.75 21.4142 12.4142 21.75 12 21.75C11.5858 21.75 11.25 21.4142 11.25 21V17C11.25 16.5858 11.5858 16.25 12 16.25Z" fill="black"/>
</svg>
