<svg width="24" height="24" viewBox="0 0 24 24" fill="none" xmlns="http://www.w3.org/2000/svg">
<path fill-rule="evenodd" clip-rule="evenodd" d="M12 3.75C7.44365 3.75 3.75 7.44365 3.75 12C3.75 16.5563 7.44365 20.25 12 20.25C16.5563 20.25 20.25 16.5563 20.25 12C20.25 7.44365 16.5563 3.75 12 3.75ZM2.25 12C2.25 6.61522 6.61522 2.25 12 2.25C17.3848 2.25 21.75 6.61522 21.75 12C21.75 17.3848 17.3848 21.75 12 21.75C6.61522 21.75 2.25 17.3848 2.25 12Z" fill="#212529"/>
<path fill-rule="evenodd" clip-rule="evenodd" d="M8.25 10C8.25 9.58579 8.58579 9.25 9 9.25H9.01C9.42421 9.25 9.76 9.58579 9.76 10C9.76 10.4142 9.42421 10.75 9.01 10.75H9C8.58579 10.75 8.25 10.4142 8.25 10Z" fill="#212529"/>
<path fill-rule="evenodd" clip-rule="evenodd" d="M14.25 10C14.25 9.58579 14.5858 9.25 15 9.25H15.01C15.4242 9.25 15.76 9.58579 15.76 10C15.76 10.4142 15.4242 10.75 15.01 10.75H15C14.5858 10.75 14.25 10.4142 14.25 10Z" fill="#212529"/>
<path fill-rule="evenodd" clip-rule="evenodd" d="M15.4481 15.2482C13.4979 15.1127 11.555 15.5984 9.89809 16.6357C9.547 16.8555 9.08421 16.7491 8.86441 16.398C8.6446 16.0469 8.75103 15.5841 9.10211 15.3643C11.0277 14.1588 13.2857 13.5943 15.5521 13.7518C15.9653 13.7806 16.277 14.1388 16.2483 14.5521C16.2196 14.9653 15.8613 15.277 15.4481 15.2482Z" fill="#212529"/>
</svg>
