<svg width="24" height="24" viewBox="0 0 24 24" fill="none" xmlns="http://www.w3.org/2000/svg">
<path fill-rule="evenodd" clip-rule="evenodd" d="M4.08091 5.75C3.99339 5.74976 3.90936 5.78429 3.8473 5.84601C3.78541 5.90755 3.75044 5.99109 3.75 6.07835V14.692C3.75 16.6527 5.35014 18.25 7.333 18.25H11.667C13.65 18.25 15.25 16.6536 15.25 14.692V6.07835C15.2496 5.99109 15.2146 5.90755 15.1527 5.84601C15.0906 5.78429 15.0066 5.74976 14.9191 5.75L14.917 5.75H4.08344C4.0833 5.75 4.08359 5.75 4.08344 5.75M4.0839 4.25C3.59898 4.24897 3.13345 4.44045 2.78959 4.78241C2.44544 5.12464 2.25135 5.58958 2.25 6.07492L2.25 14.692C2.25 17.4893 4.52986 19.75 7.333 19.75H11.667C14.47 19.75 16.75 17.4904 16.75 14.692L16.75 6.077L16.75 6.07492C16.7487 5.58958 16.5546 5.12464 16.2104 4.78241C15.8665 4.44045 15.401 4.24897 14.9161 4.25L14.917 5L14.9149 4.25001C14.9153 4.25001 14.9157 4.25001 14.9161 4.25" fill="black"/>
<path fill-rule="evenodd" clip-rule="evenodd" d="M15.25 8C15.25 7.58579 15.5858 7.25 16 7.25H18.5C20.2445 7.25 21.75 8.58276 21.75 10.333V12.667C21.75 14.4172 20.2445 15.75 18.5 15.75H16C15.5858 15.75 15.25 15.4142 15.25 15C15.25 14.5858 15.5858 14.25 16 14.25H18.5C19.5155 14.25 20.25 13.4928 20.25 12.667V10.333C20.25 9.50724 19.5155 8.75 18.5 8.75H16C15.5858 8.75 15.25 8.41421 15.25 8Z" fill="black"/>
</svg>
