<svg width="24" height="24" viewBox="0 0 24 24" fill="none" xmlns="http://www.w3.org/2000/svg">
<path fill-rule="evenodd" clip-rule="evenodd" d="M6 14.75C4.75736 14.75 3.75 15.7574 3.75 17C3.75 18.2426 4.75736 19.25 6 19.25C7.24264 19.25 8.25 18.2426 8.25 17C8.25 15.7574 7.24264 14.75 6 14.75ZM2.25 17C2.25 14.9289 3.92893 13.25 6 13.25C8.07107 13.25 9.75 14.9289 9.75 17C9.75 19.0711 8.07107 20.75 6 20.75C3.92893 20.75 2.25 19.0711 2.25 17Z" fill="#212529"/>
<path fill-rule="evenodd" clip-rule="evenodd" d="M16 14.75C14.7574 14.75 13.75 15.7574 13.75 17C13.75 18.2426 14.7574 19.25 16 19.25C17.2426 19.25 18.25 18.2426 18.25 17C18.25 15.7574 17.2426 14.75 16 14.75ZM12.25 17C12.25 14.9289 13.9289 13.25 16 13.25C18.0711 13.25 19.75 14.9289 19.75 17C19.75 19.0711 18.0711 20.75 16 20.75C13.9289 20.75 12.25 19.0711 12.25 17Z" fill="#212529"/>
<path fill-rule="evenodd" clip-rule="evenodd" d="M8.25 4C8.25 3.58579 8.58579 3.25 9 3.25H19C19.4142 3.25 19.75 3.58579 19.75 4V17C19.75 17.4142 19.4142 17.75 19 17.75C18.5858 17.75 18.25 17.4142 18.25 17V4.75H9.75V17C9.75 17.4142 9.41421 17.75 9 17.75C8.58579 17.75 8.25 17.4142 8.25 17V4Z" fill="#212529"/>
<path fill-rule="evenodd" clip-rule="evenodd" d="M8.25 8C8.25 7.58579 8.58579 7.25 9 7.25H19C19.4142 7.25 19.75 7.58579 19.75 8C19.75 8.41421 19.4142 8.75 19 8.75H9C8.58579 8.75 8.25 8.41421 8.25 8Z" fill="#212529"/>
</svg>
