<svg width="24" height="24" viewBox="0 0 24 24" fill="none" xmlns="http://www.w3.org/2000/svg">
<path fill-rule="evenodd" clip-rule="evenodd" d="M18.9692 5.03037C17.3291 3.39027 14.67 3.39027 13.0299 5.03037L5.02988 13.0304C3.38978 14.6705 3.38978 17.3296 5.02988 18.9697C6.66999 20.6098 9.32912 20.6098 10.9692 18.9697L18.9692 10.9697C20.6093 9.32961 20.6093 6.67047 18.9692 5.03037ZM3.96922 11.9697C1.74333 14.1956 1.74333 17.8045 3.96922 20.0304C6.19511 22.2563 9.80399 22.2563 12.0299 20.0304L20.0299 12.0304C22.2558 9.80448 22.2558 6.1956 20.0299 3.96971C17.804 1.74382 14.1951 1.74382 11.9692 3.96971L3.96922 11.9697Z" fill="#212529"/>
<path fill-rule="evenodd" clip-rule="evenodd" d="M7.96967 7.96967C8.26256 7.67678 8.73744 7.67678 9.03033 7.96967L16.0303 14.9697C16.3232 15.2626 16.3232 15.7374 16.0303 16.0303C15.7374 16.3232 15.2626 16.3232 14.9697 16.0303L7.96967 9.03033C7.67678 8.73744 7.67678 8.26256 7.96967 7.96967Z" fill="#212529"/>
</svg>
