<svg width="24" height="24" viewBox="0 0 24 24" fill="none" xmlns="http://www.w3.org/2000/svg">
<path fill-rule="evenodd" clip-rule="evenodd" d="M15.5303 3.96967C15.8232 4.26256 15.8232 4.73744 15.5303 5.03033L11.5303 9.03033C11.4546 9.10604 11.3636 9.16465 11.2633 9.20225L7.41546 10.6452L6.56066 11.5L12.5 17.4393L13.3548 16.5845L14.7978 12.7367C14.8353 12.6364 14.894 12.5454 14.9697 12.4697L18.9697 8.46967C19.2626 8.17678 19.7374 8.17678 20.0303 8.46967C20.3232 8.76256 20.3232 9.23744 20.0303 9.53033L16.1452 13.4155L14.7022 17.2633C14.6647 17.3636 14.606 17.4546 14.5303 17.5303L13.0303 19.0303C12.7374 19.3232 12.2626 19.3232 11.9697 19.0303L4.96967 12.0303C4.67678 11.7374 4.67678 11.2626 4.96967 10.9697L6.46967 9.46967C6.54537 9.39396 6.63641 9.33535 6.73666 9.29775L10.5845 7.8548L14.4697 3.96967C14.7626 3.67678 15.2374 3.67678 15.5303 3.96967Z" fill="#212529"/>
<path fill-rule="evenodd" clip-rule="evenodd" d="M9.53033 14.4697C9.82322 14.7626 9.82322 15.2374 9.53033 15.5303L5.03033 20.0303C4.73744 20.3232 4.26256 20.3232 3.96967 20.0303C3.67678 19.7374 3.67678 19.2626 3.96967 18.9697L8.46967 14.4697C8.76256 14.1768 9.23744 14.1768 9.53033 14.4697Z" fill="#212529"/>
<path fill-rule="evenodd" clip-rule="evenodd" d="M13.9697 3.46967C14.2626 3.17678 14.7374 3.17678 15.0303 3.46967L20.5303 8.96967C20.8232 9.26256 20.8232 9.73744 20.5303 10.0303C20.2374 10.3232 19.7626 10.3232 19.4697 10.0303L13.9697 4.53033C13.6768 4.23744 13.6768 3.76256 13.9697 3.46967Z" fill="#212529"/>
</svg>
