<svg width="24" height="24" viewBox="0 0 24 24" fill="none" xmlns="http://www.w3.org/2000/svg">
<path fill-rule="evenodd" clip-rule="evenodd" d="M9 3.25C9.41421 3.25 9.75 3.58579 9.75 4V10C9.75 10.1164 9.72289 10.2313 9.67082 10.3354L7.75 14.1771V15.25H16.25V14.1771L14.3292 10.3354C14.2771 10.2313 14.25 10.1164 14.25 10V4C14.25 3.58579 14.5858 3.25 15 3.25C15.4142 3.25 15.75 3.58579 15.75 4V9.82295L17.6708 13.6646C17.7229 13.7687 17.75 13.8836 17.75 14V16C17.75 16.4142 17.4142 16.75 17 16.75H7C6.58579 16.75 6.25 16.4142 6.25 16V14C6.25 13.8836 6.27711 13.7687 6.32918 13.6646L8.25 9.82295V4C8.25 3.58579 8.58579 3.25 9 3.25Z" fill="#212529"/>
<path fill-rule="evenodd" clip-rule="evenodd" d="M12 15.25C12.4142 15.25 12.75 15.5858 12.75 16V21C12.75 21.4142 12.4142 21.75 12 21.75C11.5858 21.75 11.25 21.4142 11.25 21V16C11.25 15.5858 11.5858 15.25 12 15.25Z" fill="#212529"/>
<path fill-rule="evenodd" clip-rule="evenodd" d="M7.25 4C7.25 3.58579 7.58579 3.25 8 3.25H16C16.4142 3.25 16.75 3.58579 16.75 4C16.75 4.41421 16.4142 4.75 16 4.75H8C7.58579 4.75 7.25 4.41421 7.25 4Z" fill="#212529"/>
</svg>
