<svg width="24" height="24" viewBox="0 0 24 24" fill="none" xmlns="http://www.w3.org/2000/svg">
<path fill-rule="evenodd" clip-rule="evenodd" d="M12 2.25C12.2809 2.25 12.5383 2.40701 12.6669 2.65681L21.1669 19.1738C21.2588 19.3525 21.2752 19.5605 21.2124 19.7514C21.1496 19.9422 21.0129 20.0999 20.8329 20.1891C18.0869 21.549 15.0632 22.2544 11.9989 22.25C8.84221 22.2498 5.81625 21.5084 3.16565 20.1883C2.98606 20.0989 2.84979 19.9412 2.7873 19.7506C2.72482 19.5599 2.74132 19.3522 2.83313 19.1738L11.3331 2.65681C11.4617 2.40701 11.7191 2.25 12 2.25ZM4.52208 19.17C6.79833 20.1846 9.3476 20.75 12 20.75H12.0011C14.5794 20.7537 17.1265 20.2138 19.4774 19.1689L12 4.63904L4.52208 19.17Z" fill="#212529"/>
<path fill-rule="evenodd" clip-rule="evenodd" d="M4.71207 15.525C4.90043 15.156 5.35218 15.0097 5.72109 15.198C7.72515 16.2213 9.94381 16.7532 12.194 16.75L12.196 16.75C14.3341 16.7529 16.4452 16.2726 18.3717 15.3452C18.7449 15.1656 19.1931 15.3225 19.3728 15.6957C19.5525 16.0689 19.3956 16.5171 19.0224 16.6968C16.8926 17.722 14.5588 18.253 12.1951 18.25C9.70741 18.2534 7.25459 17.6652 5.03899 16.534C4.67008 16.3456 4.52371 15.8939 4.71207 15.525Z" fill="#212529"/>
<path fill-rule="evenodd" clip-rule="evenodd" d="M13 10.25C13.4142 10.25 13.75 10.5858 13.75 11V11.01C13.75 11.4242 13.4142 11.76 13 11.76C12.5858 11.76 12.25 11.4242 12.25 11.01V11C12.25 10.5858 12.5858 10.25 13 10.25Z" fill="#212529"/>
<path fill-rule="evenodd" clip-rule="evenodd" d="M11 13.24C11.4142 13.24 11.75 13.5758 11.75 13.99V14C11.75 14.4142 11.4142 14.75 11 14.75C10.5858 14.75 10.25 14.4142 10.25 14V13.99C10.25 13.5758 10.5858 13.24 11 13.24Z" fill="#212529"/>
</svg>
