<svg width="24" height="24" viewBox="0 0 24 24" fill="none" xmlns="http://www.w3.org/2000/svg">
<path fill-rule="evenodd" clip-rule="evenodd" d="M2 8.25C2.41421 8.25 2.75 8.58579 2.75 9C2.75 14.1086 6.89137 18.25 12 18.25C17.1086 18.25 21.25 14.1086 21.25 9C21.25 8.58579 21.5858 8.25 22 8.25C22.4142 8.25 22.75 8.58579 22.75 9C22.75 14.9371 17.9371 19.75 12 19.75C6.06294 19.75 1.25 14.9371 1.25 9C1.25 8.58579 1.58579 8.25 2 8.25Z" fill="#212529"/>
<path fill-rule="evenodd" clip-rule="evenodd" d="M22 9.75C16.8914 9.75 12.75 13.8914 12.75 19C12.75 19.4142 12.4142 19.75 12 19.75C11.5858 19.75 11.25 19.4142 11.25 19C11.25 13.0629 16.0629 8.25 22 8.25C22.4142 8.25 22.75 8.58579 22.75 9C22.75 9.41421 22.4142 9.75 22 9.75Z" fill="#212529"/>
<path fill-rule="evenodd" clip-rule="evenodd" d="M1.25 9C1.25 8.58579 1.58579 8.25 2 8.25C4.85108 8.25 7.58538 9.38259 9.6014 11.3986C11.6174 13.4146 12.75 16.1489 12.75 19C12.75 19.4142 12.4142 19.75 12 19.75C11.5858 19.75 11.25 19.4142 11.25 19C11.25 16.5467 10.2754 14.194 8.54074 12.4593C6.80603 10.7246 4.45325 9.75 2 9.75C1.58579 9.75 1.25 9.41421 1.25 9Z" fill="#212529"/>
<path fill-rule="evenodd" clip-rule="evenodd" d="M11.4575 3.48212C11.7435 3.18251 12.2183 3.17149 12.5179 3.45751C14.7148 5.55473 15.8905 8.50397 15.7391 11.5374C15.7184 11.9511 15.3663 12.2697 14.9526 12.2491C14.5389 12.2284 14.2203 11.8763 14.2409 11.4626C14.3707 8.86459 13.3637 6.33868 11.4821 4.54249C11.1825 4.25648 11.1715 3.78173 11.4575 3.48212Z" fill="#212529"/>
<path fill-rule="evenodd" clip-rule="evenodd" d="M12.5424 3.48212C12.8284 3.78173 12.8174 4.25648 12.5178 4.54249C10.6362 6.33868 9.62923 8.86459 9.75896 11.4626C9.77962 11.8763 9.46099 12.2284 9.0473 12.2491C8.6336 12.2697 8.28148 11.9511 8.26082 11.5374C8.10936 8.50397 9.28512 5.55473 11.482 3.45751C11.7816 3.17149 12.2564 3.18251 12.5424 3.48212Z" fill="#212529"/>
</svg>
