<svg width="24" height="24" viewBox="0 0 24 24" fill="none" xmlns="http://www.w3.org/2000/svg">
<path fill-rule="evenodd" clip-rule="evenodd" d="M8.40124 2.54835C8.54296 2.36047 8.76466 2.25 9 2.25H12C12.2691 2.25 12.5177 2.39421 12.6512 2.6279L16.4352 9.25H20C21.5188 9.25 22.75 10.4812 22.75 12C22.75 13.5188 21.5188 14.75 20 14.75H16.4352L12.6512 21.3721C12.5177 21.6058 12.2691 21.75 12 21.75H9C8.76466 21.75 8.54296 21.6395 8.40124 21.4516C8.25952 21.2638 8.2142 21.0202 8.27886 20.794L10.0057 14.75H7.31066L5.53033 16.5303C5.38968 16.671 5.19891 16.75 5 16.75H2C1.74007 16.75 1.49867 16.6154 1.36201 16.3943C1.22536 16.1732 1.21293 15.8971 1.32918 15.6646L3.16148 12L1.32918 8.33541C1.21293 8.10292 1.22536 7.82681 1.36201 7.6057C1.49867 7.38459 1.74007 7.25 2 7.25H5C5.19891 7.25 5.38968 7.32902 5.53033 7.46967L7.31066 9.25H10.0057L8.27886 3.20604C8.2142 2.97975 8.25952 2.73624 8.40124 2.54835ZM9.9943 3.75L11.7211 9.79396C11.7858 10.0202 11.7405 10.2638 11.5988 10.4516C11.457 10.6395 11.2353 10.75 11 10.75H7C6.80109 10.75 6.61032 10.671 6.46967 10.5303L4.68934 8.75H3.21353L4.67082 11.6646C4.77639 11.8757 4.77639 12.1243 4.67082 12.3354L3.21353 15.25H4.68934L6.46967 13.4697C6.61032 13.329 6.80109 13.25 7 13.25H11C11.2353 13.25 11.457 13.3605 11.5988 13.5484C11.7405 13.7362 11.7858 13.9798 11.7211 14.206L9.9943 20.25H11.5648L15.3488 13.6279C15.4824 13.3942 15.7309 13.25 16 13.25H20C20.6904 13.25 21.25 12.6904 21.25 12C21.25 11.3096 20.6904 10.75 20 10.75H16C15.7309 10.75 15.4824 10.6058 15.3488 10.3721L11.5648 3.75H9.9943Z" fill="#212529"/>
</svg>
