<svg width="24" height="24" viewBox="0 0 24 24" fill="none" xmlns="http://www.w3.org/2000/svg">
<path fill-rule="evenodd" clip-rule="evenodd" d="M5.25 6C5.25 5.0335 6.0335 4.25 7 4.25H9C9.9665 4.25 10.75 5.0335 10.75 6V18C10.75 18.9665 9.9665 19.75 9 19.75H7C6.0335 19.75 5.25 18.9665 5.25 18V6ZM7 5.75C6.86193 5.75 6.75 5.86193 6.75 6V18C6.75 18.1381 6.86193 18.25 7 18.25H9C9.13807 18.25 9.25 18.1381 9.25 18V6C9.25 5.86193 9.13807 5.75 9 5.75H7Z" fill="black"/>
<path fill-rule="evenodd" clip-rule="evenodd" d="M13.25 6C13.25 5.0335 14.0335 4.25 15 4.25H17C17.9665 4.25 18.75 5.0335 18.75 6V18C18.75 18.9665 17.9665 19.75 17 19.75H15C14.0335 19.75 13.25 18.9665 13.25 18V6ZM15 5.75C14.8619 5.75 14.75 5.86193 14.75 6V18C14.75 18.1381 14.8619 18.25 15 18.25H17C17.1381 18.25 17.25 18.1381 17.25 18V6C17.25 5.86193 17.1381 5.75 17 5.75H15Z" fill="black"/>
</svg>
