<svg width="24" height="24" viewBox="0 0 24 24" fill="none" xmlns="http://www.w3.org/2000/svg">
<path fill-rule="evenodd" clip-rule="evenodd" d="M7.57303 5.51615C7.84026 5.83262 7.80034 6.30582 7.48387 6.57305C5.23848 8.46906 4.41645 11.5657 5.42587 14.3257C6.43528 17.0857 9.06119 18.9214 12 18.9214C14.9388 18.9214 17.5647 17.0857 18.5741 14.3257C19.5835 11.5657 18.7615 8.46906 16.5161 6.57305C16.1996 6.30582 16.1597 5.83262 16.427 5.51615C16.6942 5.19967 17.1674 5.15975 17.4839 5.42698C20.2104 7.72927 21.2086 11.4895 19.9829 14.8409C18.7571 18.1924 15.5686 20.4214 12 20.4214C8.43144 20.4214 5.24285 18.1924 4.01713 14.8409C2.79141 11.4895 3.78958 7.72927 6.51612 5.42698C6.8326 5.15975 7.30579 5.19967 7.57303 5.51615Z" fill="#212529"/>
<path fill-rule="evenodd" clip-rule="evenodd" d="M12 3.25C12.4142 3.25 12.75 3.58579 12.75 4V12C12.75 12.4142 12.4142 12.75 12 12.75C11.5858 12.75 11.25 12.4142 11.25 12V4C11.25 3.58579 11.5858 3.25 12 3.25Z" fill="#212529"/>
</svg>
