<svg width="24" height="24" viewBox="0 0 24 24" fill="none" xmlns="http://www.w3.org/2000/svg">
<path fill-rule="evenodd" clip-rule="evenodd" d="M6.25 3C6.25 2.58579 6.58579 2.25 7 2.25H17C18.5188 2.25 19.75 3.48122 19.75 5V15C19.75 15.4142 19.4142 15.75 19 15.75C18.5858 15.75 18.25 15.4142 18.25 15V5C18.25 4.30964 17.6904 3.75 17 3.75H7C6.58579 3.75 6.25 3.41421 6.25 3ZM5 4.25C5.41421 4.25 5.75 4.58579 5.75 5V19.5986L7.58397 18.376C7.88144 18.1777 8.27753 18.2169 8.53033 18.4697L10 19.9393L11.4697 18.4697C11.7626 18.1768 12.2374 18.1768 12.5303 18.4697L14 19.9393L15.4697 18.4697C15.7225 18.2169 16.1186 18.1777 16.416 18.376L18.25 19.5986V19.01C18.25 18.5958 18.5858 18.26 19 18.26C19.4142 18.26 19.75 18.5958 19.75 19.01V21C19.75 21.2766 19.5978 21.5307 19.3539 21.6613C19.11 21.7918 18.8141 21.7775 18.584 21.624L16.0956 19.9651L14.5303 21.5303C14.2374 21.8232 13.7626 21.8232 13.4697 21.5303L12 20.0607L10.5303 21.5303C10.2374 21.8232 9.76256 21.8232 9.46967 21.5303L7.90444 19.9651L5.4246 21.6183C5.36157 21.6617 5.29158 21.6957 5.21665 21.7182C5.02521 21.7761 4.81942 21.754 4.64602 21.6614C4.55591 21.6133 4.47455 21.5461 4.40849 21.4612C4.35237 21.3893 4.30907 21.3069 4.28202 21.2175C4.25938 21.1428 4.24889 21.066 4.25 20.9897V5C4.25 4.58579 4.58579 4.25 5 4.25Z" fill="#212529"/>
<path fill-rule="evenodd" clip-rule="evenodd" d="M10.25 7C10.25 6.58579 10.5858 6.25 11 6.25H15C15.4142 6.25 15.75 6.58579 15.75 7C15.75 7.41421 15.4142 7.75 15 7.75H11C10.5858 7.75 10.25 7.41421 10.25 7Z" fill="#212529"/>
<path fill-rule="evenodd" clip-rule="evenodd" d="M8.25 11C8.25 10.5858 8.58579 10.25 9 10.25H11C11.4142 10.25 11.75 10.5858 11.75 11C11.75 11.4142 11.4142 11.75 11 11.75H9C8.58579 11.75 8.25 11.4142 8.25 11Z" fill="#212529"/>
<path fill-rule="evenodd" clip-rule="evenodd" d="M12.25 15C12.25 14.5858 12.5858 14.25 13 14.25H15C15.4142 14.25 15.75 14.5858 15.75 15C15.75 15.4142 15.4142 15.75 15 15.75H13C12.5858 15.75 12.25 15.4142 12.25 15Z" fill="#212529"/>
<path fill-rule="evenodd" clip-rule="evenodd" d="M15 10.25C15.4142 10.25 15.75 10.5858 15.75 11V11.01C15.75 11.4242 15.4142 11.76 15 11.76C14.5858 11.76 14.25 11.4242 14.25 11.01V11C14.25 10.5858 14.5858 10.25 15 10.25Z" fill="#212529"/>
<path fill-rule="evenodd" clip-rule="evenodd" d="M2.46967 2.46967C2.76256 2.17678 3.23744 2.17678 3.53033 2.46967L21.5303 20.4697C21.8232 20.7626 21.8232 21.2374 21.5303 21.5303C21.2374 21.8232 20.7626 21.8232 20.4697 21.5303L2.46967 3.53033C2.17678 3.23744 2.17678 2.76256 2.46967 2.46967Z" fill="#212529"/>
</svg>
