<svg width="24" height="24" viewBox="0 0 24 24" fill="none" xmlns="http://www.w3.org/2000/svg">
<path fill-rule="evenodd" clip-rule="evenodd" d="M7.00008 3.75C6.30972 3.75 5.75008 4.30964 5.75008 5V19.5986L7.58405 18.376C7.88152 18.1777 8.27761 18.2169 8.53041 18.4697L10.0001 19.9393L11.4697 18.4697C11.7626 18.1768 12.2375 18.1768 12.5304 18.4697L14.0001 19.9393L15.4698 18.4697C15.7225 18.2169 16.1186 18.1777 16.4161 18.376L18.2501 19.5986V5C18.2501 4.30964 17.6904 3.75 17.0001 3.75H7.00008ZM5.21673 21.7182C5.29166 21.6957 5.36165 21.6617 5.42468 21.6183L7.90452 19.9651L9.46975 21.5303C9.76264 21.8232 10.2375 21.8232 10.5304 21.5303L12.0001 20.0607L13.4698 21.5303C13.7626 21.8232 14.2375 21.8232 14.5304 21.5303L16.0956 19.9651L18.5841 21.624C18.8142 21.7775 19.1101 21.7918 19.354 21.6613C19.5978 21.5307 19.7501 21.2766 19.7501 21V5C19.7501 3.48122 18.5189 2.25 17.0001 2.25H7.00008C5.4813 2.25 4.25008 3.48122 4.25008 5V20.9897C4.24897 21.066 4.25946 21.1428 4.2821 21.2175C4.30915 21.3069 4.35245 21.3893 4.40857 21.4612C4.47463 21.5461 4.55599 21.6133 4.6461 21.6614C4.8195 21.754 5.02529 21.7761 5.21673 21.7182Z" fill="#212529"/>
<path fill-rule="evenodd" clip-rule="evenodd" d="M12 5.75C12.4142 5.75 12.75 6.08579 12.75 6.5V7.25H14C14.4142 7.25 14.75 7.58579 14.75 8C14.75 8.41421 14.4142 8.75 14 8.75H11.5C11.0858 8.75 10.75 9.08579 10.75 9.5C10.75 9.91421 11.0858 10.25 11.5 10.25H12.5C13.7426 10.25 14.75 11.2574 14.75 12.5C14.75 13.6581 13.875 14.6119 12.75 14.7363V15.5C12.75 15.9142 12.4142 16.25 12 16.25C11.5858 16.25 11.25 15.9142 11.25 15.5V14.75H10C9.58579 14.75 9.25 14.4142 9.25 14C9.25 13.5858 9.58579 13.25 10 13.25H12.5C12.9142 13.25 13.25 12.9142 13.25 12.5C13.25 12.0858 12.9142 11.75 12.5 11.75H11.5C10.2574 11.75 9.25 10.7426 9.25 9.5C9.25 8.34186 10.125 7.38809 11.25 7.26373V6.5C11.25 6.08579 11.5858 5.75 12 5.75Z" fill="#212529"/>
</svg>
