<svg width="24" height="24" viewBox="0 0 24 24" fill="none" xmlns="http://www.w3.org/2000/svg">
<path fill-rule="evenodd" clip-rule="evenodd" d="M4.75 7.00582C6.61089 4.37228 9.80888 2.91193 13.1096 3.33783C17.0672 3.84849 20.1936 6.94447 20.7429 10.8969C20.7999 11.3071 20.5135 11.686 20.1032 11.743C19.693 11.8 19.3142 11.5136 19.2571 11.1034C18.801 7.82084 16.2045 5.24961 12.9177 4.8255C10.0221 4.45188 7.22182 5.82606 5.7248 8.25011H8C8.41421 8.25011 8.75 8.5859 8.75 9.00011C8.75 9.41433 8.41421 9.75011 8 9.75011H4.51676C4.50541 9.75037 4.49403 9.75038 4.48263 9.75011H4C3.58579 9.75011 3.25 9.41433 3.25 9.00011V5.00011C3.25 4.5859 3.58579 4.25011 4 4.25011C4.41421 4.25011 4.75 4.5859 4.75 5.00011V7.00582Z" fill="black"/>
<path fill-rule="evenodd" clip-rule="evenodd" d="M3.89676 12.2572C4.30703 12.2002 4.68585 12.4866 4.74286 12.8969C5.19904 16.1794 7.7955 18.7506 11.0823 19.1747C13.9779 19.5483 16.7782 18.1742 18.2752 15.7501H16C15.5858 15.7501 15.25 15.4143 15.25 15.0001C15.25 14.5859 15.5858 14.2501 16 14.2501H19.4832C19.4946 14.2498 19.506 14.2498 19.5174 14.2501H20C20.4142 14.2501 20.75 14.5859 20.75 15.0001V19.0001C20.75 19.4143 20.4142 19.7501 20 19.7501C19.5858 19.7501 19.25 19.4143 19.25 19.0001V16.9944C17.3891 19.6279 14.1911 21.0883 10.8904 20.6624C6.93276 20.1517 3.80641 17.0557 3.25714 13.1033C3.20012 12.6931 3.48649 12.3142 3.89676 12.2572Z" fill="black"/>
</svg>
