<svg width="24" height="24" viewBox="0 0 24 24" fill="none" xmlns="http://www.w3.org/2000/svg">
<path fill-rule="evenodd" clip-rule="evenodd" d="M16.9592 3.25111C16.9728 3.25037 16.9864 3.25 17 3.25C19.0711 3.25 20.75 4.92893 20.75 7C20.75 7.01362 20.7496 7.02723 20.7489 7.04083C20.5433 10.8121 18.1813 14.1091 14.7139 15.5305C14.4828 17.6617 13.2491 19.5691 11.3746 20.6498C11.1562 20.7757 10.8892 20.7834 10.6638 20.6704C10.4385 20.5575 10.285 20.3388 10.2552 20.0885C9.86058 16.7676 7.24585 14.1483 3.92718 13.7466C3.87226 13.7413 3.81747 13.7299 3.7638 13.712C3.5718 13.6485 3.41724 13.5108 3.32948 13.3362C3.24208 13.1615 3.22419 12.9553 3.28808 12.7636C3.30606 12.7092 3.33 12.6579 3.35903 12.6102C4.44126 10.7442 6.34408 9.51657 8.46947 9.28612C9.89093 5.81872 13.1879 3.45674 16.9592 3.25111ZM5.29532 12.485C8.33194 13.2871 10.7129 15.6681 11.515 18.7047C12.5651 17.7598 13.2028 16.418 13.2504 14.9752C13.2606 14.6662 13.4594 14.3951 13.7511 14.2925C16.892 13.1876 19.0602 10.3033 19.2499 6.98056C19.2395 5.75334 18.2467 4.76046 17.0194 4.75008C13.6967 4.93985 10.8124 7.10801 9.7075 10.2489C9.60489 10.5406 9.3338 10.7394 9.02476 10.7496C7.58199 10.7972 6.2402 11.4349 5.29532 12.485Z" fill="#212529"/>
<path fill-rule="evenodd" clip-rule="evenodd" d="M7.65306 13.6313C7.85669 13.992 7.72937 14.4495 7.36867 14.6531C5.68292 15.6048 4.67228 17.396 4.70007 19.2999C6.604 19.3277 8.39515 18.317 9.34684 16.6313C9.55048 16.2706 10.008 16.1433 10.3687 16.3469C10.7294 16.5505 10.8567 17.008 10.6531 17.3687C9.30084 19.7639 6.63054 21.0991 3.90306 20.7437C3.5657 20.6998 3.30019 20.4343 3.25624 20.0969C2.9009 17.3694 4.23605 14.6991 6.63124 13.3469C6.99194 13.1433 7.44942 13.2706 7.65306 13.6313Z" fill="#212529"/>
<path fill-rule="evenodd" clip-rule="evenodd" d="M15 8.75C14.8619 8.75 14.75 8.86193 14.75 9C14.75 9.13807 14.8619 9.25 15 9.25C15.1381 9.25 15.25 9.13807 15.25 9C15.25 8.86193 15.1381 8.75 15 8.75ZM13.25 9C13.25 8.0335 14.0335 7.25 15 7.25C15.9665 7.25 16.75 8.0335 16.75 9C16.75 9.9665 15.9665 10.75 15 10.75C14.0335 10.75 13.25 9.9665 13.25 9Z" fill="#212529"/>
</svg>
