<svg width="24" height="24" viewBox="0 0 24 24" fill="none" xmlns="http://www.w3.org/2000/svg">
<path fill-rule="evenodd" clip-rule="evenodd" d="M12.0037 4.78958C8.35564 4.77868 5.26766 7.48015 4.79353 11.0973C4.73969 11.508 4.36311 11.7973 3.95241 11.7435C3.54171 11.6896 3.25242 11.313 3.30625 10.9023C3.87847 6.53683 7.60536 3.27643 12.0082 3.28959C16.411 3.30276 20.1184 6.58538 20.6645 10.9542C21.2106 15.3231 18.4254 19.4173 14.1612 20.5138C10.5577 21.4405 6.8465 19.9824 4.79989 17.0397V19.9998C4.79989 20.414 4.4641 20.7498 4.04989 20.7498C3.63568 20.7498 3.29989 20.414 3.29989 19.9998V14.9998C3.29989 14.5856 3.63568 14.2498 4.04989 14.2498H4.53241C4.54394 14.2496 4.55544 14.2496 4.56692 14.2498H9.04989C9.4641 14.2498 9.79989 14.5856 9.79989 14.9998C9.79989 15.414 9.4641 15.7498 9.04989 15.7498H5.75252C7.37292 18.4753 10.6301 19.8731 13.7877 19.0611C17.3208 18.1525 19.6285 14.7602 19.1761 11.1403C18.7236 7.52038 15.6518 4.80049 12.0037 4.78958Z" fill="black"/>
</svg>
