<svg width="24" height="24" viewBox="0 0 24 24" fill="none" xmlns="http://www.w3.org/2000/svg">
<path fill-rule="evenodd" clip-rule="evenodd" d="M11.7215 4.30364C11.9003 4.23212 12.0997 4.23212 12.2785 4.30364L22.2747 8.30212C22.2857 8.30645 22.2966 8.31104 22.3075 8.3159C22.4723 8.38986 22.5982 8.51695 22.6728 8.66864C22.6898 8.70308 22.7041 8.73883 22.7157 8.7756C22.74 8.85311 22.7519 8.93479 22.75 9.01748V15C22.75 15.4142 22.4142 15.75 22 15.75C21.5858 15.75 21.25 15.4142 21.25 15V10.1078L12.2785 13.6964C12.0997 13.7679 11.9003 13.7679 11.7215 13.6964L1.72146 9.69636C1.43671 9.58246 1.25 9.30668 1.25 9C1.25 8.69332 1.43671 8.41754 1.72146 8.30364L11.7215 4.30364ZM19.9806 9L12 5.80777L4.01944 9L12 12.1922L19.9806 9Z" fill="#212529"/>
<path fill-rule="evenodd" clip-rule="evenodd" d="M6 9.84998C6.41421 9.84998 6.75 10.1858 6.75 10.6V16C6.75 16.3913 7.08671 16.9474 8.09277 17.4505C9.05397 17.9311 10.4343 18.25 12 18.25C13.5657 18.25 14.946 17.9311 15.9072 17.4505C16.9133 16.9474 17.25 16.3913 17.25 16V10.6C17.25 10.1858 17.5858 9.84998 18 9.84998C18.4142 9.84998 18.75 10.1858 18.75 10.6V16C18.75 17.2655 17.7436 18.2094 16.5781 18.7921C15.3677 19.3973 13.748 19.75 12 19.75C10.252 19.75 8.63232 19.3973 7.42195 18.7921C6.25643 18.2094 5.25 17.2655 5.25 16V10.6C5.25 10.1858 5.58579 9.84998 6 9.84998Z" fill="#212529"/>
</svg>
