<svg width="24" height="24" viewBox="0 0 24 24" fill="none" xmlns="http://www.w3.org/2000/svg">
<path fill-rule="evenodd" clip-rule="evenodd" d="M12.9461 4.49382C12.7055 3.50206 11.2945 3.50206 11.0539 4.49382L11.0538 4.49421C10.6578 6.12252 8.79686 6.89441 7.36336 6.02285L7.36299 6.02262C6.49035 5.49135 5.49253 6.49022 6.0235 7.3618C6.43466 8.03631 6.49899 8.86662 6.19663 9.59641C5.89427 10.3262 5.26155 10.8678 4.49382 11.0539C3.50206 11.2945 3.50206 12.7055 4.49382 12.9461L4.49422 12.9462C5.26135 13.1328 5.89338 13.6743 6.19542 14.4037C6.49745 15.1331 6.43322 15.9629 6.02253 16.6371C5.49146 17.5097 6.49026 18.5074 7.3618 17.9765C8.03631 17.5653 8.86662 17.501 9.59641 17.8034C10.3262 18.1057 10.8678 18.7384 11.0539 19.5062C11.2945 20.4979 12.7055 20.4979 12.9461 19.5062L12.9462 19.5058C13.1328 18.7387 13.6743 18.1066 14.4037 17.8046C15.1331 17.5025 15.9629 17.5668 16.6371 17.9775C17.5097 18.5085 18.5074 17.5097 17.9765 16.6382C17.5653 15.9637 17.501 15.1334 17.8034 14.4036C18.1057 13.6738 18.7384 13.1322 19.5062 12.9461C20.4979 12.7055 20.4979 11.2945 19.5062 11.0539L19.5058 11.0538C18.7387 10.8672 18.1066 10.3257 17.8046 9.59631C17.5025 8.86688 17.5668 8.03711 17.9775 7.36285C18.5085 6.49025 17.5097 5.49256 16.6382 6.0235C15.9637 6.43466 15.1334 6.49899 14.4036 6.19663C13.6738 5.89427 13.1322 5.26155 12.9461 4.49382ZM9.59624 4.13979C10.2079 1.61994 13.7925 1.62007 14.4039 4.14018L14.4039 4.14039C14.4772 4.44268 14.6904 4.69181 14.9777 4.81086C15.2651 4.92991 15.592 4.90456 15.8576 4.74264L15.8578 4.7425C18.0722 3.39347 20.6074 5.92765 19.2586 8.14301L19.2585 8.14315C19.0968 8.4086 19.0716 8.73528 19.1905 9.02245C19.3093 9.30949 19.558 9.5226 19.8598 9.59614C22.3801 10.2075 22.3801 13.7925 19.8598 14.4039L19.8596 14.4039C19.5573 14.4772 19.3082 14.6904 19.1891 14.9777C19.0701 15.2651 19.0954 15.592 19.2574 15.8576L19.2575 15.8578C20.6065 18.0722 18.0724 20.6074 15.857 19.2586L15.8569 19.2585C15.5914 19.0968 15.2647 19.0716 14.9776 19.1905C14.6905 19.3093 14.4774 19.558 14.4039 19.8598C13.7925 22.3801 10.2075 22.3801 9.59614 19.8598L9.59609 19.8596C9.52285 19.5573 9.30963 19.3082 9.02228 19.1891C8.73493 19.0701 8.408 19.0954 8.14244 19.2574L8.1422 19.2575C5.92778 20.6065 3.39265 18.0724 4.74138 15.857L4.74147 15.8569C4.90315 15.5914 4.92844 15.2647 4.80953 14.9776C4.69067 14.6905 4.44201 14.4774 4.14018 14.4039C1.61994 13.7925 1.61994 10.2075 4.14018 9.59614L4.14039 9.59609C4.44268 9.52285 4.69181 9.30963 4.81086 9.02228C4.92991 8.73493 4.90456 8.408 4.74264 8.14244L4.7425 8.1422C3.39354 5.92791 5.92736 3.39294 8.14263 4.74115C8.70903 5.08552 9.4399 4.7816 9.59614 4.14018" fill="#212529"/>
<path fill-rule="evenodd" clip-rule="evenodd" d="M12 9.75C10.7574 9.75 9.75 10.7574 9.75 12C9.75 13.2426 10.7574 14.25 12 14.25C13.2426 14.25 14.25 13.2426 14.25 12C14.25 10.7574 13.2426 9.75 12 9.75ZM8.25 12C8.25 9.92893 9.92893 8.25 12 8.25C14.0711 8.25 15.75 9.92893 15.75 12C15.75 14.0711 14.0711 15.75 12 15.75C9.92893 15.75 8.25 14.0711 8.25 12Z" fill="#212529"/>
</svg>
