<svg width="24" height="24" viewBox="0 0 24 24" fill="none" xmlns="http://www.w3.org/2000/svg">
<path fill-rule="evenodd" clip-rule="evenodd" d="M15.5303 9.46967C15.8232 9.76256 15.8232 10.2374 15.5303 10.5303L11.5303 14.5303C11.2374 14.8232 10.7626 14.8232 10.4697 14.5303L8.46967 12.5303C8.17678 12.2374 8.17678 11.7626 8.46967 11.4697C8.76256 11.1768 9.23744 11.1768 9.53033 11.4697L11 12.9393L14.4697 9.46967C14.7626 9.17678 15.2374 9.17678 15.5303 9.46967Z" fill="#212529"/>
<path fill-rule="evenodd" clip-rule="evenodd" d="M12.504 2.44459C12.4485 2.39417 12.3871 2.35343 12.322 2.3225C12.22 2.27395 12.1098 2.24996 11.9999 2.25C11.8899 2.24996 11.7797 2.27395 11.6777 2.32251C11.6126 2.35343 11.5512 2.39417 11.4958 2.44459C9.30686 4.37789 6.45179 5.3843 3.53415 5.25079C3.18902 5.235 2.87775 5.45702 2.78031 5.78848C1.80659 9.10086 2.2178 12.6665 3.91994 15.6703C5.62208 18.6741 8.46962 20.8592 11.8116 21.726C11.9351 21.758 12.0647 21.758 12.1882 21.726C15.5301 20.8592 18.3776 18.6741 20.0798 15.6703C21.7819 12.6665 22.1931 9.10086 21.2194 5.78848C21.122 5.45702 20.8107 5.235 20.4656 5.25079C17.5479 5.3843 14.6929 4.37789 12.504 2.44459ZM11.9999 3.97936C9.7484 5.77569 6.95356 6.7572 4.07249 6.76254C3.41011 9.52595 3.81705 12.4462 5.22497 14.9308C6.69479 17.5246 9.13255 19.4265 11.9999 20.2234C14.8672 19.4265 17.3049 17.5246 18.7747 14.9308C20.1827 12.4462 20.5896 9.52595 19.9272 6.76254C17.0462 6.7572 14.2513 5.77569 11.9999 3.97936Z" fill="#212529"/>
</svg>
