<svg width="24" height="24" viewBox="0 0 24 24" fill="none" xmlns="http://www.w3.org/2000/svg">
<path fill-rule="evenodd" clip-rule="evenodd" d="M17.25 8C17.25 7.58579 17.5858 7.25 18 7.25C20.0711 7.25 21.75 8.92893 21.75 11C21.75 13.0711 20.0711 14.75 18 14.75C17.5858 14.75 17.25 14.4142 17.25 14C17.25 13.5858 17.5858 13.25 18 13.25C19.2426 13.25 20.25 12.2426 20.25 11C20.25 9.75736 19.2426 8.75 18 8.75C17.5858 8.75 17.25 8.41421 17.25 8Z" fill="#212529"/>
<path fill-rule="evenodd" clip-rule="evenodd" d="M10 7.25C10.4142 7.25 10.75 7.58579 10.75 8V19C10.75 19.9665 9.9665 20.75 9 20.75H8C7.0335 20.75 6.25 19.9665 6.25 19V14C6.25 13.5858 6.58579 13.25 7 13.25C7.41421 13.25 7.75 13.5858 7.75 14V19C7.75 19.1381 7.86193 19.25 8 19.25H9C9.13807 19.25 9.25 19.1381 9.25 19V8C9.25 7.58579 9.58579 7.25 10 7.25Z" fill="#212529"/>
<path fill-rule="evenodd" clip-rule="evenodd" d="M17.1637 4.78571C17.111 4.761 17.0487 4.76902 17.004 4.80627L12.4839 8.573C12.3533 8.68342 12.1844 8.74999 12 8.74999H4C3.86193 8.74999 3.75 8.86192 3.75 8.99999V13C3.75 13.1381 3.86193 13.25 4 13.25H12C12.1755 13.25 12.3454 13.3115 12.4801 13.4238L17.004 17.1937C17.0487 17.231 17.111 17.239 17.1637 17.2143C17.2164 17.1896 17.25 17.1366 17.25 17.0784V4.92199C17.25 4.86378 17.2164 4.81042 17.1637 4.78571ZM11.7285 7.24999L16.0439 3.65382C16.5359 3.24402 17.2207 3.15576 17.8004 3.42757C18.3801 3.69932 18.7502 4.28183 18.75 4.92199M11.7285 7.24999H4C3.0335 7.24999 2.25 8.03349 2.25 8.99999V13C2.25 13.9665 3.0335 14.75 4 14.75H11.7285L16.0439 18.3462C16.5359 18.756 17.2207 18.8442 17.8004 18.5724C18.3801 18.3007 18.7502 17.7181 18.75 17.078C18.75 17.0781 18.75 17.0779 18.75 17.078V4.92199" fill="#212529"/>
</svg>
