<svg width="24" height="24" viewBox="0 0 24 24" fill="none" xmlns="http://www.w3.org/2000/svg">
<path fill-rule="evenodd" clip-rule="evenodd" d="M12.3432 3.33312C12.3284 3.32552 12.3134 3.31841 12.2981 3.31181C12.2013 3.26979 12.1 3.2498 12 3.24988C11.9 3.2498 11.7987 3.26979 11.7019 3.31181C11.6866 3.31841 11.6716 3.32552 11.6568 3.33313L3.66459 7.32922C3.4105 7.45627 3.25 7.71596 3.25 8.00004C3.25 8.28412 3.4105 8.54382 3.66459 8.67086L11.6646 12.6709C11.8757 12.7764 12.1243 12.7764 12.3354 12.6709L20.3354 8.67086C20.5895 8.54382 20.75 8.28412 20.75 8.00004C20.75 7.71596 20.5895 7.45627 20.3354 7.32922L12.3432 3.33312ZM12 4.83857L5.67705 8.00004L12 11.1615L18.3229 8.00004L12 4.83857Z" fill="#212529"/>
<path fill-rule="evenodd" clip-rule="evenodd" d="M3.32922 11.6646C3.51446 11.2941 3.96497 11.144 4.33545 11.3292L12 15.1615L19.6646 11.3292C20.0351 11.144 20.4856 11.2941 20.6709 11.6646C20.8561 12.0351 20.7059 12.4856 20.3355 12.6709L12.3355 16.6709C12.1243 16.7764 11.8758 16.7764 11.6646 16.6709L3.66463 12.6709C3.29415 12.4856 3.14398 12.0351 3.32922 11.6646Z" fill="#212529"/>
<path fill-rule="evenodd" clip-rule="evenodd" d="M3.32922 15.6646C3.51446 15.2941 3.96497 15.144 4.33545 15.3292L12 19.1615L19.6646 15.3292C20.0351 15.144 20.4856 15.2941 20.6709 15.6646C20.8561 16.0351 20.7059 16.4856 20.3355 16.6709L12.3355 20.6709C12.1243 20.7764 11.8758 20.7764 11.6646 20.6709L3.66463 16.6709C3.29415 16.4856 3.14398 16.0351 3.32922 15.6646Z" fill="#212529"/>
</svg>
