<svg width="24" height="24" viewBox="0 0 24 24" fill="none" xmlns="http://www.w3.org/2000/svg">
<path fill-rule="evenodd" clip-rule="evenodd" d="M2.46967 2.46967C2.76256 2.17678 3.23744 2.17678 3.53033 2.46967L21.5303 20.4697C21.8232 20.7626 21.8232 21.2374 21.5303 21.5303C21.2374 21.8232 20.7626 21.8232 20.4697 21.5303L2.46967 3.53033C2.17678 3.23744 2.17678 2.76256 2.46967 2.46967Z" fill="#212529"/>
<path fill-rule="evenodd" clip-rule="evenodd" d="M11.9929 1.25195C12.2783 1.25195 12.5391 1.41403 12.6654 1.67003L15.5768 7.56929L22.0864 8.51271C22.3691 8.55367 22.604 8.75163 22.6922 9.02328C22.7804 9.29493 22.7067 9.59311 22.502 9.79235L18.081 14.0963C17.7842 14.3853 17.3094 14.3789 17.0205 14.0821C16.7315 13.7853 16.7379 13.3105 17.0347 13.0216L20.3654 9.77896L14.9713 8.9972C14.7269 8.96178 14.5156 8.80832 14.4063 8.58687L11.9929 3.69664L10.6844 6.34787C10.5011 6.71932 10.0514 6.87182 9.67994 6.68851C9.3085 6.50519 9.15599 6.05547 9.3393 5.68403L11.3203 1.67003C11.4466 1.41403 11.7074 1.25195 11.9929 1.25195ZM9.0761 8.23038C9.13552 8.64031 8.85137 9.02078 8.44143 9.0802L3.6204 9.77893L7.52999 13.5845C7.70701 13.7568 7.78783 14.0053 7.74606 14.2488L6.82401 19.6239L11.6508 17.0861C11.8696 16.9711 12.1309 16.9712 12.3495 17.0864L17.1613 19.622L16.8307 17.6958C16.7606 17.2876 17.0347 16.8998 17.443 16.8298C17.8512 16.7597 18.239 17.0338 18.309 17.4421L18.897 20.8681C18.9454 21.1496 18.8296 21.4341 18.5984 21.6019C18.3673 21.7697 18.0609 21.7916 17.8082 21.6585L11.9995 18.5975L6.17688 21.6588C5.92419 21.7916 5.61798 21.7695 5.38702 21.6017C5.15605 21.4339 5.04039 21.1495 5.08865 20.8681L6.20093 14.3841L1.48372 9.79238C1.27905 9.59316 1.20531 9.29497 1.29353 9.02331C1.38175 8.75165 1.61661 8.55368 1.89928 8.51271L8.22628 7.59571C8.63621 7.5363 9.01669 7.82045 9.0761 8.23038Z" fill="#212529"/>
</svg>
