<svg width="24" height="24" viewBox="0 0 24 24" fill="none" xmlns="http://www.w3.org/2000/svg">
<path fill-rule="evenodd" clip-rule="evenodd" d="M2.46967 2.46967C2.76256 2.17678 3.23744 2.17678 3.53033 2.46967L21.5303 20.4697C21.8232 20.7626 21.8232 21.2374 21.5303 21.5303C21.2374 21.8232 20.7626 21.8232 20.4697 21.5303L2.46967 3.53033C2.17678 3.23744 2.17678 2.76256 2.46967 2.46967Z" fill="black"/>
<path fill-rule="evenodd" clip-rule="evenodd" d="M11.9931 1.25195C12.2786 1.25195 12.5393 1.41403 12.6657 1.67003L15.5771 7.56929L22.0867 8.51271C22.3693 8.55367 22.6042 8.75163 22.6924 9.02328C22.7806 9.29493 22.7069 9.59311 22.5023 9.79235L18.0813 14.0963C17.7845 14.3853 17.3096 14.3789 17.0207 14.0821C16.7318 13.7853 16.7381 13.3105 17.0349 13.0216L20.3657 9.77896L14.9715 8.9972C14.7271 8.96178 14.5158 8.80832 14.4065 8.58687L11.9931 3.69664L10.6847 6.34787C10.5013 6.71932 10.0516 6.87182 9.68018 6.68851C9.30874 6.50519 9.15623 6.05547 9.33955 5.68403L11.3205 1.67003C11.4469 1.41403 11.7076 1.25195 11.9931 1.25195ZM9.07635 8.23038C9.13576 8.64031 8.85161 9.02078 8.44168 9.0802L3.62065 9.77893L7.53024 13.5845C7.70726 13.7568 7.78807 14.0053 7.7463 14.2488L6.82425 19.6239L11.6511 17.0861C11.8698 16.9711 12.1311 16.9712 12.3497 17.0864L17.1615 19.622L16.8309 17.6958C16.7608 17.2876 17.035 16.8998 17.4432 16.8298C17.8515 16.7597 18.2392 17.0338 18.3093 17.4421L18.8973 20.8681C18.9456 21.1496 18.8298 21.4341 18.5987 21.6019C18.3675 21.7697 18.0612 21.7916 17.8085 21.6585L11.9997 18.5975L6.17712 21.6588C5.92443 21.7916 5.61823 21.7695 5.38726 21.6017C5.1563 21.4339 5.04063 21.1495 5.0889 20.8681L6.20118 14.3841L1.48397 9.79238C1.2793 9.59316 1.20555 9.29497 1.29377 9.02331C1.38199 8.75165 1.61685 8.55368 1.89953 8.51271L8.22653 7.59571C8.63646 7.5363 9.01693 7.82045 9.07635 8.23038Z" fill="black"/>
</svg>
