<svg width="24" height="24" viewBox="0 0 24 24" fill="none" xmlns="http://www.w3.org/2000/svg">
<path fill-rule="evenodd" clip-rule="evenodd" d="M12.1631 1.27161C12.5025 1.35072 12.7427 1.65319 12.7429 2.00169L12.7499 17.7497C12.75 18.0284 12.5956 18.2842 12.3489 18.4139L6.17688 21.6589C5.92419 21.7917 5.61798 21.7696 5.38702 21.6018C5.15605 21.434 5.04039 21.1496 5.08865 20.8682L6.20093 14.3842L1.48372 9.79246C1.27905 9.59323 1.20531 9.29504 1.29353 9.02338C1.38175 8.75172 1.61661 8.55375 1.89929 8.51278L8.40889 7.56936L11.3203 1.67011C11.4745 1.35759 11.8237 1.19249 12.1631 1.27161ZM11.2443 5.2135L9.57941 8.58695C9.47012 8.8084 9.25883 8.96185 9.01443 8.99727L3.62041 9.77901L7.52999 13.5846C7.70701 13.7569 7.78783 14.0053 7.74606 14.2488L6.82401 19.6239L11.2497 17.2971L11.2443 5.2135Z" fill="#212529"/>
</svg>
