<svg width="24" height="24" viewBox="0 0 24 24" fill="none" xmlns="http://www.w3.org/2000/svg">
<path fill-rule="evenodd" clip-rule="evenodd" d="M6.46967 3.46967C6.76256 3.17678 7.23744 3.17678 7.53033 3.46967L11.5303 7.46967C11.8232 7.76256 11.8232 8.23744 11.5303 8.53033C11.2374 8.82322 10.7626 8.82322 10.4697 8.53033L7 5.06066L3.53033 8.53033C3.23744 8.82322 2.76256 8.82322 2.46967 8.53033C2.17678 8.23744 2.17678 7.76256 2.46967 7.46967L6.46967 3.46967Z" fill="black"/>
<path fill-rule="evenodd" clip-rule="evenodd" d="M7 3.25C7.41421 3.25 7.75 3.58579 7.75 4V13C7.75 13.4142 7.41421 13.75 7 13.75C6.58579 13.75 6.25 13.4142 6.25 13V4C6.25 3.58579 6.58579 3.25 7 3.25Z" fill="black"/>
<path fill-rule="evenodd" clip-rule="evenodd" d="M12.4697 15.4697C12.7626 15.1768 13.2374 15.1768 13.5303 15.4697L17 18.9393L20.4697 15.4697C20.7626 15.1768 21.2374 15.1768 21.5303 15.4697C21.8232 15.7626 21.8232 16.2374 21.5303 16.5303L17.5303 20.5303C17.2374 20.8232 16.7626 20.8232 16.4697 20.5303L12.4697 16.5303C12.1768 16.2374 12.1768 15.7626 12.4697 15.4697Z" fill="black"/>
<path fill-rule="evenodd" clip-rule="evenodd" d="M17 9.25C17.4142 9.25 17.75 9.58579 17.75 10V20C17.75 20.4142 17.4142 20.75 17 20.75C16.5858 20.75 16.25 20.4142 16.25 20V10C16.25 9.58579 16.5858 9.25 17 9.25Z" fill="black"/>
</svg>
