<svg width="24" height="24" viewBox="0 0 24 24" fill="none" xmlns="http://www.w3.org/2000/svg">
<path fill-rule="evenodd" clip-rule="evenodd" d="M13 4.75C12.3096 4.75 11.75 5.30964 11.75 6V7C11.75 9.36815 10.017 11.3315 7.75 11.6911V17C7.75 18.2426 8.75736 19.25 10 19.25H17C17.0212 19.25 17.0424 19.2509 17.0636 19.2527C17.3929 19.2807 18.0035 18.9493 18.2671 17.8403L19.2483 12.9342C19.2141 12.2745 18.6683 11.75 18 11.75H15C14.5858 11.75 14.25 11.4142 14.25 11V6C14.25 5.30964 13.6904 4.75 13 4.75ZM7.54055 19.8309C8.19895 20.4034 9.059 20.75 10 20.75H16.9713C18.4006 20.8496 19.4041 19.5622 19.7302 18.1712C19.7321 18.1632 19.7338 18.1551 19.7354 18.1471L20.7354 13.1471C20.7451 13.0987 20.75 13.0494 20.75 13C20.75 11.4812 19.5188 10.25 18 10.25H15.75V6C15.75 4.48122 14.5188 3.25 13 3.25C11.4812 3.25 10.25 4.48122 10.25 6V7C10.25 8.79493 8.79493 10.25 7 10.25H4C3.0335 10.25 2.25 11.0335 2.25 12V19C2.25 19.9665 3.0335 20.75 4 20.75H6C6.66579 20.75 7.24474 20.3782 7.54055 19.8309ZM6.25 11.75H4C3.86193 11.75 3.75 11.8619 3.75 12V19C3.75 19.1381 3.86193 19.25 4 19.25H6C6.13807 19.25 6.25 19.1381 6.25 19V11.75Z" fill="black"/>
</svg>
