<svg width="24" height="24" viewBox="0 0 24 24" fill="none" xmlns="http://www.w3.org/2000/svg">
<path fill-rule="evenodd" clip-rule="evenodd" d="M16.9713 3.25005C18.4006 3.15047 19.4041 4.43786 19.7302 5.82887C19.7321 5.83687 19.7338 5.84491 19.7354 5.85297L20.7354 10.853C20.7451 10.9014 20.75 10.9507 20.75 11.0001C20.75 12.5188 19.5188 13.7501 18 13.7501H15.75V18.0001C15.75 19.5188 14.5188 20.7501 13 20.7501C11.4812 20.7501 10.25 19.5188 10.25 18.0001V17.0001C10.25 15.2051 8.79493 13.7501 7 13.7501H4C3.0335 13.7501 2.25 12.9666 2.25 12.0001V5.00005C2.25 4.03355 3.0335 3.25005 4 3.25005H6C6.66579 3.25005 7.24474 3.62185 7.54055 4.16915C8.19895 3.59665 9.059 3.25005 10 3.25005H16.9713ZM6.25 5.00005C6.25 4.86198 6.13807 4.75005 6 4.75005H4C3.86193 4.75005 3.75 4.86198 3.75 5.00005V12.0001C3.75 12.1381 3.86193 12.2501 4 12.2501H6.25V5.00005ZM7.75 12.3089V7.00005C7.75 5.75741 8.75736 4.75005 10 4.75005H17C17.0212 4.75005 17.0424 4.74915 17.0636 4.74735C17.3929 4.71933 18.0035 5.05074 18.2671 6.15977L19.2483 11.0658C19.2141 11.7256 18.6683 12.2501 18 12.2501H15C14.5858 12.2501 14.25 12.5858 14.25 13.0001V18.0001C14.25 18.6904 13.6904 19.2501 13 19.2501C12.3096 19.2501 11.75 18.6904 11.75 18.0001V17.0001C11.75 14.6319 10.017 12.6685 7.75 12.3089Z" fill="black"/>
</svg>
