<svg width="24" height="24" viewBox="0 0 24 24" fill="none" xmlns="http://www.w3.org/2000/svg">
<path fill-rule="evenodd" clip-rule="evenodd" d="M13.4697 4.46956C15.1433 2.79595 17.8567 2.79595 19.5303 4.46956C21.2039 6.14316 21.2039 8.85661 19.5303 10.5302L15.5329 14.5276C14.7338 15.3417 13.6409 15.8004 12.5 15.8004C11.3578 15.8004 10.2637 15.3406 9.46429 14.5248C9.1744 14.2289 9.17924 13.7541 9.47511 13.4642C9.77098 13.1743 10.2458 13.1791 10.5357 13.475C11.053 14.0029 11.7609 14.3004 12.5 14.3004C13.2391 14.3004 13.947 14.0029 14.4643 13.475L14.4696 13.4695L14.4697 13.4696L18.4697 9.46956C19.5575 8.38174 19.5575 6.61804 18.4697 5.53022C17.3819 4.4424 15.6181 4.4424 14.5303 5.53022L14.0303 6.03022C13.7374 6.32311 13.2626 6.32311 12.9697 6.03022C12.6768 5.73733 12.6768 5.26245 12.9697 4.96956L13.4697 4.46956Z" fill="black"/>
<path fill-rule="evenodd" clip-rule="evenodd" d="M8.467 9.47221C9.26613 8.65814 10.359 8.19946 11.4999 8.19946C12.6421 8.19946 13.7362 8.65922 14.5356 9.47508C14.8255 9.77095 14.8206 10.2458 14.5248 10.5357C14.2289 10.8256 13.7541 10.8207 13.4642 10.5249C12.9469 9.99695 12.239 9.69946 11.4999 9.69946C10.7608 9.69946 10.0528 9.99695 9.5356 10.5249L9.53025 10.5303L9.53022 10.5303L5.53022 14.5303C4.4424 15.6181 4.4424 17.3818 5.53022 18.4696C6.61804 19.5575 8.38174 19.5575 9.46956 18.4696L9.96956 17.9696C10.2625 17.6768 10.7373 17.6768 11.0302 17.9696C11.3231 18.2625 11.3231 18.7374 11.0302 19.0303L10.5302 19.5303C8.85661 21.2039 6.14316 21.2039 4.46956 19.5303C2.79595 17.8567 2.79595 15.1432 4.46956 13.4696L8.467 9.47221Z" fill="black"/>
<path fill-rule="evenodd" clip-rule="evenodd" d="M16 18.25C16.4142 18.25 16.75 18.5858 16.75 19V21C16.75 21.4142 16.4142 21.75 16 21.75C15.5858 21.75 15.25 21.4142 15.25 21V19C15.25 18.5858 15.5858 18.25 16 18.25Z" fill="black"/>
<path fill-rule="evenodd" clip-rule="evenodd" d="M18.25 16C18.25 15.5858 18.5858 15.25 19 15.25H21C21.4142 15.25 21.75 15.5858 21.75 16C21.75 16.4142 21.4142 16.75 21 16.75H19C18.5858 16.75 18.25 16.4142 18.25 16Z" fill="black"/>
<path fill-rule="evenodd" clip-rule="evenodd" d="M2.25 8C2.25 7.58579 2.58579 7.25 3 7.25H5C5.41421 7.25 5.75 7.58579 5.75 8C5.75 8.41421 5.41421 8.75 5 8.75H3C2.58579 8.75 2.25 8.41421 2.25 8Z" fill="black"/>
<path fill-rule="evenodd" clip-rule="evenodd" d="M8 2.25C8.41421 2.25 8.75 2.58579 8.75 3V5C8.75 5.41421 8.41421 5.75 8 5.75C7.58579 5.75 7.25 5.41421 7.25 5V3C7.25 2.58579 7.58579 2.25 8 2.25Z" fill="black"/>
</svg>
