<svg width="24" height="24" viewBox="0 0 24 24" fill="none" xmlns="http://www.w3.org/2000/svg">
<path fill-rule="evenodd" clip-rule="evenodd" d="M4 16.25C4.41421 16.25 4.75 16.5858 4.75 17V19C4.75 19.6904 5.30964 20.25 6 20.25H18C18.6904 20.25 19.25 19.6904 19.25 19V17C19.25 16.5858 19.5858 16.25 20 16.25C20.4142 16.25 20.75 16.5858 20.75 17V19C20.75 20.5188 19.5188 21.75 18 21.75H6C4.48122 21.75 3.25 20.5188 3.25 19V17C3.25 16.5858 3.58579 16.25 4 16.25Z" fill="#212529"/>
<path fill-rule="evenodd" clip-rule="evenodd" d="M11.4697 3.46967C11.7626 3.17678 12.2374 3.17678 12.5303 3.46967L17.5303 8.46967C17.8232 8.76256 17.8232 9.23744 17.5303 9.53033C17.2374 9.82322 16.7626 9.82322 16.4697 9.53033L12 5.06066L7.53033 9.53033C7.23744 9.82322 6.76256 9.82322 6.46967 9.53033C6.17678 9.23744 6.17678 8.76256 6.46967 8.46967L11.4697 3.46967Z" fill="#212529"/>
<path fill-rule="evenodd" clip-rule="evenodd" d="M12 3.25C12.4142 3.25 12.75 3.58579 12.75 4V16C12.75 16.4142 12.4142 16.75 12 16.75C11.5858 16.75 11.25 16.4142 11.25 16V4C11.25 3.58579 11.5858 3.25 12 3.25Z" fill="#212529"/>
</svg>
