<svg width="24" height="24" viewBox="0 0 24 24" fill="none" xmlns="http://www.w3.org/2000/svg">
<path d="M8 16V12C8 9.79086 9.79086 8 12 8C14.2091 8 16 9.79086 16 12V16" stroke="#212529" stroke-width="1.5" stroke-linecap="round" stroke-linejoin="round"/>
<path d="M3 11.25C2.58579 11.25 2.25 11.5858 2.25 12C2.25 12.4142 2.58579 12.75 3 12.75V11.25ZM4 12.75C4.41421 12.75 4.75 12.4142 4.75 12C4.75 11.5858 4.41421 11.25 4 11.25V12.75ZM12.75 3C12.75 2.58579 12.4142 2.25 12 2.25C11.5858 2.25 11.25 2.58579 11.25 3H12.75ZM11.25 4C11.25 4.41421 11.5858 4.75 12 4.75C12.4142 4.75 12.75 4.41421 12.75 4H11.25ZM20 11.25C19.5858 11.25 19.25 11.5858 19.25 12C19.25 12.4142 19.5858 12.75 20 12.75V11.25ZM21 12.75C21.4142 12.75 21.75 12.4142 21.75 12C21.75 11.5858 21.4142 11.25 21 11.25V12.75ZM6.13033 5.06967C5.83744 4.77678 5.36256 4.77678 5.06967 5.06967C4.77678 5.36256 4.77678 5.83744 5.06967 6.13033L6.13033 5.06967ZM5.76967 6.83033C6.06256 7.12322 6.53744 7.12322 6.83033 6.83033C7.12322 6.53744 7.12322 6.06256 6.83033 5.76967L5.76967 6.83033ZM18.9303 6.13033C19.2232 5.83744 19.2232 5.36256 18.9303 5.06967C18.6374 4.77678 18.1626 4.77678 17.8697 5.06967L18.9303 6.13033ZM17.1697 5.76967C16.8768 6.06256 16.8768 6.53744 17.1697 6.83033C17.4626 7.12322 17.9374 7.12322 18.2303 6.83033L17.1697 5.76967ZM3 12.75H4V11.25H3V12.75ZM11.25 3V4H12.75V3H11.25ZM20 12.75H21V11.25H20V12.75ZM5.06967 6.13033L5.76967 6.83033L6.83033 5.76967L6.13033 5.06967L5.06967 6.13033ZM17.8697 5.06967L17.1697 5.76967L18.2303 6.83033L18.9303 6.13033L17.8697 5.06967Z" fill="#212529"/>
<rect x="6" y="16" width="12" height="4" rx="1" stroke="#212529" stroke-width="1.5" stroke-linecap="round" stroke-linejoin="round"/>
</svg>
