<svg width="24" height="24" viewBox="0 0 24 24" fill="none" xmlns="http://www.w3.org/2000/svg">
<path fill-rule="evenodd" clip-rule="evenodd" d="M12 8.75C10.2051 8.75 8.75 10.2051 8.75 12V16C8.75 16.4142 8.41421 16.75 8 16.75C7.58579 16.75 7.25 16.4142 7.25 16V12C7.25 9.37665 9.37665 7.25 12 7.25C14.6234 7.25 16.75 9.37665 16.75 12V16C16.75 16.4142 16.4142 16.75 16 16.75C15.5858 16.75 15.25 16.4142 15.25 16V12C15.25 10.2051 13.7949 8.75 12 8.75Z" fill="#212529"/>
<path fill-rule="evenodd" clip-rule="evenodd" d="M12 2.25C12.4142 2.25 12.75 2.58579 12.75 3V4C12.75 4.41421 12.4142 4.75 12 4.75C11.5858 4.75 11.25 4.41421 11.25 4V3C11.25 2.58579 11.5858 2.25 12 2.25ZM5.06967 5.06967C5.36256 4.77678 5.83744 4.77678 6.13033 5.06967L6.83033 5.76967C7.12322 6.06256 7.12322 6.53744 6.83033 6.83033C6.53744 7.12322 6.06256 7.12322 5.76967 6.83033L5.06967 6.13033C4.77678 5.83744 4.77678 5.36256 5.06967 5.06967ZM18.9303 5.06967C19.2232 5.36256 19.2232 5.83744 18.9303 6.13033L18.2303 6.83033C17.9374 7.12322 17.4626 7.12322 17.1697 6.83033C16.8768 6.53744 16.8768 6.06256 17.1697 5.76967L17.8697 5.06967C18.1626 4.77678 18.6374 4.77678 18.9303 5.06967ZM2.25 12C2.25 11.5858 2.58579 11.25 3 11.25H4C4.41421 11.25 4.75 11.5858 4.75 12C4.75 12.4142 4.41421 12.75 4 12.75H3C2.58579 12.75 2.25 12.4142 2.25 12ZM19.25 12C19.25 11.5858 19.5858 11.25 20 11.25H21C21.4142 11.25 21.75 11.5858 21.75 12C21.75 12.4142 21.4142 12.75 21 12.75H20C19.5858 12.75 19.25 12.4142 19.25 12Z" fill="#212529"/>
<path fill-rule="evenodd" clip-rule="evenodd" d="M5.25 17C5.25 16.0335 6.0335 15.25 7 15.25H17C17.9665 15.25 18.75 16.0335 18.75 17V19C18.75 19.9665 17.9665 20.75 17 20.75H7C6.0335 20.75 5.25 19.9665 5.25 19V17ZM7 16.75C6.86193 16.75 6.75 16.8619 6.75 17V19C6.75 19.1381 6.86193 19.25 7 19.25H17C17.1381 19.25 17.25 19.1381 17.25 19V17C17.25 16.8619 17.1381 16.75 17 16.75H7Z" fill="#212529"/>
</svg>
