<svg width="24" height="24" viewBox="0 0 24 24" fill="none" xmlns="http://www.w3.org/2000/svg">
<path fill-rule="evenodd" clip-rule="evenodd" d="M12 3.75C7.44365 3.75 3.75 7.44365 3.75 12C3.75 16.5563 7.44365 20.25 12 20.25C16.5563 20.25 20.25 16.5563 20.25 12C20.25 7.44365 16.5563 3.75 12 3.75ZM2.25 12C2.25 6.61522 6.61522 2.25 12 2.25C17.3848 2.25 21.75 6.61522 21.75 12C21.75 17.3848 17.3848 21.75 12 21.75C6.61522 21.75 2.25 17.3848 2.25 12Z" fill="#212529"/>
<path fill-rule="evenodd" clip-rule="evenodd" d="M12 7.75C10.7574 7.75 9.75 8.75736 9.75 10C9.75 11.2426 10.7574 12.25 12 12.25C13.2426 12.25 14.25 11.2426 14.25 10C14.25 8.75736 13.2426 7.75 12 7.75ZM8.25 10C8.25 7.92893 9.92893 6.25 12 6.25C14.0711 6.25 15.75 7.92893 15.75 10C15.75 12.0711 14.0711 13.75 12 13.75C9.92893 13.75 8.25 12.0711 8.25 10Z" fill="#212529"/>
<path fill-rule="evenodd" clip-rule="evenodd" d="M17.1154 19.0697C16.7041 17.6928 15.4373 16.7495 14.0003 16.75H10C8.56497 16.7496 7.29927 17.6904 6.88632 19.0648C6.76713 19.4615 6.34893 19.6865 5.95223 19.5673C5.55554 19.4481 5.33058 19.0299 5.44977 18.6332C6.05328 16.6245 7.90272 15.2495 10 15.25C10.0001 15.25 9.99997 15.25 10 15.25L13.9998 15.25C13.9999 15.25 13.9997 15.25 13.9998 15.25C16.0999 15.2494 17.9515 16.628 18.5527 18.6403C18.6712 19.0372 18.4456 19.455 18.0487 19.5736C17.6519 19.6922 17.234 19.4666 17.1154 19.0697Z" fill="#212529"/>
</svg>
