<svg width="24" height="24" viewBox="0 0 24 24" fill="none" xmlns="http://www.w3.org/2000/svg">
<path fill-rule="evenodd" clip-rule="evenodd" d="M16.4697 2.46967C16.7626 2.17678 17.2374 2.17678 17.5303 2.46967L21.5303 6.46967C21.8232 6.76256 21.8232 7.23744 21.5303 7.53033C21.2374 7.82322 20.7626 7.82322 20.4697 7.53033L16.4697 3.53033C16.1768 3.23744 16.1768 2.76256 16.4697 2.46967Z" fill="#212529"/>
<path fill-rule="evenodd" clip-rule="evenodd" d="M19.5303 4.46967C19.8232 4.76256 19.8232 5.23744 19.5303 5.53033L15.0303 10.0303C14.7374 10.3232 14.2626 10.3232 13.9697 10.0303C13.6768 9.73744 13.6768 9.26256 13.9697 8.96967L18.4697 4.46967C18.7626 4.17678 19.2374 4.17678 19.5303 4.46967Z" fill="#212529"/>
<path fill-rule="evenodd" clip-rule="evenodd" d="M10.9697 5.96967C11.2626 5.67678 11.7374 5.67678 12.0303 5.96967L18.0303 11.9697C18.3232 12.2626 18.3232 12.7374 18.0303 13.0303C17.7374 13.3232 17.2626 13.3232 16.9697 13.0303L10.9697 7.03033C10.6768 6.73744 10.6768 6.26256 10.9697 5.96967Z" fill="#212529"/>
<path fill-rule="evenodd" clip-rule="evenodd" d="M13.0303 6.96967C13.3232 7.26256 13.3232 7.73744 13.0303 8.03033L6.75 14.3107V17.25H9.68934L15.9697 10.9697C16.2626 10.6768 16.7374 10.6768 17.0303 10.9697C17.3232 11.2626 17.3232 11.7374 17.0303 12.0303L10.5303 18.5303C10.3897 18.671 10.1989 18.75 10 18.75H6C5.58579 18.75 5.25 18.4142 5.25 18V14C5.25 13.8011 5.32902 13.6103 5.46967 13.4697L11.9697 6.96967C12.2626 6.67678 12.7374 6.67678 13.0303 6.96967Z" fill="#212529"/>
<path fill-rule="evenodd" clip-rule="evenodd" d="M6.96967 11.9697C7.26256 11.6768 7.73744 11.6768 8.03033 11.9697L9.53033 13.4697C9.82322 13.7626 9.82322 14.2374 9.53033 14.5303C9.23744 14.8232 8.76256 14.8232 8.46967 14.5303L6.96967 13.0303C6.67678 12.7374 6.67678 12.2626 6.96967 11.9697Z" fill="#212529"/>
<path fill-rule="evenodd" clip-rule="evenodd" d="M9.96967 8.96967C10.2626 8.67678 10.7374 8.67678 11.0303 8.96967L12.5303 10.4697C12.8232 10.7626 12.8232 11.2374 12.5303 11.5303C12.2374 11.8232 11.7626 11.8232 11.4697 11.5303L9.96967 10.0303C9.67678 9.73744 9.67678 9.26256 9.96967 8.96967Z" fill="#212529"/>
<path fill-rule="evenodd" clip-rule="evenodd" d="M6.53033 17.4697C6.82322 17.7626 6.82322 18.2374 6.53033 18.5303L3.53033 21.5303C3.23744 21.8232 2.76256 21.8232 2.46967 21.5303C2.17678 21.2374 2.17678 20.7626 2.46967 20.4697L5.46967 17.4697C5.76256 17.1768 6.23744 17.1768 6.53033 17.4697Z" fill="#212529"/>
</svg>
