<svg width="14" height="14" viewBox="0 0 14 14" fill="none" xmlns="http://www.w3.org/2000/svg">
<path d="M14 6.99995C14 7.57834 12.8657 8.00007 12.7227 8.53383C12.5755 9.08597 13.3428 10.0177 13.063 10.501C12.7796 10.991 11.5864 10.7902 11.1883 11.1882C10.7908 11.5863 10.9916 12.7789 10.501 13.0628C10.0177 13.3426 9.08588 12.5748 8.5342 12.7226C8.00044 12.8651 7.57872 13.9998 7.00023 13.9998C6.42175 13.9998 5.99956 12.8651 5.46626 12.7226C4.91412 12.5748 3.98227 13.3425 3.49904 13.0628C3.0084 12.7788 3.20933 11.5863 2.8117 11.1882C2.41361 10.7901 1.22044 10.991 0.937015 10.501C0.657242 10.0177 1.42502 9.08597 1.27726 8.53383C1.13475 8.00016 0 7.57844 0 6.99995C0 6.42147 1.13475 5.99984 1.27726 5.46608C1.42502 4.91394 0.657242 3.98217 0.937015 3.49895C1.22044 3.00887 2.41361 3.2097 2.8117 2.8117C3.2098 2.41361 3.00887 1.22101 3.49904 0.937109C3.98227 0.657336 4.91412 1.42512 5.46626 1.27726C6.00003 1.13475 6.42184 0 7.00023 0C7.57863 0 8.00044 1.13475 8.5342 1.27726C9.08634 1.42502 10.0182 0.657804 10.5014 0.937109C10.9915 1.2211 10.7907 2.41417 11.1887 2.8117C11.5862 3.2098 12.7794 3.00887 13.0629 3.49951C13.3427 3.98274 12.5754 4.91403 12.7232 5.46617C12.8657 5.99993 14 6.42166 14 7.00005V6.99995Z" fill="#9069DD"/>
<path d="M7.3543 8.52054C6.74295 9.13189 5.75175 9.13189 5.1404 8.52054L4.51015 7.89029C4.24687 7.62701 4.24687 7.20016 4.51015 6.93688V6.93688C4.77343 6.6736 5.2003 6.67361 5.46357 6.9369L5.6171 7.09044C5.96517 7.43854 6.52953 7.43854 6.87761 7.09046L9.05357 4.91444C9.31684 4.65115 9.74371 4.65115 10.007 4.91443V4.91443C10.2703 5.17771 10.2703 5.60457 10.007 5.86784L7.3543 8.52054Z" fill="white"/>
</svg>
