<svg width="24" height="24" viewBox="0 0 24 24" fill="none" xmlns="http://www.w3.org/2000/svg">
<path d="M22.9909 12.4954C22.9909 13.3626 21.2902 13.9949 21.0758 14.7952C20.8551 15.6231 22.0055 17.0201 21.586 17.7446C21.161 18.4794 19.3721 18.1783 18.7752 18.775C18.1791 19.3719 18.4803 21.1601 17.7446 21.5857C17.0201 22.0052 15.6229 20.854 14.7958 21.0756C13.9955 21.2892 13.3632 22.9906 12.4958 22.9906C11.6285 22.9906 10.9954 21.2892 10.1958 21.0756C9.368 20.854 7.97081 22.0051 7.24629 21.5857C6.51065 21.1599 6.81191 19.3719 6.21573 18.775C5.61884 18.1782 3.82987 18.4794 3.40491 17.7446C2.98544 17.0201 4.13661 15.6231 3.91506 14.7952C3.70139 13.995 2 13.3627 2 12.4954C2 11.628 3.70139 10.9959 3.91506 10.1956C4.13661 9.36771 2.98544 7.97067 3.40491 7.24615C3.82987 6.51136 5.61884 6.81247 6.21573 6.21573C6.81261 5.61884 6.51136 3.83072 7.24629 3.40505C7.97081 2.98558 9.368 4.13675 10.1958 3.91506C10.9961 3.70139 11.6286 2 12.4958 2C13.363 2 13.9955 3.70139 14.7958 3.91506C15.6236 4.13661 17.0208 2.98628 17.7453 3.40505C18.4801 3.83086 18.179 5.61968 18.7757 6.21573C19.3718 6.81261 21.1608 6.51136 21.5859 7.24699C22.0053 7.97152 20.855 9.36786 21.0765 10.1957C21.2902 10.996 22.9909 11.6283 22.9909 12.4955V12.4954Z" fill="black"/>
<path d="M12.0741 15.7278C11.6836 16.1184 11.0504 16.1184 10.6599 15.7278L8.75469 13.8226C8.36416 13.4321 8.36416 12.7989 8.75469 12.4084L8.76996 12.3931C9.16049 12.0026 9.79368 12.0026 10.1842 12.3932L10.6599 12.8689C11.0504 13.2594 11.6836 13.2594 12.0741 12.8689L15.5821 9.36077C15.9727 8.97024 16.6058 8.97024 16.9964 9.36076L17.0117 9.37606C17.4022 9.76658 17.4022 10.3997 17.0117 10.7903L12.0741 15.7278Z" fill="white"/>
</svg>
