<svg id="Camada_2" data-name="Camada 2" xmlns="http://www.w3.org/2000/svg" viewBox="0 0 20.99 20.99">
  <defs>
    <style>
      .cls-1 {
        fill-rule: evenodd;
      }
    </style>
  </defs>
  <g id="Camada_1-2" data-name="Camada 1">
    <path class="cls-1" d="M20,9.23c-.42-.34-.83-.67-.93-1.04-.1-.39,.09-.9,.29-1.41,.22-.58,.44-1.15,.22-1.54-.23-.39-.85-.49-1.46-.59-.54-.08-1.07-.17-1.35-.44-.28-.28-.36-.81-.44-1.35-.1-.62-.19-1.24-.59-1.46-.39-.22-.96,0-1.54,.22-.51,.2-1.02,.39-1.41,.29-.37-.1-.7-.51-1.04-.93-.39-.49-.79-.99-1.26-.99s-.87,.5-1.26,.99c-.34,.42-.67,.83-1.04,.93-.39,.1-.9-.09-1.41-.29-.58-.22-1.16-.44-1.54-.22-.39,.23-.49,.85-.59,1.46-.08,.54-.17,1.07-.44,1.35-.28,.28-.81,.36-1.35,.44-.62,.1-1.24,.19-1.46,.59-.22,.39,0,.96,.22,1.54,.2,.51,.39,1.02,.29,1.41-.1,.37-.51,.7-.93,1.04-.49,.39-.99,.79-.99,1.26s.5,.87,.99,1.26c.42,.34,.83,.67,.93,1.04,.1,.39-.09,.9-.29,1.41-.22,.58-.44,1.16-.22,1.54,.23,.39,.85,.49,1.46,.59,.54,.08,1.07,.17,1.35,.44,.28,.28,.36,.81,.44,1.35,.1,.62,.19,1.24,.59,1.46,.39,.22,.96,0,1.54-.22,.51-.2,1.02-.39,1.41-.29,.37,.1,.7,.51,1.04,.93,.4,.49,.8,.99,1.26,.99s.87-.5,1.26-.99c.34-.42,.67-.83,1.04-.93,.39-.1,.9,.09,1.41,.29,.58,.22,1.16,.44,1.54,.22,.39-.23,.49-.85,.59-1.46,.08-.54,.17-1.07,.44-1.35,.28-.28,.81-.36,1.35-.44,.62-.1,1.24-.19,1.46-.59,.22-.39,0-.96-.22-1.54-.2-.51-.39-1.02-.29-1.41,.1-.37,.51-.7,.93-1.04,.49-.39,.99-.79,.99-1.26,0-.47-.5-.87-.99-1.26Zm-5.38-.49l-4.94,4.94c-.39,.39-1.02,.39-1.41,0l-1.91-1.91c-.39-.39-.39-1.02,0-1.41l.02-.02c.39-.39,1.02-.39,1.41,0l.48,.48c.39,.39,1.02,.39,1.41,0l3.51-3.51c.39-.39,1.02-.39,1.41,0l.02,.02c.39,.39,.39,1.02,0,1.41Z"/>
  </g>
</svg>
