<svg width="24" height="24" viewBox="0 0 24 24" fill="none" xmlns="http://www.w3.org/2000/svg">
<path fill-rule="evenodd" clip-rule="evenodd" d="M2.46967 2.46967C2.76256 2.17678 3.23744 2.17678 3.53033 2.46967L21.5303 20.4697C21.8232 20.7626 21.8232 21.2374 21.5303 21.5303C21.2374 21.8232 20.7626 21.8232 20.4697 21.5303L2.46967 3.53033C2.17678 3.23744 2.17678 2.76256 2.46967 2.46967Z" fill="black"/>
<path fill-rule="evenodd" clip-rule="evenodd" d="M19.8882 8.39499C19.8882 8.39501 19.8883 8.39498 19.8882 8.39499L15.75 10.4637V11.0001C15.75 11.4143 15.4142 11.7501 15 11.7501C14.5858 11.7501 14.25 11.4143 14.25 11.0001V10.0001C14.25 9.71599 14.4105 9.45627 14.6646 9.32924L19.2176 7.05324C19.76 6.78224 20.404 6.81119 20.9198 7.12985C21.4356 7.44851 21.7497 8.01142 21.75 8.61769V15.3819C21.75 15.3819 21.75 15.3818 21.75 15.3819C21.7501 16.1293 21.2756 16.7945 20.5687 17.0374C20.177 17.172 19.7503 16.9636 19.6157 16.5718C19.4811 16.1801 19.6895 15.7534 20.0812 15.6188C20.1822 15.5841 20.25 15.4891 20.25 15.3823V8.61849C20.25 8.53188 20.2051 8.45147 20.1314 8.40594C20.0578 8.36044 19.9657 8.35633 19.8882 8.39499Z" fill="black"/>
<path fill-rule="evenodd" clip-rule="evenodd" d="M5 6.75C4.30964 6.75 3.75 7.30964 3.75 8V16C3.75 16.6904 4.30964 17.25 5 17.25H13C13.6904 17.25 14.25 16.6904 14.25 16V15C14.25 14.5858 14.5858 14.25 15 14.25C15.4142 14.25 15.75 14.5858 15.75 15V16C15.75 17.5188 14.5188 18.75 13 18.75H5C3.48122 18.75 2.25 17.5188 2.25 16V8C2.25 6.48122 3.48122 5.25 5 5.25H6C6.41421 5.25 6.75 5.58579 6.75 6C6.75 6.41421 6.41421 6.75 6 6.75H5ZM9.25 6C9.25 5.58579 9.58579 5.25 10 5.25H13C14.5188 5.25 15.75 6.48122 15.75 8V11C15.75 11.4142 15.4142 11.75 15 11.75C14.5858 11.75 14.25 11.4142 14.25 11V8C14.25 7.30964 13.6904 6.75 13 6.75H10C9.58579 6.75 9.25 6.41421 9.25 6Z" fill="black"/>
</svg>
