<svg width="24" height="24" viewBox="0 0 24 24" fill="none" xmlns="http://www.w3.org/2000/svg">
<path fill-rule="evenodd" clip-rule="evenodd" d="M19.8882 8.3949C19.8882 8.39492 19.8883 8.39488 19.8882 8.3949L15.75 10.4636V13.5364L19.8882 15.6051C19.8883 15.6051 19.8882 15.6051 19.8882 15.6051C19.9657 15.6438 20.0578 15.6396 20.1314 15.5941C20.2051 15.5486 20.25 15.4682 20.25 15.3816V8.6184C20.25 8.53179 20.2051 8.45137 20.1314 8.40585C20.0578 8.36035 19.9657 8.35624 19.8882 8.3949ZM19.2178 7.0531C19.7601 6.78209 20.404 6.8111 20.9198 7.12976C21.4356 7.44842 21.7497 8.01133 21.75 8.6176V15.382C21.7497 15.9883 21.4356 16.5516 20.9198 16.8702C20.404 17.1889 19.7601 17.2179 19.2178 16.9469L14.6646 14.6708C14.4105 14.5438 14.25 14.2841 14.25 14V10C14.25 9.7159 14.4105 9.45618 14.6646 9.32915L19.2178 7.0531Z" fill="#212529"/>
<path fill-rule="evenodd" clip-rule="evenodd" d="M2.25 8C2.25 6.48122 3.48122 5.25 5 5.25H13C14.5188 5.25 15.75 6.48122 15.75 8V16C15.75 17.5188 14.5188 18.75 13 18.75H5C3.48122 18.75 2.25 17.5188 2.25 16V8ZM5 6.75C4.30964 6.75 3.75 7.30964 3.75 8V16C3.75 16.6904 4.30964 17.25 5 17.25H13C13.6904 17.25 14.25 16.6904 14.25 16V8C14.25 7.30964 13.6904 6.75 13 6.75H5Z" fill="#212529"/>
</svg>
