<svg width="24" height="24" viewBox="0 0 24 24" fill="none" xmlns="http://www.w3.org/2000/svg">
<path fill-rule="evenodd" clip-rule="evenodd" d="M12 3.75C7.44365 3.75 3.75 7.44365 3.75 12C3.75 16.5563 7.44365 20.25 12 20.25C16.5563 20.25 20.25 16.5563 20.25 12C20.25 7.44365 16.5563 3.75 12 3.75ZM2.25 12C2.25 6.61522 6.61522 2.25 12 2.25C17.3848 2.25 21.75 6.61522 21.75 12C21.75 17.3848 17.3848 21.75 12 21.75C6.61522 21.75 2.25 17.3848 2.25 12Z" fill="#212529"/>
<path fill-rule="evenodd" clip-rule="evenodd" d="M2.84961 9C2.84961 8.58579 3.1854 8.25 3.59961 8.25H20.3996C20.8138 8.25 21.1496 8.58579 21.1496 9C21.1496 9.41421 20.8138 9.75 20.3996 9.75H3.59961C3.1854 9.75 2.84961 9.41421 2.84961 9Z" fill="#212529"/>
<path fill-rule="evenodd" clip-rule="evenodd" d="M2.84961 15C2.84961 14.5858 3.1854 14.25 3.59961 14.25H20.3996C20.8138 14.25 21.1496 14.5858 21.1496 15C21.1496 15.4142 20.8138 15.75 20.3996 15.75H3.59961C3.1854 15.75 2.84961 15.4142 2.84961 15Z" fill="#212529"/>
<path fill-rule="evenodd" clip-rule="evenodd" d="M11.8967 2.36371C12.2481 2.58299 12.3552 3.04563 12.1359 3.39704C8.85052 8.66182 8.85052 15.3381 12.1359 20.6029C12.3552 20.9543 12.2481 21.417 11.8967 21.6363C11.5453 21.8555 11.0827 21.7484 10.8634 21.397C7.2747 15.6463 7.2747 8.35369 10.8634 2.60292C11.0827 2.25152 11.5453 2.14442 11.8967 2.36371Z" fill="#212529"/>
<path fill-rule="evenodd" clip-rule="evenodd" d="M12.1029 2.36371C12.4543 2.14442 12.917 2.25152 13.1363 2.60292C16.7249 8.35369 16.7249 15.6463 13.1363 21.397C12.917 21.7484 12.4543 21.8555 12.1029 21.6363C11.7515 21.417 11.6444 20.9543 11.8637 20.6029C15.1491 15.3381 15.1491 8.66182 11.8637 3.39704C11.6444 3.04563 11.7515 2.58299 12.1029 2.36371Z" fill="#212529"/>
</svg>
