<svg width="24" height="24" viewBox="0 0 24 24" fill="none" xmlns="http://www.w3.org/2000/svg">
<path fill-rule="evenodd" clip-rule="evenodd" d="M7 15.75C6.30964 15.75 5.75 16.3096 5.75 17C5.75 17.6904 6.30964 18.25 7 18.25C7.69036 18.25 8.25 17.6904 8.25 17C8.25 16.3096 7.69036 15.75 7 15.75ZM4.25 17C4.25 15.4812 5.48122 14.25 7 14.25C8.51878 14.25 9.75 15.4812 9.75 17C9.75 18.5188 8.51878 19.75 7 19.75C5.48122 19.75 4.25 18.5188 4.25 17Z" fill="#212529"/>
<path fill-rule="evenodd" clip-rule="evenodd" d="M17 15.75C16.3096 15.75 15.75 16.3096 15.75 17C15.75 17.6904 16.3096 18.25 17 18.25C17.6904 18.25 18.25 17.6904 18.25 17C18.25 16.3096 17.6904 15.75 17 15.75ZM14.25 17C14.25 15.4812 15.4812 14.25 17 14.25C18.5188 14.25 19.75 15.4812 19.75 17C19.75 18.5188 18.5188 19.75 17 19.75C15.4812 19.75 14.25 18.5188 14.25 17Z" fill="#212529"/>
<path fill-rule="evenodd" clip-rule="evenodd" d="M4.30364 5.72146C4.41754 5.43671 4.69332 5.25 5 5.25H14C14.2278 5.25 14.4433 5.35357 14.5857 5.53148L18.3605 10.25H19C20.5188 10.25 21.75 11.4812 21.75 13V17C21.75 17.4142 21.4142 17.75 21 17.75H19C18.5858 17.75 18.25 17.4142 18.25 17C18.25 16.5858 18.5858 16.25 19 16.25H20.25V13C20.25 12.3096 19.6904 11.75 19 11.75H3.75V16.25H5C5.41421 16.25 5.75 16.5858 5.75 17C5.75 17.4142 5.41421 17.75 5 17.75H3C2.58579 17.75 2.25 17.4142 2.25 17V11C2.25 10.8955 2.27136 10.796 2.30996 10.7057L4.30364 5.72146ZM4.10777 10.25L5.50777 6.75H11.25V10.25H4.10777ZM12.75 10.25H16.4395L13.6395 6.75H12.75V10.25ZM8.25 17C8.25 16.5858 8.58579 16.25 9 16.25H15C15.4142 16.25 15.75 16.5858 15.75 17C15.75 17.4142 15.4142 17.75 15 17.75H9C8.58579 17.75 8.25 17.4142 8.25 17Z" fill="#212529"/>
</svg>
