<svg width="24" height="24" viewBox="0 0 24 24" fill="none" xmlns="http://www.w3.org/2000/svg">
<path fill-rule="evenodd" clip-rule="evenodd" d="M13.4911 13.7499C12.191 13.7344 11.1226 14.0799 10.4589 14.5932C9.46451 15.3624 8.04246 15.7669 6.50004 15.7501C4.95761 15.7669 3.53556 15.3624 2.54117 14.5932C2.21353 14.3398 2.15337 13.8688 2.40679 13.5411C2.66022 13.2135 3.13127 13.1533 3.45891 13.4068C4.12259 13.9201 5.19095 14.2656 6.49108 14.2501H6.509C7.80912 14.2656 8.87748 13.9201 9.54117 13.4068C10.5356 12.6376 11.9576 12.2332 13.5 12.25C15.0425 12.2332 16.4645 12.6376 17.4589 13.4068C17.7865 13.6602 17.8467 14.1312 17.5933 14.4589C17.3399 14.7865 16.8688 14.8467 16.5412 14.5932C15.8775 14.0799 14.8091 13.7344 13.509 13.7499H13.4911Z" fill="#212529"/>
<path fill-rule="evenodd" clip-rule="evenodd" d="M8.60933 2.56266C8.85087 2.89916 8.77388 3.36775 8.43738 3.60929C7.99565 3.92635 7.73849 4.44067 7.74988 4.98429C7.7501 4.99476 7.7501 5.00523 7.74988 5.0157C7.73849 5.55932 7.99565 6.07364 8.43738 6.3907C8.77388 6.63224 8.85087 7.10083 8.60933 7.43733C8.3678 7.77383 7.89921 7.85082 7.5627 7.60929C6.72367 7.00705 6.23343 6.032 6.24991 5C6.23343 3.96799 6.72367 2.99294 7.5627 2.3907C7.89921 2.14917 8.3678 2.22616 8.60933 2.56266Z" fill="#212529"/>
<path fill-rule="evenodd" clip-rule="evenodd" d="M12.6093 2.56266C12.8509 2.89916 12.7739 3.36775 12.4374 3.60929C11.9957 3.92635 11.7385 4.44067 11.7499 4.98429C11.7501 4.99476 11.7501 5.00523 11.7499 5.0157C11.7385 5.55932 11.9957 6.07364 12.4374 6.3907C12.7739 6.63224 12.8509 7.10083 12.6093 7.43733C12.3678 7.77383 11.8992 7.85082 11.5627 7.60929C10.7237 7.00705 10.2334 6.032 10.2499 5C10.2334 3.96799 10.7237 2.99294 11.5627 2.3907C11.8992 2.14917 12.3678 2.22616 12.6093 2.56266Z" fill="#212529"/>
<path fill-rule="evenodd" clip-rule="evenodd" d="M2.25 10C2.25 9.58579 2.58579 9.25 3 9.25H17C17.4142 9.25 17.75 9.58579 17.75 10V15C17.75 18.7279 14.7279 21.75 11 21.75H9C5.27208 21.75 2.25 18.7279 2.25 15V10ZM3.75 10.75V15C3.75 17.8995 6.10051 20.25 9 20.25H11C13.8995 20.25 16.25 17.8995 16.25 15V10.75H3.75Z" fill="#212529"/>
<path fill-rule="evenodd" clip-rule="evenodd" d="M16.7481 10.4639C18.3417 9.90069 20.1151 10.4731 21.0786 11.8617C22.0421 13.2503 21.9577 15.1119 20.8724 16.4076C19.7871 17.7032 17.9692 18.1127 16.4331 17.4076C16.0567 17.2348 15.8916 16.7895 16.0644 16.4131C16.2372 16.0367 16.6825 15.8716 17.0589 16.0444C17.9806 16.4675 19.0713 16.2218 19.7225 15.4444C20.3737 14.667 20.4243 13.55 19.8462 12.7169C19.2681 11.8837 18.2041 11.5402 17.2479 11.8781C16.8574 12.0162 16.4289 11.8114 16.2909 11.4209C16.1529 11.0304 16.3576 10.6019 16.7481 10.4639Z" fill="#212529"/>
</svg>
