<svg width="24" height="24" viewBox="0 0 24 24" fill="none" xmlns="http://www.w3.org/2000/svg">
<path fill-rule="evenodd" clip-rule="evenodd" d="M5.34982 4.6259L2.35689 9.61412C2.18777 9.89598 2.2219 10.2551 2.44108 10.5001L10.9411 20.0001C10.9486 20.0085 10.9564 20.0168 10.9643 20.0249C11.237 20.3032 11.6103 20.4601 12 20.4601C12.3897 20.4601 12.763 20.3032 13.0357 20.0249C13.0436 20.0168 13.0514 20.0085 13.0589 20.0001L21.5589 10.5001C21.7781 10.2551 21.8122 9.89598 21.6431 9.61412L18.6431 4.61412C18.5076 4.38822 18.2635 4.24999 18 4.24999H6.01375C5.98602 4.24951 5.95835 4.25057 5.93086 4.25314C5.82238 4.26305 5.72058 4.29607 5.63043 4.34722C5.54017 4.39821 5.45948 4.46852 5.39516 4.55644C5.37882 4.57869 5.36367 4.60188 5.34982 4.6259ZM6.42465 5.74999L3.92753 9.91185L12 18.934L20.0725 9.91185L17.5754 5.74999H6.42465Z" fill="#212529"/>
<path fill-rule="evenodd" clip-rule="evenodd" d="M8.98588 8.15686C9.34107 8.36997 9.45624 8.83067 9.24313 9.18585L8.9299 9.7079L10.555 11.4955C10.8336 11.802 10.811 12.2763 10.5045 12.5549C10.198 12.8336 9.72368 12.811 9.44505 12.5045L7.44505 10.3045C7.22247 10.0596 7.18664 9.69785 7.35689 9.41411L7.95689 8.41411C8.17 8.05892 8.6307 7.94375 8.98588 8.15686Z" fill="#212529"/>
</svg>
