<svg width="24" height="24" viewBox="0 0 24 24" fill="none" xmlns="http://www.w3.org/2000/svg">
<path fill-rule="evenodd" clip-rule="evenodd" d="M3.25 9C3.25 7.48122 4.48122 6.25 6 6.25H11C11.4142 6.25 11.75 6.58579 11.75 7C11.75 7.41421 11.4142 7.75 11 7.75H6C5.30964 7.75 4.75 8.30964 4.75 9V18C4.75 18.6904 5.30964 19.25 6 19.25H15C15.6904 19.25 16.25 18.6904 16.25 18V13C16.25 12.5858 16.5858 12.25 17 12.25C17.4142 12.25 17.75 12.5858 17.75 13V18C17.75 19.5188 16.5188 20.75 15 20.75H6C4.48122 20.75 3.25 19.5188 3.25 18V9Z" fill="#212529"/>
<path fill-rule="evenodd" clip-rule="evenodd" d="M20.5303 3.46967C20.8232 3.76256 20.8232 4.23744 20.5303 4.53033L10.5303 14.5303C10.2374 14.8232 9.76256 14.8232 9.46967 14.5303C9.17678 14.2374 9.17678 13.7626 9.46967 13.4697L19.4697 3.46967C19.7626 3.17678 20.2374 3.17678 20.5303 3.46967Z" fill="#212529"/>
<path fill-rule="evenodd" clip-rule="evenodd" d="M14.25 4C14.25 3.58579 14.5858 3.25 15 3.25H20C20.4142 3.25 20.75 3.58579 20.75 4V9C20.75 9.41421 20.4142 9.75 20 9.75C19.5858 9.75 19.25 9.41421 19.25 9V4.75H15C14.5858 4.75 14.25 4.41421 14.25 4Z" fill="#212529"/>
</svg>
