<svg width="24" height="24" viewBox="0 0 24 24" fill="none" xmlns="http://www.w3.org/2000/svg">
<path fill-rule="evenodd" clip-rule="evenodd" d="M14 2.25C14.4142 2.25 14.75 2.58579 14.75 3V7C14.75 7.13807 14.8619 7.25 15 7.25H19C19.4142 7.25 19.75 7.58579 19.75 8C19.75 8.41421 19.4142 8.75 19 8.75H15C14.0335 8.75 13.25 7.9665 13.25 7V3C13.25 2.58579 13.5858 2.25 14 2.25Z" fill="#212529"/>
<path fill-rule="evenodd" clip-rule="evenodd" d="M7 3.75C6.30964 3.75 5.75 4.30964 5.75 5V19C5.75 19.6904 6.30964 20.25 7 20.25H17C17.6904 20.25 18.25 19.6904 18.25 19V8.31066L13.6893 3.75H7ZM4.25 5C4.25 3.48122 5.48122 2.25 7 2.25H14C14.1989 2.25 14.3897 2.32902 14.5303 2.46967L19.5303 7.46967C19.671 7.61032 19.75 7.80109 19.75 8V19C19.75 20.5188 18.5188 21.75 17 21.75H7C5.48122 21.75 4.25 20.5188 4.25 19V5Z" fill="#212529"/>
<path fill-rule="evenodd" clip-rule="evenodd" d="M8.25 9C8.25 8.58579 8.58579 8.25 9 8.25H10C10.4142 8.25 10.75 8.58579 10.75 9C10.75 9.41421 10.4142 9.75 10 9.75H9C8.58579 9.75 8.25 9.41421 8.25 9Z" fill="#212529"/>
<path fill-rule="evenodd" clip-rule="evenodd" d="M8.25 13C8.25 12.5858 8.58579 12.25 9 12.25H15C15.4142 12.25 15.75 12.5858 15.75 13C15.75 13.4142 15.4142 13.75 15 13.75H9C8.58579 13.75 8.25 13.4142 8.25 13Z" fill="#212529"/>
<path fill-rule="evenodd" clip-rule="evenodd" d="M8.25 17C8.25 16.5858 8.58579 16.25 9 16.25H15C15.4142 16.25 15.75 16.5858 15.75 17C15.75 17.4142 15.4142 17.75 15 17.75H9C8.58579 17.75 8.25 17.4142 8.25 17Z" fill="#212529"/>
</svg>
