<svg width="24" height="24" viewBox="0 0 24 24" fill="none" xmlns="http://www.w3.org/2000/svg">
<path fill-rule="evenodd" clip-rule="evenodd" d="M15 11.75C13.2051 11.75 11.75 13.2051 11.75 15C11.75 16.7949 13.2051 18.25 15 18.25C16.7949 18.25 18.25 16.7949 18.25 15C18.25 13.2051 16.7949 11.75 15 11.75ZM10.25 15C10.25 12.3766 12.3766 10.25 15 10.25C17.6234 10.25 19.75 12.3766 19.75 15C19.75 17.6234 17.6234 19.75 15 19.75C12.3766 19.75 10.25 17.6234 10.25 15Z" fill="#212529"/>
<path fill-rule="evenodd" clip-rule="evenodd" d="M17.9697 17.9697C18.2626 17.6768 18.7374 17.6768 19.0303 17.9697L21.5303 20.4697C21.8232 20.7626 21.8232 21.2374 21.5303 21.5303C21.2374 21.8232 20.7626 21.8232 20.4697 21.5303L17.9697 19.0303C17.6768 18.7374 17.6768 18.2626 17.9697 17.9697Z" fill="#212529"/>
<path fill-rule="evenodd" clip-rule="evenodd" d="M3.25 6C3.25 5.58579 3.58579 5.25 4 5.25H20C20.4142 5.25 20.75 5.58579 20.75 6C20.75 6.41421 20.4142 6.75 20 6.75H4C3.58579 6.75 3.25 6.41421 3.25 6Z" fill="#212529"/>
<path fill-rule="evenodd" clip-rule="evenodd" d="M3.25 12C3.25 11.5858 3.58579 11.25 4 11.25H8C8.41421 11.25 8.75 11.5858 8.75 12C8.75 12.4142 8.41421 12.75 8 12.75H4C3.58579 12.75 3.25 12.4142 3.25 12Z" fill="#212529"/>
<path fill-rule="evenodd" clip-rule="evenodd" d="M3.25 18C3.25 17.5858 3.58579 17.25 4 17.25H8C8.41421 17.25 8.75 17.5858 8.75 18C8.75 18.4142 8.41421 18.75 8 18.75H4C3.58579 18.75 3.25 18.4142 3.25 18Z" fill="#212529"/>
</svg>
