<svg width="24" height="24" viewBox="0 0 24 24" fill="none" xmlns="http://www.w3.org/2000/svg">
<path fill-rule="evenodd" clip-rule="evenodd" d="M14.25 8C14.25 7.58579 14.5858 7.25 15 7.25H15.01C15.4242 7.25 15.76 7.58579 15.76 8C15.76 8.41421 15.4242 8.75 15.01 8.75H15C14.5858 8.75 14.25 8.41421 14.25 8Z" fill="#212529"/>
<path fill-rule="evenodd" clip-rule="evenodd" d="M3.25 7C3.25 4.92893 4.92893 3.25 7 3.25H17C19.0711 3.25 20.75 4.92893 20.75 7V17C20.75 19.0711 19.0711 20.75 17 20.75H7C4.92893 20.75 3.25 19.0711 3.25 17V7ZM7 4.75C5.75736 4.75 4.75 5.75736 4.75 7V17C4.75 18.2426 5.75736 19.25 7 19.25H17C18.2426 19.25 19.25 18.2426 19.25 17V7C19.25 5.75736 18.2426 4.75 17 4.75H7Z" fill="#212529"/>
<path fill-rule="evenodd" clip-rule="evenodd" d="M8.52489 11.5357L4.53033 15.5303C4.23744 15.8232 3.76256 15.8232 3.46967 15.5303C3.17678 15.2374 3.17678 14.7625 3.46967 14.4696L7.46967 10.4696L7.47997 10.4595C8.05661 9.90465 8.75341 9.58008 9.5 9.58008C10.2466 9.58008 10.9434 9.90465 11.52 10.4595L11.5303 10.4696L16.5303 15.4696C16.8232 15.7625 16.8232 16.2374 16.5303 16.5303C16.2374 16.8232 15.7626 16.8232 15.4697 16.5303L10.4751 11.5357C10.1253 11.201 9.78798 11.0801 9.5 11.0801C9.21202 11.0801 8.87472 11.201 8.52489 11.5357Z" fill="#212529"/>
<path fill-rule="evenodd" clip-rule="evenodd" d="M15.5249 13.5357L14.5303 14.5303C14.2374 14.8232 13.7626 14.8232 13.4697 14.5303C13.1768 14.2374 13.1768 13.7625 13.4697 13.4696L14.4697 12.4696L14.48 12.4595C15.0566 11.9046 15.7534 11.5801 16.5 11.5801C17.2466 11.5801 17.9434 11.9046 18.52 12.4595L18.5303 12.4696L20.5303 14.4696C20.8232 14.7625 20.8232 15.2374 20.5303 15.5303C20.2374 15.8232 19.7626 15.8232 19.4697 15.5303L17.4751 13.5357C17.1253 13.201 16.788 13.0801 16.5 13.0801C16.212 13.0801 15.8747 13.201 15.5249 13.5357Z" fill="#212529"/>
</svg>
