<svg width="24" height="24" viewBox="0 0 24 24" fill="none" xmlns="http://www.w3.org/2000/svg">
<path fill-rule="evenodd" clip-rule="evenodd" d="M8 3.75C5.65279 3.75 3.75 5.65279 3.75 8C3.75 10.3472 5.65279 12.25 8 12.25C10.3472 12.25 12.25 10.3472 12.25 8C12.25 5.65279 10.3472 3.75 8 3.75ZM2.25 8C2.25 4.82436 4.82436 2.25 8 2.25C11.1756 2.25 13.75 4.82436 13.75 8C13.75 11.1756 11.1756 13.75 8 13.75C4.82436 13.75 2.25 11.1756 2.25 8Z" fill="#212529"/>
<path fill-rule="evenodd" clip-rule="evenodd" d="M17 13.75C15.2051 13.75 13.75 15.2051 13.75 17C13.75 18.7949 15.2051 20.25 17 20.25C18.7949 20.25 20.25 18.7949 20.25 17C20.25 15.2051 18.7949 13.75 17 13.75ZM12.25 17C12.25 14.3766 14.3766 12.25 17 12.25C19.6234 12.25 21.75 14.3766 21.75 17C21.75 19.6234 19.6234 21.75 17 21.75C14.3766 21.75 12.25 19.6234 12.25 17Z" fill="#212529"/>
<path fill-rule="evenodd" clip-rule="evenodd" d="M3.96967 3.96967C4.26256 3.67678 4.73744 3.67678 5.03033 3.96967L12.0303 10.9697C12.3232 11.2626 12.3232 11.7374 12.0303 12.0303C11.7374 12.3232 11.2626 12.3232 10.9697 12.0303L3.96967 5.03033C3.67678 4.73744 3.67678 4.26256 3.96967 3.96967Z" fill="#212529"/>
<path fill-rule="evenodd" clip-rule="evenodd" d="M20.0303 13.9697C20.3232 14.2626 20.3232 14.7374 20.0303 15.0303L15.0303 20.0303C14.7374 20.3232 14.2626 20.3232 13.9697 20.0303C13.6768 19.7374 13.6768 19.2626 13.9697 18.9697L18.9697 13.9697C19.2626 13.6768 19.7374 13.6768 20.0303 13.9697Z" fill="#212529"/>
</svg>
