<svg width="24" height="24" viewBox="0 0 24 24" fill="none" xmlns="http://www.w3.org/2000/svg">
<path fill-rule="evenodd" clip-rule="evenodd" d="M2.46967 2.46967C2.76256 2.17678 3.23744 2.17678 3.53033 2.46967L21.5303 20.4697C21.8232 20.7626 21.8232 21.2374 21.5303 21.5303C21.2374 21.8232 20.7626 21.8232 20.4697 21.5303L2.46967 3.53033C2.17678 3.23744 2.17678 2.76256 2.46967 2.46967Z" fill="#212529"/>
<path fill-rule="evenodd" clip-rule="evenodd" d="M15.5303 3.96967C15.8232 4.26256 15.8232 4.73744 15.5303 5.03033L12.2813 8.27933C11.9884 8.57222 11.5136 8.57222 11.2207 8.27933C10.9278 7.98644 10.9278 7.51156 11.2207 7.21867L14.4697 3.96967C14.7626 3.67678 15.2374 3.67678 15.5303 3.96967ZM20.0302 8.46959C20.3232 8.76244 20.3233 9.23731 20.0304 9.53025L16.7804 12.7812C16.4876 13.0742 16.0127 13.0743 15.7198 12.7814C15.4268 12.4886 15.4267 12.0137 15.7196 11.7208L18.9696 8.46975C19.2624 8.17681 19.7373 8.17674 20.0302 8.46959ZM9.88323 8.91862C10.0287 9.30646 9.83221 9.73877 9.44438 9.88423L7.41547 10.6452L6.56066 11.5L12.5 17.4393L13.3548 16.5845L14.1178 14.5506C14.2633 14.1628 14.6956 13.9663 15.0834 14.1118C15.4712 14.2573 15.6677 14.6896 15.5222 15.0774L14.7022 17.2634C14.6646 17.3636 14.606 17.4546 14.5303 17.5303L13.0303 19.0303C12.7374 19.3232 12.2626 19.3232 11.9697 19.0303L4.96967 12.0303C4.67678 11.7374 4.67678 11.2626 4.96967 10.9697L6.46967 9.46967C6.54537 9.39397 6.63639 9.33536 6.73662 9.29777L8.91762 8.47977C9.30545 8.33431 9.73777 8.53079 9.88323 8.91862Z" fill="#212529"/>
<path fill-rule="evenodd" clip-rule="evenodd" d="M9.53033 14.4697C9.82322 14.7626 9.82322 15.2374 9.53033 15.5303L5.03033 20.0303C4.73744 20.3232 4.26256 20.3232 3.96967 20.0303C3.67678 19.7374 3.67678 19.2626 3.96967 18.9697L8.46967 14.4697C8.76256 14.1768 9.23744 14.1768 9.53033 14.4697Z" fill="#212529"/>
<path fill-rule="evenodd" clip-rule="evenodd" d="M13.9697 3.46967C14.2626 3.17678 14.7374 3.17678 15.0303 3.46967L20.5303 8.96967C20.8232 9.26256 20.8232 9.73744 20.5303 10.0303C20.2374 10.3232 19.7626 10.3232 19.4697 10.0303L13.9697 4.53033C13.6768 4.23744 13.6768 3.76256 13.9697 3.46967Z" fill="#212529"/>
</svg>
