<svg width="24" height="24" viewBox="0 0 24 24" fill="none" xmlns="http://www.w3.org/2000/svg">
<path fill-rule="evenodd" clip-rule="evenodd" d="M6.25 15C6.25 14.5858 6.58579 14.25 7 14.25H17C17.4142 14.25 17.75 14.5858 17.75 15V19C17.75 20.5188 16.5188 21.75 15 21.75H9C7.48122 21.75 6.25 20.5188 6.25 19V15ZM7.75 15.75V19C7.75 19.6904 8.30964 20.25 9 20.25H15C15.6904 20.25 16.25 19.6904 16.25 19V15.75H7.75Z" fill="#212529"/>
<path fill-rule="evenodd" clip-rule="evenodd" d="M2.25 3C2.25 2.58579 2.58579 2.25 3 2.25H6C9.72792 2.25 12.75 5.27208 12.75 9C12.75 9.41421 12.4142 9.75 12 9.75C11.5858 9.75 11.25 9.41421 11.25 9C11.25 6.10051 8.8995 3.75 6 3.75H3.75V5C3.75 7.8995 6.10051 10.25 9 10.25H12C12.4142 10.25 12.75 10.5858 12.75 11C12.75 11.4142 12.4142 11.75 12 11.75H9C5.27208 11.75 2.25 8.72792 2.25 5V3Z" fill="#212529"/>
<path fill-rule="evenodd" clip-rule="evenodd" d="M18 5.75C15.1005 5.75 12.75 8.10051 12.75 11C12.75 11.0877 12.735 11.1718 12.7073 11.25H15C17.8995 11.25 20.25 8.8995 20.25 6V5.75H18ZM11.441 11.5C11.3222 11.6327 11.25 11.8079 11.25 12C11.25 12.4142 11.5858 12.75 12 12.75H15C18.7279 12.75 21.75 9.72792 21.75 6V5C21.75 4.58579 21.4142 4.25 21 4.25H18C14.2721 4.25 11.25 7.27208 11.25 11C11.25 11.1921 11.3222 11.3673 11.441 11.5Z" fill="#212529"/>
<path fill-rule="evenodd" clip-rule="evenodd" d="M12 8.25C12.4142 8.25 12.75 8.58579 12.75 9V15C12.75 15.4142 12.4142 15.75 12 15.75C11.5858 15.75 11.25 15.4142 11.25 15V9C11.25 8.58579 11.5858 8.25 12 8.25Z" fill="#212529"/>
</svg>
