<svg width="24" height="24" viewBox="0 0 24 24" fill="none" xmlns="http://www.w3.org/2000/svg">
<path fill-rule="evenodd" clip-rule="evenodd" d="M3.25 5C3.25 4.0335 4.0335 3.25 5 3.25H9C9.9665 3.25 10.75 4.0335 10.75 5V9C10.75 9.9665 9.9665 10.75 9 10.75H5C4.0335 10.75 3.25 9.9665 3.25 9V5ZM5 4.75C4.86193 4.75 4.75 4.86193 4.75 5V9C4.75 9.13807 4.86193 9.25 5 9.25H9C9.13807 9.25 9.25 9.13807 9.25 9V5C9.25 4.86193 9.13807 4.75 9 4.75H5Z" fill="#212529"/>
<path fill-rule="evenodd" clip-rule="evenodd" d="M7 16.25C7.41421 16.25 7.75 16.5858 7.75 17V17.01C7.75 17.4242 7.41421 17.76 7 17.76C6.58579 17.76 6.25 17.4242 6.25 17.01V17C6.25 16.5858 6.58579 16.25 7 16.25Z" fill="#212529"/>
<path fill-rule="evenodd" clip-rule="evenodd" d="M13.25 5C13.25 4.0335 14.0335 3.25 15 3.25H19C19.9665 3.25 20.75 4.0335 20.75 5V9C20.75 9.9665 19.9665 10.75 19 10.75H15C14.0335 10.75 13.25 9.9665 13.25 9V5ZM15 4.75C14.8619 4.75 14.75 4.86193 14.75 5V9C14.75 9.13807 14.8619 9.25 15 9.25H19C19.1381 9.25 19.25 9.13807 19.25 9V5C19.25 4.86193 19.1381 4.75 19 4.75H15Z" fill="#212529"/>
<path fill-rule="evenodd" clip-rule="evenodd" d="M7 6.25C7.41421 6.25 7.75 6.58579 7.75 7V7.01C7.75 7.42421 7.41421 7.76 7 7.76C6.58579 7.76 6.25 7.42421 6.25 7.01V7C6.25 6.58579 6.58579 6.25 7 6.25Z" fill="#212529"/>
<path fill-rule="evenodd" clip-rule="evenodd" d="M3.25 15C3.25 14.0335 4.0335 13.25 5 13.25H9C9.9665 13.25 10.75 14.0335 10.75 15V19C10.75 19.9665 9.9665 20.75 9 20.75H5C4.0335 20.75 3.25 19.9665 3.25 19V15ZM5 14.75C4.86193 14.75 4.75 14.8619 4.75 15V19C4.75 19.1381 4.86193 19.25 5 19.25H9C9.13807 19.25 9.25 19.1381 9.25 19V15C9.25 14.8619 9.13807 14.75 9 14.75H5Z" fill="#212529"/>
<path fill-rule="evenodd" clip-rule="evenodd" d="M17 6.25C17.4142 6.25 17.75 6.58579 17.75 7V7.01C17.75 7.42421 17.4142 7.76 17 7.76C16.5858 7.76 16.25 7.42421 16.25 7.01V7C16.25 6.58579 16.5858 6.25 17 6.25Z" fill="#212529"/>
<path fill-rule="evenodd" clip-rule="evenodd" d="M13.25 14C13.25 13.5858 13.5858 13.25 14 13.25H17C17.4142 13.25 17.75 13.5858 17.75 14C17.75 14.4142 17.4142 14.75 17 14.75H14C13.5858 14.75 13.25 14.4142 13.25 14Z" fill="#212529"/>
<path fill-rule="evenodd" clip-rule="evenodd" d="M20 13.25C20.4142 13.25 20.75 13.5858 20.75 14V14.01C20.75 14.4242 20.4142 14.76 20 14.76C19.5858 14.76 19.25 14.4242 19.25 14.01V14C19.25 13.5858 19.5858 13.25 20 13.25Z" fill="#212529"/>
<path fill-rule="evenodd" clip-rule="evenodd" d="M14 13.25C14.4142 13.25 14.75 13.5858 14.75 14V17C14.75 17.4142 14.4142 17.75 14 17.75C13.5858 17.75 13.25 17.4142 13.25 17V14C13.25 13.5858 13.5858 13.25 14 13.25Z" fill="#212529"/>
<path fill-rule="evenodd" clip-rule="evenodd" d="M13.25 20C13.25 19.5858 13.5858 19.25 14 19.25H17C17.4142 19.25 17.75 19.5858 17.75 20C17.75 20.4142 17.4142 20.75 17 20.75H14C13.5858 20.75 13.25 20.4142 13.25 20Z" fill="#212529"/>
<path fill-rule="evenodd" clip-rule="evenodd" d="M16.25 17C16.25 16.5858 16.5858 16.25 17 16.25H20C20.4142 16.25 20.75 16.5858 20.75 17C20.75 17.4142 20.4142 17.75 20 17.75H17C16.5858 17.75 16.25 17.4142 16.25 17Z" fill="#212529"/>
<path fill-rule="evenodd" clip-rule="evenodd" d="M20 16.25C20.4142 16.25 20.75 16.5858 20.75 17V20C20.75 20.4142 20.4142 20.75 20 20.75C19.5858 20.75 19.25 20.4142 19.25 20V17C19.25 16.5858 19.5858 16.25 20 16.25Z" fill="#212529"/>
</svg>
