<svg width="24" height="24" viewBox="0 0 24 24" fill="none" xmlns="http://www.w3.org/2000/svg">
<path fill-rule="evenodd" clip-rule="evenodd" d="M3.25 7C3.25 5.48122 4.48122 4.25 6 4.25H8C8.41421 4.25 8.75 4.58579 8.75 5C8.75 5.41421 8.41421 5.75 8 5.75H6C5.30964 5.75 4.75 6.30964 4.75 7V19C4.75 19.6904 5.30964 20.25 6 20.25H11.697C12.1112 20.25 12.447 20.5858 12.447 21C12.447 21.4142 12.1112 21.75 11.697 21.75H6C4.48122 21.75 3.25 20.5188 3.25 19V7Z" fill="#212529"/>
<path fill-rule="evenodd" clip-rule="evenodd" d="M18 13.25C18.4142 13.25 18.75 13.5858 18.75 14V17.25H22C22.4142 17.25 22.75 17.5858 22.75 18C22.75 18.4142 22.4142 18.75 22 18.75H18C17.5858 18.75 17.25 18.4142 17.25 18V14C17.25 13.5858 17.5858 13.25 18 13.25Z" fill="#212529"/>
<path fill-rule="evenodd" clip-rule="evenodd" d="M13.25 5C13.25 4.58579 13.5858 4.25 14 4.25H16C17.5188 4.25 18.75 5.48122 18.75 7V11C18.75 11.4142 18.4142 11.75 18 11.75C17.5858 11.75 17.25 11.4142 17.25 11V7C17.25 6.30964 16.6904 5.75 16 5.75H14C13.5858 5.75 13.25 5.41421 13.25 5Z" fill="#212529"/>
<path fill-rule="evenodd" clip-rule="evenodd" d="M7.25 5C7.25 3.48122 8.48122 2.25 10 2.25H12C13.5188 2.25 14.75 3.48122 14.75 5C14.75 6.51878 13.5188 7.75 12 7.75H10C8.48122 7.75 7.25 6.51878 7.25 5ZM10 3.75C9.30964 3.75 8.75 4.30964 8.75 5C8.75 5.69036 9.30964 6.25 10 6.25H12C12.6904 6.25 13.25 5.69036 13.25 5C13.25 4.30964 12.6904 3.75 12 3.75H10Z" fill="#212529"/>
<path fill-rule="evenodd" clip-rule="evenodd" d="M18 14.75C16.2051 14.75 14.75 16.2051 14.75 18C14.75 19.7949 16.2051 21.25 18 21.25C19.7949 21.25 21.25 19.7949 21.25 18C21.25 16.2051 19.7949 14.75 18 14.75ZM13.25 18C13.25 15.3766 15.3766 13.25 18 13.25C20.6234 13.25 22.75 15.3766 22.75 18C22.75 20.6234 20.6234 22.75 18 22.75C15.3766 22.75 13.25 20.6234 13.25 18Z" fill="#212529"/>
<path fill-rule="evenodd" clip-rule="evenodd" d="M7.25 11C7.25 10.5858 7.58579 10.25 8 10.25H12C12.4142 10.25 12.75 10.5858 12.75 11C12.75 11.4142 12.4142 11.75 12 11.75H8C7.58579 11.75 7.25 11.4142 7.25 11Z" fill="#212529"/>
<path fill-rule="evenodd" clip-rule="evenodd" d="M7.25 15C7.25 14.5858 7.58579 14.25 8 14.25H11C11.4142 14.25 11.75 14.5858 11.75 15C11.75 15.4142 11.4142 15.75 11 15.75H8C7.58579 15.75 7.25 15.4142 7.25 15Z" fill="#212529"/>
</svg>
