<svg width="24" height="24" viewBox="0 0 24 24" fill="none" xmlns="http://www.w3.org/2000/svg">
<path fill-rule="evenodd" clip-rule="evenodd" d="M11.9999 1.25C12.4141 1.25 12.7499 1.58579 12.7499 2V3.78647L13.6645 3.32918C14.035 3.14394 14.4855 3.29411 14.6707 3.66459C14.856 4.03507 14.7058 4.48558 14.3353 4.67082L12.7499 5.46353V8.06548L15.373 9.56935C15.7323 9.77538 15.8566 10.2337 15.6506 10.593C15.4445 10.9524 14.9862 11.0767 14.6269 10.8706L11.6269 9.15065C11.3937 9.01697 11.2499 8.76876 11.2499 8.5V5.46353L9.66451 4.67082C9.29403 4.48558 9.14386 4.03507 9.3291 3.66459C9.51434 3.29411 9.96485 3.14394 10.3353 3.32918L11.2499 3.78647V2C11.2499 1.58579 11.5857 1.25 11.9999 1.25Z" fill="#212529"/>
<path fill-rule="evenodd" clip-rule="evenodd" d="M21.3096 6.62495C21.5167 6.98367 21.3938 7.44236 21.0351 7.64947L19.488 8.54267L20.3414 9.10611C20.6871 9.33434 20.7823 9.79957 20.5541 10.1452C20.3258 10.4909 19.8606 10.5861 19.5149 10.3579L18.0357 9.38119L15.7822 10.6822L15.7914 13.7058C15.7926 14.12 15.4579 14.4568 15.0436 14.458C14.6294 14.4593 14.2926 14.1245 14.2914 13.7103L14.2809 10.2522C14.2801 9.98345 14.4232 9.73481 14.6559 9.60043L17.2857 8.08213L17.1795 6.31283C17.1547 5.89936 17.4698 5.54406 17.8832 5.51924C18.2967 5.49443 18.652 5.80949 18.6768 6.22296L18.7381 7.2436L20.2851 6.35043C20.6438 6.14332 21.1025 6.26623 21.3096 6.62495Z" fill="#212529"/>
<path fill-rule="evenodd" clip-rule="evenodd" d="M21.3097 17.375C21.1026 17.7338 20.6439 17.8567 20.2852 17.6496L18.7382 16.7564L18.6769 17.777C18.6521 18.1905 18.2968 18.5056 17.8833 18.4808C17.4698 18.4559 17.1548 18.1006 17.1796 17.6872L17.2858 15.9179L15.0323 14.6168L12.4184 16.1365C12.0603 16.3447 11.6013 16.2232 11.3931 15.8651C11.1849 15.507 11.3064 15.0479 11.6645 14.8397L14.6541 13.1017C14.8864 12.9666 15.1733 12.9662 15.406 13.1005L18.0357 14.6188L19.515 13.6421C19.8607 13.4139 20.3259 13.5091 20.5541 13.8548C20.7824 14.2004 20.6872 14.6657 20.3415 14.8939L19.4881 15.4573L21.0352 16.3505C21.3939 16.5576 21.5168 17.0163 21.3097 17.375Z" fill="#212529"/>
<path fill-rule="evenodd" clip-rule="evenodd" d="M12.0001 22.75C11.5859 22.75 11.2501 22.4142 11.2501 22V20.2135L10.3355 20.6708C9.96501 20.8561 9.5145 20.7059 9.32926 20.3354C9.14402 19.9649 9.29419 19.5144 9.66467 19.3292L11.2501 18.5365V15.9345L8.62704 14.4306C8.2677 14.2246 8.14341 13.7663 8.34943 13.407C8.55546 13.0476 9.01377 12.9233 9.37312 13.1294L12.3731 14.8494C12.6063 14.983 12.7501 15.2312 12.7501 15.5V18.5365L14.3355 19.3292C14.706 19.5144 14.8561 19.9649 14.6709 20.3354C14.4857 20.7059 14.0352 20.8561 13.6647 20.6708L12.7501 20.2135V22C12.7501 22.4142 12.4143 22.75 12.0001 22.75Z" fill="#212529"/>
<path fill-rule="evenodd" clip-rule="evenodd" d="M2.69013 17.3751C2.48303 17.0163 2.60593 16.5576 2.96465 16.3505L4.51172 15.4573L3.65834 14.8939C3.31268 14.6657 3.21747 14.2004 3.4457 13.8548C3.67393 13.5091 4.13916 13.4139 4.48483 13.6421L5.96409 14.6188L8.21751 13.3178L8.20838 10.2942C8.20713 9.88003 8.54191 9.54323 8.95612 9.54198C9.37033 9.54073 9.70713 9.8755 9.70838 10.2897L9.71881 13.7478C9.71962 14.0165 9.57657 14.2652 9.34382 14.3996L6.71404 15.9179L6.82024 17.6872C6.84506 18.1006 6.52999 18.4559 6.11652 18.4808C5.70305 18.5056 5.34775 18.1905 5.32293 17.777L5.26167 16.7564L3.71465 17.6496C3.35593 17.8567 2.89724 17.7338 2.69013 17.3751Z" fill="#212529"/>
<path fill-rule="evenodd" clip-rule="evenodd" d="M2.6903 6.62495C2.8974 6.26623 3.3561 6.14333 3.71482 6.35043L5.26184 7.2436L5.3231 6.22296C5.34791 5.80949 5.70322 5.49443 6.11669 5.51925C6.53016 5.54407 6.84522 5.89937 6.8204 6.31284L6.7142 8.08213L8.96767 9.38317L11.5816 7.86349C11.9397 7.6553 12.3987 7.77682 12.6069 8.13492C12.8151 8.49301 12.6936 8.95207 12.3355 9.16026L9.34594 10.8983C9.11359 11.0334 8.82673 11.0338 8.59398 10.8995L5.96425 9.3812L4.48499 10.3579C4.13933 10.5861 3.67409 10.4909 3.44587 10.1452C3.21764 9.79958 3.31284 9.33435 3.65851 9.10612L4.51189 8.54267L2.96482 7.64947C2.6061 7.44236 2.48319 6.98367 2.6903 6.62495Z" fill="#212529"/>
</svg>
