<svg width="24" height="24" viewBox="0 0 24 24" fill="none" xmlns="http://www.w3.org/2000/svg">
<path fill-rule="evenodd" clip-rule="evenodd" d="M14.4 7.54992C14.6486 7.21855 15.1187 7.15139 15.45 7.39992C16.8979 8.48583 17.75 10.1901 17.75 11.9999C17.75 13.8098 16.8979 15.514 15.45 16.5999C15.1187 16.8484 14.6486 16.7813 14.4 16.4499C14.1515 16.1186 14.2187 15.6485 14.55 15.3999C15.6202 14.5973 16.25 13.3376 16.25 11.9999C16.25 10.6622 15.6202 9.40255 14.55 8.59992C14.2187 8.35139 14.1515 7.88129 14.4 7.54992Z" fill="#212529"/>
<path fill-rule="evenodd" clip-rule="evenodd" d="M17.1166 4.5285C17.377 4.20633 17.8492 4.15622 18.1714 4.41657C20.462 6.26764 21.7931 9.05487 21.7931 11.9999C21.7931 14.9449 20.462 17.7322 18.1714 19.5832C17.8492 19.8436 17.377 19.7935 17.1166 19.4713C16.8563 19.1491 16.9064 18.6769 17.2286 18.4166C19.1668 16.8503 20.2931 14.4919 20.2931 11.9999C20.2931 9.50795 19.1668 7.14953 17.2286 5.58324C16.9064 5.32289 16.8563 4.85066 17.1166 4.5285Z" fill="#212529"/>
<path fill-rule="evenodd" clip-rule="evenodd" d="M10.2271 4.81871C10.2037 4.81091 10.1781 4.82133 10.1668 4.84326C10.1456 4.88454 10.1205 4.92376 10.092 4.96041L6.59201 9.46041C6.44992 9.6431 6.23144 9.74996 6 9.74996H4C3.86193 9.74996 3.75 9.86188 3.75 9.99996V14C3.75 14.138 3.86193 14.25 4 14.25H6C6.01149 14.25 6.02292 14.2502 6.03428 14.2507C6.13988 14.2555 6.23979 14.2821 6.32961 14.3261C6.41948 14.37 6.50179 14.4325 6.57036 14.5129C6.57945 14.5235 6.58825 14.5344 6.59674 14.5456L10.092 19.0395C10.1205 19.0762 10.1456 19.1154 10.1668 19.1567C10.1781 19.1786 10.2037 19.189 10.2271 19.1812C10.2505 19.1734 10.2647 19.1497 10.2606 19.1254C10.2535 19.084 10.25 19.042 10.25 19V4.99995C10.25 4.95792 10.2535 4.91595 10.2606 4.87451C10.2647 4.8502 10.2505 4.82651 10.2271 4.81871ZM5.63319 15.75H4C3.0335 15.75 2.25 14.9665 2.25 14V9.99996C2.25 9.03346 3.0335 8.24996 4 8.24996H5.63319L8.87208 4.08566C9.23929 3.4548 10.002 3.16253 10.7014 3.39569C11.4033 3.62966 11.8387 4.32511 11.75 5.05289V18.947C11.8387 19.6748 11.4033 20.3703 10.7014 20.6042C10.002 20.8374 9.23929 20.5451 8.87209 19.9143L5.63319 15.75Z" fill="#212529"/>
</svg>
