<svg width="134" height="53" viewBox="0 0 134 53" fill="none" xmlns="http://www.w3.org/2000/svg">
<path d="M0 7.72126V5.34647H22.7365L23.0443 12.9106H19.3942L18.5146 7.80922H10.8625C10.8332 9.48037 10.8038 11.1662 10.7745 12.8667C10.7745 14.5671 10.7745 16.2823 10.7745 18.012H15.6561L16.1838 14.5818H18.7345V24.4768H16.1838L15.6121 20.6067H10.7745C10.7745 22.5711 10.7745 24.4474 10.7745 26.2359C10.8038 27.995 10.8332 29.7394 10.8625 31.4692L14.7765 31.865V34.2398H0V31.865L3.29833 31.5132C3.35696 29.7248 3.38628 27.9217 3.38628 26.1039C3.38628 24.2862 3.38628 22.4538 3.38628 20.6067V18.9796C3.38628 17.1618 3.38628 15.3441 3.38628 13.5263C3.38628 11.6793 3.35696 9.86151 3.29833 8.07309L0 7.72126Z" fill="white"/>
<path d="M22.4241 34.2398V32.1729L24.8429 31.6891C24.8722 30.6043 24.8869 29.4462 24.8869 28.2149C24.8869 26.9835 24.8869 25.9134 24.8869 25.0045V22.4098C24.8869 21.5889 24.8722 20.9146 24.8429 20.3868C24.8429 19.8591 24.8283 19.3754 24.7989 18.9356C24.7989 18.4665 24.7843 17.9387 24.755 17.3524L22.0723 16.9566V15.2414L30.7359 12.2949L31.5275 12.7787L31.9233 17.9681C32.539 16.0917 33.4039 14.6844 34.518 13.7462C35.6321 12.7787 36.7315 12.2949 37.8163 12.2949C38.7838 12.2949 39.6194 12.5735 40.3231 13.1305C41.0267 13.6583 41.4665 14.4645 41.6424 15.5493C41.6131 16.6927 41.3052 17.5869 40.7189 18.2319C40.1325 18.8476 39.3995 19.1555 38.52 19.1555C37.2886 19.1555 36.1598 18.4665 35.1337 17.0885L34.8698 16.7367C34.2248 17.3524 33.6238 18.1293 33.0667 19.0675C32.539 20.0057 32.1579 20.9879 31.9233 22.014V25.0045C31.9233 25.9134 31.9233 26.9542 31.9233 28.1269C31.9233 29.2996 31.938 30.3991 31.9673 31.4252L35.4415 32.1729V34.2398H22.4241Z" fill="white"/>
<path d="M51.7679 14.5818C50.947 14.5818 50.1847 15.0949 49.4811 16.121C48.8067 17.1178 48.4256 18.9649 48.3376 21.6622H52.0757C53.1312 21.6622 53.8349 21.457 54.1867 21.0465C54.5678 20.6067 54.7584 19.8884 54.7584 18.8916C54.7584 17.4257 54.4652 16.3409 53.8788 15.6372C53.2925 14.9336 52.5888 14.5818 51.7679 14.5818ZM51.8559 34.8995C49.7156 34.8995 47.8246 34.4597 46.1827 33.5801C44.5409 32.6713 43.2509 31.3813 42.3127 29.7101C41.3745 28.0096 40.9054 25.9867 40.9054 23.6412C40.9054 21.1784 41.4478 19.1115 42.5326 17.4403C43.6467 15.7399 45.0686 14.4645 46.7984 13.6143C48.5282 12.7347 50.3313 12.2949 52.2077 12.2949C54.1427 12.2949 55.7845 12.7054 57.1332 13.5263C58.5111 14.3472 59.552 15.4613 60.2556 16.8686C60.9592 18.2466 61.3111 19.8298 61.3111 21.6182C61.3111 22.4684 61.2231 23.2454 61.0472 23.949H48.3376C48.4842 26.2652 49.1146 27.9803 50.2287 29.0944C51.3721 30.1792 52.7061 30.7216 54.2307 30.7216C55.4327 30.7216 56.4589 30.5017 57.3091 30.0619C58.1593 29.5928 58.9069 29.0211 59.552 28.3468L61.0912 29.7541C60.1823 31.4839 58.9509 32.7739 57.397 33.6241C55.8432 34.4744 53.9961 34.8995 51.8559 34.8995Z" fill="white"/>
<path d="M78.0439 34.7236L77.78 31.0294C76.8418 32.2608 75.7717 33.2137 74.5696 33.888C73.3676 34.5623 72.0629 34.8995 70.6556 34.8995C68.7792 34.8995 67.2693 34.3131 66.1259 33.1404C64.9825 31.9383 64.4255 29.886 64.4548 26.9835L64.6307 16.2529L62.08 15.6812V13.8342L71.0514 12.5588L71.7551 13.0426L71.5352 19.2434V27.0275C71.5352 28.3761 71.7404 29.3143 72.1509 29.842C72.5906 30.3698 73.177 30.6336 73.91 30.6336C74.5257 30.6336 75.156 30.4431 75.801 30.0619C76.4753 29.6808 77.1057 29.2117 77.6921 28.6546L77.868 16.209L75.4492 15.6812V13.9661L84.2008 12.5588L84.9044 13.0426L84.7725 19.2434V31.7331L87.0593 32.2168V34.2838L78.0439 34.7236Z" fill="white"/>
<path d="M95.2168 23.7291C95.2168 26.1333 95.6419 27.9657 96.4922 29.2264C97.3424 30.4577 98.4418 31.0734 99.7905 31.0734C100.787 31.0734 101.696 30.7363 102.517 30.0619V16.9566C101.726 16.3409 100.861 16.033 99.9224 16.033C98.5738 16.033 97.445 16.6634 96.5361 17.9241C95.6566 19.1848 95.2168 21.1198 95.2168 23.7291ZM103.089 34.7236L102.737 32.2168C101.037 34.0053 98.9696 34.8995 96.5361 34.8995C94.8943 34.8995 93.3991 34.4744 92.0504 33.6241C90.7311 32.7739 89.6903 31.5278 88.928 29.886C88.1657 28.2149 87.7846 26.1919 87.7846 23.8171C87.7846 21.413 88.239 19.3607 89.1479 17.6602C90.0861 15.9304 91.2881 14.6111 92.7541 13.7022C94.2493 12.764 95.8178 12.2949 97.4597 12.2949C98.6031 12.2949 99.5999 12.5002 100.45 12.9106C101.3 13.2918 102.077 13.8635 102.781 14.6258V6.57785L99.7025 6.13807V4.29101L108.982 2.31201L109.685 2.75179L109.51 8.90866V31.7331L111.664 32.1729V34.2398L103.089 34.7236Z" fill="white"/>
<circle cx="123.32" cy="10.6803" r="10.6803" fill="#E1D6F6"/>
<path d="M117.429 14.4499V7.40505H119.418C120.138 7.40505 120.761 7.52751 121.287 7.77242C121.813 8.01733 122.22 8.39911 122.508 8.91775C122.803 9.42918 122.951 10.0883 122.951 10.8951C122.951 11.7018 122.807 12.3681 122.519 12.894C122.23 13.4198 121.827 13.8124 121.308 14.0717C120.797 14.3238 120.196 14.4499 119.504 14.4499H117.429ZM119.018 13.1641H119.32C119.724 13.1641 120.073 13.0921 120.368 12.948C120.671 12.8039 120.905 12.5662 121.071 12.2349C121.236 11.9035 121.319 11.4569 121.319 10.8951C121.319 10.3332 121.236 9.89379 121.071 9.57685C120.905 9.2527 120.671 9.0258 120.368 8.89614C120.073 8.75927 119.724 8.69084 119.32 8.69084H119.018V13.1641Z" fill="#6732D1"/>
<path d="M126.438 14.5795C125.977 14.5795 125.516 14.4931 125.055 14.3202C124.601 14.1473 124.194 13.8952 123.834 13.5639L124.742 12.4726C124.994 12.6887 125.275 12.8652 125.585 13.002C125.894 13.1389 126.193 13.2073 126.481 13.2073C126.813 13.2073 127.058 13.1461 127.216 13.0236C127.382 12.9012 127.465 12.7355 127.465 12.5266C127.465 12.3033 127.371 12.1412 127.184 12.0404C127.004 11.9323 126.759 11.8135 126.449 11.6838L125.531 11.2948C125.293 11.194 125.066 11.0607 124.85 10.8951C124.634 10.7222 124.457 10.5097 124.32 10.2576C124.184 10.0054 124.115 9.71011 124.115 9.37155C124.115 8.98258 124.22 8.62961 124.429 8.31267C124.645 7.99572 124.94 7.74361 125.315 7.55632C125.696 7.36903 126.132 7.27539 126.622 7.27539C127.025 7.27539 127.429 7.35463 127.832 7.5131C128.235 7.67157 128.588 7.90208 128.891 8.20462L128.081 9.20948C127.85 9.0294 127.62 8.89253 127.389 8.79889C127.159 8.69804 126.903 8.64762 126.622 8.64762C126.348 8.64762 126.129 8.70525 125.963 8.8205C125.804 8.92855 125.725 9.08342 125.725 9.28511C125.725 9.50121 125.826 9.66329 126.028 9.77134C126.237 9.87939 126.492 9.99464 126.795 10.1171L127.702 10.4845C128.127 10.6573 128.466 10.8951 128.718 11.1976C128.97 11.5001 129.096 11.8999 129.096 12.3969C129.096 12.7859 128.992 13.1461 128.783 13.4774C128.574 13.8088 128.271 14.0753 127.875 14.277C127.479 14.4787 127 14.5795 126.438 14.5795Z" fill="#6732D1"/>
<path d="M0.864014 50V43.7024H2.43841C3.41121 43.7024 4.15041 43.9744 4.65601 44.5184C5.16161 45.056 5.41441 45.824 5.41441 46.8224C5.41441 47.8272 5.16161 48.608 4.65601 49.1648C4.15681 49.7216 3.43041 50 2.47681 50H0.864014ZM1.66081 49.3472H2.38081C3.11681 49.3472 3.66721 49.1264 4.03201 48.6848C4.40321 48.2368 4.58881 47.616 4.58881 46.8224C4.58881 46.0288 4.40321 45.4208 4.03201 44.9984C3.66721 44.5696 3.11681 44.3552 2.38081 44.3552H1.66081V49.3472Z" fill="#E1D6F6"/>
<path d="M9.54466 50.1152C9.12866 50.1152 8.75106 50.0192 8.41186 49.8272C8.07266 49.6288 7.80386 49.3472 7.60546 48.9824C7.40706 48.6176 7.30786 48.1824 7.30786 47.6768C7.30786 47.1648 7.40706 46.7264 7.60546 46.3616C7.81026 45.9968 8.07266 45.7152 8.39266 45.5168C8.71266 45.3184 9.04866 45.2192 9.40066 45.2192C9.99586 45.2192 10.4535 45.4176 10.7735 45.8144C11.0999 46.2112 11.2631 46.7424 11.2631 47.408C11.2631 47.4912 11.2599 47.5744 11.2535 47.6576C11.2535 47.7344 11.2471 47.8016 11.2343 47.8592H8.08546C8.11746 48.352 8.27106 48.7456 8.54626 49.04C8.82786 49.3344 9.19266 49.4816 9.64066 49.4816C9.86466 49.4816 10.0695 49.4496 10.2551 49.3856C10.4471 49.3152 10.6295 49.2256 10.8023 49.1168L11.0807 49.6352C10.8823 49.7632 10.6551 49.8752 10.3991 49.9712C10.1495 50.0672 9.86466 50.1152 9.54466 50.1152ZM8.07586 47.2928H10.5719C10.5719 46.8192 10.4695 46.4608 10.2647 46.2176C10.0663 45.968 9.78466 45.8432 9.41986 45.8432C9.09346 45.8432 8.79906 45.9712 8.53666 46.2272C8.28066 46.4768 8.12706 46.832 8.07586 47.2928Z" fill="#E1D6F6"/>
<path d="M14.5952 50.1152C14.2624 50.1152 13.9456 50.0544 13.6448 49.9328C13.344 49.8048 13.0816 49.6512 12.8576 49.472L13.2512 48.944C13.456 49.104 13.6672 49.2384 13.8848 49.3472C14.1024 49.4496 14.3488 49.5008 14.624 49.5008C14.9312 49.5008 15.1616 49.4304 15.3152 49.2896C15.4688 49.1424 15.5456 48.9696 15.5456 48.7712C15.5456 48.6112 15.4912 48.4768 15.3824 48.368C15.28 48.2592 15.1456 48.1696 14.9792 48.0992C14.8192 48.0224 14.6528 47.952 14.48 47.888C14.2624 47.8048 14.048 47.712 13.8368 47.6096C13.6256 47.5008 13.4528 47.3632 13.3184 47.1968C13.184 47.024 13.1168 46.8064 13.1168 46.544C13.1168 46.1664 13.2576 45.8528 13.5392 45.6032C13.8272 45.3472 14.224 45.2192 14.7296 45.2192C15.0176 45.2192 15.2864 45.2704 15.536 45.3728C15.7856 45.4752 16 45.6 16.1792 45.7472L15.7952 46.2464C15.6352 46.1248 15.4688 46.0256 15.296 45.9488C15.1232 45.872 14.9344 45.8336 14.7296 45.8336C14.4352 45.8336 14.2176 45.9008 14.0768 46.0352C13.9424 46.1696 13.8752 46.3264 13.8752 46.5056C13.8752 46.6528 13.9232 46.7744 14.0192 46.8704C14.1152 46.96 14.24 47.04 14.3936 47.1104C14.5472 47.1744 14.7104 47.2416 14.8832 47.312C15.1072 47.3952 15.328 47.4912 15.5456 47.6C15.7632 47.7024 15.9424 47.8432 16.0832 48.0224C16.2304 48.1952 16.304 48.4288 16.304 48.7232C16.304 48.9728 16.2368 49.2032 16.1024 49.4144C15.9744 49.6256 15.7824 49.7952 15.5264 49.9232C15.2768 50.0512 14.9664 50.1152 14.5952 50.1152Z" fill="#E1D6F6"/>
<path d="M18.3578 50V45.3344H19.145V50H18.3578ZM18.761 44.3744C18.6074 44.3744 18.4794 44.3296 18.377 44.24C18.281 44.144 18.233 44.016 18.233 43.856C18.233 43.7024 18.281 43.5776 18.377 43.4816C18.4794 43.3856 18.6074 43.3376 18.761 43.3376C18.9146 43.3376 19.0394 43.3856 19.1354 43.4816C19.2378 43.5776 19.289 43.7024 19.289 43.856C19.289 44.016 19.2378 44.144 19.1354 44.24C19.0394 44.3296 18.9146 44.3744 18.761 44.3744Z" fill="#E1D6F6"/>
<path d="M23.2547 52.1504C22.6851 52.1504 22.2211 52.0416 21.8627 51.824C21.5043 51.6064 21.3251 51.296 21.3251 50.8928C21.3251 50.6944 21.3859 50.5024 21.5075 50.3168C21.6291 50.1376 21.7955 49.9776 22.0067 49.8368V49.7984C21.8915 49.728 21.7923 49.6288 21.7091 49.5008C21.6323 49.3728 21.5939 49.2192 21.5939 49.04C21.5939 48.8416 21.6483 48.6688 21.7571 48.5216C21.8659 48.3744 21.9811 48.2592 22.1027 48.176V48.1376C21.9491 48.0096 21.8083 47.8368 21.6803 47.6192C21.5587 47.4016 21.4979 47.1552 21.4979 46.88C21.4979 46.5408 21.5779 46.2464 21.7379 45.9968C21.8979 45.7472 22.1123 45.5552 22.3811 45.4208C22.6499 45.2864 22.9411 45.2192 23.2547 45.2192C23.3827 45.2192 23.5043 45.232 23.6195 45.2576C23.7347 45.2768 23.8339 45.3024 23.9171 45.3344H25.5395V45.9392H24.5795C24.6883 46.0416 24.7779 46.1792 24.8483 46.352C24.9251 46.5184 24.9635 46.7008 24.9635 46.8992C24.9635 47.232 24.8867 47.52 24.7331 47.7632C24.5795 48.0064 24.3747 48.1952 24.1187 48.3296C23.8627 48.4576 23.5747 48.5216 23.2547 48.5216C23.0051 48.5216 22.7715 48.4672 22.5539 48.3584C22.4707 48.4288 22.4003 48.5088 22.3427 48.5984C22.2851 48.6816 22.2563 48.7872 22.2563 48.9152C22.2563 49.0624 22.3139 49.184 22.4291 49.28C22.5507 49.376 22.7683 49.424 23.0819 49.424H23.9843C24.5283 49.424 24.9347 49.5136 25.2035 49.6928C25.4787 49.8656 25.6163 50.1472 25.6163 50.5376C25.6163 50.8256 25.5203 51.0912 25.3283 51.3344C25.1363 51.5776 24.8643 51.7728 24.5123 51.92C24.1603 52.0736 23.7411 52.1504 23.2547 52.1504ZM23.2547 47.9936C23.5235 47.9936 23.7539 47.8944 23.9459 47.696C24.1443 47.4912 24.2435 47.2192 24.2435 46.88C24.2435 46.5408 24.1475 46.2752 23.9555 46.0832C23.7635 45.8912 23.5299 45.7952 23.2547 45.7952C22.9795 45.7952 22.7459 45.8912 22.5539 46.0832C22.3619 46.2752 22.2659 46.5408 22.2659 46.88C22.2659 47.2192 22.3619 47.4912 22.5539 47.696C22.7523 47.8944 22.9859 47.9936 23.2547 47.9936ZM23.3699 51.6032C23.8179 51.6032 24.1763 51.504 24.4451 51.3056C24.7139 51.1136 24.8483 50.896 24.8483 50.6528C24.8483 50.4352 24.7651 50.2848 24.5987 50.2016C24.4387 50.1184 24.2083 50.0768 23.9075 50.0768H23.1011C23.0115 50.0768 22.9123 50.0704 22.8035 50.0576C22.7011 50.0448 22.5987 50.0256 22.4963 50C22.3299 50.1216 22.2083 50.2496 22.1315 50.384C22.0547 50.5184 22.0163 50.6528 22.0163 50.7872C22.0163 51.0368 22.1347 51.2352 22.3715 51.3824C22.6147 51.5296 22.9475 51.6032 23.3699 51.6032Z" fill="#E1D6F6"/>
<path d="M27.4778 50V45.3344H28.1306L28.1978 46.0064H28.2266C28.4506 45.7824 28.6874 45.5968 28.937 45.4496C29.1866 45.296 29.4714 45.2192 29.7914 45.2192C30.2842 45.2192 30.6426 45.376 30.8666 45.6896C31.097 45.9968 31.2122 46.448 31.2122 47.0432V50H30.425V47.1488C30.425 46.7136 30.3546 46.3968 30.2138 46.1984C30.073 46 29.849 45.9008 29.5418 45.9008C29.305 45.9008 29.0906 45.9616 28.8986 46.0832C28.713 46.2048 28.5018 46.384 28.265 46.6208V50H27.4778Z" fill="#E1D6F6"/>
<path d="M38.3937 50.1152C37.9521 50.1152 37.5425 50.032 37.1649 49.8656C36.7873 49.6928 36.4609 49.4656 36.1857 49.184L36.6657 48.6272C36.8897 48.864 37.1521 49.056 37.4529 49.2032C37.7601 49.344 38.0769 49.4144 38.4033 49.4144C38.8193 49.4144 39.1425 49.3216 39.3729 49.136C39.6033 48.944 39.7185 48.6944 39.7185 48.3872C39.7185 48.1696 39.6705 47.9968 39.5745 47.8688C39.4849 47.7408 39.3601 47.632 39.2001 47.5424C39.0465 47.4528 38.8705 47.3632 38.6721 47.2736L37.7697 46.88C37.5713 46.7968 37.3729 46.688 37.1745 46.5536C36.9825 46.4192 36.8193 46.2464 36.6849 46.0352C36.5569 45.824 36.4929 45.5648 36.4929 45.2576C36.4929 44.9376 36.5761 44.6528 36.7425 44.4032C36.9153 44.1472 37.1521 43.9488 37.4529 43.808C37.7537 43.6608 38.0929 43.5872 38.4705 43.5872C38.8481 43.5872 39.1969 43.6608 39.5169 43.808C39.8369 43.9488 40.1089 44.1344 40.3329 44.3648L39.9009 44.8832C39.7089 44.6976 39.4945 44.5536 39.2577 44.4512C39.0273 44.3424 38.7649 44.288 38.4705 44.288C38.1185 44.288 37.8337 44.3712 37.6161 44.5376C37.4049 44.704 37.2993 44.928 37.2993 45.2096C37.2993 45.408 37.3505 45.5744 37.4529 45.7088C37.5617 45.8368 37.6961 45.9424 37.8561 46.0256C38.0161 46.1088 38.1793 46.1856 38.3457 46.256L39.2385 46.64C39.4817 46.7424 39.6993 46.8672 39.8913 47.0144C40.0897 47.1552 40.2465 47.3312 40.3617 47.5424C40.4769 47.7472 40.5345 48.0064 40.5345 48.32C40.5345 48.6528 40.4481 48.9568 40.2753 49.232C40.1025 49.5008 39.8561 49.7152 39.5361 49.8752C39.2161 50.0352 38.8353 50.1152 38.3937 50.1152Z" fill="#E1D6F6"/>
<path d="M42.7346 52.0064C42.6322 52.0064 42.533 51.9968 42.437 51.9776C42.3474 51.9584 42.2642 51.936 42.1874 51.9104L42.341 51.2864C42.3922 51.2992 42.4498 51.312 42.5138 51.3248C42.5778 51.344 42.6386 51.3536 42.6962 51.3536C42.9586 51.3536 43.1762 51.2576 43.349 51.0656C43.5218 50.88 43.6562 50.6432 43.7522 50.3552L43.8578 50.0096L41.9858 45.3344H42.8018L43.7522 47.9168C43.8226 48.1152 43.8962 48.3296 43.973 48.56C44.0562 48.7904 44.133 49.0144 44.2034 49.232H44.2418C44.3122 49.0208 44.3794 48.8 44.4434 48.5696C44.5074 48.3392 44.5714 48.1216 44.6354 47.9168L45.4706 45.3344H46.2386L44.4818 50.384C44.373 50.6912 44.2418 50.9664 44.0882 51.2096C43.941 51.4528 43.7554 51.6448 43.5314 51.7856C43.3138 51.9328 43.0482 52.0064 42.7346 52.0064Z" fill="#E1D6F6"/>
<path d="M49.3183 50.1152C48.9855 50.1152 48.6687 50.0544 48.3679 49.9328C48.0671 49.8048 47.8047 49.6512 47.5807 49.472L47.9743 48.944C48.1791 49.104 48.3903 49.2384 48.6079 49.3472C48.8255 49.4496 49.0719 49.5008 49.3471 49.5008C49.6543 49.5008 49.8847 49.4304 50.0383 49.2896C50.1919 49.1424 50.2687 48.9696 50.2687 48.7712C50.2687 48.6112 50.2143 48.4768 50.1055 48.368C50.0031 48.2592 49.8687 48.1696 49.7023 48.0992C49.5423 48.0224 49.3759 47.952 49.2031 47.888C48.9855 47.8048 48.7711 47.712 48.5599 47.6096C48.3487 47.5008 48.1759 47.3632 48.0415 47.1968C47.9071 47.024 47.8399 46.8064 47.8399 46.544C47.8399 46.1664 47.9807 45.8528 48.2623 45.6032C48.5503 45.3472 48.9471 45.2192 49.4527 45.2192C49.7407 45.2192 50.0095 45.2704 50.2591 45.3728C50.5087 45.4752 50.7231 45.6 50.9023 45.7472L50.5183 46.2464C50.3583 46.1248 50.1919 46.0256 50.0191 45.9488C49.8463 45.872 49.6575 45.8336 49.4527 45.8336C49.1583 45.8336 48.9407 45.9008 48.7999 46.0352C48.6655 46.1696 48.5983 46.3264 48.5983 46.5056C48.5983 46.6528 48.6463 46.7744 48.7423 46.8704C48.8383 46.96 48.9631 47.04 49.1167 47.1104C49.2703 47.1744 49.4335 47.2416 49.6063 47.312C49.8303 47.3952 50.0511 47.4912 50.2687 47.6C50.4863 47.7024 50.6655 47.8432 50.8063 48.0224C50.9535 48.1952 51.0271 48.4288 51.0271 48.7232C51.0271 48.9728 50.9599 49.2032 50.8255 49.4144C50.6975 49.6256 50.5055 49.7952 50.2495 49.9232C49.9999 50.0512 49.6895 50.1152 49.3183 50.1152Z" fill="#E1D6F6"/>
<path d="M54.3623 50.1152C53.8631 50.1152 53.5143 49.9712 53.3159 49.6832C53.1239 49.3952 53.0279 49.0208 53.0279 48.56V45.9776H52.3367V45.3824L53.0663 45.3344L53.1623 44.0288H53.8247V45.3344H55.0823V45.9776H53.8247V48.5696C53.8247 48.8576 53.8759 49.0816 53.9783 49.2416C54.0871 49.3952 54.2759 49.472 54.5447 49.472C54.6279 49.472 54.7175 49.4592 54.8135 49.4336C54.9095 49.4016 54.9959 49.3728 55.0727 49.3472L55.2263 49.9424C55.0983 49.9872 54.9575 50.0256 54.8039 50.0576C54.6567 50.096 54.5095 50.1152 54.3623 50.1152Z" fill="#E1D6F6"/>
<path d="M58.8572 50.1152C58.4412 50.1152 58.0636 50.0192 57.7244 49.8272C57.3852 49.6288 57.1164 49.3472 56.918 48.9824C56.7196 48.6176 56.6204 48.1824 56.6204 47.6768C56.6204 47.1648 56.7196 46.7264 56.918 46.3616C57.1228 45.9968 57.3852 45.7152 57.7052 45.5168C58.0252 45.3184 58.3612 45.2192 58.7132 45.2192C59.3084 45.2192 59.766 45.4176 60.086 45.8144C60.4124 46.2112 60.5756 46.7424 60.5756 47.408C60.5756 47.4912 60.5724 47.5744 60.566 47.6576C60.566 47.7344 60.5596 47.8016 60.5468 47.8592H57.398C57.43 48.352 57.5836 48.7456 57.8588 49.04C58.1404 49.3344 58.5052 49.4816 58.9532 49.4816C59.1772 49.4816 59.382 49.4496 59.5676 49.3856C59.7596 49.3152 59.942 49.2256 60.1148 49.1168L60.3932 49.6352C60.1948 49.7632 59.9676 49.8752 59.7116 49.9712C59.462 50.0672 59.1772 50.1152 58.8572 50.1152ZM57.3884 47.2928H59.8844C59.8844 46.8192 59.782 46.4608 59.5772 46.2176C59.3788 45.968 59.0972 45.8432 58.7324 45.8432C58.406 45.8432 58.1116 45.9712 57.8492 46.2272C57.5932 46.4768 57.4396 46.832 57.3884 47.2928Z" fill="#E1D6F6"/>
<path d="M62.6885 50V45.3344H63.3413L63.4085 46.0064H63.4373C63.6421 45.7824 63.8661 45.5968 64.1093 45.4496C64.3525 45.296 64.6117 45.2192 64.8869 45.2192C65.2453 45.2192 65.5237 45.2992 65.7221 45.4592C65.9269 45.6128 66.0773 45.8304 66.1733 46.112C66.4165 45.8496 66.6629 45.6352 66.9125 45.4688C67.1621 45.3024 67.4277 45.2192 67.7093 45.2192C68.1893 45.2192 68.5445 45.376 68.7749 45.6896C69.0117 45.9968 69.1301 46.448 69.1301 47.0432V50H68.3429V47.1488C68.3429 46.7136 68.2725 46.3968 68.1317 46.1984C67.9909 46 67.7733 45.9008 67.4789 45.9008C67.1333 45.9008 66.7429 46.1408 66.3077 46.6208V50H65.5205V47.1488C65.5205 46.7136 65.4501 46.3968 65.3093 46.1984C65.1685 46 64.9477 45.9008 64.6469 45.9008C64.3013 45.9008 63.9109 46.1408 63.4757 46.6208V50H62.6885Z" fill="#E1D6F6"/>
<path d="M74.1345 50V49.52L77.4465 44.3744H74.4321V43.7024H78.4449V44.1728L75.1233 49.3184H78.4737V50H74.1345Z" fill="#E1D6F6"/>
<path d="M82.3097 50.1152C81.8937 50.1152 81.5161 50.0192 81.1769 49.8272C80.8377 49.6288 80.5689 49.3472 80.3705 48.9824C80.1721 48.6176 80.0729 48.1824 80.0729 47.6768C80.0729 47.1648 80.1721 46.7264 80.3705 46.3616C80.5753 45.9968 80.8377 45.7152 81.1577 45.5168C81.4777 45.3184 81.8137 45.2192 82.1657 45.2192C82.7609 45.2192 83.2185 45.4176 83.5385 45.8144C83.8649 46.2112 84.0281 46.7424 84.0281 47.408C84.0281 47.4912 84.0249 47.5744 84.0185 47.6576C84.0185 47.7344 84.0121 47.8016 83.9993 47.8592H80.8505C80.8825 48.352 81.0361 48.7456 81.3113 49.04C81.5929 49.3344 81.9577 49.4816 82.4057 49.4816C82.6297 49.4816 82.8345 49.4496 83.0201 49.3856C83.2121 49.3152 83.3945 49.2256 83.5673 49.1168L83.8457 49.6352C83.6473 49.7632 83.4201 49.8752 83.1641 49.9712C82.9145 50.0672 82.6297 50.1152 82.3097 50.1152ZM80.8409 47.2928H83.3369C83.3369 46.8192 83.2345 46.4608 83.0297 46.2176C82.8313 45.968 82.5497 45.8432 82.1849 45.8432C81.8585 45.8432 81.5641 45.9712 81.3017 46.2272C81.0457 46.4768 80.8921 46.832 80.8409 47.2928Z" fill="#E1D6F6"/>
<path d="M86.141 50V45.3344H86.7938L86.861 46.0064H86.8898C87.1138 45.7824 87.3506 45.5968 87.6002 45.4496C87.8498 45.296 88.1346 45.2192 88.4546 45.2192C88.9474 45.2192 89.3058 45.376 89.5298 45.6896C89.7602 45.9968 89.8754 46.448 89.8754 47.0432V50H89.0882V47.1488C89.0882 46.7136 89.0178 46.3968 88.877 46.1984C88.7362 46 88.5122 45.9008 88.205 45.9008C87.9682 45.9008 87.7538 45.9616 87.5618 46.0832C87.3762 46.2048 87.165 46.384 86.9282 46.6208V50H86.141Z" fill="#E1D6F6"/>
<path d="M92.351 50V43.1648H93.1286V47.792H93.1574L95.1446 45.3344H96.0182L94.4534 47.2064L96.2294 50H95.3654L94.0022 47.7536L93.1286 48.7712V50H92.351Z" fill="#E1D6F6"/>
<path d="M98.8993 50.1152C98.6049 50.1152 98.3905 50.0256 98.2561 49.8464C98.1281 49.6608 98.0641 49.3984 98.0641 49.0592V43.1648H98.8513V49.1168C98.8513 49.2384 98.8737 49.328 98.9185 49.3856C98.9633 49.4368 99.0145 49.4624 99.0721 49.4624C99.0977 49.4624 99.1201 49.4624 99.1393 49.4624C99.1649 49.456 99.2001 49.4496 99.2449 49.4432L99.3505 50.0384C99.2993 50.064 99.2385 50.0832 99.1681 50.096C99.0977 50.1088 99.0081 50.1152 98.8993 50.1152Z" fill="#E1D6F6"/>
<path d="M102.834 50.1152C102.341 50.1152 101.98 49.9616 101.749 49.6544C101.519 49.3408 101.404 48.8864 101.404 48.2912V45.3344H102.201V48.1856C102.201 48.6208 102.268 48.9376 102.402 49.136C102.543 49.3344 102.767 49.4336 103.074 49.4336C103.317 49.4336 103.532 49.3728 103.717 49.2512C103.909 49.1232 104.114 48.9216 104.332 48.6464V45.3344H105.119V50H104.466L104.399 49.2704H104.37C104.153 49.5264 103.922 49.7312 103.679 49.8848C103.436 50.0384 103.154 50.1152 102.834 50.1152Z" fill="#E1D6F6"/>
<path d="M109.717 50.1152C109.499 50.1152 109.272 50.064 109.035 49.9616C108.805 49.8528 108.587 49.7056 108.382 49.52H108.354L108.286 50H107.653V43.1648H108.44V45.0272L108.421 45.872C108.632 45.6864 108.862 45.5328 109.112 45.4112C109.368 45.2832 109.624 45.2192 109.88 45.2192C110.488 45.2192 110.949 45.4336 111.262 45.8624C111.576 46.2912 111.733 46.8672 111.733 47.5904C111.733 48.1216 111.637 48.576 111.445 48.9536C111.259 49.3312 111.013 49.6192 110.706 49.8176C110.405 50.016 110.075 50.1152 109.717 50.1152ZM109.582 49.4528C109.966 49.4528 110.283 49.2896 110.533 48.9632C110.789 48.6304 110.917 48.176 110.917 47.6C110.917 47.088 110.821 46.6752 110.629 46.3616C110.443 46.0416 110.13 45.8816 109.688 45.8816C109.49 45.8816 109.288 45.936 109.083 46.0448C108.878 46.1536 108.664 46.3104 108.44 46.5152V48.9632C108.645 49.1424 108.846 49.2704 109.045 49.3472C109.25 49.4176 109.429 49.4528 109.582 49.4528Z" fill="#E1D6F6"/>
</svg>
