<svg width="137" height="43" viewBox="0 0 137 43" fill="none" xmlns="http://www.w3.org/2000/svg">
<path d="M23.7784 41.4791C23.4889 41.4791 23.2332 41.4059 23.0115 41.2596C22.7898 41.1118 22.6164 40.9037 22.4912 40.6353C22.3661 40.3653 22.3035 40.0463 22.3035 39.6784C22.3035 39.3134 22.3661 38.9967 22.4912 38.7282C22.6164 38.4598 22.7906 38.2524 23.0138 38.1061C23.237 37.9598 23.4949 37.8867 23.7875 37.8867C24.0137 37.8867 24.1924 37.9244 24.3236 37.9998C24.4563 38.0737 24.5574 38.1582 24.6268 38.2532C24.6976 38.3467 24.7527 38.4236 24.7919 38.4839L24.8371 38.4839L24.8371 36.7737L25.371 36.7737L25.371 41.4067L24.8552 41.4067L24.8552 40.8728L24.7919 40.8728C24.7527 40.9361 24.6969 41.0161 24.6245 41.1126C24.5521 41.2076 24.4488 41.2928 24.3146 41.3682C24.1803 41.4421 24.0016 41.4791 23.7784 41.4791ZM23.8508 40.9995C24.065 40.9995 24.2459 40.9437 24.3937 40.8321C24.5415 40.719 24.6539 40.5629 24.7308 40.3638C24.8077 40.1632 24.8462 39.9317 24.8462 39.6693C24.8462 39.4099 24.8085 39.1829 24.7331 38.9884C24.6577 38.7923 24.5461 38.64 24.3983 38.5314C24.2505 38.4213 24.068 38.3663 23.8508 38.3663C23.6246 38.3663 23.4361 38.4243 23.2853 38.5405C23.136 38.6551 23.0236 38.8112 22.9482 39.0087C22.8743 39.2048 22.8373 39.425 22.8373 39.6693C22.8373 39.9166 22.8751 40.1414 22.9505 40.3434C23.0274 40.544 23.1405 40.7039 23.2898 40.823C23.4406 40.9407 23.6276 40.9995 23.8508 40.9995Z" fill="#9CA3B0"/>
<path d="M28.3257 41.4791C27.9909 41.4791 27.7021 41.4052 27.4593 41.2574C27.218 41.1081 27.0317 40.9 26.9005 40.633C26.7708 40.3646 26.706 40.0524 26.706 39.6965C26.706 39.3405 26.7708 39.0268 26.9005 38.7554C27.0317 38.4824 27.2142 38.2698 27.448 38.1174C27.6833 37.9636 27.9577 37.8867 28.2714 37.8867C28.4524 37.8867 28.6311 37.9169 28.8076 37.9772C28.984 38.0375 29.1446 38.1355 29.2894 38.2713C29.4342 38.4055 29.5496 38.5835 29.6355 38.8051C29.7215 39.0268 29.7645 39.2998 29.7645 39.6241L29.7645 39.8503L27.086 39.8503L27.086 39.3888L29.2216 39.3888C29.2216 39.1927 29.1823 39.0178 29.1039 38.864C29.027 38.7101 28.9169 38.5887 28.7736 38.4998C28.6319 38.4108 28.4645 38.3663 28.2714 38.3663C28.0588 38.3663 27.8748 38.4191 27.7195 38.5246C27.5656 38.6287 27.4472 38.7644 27.3643 38.9318C27.2813 39.0992 27.2399 39.2787 27.2399 39.4702L27.2399 39.7779C27.2399 40.0403 27.2851 40.2628 27.3756 40.4452C27.4676 40.6262 27.595 40.7642 27.7579 40.8592C27.9208 40.9527 28.1101 40.9995 28.3257 40.9995C28.466 40.9995 28.5927 40.9799 28.7058 40.9407C28.8204 40.9 28.9192 40.8396 29.0021 40.7597C29.0851 40.6783 29.1492 40.5772 29.1944 40.4566L29.7102 40.6013C29.6559 40.7763 29.5647 40.9301 29.4365 41.0628C29.3083 41.194 29.1499 41.2966 28.9614 41.3705C28.7729 41.4429 28.561 41.4791 28.3257 41.4791Z" fill="#9CA3B0"/>
<path d="M33.4838 38.7101L33.0042 38.8459C32.9741 38.7659 32.9296 38.6883 32.8708 38.6129C32.8135 38.5359 32.735 38.4726 32.6355 38.4228C32.536 38.3731 32.4085 38.3482 32.2532 38.3482C32.0405 38.3482 31.8633 38.3972 31.7216 38.4952C31.5813 38.5917 31.5112 38.7147 31.5112 38.864C31.5112 38.9967 31.5594 39.1015 31.656 39.1784C31.7525 39.2553 31.9033 39.3194 32.1084 39.3707L32.6242 39.4974C32.9349 39.5728 33.1664 39.6882 33.3187 39.8435C33.471 39.9973 33.5472 40.1957 33.5472 40.4385C33.5472 40.6375 33.4899 40.8155 33.3752 40.9723C33.2621 41.1292 33.1038 41.2529 32.9002 41.3433C32.6966 41.4338 32.4598 41.4791 32.1898 41.4791C31.8354 41.4791 31.5421 41.4022 31.3098 41.2483C31.0776 41.0945 30.9306 40.8698 30.8687 40.5742L31.3755 40.4475C31.4237 40.6345 31.515 40.7748 31.6492 40.8683C31.7849 40.9618 31.9621 41.0085 32.1808 41.0085C32.4296 41.0085 32.6272 40.9558 32.7735 40.8502C32.9213 40.7431 32.9952 40.6149 32.9952 40.4656C32.9952 40.345 32.953 40.2439 32.8685 40.1625C32.7841 40.0795 32.6544 40.0177 32.4794 39.977L31.9003 39.8412C31.5821 39.7658 31.3483 39.649 31.199 39.4906C31.0512 39.3307 30.9773 39.1309 30.9773 38.8911C30.9773 38.6951 31.0324 38.5216 31.1424 38.3708C31.254 38.22 31.4056 38.1016 31.5971 38.0156C31.7902 37.9297 32.0089 37.8867 32.2532 37.8867C32.597 37.8867 32.867 37.9621 33.0631 38.1129C33.2606 38.2637 33.4009 38.4628 33.4838 38.7101Z" fill="#9CA3B0"/>
<path d="M34.7967 41.4067L34.7967 37.9319L35.3306 37.9319L35.3306 41.4067L34.7967 41.4067ZM35.0682 37.3528C34.9641 37.3528 34.8744 37.3174 34.799 37.2465C34.7251 37.1756 34.6882 37.0904 34.6882 36.9909C34.6882 36.8913 34.7251 36.8061 34.799 36.7352C34.8744 36.6643 34.9641 36.6289 35.0682 36.6289C35.1723 36.6289 35.2613 36.6643 35.3351 36.7352C35.4106 36.8061 35.4483 36.8913 35.4483 36.9909C35.4483 37.0904 35.4106 37.1756 35.3351 37.2465C35.2613 37.3174 35.1723 37.3528 35.0682 37.3528Z" fill="#9CA3B0"/>
<path d="M38.157 42.7821C37.8991 42.7821 37.6774 42.7489 37.4919 42.6826C37.3064 42.6177 37.1518 42.5318 37.0281 42.4247C36.906 42.3191 36.8087 42.206 36.7363 42.0853L37.1616 41.7867C37.2098 41.8501 37.2709 41.9225 37.3448 42.0039C37.4187 42.0869 37.5198 42.1585 37.648 42.2188C37.7777 42.2807 37.9473 42.3116 38.157 42.3116C38.4375 42.3116 38.669 42.2437 38.8515 42.108C39.0339 41.9722 39.1252 41.7596 39.1252 41.47L39.1252 40.7642L39.0799 40.7642C39.0407 40.8276 38.9849 40.906 38.9125 40.9995C38.8416 41.0915 38.7391 41.1737 38.6049 41.2461C38.4722 41.317 38.2927 41.3524 38.0665 41.3524C37.786 41.3524 37.5341 41.286 37.3109 41.1533C37.0892 41.0206 36.9135 40.8276 36.7838 40.5742C36.6556 40.3208 36.5915 40.0132 36.5915 39.6512C36.5915 39.2953 36.6541 38.9854 36.7793 38.7214C36.9044 38.456 37.0786 38.2509 37.3018 38.1061C37.525 37.9598 37.7829 37.8867 38.0755 37.8867C38.3017 37.8867 38.4812 37.9244 38.6139 37.9998C38.7481 38.0737 38.8507 38.1582 38.9216 38.2532C38.994 38.3467 39.0498 38.4236 39.089 38.4839L39.1433 38.4839L39.1433 37.9319L39.6591 37.9319L39.6591 41.5062C39.6591 41.8048 39.5912 42.0476 39.4555 42.2347C39.3212 42.4232 39.1403 42.5612 38.9125 42.6486C38.6863 42.7376 38.4345 42.7821 38.157 42.7821ZM38.1389 40.8728C38.353 40.8728 38.534 40.8238 38.6818 40.7258C38.8296 40.6277 38.9419 40.4867 39.0189 40.3027C39.0958 40.1187 39.1342 39.8986 39.1342 39.6422C39.1342 39.3918 39.0965 39.1709 39.0211 38.9793C38.9457 38.7878 38.8341 38.6377 38.6863 38.5292C38.5385 38.4206 38.356 38.3663 38.1389 38.3663C37.9126 38.3663 37.7241 38.4236 37.5733 38.5382C37.424 38.6528 37.3116 38.8067 37.2362 38.9997C37.1623 39.1927 37.1254 39.4069 37.1254 39.6422C37.1254 39.8835 37.1631 40.0969 37.2385 40.2824C37.3154 40.4664 37.4285 40.6111 37.5778 40.7167C37.7286 40.8208 37.9157 40.8728 38.1389 40.8728Z" fill="#9CA3B0"/>
<path d="M41.6161 39.3164L41.6161 41.4067L41.0823 41.4067L41.0823 37.9319L41.598 37.9319L41.598 38.4749L41.6433 38.4749C41.7247 38.2984 41.8484 38.1567 42.0143 38.0496C42.1802 37.941 42.3943 37.8867 42.6568 37.8867C42.892 37.8867 43.0979 37.935 43.2743 38.0315C43.4508 38.1265 43.588 38.2713 43.6861 38.4658C43.7841 38.6589 43.8331 38.9032 43.8331 39.1988L43.8331 41.4067L43.2992 41.4067L43.2992 39.235C43.2992 38.962 43.2283 38.7494 43.0866 38.597C42.9448 38.4432 42.7503 38.3663 42.5029 38.3663C42.3325 38.3663 42.1802 38.4032 42.046 38.4771C41.9132 38.551 41.8084 38.6589 41.7315 38.8006C41.6546 38.9424 41.6161 39.1143 41.6161 39.3164Z" fill="#9CA3B0"/>
<path d="M49.9535 38.7101L49.4739 38.8459C49.4437 38.7659 49.3992 38.6883 49.3404 38.6129C49.2831 38.536 49.2047 38.4726 49.1052 38.4228C49.0056 38.3731 48.8782 38.3482 48.7228 38.3482C48.5102 38.3482 48.333 38.3972 48.1912 38.4952C48.051 38.5918 47.9808 38.7147 47.9808 38.864C47.9808 38.9967 48.0291 39.1015 48.1256 39.1784C48.2221 39.2553 48.3729 39.3194 48.5781 39.3707L49.0938 39.4974C49.4045 39.5728 49.636 39.6882 49.7883 39.8435C49.9407 39.9973 50.0168 40.1957 50.0168 40.4385C50.0168 40.6375 49.9595 40.8155 49.8449 40.9723C49.7318 41.1292 49.5734 41.2529 49.3698 41.3433C49.1662 41.4338 48.9294 41.4791 48.6595 41.4791C48.3051 41.4791 48.0117 41.4022 47.7795 41.2483C47.5472 41.0945 47.4002 40.8698 47.3384 40.5742L47.8451 40.4475C47.8934 40.6345 47.9846 40.7748 48.1188 40.8683C48.2546 40.9618 48.4318 41.0085 48.6504 41.0085C48.8993 41.0085 49.0969 40.9558 49.2431 40.8502C49.3909 40.7431 49.4648 40.6149 49.4648 40.4656C49.4648 40.345 49.4226 40.2439 49.3382 40.1625C49.2537 40.0795 49.124 40.0177 48.9491 39.977L48.3699 39.8412C48.0517 39.7658 47.818 39.649 47.6686 39.4906C47.5209 39.3307 47.447 39.1309 47.447 38.8911C47.447 38.6951 47.502 38.5216 47.6121 38.3708C47.7237 38.22 47.8753 38.1016 48.0668 38.0156C48.2598 37.9297 48.4785 37.8867 48.7228 37.8867C49.0667 37.8867 49.3366 37.9621 49.5327 38.1129C49.7303 38.2637 49.8705 38.4628 49.9535 38.7101Z" fill="#9CA3B0"/>
<path d="M51.6102 42.7097C51.5198 42.7097 51.4391 42.7022 51.3682 42.6871C51.2973 42.6735 51.2483 42.66 51.2211 42.6464L51.3569 42.1758C51.4866 42.209 51.6012 42.2211 51.7007 42.212C51.8003 42.203 51.8885 42.1585 51.9654 42.0786C52.0438 42.0001 52.1155 41.8727 52.1803 41.6963L52.2799 41.4248L50.9949 37.9319L51.5741 37.9319L52.5332 40.7009L52.5694 40.7009L53.5286 37.9319L54.1077 37.9319L52.6328 41.9134C52.5664 42.0929 52.4842 42.2414 52.3862 42.3591C52.2882 42.4782 52.1743 42.5664 52.0446 42.6238C51.9164 42.6811 51.7716 42.7097 51.6102 42.7097Z" fill="#9CA3B0"/>
<path d="M57.7196 38.7101L57.24 38.8459C57.2099 38.7659 57.1654 38.6883 57.1065 38.6129C57.0492 38.536 56.9708 38.4726 56.8713 38.4228C56.7717 38.3731 56.6443 38.3482 56.489 38.3482C56.2763 38.3482 56.0991 38.3972 55.9573 38.4952C55.8171 38.5918 55.747 38.7147 55.747 38.864C55.747 38.9967 55.7952 39.1015 55.8917 39.1784C55.9883 39.2553 56.1391 39.3194 56.3442 39.3707L56.86 39.4974C57.1706 39.5728 57.4021 39.6882 57.5545 39.8435C57.7068 39.9973 57.7829 40.1957 57.7829 40.4385C57.7829 40.6375 57.7256 40.8155 57.611 40.9723C57.4979 41.1292 57.3396 41.2529 57.136 41.3433C56.9324 41.4338 56.6956 41.4791 56.4256 41.4791C56.0712 41.4791 55.7779 41.4022 55.5456 41.2483C55.3134 41.0945 55.1663 40.8698 55.1045 40.5742L55.6112 40.4475C55.6595 40.6345 55.7507 40.7748 55.885 40.8683C56.0207 40.9618 56.1979 41.0085 56.4166 41.0085C56.6654 41.0085 56.863 40.9558 57.0093 40.8502C57.1571 40.7431 57.231 40.6149 57.231 40.4656C57.231 40.345 57.1887 40.2439 57.1043 40.1625C57.0198 40.0795 56.8901 40.0177 56.7152 39.977L56.1361 39.8412C55.8178 39.7658 55.5841 39.649 55.4348 39.4906C55.287 39.3307 55.2131 39.1309 55.2131 38.8911C55.2131 38.6951 55.2681 38.5216 55.3782 38.3708C55.4898 38.22 55.6414 38.1016 55.8329 38.0156C56.026 37.9297 56.2446 37.8867 56.489 37.8867C56.8328 37.8867 57.1028 37.9621 57.2988 38.1129C57.4964 38.2637 57.6367 38.4628 57.7196 38.7101Z" fill="#9CA3B0"/>
<path d="M60.5437 37.9319L60.5437 38.3844L58.743 38.3844L58.743 37.9319L60.5437 37.9319ZM59.2678 37.0995L59.8017 37.0995L59.8017 40.4113C59.8017 40.5621 59.8235 40.6752 59.8673 40.7507C59.9125 40.8245 59.9698 40.8743 60.0392 40.9C60.1101 40.9241 60.1847 40.9362 60.2632 40.9362C60.322 40.9362 60.3702 40.9331 60.4079 40.9271C60.4456 40.9196 60.4758 40.9135 60.4984 40.909L60.607 41.3886C60.5708 41.4022 60.5203 41.4157 60.4554 41.4293C60.3906 41.4444 60.3084 41.4519 60.2089 41.4519C60.0581 41.4519 59.9103 41.4195 59.7655 41.3547C59.6222 41.2898 59.5031 41.191 59.408 41.0583C59.3145 40.9256 59.2678 40.7582 59.2678 40.5561L59.2678 37.0995Z" fill="#9CA3B0"/>
<path d="M63.2122 41.4791C62.8774 41.4791 62.5886 41.4052 62.3458 41.2574C62.1045 41.1081 61.9182 40.9 61.787 40.633C61.6573 40.3646 61.5925 40.0524 61.5925 39.6965C61.5925 39.3405 61.6573 39.0269 61.787 38.7554C61.9182 38.4824 62.1007 38.2698 62.3345 38.1174C62.5697 37.9636 62.8442 37.8867 63.1579 37.8867C63.3389 37.8867 63.5176 37.9169 63.6941 37.9772C63.8705 38.0375 64.0311 38.1355 64.1759 38.2713C64.3207 38.4055 64.4361 38.5835 64.522 38.8052C64.608 39.0269 64.651 39.2998 64.651 39.6241L64.651 39.8503L61.9725 39.8503L61.9725 39.3888L64.108 39.3888C64.108 39.1927 64.0688 39.0178 63.9904 38.864C63.9135 38.7101 63.8034 38.5887 63.6601 38.4998C63.5184 38.4108 63.351 38.3663 63.1579 38.3663C62.9453 38.3663 62.7613 38.4191 62.6059 38.5246C62.4521 38.6287 62.3337 38.7644 62.2508 38.9318C62.1678 39.0992 62.1264 39.2787 62.1264 39.4702L62.1264 39.7779C62.1264 40.0403 62.1716 40.2628 62.2621 40.4453C62.3541 40.6262 62.4815 40.7642 62.6444 40.8592C62.8073 40.9527 62.9966 40.9995 63.2122 40.9995C63.3525 40.9995 63.4792 40.9799 63.5923 40.9407C63.7069 40.9 63.8057 40.8396 63.8886 40.7597C63.9716 40.6783 64.0357 40.5772 64.0809 40.4566L64.5967 40.6013C64.5424 40.7763 64.4512 40.9301 64.323 41.0628C64.1948 41.194 64.0364 41.2966 63.8479 41.3705C63.6594 41.4429 63.4475 41.4791 63.2122 41.4791Z" fill="#9CA3B0"/>
<path d="M65.909 41.4067L65.909 37.9319L66.4248 37.9319L66.4248 38.4749L66.4701 38.4749C66.5425 38.2894 66.6593 38.1453 66.8207 38.0428C66.9821 37.9387 67.1759 37.8867 67.4021 37.8867C67.6313 37.8867 67.8221 37.9387 67.9744 38.0428C68.1283 38.1453 68.2482 38.2894 68.3341 38.4749L68.3703 38.4749C68.4593 38.2954 68.5928 38.1529 68.7707 38.0473C68.9487 37.9402 69.1621 37.8867 69.4109 37.8867C69.7216 37.8867 69.9757 37.984 70.1733 38.1785C70.3709 38.3716 70.4696 38.6724 70.4696 39.0811L70.4696 41.4067L69.9358 41.4067L69.9358 39.0811C69.9358 38.8248 69.8656 38.6415 69.7254 38.5314C69.5851 38.4213 69.42 38.3663 69.23 38.3663C68.9856 38.3663 68.7964 38.4402 68.6621 38.588C68.5279 38.7343 68.4608 38.9198 68.4608 39.1445L68.4608 41.4067L67.9179 41.4067L67.9179 39.0269C67.9179 38.8293 67.8538 38.6702 67.7256 38.5495C67.5974 38.4274 67.4323 38.3663 67.2302 38.3663C67.0914 38.3663 66.9617 38.4032 66.8411 38.4771C66.7219 38.551 66.6254 38.6536 66.5515 38.7848C66.4791 38.9145 66.4429 39.0646 66.4429 39.235L66.4429 41.4067L65.909 41.4067Z" fill="#9CA3B0"/>
<path d="M74.0298 41.4067L74.0298 40.9995L76.0024 38.4658L76.0024 38.4296L74.0931 38.4296L74.0931 37.9319L76.6901 37.9319L76.6901 38.3572L74.7718 40.8728L74.7718 40.909L76.7535 40.909L76.7535 41.4067L74.0298 41.4067Z" fill="#9CA3B0"/>
<path d="M79.379 41.4791C79.0442 41.4791 78.7554 41.4052 78.5126 41.2574C78.2713 41.1081 78.085 40.9 77.9538 40.633C77.8241 40.3646 77.7593 40.0524 77.7593 39.6965C77.7593 39.3405 77.8241 39.0269 77.9538 38.7554C78.085 38.4824 78.2675 38.2698 78.5013 38.1174C78.7366 37.9636 79.011 37.8867 79.3247 37.8867C79.5057 37.8867 79.6844 37.9169 79.8609 37.9772C80.0373 38.0375 80.1979 38.1355 80.3427 38.2713C80.4875 38.4055 80.6029 38.5835 80.6888 38.8052C80.7748 39.0269 80.8178 39.2998 80.8178 39.6241L80.8178 39.8503L78.1393 39.8503L78.1393 39.3888L80.2749 39.3888C80.2749 39.1927 80.2356 39.0178 80.1572 38.864C80.0803 38.7101 79.9702 38.5887 79.8269 38.4998C79.6852 38.4108 79.5178 38.3663 79.3247 38.3663C79.1121 38.3663 78.9281 38.4191 78.7728 38.5246C78.6189 38.6287 78.5005 38.7644 78.4176 38.9318C78.3346 39.0992 78.2932 39.2787 78.2932 39.4702L78.2932 39.7779C78.2932 40.0403 78.3384 40.2628 78.4289 40.4453C78.5209 40.6262 78.6483 40.7642 78.8112 40.8592C78.9741 40.9527 79.1634 40.9995 79.379 40.9995C79.5193 40.9995 79.646 40.9799 79.7591 40.9407C79.8737 40.9 79.9725 40.8396 80.0554 40.7597C80.1384 40.6783 80.2025 40.5772 80.2477 40.4566L80.7635 40.6013C80.7092 40.7763 80.618 40.9301 80.4898 41.0628C80.3616 41.194 80.2032 41.2966 80.0147 41.3705C79.8262 41.4429 79.6143 41.4791 79.379 41.4791Z" fill="#9CA3B0"/>
<path d="M82.6097 39.3164L82.6097 41.4067L82.0758 41.4067L82.0758 37.9319L82.5916 37.9319L82.5916 38.4749L82.6369 38.4749C82.7183 38.2984 82.842 38.1567 83.0079 38.0496C83.1738 37.941 83.3879 37.8867 83.6503 37.8867C83.8856 37.8867 84.0915 37.935 84.2679 38.0315C84.4444 38.1265 84.5816 38.2713 84.6796 38.4658C84.7777 38.6589 84.8267 38.9032 84.8267 39.1988L84.8267 41.4067L84.2928 41.4067L84.2928 39.235C84.2928 38.962 84.2219 38.7494 84.0802 38.597C83.9384 38.4432 83.7438 38.3663 83.4965 38.3663C83.3261 38.3663 83.1738 38.4032 83.0395 38.4771C82.9068 38.551 82.802 38.6589 82.7251 38.8006C82.6482 38.9424 82.6097 39.1143 82.6097 39.3164Z" fill="#9CA3B0"/>
<path d="M86.7459 40.1399L86.7368 39.4793L86.8454 39.4793L88.3656 37.9319L89.0262 37.9319L87.4064 39.5698L87.3612 39.5698L86.7459 40.1399ZM86.2482 41.4067L86.2482 36.7737L86.7821 36.7737L86.7821 41.4067L86.2482 41.4067ZM88.4561 41.4067L87.0988 39.6874L87.4788 39.3164L89.1348 41.4067L88.4561 41.4067Z" fill="#9CA3B0"/>
<path d="M90.6931 36.7737L90.6931 41.4067L90.1592 41.4067L90.1592 36.7737L90.6931 36.7737Z" fill="#9CA3B0"/>
<path d="M94.3067 39.986L94.3067 37.9319L94.8406 37.9319L94.8406 41.4067L94.3067 41.4067L94.3067 40.8185L94.2705 40.8185C94.1891 40.995 94.0624 41.145 93.8905 41.2687C93.7185 41.3909 93.5014 41.4519 93.2389 41.4519C93.0218 41.4519 92.8287 41.4044 92.6598 41.3094C92.4909 41.2129 92.3582 41.0681 92.2617 40.8751C92.1652 40.6805 92.1169 40.4355 92.1169 40.1399L92.1169 37.9319L92.6508 37.9319L92.6508 40.1037C92.6508 40.357 92.7217 40.5591 92.8634 40.7099C93.0067 40.8608 93.1892 40.9362 93.4109 40.9362C93.5436 40.9362 93.6786 40.9022 93.8158 40.8344C93.9546 40.7665 94.0707 40.6624 94.1642 40.5222C94.2592 40.3819 94.3067 40.2032 94.3067 39.986Z" fill="#9CA3B0"/>
<path d="M96.3367 41.4067L96.3367 36.7737L96.8706 36.7737L96.8706 38.4839L96.9159 38.4839C96.9551 38.4236 97.0094 38.3467 97.0787 38.2532C97.1496 38.1582 97.2507 38.0737 97.3819 37.9998C97.5146 37.9244 97.6941 37.8867 97.9203 37.8867C98.2129 37.8867 98.4708 37.9599 98.694 38.1061C98.9172 38.2524 99.0914 38.4598 99.2165 38.7282C99.3417 38.9967 99.4043 39.3134 99.4043 39.6784C99.4043 40.0464 99.3417 40.3653 99.2165 40.6353C99.0914 40.9037 98.9179 41.1119 98.6962 41.2597C98.4745 41.4059 98.2189 41.4791 97.9293 41.4791C97.7061 41.4791 97.5274 41.4421 97.3932 41.3682C97.259 41.2928 97.1557 41.2076 97.0833 41.1126C97.0109 41.0161 96.9551 40.9362 96.9159 40.8728L96.8525 40.8728L96.8525 41.4067L96.3367 41.4067ZM96.8616 39.6693C96.8616 39.9317 96.9 40.1632 96.9769 40.3638C97.0539 40.5629 97.1662 40.719 97.314 40.8321C97.4618 40.9437 97.6428 40.9995 97.8569 40.9995C98.0801 40.9995 98.2664 40.9407 98.4157 40.823C98.5665 40.7039 98.6796 40.544 98.755 40.3435C98.832 40.1414 98.8704 39.9167 98.8704 39.6693C98.8704 39.425 98.8327 39.2048 98.7573 39.0088C98.6834 38.8112 98.571 38.6551 98.4202 38.5405C98.2709 38.4244 98.0832 38.3663 97.8569 38.3663C97.6398 38.3663 97.4573 38.4213 97.3095 38.5314C97.1617 38.64 97.0501 38.7923 96.9747 38.9884C96.8993 39.1829 96.8616 39.4099 96.8616 39.6693Z" fill="#9CA3B0"/>
<path fill-rule="evenodd" clip-rule="evenodd" d="M97.1397 17.2546C94.9104 19.609 94.9104 23.4262 97.1397 25.7806L99.7083 28.4934V31.6418H93.5836L93.3418 28.781H93.1806C92.724 29.8555 92.0658 30.6614 91.2062 31.1986C90.3735 31.7359 89.1512 32.0045 87.5395 32.0045C84.9338 32.0045 83.0265 31.2523 81.8177 29.748C80.6089 28.2169 79.9776 25.9201 79.9239 22.8577C79.897 20.1177 80.1791 17.9419 80.7701 16.3301C81.361 14.7183 82.2878 13.5633 83.5503 12.8648C84.8129 12.1664 86.4247 11.8172 88.3856 11.8172C89.4064 11.8172 90.3332 11.9112 91.1659 12.0992C91.9987 12.2604 92.6702 12.4887 93.1806 12.7842L93.2612 12.7439V4.52395H99.7083V14.5418L97.1397 17.2546ZM0 17.2569V12.0186H2.86088V11.0113C2.86088 8.35189 3.47872 6.44464 4.7144 5.28954C5.95009 4.10758 7.79018 3.5166 10.2347 3.5166C11.0943 3.5166 11.8867 3.59719 12.612 3.75837C13.3373 3.89268 13.9686 4.05386 14.5059 4.24189V8.75483L14.385 8.83541C13.9014 8.78169 13.4179 8.7414 12.9344 8.71453C12.4509 8.66081 11.9942 8.63394 11.5644 8.63394C10.6511 8.63394 10.0064 8.80855 9.63028 9.15777C9.28106 9.48012 9.10646 9.99051 9.10646 10.6889V12.0186H14.5059V17.2569H9.10646V31.6418H2.86088V17.2569H0ZM24.1922 31.6418H17.7451V12.0186H22.9833L23.5072 16.0481H23.6281C23.8698 14.5437 24.4474 13.4692 25.3607 12.8245C26.274 12.153 27.6306 11.8172 29.4304 11.8172C30.1557 11.8172 30.8138 11.8575 31.4048 11.9381C31.9958 11.9918 32.4927 12.0455 32.8957 12.0992V18.3851L32.8151 18.4657C32.3853 18.3582 31.8883 18.2642 31.3242 18.1836C30.787 18.103 30.1691 18.0628 29.4707 18.0628C28.4768 18.0628 27.5769 18.2239 26.771 18.5463C25.992 18.8686 25.3741 19.4999 24.9175 20.4401C24.4877 21.3534 24.2728 22.7234 24.2728 24.5501L24.1922 31.6418ZM49.8711 31.7224C51.2143 31.5075 52.2619 31.2658 53.0141 30.9971V26.5245L52.8529 26.4036C51.8858 26.5379 50.9322 26.6454 49.992 26.726C49.0787 26.7797 47.9236 26.8066 46.5267 26.8066C44.4314 26.8066 42.9137 26.6185 41.9735 26.2424C41.0602 25.8664 40.5095 25.0873 40.3214 23.9054H53.5782L53.7394 23.7442C53.8468 23.1801 53.914 22.6025 53.9408 22.0116C53.9945 21.4206 54.0214 20.8699 54.0214 20.3595C54.0214 18.6134 53.7125 17.1091 53.0947 15.8466C52.5037 14.5572 51.4963 13.5633 50.0726 12.8648C48.6757 12.1664 46.7551 11.8172 44.3105 11.8172C40.899 11.8172 38.3739 12.6096 36.7353 14.1945C35.1235 15.7794 34.3176 18.3448 34.3176 21.8907C34.3176 24.4964 34.734 26.5379 35.5667 28.0154C36.3995 29.466 37.6217 30.5002 39.2335 31.118C40.8721 31.709 42.8465 32.0045 45.1567 32.0045C46.9834 32.0045 48.5549 31.9105 49.8711 31.7224ZM48.0982 18.0225C48.3131 18.4791 48.4205 19.0298 48.4205 19.6745H40.2006C40.2006 18.7343 40.4557 17.9822 40.9661 17.418C41.5034 16.8271 42.6182 16.5316 44.3105 16.5316C45.4656 16.5316 46.3387 16.6659 46.9297 16.9345C47.5206 17.1763 47.9102 17.5389 48.0982 18.0225ZM63.896 32.0045C61.4246 32.0045 59.6651 31.3464 58.6175 30.0301C57.5698 28.7138 57.046 26.8334 57.046 24.3889V12.0186H63.493L63.5333 22.8175C63.5333 24.0263 63.7482 24.8859 64.178 25.3963C64.6078 25.8798 65.4809 26.1216 66.7971 26.1216C68.0597 26.1216 68.9059 25.9067 69.3357 25.4769C69.7923 25.0202 70.0341 24.2546 70.061 23.1801V12.0186H76.508V31.6418H70.3833L70.061 29.4257H69.9401C69.5909 30.2047 68.879 30.836 67.8045 31.3195C66.73 31.7762 65.4271 32.0045 63.896 32.0045ZM92.2539 25.5172C91.5823 26.1887 90.7093 26.5245 89.6348 26.5245C88.2379 26.5245 87.3111 26.1484 86.8545 25.3963C86.4247 24.6173 86.2098 23.4487 86.2098 21.8907C86.2098 20.064 86.4784 18.8552 87.0156 18.2642C87.5798 17.6464 88.4931 17.3375 89.7556 17.3375C91.0988 17.3375 92.2673 17.5389 93.2612 17.9419V22.1727C93.2612 23.7308 92.9254 24.8456 92.2539 25.5172Z" fill="#251249"/>
<path d="M99.1081 25.4634C97.0442 23.2837 97.0442 19.7495 99.1081 17.5698L111.975 3.98007C114.039 1.80029 117.385 1.80029 119.449 3.98007L132.317 17.5698C135.054 19.9821 135.054 22.0281 132.317 25.4634L119.449 39.0531C117.385 41.2329 114.039 41.2329 111.975 39.0531L99.1081 25.4634Z" fill="#6833D1"/>
<path d="M111.751 16.763C113.224 16.763 114.357 17.1807 115.15 18.0162C115.957 18.8376 116.361 20.0909 116.361 21.7761C116.361 23.4471 115.914 24.7641 115.022 25.727C114.13 26.69 112.856 27.1715 111.199 27.1715C110.023 27.1715 108.827 27.1361 107.609 27.0653L107.736 24.0064L107.609 16.8267L111.751 16.763ZM114.109 22.0522C114.109 20.806 113.904 19.8997 113.493 19.3332C113.096 18.7526 112.459 18.4623 111.581 18.4623C111.015 18.4623 110.413 18.4977 109.776 18.5685L109.691 23.8153L109.733 25.4084C110.469 25.4651 111.085 25.4934 111.581 25.4934C113.266 25.4934 114.109 24.3463 114.109 22.0522Z" fill="white"/>
<path d="M123.222 19.2058C122.457 18.6535 121.735 18.3774 121.055 18.3774C120.631 18.3774 120.291 18.4906 120.036 18.7172C119.781 18.9438 119.654 19.2129 119.654 19.5244C119.654 19.8218 119.788 20.0767 120.057 20.2891C120.34 20.5015 120.779 20.7494 121.374 21.0326C121.969 21.3017 122.45 21.5495 122.819 21.7761C123.697 22.3142 124.136 23.0718 124.136 24.0489C124.136 24.6295 123.973 25.1606 123.647 25.6421C123.335 26.1235 122.889 26.5059 122.309 26.7891C121.728 27.0724 120.999 27.214 120.121 27.214C119.243 27.214 118.287 26.9945 117.253 26.5555L117.572 24.5587L117.805 24.41C118.23 24.7782 118.691 25.0615 119.186 25.2597C119.696 25.458 120.163 25.5571 120.588 25.5571C121.027 25.5571 121.374 25.4438 121.629 25.2172C121.884 24.9906 122.011 24.7145 122.011 24.3888C122.011 24.0631 121.87 23.794 121.587 23.5816C121.303 23.3692 120.857 23.1284 120.248 22.8594C119.654 22.5762 119.179 22.3213 118.825 22.0947C117.961 21.5707 117.529 20.8202 117.529 19.843C117.529 19.2483 117.685 18.7172 117.997 18.2499C118.322 17.7684 118.768 17.3861 119.335 17.1028C119.915 16.8196 120.602 16.6851 121.395 16.6993C122.188 16.7134 123.017 16.8904 123.881 17.2303L123.541 19.0783L123.222 19.2058Z" fill="white"/>
</svg>
