<svg width="904" height="612" viewBox="0 0 904 612" fill="none" xmlns="http://www.w3.org/2000/svg">
<path d="M349.223 290.815C348.551 290.815 347.957 290.645 347.442 290.305C346.927 289.962 346.525 289.479 346.234 288.855C345.943 288.228 345.798 287.487 345.798 286.633C345.798 285.785 345.943 285.05 346.234 284.426C346.525 283.803 346.929 283.321 347.448 282.981C347.966 282.642 348.565 282.472 349.244 282.472C349.77 282.472 350.185 282.559 350.489 282.735C350.798 282.906 351.032 283.102 351.193 283.323C351.358 283.54 351.486 283.719 351.577 283.859L351.682 283.859L351.682 279.887L352.922 279.887L352.922 290.647L351.724 290.647L351.724 289.407L351.577 289.407C351.486 289.554 351.356 289.74 351.188 289.964C351.02 290.184 350.78 290.382 350.468 290.557C350.157 290.729 349.742 290.815 349.223 290.815ZM349.391 289.701C349.889 289.701 350.309 289.571 350.652 289.312C350.996 289.05 351.256 288.687 351.435 288.225C351.614 287.759 351.703 287.221 351.703 286.612C351.703 286.009 351.615 285.482 351.44 285.03C351.265 284.575 351.006 284.221 350.663 283.969C350.32 283.713 349.896 283.586 349.391 283.586C348.866 283.586 348.428 283.72 348.078 283.99C347.731 284.256 347.47 284.619 347.295 285.078C347.124 285.533 347.038 286.044 347.038 286.612C347.038 287.186 347.125 287.708 347.3 288.177C347.479 288.643 347.742 289.015 348.088 289.291C348.439 289.564 348.873 289.701 349.391 289.701Z" fill="#9CA3AF"/>
<path d="M359.784 290.815C359.006 290.815 358.336 290.643 357.772 290.3C357.211 289.953 356.779 289.47 356.474 288.85C356.173 288.226 356.022 287.501 356.022 286.675C356.022 285.848 356.173 285.12 356.474 284.489C356.779 283.855 357.203 283.361 357.745 283.008C358.292 282.65 358.929 282.472 359.658 282.472C360.078 282.472 360.493 282.542 360.903 282.682C361.313 282.822 361.686 283.05 362.022 283.365C362.358 283.677 362.626 284.09 362.826 284.605C363.025 285.12 363.125 285.754 363.125 286.507L363.125 287.032L356.905 287.032L356.905 285.96L361.864 285.96C361.864 285.505 361.773 285.099 361.591 284.741C361.413 284.384 361.157 284.102 360.824 283.896C360.495 283.689 360.106 283.586 359.658 283.586C359.164 283.586 358.737 283.708 358.376 283.953C358.019 284.195 357.744 284.51 357.551 284.899C357.358 285.288 357.262 285.705 357.262 286.149L357.262 286.864C357.262 287.473 357.367 287.99 357.577 288.414C357.791 288.834 358.087 289.155 358.465 289.375C358.844 289.592 359.283 289.701 359.784 289.701C360.11 289.701 360.404 289.655 360.667 289.564C360.933 289.47 361.162 289.33 361.355 289.144C361.547 288.955 361.696 288.72 361.801 288.44L362.999 288.776C362.873 289.183 362.661 289.54 362.364 289.848C362.066 290.153 361.698 290.391 361.26 290.563C360.822 290.731 360.33 290.815 359.784 290.815Z" fill="#9CA3AF"/>
<path d="M371.763 284.384L370.649 284.699C370.579 284.514 370.476 284.333 370.339 284.158C370.206 283.98 370.024 283.833 369.793 283.717C369.562 283.601 369.266 283.544 368.905 283.544C368.411 283.544 368 283.657 367.67 283.885C367.345 284.109 367.182 284.395 367.182 284.741C367.182 285.05 367.294 285.293 367.518 285.472C367.742 285.65 368.092 285.799 368.569 285.918L369.767 286.213C370.488 286.388 371.026 286.656 371.38 287.016C371.733 287.374 371.91 287.834 371.91 288.398C371.91 288.86 371.777 289.274 371.511 289.638C371.248 290.002 370.88 290.289 370.408 290.5C369.935 290.71 369.385 290.815 368.758 290.815C367.935 290.815 367.254 290.636 366.714 290.279C366.175 289.922 365.833 289.4 365.69 288.713L366.867 288.419C366.979 288.853 367.191 289.179 367.502 289.396C367.818 289.613 368.229 289.722 368.737 289.722C369.315 289.722 369.774 289.599 370.113 289.354C370.457 289.106 370.628 288.808 370.628 288.461C370.628 288.181 370.53 287.946 370.334 287.757C370.138 287.564 369.837 287.421 369.43 287.326L368.085 287.011C367.346 286.836 366.804 286.565 366.457 286.197C366.114 285.825 365.942 285.361 365.942 284.805C365.942 284.349 366.07 283.946 366.325 283.596C366.585 283.246 366.937 282.971 367.381 282.771C367.83 282.572 368.338 282.472 368.905 282.472C369.704 282.472 370.331 282.647 370.786 282.997C371.245 283.347 371.57 283.81 371.763 284.384Z" fill="#9CA3AF"/>
<path d="M374.812 290.647L374.812 282.577L376.052 282.577L376.052 290.647L374.812 290.647ZM375.443 281.232C375.201 281.232 374.993 281.15 374.817 280.985C374.646 280.82 374.56 280.623 374.56 280.391C374.56 280.16 374.646 279.962 374.817 279.798C374.993 279.633 375.201 279.551 375.443 279.551C375.684 279.551 375.891 279.633 376.063 279.798C376.238 279.962 376.325 280.16 376.325 280.391C376.325 280.623 376.238 280.82 376.063 280.985C375.891 281.15 375.684 281.232 375.443 281.232Z" fill="#9CA3AF"/>
<path d="M382.616 293.841C382.017 293.841 381.502 293.764 381.071 293.61C380.641 293.459 380.282 293.26 379.994 293.011C379.711 292.766 379.485 292.503 379.317 292.223L380.304 291.529C380.416 291.676 380.558 291.845 380.73 292.034C380.901 292.226 381.136 292.393 381.434 292.533C381.735 292.676 382.129 292.748 382.616 292.748C383.267 292.748 383.805 292.591 384.229 292.275C384.653 291.96 384.865 291.466 384.865 290.794L384.865 289.155L384.759 289.155C384.668 289.302 384.539 289.484 384.371 289.701C384.206 289.915 383.968 290.106 383.656 290.274C383.348 290.438 382.931 290.521 382.406 290.521C381.754 290.521 381.169 290.366 380.651 290.058C380.136 289.75 379.728 289.302 379.427 288.713C379.129 288.125 378.98 287.41 378.98 286.57C378.98 285.743 379.126 285.023 379.416 284.41C379.707 283.794 380.112 283.318 380.63 282.981C381.148 282.642 381.747 282.472 382.427 282.472C382.952 282.472 383.369 282.559 383.677 282.735C383.989 282.906 384.227 283.102 384.392 283.323C384.56 283.54 384.689 283.719 384.78 283.859L384.907 283.859L384.907 282.577L386.104 282.577L386.104 290.878C386.104 291.571 385.947 292.135 385.632 292.57C385.32 293.007 384.9 293.328 384.371 293.531C383.845 293.738 383.26 293.841 382.616 293.841ZM382.574 289.407C383.071 289.407 383.492 289.293 383.835 289.065C384.178 288.838 384.439 288.51 384.618 288.083C384.796 287.656 384.886 287.144 384.886 286.549C384.886 285.967 384.798 285.454 384.623 285.009C384.448 284.565 384.189 284.216 383.845 283.964C383.502 283.712 383.078 283.586 382.574 283.586C382.049 283.586 381.611 283.719 381.26 283.985C380.914 284.251 380.653 284.608 380.478 285.057C380.306 285.505 380.22 286.002 380.22 286.549C380.22 287.109 380.308 287.605 380.483 288.036C380.662 288.463 380.924 288.799 381.271 289.044C381.621 289.286 382.056 289.407 382.574 289.407Z" fill="#9CA3AF"/>
<path d="M390.65 285.792L390.65 290.647L389.41 290.647L389.41 282.577L390.607 282.577L390.607 283.838L390.713 283.838C390.902 283.428 391.189 283.099 391.574 282.85C391.959 282.598 392.457 282.472 393.066 282.472C393.613 282.472 394.091 282.584 394.501 282.808C394.91 283.029 395.229 283.365 395.457 283.817C395.684 284.265 395.798 284.833 395.798 285.519L395.798 290.647L394.558 290.647L394.558 285.603C394.558 284.969 394.394 284.475 394.064 284.122C393.735 283.764 393.283 283.586 392.709 283.586C392.313 283.586 391.959 283.671 391.648 283.843C391.34 284.015 391.096 284.265 390.917 284.594C390.739 284.924 390.65 285.323 390.65 285.792Z" fill="#9CA3AF"/>
<path d="M410.012 284.384L408.898 284.699C408.828 284.514 408.725 284.333 408.588 284.158C408.455 283.98 408.273 283.833 408.042 283.717C407.811 283.601 407.515 283.544 407.154 283.544C406.66 283.544 406.249 283.657 405.919 283.885C405.594 284.109 405.431 284.395 405.431 284.741C405.431 285.05 405.543 285.293 405.767 285.472C405.991 285.65 406.341 285.799 406.818 285.918L408.016 286.213C408.737 286.388 409.275 286.656 409.629 287.016C409.982 287.374 410.159 287.834 410.159 288.398C410.159 288.86 410.026 289.274 409.76 289.638C409.497 290.002 409.129 290.289 408.657 290.5C408.184 290.71 407.634 290.815 407.007 290.815C406.184 290.815 405.503 290.636 404.963 290.279C404.424 289.922 404.082 289.4 403.939 288.713L405.116 288.419C405.228 288.853 405.44 289.179 405.751 289.396C406.067 289.613 406.478 289.722 406.986 289.722C407.564 289.722 408.023 289.599 408.362 289.354C408.706 289.106 408.877 288.808 408.877 288.461C408.877 288.181 408.779 287.946 408.583 287.757C408.387 287.564 408.086 287.421 407.679 287.326L406.334 287.011C405.595 286.836 405.053 286.565 404.706 286.197C404.363 285.826 404.191 285.361 404.191 284.805C404.191 284.349 404.319 283.946 404.574 283.596C404.834 283.246 405.186 282.971 405.63 282.771C406.079 282.572 406.587 282.472 407.154 282.472C407.953 282.472 408.58 282.647 409.035 282.997C409.494 283.347 409.819 283.81 410.012 284.384Z" fill="#9CA3AF"/>
<path d="M413.86 293.673C413.65 293.673 413.462 293.655 413.298 293.62C413.133 293.589 413.019 293.557 412.956 293.526L413.271 292.433C413.573 292.51 413.839 292.538 414.07 292.517C414.301 292.496 414.506 292.393 414.685 292.207C414.867 292.025 415.033 291.729 415.184 291.319L415.415 290.689L412.431 282.577L413.776 282.577L416.003 289.008L416.087 289.008L418.315 282.577L419.66 282.577L416.234 291.824C416.08 292.24 415.889 292.585 415.662 292.859C415.434 293.135 415.17 293.34 414.868 293.473C414.571 293.606 414.235 293.673 413.86 293.673Z" fill="#9CA3AF"/>
<path d="M428.048 284.384L426.934 284.699C426.864 284.514 426.761 284.333 426.624 284.158C426.491 283.98 426.309 283.833 426.078 283.717C425.847 283.601 425.551 283.544 425.19 283.544C424.696 283.544 424.285 283.657 423.955 283.885C423.63 284.109 423.467 284.395 423.467 284.741C423.467 285.05 423.579 285.293 423.803 285.472C424.027 285.65 424.378 285.799 424.854 285.918L426.052 286.213C426.773 286.388 427.311 286.656 427.665 287.016C428.018 287.374 428.195 287.834 428.195 288.398C428.195 288.86 428.062 289.274 427.796 289.638C427.533 290.002 427.165 290.289 426.693 290.5C426.22 290.71 425.67 290.815 425.043 290.815C424.22 290.815 423.539 290.636 422.999 290.279C422.46 289.922 422.118 289.4 421.975 288.713L423.152 288.419C423.264 288.853 423.476 289.179 423.787 289.396C424.103 289.613 424.514 289.722 425.022 289.722C425.6 289.722 426.059 289.599 426.398 289.354C426.742 289.106 426.913 288.808 426.913 288.461C426.913 288.181 426.815 287.946 426.619 287.757C426.423 287.564 426.122 287.421 425.715 287.326L424.371 287.011C423.631 286.836 423.089 286.565 422.742 286.197C422.399 285.826 422.227 285.361 422.227 284.805C422.227 284.349 422.355 283.946 422.611 283.596C422.87 283.246 423.222 282.971 423.667 282.771C424.115 282.572 424.623 282.472 425.19 282.472C425.989 282.472 426.616 282.647 427.071 282.997C427.53 283.347 427.855 283.81 428.048 284.384Z" fill="#9CA3AF"/>
<path d="M434.607 282.577L434.607 283.628L430.425 283.628L430.425 282.577L434.607 282.577ZM431.644 280.644L432.884 280.644L432.884 288.335C432.884 288.685 432.934 288.948 433.036 289.123C433.141 289.295 433.274 289.41 433.435 289.47C433.6 289.526 433.773 289.554 433.955 289.554C434.092 289.554 434.204 289.547 434.292 289.533C434.379 289.515 434.449 289.501 434.502 289.491L434.754 290.605C434.67 290.636 434.552 290.668 434.402 290.699C434.251 290.734 434.06 290.752 433.829 290.752C433.479 290.752 433.136 290.676 432.799 290.526C432.467 290.375 432.19 290.146 431.969 289.838C431.752 289.529 431.644 289.141 431.644 288.671L431.644 280.644Z" fill="#9CA3AF"/>
<path d="M440.804 290.815C440.027 290.815 439.356 290.643 438.792 290.3C438.232 289.953 437.799 289.47 437.494 288.85C437.193 288.226 437.042 287.501 437.042 286.675C437.042 285.848 437.193 285.12 437.494 284.489C437.799 283.855 438.223 283.362 438.766 283.008C439.312 282.651 439.95 282.472 440.678 282.472C441.098 282.472 441.513 282.542 441.923 282.682C442.333 282.822 442.706 283.05 443.042 283.365C443.378 283.677 443.646 284.09 443.846 284.605C444.046 285.12 444.146 285.754 444.146 286.507L444.146 287.032L437.925 287.032L437.925 285.96L442.885 285.96C442.885 285.505 442.794 285.099 442.611 284.741C442.433 284.384 442.177 284.102 441.844 283.896C441.515 283.689 441.126 283.586 440.678 283.586C440.184 283.586 439.757 283.708 439.396 283.953C439.039 284.195 438.764 284.51 438.571 284.899C438.379 285.288 438.282 285.705 438.282 286.149L438.282 286.864C438.282 287.473 438.387 287.99 438.598 288.414C438.811 288.834 439.107 289.155 439.485 289.375C439.864 289.592 440.303 289.701 440.804 289.701C441.13 289.701 441.424 289.655 441.687 289.564C441.953 289.47 442.182 289.33 442.375 289.144C442.568 288.955 442.717 288.72 442.822 288.44L444.019 288.776C443.893 289.183 443.681 289.54 443.384 289.848C443.086 290.153 442.718 290.391 442.28 290.563C441.843 290.731 441.351 290.815 440.804 290.815Z" fill="#9CA3AF"/>
<path d="M447.067 290.647L447.067 282.577L448.265 282.577L448.265 283.838L448.37 283.838C448.538 283.407 448.81 283.073 449.184 282.834C449.559 282.593 450.009 282.472 450.535 282.472C451.067 282.472 451.51 282.593 451.864 282.834C452.221 283.073 452.5 283.407 452.699 283.838L452.783 283.838C452.99 283.421 453.3 283.09 453.713 282.845C454.127 282.596 454.622 282.472 455.2 282.472C455.922 282.472 456.512 282.698 456.971 283.15C457.429 283.598 457.659 284.297 457.659 285.246L457.659 290.647L456.419 290.647L456.419 285.246C456.419 284.65 456.256 284.225 455.93 283.969C455.605 283.714 455.221 283.586 454.78 283.586C454.212 283.586 453.773 283.757 453.461 284.101C453.149 284.44 452.993 284.871 452.993 285.393L452.993 290.647L451.733 290.647L451.733 285.12C451.733 284.661 451.584 284.291 451.286 284.011C450.988 283.728 450.605 283.586 450.135 283.586C449.813 283.586 449.512 283.671 449.232 283.843C448.955 284.015 448.731 284.253 448.559 284.558C448.391 284.859 448.307 285.207 448.307 285.603L448.307 290.647L447.067 290.647Z" fill="#9CA3AF"/>
<path d="M465.927 290.647L465.927 289.701L470.508 283.817L470.508 283.733L466.074 283.733L466.074 282.577L472.105 282.577L472.105 283.565L467.65 289.407L467.65 289.491L472.252 289.491L472.252 290.647L465.927 290.647Z" fill="#9CA3AF"/>
<path d="M478.35 290.815C477.572 290.815 476.902 290.643 476.338 290.3C475.777 289.953 475.345 289.47 475.04 288.85C474.739 288.226 474.588 287.501 474.588 286.675C474.588 285.848 474.739 285.12 475.04 284.489C475.345 283.855 475.769 283.362 476.311 283.008C476.858 282.651 477.495 282.472 478.224 282.472C478.644 282.472 479.059 282.542 479.469 282.682C479.879 282.822 480.252 283.05 480.588 283.365C480.924 283.677 481.192 284.09 481.392 284.605C481.591 285.12 481.691 285.754 481.691 286.507L481.691 287.032L475.471 287.032L475.471 285.96L480.43 285.96C480.43 285.505 480.339 285.099 480.157 284.741C479.979 284.384 479.723 284.102 479.39 283.896C479.061 283.689 478.672 283.586 478.224 283.586C477.73 283.586 477.303 283.708 476.942 283.953C476.585 284.195 476.31 284.51 476.117 284.899C475.924 285.288 475.828 285.705 475.828 286.149L475.828 286.864C475.828 287.473 475.933 287.99 476.143 288.414C476.357 288.834 476.653 289.155 477.031 289.375C477.409 289.592 477.849 289.701 478.35 289.701C478.676 289.701 478.97 289.655 479.232 289.564C479.499 289.47 479.728 289.33 479.921 289.144C480.113 288.955 480.262 288.72 480.367 288.44L481.565 288.776C481.439 289.183 481.227 289.54 480.929 289.848C480.632 290.153 480.264 290.391 479.826 290.563C479.388 290.731 478.896 290.815 478.35 290.815Z" fill="#9CA3AF"/>
<path d="M485.853 285.792L485.853 290.647L484.613 290.647L484.613 282.577L485.811 282.577L485.811 283.838L485.916 283.838C486.105 283.428 486.392 283.099 486.777 282.85C487.163 282.598 487.66 282.472 488.27 282.472C488.816 282.472 489.294 282.584 489.704 282.808C490.114 283.029 490.432 283.365 490.66 283.817C490.888 284.265 491.001 284.833 491.001 285.519L491.001 290.647L489.762 290.647L489.762 285.603C489.762 284.969 489.597 284.475 489.268 284.122C488.939 283.764 488.487 283.586 487.912 283.586C487.517 283.586 487.163 283.671 486.851 283.843C486.543 284.015 486.299 284.265 486.121 284.594C485.942 284.924 485.853 285.323 485.853 285.792Z" fill="#9CA3AF"/>
<path d="M495.459 287.705L495.438 286.171L495.69 286.171L499.22 282.577L500.754 282.577L496.993 286.381L496.888 286.381L495.459 287.705ZM494.303 290.647L494.303 279.887L495.543 279.887L495.543 290.647L494.303 290.647ZM499.43 290.647L496.278 286.654L497.161 285.792L501.007 290.647L499.43 290.647Z" fill="#9CA3AF"/>
<path d="M504.626 279.887L504.626 290.647L503.386 290.647L503.386 279.887L504.626 279.887Z" fill="#9CA3AF"/>
<path d="M513.018 287.347L513.018 282.577L514.258 282.577L514.258 290.647L513.018 290.647L513.018 289.281L512.934 289.281C512.745 289.691 512.45 290.039 512.051 290.326C511.652 290.61 511.148 290.752 510.538 290.752C510.034 290.752 509.585 290.641 509.193 290.421C508.801 290.197 508.493 289.86 508.268 289.412C508.044 288.96 507.932 288.391 507.932 287.705L507.932 282.577L509.172 282.577L509.172 287.621C509.172 288.209 509.337 288.678 509.666 289.029C509.999 289.379 510.422 289.554 510.937 289.554C511.246 289.554 511.559 289.475 511.878 289.318C512.2 289.16 512.47 288.918 512.687 288.592C512.908 288.267 513.018 287.852 513.018 287.347Z" fill="#9CA3AF"/>
<path d="M517.732 290.647L517.732 279.887L518.972 279.887L518.972 283.859L519.077 283.859C519.168 283.719 519.295 283.54 519.456 283.323C519.62 283.102 519.855 282.906 520.16 282.735C520.468 282.559 520.885 282.472 521.41 282.472C522.089 282.472 522.688 282.642 523.207 282.982C523.725 283.321 524.13 283.803 524.42 284.426C524.711 285.05 524.856 285.785 524.856 286.633C524.856 287.487 524.711 288.228 524.42 288.855C524.13 289.479 523.727 289.962 523.212 290.305C522.697 290.645 522.103 290.815 521.431 290.815C520.913 290.815 520.498 290.729 520.186 290.557C519.874 290.382 519.634 290.184 519.466 289.964C519.298 289.74 519.168 289.554 519.077 289.407L518.93 289.407L518.93 290.647L517.732 290.647ZM518.951 286.612C518.951 287.221 519.041 287.759 519.219 288.225C519.398 288.687 519.659 289.05 520.002 289.312C520.345 289.571 520.766 289.701 521.263 289.701C521.781 289.701 522.214 289.564 522.561 289.291C522.911 289.015 523.174 288.643 523.349 288.177C523.527 287.708 523.617 287.186 523.617 286.612C523.617 286.044 523.529 285.533 523.354 285.078C523.182 284.619 522.921 284.256 522.571 283.99C522.224 283.721 521.788 283.586 521.263 283.586C520.759 283.586 520.335 283.714 519.992 283.969C519.648 284.221 519.389 284.575 519.214 285.03C519.039 285.482 518.951 286.009 518.951 286.612Z" fill="#9CA3AF"/>
<path fill-rule="evenodd" clip-rule="evenodd" d="M519.465 235.285C514.289 240.782 514.289 249.695 519.465 255.192L525.562 262.109V267.968H511.338L510.777 261.324H510.402C509.342 263.819 507.813 265.691 505.817 266.938C503.883 268.186 501.044 268.81 497.301 268.81C491.25 268.81 486.82 267.063 484.013 263.57C481.206 260.014 479.74 254.68 479.615 247.568C479.552 241.204 480.208 236.151 481.58 232.408C482.953 228.665 485.105 225.982 488.037 224.36C490.969 222.738 494.712 221.927 499.266 221.927C501.637 221.927 503.789 222.145 505.723 222.582C507.657 222.956 509.217 223.487 510.402 224.173L510.589 224.079V204.989H525.562V227.927L519.465 235.285ZM294 234.56V222.395H300.644V220.056C300.644 213.879 302.079 209.45 304.949 206.767C307.818 204.022 312.092 202.65 317.769 202.65C319.765 202.65 321.606 202.837 323.29 203.211C324.975 203.523 326.441 203.898 327.688 204.334V214.815L327.408 215.002C326.285 214.878 325.162 214.784 324.039 214.722C322.916 214.597 321.855 214.534 320.857 214.534C318.736 214.534 317.239 214.94 316.365 215.751C315.554 216.5 315.149 217.685 315.149 219.307V222.395H327.688V234.56H315.149V267.968H300.644V234.56H294ZM350.184 267.968H335.211V222.395H347.376L348.593 231.753H348.874C349.435 228.259 350.776 225.764 352.898 224.267C355.019 222.707 358.169 221.927 362.349 221.927C364.033 221.927 365.562 222.021 366.934 222.208C368.307 222.333 369.461 222.457 370.397 222.582V237.18L370.21 237.368C369.211 237.118 368.057 236.9 366.747 236.713C365.5 236.525 364.065 236.432 362.443 236.432C360.134 236.432 358.044 236.806 356.173 237.555C354.364 238.303 352.929 239.769 351.868 241.953C350.87 244.074 350.371 247.256 350.371 251.498L350.184 267.968ZM409.82 268.155C412.94 267.656 415.373 267.094 417.12 266.471V256.083L416.745 255.803C414.499 256.115 412.285 256.364 410.101 256.551C407.98 256.676 405.298 256.738 402.053 256.738C397.187 256.738 393.663 256.302 391.479 255.428C389.358 254.555 388.079 252.746 387.642 250.001H418.43L418.804 249.626C419.054 248.316 419.21 246.975 419.272 245.603C419.397 244.23 419.459 242.951 419.459 241.766C419.459 237.711 418.742 234.217 417.307 231.285C415.934 228.29 413.595 225.982 410.288 224.36C407.044 222.738 402.584 221.927 396.907 221.927C388.984 221.927 383.119 223.767 379.314 227.448C375.571 231.129 373.699 237.087 373.699 245.322C373.699 251.373 374.666 256.115 376.6 259.546C378.534 262.915 381.373 265.316 385.116 266.751C388.921 268.124 393.507 268.81 398.872 268.81C403.114 268.81 406.764 268.592 409.82 268.155ZM405.703 236.338C406.202 237.399 406.452 238.678 406.452 240.175H387.362C387.362 237.991 387.954 236.245 389.14 234.935C390.387 233.562 392.976 232.876 396.907 232.876C399.589 232.876 401.617 233.188 402.989 233.812C404.362 234.373 405.266 235.215 405.703 236.338ZM442.392 268.81C436.652 268.81 432.566 267.282 430.133 264.225C427.7 261.168 426.483 256.801 426.483 251.124V222.395H441.456L441.55 247.474C441.55 250.281 442.049 252.278 443.047 253.463C444.045 254.586 446.072 255.148 449.129 255.148C452.062 255.148 454.027 254.648 455.025 253.65C456.085 252.59 456.647 250.812 456.709 248.316V222.395H471.682V267.968H457.458L456.709 262.821H456.429C455.618 264.63 453.964 266.096 451.469 267.219C448.973 268.28 445.948 268.81 442.392 268.81ZM508.25 253.744C506.69 255.304 504.663 256.083 502.167 256.083C498.923 256.083 496.771 255.21 495.71 253.463C494.712 251.654 494.213 248.94 494.213 245.322C494.213 241.08 494.837 238.272 496.085 236.9C497.395 235.465 499.516 234.747 502.448 234.747C505.567 234.747 508.281 235.215 510.589 236.151V245.977C510.589 249.595 509.81 252.184 508.25 253.744Z" fill="#241249"/>
<path d="M524.034 254.455C519.242 249.365 519.242 241.113 524.034 236.024L553.909 204.293C558.701 199.204 566.47 199.204 571.262 204.293L601.136 236.024C607.491 241.656 607.491 246.434 601.136 254.455L571.262 286.185C566.47 291.275 558.7 291.275 553.909 286.185L524.034 254.455Z" fill="#6732D1"/>
<path d="M553.53 233.415C556.95 233.415 559.581 234.385 561.423 236.325C563.298 238.233 564.235 241.143 564.235 245.057C564.235 248.938 563.199 251.996 561.127 254.233C559.055 256.469 556.095 257.587 552.247 257.587C549.518 257.587 546.739 257.505 543.91 257.34L544.206 250.237L543.91 233.562L553.53 233.415ZM559.006 245.698C559.006 242.804 558.529 240.699 557.575 239.384C556.654 238.035 555.174 237.361 553.135 237.361C551.82 237.361 550.422 237.443 548.942 237.608L548.745 249.793L548.843 253.493C550.554 253.624 551.984 253.69 553.135 253.69C557.049 253.69 559.006 251.026 559.006 245.698Z" fill="white"/>
<path d="M580.17 239.088C578.394 237.805 576.717 237.164 575.138 237.164C574.152 237.164 573.362 237.427 572.77 237.953C572.179 238.479 571.883 239.104 571.883 239.828C571.883 240.518 572.195 241.11 572.82 241.604C573.478 242.097 574.497 242.672 575.878 243.33C577.26 243.955 578.378 244.531 579.233 245.057C581.272 246.307 582.292 248.066 582.292 250.335C582.292 251.684 581.913 252.917 581.157 254.035C580.433 255.153 579.397 256.041 578.049 256.699C576.701 257.357 575.007 257.686 572.968 257.686C570.929 257.686 568.709 257.176 566.308 256.157L567.048 251.519L567.591 251.174C568.577 252.029 569.646 252.687 570.797 253.147C571.981 253.608 573.066 253.838 574.053 253.838C575.073 253.838 575.878 253.575 576.47 253.049C577.062 252.522 577.358 251.881 577.358 251.125C577.358 250.368 577.029 249.743 576.372 249.25C575.714 248.757 574.678 248.198 573.264 247.573C571.883 246.915 570.781 246.323 569.959 245.797C567.952 244.58 566.949 242.837 566.949 240.568C566.949 239.186 567.311 237.953 568.035 236.868C568.791 235.75 569.827 234.862 571.143 234.204C572.491 233.546 574.086 233.234 575.928 233.267C577.769 233.299 579.693 233.71 581.7 234.5L580.91 238.792L580.17 239.088Z" fill="white"/>
<path d="M135.594 515.393C135.224 515.386 134.864 515.273 134.557 515.067L130.295 512.33C129.811 512.097 129.28 511.976 128.743 511.975H119.241C117.056 511.973 114.962 511.105 113.417 509.563C111.872 508.022 111.003 505.931 111 503.751V488.221C111.004 486.041 111.873 483.952 113.418 482.411C114.963 480.87 117.057 480.003 119.241 480H134.159C136.341 480.006 138.432 480.874 139.974 482.415C141.516 483.955 142.383 486.043 142.386 488.221V503.765C142.384 505.339 141.93 506.88 141.079 508.205C140.227 509.53 139.013 510.584 137.58 511.242L137.182 511.465V513.649C137.175 514.808 136.383 515.393 135.594 515.393ZM128.735 510.639C129.531 510.639 130.314 510.835 131.016 511.21L135.278 513.943C135.37 514.011 135.48 514.052 135.594 514.06C135.804 514.06 135.847 513.829 135.847 513.634V511.532C135.821 511.303 135.86 511.071 135.96 510.863C136.06 510.655 136.216 510.479 136.411 510.355L137.001 510.026C138.207 509.477 139.23 508.594 139.948 507.481C140.666 506.369 141.049 505.074 141.05 503.751V488.221C141.048 486.395 140.32 484.645 139.026 483.353C137.732 482.062 135.978 481.336 134.149 481.333H119.23C117.402 481.338 115.65 482.065 114.358 483.356C113.065 484.647 112.338 486.396 112.336 488.221V503.765C112.337 505.592 113.066 507.344 114.36 508.636C115.655 509.928 117.41 510.655 119.241 510.657L128.735 510.639Z" fill="#6732D1"/>
<path fill-rule="evenodd" clip-rule="evenodd" d="M135.589 515.726C135.155 515.719 134.734 515.587 134.374 515.346L130.132 512.622C129.698 512.416 129.223 512.31 128.742 512.309H119.241C116.968 512.306 114.788 511.404 113.181 509.8C111.573 508.196 110.669 506.02 110.666 503.751L110.666 488.221C110.67 485.952 111.575 483.778 113.182 482.174C114.789 480.571 116.968 479.669 119.24 479.666L134.159 479.666C136.429 479.672 138.606 480.575 140.21 482.178C141.814 483.782 142.717 485.954 142.72 488.22V503.765C142.718 505.403 142.246 507.007 141.359 508.385C140.476 509.76 139.217 510.854 137.732 511.539L137.516 511.66V513.651C137.512 514.31 137.282 514.834 136.915 515.194C136.551 515.55 136.07 515.727 135.594 515.727L135.589 515.726ZM137.182 511.465L137.58 511.242C139.013 510.583 140.227 509.53 141.078 508.205C141.93 506.88 142.384 505.339 142.386 503.765V488.221C142.383 486.043 141.516 483.955 139.974 482.415C138.432 480.874 136.341 480.006 134.159 480H119.241C117.057 480.003 114.963 480.87 113.418 482.411C111.873 483.952 111.004 486.041 111 488.221V503.751C111.003 505.931 111.872 508.022 113.417 509.563C114.962 511.105 117.056 511.973 119.241 511.975H128.742C129.28 511.976 129.811 512.097 130.295 512.33L134.557 515.067C134.864 515.273 135.224 515.386 135.594 515.393C136.383 515.393 137.175 514.808 137.182 513.649V511.465ZM128.735 510.305C129.586 510.305 130.423 510.514 131.173 510.915L131.185 510.921L135.468 513.668L135.477 513.675C135.488 513.683 135.499 513.69 135.511 513.696C135.512 513.677 135.513 513.656 135.513 513.634V511.55C135.484 511.265 135.535 510.977 135.659 510.718C135.786 510.454 135.985 510.23 136.233 510.073L136.24 510.068L136.85 509.727L136.863 509.722C138.011 509.199 138.984 508.359 139.668 507.3C140.351 506.242 140.715 505.01 140.716 503.751V488.221C140.714 486.484 140.021 484.818 138.79 483.59C137.559 482.361 135.89 481.669 134.148 481.667H119.23C117.49 481.671 115.823 482.364 114.594 483.592C113.364 484.82 112.672 486.485 112.669 488.221V503.765C112.671 505.504 113.364 507.17 114.596 508.4C115.828 509.629 117.498 510.321 119.241 510.323L128.735 510.305ZM119.241 510.657C117.41 510.655 115.655 509.928 114.36 508.636C113.065 507.344 112.337 505.592 112.335 503.765V488.221C112.338 486.396 113.065 484.647 114.358 483.356C115.65 482.065 117.402 481.337 119.23 481.333H134.149C135.978 481.336 137.732 482.062 139.026 483.353C140.319 484.644 141.048 486.395 141.05 488.221V503.751C141.049 505.074 140.666 506.369 139.948 507.481C139.23 508.594 138.207 509.477 137.001 510.026L136.411 510.355C136.216 510.479 136.06 510.655 135.96 510.863C135.86 511.071 135.821 511.303 135.847 511.532V513.634C135.847 513.829 135.804 514.06 135.594 514.06C135.48 514.052 135.37 514.011 135.278 513.943L131.016 511.21C130.314 510.835 129.531 510.639 128.735 510.639L119.241 510.657Z" fill="#6732D1"/>
<path d="M182.264 504.377L182.274 504.388L182.285 504.398C182.629 504.719 183.055 504.875 183.534 504.875C184.024 504.875 184.459 504.723 184.794 504.388L184.8 504.382L184.805 504.377C185.126 504.033 185.282 503.608 185.282 503.13V495.917C185.282 495.371 185.428 494.908 185.712 494.511L185.714 494.508L185.716 494.505C186.012 494.077 186.414 493.732 186.933 493.473C187.446 493.217 188.027 493.085 188.683 493.085C189.751 493.085 190.607 493.395 191.284 493.996L191.288 494L191.291 494.003C191.942 494.554 192.314 495.463 192.314 496.838V503.13C192.314 503.608 192.47 504.033 192.791 504.377L192.801 504.388L192.813 504.398C193.157 504.719 193.583 504.875 194.062 504.875C194.54 504.875 194.965 504.719 195.296 504.388C195.638 504.046 195.81 503.617 195.81 503.13V496.838C195.81 495.369 195.526 494.097 194.935 493.044C194.367 492.002 193.573 491.207 192.556 490.67C191.562 490.12 190.438 489.85 189.195 489.85C188.271 489.85 187.403 490.013 186.594 490.343C186.082 490.552 185.614 490.812 185.194 491.122C185.115 490.876 184.984 490.655 184.794 490.465C184.459 490.13 184.024 489.978 183.534 489.978C183.055 489.978 182.629 490.134 182.285 490.454L182.279 490.46L182.274 490.465C181.939 490.8 181.786 491.234 181.786 491.723V503.13C181.786 503.608 181.942 504.033 182.264 504.377Z" fill="#6732D1"/>
<path fill-rule="evenodd" clip-rule="evenodd" d="M168.662 503.927L168.665 503.929L168.669 503.93C169.852 504.564 171.19 504.875 172.673 504.875C173.514 504.875 174.382 504.721 175.275 504.419C176.183 504.118 176.956 503.723 177.585 503.227C177.965 502.937 178.192 502.545 178.165 502.066C178.14 501.614 177.91 501.232 177.555 500.92L177.551 500.917L177.548 500.914C177.237 500.653 176.863 500.535 176.455 500.555C176.066 500.558 175.707 500.686 175.386 500.921L175.384 500.922L175.382 500.923C175.086 501.144 174.677 501.355 174.141 501.549C173.637 501.721 173.148 501.804 172.673 501.804C171.465 501.804 170.465 501.467 169.648 500.809C168.975 500.243 168.526 499.546 168.296 498.707H177.493C177.93 498.707 178.324 498.573 178.639 498.284L178.645 498.278L178.652 498.272C178.96 497.966 179.114 497.581 179.114 497.146C179.114 495.749 178.848 494.5 178.3 493.41C177.769 492.302 176.987 491.43 175.956 490.807C174.917 490.163 173.688 489.85 172.288 489.85C170.869 489.85 169.594 490.172 168.477 490.827C167.363 491.463 166.487 492.354 165.851 493.491L165.85 493.494C165.228 494.621 164.924 495.92 164.924 497.375C164.924 498.819 165.247 500.119 165.905 501.264L165.907 501.267L165.909 501.271C166.582 502.391 167.502 503.278 168.662 503.927ZM174.737 493.855L174.739 493.857L174.741 493.859C175.246 494.373 175.595 495.012 175.781 495.789H168.334C168.564 495.009 168.965 494.367 169.535 493.851C170.206 493.243 171.109 492.921 172.288 492.921C173.352 492.921 174.151 493.243 174.737 493.855Z" fill="#6732D1"/>
<path d="M151.313 501.983L151.312 501.985C151.083 502.287 150.991 502.662 150.991 503.067C150.991 503.535 151.11 503.967 151.424 504.279C151.739 504.591 152.174 504.708 152.646 504.708H161.432C161.905 504.708 162.34 504.591 162.655 504.279C162.969 503.967 163.088 503.535 163.088 503.067C163.088 502.598 162.969 502.166 162.655 501.854C162.34 501.542 161.905 501.425 161.432 501.425H155.779L162.509 492.574L162.509 492.573C162.738 492.271 162.83 491.896 162.83 491.491C162.83 491.023 162.712 490.591 162.397 490.279C162.083 489.967 161.647 489.85 161.175 489.85H153.057C152.584 489.85 152.149 489.967 151.834 490.279C151.52 490.591 151.401 491.023 151.401 491.491C151.401 491.96 151.52 492.392 151.834 492.704C152.149 493.016 152.584 493.133 153.057 493.133H158.066L151.313 501.983Z" fill="#6732D1"/>
<path d="M227.462 504.875C226.168 504.875 225.011 504.615 223.991 504.095C222.97 503.556 222.159 502.776 221.558 501.753C220.975 500.731 220.684 499.484 220.684 498.013V491.018C220.684 490.731 220.784 490.489 220.984 490.292C221.185 490.095 221.431 489.996 221.722 489.996C222.032 489.996 222.287 490.095 222.487 490.292C222.688 490.489 222.788 490.731 222.788 491.018V498.013C222.788 499.663 223.253 500.892 224.182 501.699C225.111 502.507 226.277 502.91 227.68 502.91C228.573 502.91 229.375 502.74 230.085 502.399C230.814 502.058 231.388 501.592 231.807 501C232.226 500.408 232.436 499.735 232.436 498.981V490.873C232.436 490.568 232.527 490.325 232.709 490.146C232.909 489.949 233.165 489.85 233.474 489.85C233.784 489.85 234.039 489.949 234.24 490.146C234.44 490.325 234.54 490.568 234.54 490.873V503.746C234.54 504.069 234.44 504.329 234.24 504.526C234.039 504.706 233.784 504.795 233.474 504.795C233.165 504.795 232.909 504.706 232.709 504.526C232.527 504.329 232.436 504.069 232.436 503.746V502.749C231.834 503.413 231.106 503.933 230.249 504.31C229.393 504.687 228.464 504.875 227.462 504.875Z" fill="#6732D1"/>
<path d="M217.817 504.875C216.761 504.875 215.889 504.444 215.203 503.582C214.516 502.702 214.173 501.58 214.173 500.216V484.863C214.173 484.558 214.261 484.316 214.437 484.136C214.631 483.939 214.877 483.84 215.176 483.84C215.475 483.84 215.713 483.939 215.889 484.136C216.083 484.316 216.18 484.558 216.18 484.863V500.216C216.18 500.988 216.329 501.616 216.629 502.101C216.945 502.586 217.341 502.828 217.817 502.828H218.477C218.741 502.828 218.952 502.927 219.111 503.124C219.269 503.304 219.348 503.546 219.348 503.852C219.348 504.157 219.234 504.408 219.005 504.606C218.794 504.785 218.512 504.875 218.16 504.875H217.817Z" fill="#6732D1"/>
<path d="M201.17 504.759C200.865 504.759 200.615 504.669 200.418 504.489C200.239 504.291 200.149 504.039 200.149 503.733V484.699C200.149 484.393 200.239 484.15 200.418 483.97C200.615 483.772 200.865 483.673 201.17 483.673C201.474 483.673 201.715 483.772 201.894 483.97C202.091 484.15 202.19 484.393 202.19 484.699V496.983L209.76 490.098C210.225 489.684 210.664 489.702 211.076 490.152C211.272 490.368 211.362 490.602 211.344 490.854C211.344 491.088 211.237 491.295 211.022 491.475L205.653 496.362L211.237 503.274C211.63 503.76 211.586 504.21 211.102 504.624C210.87 504.822 210.628 504.903 210.378 504.867C210.127 504.849 209.912 504.723 209.733 504.489L204.203 497.658L202.19 499.521V503.733C202.19 504.039 202.091 504.291 201.894 504.489C201.715 504.669 201.474 504.759 201.17 504.759Z" fill="#6732D1"/>
<path fill-rule="evenodd" clip-rule="evenodd" d="M241.722 503.904C242.857 504.551 244.127 504.875 245.532 504.875C246.974 504.875 248.262 504.551 249.397 503.904C250.532 503.238 251.424 502.339 252.072 501.206C252.739 500.073 253.072 498.788 253.072 497.349C253.072 495.928 252.748 494.651 252.099 493.518C251.469 492.385 250.604 491.495 249.505 490.848C248.406 490.183 247.163 489.85 245.776 489.85C244.569 489.85 243.47 490.111 242.479 490.632C241.506 491.136 240.722 491.81 240.128 492.655V484.725C240.128 484.401 240.029 484.149 239.83 483.969C239.65 483.772 239.407 483.673 239.101 483.673C238.777 483.673 238.515 483.772 238.317 483.969C238.137 484.149 238.047 484.401 238.047 484.725V503.744C238.047 504.068 238.146 504.319 238.344 504.499C238.524 504.697 238.768 504.796 239.074 504.796C239.398 504.796 239.659 504.697 239.857 504.499C240.038 504.319 240.128 504.068 240.128 503.744V502.669C240.595 503.147 241.127 503.559 241.722 503.904ZM248.343 502.258C247.514 502.744 246.577 502.987 245.532 502.987C244.506 502.987 243.578 502.744 242.749 502.258C241.92 501.755 241.272 501.08 240.803 500.235C240.335 499.39 240.101 498.428 240.101 497.349C240.101 496.288 240.335 495.335 240.803 494.49C241.272 493.626 241.92 492.952 242.749 492.466C243.578 491.981 244.506 491.738 245.532 491.738C246.577 491.738 247.514 491.981 248.343 492.466C249.172 492.952 249.82 493.626 250.289 494.49C250.775 495.335 251.018 496.288 251.018 497.349C251.018 498.428 250.775 499.39 250.289 500.235C249.82 501.08 249.172 501.755 248.343 502.258Z" fill="#6732D1"/>
<path d="M120.059 501.691L120.058 501.693C119.789 502.046 119.682 502.484 119.682 502.957C119.682 503.504 119.82 504.009 120.189 504.374C120.558 504.738 121.07 504.875 121.623 504.875H131.93C132.484 504.875 132.995 504.738 133.364 504.374C133.733 504.009 133.872 503.504 133.872 502.957C133.872 502.41 133.733 501.905 133.364 501.54C132.995 501.176 132.484 501.039 131.93 501.039H125.299L133.193 490.696L133.194 490.695C133.462 490.342 133.57 489.904 133.57 489.431C133.57 488.884 133.431 488.379 133.062 488.014C132.693 487.65 132.182 487.513 131.628 487.513H122.105C121.551 487.513 121.04 487.65 120.671 488.014C120.302 488.379 120.163 488.884 120.163 489.431C120.163 489.978 120.302 490.483 120.671 490.847C121.04 491.212 121.551 491.349 122.105 491.349H127.981L120.059 501.691Z" fill="#6732D1"/>
<path d="M365.667 515.393C365.297 515.386 364.936 515.273 364.63 515.067L360.367 512.33C359.883 512.097 359.352 511.976 358.815 511.975H349.313C347.128 511.973 345.034 511.105 343.489 509.563C341.944 508.022 341.075 505.931 341.072 503.751V488.221C341.076 486.041 341.946 483.952 343.49 482.411C345.035 480.87 347.129 480.003 349.313 480H364.232C366.414 480.006 368.504 480.874 370.046 482.415C371.588 483.955 372.455 486.043 372.458 488.221V503.765C372.456 505.339 372.002 506.88 371.151 508.205C370.299 509.53 369.085 510.584 367.652 511.242L367.254 511.465V513.649C367.247 514.808 366.455 515.393 365.667 515.393ZM358.808 510.639C359.603 510.639 360.387 510.835 361.088 511.21L365.351 513.943C365.443 514.011 365.552 514.052 365.667 514.06C365.876 514.06 365.919 513.829 365.919 513.634V511.532C365.893 511.303 365.932 511.071 366.032 510.863C366.132 510.655 366.288 510.479 366.484 510.355L367.073 510.026C368.28 509.477 369.303 508.594 370.021 507.481C370.738 506.369 371.121 505.074 371.123 503.751V488.221C371.12 486.395 370.392 484.645 369.098 483.353C367.804 482.062 366.051 481.336 364.221 481.333H349.302C347.474 481.338 345.722 482.065 344.43 483.356C343.138 484.647 342.411 486.396 342.408 488.221V503.765C342.41 505.592 343.138 507.344 344.432 508.636C345.727 509.928 347.482 510.655 349.313 510.657L358.808 510.639Z" fill="#6732D1"/>
<path fill-rule="evenodd" clip-rule="evenodd" d="M365.661 515.726C365.228 515.719 364.806 515.587 364.446 515.346L360.204 512.622C359.77 512.416 359.295 512.31 358.814 512.309H349.313C347.04 512.306 344.86 511.404 343.253 509.8C341.646 508.196 340.741 506.02 340.738 503.751L340.738 488.221C340.742 485.952 341.647 483.778 343.254 482.174C344.862 480.571 347.04 479.669 349.313 479.666L364.232 479.666C366.502 479.672 368.678 480.575 370.282 482.178C371.887 483.782 372.789 485.954 372.792 488.22V503.765C372.79 505.403 372.318 507.007 371.432 508.385C370.548 509.76 369.289 510.854 367.804 511.539L367.588 511.66V513.651C367.584 514.31 367.355 514.834 366.987 515.194C366.623 515.55 366.142 515.727 365.667 515.727L365.661 515.726ZM367.254 511.465L367.652 511.242C369.085 510.583 370.299 509.53 371.151 508.205C372.002 506.88 372.456 505.339 372.458 503.765V488.221C372.455 486.043 371.588 483.955 370.046 482.415C368.504 480.874 366.414 480.006 364.232 480H349.313C347.129 480.003 345.035 480.87 343.49 482.411C341.945 483.952 341.076 486.041 341.072 488.221V503.751C341.075 505.931 341.944 508.022 343.489 509.563C345.034 511.105 347.128 511.973 349.313 511.975H358.815C359.352 511.976 359.883 512.097 360.367 512.33L364.629 515.067C364.936 515.273 365.297 515.386 365.667 515.393C366.455 515.393 367.247 514.808 367.254 513.649V511.465ZM358.808 510.305C359.658 510.305 360.495 510.514 361.245 510.915L361.257 510.921L365.54 513.668L365.55 513.675C365.56 513.683 365.571 513.69 365.583 513.696C365.584 513.677 365.585 513.656 365.585 513.634V511.55C365.556 511.265 365.607 510.977 365.731 510.718C365.858 510.454 366.057 510.23 366.305 510.073L366.313 510.068L366.922 509.727L366.935 509.722C368.083 509.199 369.057 508.359 369.74 507.3C370.423 506.242 370.787 505.01 370.789 503.751V488.221C370.786 486.484 370.093 484.818 368.862 483.59C367.631 482.361 365.962 481.669 364.221 481.667H349.303C347.563 481.671 345.895 482.364 344.666 483.592C343.436 484.82 342.744 486.485 342.742 488.221V503.765C342.743 505.504 343.436 507.17 344.668 508.4C345.9 509.629 347.571 510.321 349.313 510.323L358.808 510.305ZM349.313 510.657C347.482 510.655 345.727 509.928 344.432 508.636C343.138 507.344 342.41 505.592 342.408 503.765V488.221C342.411 486.396 343.138 484.647 344.43 483.356C345.722 482.065 347.474 481.337 349.302 481.333H364.221C366.051 481.336 367.804 482.062 369.098 483.353C370.392 484.644 371.12 486.395 371.123 488.221V503.751C371.121 505.074 370.738 506.369 370.02 507.481C369.303 508.594 368.28 509.477 367.073 510.026L366.484 510.355C366.288 510.479 366.132 510.655 366.032 510.863C365.932 511.071 365.893 511.303 365.919 511.532V513.634C365.919 513.829 365.876 514.06 365.667 514.06C365.552 514.052 365.443 514.011 365.351 513.943L361.088 511.21C360.387 510.835 359.603 510.639 358.808 510.639L349.313 510.657Z" fill="#6732D1"/>
<path d="M391.819 500.728H386.077L392.908 491.766C393.133 491.446 393.247 491.063 393.231 490.673C393.231 489.619 392.621 489.015 391.556 489.015H382.648C381.583 489.015 380.973 489.619 380.973 490.673C380.973 491.727 381.583 492.328 382.648 492.328H388.426L381.558 501.293C381.332 501.611 381.218 501.994 381.235 502.383C381.235 503.437 381.845 504.041 382.91 504.041H391.819C392.883 504.041 393.494 503.437 393.494 502.383C393.494 501.329 392.883 500.728 391.819 500.728Z" fill="#6732D1"/>
<path d="M406.462 489.79C405.345 489.145 404.071 488.82 402.78 488.851C401.436 488.832 400.11 489.168 398.94 489.826C397.815 490.464 396.893 491.402 396.28 492.535C395.636 493.74 395.31 495.086 395.331 496.449C395.308 497.82 395.656 499.171 396.337 500.363C397 501.508 397.972 502.447 399.143 503.072C400.16 503.607 401.276 503.929 402.423 504.016C403.571 504.104 404.723 503.956 405.81 503.581C406.646 503.314 407.431 502.907 408.128 502.377C408.311 502.25 408.46 502.082 408.563 501.886C408.665 501.69 408.719 501.472 408.719 501.251C408.699 500.822 408.511 500.418 408.196 500.124C407.881 499.83 407.464 499.67 407.031 499.676C406.625 499.669 406.228 499.801 405.907 500.05C405.522 500.324 405.095 500.536 404.644 500.679C404.168 500.845 403.669 500.933 403.165 500.941C402.057 500.979 400.973 500.62 400.11 499.929C399.43 499.387 398.946 498.64 398.731 497.801H408.05C408.264 497.807 408.477 497.77 408.676 497.694C408.876 497.617 409.059 497.502 409.213 497.355C409.366 497.209 409.487 497.034 409.568 496.84C409.65 496.646 409.69 496.437 409.686 496.226C409.71 494.913 409.428 493.611 408.862 492.424C408.336 491.333 407.502 490.418 406.462 489.79ZM402.78 491.948C403.231 491.925 403.683 491.993 404.107 492.148C404.531 492.303 404.919 492.543 405.247 492.852C405.797 493.398 406.173 494.095 406.325 494.854H398.768C398.986 493.978 399.508 493.207 400.242 492.675C400.975 492.143 401.874 491.885 402.78 491.945V491.948Z" fill="#6732D1"/>
<path d="M425.891 492.118C425.355 491.084 424.532 490.235 423.526 489.677C422.497 489.117 421.345 488.832 420.18 488.849C419.311 488.843 418.449 489.007 417.64 489.333C417.135 489.535 416.657 489.805 416.221 490.136C416.145 489.884 416.009 489.655 415.825 489.469C415.662 489.305 415.467 489.177 415.254 489.092C415.041 489.007 414.813 488.968 414.584 488.976C414.358 488.971 414.134 489.011 413.924 489.095C413.714 489.178 413.522 489.303 413.36 489.463C413.195 489.628 413.065 489.827 412.979 490.046C412.893 490.266 412.852 490.501 412.86 490.738V502.279C412.865 502.629 412.971 502.969 413.163 503.258C413.356 503.547 413.627 503.772 413.943 503.905C414.259 504.038 414.607 504.073 414.943 504.005C415.278 503.938 415.587 503.772 415.831 503.527C415.988 503.362 416.111 503.167 416.192 502.952C416.274 502.738 416.313 502.509 416.307 502.279V494.983C416.301 494.472 416.447 493.971 416.727 493.548C417.03 493.099 417.444 492.74 417.927 492.508C418.471 492.241 419.068 492.106 419.671 492.112C420.783 492.112 421.64 492.415 422.299 493.067C422.958 493.72 423.266 494.65 423.266 495.916V502.279C423.266 502.747 423.447 503.195 423.77 503.525C424.094 503.855 424.532 504.041 424.989 504.041C425.446 504.041 425.884 503.855 426.208 503.525C426.531 503.195 426.712 502.747 426.712 502.279V495.916C426.751 494.6 426.469 493.295 425.891 492.118Z" fill="#6732D1"/>
<path d="M440.837 490.316C440.044 489.845 439.162 489.538 438.244 489.413C437.326 489.288 436.392 489.348 435.499 489.589C434.605 489.83 433.771 490.247 433.048 490.815C432.325 491.383 431.727 492.09 431.291 492.892C430.698 494.021 430.389 495.272 430.389 496.541C430.389 497.81 430.698 499.061 431.291 500.189C431.869 501.266 432.74 502.164 433.807 502.784C434.874 503.405 436.094 503.724 437.334 503.706C438.572 503.719 439.79 503.394 440.852 502.769C441.905 502.147 442.766 501.255 443.342 500.189C443.935 499.062 444.245 497.811 444.245 496.541C444.245 495.271 443.935 494.02 443.342 492.892C442.761 491.826 441.895 490.935 440.837 490.316ZM442.492 496.542C442.509 497.524 442.278 498.493 441.819 499.365C441.392 500.17 440.751 500.846 439.963 501.322C439.163 501.786 438.25 502.031 437.321 502.031C436.391 502.031 435.479 501.786 434.678 501.322C433.888 500.846 433.243 500.17 432.811 499.365C432.36 498.499 432.125 497.539 432.125 496.566C432.125 495.593 432.36 494.634 432.811 493.767C433.244 492.959 433.889 492.279 434.678 491.795C435.475 491.322 436.389 491.072 437.321 491.072C438.252 491.072 439.166 491.322 439.963 491.795C440.75 492.277 441.391 492.957 441.819 493.764C442.272 494.626 442.504 495.584 442.492 496.554V496.542Z" fill="#6732D1"/>
<path d="M462.445 485.013C462.662 485.018 462.873 484.935 463.033 484.783C463.113 484.706 463.177 484.612 463.219 484.507C463.261 484.402 463.281 484.29 463.277 484.176C463.28 484.063 463.26 483.951 463.218 483.846C463.176 483.742 463.112 483.647 463.033 483.57C462.872 483.419 462.662 483.336 462.445 483.339C460.834 483.339 459.605 483.903 458.793 485.016C457.982 486.129 457.585 487.615 457.585 489.471V489.872H455.883C455.778 489.868 455.674 489.888 455.578 489.928C455.481 489.969 455.394 490.03 455.321 490.108C455.177 490.275 455.097 490.491 455.097 490.715C455.097 490.938 455.177 491.154 455.321 491.321C455.394 491.399 455.481 491.46 455.578 491.501C455.674 491.542 455.778 491.561 455.883 491.558H457.585V502.793C457.579 503.034 457.664 503.268 457.823 503.445C457.901 503.53 457.996 503.597 458.101 503.642C458.205 503.687 458.318 503.709 458.432 503.706C458.548 503.711 458.665 503.69 458.773 503.645C458.882 503.6 458.98 503.532 459.061 503.445C459.14 503.358 459.202 503.256 459.243 503.144C459.284 503.032 459.303 502.913 459.299 502.793V491.536H462.277C462.382 491.54 462.486 491.521 462.582 491.48C462.679 491.44 462.767 491.378 462.839 491.3C462.983 491.133 463.063 490.917 463.063 490.693C463.063 490.47 462.983 490.254 462.839 490.087C462.767 490.009 462.679 489.947 462.582 489.906C462.486 489.866 462.382 489.847 462.277 489.85H459.293V489.474C459.293 488.104 459.549 487 460.052 486.196C460.548 485.402 461.33 485.013 462.445 485.013Z" fill="#6732D1"/>
<path d="M450.97 486.196C451.476 485.402 452.27 485.014 453.399 485.014C453.626 485.022 453.847 484.939 454.013 484.783C454.095 484.706 454.16 484.612 454.203 484.507C454.246 484.403 454.266 484.29 454.262 484.177C454.265 484.064 454.245 483.951 454.202 483.846C454.159 483.742 454.095 483.648 454.013 483.57C453.846 483.416 453.626 483.333 453.399 483.34C451.758 483.34 450.505 483.904 449.682 485.017C448.858 486.13 448.45 487.616 448.45 489.472V489.872H446.716C446.61 489.868 446.503 489.887 446.405 489.928C446.306 489.969 446.217 490.03 446.144 490.108C445.997 490.275 445.915 490.491 445.915 490.715C445.915 490.939 445.997 491.155 446.144 491.321C446.217 491.4 446.306 491.461 446.405 491.502C446.503 491.543 446.61 491.562 446.716 491.558H448.45V502.794C448.447 502.913 448.466 503.032 448.508 503.144C448.549 503.256 448.612 503.358 448.693 503.446C448.773 503.531 448.869 503.598 448.976 503.643C449.083 503.688 449.198 503.709 449.313 503.706C449.432 503.711 449.551 503.69 449.661 503.645C449.771 503.6 449.871 503.532 449.954 503.446C450.035 503.358 450.098 503.256 450.14 503.144C450.181 503.032 450.201 502.913 450.197 502.794V491.537H453.231C453.338 491.54 453.444 491.521 453.542 491.48C453.641 491.439 453.73 491.378 453.804 491.3C453.951 491.133 454.032 490.917 454.032 490.694C454.032 490.47 453.951 490.254 453.804 490.087C453.73 490.009 453.641 489.948 453.542 489.907C453.444 489.867 453.338 489.847 453.231 489.851H450.203V489.475C450.203 488.104 450.458 487.003 450.97 486.196Z" fill="#6732D1"/>
<path d="M466.558 484.007C466.227 484.001 465.906 484.123 465.661 484.35C465.533 484.476 465.433 484.629 465.367 484.798C465.302 484.967 465.273 485.148 465.282 485.329C465.273 485.681 465.397 486.024 465.629 486.287C465.741 486.414 465.879 486.515 466.034 486.583C466.189 486.65 466.356 486.683 466.525 486.678C466.693 486.681 466.859 486.648 467.014 486.581C467.168 486.514 467.307 486.415 467.421 486.29C467.662 486.03 467.792 485.685 467.782 485.329C467.793 485.149 467.765 484.969 467.702 484.801C467.638 484.633 467.541 484.48 467.415 484.353C467.184 484.13 466.877 484.006 466.558 484.007Z" fill="#6732D1"/>
<path d="M466.618 489.517C466.508 489.514 466.398 489.534 466.295 489.577C466.192 489.619 466.099 489.682 466.021 489.763C465.941 489.85 465.878 489.953 465.837 490.066C465.797 490.179 465.778 490.299 465.783 490.42V502.803C465.779 502.921 465.798 503.039 465.838 503.15C465.879 503.26 465.94 503.362 466.018 503.448C466.095 503.532 466.188 503.598 466.292 503.643C466.395 503.687 466.506 503.709 466.618 503.706C466.733 503.711 466.846 503.691 466.952 503.645C467.058 503.6 467.153 503.532 467.23 503.445C467.378 503.267 467.457 503.038 467.451 502.803V490.42C467.462 490.18 467.382 489.945 467.227 489.766C467.148 489.682 467.053 489.617 466.948 489.574C466.843 489.531 466.731 489.512 466.618 489.517Z" fill="#6732D1"/>
<path d="M480.516 489.996C479.619 489.56 478.631 489.339 477.632 489.35C476.475 489.337 475.34 489.666 474.372 490.293C473.394 490.934 472.61 491.824 472.103 492.87C471.552 494.011 471.274 495.263 471.292 496.528C471.277 497.797 471.577 499.05 472.166 500.177C472.718 501.238 473.548 502.133 474.57 502.766C475.6 503.394 476.789 503.72 477.998 503.706C478.841 503.71 479.676 503.557 480.462 503.257C481.213 502.967 481.9 502.533 482.481 501.98C482.559 501.91 482.621 501.824 482.663 501.728C482.704 501.632 482.724 501.528 482.722 501.424C482.724 501.302 482.7 501.181 482.652 501.068C482.604 500.956 482.533 500.855 482.442 500.772C482.373 500.7 482.29 500.643 482.197 500.605C482.104 500.567 482.005 500.549 481.905 500.552C481.791 500.552 481.679 500.577 481.576 500.623C481.472 500.669 481.379 500.736 481.304 500.82C480.483 501.614 479.372 502.01 477.998 502.01C477.088 502.026 476.193 501.78 475.42 501.302C474.663 500.818 474.054 500.139 473.66 499.337C473.232 498.462 473.017 497.5 473.032 496.528C473.015 495.554 473.208 494.588 473.599 493.695C473.945 492.907 474.509 492.232 475.225 491.748C475.938 491.283 476.775 491.04 477.629 491.052C478.367 491.041 479.097 491.203 479.76 491.524C480.423 491.845 481 492.317 481.445 492.9C481.517 493.011 481.616 493.102 481.733 493.165C481.85 493.228 481.982 493.261 482.115 493.26C482.284 493.263 482.447 493.201 482.572 493.088C482.695 493.024 482.799 492.927 482.87 492.808C482.942 492.689 482.979 492.553 482.977 492.415C482.963 492.229 482.894 492.051 482.779 491.903C482.186 491.101 481.411 490.447 480.516 489.996Z" fill="#6732D1"/>
<path d="M497.368 492.713C496.872 491.703 496.101 490.849 495.14 490.244C494.166 489.645 493.037 489.334 491.888 489.35C490.709 489.331 489.55 489.65 488.553 490.268C487.571 490.897 486.787 491.783 486.289 492.826C485.736 493.987 485.46 495.258 485.483 496.54C485.462 497.821 485.76 499.088 486.35 500.23C486.895 501.284 487.726 502.169 488.75 502.788C489.805 503.407 491.014 503.725 492.242 503.706C493.083 503.693 493.913 503.526 494.692 503.214C495.463 502.937 496.171 502.513 496.777 501.968C496.935 501.816 497.026 501.61 497.032 501.393C497.032 501.272 497.005 501.152 496.953 501.042C496.9 500.932 496.824 500.835 496.729 500.758C496.564 500.627 496.356 500.56 496.145 500.57C495.933 500.581 495.733 500.668 495.583 500.815C495.165 501.206 494.664 501.502 494.116 501.679C493.519 501.896 492.888 502.008 492.251 502.013C491.388 502.023 490.538 501.804 489.791 501.378C489.043 500.951 488.427 500.335 488.008 499.592C487.579 498.838 487.33 497.997 487.28 497.133H497.326C497.437 497.136 497.548 497.118 497.652 497.078C497.756 497.039 497.851 496.979 497.932 496.904C498.012 496.822 498.074 496.725 498.114 496.619C498.155 496.513 498.173 496.4 498.168 496.287C498.188 495.05 497.914 493.827 497.368 492.713ZM496.459 495.541H487.304C487.426 494.334 487.949 493.201 488.793 492.316C489.191 491.904 489.672 491.579 490.206 491.359C490.739 491.14 491.313 491.033 491.891 491.043C492.478 491.027 493.063 491.132 493.607 491.351C494.151 491.57 494.642 491.899 495.049 492.316C495.882 493.2 496.38 494.339 496.459 495.541Z" fill="#6732D1"/>
<path fill-rule="evenodd" clip-rule="evenodd" d="M356.682 489.008C352.943 489.008 349.913 492.038 349.913 495.776C349.913 499.515 352.943 502.545 356.682 502.545C360.42 502.545 363.451 499.515 363.451 495.776C363.451 492.038 360.42 489.008 356.682 489.008ZM346.923 495.776C346.923 490.387 351.292 486.018 356.682 486.018C362.071 486.018 366.441 490.387 366.441 495.776C366.441 501.166 362.071 505.535 356.682 505.535C351.292 505.535 346.923 501.166 346.923 495.776Z" fill="#6732D1"/>
<path d="M657.766 504.377L657.777 504.388L657.788 504.399C658.132 504.719 658.558 504.875 659.037 504.875C659.526 504.875 659.962 504.723 660.297 504.388L660.302 504.383L660.308 504.377C660.629 504.034 660.785 503.608 660.785 503.13V495.918C660.785 495.371 660.931 494.908 661.215 494.512L661.217 494.509L661.219 494.506C661.515 494.077 661.917 493.732 662.436 493.473C662.949 493.217 663.53 493.085 664.186 493.085C665.254 493.085 666.11 493.396 666.787 493.997L666.79 494L666.794 494.003C667.445 494.554 667.817 495.464 667.817 496.838V503.13C667.817 503.608 667.973 504.034 668.294 504.377L668.304 504.388L668.316 504.399C668.66 504.719 669.086 504.875 669.565 504.875C670.043 504.875 670.468 504.719 670.799 504.388C671.141 504.046 671.313 503.617 671.313 503.13V496.838C671.313 495.369 671.029 494.097 670.438 493.045C669.87 492.003 669.076 491.207 668.059 490.671C667.065 490.12 665.94 489.85 664.698 489.85C663.774 489.85 662.905 490.013 662.097 490.343C661.585 490.553 661.117 490.812 660.696 491.122C660.618 490.876 660.487 490.655 660.297 490.465C659.962 490.13 659.526 489.978 659.037 489.978C658.558 489.978 658.132 490.134 657.788 490.455L657.782 490.46L657.777 490.465C657.442 490.8 657.289 491.235 657.289 491.723V503.13C657.289 503.608 657.445 504.034 657.766 504.377Z" fill="#6732D1"/>
<path fill-rule="evenodd" clip-rule="evenodd" d="M644.164 503.927L644.167 503.929L644.171 503.931C645.354 504.564 646.692 504.875 648.175 504.875C649.016 504.875 649.884 504.721 650.777 504.419C651.685 504.118 652.458 503.723 653.087 503.228C653.467 502.937 653.694 502.545 653.667 502.067C653.642 501.615 653.412 501.232 653.057 500.92L653.053 500.917L653.05 500.914C652.739 500.653 652.365 500.536 651.957 500.555C651.568 500.558 651.209 500.687 650.887 500.921L650.886 500.922L650.884 500.924C650.588 501.144 650.179 501.355 649.643 501.549C649.139 501.721 648.65 501.804 648.175 501.804C646.967 501.804 645.967 501.467 645.15 500.809C644.477 500.243 644.028 499.546 643.798 498.707H652.995C653.432 498.707 653.826 498.573 654.141 498.285L654.147 498.279L654.153 498.272C654.462 497.966 654.616 497.581 654.616 497.146C654.616 495.749 654.35 494.5 653.802 493.41C653.271 492.302 652.489 491.43 651.458 490.808C650.419 490.163 649.19 489.85 647.79 489.85C646.371 489.85 645.096 490.172 643.979 490.827C642.865 491.463 641.989 492.354 641.353 493.492L641.352 493.494C640.73 494.622 640.426 495.92 640.426 497.375C640.426 498.819 640.749 500.119 641.407 501.264L641.409 501.267L641.411 501.271C642.084 502.392 643.004 503.278 644.164 503.927ZM650.239 493.855L650.241 493.857L650.243 493.859C650.748 494.374 651.097 495.012 651.283 495.789H643.836C644.066 495.009 644.467 494.368 645.037 493.851C645.708 493.244 646.611 492.921 647.79 492.921C648.854 492.921 649.653 493.244 650.239 493.855Z" fill="#6732D1"/>
<path d="M626.816 501.983L626.815 501.985C626.586 502.287 626.494 502.662 626.494 503.067C626.494 503.535 626.612 503.967 626.927 504.279C627.242 504.591 627.677 504.708 628.149 504.708H636.935C637.407 504.708 637.843 504.591 638.158 504.279C638.472 503.967 638.591 503.535 638.591 503.067C638.591 502.599 638.472 502.167 638.158 501.855C637.843 501.543 637.407 501.425 636.935 501.425H631.282L638.011 492.575L638.012 492.574C638.241 492.271 638.333 491.896 638.333 491.492C638.333 491.023 638.215 490.591 637.9 490.279C637.586 489.967 637.15 489.85 636.678 489.85H628.559C628.087 489.85 627.652 489.967 627.337 490.279C627.023 490.591 626.904 491.023 626.904 491.492C626.904 491.96 627.023 492.392 627.337 492.704C627.652 493.016 628.087 493.133 628.559 493.133H633.569L626.816 501.983Z" fill="#6732D1"/>
<path d="M695.398 504.708C695.094 504.708 694.843 504.619 694.646 504.44C694.45 504.243 694.351 503.993 694.351 503.688V495.959C694.351 494.689 694.02 493.687 693.358 492.953C692.696 492.202 691.846 491.826 690.809 491.826C689.699 491.826 688.787 492.202 688.071 492.953C687.373 493.687 687.033 494.671 687.051 495.905H685.199C685.217 494.707 685.477 493.651 685.978 492.738C686.479 491.826 687.167 491.119 688.044 490.618C688.921 490.117 689.914 489.867 691.023 489.867C692.079 489.867 693.009 490.117 693.814 490.618C694.637 491.119 695.273 491.826 695.72 492.738C696.185 493.651 696.418 494.724 696.418 495.959V503.688C696.418 503.993 696.319 504.243 696.122 504.44C695.944 504.619 695.702 504.708 695.398 504.708ZM676.611 504.708C676.289 504.708 676.03 504.619 675.833 504.44C675.654 504.243 675.564 503.993 675.564 503.688V491.074C675.564 490.77 675.654 490.52 675.833 490.323C676.03 490.126 676.289 490.028 676.611 490.028C676.915 490.028 677.157 490.126 677.336 490.323C677.533 490.52 677.631 490.77 677.631 491.074V503.688C677.631 503.993 677.533 504.243 677.336 504.44C677.157 504.619 676.915 504.708 676.611 504.708ZM686.031 504.708C685.727 504.708 685.477 504.619 685.28 504.44C685.083 504.243 684.985 503.993 684.985 503.688V495.959C684.985 494.689 684.654 493.687 683.992 492.953C683.33 492.202 682.48 491.826 681.442 491.826C680.333 491.826 679.42 492.193 678.705 492.926C677.989 493.642 677.631 494.581 677.631 495.744H676.155C676.191 494.599 676.441 493.588 676.906 492.712C677.389 491.817 678.043 491.119 678.866 490.618C679.689 490.117 680.619 489.867 681.657 489.867C682.712 489.867 683.643 490.117 684.448 490.618C685.271 491.119 685.906 491.826 686.353 492.738C686.819 493.651 687.051 494.724 687.051 495.959V503.688C687.051 503.993 686.953 504.243 686.756 504.44C686.577 504.619 686.335 504.708 686.031 504.708Z" fill="#6732D1"/>
<path d="M706.382 504.842C705.004 504.842 703.77 504.52 702.678 503.876C701.587 503.214 700.719 502.32 700.075 501.192C699.449 500.065 699.135 498.795 699.135 497.381C699.135 495.95 699.458 494.671 700.102 493.544C700.764 492.416 701.658 491.531 702.785 490.887C703.913 490.225 705.183 489.894 706.596 489.894C708.01 489.894 709.271 490.225 710.381 490.887C711.508 491.531 712.393 492.416 713.038 493.544C713.7 494.671 714.04 495.95 714.057 497.381L713.225 498.025C713.225 499.314 712.921 500.477 712.313 501.514C711.723 502.534 710.908 503.348 709.871 503.957C708.851 504.547 707.688 504.842 706.382 504.842ZM706.596 502.964C707.634 502.964 708.556 502.722 709.361 502.239C710.184 501.756 710.828 501.094 711.293 500.253C711.776 499.394 712.018 498.437 712.018 497.381C712.018 496.308 711.776 495.351 711.293 494.51C710.828 493.669 710.184 493.007 709.361 492.524C708.556 492.023 707.634 491.772 706.596 491.772C705.577 491.772 704.655 492.023 703.832 492.524C703.009 493.007 702.356 493.669 701.873 494.51C701.39 495.351 701.148 496.308 701.148 497.381C701.148 498.437 701.39 499.394 701.873 500.253C702.356 501.094 703.009 501.756 703.832 502.239C704.655 502.722 705.577 502.964 706.596 502.964ZM713.011 504.708C712.707 504.708 712.456 504.619 712.259 504.44C712.062 504.243 711.964 503.993 711.964 503.688V499.099L712.474 496.979L714.057 497.381V503.688C714.057 503.993 713.959 504.243 713.762 504.44C713.565 504.619 713.315 504.708 713.011 504.708Z" fill="#6732D1"/>
<path d="M729.59 504.708C729.286 504.708 729.036 504.61 728.839 504.413C728.642 504.216 728.544 503.975 728.544 503.688V496.71C728.544 495.601 728.329 494.689 727.899 493.973C727.488 493.257 726.915 492.72 726.182 492.363C725.466 492.005 724.652 491.826 723.74 491.826C722.863 491.826 722.067 491.996 721.351 492.336C720.653 492.676 720.098 493.141 719.687 493.731C719.275 494.322 719.07 494.993 719.07 495.744H717.594C717.629 494.617 717.934 493.615 718.506 492.738C719.079 491.844 719.839 491.146 720.787 490.645C721.736 490.126 722.791 489.867 723.954 489.867C725.225 489.867 726.361 490.135 727.363 490.672C728.365 491.191 729.152 491.96 729.724 492.98C730.315 494 730.61 495.243 730.61 496.71V503.688C730.61 503.975 730.512 504.216 730.315 504.413C730.118 504.61 729.877 504.708 729.59 504.708ZM718.05 504.708C717.728 504.708 717.468 504.619 717.272 504.44C717.093 504.243 717.003 503.993 717.003 503.688V491.074C717.003 490.752 717.093 490.502 717.272 490.323C717.468 490.126 717.728 490.028 718.05 490.028C718.354 490.028 718.596 490.126 718.774 490.323C718.971 490.502 719.07 490.752 719.07 491.074V503.688C719.07 503.993 718.971 504.243 718.774 504.44C718.596 504.619 718.354 504.708 718.05 504.708Z" fill="#6732D1"/>
<path d="M740.561 504.842C739.183 504.842 737.948 504.52 736.857 503.876C735.765 503.214 734.898 502.32 734.254 501.192C733.627 500.065 733.314 498.795 733.314 497.381C733.314 495.95 733.636 494.671 734.28 493.544C734.942 492.416 735.837 491.531 736.964 490.887C738.091 490.225 739.362 489.894 740.775 489.894C742.189 489.894 743.45 490.225 744.559 490.887C745.687 491.531 746.572 492.416 747.216 493.544C747.878 494.671 748.218 495.95 748.236 497.381L747.404 498.025C747.404 499.314 747.1 500.477 746.492 501.514C745.901 502.534 745.087 503.348 744.049 503.957C743.03 504.547 741.867 504.842 740.561 504.842ZM740.775 502.964C741.813 502.964 742.734 502.722 743.54 502.239C744.363 501.756 745.007 501.094 745.472 500.253C745.955 499.394 746.197 498.437 746.197 497.381C746.197 496.308 745.955 495.351 745.472 494.51C745.007 493.669 744.363 493.007 743.54 492.524C742.734 492.023 741.813 491.772 740.775 491.772C739.755 491.772 738.834 492.023 738.011 492.524C737.188 493.007 736.535 493.669 736.052 494.51C735.569 495.351 735.327 496.308 735.327 497.381C735.327 498.437 735.569 499.394 736.052 500.253C736.535 501.094 737.188 501.756 738.011 502.239C738.834 502.722 739.755 502.964 740.775 502.964ZM747.19 504.708C746.885 504.708 746.635 504.619 746.438 504.44C746.241 504.243 746.143 503.993 746.143 503.688V499.099L746.653 496.979L748.236 497.381V503.688C748.236 503.993 748.138 504.243 747.941 504.44C747.744 504.619 747.494 504.708 747.19 504.708Z" fill="#6732D1"/>
<path d="M757.65 504.842C756.236 504.842 754.984 504.529 753.893 503.903C752.801 503.259 751.942 502.373 751.316 501.246C750.708 500.119 750.404 498.831 750.404 497.381C750.404 495.914 750.726 494.617 751.37 493.49C752.014 492.363 752.9 491.486 754.027 490.86C755.154 490.216 756.433 489.894 757.865 489.894C759.314 489.894 760.593 490.216 761.702 490.86C762.83 491.486 763.706 492.363 764.333 493.49C764.977 494.617 765.308 495.914 765.326 497.381L764.118 498.025C764.118 499.35 763.841 500.53 763.286 501.568C762.731 502.588 761.962 503.393 760.978 503.984C760.012 504.556 758.902 504.842 757.65 504.842ZM757.918 510.505C756.505 510.505 755.261 510.237 754.188 509.7C753.114 509.181 752.229 508.466 751.531 507.553C751.334 507.338 751.245 507.106 751.262 506.855C751.298 506.605 751.432 506.399 751.665 506.238C751.898 506.077 752.157 506.023 752.443 506.077C752.73 506.131 752.953 506.265 753.114 506.48C753.633 507.124 754.295 507.642 755.1 508.036C755.923 508.43 756.872 508.627 757.945 508.627C758.947 508.627 759.851 508.385 760.656 507.902C761.461 507.419 762.096 506.739 762.561 505.862C763.044 504.986 763.286 503.957 763.286 502.776V498.696L764.064 497.14L765.326 497.381V502.856C765.326 504.306 765.004 505.603 764.359 506.748C763.715 507.911 762.839 508.823 761.729 509.485C760.62 510.165 759.35 510.505 757.918 510.505ZM757.865 502.964C758.92 502.964 759.851 502.731 760.656 502.266C761.479 501.783 762.123 501.121 762.588 500.28C763.053 499.439 763.286 498.473 763.286 497.381C763.286 496.29 763.053 495.324 762.588 494.483C762.123 493.624 761.479 492.962 760.656 492.497C759.851 492.014 758.92 491.772 757.865 491.772C756.809 491.772 755.87 492.014 755.047 492.497C754.224 492.962 753.579 493.624 753.114 494.483C752.649 495.324 752.416 496.29 752.416 497.381C752.416 498.473 752.649 499.439 753.114 500.28C753.579 501.121 754.224 501.783 755.047 502.266C755.87 502.731 756.809 502.964 757.865 502.964Z" fill="#6732D1"/>
<path d="M774.927 504.842C773.478 504.842 772.19 504.529 771.062 503.903C769.953 503.259 769.076 502.373 768.432 501.246C767.806 500.119 767.493 498.831 767.493 497.381C767.493 495.914 767.788 494.626 768.379 493.517C768.987 492.389 769.819 491.504 770.875 490.86C771.93 490.216 773.147 489.894 774.525 489.894C775.884 489.894 777.065 490.207 778.067 490.833C779.087 491.441 779.874 492.291 780.429 493.382C780.984 494.474 781.261 495.717 781.261 497.113C781.261 497.399 781.172 497.632 780.993 497.811C780.814 497.972 780.581 498.052 780.295 498.052H768.889V496.335H780.51L779.355 497.167C779.373 496.129 779.185 495.199 778.792 494.376C778.398 493.552 777.835 492.908 777.101 492.443C776.385 491.978 775.527 491.745 774.525 491.745C773.505 491.745 772.61 491.987 771.841 492.47C771.071 492.953 770.472 493.624 770.043 494.483C769.631 495.324 769.425 496.29 769.425 497.381C769.425 498.473 769.658 499.439 770.123 500.28C770.606 501.121 771.259 501.783 772.082 502.266C772.905 502.749 773.854 502.991 774.927 502.991C775.571 502.991 776.215 502.883 776.86 502.668C777.522 502.436 778.049 502.15 778.443 501.81C778.64 501.649 778.863 501.568 779.114 501.568C779.364 501.55 779.579 501.613 779.758 501.756C779.991 501.971 780.107 502.203 780.107 502.454C780.125 502.704 780.026 502.919 779.812 503.098C779.221 503.599 778.47 504.019 777.557 504.359C776.645 504.681 775.768 504.842 774.927 504.842Z" fill="#6732D1"/>
<path d="M784.542 495.664C784.596 494.554 784.882 493.561 785.401 492.685C785.938 491.808 786.627 491.119 787.467 490.618C788.326 490.117 789.275 489.867 790.312 489.867C791.135 489.867 791.771 489.983 792.218 490.216C792.665 490.448 792.835 490.788 792.728 491.235C792.656 491.504 792.531 491.683 792.352 491.772C792.191 491.862 791.985 491.897 791.735 491.88C791.502 491.862 791.234 491.844 790.93 491.826C789.928 491.736 789.033 491.844 788.246 492.148C787.476 492.434 786.859 492.882 786.394 493.49C785.947 494.098 785.723 494.823 785.723 495.664H784.542ZM784.703 504.708C784.381 504.708 784.131 504.619 783.952 504.44C783.773 504.261 783.683 504.01 783.683 503.688V491.048C783.683 490.726 783.773 490.475 783.952 490.296C784.131 490.117 784.381 490.028 784.703 490.028C785.025 490.028 785.276 490.117 785.455 490.296C785.634 490.475 785.723 490.726 785.723 491.048V503.688C785.723 504.01 785.634 504.261 785.455 504.44C785.276 504.619 785.025 504.708 784.703 504.708Z" fill="#6732D1"/>
<path d="M610.763 515.393C610.393 515.386 610.033 515.273 609.726 515.067L605.464 512.33C604.98 512.097 604.449 511.976 603.911 511.975H594.41C592.225 511.973 590.131 511.105 588.586 509.563C587.041 508.022 586.172 505.931 586.169 503.751V488.221C586.173 486.041 587.042 483.952 588.587 482.411C590.132 480.87 592.226 480.003 594.41 480H609.328C611.51 480.006 613.601 480.874 615.143 482.415C616.685 483.955 617.552 486.043 617.555 488.221V503.765C617.553 505.339 617.099 506.88 616.247 508.205C615.396 509.53 614.182 510.584 612.749 511.242L612.351 511.465V513.649C612.344 514.808 611.552 515.393 610.763 515.393ZM603.904 510.639C604.7 510.639 605.483 510.835 606.185 511.21L610.447 513.943C610.539 514.011 610.649 514.052 610.763 514.06C610.973 514.06 611.016 513.829 611.016 513.634V511.532C610.99 511.303 611.029 511.071 611.129 510.863C611.229 510.655 611.385 510.479 611.58 510.355L612.17 510.026C613.376 509.477 614.399 508.594 615.117 507.481C615.835 506.369 616.218 505.074 616.219 503.751V488.221C616.217 486.395 615.489 484.645 614.195 483.353C612.901 482.062 611.147 481.336 609.318 481.333H594.399C592.571 481.338 590.819 482.065 589.527 483.356C588.234 484.647 587.507 486.396 587.505 488.221V503.765C587.506 505.592 588.235 507.344 589.529 508.636C590.824 509.928 592.579 510.655 594.41 510.657L603.904 510.639Z" fill="#6732D1"/>
<path fill-rule="evenodd" clip-rule="evenodd" d="M610.758 515.726C610.324 515.719 609.903 515.587 609.543 515.346L605.301 512.622C604.867 512.416 604.392 512.31 603.911 512.309H594.41C592.137 512.306 589.957 511.404 588.35 509.8C586.742 508.196 585.838 506.02 585.835 503.751L585.835 488.221C585.839 485.952 586.744 483.778 588.351 482.174C589.958 480.571 592.137 479.669 594.409 479.666L609.328 479.666C611.598 479.672 613.775 480.575 615.379 482.178C616.983 483.782 617.886 485.954 617.889 488.22V503.765C617.887 505.403 617.414 507.007 616.528 508.385C615.645 509.76 614.386 510.854 612.901 511.539L612.685 511.66V513.651C612.681 514.31 612.451 514.834 612.084 515.194C611.72 515.55 611.239 515.727 610.763 515.727L610.758 515.726ZM612.351 511.465L612.749 511.242C614.182 510.583 615.396 509.53 616.247 508.205C617.099 506.88 617.553 505.339 617.555 503.765V488.221C617.552 486.043 616.685 483.955 615.143 482.415C613.601 480.874 611.51 480.006 609.328 480H594.41C592.226 480.003 590.132 480.87 588.587 482.411C587.042 483.952 586.173 486.041 586.169 488.221V503.751C586.172 505.931 587.041 508.022 588.586 509.563C590.13 511.105 592.225 511.973 594.41 511.975H603.911C604.449 511.976 604.979 512.097 605.464 512.33L609.726 515.067C610.033 515.273 610.393 515.386 610.763 515.393C611.552 515.393 612.344 514.808 612.351 513.649V511.465ZM603.904 510.305C604.755 510.305 605.592 510.514 606.342 510.915L606.354 510.921L610.637 513.668L610.646 513.675C610.657 513.683 610.668 513.69 610.679 513.696C610.681 513.677 610.682 513.656 610.682 513.634V511.55C610.653 511.265 610.703 510.977 610.828 510.718C610.955 510.454 611.154 510.23 611.402 510.073L611.409 510.068L612.019 509.727L612.032 509.722C613.18 509.199 614.153 508.359 614.837 507.3C615.52 506.242 615.884 505.01 615.885 503.751V488.221C615.883 486.484 615.19 484.818 613.959 483.59C612.728 482.361 611.059 481.669 609.317 481.667H594.399C592.659 481.671 590.992 482.364 589.762 483.592C588.533 484.82 587.841 486.485 587.838 488.221V503.765C587.84 505.504 588.533 507.17 589.765 508.4C590.997 509.629 592.667 510.321 594.41 510.323L603.904 510.305ZM594.41 510.657C592.579 510.655 590.824 509.928 589.529 508.636C588.234 507.344 587.506 505.592 587.504 503.765V488.221C587.507 486.396 588.234 484.647 589.526 483.356C590.819 482.065 592.571 481.337 594.399 481.333H609.318C611.147 481.336 612.901 482.062 614.195 483.353C615.488 484.644 616.216 486.395 616.219 488.221V503.751C616.218 505.074 615.835 506.369 615.117 507.481C614.399 508.594 613.376 509.477 612.17 510.026L611.58 510.355C611.385 510.479 611.229 510.655 611.129 510.863C611.029 511.071 610.99 511.303 611.016 511.532V513.634C611.016 513.829 610.973 514.06 610.763 514.06C610.649 514.052 610.539 514.011 610.447 513.943L606.185 511.21C605.483 510.835 604.7 510.639 603.904 510.639L594.41 510.657Z" fill="#6732D1"/>
<path fill-rule="evenodd" clip-rule="evenodd" d="M596.02 496.323C596.986 496.323 597.77 497.107 597.77 498.073V502.287C597.77 503.254 596.986 504.037 596.02 504.037C595.053 504.037 594.27 503.254 594.27 502.287V498.073C594.27 497.107 595.053 496.323 596.02 496.323Z" fill="#6732D1"/>
<path fill-rule="evenodd" clip-rule="evenodd" d="M602.029 494.054C602.996 494.054 603.779 494.838 603.779 495.804V502.287C603.779 503.254 602.996 504.037 602.029 504.037C601.063 504.037 600.279 503.254 600.279 502.287V495.804C600.279 494.838 601.063 494.054 602.029 494.054Z" fill="#6732D1"/>
<path fill-rule="evenodd" clip-rule="evenodd" d="M608.039 487.766C609.006 487.766 609.789 488.549 609.789 489.516V502.287C609.789 503.254 609.006 504.037 608.039 504.037C607.073 504.037 606.289 503.254 606.289 502.287V489.516C606.289 488.549 607.073 487.766 608.039 487.766Z" fill="#6732D1"/>
</svg>
