<svg width="24" height="24" viewBox="0 0 24 24" fill="none" xmlns="http://www.w3.org/2000/svg">
<path fill-rule="evenodd" clip-rule="evenodd" d="M12 4.25C12.4142 4.25 12.75 4.58579 12.75 5V19C12.75 19.4142 12.4142 19.75 12 19.75C11.5858 19.75 11.25 19.4142 11.25 19V5C11.25 4.58579 11.5858 4.25 12 4.25Z" fill="#212529"/>
<path fill-rule="evenodd" clip-rule="evenodd" d="M11.4697 4.46967C11.7626 4.17678 12.2374 4.17678 12.5303 4.46967L18.5303 10.4697C18.8232 10.7626 18.8232 11.2374 18.5303 11.5303C18.2374 11.8232 17.7626 11.8232 17.4697 11.5303L11.4697 5.53033C11.1768 5.23744 11.1768 4.76256 11.4697 4.46967Z" fill="#212529"/>
<path fill-rule="evenodd" clip-rule="evenodd" d="M12.5303 4.46967C12.8232 4.76256 12.8232 5.23744 12.5303 5.53033L6.53033 11.5303C6.23744 11.8232 5.76256 11.8232 5.46967 11.5303C5.17678 11.2374 5.17678 10.7626 5.46967 10.4697L11.4697 4.46967C11.7626 4.17678 12.2374 4.17678 12.5303 4.46967Z" fill="#212529"/>
</svg>
