<svg width="24" height="24" viewBox="0 0 24 24" fill="none" xmlns="http://www.w3.org/2000/svg">
<path fill-rule="evenodd" clip-rule="evenodd" d="M2.46967 2.46967C2.76256 2.17678 3.23744 2.17678 3.53033 2.46967L21.5303 20.4697C21.8232 20.7626 21.8232 21.2374 21.5303 21.5303C21.2374 21.8232 20.7626 21.8232 20.4697 21.5303L2.46967 3.53033C2.17678 3.23744 2.17678 2.76256 2.46967 2.46967Z" fill="#212529"/>
<path fill-rule="evenodd" clip-rule="evenodd" d="M11.9999 3.75C11.3096 3.75 10.7499 4.30964 10.7499 5C10.7499 5.28994 10.5828 5.55391 10.3208 5.67793C10.1212 5.77236 9.92808 5.87691 9.74042 5.99094C9.38644 6.20605 8.9251 6.09346 8.71 5.73947C8.4949 5.38549 8.60749 4.92416 8.96147 4.70905C9.06969 4.6433 9.17979 4.57986 9.29189 4.51888C9.51941 3.22949 10.6453 2.25 11.9999 2.25C13.3545 2.25 14.4803 3.22934 14.7079 4.51858C17.0802 5.80713 18.6216 8.24728 18.7491 10.9648C18.7497 10.9765 18.7499 10.9883 18.7499 11V14C18.7499 14.4142 18.4142 14.75 17.9999 14.75C17.5857 14.75 17.2499 14.4142 17.2499 14V11.0181C17.1356 8.7163 15.7636 6.66358 13.6793 5.67802C13.4172 5.55405 13.2499 5.29002 13.2499 5C13.2499 4.30964 12.6903 3.75 11.9999 3.75ZM7.71229 6.67186C8.05037 6.91119 8.13041 7.37927 7.89108 7.71734C7.20471 8.6869 6.80894 9.83189 6.74995 11.0181V14C6.74995 14.0301 6.74813 14.0602 6.74451 14.0901C6.64912 14.8782 6.35971 15.6178 5.91557 16.25H16.9999C17.4142 16.25 17.7499 16.5858 17.7499 17C17.7499 17.4142 17.4142 17.75 16.9999 17.75H3.99995C3.65933 17.75 3.36148 17.5205 3.2747 17.1911C3.18791 16.8617 3.33399 16.5152 3.63038 16.3474C4.51583 15.846 5.1146 14.9593 5.24995 13.9524V11C5.24995 10.9883 5.25022 10.9765 5.25077 10.9648C5.32024 9.48634 5.81162 8.05868 6.66681 6.85066C6.90614 6.51258 7.37422 6.43253 7.71229 6.67186Z" fill="#212529"/>
<path fill-rule="evenodd" clip-rule="evenodd" d="M9 16.25C9.41421 16.25 9.75 16.5858 9.75 17V18C9.75 19.2426 10.7574 20.25 12 20.25C13.2426 20.25 14.25 19.2426 14.25 18V17C14.25 16.5858 14.5858 16.25 15 16.25C15.4142 16.25 15.75 16.5858 15.75 17V18C15.75 20.0711 14.0711 21.75 12 21.75C9.92893 21.75 8.25 20.0711 8.25 18V17C8.25 16.5858 8.58579 16.25 9 16.25Z" fill="#212529"/>
</svg>
