<svg width="24" height="24" viewBox="0 0 24 24" fill="none" xmlns="http://www.w3.org/2000/svg">
<path fill-rule="evenodd" clip-rule="evenodd" d="M12 2.24988C12.1247 2.24976 12.2512 2.28082 12.3677 2.34633L12.3795 2.35296C12.4904 2.41788 12.3677 2.34633 12.3677 2.34633C12.2513 2.29334 12.2188 2.25009 12 2.24988C11.8667 2.24976 11.7651 2.27159 11.6323 2.34628C11.6708 2.32606 11.5096 2.41788 11.6205 2.35296L11.6323 2.34628C11.7488 2.28076 11.8753 2.24976 12 2.24988ZM12 2.24988C12.1333 2.25 12.2646 2.2857 12.3795 2.35296L20.3677 6.84633C20.6039 6.97917 20.75 7.22906 20.75 7.50001V16.5C20.75 16.771 20.6039 17.0209 20.3677 17.1537L12.3677 21.6537C12.1394 21.7821 11.8606 21.7821 11.6323 21.6537L3.6323 17.1537C3.39615 17.0209 3.25 16.771 3.25 16.5V7.50001C3.25 7.22906 3.39615 6.97917 3.6323 6.84633L11.6205 2.35296C11.7354 2.2857 11.8667 2.25 12 2.24988ZM19.25 7.93865L12 3.86052L4.75 7.93865V7.50001H4L4.3677 8.15369L4.75 7.93865V16.0614L12 20.1395L11.6323 20.3463L12 21L12.3677 20.3463L12 20.1395L19.25 16.0614V7.93865ZM19.25 7.93865L19.6323 8.15369L20 7.50001H19.25V7.93865Z" fill="#212529"/>
<path fill-rule="evenodd" clip-rule="evenodd" d="M20.6536 7.13232C20.8566 7.49333 20.7286 7.95062 20.3676 8.15369L12.3676 12.6537C12.0066 12.8568 11.5493 12.7287 11.3462 12.3677C11.1431 12.0067 11.2712 11.5494 11.6322 11.3463L19.6322 6.84633C19.9932 6.64326 20.4505 6.7713 20.6536 7.13232Z" fill="#212529"/>
<path fill-rule="evenodd" clip-rule="evenodd" d="M12 11.25C12.4142 11.25 12.75 11.5858 12.75 12V21C12.75 21.4142 12.4142 21.75 12 21.75C11.5858 21.75 11.25 21.4142 11.25 21V12C11.25 11.5858 11.5858 11.25 12 11.25Z" fill="#212529"/>
<path fill-rule="evenodd" clip-rule="evenodd" d="M3.34621 7.13232C3.54928 6.7713 4.00657 6.64326 4.36758 6.84633L12.3676 11.3463C12.7286 11.5494 12.8566 12.0067 12.6536 12.3677C12.4505 12.7287 11.9932 12.8568 11.6322 12.6537L3.63219 8.15369C3.27117 7.95062 3.14313 7.49333 3.34621 7.13232Z" fill="#212529"/>
</svg>
