<svg width="24" height="24" viewBox="0 0 24 24" fill="none" xmlns="http://www.w3.org/2000/svg">
<path fill-rule="evenodd" clip-rule="evenodd" d="M4 9.25C4.41421 9.25 4.75 9.58579 4.75 10V16C4.75 16.4142 4.41421 16.75 4 16.75C3.58579 16.75 3.25 16.4142 3.25 16V10C3.25 9.58579 3.58579 9.25 4 9.25Z" fill="#212529"/>
<path fill-rule="evenodd" clip-rule="evenodd" d="M20 9.25C20.4142 9.25 20.75 9.58579 20.75 10V16C20.75 16.4142 20.4142 16.75 20 16.75C19.5858 16.75 19.25 16.4142 19.25 16V10C19.25 9.58579 19.5858 9.25 20 9.25Z" fill="#212529"/>
<path fill-rule="evenodd" clip-rule="evenodd" d="M7.81597 8.25H16.184C15.8298 6.26049 14.0913 4.75 12 4.75C9.9087 4.75 8.1702 6.26049 7.81597 8.25ZM17.75 9C17.75 5.82436 15.1756 3.25 12 3.25C8.82436 3.25 6.25 5.82436 6.25 9V17C6.25 17.9665 7.0335 18.75 8 18.75H16C16.9665 18.75 17.75 17.9665 17.75 17V9ZM16.25 9.75H7.75V17C7.75 17.1381 7.86193 17.25 8 17.25H16C16.1381 17.25 16.25 17.1381 16.25 17V9.75Z" fill="#212529"/>
<path fill-rule="evenodd" clip-rule="evenodd" d="M7.66451 2.32919C8.03499 2.14395 8.4855 2.29412 8.67074 2.6646L9.67074 4.6646C9.85598 5.03509 9.70581 5.48559 9.33533 5.67083C8.96485 5.85607 8.51434 5.70591 8.3291 5.33542L7.3291 3.33542C7.14386 2.96494 7.29403 2.51443 7.66451 2.32919Z" fill="#212529"/>
<path fill-rule="evenodd" clip-rule="evenodd" d="M16.3353 2.32919C16.7058 2.51443 16.856 2.96494 16.6707 3.33542L15.6707 5.33542C15.4855 5.70591 15.035 5.85607 14.6645 5.67083C14.294 5.48559 14.1439 5.03509 14.3291 4.6646L15.3291 2.6646C15.5143 2.29412 15.9648 2.14395 16.3353 2.32919Z" fill="#212529"/>
<path fill-rule="evenodd" clip-rule="evenodd" d="M9 17.25C9.41421 17.25 9.75 17.5858 9.75 18V21C9.75 21.4142 9.41421 21.75 9 21.75C8.58579 21.75 8.25 21.4142 8.25 21V18C8.25 17.5858 8.58579 17.25 9 17.25Z" fill="#212529"/>
<path fill-rule="evenodd" clip-rule="evenodd" d="M15 17.25C15.4142 17.25 15.75 17.5858 15.75 18V21C15.75 21.4142 15.4142 21.75 15 21.75C14.5858 21.75 14.25 21.4142 14.25 21V18C14.25 17.5858 14.5858 17.25 15 17.25Z" fill="#212529"/>
</svg>
