<svg width="24" height="24" viewBox="0 0 24 24" fill="none" xmlns="http://www.w3.org/2000/svg">
<path fill-rule="evenodd" clip-rule="evenodd" d="M9.03618 3.59396C10.9858 3.13928 13.0141 3.13928 14.9637 3.59396C16.0881 2.88095 16.9575 2.55477 17.5906 2.41713C17.9333 2.34264 18.2048 2.32382 18.4072 2.32832C18.5082 2.33057 18.5912 2.3386 18.6564 2.34812C18.689 2.35288 18.717 2.35799 18.7405 2.3629C18.7522 2.36536 18.7628 2.36776 18.7723 2.37004L18.7857 2.37336L18.7917 2.37493L18.7945 2.37569L18.7959 2.37607C18.7966 2.37625 18.7973 2.37644 18.6 3.10001L18.7973 2.37644C19.0136 2.43543 19.1922 2.58812 19.2841 2.79264C19.756 3.84301 19.845 5.02025 19.5449 6.1221C20.3201 7.07198 20.7487 8.26385 20.75 9.49925V9.50001C20.75 11.955 20.0225 13.6131 18.7909 14.6795C17.8926 15.4573 16.7911 15.8614 15.6856 16.0806C15.6968 16.1284 15.7065 16.1771 15.7147 16.2267C15.7635 16.5194 15.7582 16.8667 15.7531 17.2009C15.7515 17.3024 15.75 17.4028 15.75 17.5V21C15.75 21.4142 15.4142 21.75 15 21.75C14.5857 21.75 14.25 21.4142 14.25 21V17.5C14.25 17.3156 14.2521 17.167 14.2539 17.043C14.2578 16.7752 14.26 16.6226 14.2352 16.4733C14.2149 16.3515 14.1776 16.2384 13.9696 16.0303C13.7654 15.8261 13.6966 15.5227 13.7927 15.2504C13.8889 14.978 14.1329 14.7851 14.4201 14.7543C15.7702 14.6096 16.9584 14.282 17.809 13.5455C18.6273 12.837 19.2498 11.6453 19.25 9.50078C19.2489 8.50058 18.8587 7.54004 18.1619 6.82252C17.9596 6.61418 17.8957 6.30777 17.998 6.03596C18.2628 5.33186 18.2888 4.56486 18.0796 3.85106C18.0285 3.85894 17.9717 3.86931 17.9093 3.88289C17.444 3.98404 16.655 4.26469 15.516 5.02405C15.338 5.14268 15.1179 5.1797 14.9109 5.1258C13.0021 4.62867 10.9978 4.62867 9.08898 5.1258C8.88201 5.1797 8.66188 5.14268 8.48393 5.02405C7.34489 4.26469 6.55592 3.98404 6.09063 3.88289C6.02816 3.86931 5.9714 3.85894 5.92026 3.85106C5.71106 4.56486 5.73708 5.33186 6.00193 6.03596C6.10418 6.30777 6.04031 6.61418 5.83799 6.82252C5.14127 7.53996 4.75106 8.50036 4.74995 9.50043C4.75003 11.6451 5.37253 12.8369 6.19089 13.5455C7.04146 14.282 8.22975 14.6096 9.57985 14.7543C9.86704 14.7851 10.111 14.978 10.2072 15.2504C10.3033 15.5227 10.2345 15.8261 10.0303 16.0303C9.83027 16.2304 9.75656 16.3971 9.72396 16.5666C9.68552 16.7665 9.69512 17.0147 9.74416 17.407C9.74802 17.4378 9.74995 17.4689 9.74995 17.5V18.9828C9.75022 18.9944 9.75022 19.006 9.74995 19.0175V21C9.74995 21.4142 9.41417 21.75 8.99995 21.75C8.58574 21.75 8.24995 21.4142 8.24995 21V19.9647C7.50715 20.0985 6.85915 20.0749 6.28543 19.9145C5.46711 19.6856 4.89329 19.2041 4.459 18.7046C4.18836 18.3934 3.92521 18.0106 3.70894 17.696C3.61072 17.5531 3.52216 17.4242 3.44696 17.3226C3.15309 16.9252 2.95996 16.77 2.78833 16.7195C2.39094 16.6027 2.16355 16.1858 2.28043 15.7884C2.3973 15.391 2.81419 15.1636 3.21158 15.2805C3.88994 15.48 4.33431 15.9998 4.65294 16.4306C4.7945 16.622 4.91258 16.7952 5.02422 16.959C5.20572 17.2253 5.3702 17.4666 5.59091 17.7204C5.90661 18.0834 6.24529 18.3457 6.68948 18.4699C7.05421 18.5719 7.55133 18.5978 8.24995 18.4331V17.5461C8.20188 17.1508 8.16769 16.7163 8.25095 16.2834C8.26432 16.2138 8.28051 16.1453 8.29961 16.0777C7.19902 15.8578 6.10332 15.4538 5.20902 14.6795C3.97742 13.6131 3.24995 11.955 3.24995 9.50001L3.24995 9.49925C3.25121 8.26385 3.67976 7.07198 4.45499 6.1221C4.15485 5.02025 4.24391 3.84301 4.71583 2.79264C4.80772 2.58812 4.9863 2.43543 5.20261 2.37644L5.39995 3.10001C5.20261 2.37644 5.20329 2.37625 5.20397 2.37607L5.20536 2.37569L5.20822 2.37493L5.21425 2.37336L5.2276 2.37004C5.23708 2.36776 5.24768 2.36536 5.25943 2.3629C5.28293 2.35799 5.31094 2.35288 5.3435 2.34812C5.40869 2.3386 5.49167 2.33057 5.59266 2.32832C5.79506 2.32382 6.06663 2.34264 6.40927 2.41713C7.04242 2.55477 7.91183 2.88095 9.03618 3.59396Z" fill="#212529"/>
</svg>
