<svg width="24" height="24" viewBox="0 0 24 24" fill="none" xmlns="http://www.w3.org/2000/svg">
<path fill-rule="evenodd" clip-rule="evenodd" d="M3.25 5C3.25 4.0335 4.0335 3.25 5 3.25H19C19.9665 3.25 20.75 4.0335 20.75 5V19C20.75 19.9665 19.9665 20.75 19 20.75H5C4.0335 20.75 3.25 19.9665 3.25 19V5ZM5 4.75C4.86193 4.75 4.75 4.86193 4.75 5V19C4.75 19.1381 4.86193 19.25 5 19.25H19C19.1381 19.25 19.25 19.1381 19.25 19V5C19.25 4.86193 19.1381 4.75 19 4.75H5Z" fill="#212529"/>
<path fill-rule="evenodd" clip-rule="evenodd" d="M3.25 8C3.25 7.58579 3.58579 7.25 4 7.25H20C20.4142 7.25 20.75 7.58579 20.75 8C20.75 8.41421 20.4142 8.75 20 8.75H4C3.58579 8.75 3.25 8.41421 3.25 8Z" fill="#212529"/>
<path fill-rule="evenodd" clip-rule="evenodd" d="M8 3.25C8.41421 3.25 8.75 3.58579 8.75 4V8C8.75 8.41421 8.41421 8.75 8 8.75C7.58579 8.75 7.25 8.41421 7.25 8V4C7.25 3.58579 7.58579 3.25 8 3.25Z" fill="#212529"/>
</svg>
