<svg width="24" height="24" viewBox="0 0 24 24" fill="none" xmlns="http://www.w3.org/2000/svg">
<path fill-rule="evenodd" clip-rule="evenodd" d="M2.25 5C2.25 4.58579 2.58579 4.25 3 4.25H7C7.41421 4.25 7.75 4.58579 7.75 5V7.25H9.25V5C9.25 4.58579 9.58579 4.25 10 4.25H14C14.4142 4.25 14.75 4.58579 14.75 5V7.25H16.25V5C16.25 4.58579 16.5858 4.25 17 4.25H21C21.4142 4.25 21.75 4.58579 21.75 5V19C21.75 19.9665 20.9665 20.75 20 20.75H16C15.0335 20.75 14.25 19.9665 14.25 19V17C14.25 15.7574 13.2426 14.75 12 14.75C10.7574 14.75 9.75 15.7574 9.75 17V19C9.75 19.9665 8.9665 20.75 8 20.75H4C3.0335 20.75 2.25 19.9665 2.25 19V5ZM3.75 5.75V19C3.75 19.1381 3.86193 19.25 4 19.25H8C8.13807 19.25 8.25 19.1381 8.25 19V17C8.25 14.9289 9.92893 13.25 12 13.25C14.0711 13.25 15.75 14.9289 15.75 17V19C15.75 19.1381 15.8619 19.25 16 19.25H20C20.1381 19.25 20.25 19.1381 20.25 19V5.75H17.75V8C17.75 8.41421 17.4142 8.75 17 8.75H14C13.5858 8.75 13.25 8.41421 13.25 8V5.75H10.75V8C10.75 8.41421 10.4142 8.75 10 8.75H7C6.58579 8.75 6.25 8.41421 6.25 8V5.75H3.75Z" fill="#212529"/>
<path fill-rule="evenodd" clip-rule="evenodd" d="M2.25 11C2.25 10.5858 2.58579 10.25 3 10.25H21C21.4142 10.25 21.75 10.5858 21.75 11C21.75 11.4142 21.4142 11.75 21 11.75H3C2.58579 11.75 2.25 11.4142 2.25 11Z" fill="#212529"/>
</svg>
