<svg width="24" height="24" viewBox="0 0 24 24" fill="none" xmlns="http://www.w3.org/2000/svg">
<path fill-rule="evenodd" clip-rule="evenodd" d="M15.7458 6.80055C14.443 5.76603 12.6037 5.42456 10.9294 5.93107C9.25791 6.43671 8.06292 7.68891 7.73175 9.16428C7.65489 9.50669 7.35088 9.75002 6.99996 9.75002C4.78415 9.75002 3.04541 11.46 3.04541 13.5C3.04541 15.54 4.78415 17.25 6.99996 17.25C7.41417 17.25 7.74996 17.5858 7.74996 18C7.74996 18.4142 7.41417 18.75 6.99996 18.75C4.01926 18.75 1.54541 16.4306 1.54541 13.5C1.54541 10.7602 3.70764 8.55462 6.42479 8.27904C7.03541 6.48229 8.56163 5.08021 10.495 4.49532C12.6211 3.85217 14.975 4.27309 16.6786 5.62584C18.1382 6.78486 18.9393 8.4897 18.8555 10.25H19C21.3472 10.25 23.25 12.1528 23.25 14.5C23.25 16.8472 21.3472 18.75 19 18.75H18C17.5857 18.75 17.25 18.4142 17.25 18C17.25 17.5858 17.5857 17.25 18 17.25H19C20.5187 17.25 21.75 16.0188 21.75 14.5C21.75 12.9812 20.5187 11.75 19 11.75H18C17.7722 11.75 17.5568 11.6465 17.4144 11.4687C17.2721 11.2909 17.2183 11.058 17.2682 10.8358C17.5975 9.36842 17.0406 7.82867 15.7458 6.80055Z" fill="#212529"/>
<path fill-rule="evenodd" clip-rule="evenodd" d="M11.4697 11.4697C11.7626 11.1768 12.2374 11.1768 12.5303 11.4697L15.5303 14.4697C15.8232 14.7626 15.8232 15.2374 15.5303 15.5303C15.2374 15.8232 14.7626 15.8232 14.4697 15.5303L12 13.0607L9.53033 15.5303C9.23744 15.8232 8.76256 15.8232 8.46967 15.5303C8.17678 15.2374 8.17678 14.7626 8.46967 14.4697L11.4697 11.4697Z" fill="#212529"/>
<path fill-rule="evenodd" clip-rule="evenodd" d="M12 11.25C12.4142 11.25 12.75 11.5858 12.75 12V21C12.75 21.4142 12.4142 21.75 12 21.75C11.5858 21.75 11.25 21.4142 11.25 21V12C11.25 11.5858 11.5858 11.25 12 11.25Z" fill="#212529"/>
</svg>
