<svg width="24" height="24" viewBox="0 0 24 24" fill="none" xmlns="http://www.w3.org/2000/svg">
<path fill-rule="evenodd" clip-rule="evenodd" d="M10.4951 4.49532C12.6211 3.85217 14.975 4.27309 16.6786 5.62584C18.1383 6.78486 18.9393 8.4897 18.8555 10.25H19C21.3472 10.25 23.25 12.1528 23.25 14.5C23.25 16.8472 21.3472 18.75 19 18.75C18.5858 18.75 18.25 18.4142 18.25 18C18.25 17.5858 18.5858 17.25 19 17.25C20.5188 17.25 21.75 16.0188 21.75 14.5C21.75 12.9812 20.5188 11.75 19 11.75H18C17.7722 11.75 17.5568 11.6465 17.4145 11.4687C17.2721 11.2909 17.2183 11.058 17.2682 10.8358C17.5976 9.36842 17.0406 7.82867 15.7459 6.80055C14.443 5.76603 12.6037 5.42456 10.9294 5.93107C9.25794 6.43671 8.06295 7.68891 7.73178 9.16428C7.65245 9.51769 7.33189 9.76392 6.96997 9.74942C5.10428 9.67469 3.4816 10.8734 3.06127 12.5547C2.64294 14.2281 3.51537 15.9783 5.19968 16.7125C5.57939 16.878 5.75303 17.32 5.58751 17.6997C5.422 18.0794 4.98001 18.2531 4.6003 18.0875C2.27974 17.076 1.0008 14.612 1.60606 12.1909C2.16137 9.9697 4.14524 8.41304 6.43176 8.25875C7.04695 6.47174 8.56895 5.078 10.4951 4.49532Z" fill="#212529"/>
<path fill-rule="evenodd" clip-rule="evenodd" d="M12 12.25C12.4142 12.25 12.75 12.5858 12.75 13V22C12.75 22.4142 12.4142 22.75 12 22.75C11.5858 22.75 11.25 22.4142 11.25 22V13C11.25 12.5858 11.5858 12.25 12 12.25Z" fill="#212529"/>
<path fill-rule="evenodd" clip-rule="evenodd" d="M8.46967 18.4697C8.76256 18.1768 9.23744 18.1768 9.53033 18.4697L12 20.9393L14.4697 18.4697C14.7626 18.1768 15.2374 18.1768 15.5303 18.4697C15.8232 18.7626 15.8232 19.2374 15.5303 19.5303L12.5303 22.5303C12.2374 22.8232 11.7626 22.8232 11.4697 22.5303L8.46967 19.5303C8.17678 19.2374 8.17678 18.7626 8.46967 18.4697Z" fill="#212529"/>
</svg>
