<svg width="24" height="24" viewBox="0 0 24 24" fill="none" xmlns="http://www.w3.org/2000/svg">
<path fill-rule="evenodd" clip-rule="evenodd" d="M7.53033 7.46967C7.82322 7.76256 7.82322 8.23744 7.53033 8.53033L4.06066 12L7.53033 15.4697C7.82322 15.7626 7.82322 16.2374 7.53033 16.5303C7.23744 16.8232 6.76256 16.8232 6.46967 16.5303L2.46967 12.5303C2.17678 12.2374 2.17678 11.7626 2.46967 11.4697L6.46967 7.46967C6.76256 7.17678 7.23744 7.17678 7.53033 7.46967Z" fill="#212529"/>
<path fill-rule="evenodd" clip-rule="evenodd" d="M16.4697 7.46967C16.7626 7.17678 17.2374 7.17678 17.5303 7.46967L21.5303 11.4697C21.8232 11.7626 21.8232 12.2374 21.5303 12.5303L17.5303 16.5303C17.2374 16.8232 16.7626 16.8232 16.4697 16.5303C16.1768 16.2374 16.1768 15.7626 16.4697 15.4697L19.9393 12L16.4697 8.53033C16.1768 8.23744 16.1768 7.76256 16.4697 7.46967Z" fill="#212529"/>
<path fill-rule="evenodd" clip-rule="evenodd" d="M14.1818 3.27239C14.5837 3.37285 14.828 3.78005 14.7275 4.1819L10.7275 20.1819C10.6271 20.5837 10.2199 20.8281 9.81803 20.7276C9.41619 20.6271 9.17186 20.2199 9.27233 19.8181L13.2723 3.81809C13.3728 3.41625 13.78 3.17193 14.1818 3.27239Z" fill="#212529"/>
</svg>
