<svg width="24" height="24" viewBox="0 0 24 24" fill="none" xmlns="http://www.w3.org/2000/svg">
<path fill-rule="evenodd" clip-rule="evenodd" d="M15.5303 8.46967C15.8232 8.76256 15.8232 9.23744 15.5303 9.53033L9.53033 15.5303C9.23744 15.8232 8.76256 15.8232 8.46967 15.5303C8.17678 15.2374 8.17678 14.7626 8.46967 14.4697L14.4697 8.46967C14.7626 8.17678 15.2374 8.17678 15.5303 8.46967Z" fill="#212529"/>
<path d="M10 9.5C10 9.77614 9.77614 10 9.5 10C9.22386 10 9 9.77614 9 9.5C9 9.22386 9.22386 9 9.5 9C9.77614 9 10 9.22386 10 9.5Z" fill="#212529"/>
<path fill-rule="evenodd" clip-rule="evenodd" d="M9.5 9.75C9.63807 9.75 9.75 9.63807 9.75 9.5C9.75 9.36193 9.63807 9.25 9.5 9.25C9.36193 9.25 9.25 9.36193 9.25 9.5C9.25 9.63807 9.36193 9.75 9.5 9.75ZM8.25 9.5C8.25 8.80964 8.80964 8.25 9.5 8.25C10.1904 8.25 10.75 8.80964 10.75 9.5C10.75 10.1904 10.1904 10.75 9.5 10.75C8.80964 10.75 8.25 10.1904 8.25 9.5Z" fill="#212529"/>
<path d="M15 14.5C15 14.7761 14.7761 15 14.5 15C14.2239 15 14 14.7761 14 14.5C14 14.2239 14.2239 14 14.5 14C14.7761 14 15 14.2239 15 14.5Z" fill="#212529"/>
<path fill-rule="evenodd" clip-rule="evenodd" d="M14.5 14.75C14.6381 14.75 14.75 14.6381 14.75 14.5C14.75 14.3619 14.6381 14.25 14.5 14.25C14.3619 14.25 14.25 14.3619 14.25 14.5C14.25 14.6381 14.3619 14.75 14.5 14.75ZM13.25 14.5C13.25 13.8096 13.8096 13.25 14.5 13.25C15.1904 13.25 15.75 13.8096 15.75 14.5C15.75 15.1904 15.1904 15.75 14.5 15.75C13.8096 15.75 13.25 15.1904 13.25 14.5Z" fill="#212529"/>
<path fill-rule="evenodd" clip-rule="evenodd" d="M12 3.75C7.44365 3.75 3.75 7.44365 3.75 12C3.75 16.5563 7.44365 20.25 12 20.25C16.5563 20.25 20.25 16.5563 20.25 12C20.25 7.44365 16.5563 3.75 12 3.75ZM2.25 12C2.25 6.61522 6.61522 2.25 12 2.25C17.3848 2.25 21.75 6.61522 21.75 12C21.75 17.3848 17.3848 21.75 12 21.75C6.61522 21.75 2.25 17.3848 2.25 12Z" fill="#212529"/>
</svg>
