<svg width="24" height="24" viewBox="0 0 24 24" fill="none" xmlns="http://www.w3.org/2000/svg">
<path fill-rule="evenodd" clip-rule="evenodd" d="M2.46967 2.46967C2.76256 2.17678 3.23744 2.17678 3.53033 2.46967L21.5303 20.4697C21.8232 20.7626 21.8232 21.2374 21.5303 21.5303C21.2374 21.8232 20.7626 21.8232 20.4697 21.5303L2.46967 3.53033C2.17678 3.23744 2.17678 2.76256 2.46967 2.46967Z" fill="#212529"/>
<path fill-rule="evenodd" clip-rule="evenodd" d="M3.25 15C3.25 13.4812 4.48122 12.25 6 12.25H7C8.51878 12.25 9.75 13.4812 9.75 15V18C9.75 19.5188 8.51878 20.75 7 20.75H6C4.48122 20.75 3.25 19.5188 3.25 18V15ZM6 13.75C5.30964 13.75 4.75 14.3096 4.75 15V18C4.75 18.6904 5.30964 19.25 6 19.25H7C7.69036 19.25 8.25 18.6904 8.25 18V15C8.25 14.3096 7.69036 13.75 7 13.75H6Z" fill="#212529"/>
<path fill-rule="evenodd" clip-rule="evenodd" d="M16.25 13C16.25 12.5858 16.5858 12.25 17 12.25H18C19.5188 12.25 20.75 13.4812 20.75 15V16C20.75 16.4142 20.4142 16.75 20 16.75C19.5858 16.75 19.25 16.4142 19.25 16V15C19.25 14.3096 18.6904 13.75 18 13.75H17C16.5858 13.75 16.25 13.4142 16.25 13ZM15 14.25C15.4142 14.25 15.75 14.5858 15.75 15V18C15.75 18.6904 16.3096 19.25 17 19.25H18C18.3446 19.25 18.6553 19.1114 18.8814 18.8859C19.1747 18.5934 19.6496 18.5941 19.9421 18.8874C20.2346 19.1807 20.2339 19.6556 19.9406 19.9481C19.4447 20.4426 18.7574 20.75 18 20.75H17C15.4812 20.75 14.25 19.5188 14.25 18V15C14.25 14.5858 14.5858 14.25 15 14.25Z" fill="#212529"/>
<path fill-rule="evenodd" clip-rule="evenodd" d="M15.9358 5.90889C13.8688 4.57276 11.2651 4.37655 9.02116 5.38782C8.64352 5.55801 8.19942 5.38984 8.02923 5.0122C7.85904 4.63457 8.02721 4.19047 8.40484 4.02028C11.113 2.79979 14.2554 3.03659 16.7501 4.64916C19.2447 6.26169 20.7508 9.02966 20.75 12C20.75 12.0001 20.75 12 20.75 12V15C20.75 15.4143 20.4142 15.75 20 15.75C19.5858 15.75 19.25 15.4143 19.25 15V12C19.2508 9.5388 18.0028 7.24502 15.9358 5.90889ZM6.87433 5.81172C7.16722 6.10461 7.16722 6.57949 6.87433 6.87238C5.56115 8.18556 4.75 9.99706 4.75 12V15C4.75 15.4143 4.41421 15.75 4 15.75C3.58579 15.75 3.25 15.4143 3.25 15V12C3.25 9.58304 4.23085 7.39454 5.81367 5.81172C6.10656 5.51883 6.58144 5.51883 6.87433 5.81172Z" fill="#212529"/>
</svg>
