<svg width="24" height="24" viewBox="0 0 24 24" fill="none" xmlns="http://www.w3.org/2000/svg">
<path fill-rule="evenodd" clip-rule="evenodd" d="M12 7.25C12.4142 7.25 12.75 7.58579 12.75 8V11.6893L14.5303 13.4697C14.8232 13.7626 14.8232 14.2374 14.5303 14.5303C14.2374 14.8232 13.7626 14.8232 13.4697 14.5303L11.4697 12.5303C11.329 12.3897 11.25 12.1989 11.25 12V8C11.25 7.58579 11.5858 7.25 12 7.25Z" fill="#212529"/>
<path fill-rule="evenodd" clip-rule="evenodd" d="M20.1901 10.8887C19.6695 6.72451 16.1059 3.61461 11.9096 3.66254C7.71322 3.71047 4.22152 6.90096 3.79625 11.076C3.75427 11.488 3.38618 11.7881 2.9741 11.7461C2.56202 11.7041 2.26199 11.336 2.30397 10.924C2.80657 5.98986 6.93311 2.21928 11.8924 2.16263C16.8517 2.10599 21.0633 5.78133 21.6785 10.7027C22.2936 15.624 19.1163 20.2229 14.2957 21.3888C10.1871 22.3824 6.00071 20.6124 3.80011 17.1837V20C3.80011 20.4142 3.46432 20.75 3.05011 20.75C2.63589 20.75 2.30011 20.4142 2.30011 20V15C2.30011 14.5857 2.63589 14.25 3.05011 14.25H3.53261C3.54426 14.2497 3.55588 14.2497 3.56748 14.25H8.05011C8.46432 14.25 8.80011 14.5857 8.80011 15C8.80011 15.4142 8.46432 15.75 8.05011 15.75H4.70009C6.43328 19.0552 10.2258 20.8298 13.9431 19.9308C18.0221 18.9443 20.7106 15.0529 20.1901 10.8887Z" fill="#212529"/>
</svg>
