<svg width="24" height="24" viewBox="0 0 24 24" fill="none" xmlns="http://www.w3.org/2000/svg">
<path fill-rule="evenodd" clip-rule="evenodd" d="M4.25 13C4.25 11.4812 5.48122 10.25 7 10.25H17C18.5188 10.25 19.75 11.4812 19.75 13V19C19.75 20.5188 18.5188 21.75 17 21.75H7C5.48122 21.75 4.25 20.5188 4.25 19V13ZM7 11.75C6.30964 11.75 5.75 12.3096 5.75 13V19C5.75 19.6904 6.30964 20.25 7 20.25H17C17.6904 20.25 18.25 19.6904 18.25 19V13C18.25 12.3096 17.6904 11.75 17 11.75H7Z" fill="#212529"/>
<path fill-rule="evenodd" clip-rule="evenodd" d="M12 15.75C11.8619 15.75 11.75 15.8619 11.75 16C11.75 16.1381 11.8619 16.25 12 16.25C12.1381 16.25 12.25 16.1381 12.25 16C12.25 15.8619 12.1381 15.75 12 15.75ZM10.25 16C10.25 15.0335 11.0335 14.25 12 14.25C12.9665 14.25 13.75 15.0335 13.75 16C13.75 16.9665 12.9665 17.75 12 17.75C11.0335 17.75 10.25 16.9665 10.25 16Z" fill="#212529"/>
<path fill-rule="evenodd" clip-rule="evenodd" d="M12 3.75C10.2051 3.75 8.75 5.20507 8.75 7V11C8.75 11.4142 8.41421 11.75 8 11.75C7.58579 11.75 7.25 11.4142 7.25 11V7C7.25 4.37665 9.37665 2.25 12 2.25C14.6234 2.25 16.75 4.37665 16.75 7V11C16.75 11.4142 16.4142 11.75 16 11.75C15.5858 11.75 15.25 11.4142 15.25 11V7C15.25 5.20507 13.7949 3.75 12 3.75Z" fill="#212529"/>
</svg>
