<svg width="24" height="24" viewBox="0 0 24 24" fill="none" xmlns="http://www.w3.org/2000/svg">
<path fill-rule="evenodd" clip-rule="evenodd" d="M2.25 6C2.25 4.48122 3.48122 3.25 5 3.25H12C13.5188 3.25 14.75 4.48122 14.75 6V8C14.75 8.41421 14.4142 8.75 14 8.75C13.5858 8.75 13.25 8.41421 13.25 8V6C13.25 5.30964 12.6904 4.75 12 4.75H5C4.30964 4.75 3.75 5.30964 3.75 6V18C3.75 18.6904 4.30964 19.25 5 19.25H12C12.6904 19.25 13.25 18.6904 13.25 18V16C13.25 15.5858 13.5858 15.25 14 15.25C14.4142 15.25 14.75 15.5858 14.75 16V18C14.75 19.5188 13.5188 20.75 12 20.75H5C3.48122 20.75 2.25 19.5188 2.25 18V6Z" fill="#212529"/>
<path fill-rule="evenodd" clip-rule="evenodd" d="M10.5304 8.46967C10.8232 8.76256 10.8232 9.23744 10.5304 9.53033L8.81068 11.25H20C20.4142 11.25 20.75 11.5858 20.75 12C20.75 12.4142 20.4142 12.75 20 12.75H8.81068L10.5304 14.4697C10.8232 14.7626 10.8232 15.2374 10.5304 15.5303C10.2375 15.8232 9.76258 15.8232 9.46969 15.5303L6.47362 12.5343C6.4592 12.5201 6.44533 12.5052 6.43205 12.4899C6.33307 12.3753 6.27446 12.238 6.25621 12.0964C6.24986 12.0474 6.24841 11.9982 6.25172 11.9494C6.26348 11.7746 6.33613 11.6032 6.46969 11.4697L9.46969 8.46967C9.76258 8.17678 10.2375 8.17678 10.5304 8.46967Z" fill="#212529"/>
</svg>
