<svg width="24" height="24" viewBox="0 0 24 24" fill="none" xmlns="http://www.w3.org/2000/svg">
<path fill-rule="evenodd" clip-rule="evenodd" d="M2.25 6C2.25 4.48122 3.48122 3.25 5 3.25H12C13.5188 3.25 14.75 4.48122 14.75 6V8C14.75 8.41421 14.4142 8.75 14 8.75C13.5858 8.75 13.25 8.41421 13.25 8V6C13.25 5.30964 12.6904 4.75 12 4.75H5C4.30964 4.75 3.75 5.30964 3.75 6V18C3.75 18.6904 4.30964 19.25 5 19.25H12C12.6904 19.25 13.25 18.6904 13.25 18V16C13.25 15.5858 13.5858 15.25 14 15.25C14.4142 15.25 14.75 15.5858 14.75 16V18C14.75 19.5188 13.5188 20.75 12 20.75H5C3.48122 20.75 2.25 19.5188 2.25 18V6Z" fill="#212529"/>
<path fill-rule="evenodd" clip-rule="evenodd" d="M17.4697 8.46967C17.7626 8.17678 18.2374 8.17678 18.5303 8.46967L21.5303 11.4697C21.6639 11.6032 21.7365 11.7746 21.7483 11.9494C21.7516 11.9982 21.7502 12.0474 21.7438 12.0964C21.7256 12.238 21.667 12.3753 21.568 12.4899C21.5547 12.5053 21.5408 12.5201 21.5264 12.5343L18.5303 15.5303C18.2374 15.8232 17.7626 15.8232 17.4697 15.5303C17.1768 15.2374 17.1768 14.7626 17.4697 14.4697L19.1893 12.75H7C6.58579 12.75 6.25 12.4142 6.25 12C6.25 11.5858 6.58579 11.25 7 11.25H19.1893L17.4697 9.53033C17.1768 9.23744 17.1768 8.76256 17.4697 8.46967Z" fill="#212529"/>
</svg>
