<svg width="24" height="24" viewBox="0 0 24 24" fill="none" xmlns="http://www.w3.org/2000/svg">
<path fill-rule="evenodd" clip-rule="evenodd" d="M11 3.75C10.8619 3.75 10.75 3.86193 10.75 4V10C10.75 10.1381 10.8619 10.25 11 10.25H18C18.1989 10.25 18.3897 10.329 18.5303 10.4697L20.25 12.1893V4C20.25 3.86193 20.1381 3.75 20 3.75H11ZM21.75 14V4C21.75 3.0335 20.9665 2.25 20 2.25H11C10.0335 2.25 9.25 3.0335 9.25 4V10C9.25 10.9665 10.0335 11.75 11 11.75H17.6893L20.4692 14.5298C20.471 14.5316 20.4728 14.5334 20.4746 14.5352M21.5254 14.5352C21.4547 14.6047 21.3735 14.6573 21.2871 14.6931C21.1987 14.7298 21.1017 14.75 21 14.75C20.8983 14.75 20.8013 14.7298 20.7129 14.6931C20.6265 14.6573 20.5453 14.6047 20.4746 14.5352M21.6931 14.2871C21.6573 14.3735 21.6047 14.4547 21.5352 14.5254C21.532 14.5287 21.5287 14.532 21.5254 14.5352M21.6931 14.2871C21.7298 14.1987 21.75 14.1017 21.75 14Z" fill="#212529"/>
<path fill-rule="evenodd" clip-rule="evenodd" d="M4 10.75C3.86193 10.75 3.75 10.8619 3.75 11V19.1893L5.46967 17.4697C5.61032 17.329 5.80109 17.25 6 17.25H13C13.1381 17.25 13.25 17.1381 13.25 17V15C13.25 14.5858 13.5858 14.25 14 14.25C14.4142 14.25 14.75 14.5858 14.75 15V17C14.75 17.9665 13.9665 18.75 13 18.75H6.31066L3.53033 21.5303C3.31583 21.7448 2.99324 21.809 2.71299 21.6929C2.43273 21.5768 2.25 21.3033 2.25 21V11C2.25 10.0335 3.0335 9.25 4 9.25H6C6.41421 9.25 6.75 9.58579 6.75 10C6.75 10.4142 6.41421 10.75 6 10.75H4Z" fill="#212529"/>
</svg>
