<svg width="24" height="24" viewBox="0 0 24 24" fill="none" xmlns="http://www.w3.org/2000/svg">
<path fill-rule="evenodd" clip-rule="evenodd" d="M12 3.75C7.44365 3.75 3.75 7.44365 3.75 12C3.75 16.5563 7.44365 20.25 12 20.25C16.5563 20.25 20.25 16.5563 20.25 12C20.25 7.44365 16.5563 3.75 12 3.75ZM2.25 12C2.25 6.61522 6.61522 2.25 12 2.25C17.3848 2.25 21.75 6.61522 21.75 12C21.75 17.3848 17.3848 21.75 12 21.75C6.61522 21.75 2.25 17.3848 2.25 12Z" fill="#212529"/>
<path fill-rule="evenodd" clip-rule="evenodd" d="M12 2.25C12.4142 2.25 12.75 2.58579 12.75 3V21C12.75 21.4142 12.4142 21.75 12 21.75C11.5858 21.75 11.25 21.4142 11.25 21V3C11.25 2.58579 11.5858 2.25 12 2.25Z" fill="#212529"/>
<path fill-rule="evenodd" clip-rule="evenodd" d="M11.4697 11.4697C11.7626 11.1768 12.2374 11.1768 12.5303 11.4697L18.8303 17.7697C19.1232 18.0626 19.1232 18.5374 18.8303 18.8303C18.5374 19.1232 18.0626 19.1232 17.7697 18.8303L11.4697 12.5303C11.1768 12.2374 11.1768 11.7626 11.4697 11.4697Z" fill="#212529"/>
<path fill-rule="evenodd" clip-rule="evenodd" d="M12.5303 11.4697C12.8232 11.7626 12.8232 12.2374 12.5303 12.5303L6.23028 18.8303C5.93739 19.1232 5.46251 19.1232 5.16962 18.8303C4.87673 18.5374 4.87673 18.0626 5.16962 17.7697L11.4696 11.4697C11.7625 11.1768 12.2374 11.1768 12.5303 11.4697Z" fill="#212529"/>
</svg>
