<svg width="24" height="24" viewBox="0 0 24 24" fill="none" xmlns="http://www.w3.org/2000/svg">
<path fill-rule="evenodd" clip-rule="evenodd" d="M21.5303 2.46967C21.8232 2.76256 21.8232 3.23744 21.5303 3.53033L3.53033 21.5303C3.23744 21.8232 2.76256 21.8232 2.46967 21.5303C2.17678 21.2374 2.17678 20.7626 2.46967 20.4697L20.4697 2.46967C20.7626 2.17678 21.2374 2.17678 21.5303 2.46967Z" fill="#212529"/>
<path fill-rule="evenodd" clip-rule="evenodd" d="M3.75016 5.97994C3.92079 8.76236 4.85353 11.4444 6.44652 13.7325C6.68319 14.0724 6.59947 14.5398 6.25953 14.7765C5.9196 15.0132 5.45216 14.9295 5.21549 14.5895C3.46009 12.0682 2.4344 9.11144 2.25133 6.04469C2.25044 6.02981 2.25 6.01491 2.25 6C2.25 4.48122 3.48122 3.25 5 3.25H9C9.30668 3.25 9.58246 3.43671 9.69636 3.72146L11.6964 8.72146C11.8331 9.06324 11.7015 9.45373 11.3859 9.64312L9.49789 10.7759C9.69984 11.1329 9.57736 11.5869 9.22175 11.7935C8.86359 12.0016 8.40457 11.8799 8.19649 11.5218C8.06563 11.2965 7.94239 11.0661 7.82675 10.8305C7.65498 10.4806 7.77988 10.0574 8.11413 9.85688L10.0664 8.6855L8.49223 4.75H5C4.31634 4.75 3.76087 5.29884 3.75016 5.97994ZM14.3569 12.6141C14.5463 12.2985 14.9368 12.1669 15.2785 12.3036L20.2785 14.3036C20.5633 14.4175 20.75 14.6933 20.75 15V19C20.75 20.5188 19.5188 21.75 18 21.75C17.9851 21.75 17.9701 21.7496 17.9552 21.7487C13.87 21.5042 10.0165 19.7693 7.1252 16.8729C6.83257 16.5797 6.83299 16.1048 7.12614 15.8122C7.4193 15.5196 7.89417 15.52 8.1868 15.8131C10.8128 18.4438 14.3107 20.0218 18.0201 20.2498C18.7012 20.2391 19.25 19.6836 19.25 19V15.5078L15.3145 13.9336L14.1431 15.8859C13.9423 16.2206 13.5182 16.3453 13.1681 16.1726C12.0124 15.6022 10.9669 14.8503 10.0666 13.9533C9.7732 13.6609 9.77236 13.186 10.0647 12.8926C10.3571 12.5992 10.832 12.5984 11.1254 12.8907C11.7501 13.5132 12.4549 14.0555 13.2243 14.5018L14.3569 12.6141Z" fill="#212529"/>
</svg>
