<svg width="24" height="24" viewBox="0 0 24 24" fill="none" xmlns="http://www.w3.org/2000/svg">
<path fill-rule="evenodd" clip-rule="evenodd" d="M3.75016 5.97958C4.229 13.6534 10.3466 19.771 18.0204 20.2498C18.7014 20.2389 19.25 19.6835 19.25 19V15.5078L15.3145 13.9336L14.1431 15.8859C13.9423 16.2206 13.5183 16.3453 13.1683 16.1726C10.8487 15.0287 8.97133 13.1513 7.82735 10.8317C7.65471 10.4817 7.77943 10.0577 8.11413 9.85688L10.0664 8.6855L8.49223 4.75H5C4.31646 4.75 3.76107 5.29864 3.75016 5.97958ZM5 3.25C3.48122 3.25 2.25 4.48122 2.25 6C2.25 6.01518 2.25046 6.03035 2.25138 6.04549C2.76494 14.4962 9.50376 21.2351 17.9545 21.7486C17.9697 21.7495 17.9848 21.75 18 21.75C19.5188 21.75 20.75 20.5188 20.75 19V15C20.75 14.6933 20.5633 14.4175 20.2785 14.3036L15.2785 12.3036C14.9368 12.1669 14.5463 12.2985 14.3569 12.6141L13.2242 14.5019C11.6788 13.6059 10.3941 12.3212 9.49809 10.7758L11.3859 9.64312C11.7015 9.45373 11.8331 9.06324 11.6964 8.72146L9.69636 3.72146C9.58246 3.43671 9.30668 3.25 9 3.25H5Z" fill="#212529"/>
</svg>
