<svg width="24" height="24" viewBox="0 0 24 24" fill="none" xmlns="http://www.w3.org/2000/svg">
<path fill-rule="evenodd" clip-rule="evenodd" d="M2.25 11C2.25 9.48122 3.48122 8.25 5 8.25H19C20.5188 8.25 21.75 9.48122 21.75 11V15C21.75 16.5188 20.5188 17.75 19 17.75H17C16.5858 17.75 16.25 17.4142 16.25 17C16.25 16.5858 16.5858 16.25 17 16.25H19C19.6904 16.25 20.25 15.6904 20.25 15V11C20.25 10.3096 19.6904 9.75 19 9.75H5C4.30964 9.75 3.75 10.3096 3.75 11V15C3.75 15.6904 4.30964 16.25 5 16.25H7C7.41421 16.25 7.75 16.5858 7.75 17C7.75 17.4142 7.41421 17.75 7 17.75H5C3.48122 17.75 2.25 16.5188 2.25 15V11Z" fill="#212529"/>
<path fill-rule="evenodd" clip-rule="evenodd" d="M6.25 5C6.25 3.48122 7.48122 2.25 9 2.25H15C16.5188 2.25 17.75 3.48122 17.75 5V9C17.75 9.41421 17.4142 9.75 17 9.75C16.5858 9.75 16.25 9.41421 16.25 9V5C16.25 4.30964 15.6904 3.75 15 3.75H9C8.30964 3.75 7.75 4.30964 7.75 5V9C7.75 9.41421 7.41421 9.75 7 9.75C6.58579 9.75 6.25 9.41421 6.25 9V5Z" fill="#212529"/>
<path fill-rule="evenodd" clip-rule="evenodd" d="M6.25 15C6.25 13.4812 7.48122 12.25 9 12.25H15C16.5188 12.25 17.75 13.4812 17.75 15V19C17.75 20.5188 16.5188 21.75 15 21.75H9C7.48122 21.75 6.25 20.5188 6.25 19V15ZM9 13.75C8.30964 13.75 7.75 14.3096 7.75 15V19C7.75 19.6904 8.30964 20.25 9 20.25H15C15.6904 20.25 16.25 19.6904 16.25 19V15C16.25 14.3096 15.6904 13.75 15 13.75H9Z" fill="#212529"/>
</svg>
