<svg width="24" height="24" viewBox="0 0 24 24" fill="none" xmlns="http://www.w3.org/2000/svg">
<path fill-rule="evenodd" clip-rule="evenodd" d="M16.9713 3.24999C18.4006 3.15041 19.4041 4.4378 19.7302 5.82881C19.7321 5.83681 19.7338 5.84485 19.7354 5.8529L20.7354 10.8529C20.7451 10.9013 20.75 10.9506 20.75 11C20.75 12.5188 19.5188 13.75 18 13.75H15.75V18C15.75 19.5188 14.5188 20.75 13 20.75C11.4812 20.75 10.25 19.5188 10.25 18V17C10.25 15.2051 8.79493 13.75 7 13.75H4C3.0335 13.75 2.25 12.9665 2.25 12V4.99999C2.25 4.03349 3.0335 3.24999 4 3.24999H6C6.66579 3.24999 7.24474 3.62179 7.54055 4.16909C8.19895 3.59659 9.059 3.24999 10 3.24999H16.9713ZM6.25 4.99999C6.25 4.86192 6.13807 4.74999 6 4.74999H4C3.86193 4.74999 3.75 4.86192 3.75 4.99999V12C3.75 12.1381 3.86193 12.25 4 12.25H6.25V4.99999ZM7.75 12.3089V6.99999C7.75 5.75735 8.75736 4.74999 10 4.74999H17C17.0212 4.74999 17.0424 4.74909 17.0636 4.74729C17.3929 4.71927 18.0035 5.05067 18.2671 6.15971L19.2483 11.0658C19.2141 11.7255 18.6683 12.25 18 12.25H15C14.5858 12.25 14.25 12.5858 14.25 13V18C14.25 18.6903 13.6904 19.25 13 19.25C12.3096 19.25 11.75 18.6903 11.75 18V17C11.75 14.6318 10.017 12.6685 7.75 12.3089Z" fill="#212529"/>
</svg>
