<svg width="24" height="24" viewBox="0 0 24 24" fill="none" xmlns="http://www.w3.org/2000/svg">
<path fill-rule="evenodd" clip-rule="evenodd" d="M9 3.75C7.20507 3.75 5.75 5.20507 5.75 7C5.75 8.79493 7.20507 10.25 9 10.25C10.7949 10.25 12.25 8.79493 12.25 7C12.25 5.20507 10.7949 3.75 9 3.75ZM4.25 7C4.25 4.37665 6.37665 2.25 9 2.25C11.6234 2.25 13.75 4.37665 13.75 7C13.75 9.62335 11.6234 11.75 9 11.75C6.37665 11.75 4.25 9.62335 4.25 7Z" fill="#212529"/>
<path fill-rule="evenodd" clip-rule="evenodd" d="M7 15.75C5.20507 15.75 3.75 17.2051 3.75 19V21C3.75 21.4142 3.41421 21.75 3 21.75C2.58579 21.75 2.25 21.4142 2.25 21V19C2.25 16.3766 4.37665 14.25 7 14.25H11C13.6234 14.25 15.75 16.3766 15.75 19V21C15.75 21.4142 15.4142 21.75 15 21.75C14.5858 21.75 14.25 21.4142 14.25 21V19C14.25 17.2051 12.7949 15.75 11 15.75H7Z" fill="#212529"/>
<path fill-rule="evenodd" clip-rule="evenodd" d="M15.2735 2.94391C15.3762 2.54264 15.7848 2.30064 16.1861 2.40338C18.2879 2.94152 19.7579 4.83537 19.7579 7.00494C19.7579 9.17451 18.2879 11.0684 16.1861 11.6065C15.7848 11.7092 15.3762 11.4672 15.2735 11.066C15.1708 10.6647 15.4128 10.2561 15.814 10.1534C17.2521 9.78518 18.2579 8.48939 18.2579 7.00494C18.2579 5.5205 17.2521 4.2247 15.814 3.8565C15.4128 3.75376 15.1708 3.34518 15.2735 2.94391Z" fill="#212529"/>
<path fill-rule="evenodd" clip-rule="evenodd" d="M17.2739 14.9625C17.3774 14.5614 17.7865 14.3202 18.1875 14.4238C20.275 14.9627 21.7377 16.8398 21.75 18.9956L21.7501 19H21.7501V21C21.7501 21.4142 21.4143 21.75 21.0001 21.75C20.5858 21.75 20.2501 21.4142 20.2501 21V19.0022C20.2407 17.5281 19.2401 16.2447 17.8126 15.8761C17.4115 15.7726 17.1703 15.3635 17.2739 14.9625Z" fill="#212529"/>
</svg>
