<svg width="24" height="24" viewBox="0 0 24 24" fill="none" xmlns="http://www.w3.org/2000/svg">
<path fill-rule="evenodd" clip-rule="evenodd" d="M10.2271 4.81871C10.2037 4.81091 10.1781 4.82133 10.1668 4.84326C10.1456 4.88454 10.1205 4.92376 10.092 4.96041L6.59201 9.46041C6.44992 9.6431 6.23144 9.74996 6 9.74996H4C3.86193 9.74996 3.75 9.86188 3.75 9.99996V14C3.75 14.138 3.86193 14.25 4 14.25H6C6.01149 14.25 6.02292 14.2502 6.03428 14.2507C6.13988 14.2555 6.23979 14.2821 6.32961 14.3261C6.41948 14.37 6.50179 14.4325 6.57036 14.5129C6.57945 14.5235 6.58825 14.5344 6.59674 14.5456L10.092 19.0395C10.1205 19.0762 10.1456 19.1154 10.1668 19.1567C10.1781 19.1786 10.2037 19.189 10.2271 19.1812C10.2505 19.1734 10.2647 19.1497 10.2606 19.1254C10.2535 19.084 10.25 19.042 10.25 19V4.99995C10.25 4.95792 10.2535 4.91595 10.2606 4.87451C10.2647 4.8502 10.2505 4.82651 10.2271 4.81871ZM5.63319 15.75H4C3.0335 15.75 2.25 14.9665 2.25 14V9.99996C2.25 9.03346 3.0335 8.24996 4 8.24996H5.63319L8.87208 4.08566C9.23929 3.4548 10.002 3.16253 10.7014 3.39569C11.4033 3.62966 11.8387 4.32511 11.75 5.05289V18.947C11.8387 19.6748 11.4033 20.3703 10.7014 20.6042C10.002 20.8374 9.23929 20.5451 8.87209 19.9143L5.63319 15.75Z" fill="#212529"/>
<path fill-rule="evenodd" clip-rule="evenodd" d="M15.4697 9.46967C15.7626 9.17678 16.2374 9.17678 16.5303 9.46967L18 10.9393L19.4697 9.46967C19.7626 9.17678 20.2374 9.17678 20.5303 9.46967C20.8232 9.76256 20.8232 10.2374 20.5303 10.5303L19.0607 12L20.5303 13.4697C20.8232 13.7626 20.8232 14.2374 20.5303 14.5303C20.2374 14.8232 19.7626 14.8232 19.4697 14.5303L18 13.0607L16.5303 14.5303C16.2374 14.8232 15.7626 14.8232 15.4697 14.5303C15.1768 14.2374 15.1768 13.7626 15.4697 13.4697L16.9393 12L15.4697 10.5303C15.1768 10.2374 15.1768 9.76256 15.4697 9.46967Z" fill="#212529"/>
</svg>
