<svg width="24" height="24" viewBox="0 0 24 24" fill="none" xmlns="http://www.w3.org/2000/svg">
<path fill-rule="evenodd" clip-rule="evenodd" d="M11.2499 18C11.2499 17.5858 11.5857 17.25 11.9999 17.25H12.0099C12.4241 17.25 12.7599 17.5858 12.7599 18C12.7599 18.4142 12.4241 18.75 12.0099 18.75H11.9999C11.5857 18.75 11.2499 18.4142 11.2499 18Z" fill="#212529"/>
<path fill-rule="evenodd" clip-rule="evenodd" d="M14.2979 15.7024C13.0287 14.4337 10.9715 14.4337 9.70237 15.7024C9.40943 15.9953 8.93456 15.9952 8.64171 15.7023C8.34886 15.4093 8.34893 14.9344 8.64187 14.6416C10.4967 12.7873 13.5035 12.7873 15.3584 14.6416C15.6513 14.9344 15.6514 15.4093 15.3585 15.7023C15.0657 15.9952 14.5908 15.9953 14.2979 15.7024Z" fill="#212529"/>
<path fill-rule="evenodd" clip-rule="evenodd" d="M10.9382 10.0359C11.0305 10.4397 10.778 10.8419 10.3742 10.9342C9.04802 11.2374 7.83465 11.9094 6.8741 12.8726C6.58162 13.1659 6.10674 13.1666 5.81344 12.8741C5.52013 12.5816 5.51946 12.1068 5.81194 11.8135C6.97225 10.6499 8.43795 9.83812 10.0399 9.47191C10.4437 9.3796 10.8458 9.6321 10.9382 10.0359ZM13.6541 10.1345C13.7776 9.73911 14.1982 9.51867 14.5936 9.64214C15.9532 10.0667 17.1881 10.8181 18.1901 11.8305C18.4815 12.1249 18.479 12.5997 18.1846 12.8911C17.8902 13.1825 17.4153 13.18 17.124 12.8856C16.2944 12.0475 15.2721 11.4254 14.1465 11.074C13.7511 10.9505 13.5306 10.5299 13.6541 10.1345Z" fill="#212529"/>
<path fill-rule="evenodd" clip-rule="evenodd" d="M19.9545 10.0443C17.4172 7.50635 13.8212 6.33127 10.2748 6.88116C9.86549 6.94463 9.48222 6.66426 9.41875 6.25494C9.35528 5.84562 9.63565 5.46235 10.045 5.39888C14.0642 4.77566 18.1396 6.10742 21.0153 8.98375C21.3081 9.27668 21.3081 9.75155 21.0152 10.0444C20.7222 10.3373 20.2474 10.3372 19.9545 10.0443ZM7.74211 6.75064C7.91297 7.12797 7.7456 7.57237 7.36827 7.74324C6.13091 8.30356 5.00525 9.08332 4.04577 10.0448C3.75319 10.338 3.27831 10.3385 2.98512 10.0459C2.69192 9.75332 2.69142 9.27844 2.98401 8.98524C4.07141 7.89557 5.34717 7.01183 6.74951 6.37681C7.12684 6.20594 7.57124 6.37331 7.74211 6.75064Z" fill="#212529"/>
<path fill-rule="evenodd" clip-rule="evenodd" d="M2.46967 2.46967C2.76256 2.17678 3.23744 2.17678 3.53033 2.46967L21.5303 20.4697C21.8232 20.7626 21.8232 21.2374 21.5303 21.5303C21.2374 21.8232 20.7626 21.8232 20.4697 21.5303L2.46967 3.53033C2.17678 3.23744 2.17678 2.76256 2.46967 2.46967Z" fill="#212529"/>
</svg>
