<svg width="24" height="24" viewBox="0 0 24 24" fill="none" xmlns="http://www.w3.org/2000/svg">
<path fill-rule="evenodd" clip-rule="evenodd" d="M17.3614 5.74C14.1984 3.04217 9.52227 3.11923 6.4499 5.9198C3.37753 8.72038 2.86892 13.3695 5.26309 16.7681C5.41372 16.9819 5.44207 17.2588 5.33789 17.4987L4.24471 20.0163L7.91836 19.3616C8.07513 19.3337 8.23673 19.3564 8.37975 19.4264C12.1135 21.2545 16.6241 20.0189 18.905 16.5433C21.1859 13.0676 20.5244 8.43783 17.3614 5.74ZM2.91264 21.7451C2.98987 21.7542 3.0671 21.751 3.14174 21.7366L7.9455 20.8804C12.3128 22.8838 17.5092 21.4042 20.1591 17.3663C22.8547 13.2587 22.0729 7.78709 18.3348 4.59875C14.5968 1.41041 9.07039 1.50147 5.43941 4.81124C1.91406 8.02472 1.24488 13.2975 3.79856 17.2777L2.31612 20.6918C2.28482 20.7611 2.26386 20.8355 2.25485 20.9127C2.24394 21.0054 2.25074 21.0982 2.27345 21.1864C2.30008 21.2907 2.34785 21.3848 2.41125 21.4649C2.53342 21.6193 2.71364 21.7219 2.91264 21.7451Z" fill="#212529"/>
<path fill-rule="evenodd" clip-rule="evenodd" d="M8.25 9C8.25 8.30964 8.80964 7.75 9.5 7.75C10.1904 7.75 10.75 8.30964 10.75 9V10C10.75 10.5446 10.4017 11.0079 9.91572 11.1792C10.319 12.5783 11.4217 13.681 12.8208 14.0843C12.9921 13.5983 13.4554 13.25 14 13.25H15C15.6904 13.25 16.25 13.8096 16.25 14.5C16.25 15.1904 15.6904 15.75 15 15.75H14C10.8244 15.75 8.25 13.1756 8.25 10V9Z" fill="#212529"/>
</svg>
