<svg width="24" height="24" viewBox="0 0 24 24" fill="none" xmlns="http://www.w3.org/2000/svg">
<path fill-rule="evenodd" clip-rule="evenodd" d="M2.25 21C2.25 20.5858 2.58579 20.25 3 20.25H21C21.4142 20.25 21.75 20.5858 21.75 21C21.75 21.4142 21.4142 21.75 21 21.75H3C2.58579 21.75 2.25 21.4142 2.25 21Z" fill="#212529"/>
<path fill-rule="evenodd" clip-rule="evenodd" d="M5 10.1C5.41421 10.1 5.75 10.4358 5.75 10.85V21C5.75 21.4142 5.41421 21.75 5 21.75C4.58579 21.75 4.25 21.4142 4.25 21V10.85C4.25 10.4358 4.58579 10.1 5 10.1Z" fill="#212529"/>
<path fill-rule="evenodd" clip-rule="evenodd" d="M19 10.1C19.4142 10.1 19.75 10.4358 19.75 10.85V21C19.75 21.4142 19.4142 21.75 19 21.75C18.5858 21.75 18.25 21.4142 18.25 21V10.85C18.25 10.4358 18.5858 10.1 19 10.1Z" fill="#212529"/>
<path fill-rule="evenodd" clip-rule="evenodd" d="M11 15.75C10.3096 15.75 9.75 16.3096 9.75 17V21C9.75 21.4142 9.41421 21.75 9 21.75C8.58579 21.75 8.25 21.4142 8.25 21V17C8.25 15.4812 9.48122 14.25 11 14.25H13C14.5188 14.25 15.75 15.4812 15.75 17V21C15.75 21.4142 15.4142 21.75 15 21.75C14.5858 21.75 14.25 21.4142 14.25 21V17C14.25 16.3096 13.6904 15.75 13 15.75H11Z" fill="#212529"/>
</svg>
