<svg width="24" height="24" viewBox="0 0 24 24" fill="none" xmlns="http://www.w3.org/2000/svg">
<path fill-rule="evenodd" clip-rule="evenodd" d="M12.25 9C12.25 8.0335 13.0335 7.25 14 7.25H20C20.9665 7.25 21.75 8.0335 21.75 9V19C21.75 19.9665 20.9665 20.75 20 20.75H14C13.0335 20.75 12.25 19.9665 12.25 19V9ZM14 8.75C13.8619 8.75 13.75 8.86193 13.75 9V19C13.75 19.1381 13.8619 19.25 14 19.25H20C20.1381 19.25 20.25 19.1381 20.25 19V9C20.25 8.86193 20.1381 8.75 20 8.75H14Z" fill="#212529"/>
<path fill-rule="evenodd" clip-rule="evenodd" d="M2.25 5C2.25 4.0335 3.0335 3.25 4 3.25H17C17.9665 3.25 18.75 4.0335 18.75 5V8C18.75 8.41421 18.4142 8.75 18 8.75C17.5858 8.75 17.25 8.41421 17.25 8V5C17.25 4.86193 17.1381 4.75 17 4.75H4C3.86193 4.75 3.75 4.86193 3.75 5V17C3.75 17.1381 3.86193 17.25 4 17.25H13C13.4142 17.25 13.75 17.5858 13.75 18C13.75 18.4142 13.4142 18.75 13 18.75H4C3.0335 18.75 2.25 17.9665 2.25 17V5Z" fill="#212529"/>
<path fill-rule="evenodd" clip-rule="evenodd" d="M15.25 9C15.25 8.58579 15.5858 8.25 16 8.25H18C18.4142 8.25 18.75 8.58579 18.75 9C18.75 9.41421 18.4142 9.75 18 9.75H16C15.5858 9.75 15.25 9.41421 15.25 9Z" fill="#212529"/>
</svg>
