<svg width="24" height="24" viewBox="0 0 24 24" fill="none" xmlns="http://www.w3.org/2000/svg">
<path fill-rule="evenodd" clip-rule="evenodd" d="M2.25 19C2.25 18.5858 2.58579 18.25 3 18.25H21C21.4142 18.25 21.75 18.5858 21.75 19C21.75 19.4142 21.4142 19.75 21 19.75H3C2.58579 19.75 2.25 19.4142 2.25 19Z" fill="#212529"/>
<path fill-rule="evenodd" clip-rule="evenodd" d="M4.25 7C4.25 6.0335 5.0335 5.25 6 5.25H18C18.9665 5.25 19.75 6.0335 19.75 7V15C19.75 15.9665 18.9665 16.75 18 16.75H6C5.0335 16.75 4.25 15.9665 4.25 15V7ZM6 6.75C5.86193 6.75 5.75 6.86193 5.75 7V15C5.75 15.1381 5.86193 15.25 6 15.25H18C18.1381 15.25 18.25 15.1381 18.25 15V7C18.25 6.86193 18.1381 6.75 18 6.75H6Z" fill="#212529"/>
</svg>
