<svg width="24" height="24" viewBox="0 0 24 24" fill="none" xmlns="http://www.w3.org/2000/svg">
<path fill-rule="evenodd" clip-rule="evenodd" d="M9.31066 9.7149C9.31647 9.72044 9.32235 9.72588 9.32829 9.7312C10.051 10.3874 10.6647 11.1533 11.1472 12C10.6638 12.8483 10.0487 13.6154 9.32429 14.2724C9.31523 14.2807 9.30636 14.2891 9.29771 14.2978C8.3683 15.2274 6.97034 15.5057 5.75577 15.0027C4.54121 14.4997 3.74927 13.3146 3.74927 12C3.74927 10.6854 4.54121 9.50028 5.75577 8.9973C6.96881 8.49495 8.36478 8.77186 9.2942 9.69875C9.29959 9.7042 9.30507 9.70958 9.31066 9.7149ZM10.3452 8.62848C10.9709 9.19783 11.5261 9.83803 12.0001 10.5352C12.4741 9.83802 13.0293 9.19782 13.655 8.62847C15.0134 7.28032 17.0491 6.87871 18.8184 7.61144C20.5935 8.34656 21.751 10.0787 21.751 12C21.751 13.9213 20.5935 15.6534 18.8184 16.3886C17.0491 17.1213 15.0134 16.7197 13.655 15.3715C13.0293 14.8022 12.4741 14.162 12.0001 13.4649C11.5261 14.162 10.9709 14.8022 10.3452 15.3715C8.98682 16.7197 6.95119 17.1213 5.18185 16.3886C3.40672 15.6534 2.24927 13.9213 2.24927 12C2.24927 10.0787 3.40672 8.34656 5.18185 7.61144C6.95119 6.87871 8.98682 7.28032 10.3452 8.62848ZM12.8531 12C13.3364 12.8483 13.9515 13.6154 14.676 14.2724C14.685 14.2807 14.6939 14.2891 14.7025 14.2978C15.6319 15.2274 17.0299 15.5057 18.2445 15.0027C19.459 14.4997 20.251 13.3146 20.251 12C20.251 10.6854 19.459 9.50028 18.2445 8.9973C17.0299 8.49432 15.6319 8.77255 14.7025 9.70225C14.6939 9.71091 14.685 9.71935 14.676 9.72757C13.9515 10.3846 13.3364 11.1517 12.8531 12Z" fill="#212529"/>
</svg>
