<svg width="24" height="24" viewBox="0 0 24 24" fill="none" xmlns="http://www.w3.org/2000/svg">
<path fill-rule="evenodd" clip-rule="evenodd" d="M3.25 6C3.25 4.48122 4.48122 3.25 6 3.25H18C19.5188 3.25 20.75 4.48122 20.75 6V18C20.75 19.5188 19.5188 20.75 18 20.75H6C4.48122 20.75 3.25 19.5188 3.25 18V6ZM6 4.75C5.30964 4.75 4.75 5.30964 4.75 6V18C4.75 18.6904 5.30964 19.25 6 19.25H18C18.6904 19.25 19.25 18.6904 19.25 18V6C19.25 5.30964 18.6904 4.75 18 4.75H6Z" fill="#212529"/>
<path fill-rule="evenodd" clip-rule="evenodd" d="M8 3.25C8.41421 3.25 8.75 3.58579 8.75 4V20C8.75 20.4142 8.41421 20.75 8 20.75C7.58579 20.75 7.25 20.4142 7.25 20V4C7.25 3.58579 7.58579 3.25 8 3.25Z" fill="#212529"/>
<path fill-rule="evenodd" clip-rule="evenodd" d="M16 3.25C16.4142 3.25 16.75 3.58579 16.75 4V20C16.75 20.4142 16.4142 20.75 16 20.75C15.5858 20.75 15.25 20.4142 15.25 20V4C15.25 3.58579 15.5858 3.25 16 3.25Z" fill="#212529"/>
<path fill-rule="evenodd" clip-rule="evenodd" d="M3.25 8C3.25 7.58579 3.58579 7.25 4 7.25H8C8.41421 7.25 8.75 7.58579 8.75 8C8.75 8.41421 8.41421 8.75 8 8.75H4C3.58579 8.75 3.25 8.41421 3.25 8Z" fill="#212529"/>
<path fill-rule="evenodd" clip-rule="evenodd" d="M3.25 16C3.25 15.5858 3.58579 15.25 4 15.25H8C8.41421 15.25 8.75 15.5858 8.75 16C8.75 16.4142 8.41421 16.75 8 16.75H4C3.58579 16.75 3.25 16.4142 3.25 16Z" fill="#212529"/>
<path fill-rule="evenodd" clip-rule="evenodd" d="M3.25 12C3.25 11.5858 3.58579 11.25 4 11.25H20C20.4142 11.25 20.75 11.5858 20.75 12C20.75 12.4142 20.4142 12.75 20 12.75H4C3.58579 12.75 3.25 12.4142 3.25 12Z" fill="#212529"/>
<path fill-rule="evenodd" clip-rule="evenodd" d="M15.25 8C15.25 7.58579 15.5858 7.25 16 7.25H20C20.4142 7.25 20.75 7.58579 20.75 8C20.75 8.41421 20.4142 8.75 20 8.75H16C15.5858 8.75 15.25 8.41421 15.25 8Z" fill="#212529"/>
<path fill-rule="evenodd" clip-rule="evenodd" d="M15.25 16C15.25 15.5858 15.5858 15.25 16 15.25H20C20.4142 15.25 20.75 15.5858 20.75 16C20.75 16.4142 20.4142 16.75 20 16.75H16C15.5858 16.75 15.25 16.4142 15.25 16Z" fill="#212529"/>
</svg>
