<svg width="24" height="24" viewBox="0 0 24 24" fill="none" xmlns="http://www.w3.org/2000/svg">
<path fill-rule="evenodd" clip-rule="evenodd" d="M11.4696 3.46963C13.4194 1.51989 16.5805 1.51989 18.5303 3.46963C20.48 5.41938 20.48 8.58055 18.5303 10.5303L12.0303 17.0303C10.909 18.1516 9.09094 18.1516 7.96962 17.0303C6.8483 15.909 6.8483 14.091 7.96962 12.9696L14.4696 6.46963C14.7625 6.17674 15.2374 6.17674 15.5303 6.46963C15.8232 6.76253 15.8232 7.2374 15.5303 7.53029L9.03028 14.0303C8.49474 14.5658 8.49474 15.4341 9.03028 15.9696C9.56581 16.5052 10.4341 16.5052 10.9696 15.9696L17.4696 9.46963C18.8336 8.10567 18.8336 5.89426 17.4696 4.5303C16.1057 3.16633 13.8942 3.16633 12.5303 4.53029L6.03028 11.0303C3.83789 13.2227 3.83789 16.7772 6.03028 18.9696C8.22267 21.162 11.7772 21.162 13.9696 18.9696L20.4696 12.4696C20.7625 12.1767 21.2374 12.1767 21.5303 12.4696C21.8232 12.7625 21.8232 13.2374 21.5303 13.5303L15.0303 20.0303C12.2521 22.8085 7.74779 22.8085 4.96962 20.0303C2.19144 17.2521 2.19144 12.7478 4.96962 9.96963L11.4696 3.46963Z" fill="#212529"/>
</svg>
