<svg width="24" height="24" viewBox="0 0 24 24" fill="none" xmlns="http://www.w3.org/2000/svg">
<path fill-rule="evenodd" clip-rule="evenodd" d="M18.9697 5.03032C17.3296 3.39022 14.6705 3.39022 13.0304 5.03032L5.03037 13.0303C3.39027 14.6704 3.39027 17.3296 5.03037 18.9697C6.67047 20.6098 9.32961 20.6098 10.9697 18.9697L18.9697 10.9697C20.6098 9.32956 20.6098 6.67043 18.9697 5.03032ZM3.96971 11.9697C1.74382 14.1956 1.74382 17.8044 3.96971 20.0303C6.1956 22.2562 9.80448 22.2562 12.0304 20.0303L20.0304 12.0303C22.2563 9.80443 22.2563 6.19555 20.0304 3.96966C17.8045 1.74377 14.1956 1.74377 11.9697 3.96966L3.96971 11.9697Z" fill="#212529"/>
<path fill-rule="evenodd" clip-rule="evenodd" d="M7.96967 7.96967C8.26256 7.67678 8.73744 7.67678 9.03033 7.96967L16.0303 14.9697C16.3232 15.2626 16.3232 15.7374 16.0303 16.0303C15.7374 16.3232 15.2626 16.3232 14.9697 16.0303L7.96967 9.03033C7.67678 8.73744 7.67678 8.26256 7.96967 7.96967Z" fill="#212529"/>
</svg>
