<svg width="24" height="24" viewBox="0 0 24 24" fill="none" xmlns="http://www.w3.org/2000/svg">
<path fill-rule="evenodd" clip-rule="evenodd" d="M10 3.75C9.30964 3.75 8.75 4.30964 8.75 5V6C8.75 6.9665 7.9665 7.75 7 7.75H4C3.86193 7.75 3.75 7.86193 3.75 8V11C3.75 11.1381 3.86193 11.25 4 11.25H5C6.51878 11.25 7.75 12.4812 7.75 14C7.75 15.5188 6.51878 16.75 5 16.75H4C3.86193 16.75 3.75 16.8619 3.75 17V20C3.75 20.1381 3.86193 20.25 4 20.25H7C7.13807 20.25 7.25 20.1381 7.25 20V19C7.25 17.4812 8.48122 16.25 10 16.25C11.5188 16.25 12.75 17.4812 12.75 19V20C12.75 20.1381 12.8619 20.25 13 20.25H16C16.1381 20.25 16.25 20.1381 16.25 20V17C16.25 16.0335 17.0335 15.25 18 15.25H19C19.6904 15.25 20.25 14.6904 20.25 14C20.25 13.3096 19.6904 12.75 19 12.75H18C17.0335 12.75 16.25 11.9665 16.25 11V8C16.25 7.86193 16.1381 7.75 16 7.75H13C12.0335 7.75 11.25 6.9665 11.25 6V5C11.25 4.30964 10.6904 3.75 10 3.75ZM4 6.25C3.0335 6.25 2.25 7.0335 2.25 8V11C2.25 11.9665 3.0335 12.75 4 12.75H5C5.69036 12.75 6.25 13.3096 6.25 14C6.25 14.6904 5.69036 15.25 5 15.25H4C3.0335 15.25 2.25 16.0335 2.25 17V20C2.25 20.9665 3.0335 21.75 4 21.75H7C7.9665 21.75 8.75 20.9665 8.75 20V19C8.75 18.3096 9.30964 17.75 10 17.75C10.6904 17.75 11.25 18.3096 11.25 19V20C11.25 20.9665 12.0335 21.75 13 21.75H16C16.9665 21.75 17.75 20.9665 17.75 20V17C17.75 16.8619 17.8619 16.75 18 16.75H19C20.5188 16.75 21.75 15.5188 21.75 14C21.75 12.4812 20.5188 11.25 19 11.25H18C17.8619 11.25 17.75 11.1381 17.75 11V8C17.75 7.0335 16.9665 6.25 16 6.25H13C12.8619 6.25 12.75 6.13807 12.75 6V5C12.75 3.48122 11.5188 2.25 10 2.25C8.48122 2.25 7.25 3.48122 7.25 5V6C7.25 6.13807 7.13807 6.25 7 6.25H4Z" fill="#212529"/>
</svg>
