<svg width="24" height="24" viewBox="0 0 24 24" fill="none" xmlns="http://www.w3.org/2000/svg">
<path fill-rule="evenodd" clip-rule="evenodd" d="M16.959 3.25111C16.9726 3.25037 16.9863 3.25 16.9999 3.25C19.0709 3.25 20.7499 4.92893 20.7499 7C20.7499 7.01362 20.7495 7.02723 20.7488 7.04083C20.5431 10.8121 18.1812 14.1091 14.7138 15.5305C14.4827 17.6617 13.249 19.5691 11.3745 20.6498C11.1561 20.7757 10.8891 20.7834 10.6637 20.6704C10.4384 20.5575 10.2849 20.3388 10.2551 20.0885C9.86046 16.7676 7.24573 14.1483 3.92706 13.7466C3.87214 13.7413 3.81735 13.7299 3.76368 13.712C3.57168 13.6485 3.41711 13.5108 3.32935 13.3362C3.24196 13.1615 3.22406 12.9553 3.28796 12.7636C3.30594 12.7092 3.32988 12.6579 3.35891 12.6102C4.44114 10.7442 6.34396 9.51657 8.46934 9.28612C9.8908 5.81872 13.1878 3.45674 16.959 3.25111ZM5.2952 12.485C8.33182 13.2871 10.7127 15.6681 11.5149 18.7047C12.565 17.7598 13.2026 16.418 13.2503 14.9752C13.2605 14.6662 13.4593 14.3951 13.751 14.2925C16.8919 13.1876 19.06 10.3033 19.2498 6.98056C19.2394 5.75334 18.2465 4.76046 17.0193 4.75008C13.6966 4.93985 10.8123 7.10801 9.70738 10.2489C9.60477 10.5406 9.33367 10.7394 9.02464 10.7496C7.58187 10.7972 6.24007 11.4349 5.2952 12.485Z" fill="#212529"/>
<path fill-rule="evenodd" clip-rule="evenodd" d="M7.65306 13.6313C7.85669 13.992 7.72937 14.4495 7.36867 14.6531C5.68292 15.6048 4.67228 17.396 4.70007 19.2999C6.604 19.3277 8.39515 18.317 9.34684 16.6313C9.55048 16.2706 10.008 16.1433 10.3687 16.3469C10.7294 16.5505 10.8567 17.008 10.6531 17.3687C9.30084 19.7639 6.63054 21.0991 3.90306 20.7437C3.5657 20.6998 3.30019 20.4343 3.25624 20.0969C2.9009 17.3694 4.23605 14.6991 6.63124 13.3469C6.99194 13.1433 7.44942 13.2706 7.65306 13.6313Z" fill="#212529"/>
<path fill-rule="evenodd" clip-rule="evenodd" d="M15 8.75C14.8619 8.75 14.75 8.86193 14.75 9C14.75 9.13807 14.8619 9.25 15 9.25C15.1381 9.25 15.25 9.13807 15.25 9C15.25 8.86193 15.1381 8.75 15 8.75ZM13.25 9C13.25 8.0335 14.0335 7.25 15 7.25C15.9665 7.25 16.75 8.0335 16.75 9C16.75 9.9665 15.9665 10.75 15 10.75C14.0335 10.75 13.25 9.9665 13.25 9Z" fill="#212529"/>
</svg>
