<svg width="24" height="24" viewBox="0 0 24 24" fill="none" xmlns="http://www.w3.org/2000/svg">
<path fill-rule="evenodd" clip-rule="evenodd" d="M21.5303 2.46967C21.8232 2.76256 21.8232 3.23744 21.5303 3.53033L10.5303 14.5303C10.2374 14.8232 9.76256 14.8232 9.46967 14.5303C9.17678 14.2374 9.17678 13.7626 9.46967 13.4697L20.4697 2.46967C20.7626 2.17678 21.2374 2.17678 21.5303 2.46967Z" fill="#212529"/>
<path fill-rule="evenodd" clip-rule="evenodd" d="M20.7407 2.29623L2.74534 8.79454C2.72578 8.80161 2.70652 8.80948 2.68762 8.81814C2.22549 9.02992 1.9292 9.49162 1.9292 9.99996C1.9292 10.5032 2.21953 10.9607 2.67366 11.1753L9.44105 14.559L12.8248 21.3264C13.0394 21.7805 13.4969 22.0708 14.0001 22.0708C14.5084 22.0708 14.9701 21.7745 15.1819 21.3124C15.1906 21.2935 15.1984 21.2743 15.2055 21.2547L21.7038 3.25933C21.7149 3.22936 21.724 3.19866 21.7312 3.16742C21.7528 3.07359 21.7556 2.97887 21.7418 2.88771C21.733 2.83017 21.7176 2.77405 21.6961 2.72046C21.6573 2.62367 21.6003 2.53919 21.5306 2.46953C21.4609 2.39976 21.3764 2.34278 21.2796 2.30397C21.2421 2.28893 21.2035 2.27689 21.164 2.26801C21.0713 2.24713 20.9778 2.24456 20.8878 2.25826C20.8374 2.26594 20.7881 2.27871 20.7407 2.29623ZM19.752 4.24807L3.73857 10.0307L10.3355 13.3291C10.4806 13.4017 10.5983 13.5194 10.6709 13.6645L13.9693 20.2615L19.752 4.24807Z" fill="#212529"/>
</svg>
