<svg width="24" height="24" viewBox="0 0 24 24" fill="none" xmlns="http://www.w3.org/2000/svg">
<path fill-rule="evenodd" clip-rule="evenodd" d="M6 9.75C4.75736 9.75 3.75 10.7574 3.75 12C3.75 13.2426 4.75736 14.25 6 14.25C7.24264 14.25 8.25 13.2426 8.25 12C8.25 10.7574 7.24264 9.75 6 9.75ZM2.25 12C2.25 9.92893 3.92893 8.25 6 8.25C8.07107 8.25 9.75 9.92893 9.75 12C9.75 14.0711 8.07107 15.75 6 15.75C3.92893 15.75 2.25 14.0711 2.25 12Z" fill="#212529"/>
<path fill-rule="evenodd" clip-rule="evenodd" d="M18 3.75C16.7574 3.75 15.75 4.75736 15.75 6C15.75 7.24264 16.7574 8.25 18 8.25C19.2426 8.25 20.25 7.24264 20.25 6C20.25 4.75736 19.2426 3.75 18 3.75ZM14.25 6C14.25 3.92893 15.9289 2.25 18 2.25C20.0711 2.25 21.75 3.92893 21.75 6C21.75 8.07107 20.0711 9.75 18 9.75C15.9289 9.75 14.25 8.07107 14.25 6Z" fill="#212529"/>
<path fill-rule="evenodd" clip-rule="evenodd" d="M18 15.75C16.7574 15.75 15.75 16.7574 15.75 18C15.75 19.2426 16.7574 20.25 18 20.25C19.2426 20.25 20.25 19.2426 20.25 18C20.25 16.7574 19.2426 15.75 18 15.75ZM14.25 18C14.25 15.9289 15.9289 14.25 18 14.25C20.0711 14.25 21.75 15.9289 21.75 18C21.75 20.0711 20.0711 21.75 18 21.75C15.9289 21.75 14.25 20.0711 14.25 18Z" fill="#212529"/>
<path fill-rule="evenodd" clip-rule="evenodd" d="M15.9668 6.95649C16.1565 7.32472 16.0118 7.777 15.6436 7.96669L9.04358 11.3667C8.67535 11.5564 8.22307 11.4117 8.03338 11.0434C7.84369 10.6752 7.98842 10.2229 8.35664 10.0332L14.9566 6.63323C15.3249 6.44354 15.7771 6.58827 15.9668 6.95649Z" fill="#212529"/>
<path fill-rule="evenodd" clip-rule="evenodd" d="M8.03338 12.9565C8.22307 12.5883 8.67535 12.4435 9.04358 12.6332L15.6436 16.0332C16.0118 16.2229 16.1565 16.6752 15.9668 17.0434C15.7771 17.4117 15.3249 17.5564 14.9566 17.3667L8.35664 13.9667C7.98842 13.777 7.84369 13.3247 8.03338 12.9565Z" fill="#212529"/>
</svg>
