<svg width="24" height="24" viewBox="0 0 24 24" fill="none" xmlns="http://www.w3.org/2000/svg">
<path fill-rule="evenodd" clip-rule="evenodd" d="M12 8.75C10.2051 8.75 8.75 10.2051 8.75 12C8.75 13.7949 10.2051 15.25 12 15.25C13.7949 15.25 15.25 13.7949 15.25 12C15.25 10.2051 13.7949 8.75 12 8.75ZM7.25 12C7.25 9.37665 9.37665 7.25 12 7.25C14.6234 7.25 16.75 9.37665 16.75 12C16.75 14.6234 14.6234 16.75 12 16.75C9.37665 16.75 7.25 14.6234 7.25 12Z" fill="#212529"/>
<path fill-rule="evenodd" clip-rule="evenodd" d="M12 2.25C12.4142 2.25 12.75 2.58579 12.75 3V4C12.75 4.41421 12.4142 4.75 12 4.75C11.5858 4.75 11.25 4.41421 11.25 4V3C11.25 2.58579 11.5858 2.25 12 2.25ZM5.06967 5.06967C5.36256 4.77678 5.83744 4.77678 6.13033 5.06967L6.83033 5.76967C7.12322 6.06256 7.12322 6.53744 6.83033 6.83033C6.53744 7.12322 6.06256 7.12322 5.76967 6.83033L5.06967 6.13033C4.77678 5.83744 4.77678 5.36256 5.06967 5.06967ZM18.9303 5.06967C19.2232 5.36256 19.2232 5.83744 18.9303 6.13033L18.2303 6.83033C17.9374 7.12322 17.4626 7.12322 17.1697 6.83033C16.8768 6.53744 16.8768 6.06256 17.1697 5.76967L17.8697 5.06967C18.1626 4.77678 18.6374 4.77678 18.9303 5.06967ZM2.25 12C2.25 11.5858 2.58579 11.25 3 11.25H4C4.41421 11.25 4.75 11.5858 4.75 12C4.75 12.4142 4.41421 12.75 4 12.75H3C2.58579 12.75 2.25 12.4142 2.25 12ZM19.25 12C19.25 11.5858 19.5858 11.25 20 11.25H21C21.4142 11.25 21.75 11.5858 21.75 12C21.75 12.4142 21.4142 12.75 21 12.75H20C19.5858 12.75 19.25 12.4142 19.25 12ZM6.83033 17.1697C7.12322 17.4626 7.12322 17.9374 6.83033 18.2303L6.13033 18.9303C5.83744 19.2232 5.36256 19.2232 5.06967 18.9303C4.77678 18.6374 4.77678 18.1626 5.06967 17.8697L5.76967 17.1697C6.06256 16.8768 6.53744 16.8768 6.83033 17.1697ZM17.1697 17.1697C17.4626 16.8768 17.9374 16.8768 18.2303 17.1697L18.9303 17.8697C19.2232 18.1626 19.2232 18.6374 18.9303 18.9303C18.6374 19.2232 18.1626 19.2232 17.8697 18.9303L17.1697 18.2303C16.8768 17.9374 16.8768 17.4626 17.1697 17.1697ZM12 19.25C12.4142 19.25 12.75 19.5858 12.75 20V21C12.75 21.4142 12.4142 21.75 12 21.75C11.5858 21.75 11.25 21.4142 11.25 21V20C11.25 19.5858 11.5858 19.25 12 19.25Z" fill="#212529"/>
</svg>
