<svg width="24" height="24" viewBox="0 0 24 24" fill="none" xmlns="http://www.w3.org/2000/svg">
<path fill-rule="evenodd" clip-rule="evenodd" d="M3.25 7C3.25 6.58579 3.58579 6.25 4 6.25H20C20.4142 6.25 20.75 6.58579 20.75 7C20.75 7.41421 20.4142 7.75 20 7.75H4C3.58579 7.75 3.25 7.41421 3.25 7Z" fill="#212529"/>
<path fill-rule="evenodd" clip-rule="evenodd" d="M10 10.25C10.4142 10.25 10.75 10.5858 10.75 11V17C10.75 17.4142 10.4142 17.75 10 17.75C9.58579 17.75 9.25 17.4142 9.25 17V11C9.25 10.5858 9.58579 10.25 10 10.25Z" fill="#212529"/>
<path fill-rule="evenodd" clip-rule="evenodd" d="M14 10.25C14.4142 10.25 14.75 10.5858 14.75 11V17C14.75 17.4142 14.4142 17.75 14 17.75C13.5858 17.75 13.25 17.4142 13.25 17V11C13.25 10.5858 13.5858 10.25 14 10.25Z" fill="#212529"/>
<path fill-rule="evenodd" clip-rule="evenodd" d="M4.93776 6.25263C5.35054 6.21823 5.71305 6.52497 5.74745 6.93776L6.74745 18.9378C6.74918 18.9585 6.75004 18.9793 6.75004 19C6.75004 19.6904 7.30969 20.25 8.00004 20.25H16C16.6904 20.25 17.25 19.6904 17.25 19C17.25 18.9793 17.2509 18.9585 17.2526 18.9378L18.2526 6.93776C18.287 6.52497 18.6495 6.21823 19.0623 6.25263C19.4751 6.28703 19.7818 6.64954 19.7475 7.06233L18.7498 19.0336C18.7318 20.5369 17.5076 21.75 16 21.75H8.00004C6.49248 21.75 5.26825 20.5369 5.25024 19.0337L4.25263 7.06233C4.21823 6.64954 4.52497 6.28703 4.93776 6.25263Z" fill="#212529"/>
<path fill-rule="evenodd" clip-rule="evenodd" d="M10 3.75C9.86193 3.75 9.75 3.86193 9.75 4V7C9.75 7.41421 9.41421 7.75 9 7.75C8.58579 7.75 8.25 7.41421 8.25 7V4C8.25 3.0335 9.0335 2.25 10 2.25H14C14.9665 2.25 15.75 3.0335 15.75 4V7C15.75 7.41421 15.4142 7.75 15 7.75C14.5858 7.75 14.25 7.41421 14.25 7V4C14.25 3.86193 14.1381 3.75 14 3.75H10Z" fill="#212529"/>
</svg>
