<svg width="24" height="24" viewBox="0 0 24 24" fill="none" xmlns="http://www.w3.org/2000/svg">
<path fill-rule="evenodd" clip-rule="evenodd" d="M3.25 6C3.25 4.48122 4.48122 3.25 6 3.25H16C16.9665 3.25 17.75 4.0335 17.75 5V7.25H18C18.9665 7.25 19.75 8.0335 19.75 9V12C19.75 12.4142 19.4142 12.75 19 12.75C18.5858 12.75 18.25 12.4142 18.25 12V9C18.25 8.86193 18.1381 8.75 18 8.75H6C5.54989 8.75 5.12503 8.64186 4.75 8.45015V18C4.75 18.6904 5.30964 19.25 6 19.25H18C18.1381 19.25 18.25 19.1381 18.25 19V16C18.25 15.5858 18.5858 15.25 19 15.25C19.4142 15.25 19.75 15.5858 19.75 16V19C19.75 19.9665 18.9665 20.75 18 20.75H6C4.48122 20.75 3.25 19.5188 3.25 18V6ZM4.75 6C4.75 6.69036 5.30964 7.25 6 7.25H16.25V5C16.25 4.86193 16.1381 4.75 16 4.75H6C5.30964 4.75 4.75 5.30964 4.75 6Z" fill="#212529"/>
<path fill-rule="evenodd" clip-rule="evenodd" d="M16 12.75C15.3096 12.75 14.75 13.3096 14.75 14C14.75 14.6904 15.3096 15.25 16 15.25H19.25V12.75H16ZM20 11.25H16C14.4812 11.25 13.25 12.4812 13.25 14C13.25 15.5188 14.4812 16.75 16 16.75H20C20.4142 16.75 20.75 16.4142 20.75 16V12C20.75 11.5858 20.4142 11.25 20 11.25Z" fill="#212529"/>
</svg>
